<?xml version="1.0" standalone="no"?>
<!DOCTYPE svg PUBLIC "-//W3C//DTD SVG 20010904//EN"
 "http://www.w3.org/TR/2001/REC-SVG-20010904/DTD/svg10.dtd">
<svg version="1.0" xmlns="http://www.w3.org/2000/svg"
 width="3508.000000pt" height="2480.000000pt" viewBox="0 0 3508.000000 2480.000000"
 preserveAspectRatio="xMidYMid meet">
<metadata>
Created by potrace 1.11, written by Peter Selinger 2001-2013
</metadata>
<g transform="translate(0.000000,2480.000000) scale(0.100000,-0.100000)"
fill="#000000" stroke="none">
<path d="M1563 23612 c-18 -2 -33 -5 -33 -7 0 -2 -7 -39 -15 -82 -19 -99 -20
-95 12 -91 26 3 28 7 42 86 l14 82 42 0 c56 0 74 -20 51 -55 -13 -20 -25 -25
-58 -25 l-41 0 39 -44 c31 -35 46 -44 73 -45 l35 -1 -32 33 c-18 18 -32 36
-32 39 0 3 12 9 28 13 52 13 81 61 50 82 -16 9 -130 19 -175 15z"/>
<path d="M2830 22736 c0 -795 2 -884 16 -890 8 -3 2189 -6 4845 -6 l4829 0 0
890 0 890 -4845 0 -4845 0 0 -884z m9030 -21 l0 -355 -75 0 -75 0 0 355 0 355
75 0 75 0 0 -355z m-7210 270 l-61 -75 -51 0 -50 0 38 68 c20 37 39 70 41 75
2 4 36 7 74 7 l70 0 -61 -75z m2935 50 c14 -13 25 -36 25 -50 0 -36 -42 -75
-80 -75 -38 0 -80 39 -80 75 0 36 42 75 80 75 19 0 40 -9 55 -25z m-863 -6
c29 -6 57 -15 61 -19 5 -4 1 -33 -8 -64 -14 -46 -20 -56 -33 -51 -37 14 -125
26 -153 20 -26 -6 -69 -46 -69 -66 0 -23 53 -63 120 -90 96 -39 138 -71 162
-127 42 -94 2 -199 -94 -246 -87 -43 -235 -44 -323 -4 -22 10 -22 11 -7 70 13
53 17 59 36 53 78 -25 136 -34 170 -29 41 7 86 42 86 68 0 29 -50 73 -108 94
-162 60 -226 161 -173 278 45 99 181 145 333 113z m-2944 -181 c29 -101 55
-202 58 -226 4 -23 10 -44 14 -47 3 -2 15 31 25 73 10 42 39 145 65 227 l48
150 101 3 101 3 0 -38 c0 -21 7 -150 15 -288 8 -137 15 -271 15 -297 l0 -48
-69 0 -69 0 -6 63 c-3 34 -9 151 -13 260 l-8 199 -38 -129 c-21 -70 -56 -185
-78 -255 l-40 -128 -59 0 -59 0 -11 43 c-7 23 -27 96 -45 162 -19 66 -43 160
-54 208 -10 49 -21 90 -24 93 -2 2 -7 -80 -11 -183 -3 -104 -9 -221 -13 -260
l-6 -73 -69 0 -70 0 6 48 c3 26 13 176 23 335 l17 287 101 0 102 0 51 -182z
m5510 0 c29 -101 55 -202 58 -226 4 -23 10 -44 14 -47 3 -2 15 31 25 73 10 42
39 145 65 227 l48 150 101 3 101 3 0 -38 c0 -21 7 -150 15 -288 8 -137 15
-271 15 -297 l0 -48 -69 0 -69 0 -6 63 c-3 34 -9 151 -13 260 l-8 199 -38
-129 c-21 -70 -56 -185 -78 -255 l-40 -128 -59 0 -59 0 -11 43 c-7 23 -27 96
-45 162 -19 66 -43 160 -54 208 -10 49 -21 90 -24 93 -2 2 -7 -80 -11 -183 -3
-104 -9 -221 -13 -260 l-6 -73 -69 0 -70 0 6 48 c3 26 13 176 23 335 l17 287
101 0 102 0 51 -182z m-4258 57 l0 -65 55 0 55 0 0 -55 0 -55 -55 0 -55 0 0
-110 c0 -98 2 -112 21 -131 15 -15 30 -20 50 -17 l29 5 0 -58 0 -58 -36 -7
c-47 -9 -118 2 -150 22 -48 32 -58 67 -62 217 l-4 137 -29 0 c-28 0 -29 1 -29
55 0 54 0 55 30 55 29 0 30 2 30 45 l0 44 58 16 c31 9 62 18 67 20 23 8 25 2
25 -60z m3450 0 l0 -65 55 0 55 0 0 -55 0 -55 -55 0 -55 0 0 -110 c0 -98 2
-112 21 -131 15 -15 30 -20 50 -17 l29 5 0 -58 0 -58 -36 -7 c-47 -9 -118 2
-150 22 -48 32 -58 67 -62 217 l-4 137 -29 0 c-28 0 -29 1 -29 55 0 54 0 55
30 55 29 0 30 2 30 45 l0 44 58 16 c31 9 62 18 67 20 23 8 25 2 25 -60z
m-3822 -79 c64 -33 101 -100 109 -197 l6 -69 -162 0 c-179 0 -188 -4 -133 -60
35 -35 102 -47 181 -32 31 5 59 7 63 3 4 -3 8 -26 10 -51 l3 -44 -50 -12
c-117 -28 -236 -9 -302 49 -52 46 -73 98 -73 183 0 59 5 81 28 125 30 58 87
105 143 120 45 11 143 3 177 -15z m872 -45 l0 -68 -47 -6 c-37 -4 -54 -12 -75
-36 -28 -31 -28 -32 -28 -171 l0 -140 -75 0 -75 0 0 240 0 240 65 0 65 0 0
-47 0 -48 26 39 c28 40 71 65 117 66 27 0 27 0 27 -69z m425 41 c86 -44 128
-117 128 -223 0 -180 -158 -288 -341 -234 -106 32 -166 117 -165 236 0 115 61
201 163 234 61 20 164 14 215 -13z m1294 -3 c22 -12 49 -39 62 -63 22 -38 24
-55 27 -218 l4 -178 -66 0 c-62 0 -66 1 -72 25 -6 24 -8 24 -23 11 -80 -72
-221 -53 -261 36 -23 51 -25 87 -6 131 27 67 124 117 222 117 50 0 59 9 39 37
-21 30 -79 37 -148 18 -32 -8 -60 -15 -62 -15 -4 0 -25 69 -25 83 0 4 12 12
28 18 89 35 218 34 281 -2z m847 10 c33 -15 49 -32 68 -72 25 -49 26 -58 26
-224 l0 -173 -74 0 -75 0 -3 166 c-3 160 -4 166 -27 185 -33 27 -68 24 -102
-10 l-29 -29 0 -156 0 -156 -75 0 -75 0 0 240 0 240 65 0 65 0 0 -37 0 -37 28
27 c60 57 137 71 208 36z m2073 -10 c22 -12 49 -39 62 -63 22 -38 24 -55 27
-218 l4 -178 -66 0 c-62 0 -66 1 -72 25 -6 24 -8 24 -23 11 -80 -72 -221 -53
-261 36 -23 51 -25 87 -6 131 27 67 124 117 222 117 50 0 59 9 39 37 -21 30
-79 37 -148 18 -32 -8 -60 -15 -62 -15 -4 0 -25 69 -25 83 0 4 12 12 28 18 89
35 218 34 281 -2z m501 -38 l0 -68 -47 -6 c-37 -4 -54 -12 -75 -36 -28 -31
-28 -32 -28 -171 l0 -140 -75 0 -75 0 0 240 0 240 65 0 65 0 0 -47 0 -48 26
39 c28 40 71 65 117 66 27 0 27 0 27 -69z m440 52 c5 -4 3 -31 -3 -58 l-10
-51 -62 4 c-108 7 -162 -42 -152 -141 3 -38 11 -56 36 -80 30 -30 36 -32 106
-32 l75 0 6 -35 c3 -19 8 -42 10 -51 6 -21 -15 -29 -97 -36 -128 -11 -238 46
-275 143 -25 66 -16 180 19 233 58 87 142 124 266 117 40 -3 77 -8 81 -13z
m408 -7 c64 -33 101 -100 109 -197 l6 -69 -162 0 c-179 0 -188 -4 -133 -60 35
-35 102 -47 181 -32 31 5 59 7 63 3 4 -3 8 -26 10 -51 l3 -44 -50 -12 c-117
-28 -236 -9 -302 49 -52 46 -73 98 -73 183 0 59 5 81 28 125 30 58 87 105 143
120 45 11 143 3 177 -15z m-3918 -226 l0 -240 -75 0 -75 0 0 240 0 240 75 0
75 0 0 -240z m1310 20 l0 -50 -130 0 -130 0 0 50 0 50 130 0 130 0 0 -50z"/>
<path d="M4479 22721 c-51 -52 -42 -61 62 -61 l91 0 -6 28 c-16 66 -96 84
-147 33z"/>
<path d="M5777 22720 c-73 -58 -56 -225 27 -254 104 -38 172 146 90 244 -31
36 -78 40 -117 10z"/>
<path d="M7093 22575 c-37 -16 -51 -54 -34 -91 9 -19 18 -24 50 -24 50 0 81
35 81 91 0 37 -1 39 -32 39 -18 -1 -47 -7 -65 -15z"/>
<path d="M10013 22575 c-37 -16 -51 -54 -34 -91 9 -19 18 -24 50 -24 50 0 81
35 81 91 0 37 -1 39 -32 39 -18 -1 -47 -7 -65 -15z"/>
<path d="M11339 22721 c-51 -52 -42 -61 62 -61 l91 0 -6 28 c-16 66 -96 84
-147 33z"/>
<path d="M30970 23610 c-270 -47 -480 -301 -480 -580 0 -166 54 -294 175 -416
122 -124 244 -174 422 -174 247 0 458 149 550 388 35 90 43 247 18 342 -28
110 -73 188 -155 271 -142 144 -329 204 -530 169z m211 -240 c29 -6 69 -19 89
-29 101 -52 107 -188 9 -245 l-32 -19 35 -18 c148 -76 118 -285 -46 -334 -66
-20 -204 -30 -289 -21 l-67 8 0 328 0 329 53 4 c112 8 197 7 248 -3z"/>
<path d="M31030 23196 l0 -76 44 0 c84 0 126 28 126 83 0 40 -34 61 -106 65
l-64 4 0 -76z"/>
<path d="M31030 22910 l0 -100 45 0 c86 0 145 42 145 103 0 63 -49 97 -140 97
l-50 0 0 -100z"/>
<path d="M1849 23522 c-75 -85 -97 -123 -41 -69 24 23 37 27 85 27 52 0 59 -3
69 -25 8 -18 19 -25 40 -25 15 0 28 3 28 6 0 12 -92 174 -98 174 -4 -1 -41
-40 -83 -88z m76 -2 l16 -30 -46 0 -46 0 21 30 c12 17 25 30 30 30 5 0 16 -13
25 -30z"/>
<path d="M2088 23603 c63 -5 61 2 27 -150 -5 -20 -1 -23 24 -23 24 0 30 5 35
28 3 15 10 53 16 84 l11 57 52 4 c29 2 -9 3 -83 3 -74 0 -111 -1 -82 -3z"/>
<path d="M2356 23598 c-8 -25 -26 -132 -26 -150 0 -12 7 -18 24 -18 20 0 25 6
31 40 l7 40 67 0 c44 0 74 5 89 16 24 17 29 53 10 72 -17 17 -197 17 -202 0z
m152 -24 c5 -32 -24 -54 -69 -54 -41 0 -46 8 -33 58 6 20 12 23 53 20 38 -2
47 -7 49 -24z"/>
<path d="M31780 23030 l0 -350 470 0 470 0 0 350 0 350 -470 0 -470 0 0 -350z
m420 160 l0 -50 -95 0 c-87 0 -95 -2 -95 -19 0 -11 -3 -26 -6 -35 -5 -13 2
-16 43 -16 191 0 241 -231 68 -311 -66 -31 -245 -20 -245 14 0 7 5 28 10 48
l10 36 55 -14 c67 -17 111 -7 139 30 19 26 19 30 5 55 -21 38 -55 52 -129 52
l-65 0 14 130 15 130 138 0 138 0 0 -50z m430 10 c0 -30 -25 -92 -97 -244
l-98 -205 -66 -1 -66 0 99 195 99 195 -111 0 -110 0 0 50 0 50 175 0 175 0 0
-40z"/>
<path d="M1850 23314 c-95 -25 -197 -82 -268 -148 l-66 -63 55 -26 c30 -14 66
-34 81 -44 27 -17 28 -17 55 9 152 141 384 158 560 41 158 -105 235 -304 188
-488 -27 -104 -63 -165 -146 -246 l-78 -77 -16 -83 c-8 -45 -14 -83 -12 -85 7
-7 126 49 175 82 71 50 162 150 201 223 69 131 89 306 51 455 -29 116 -73 190
-165 281 -89 90 -182 143 -295 169 -81 20 -247 19 -320 0z"/>
<path d="M33135 23236 c-123 -55 -142 -229 -33 -296 36 -22 116 -27 149 -10
32 17 23 -12 -14 -48 -35 -34 -81 -52 -134 -52 -33 0 -33 -1 -33 -46 l0 -47
73 5 c165 11 257 115 257 292 -1 106 -40 178 -113 205 -39 15 -116 13 -152 -3z
m120 -96 c23 -25 32 -102 14 -117 -51 -42 -119 -10 -119 56 0 20 7 47 16 59
19 28 64 29 89 2z"/>
<path d="M33554 23210 l-62 -28 11 -45 10 -46 36 15 c20 9 42 18 49 21 9 4 12
-37 12 -186 l0 -191 55 0 55 0 0 245 0 245 -52 -1 c-36 0 -73 -10 -114 -29z"/>
<path d="M1228 23044 c-47 -14 -48 -16 -48 -55 0 -34 3 -39 18 -35 146 44 268
31 367 -39 130 -92 154 -106 196 -113 24 -4 72 -4 107 1 35 5 65 7 67 5 3 -2
8 -28 12 -58 7 -49 10 -54 43 -65 27 -9 36 -18 40 -41 5 -24 10 -29 35 -29 27
0 30 -4 33 -33 3 -26 10 -35 39 -47 40 -17 41 -8 -11 -142 -65 -168 -95 -399
-65 -505 9 -36 12 -38 49 -38 l39 0 -10 32 c-14 51 -11 221 7 306 14 69 69
242 105 330 18 43 5 63 -51 76 -45 11 -47 13 -66 85 -3 9 -12 11 -28 7 -21 -5
-25 -2 -28 21 -2 20 -12 32 -35 42 -26 12 -33 21 -38 55 -14 89 -15 90 -125
75 -97 -13 -127 -5 -207 58 -142 110 -306 150 -445 107z"/>
<path d="M1388 22873 c-8 -25 -13 -86 -13 -173 0 -162 19 -229 97 -345 101
-152 263 -251 441 -270 75 -8 66 -18 84 97 l10 58 -36 5 c-134 22 -215 62
-294 146 -101 108 -152 281 -117 399 10 33 8 37 -21 62 -28 23 -106 58 -130
58 -4 0 -13 -17 -21 -37z"/>
<path d="M3180 17865 l0 -265 55 0 55 0 0 265 0 265 -55 0 -55 0 0 -265z"/>
<path d="M2480 18109 c-54 -17 -87 -46 -105 -93 -33 -85 18 -165 126 -201 78
-26 110 -73 74 -108 -29 -29 -104 -30 -178 -2 -12 5 -18 -3 -27 -34 -6 -23 -8
-46 -5 -51 9 -15 117 -33 171 -27 89 9 146 50 165 119 22 82 -27 155 -130 194
-73 27 -92 43 -89 73 5 41 49 57 117 43 61 -13 63 -12 79 36 11 31 10 33 -16
43 -39 16 -141 20 -182 8z"/>
<path d="M3981 18068 l-30 -53 37 -3 c33 -3 41 1 79 45 24 26 43 51 43 56 0 4
-22 7 -49 7 -49 0 -50 0 -80 -52z"/>
<path d="M4806 18104 c-9 -8 -16 -24 -16 -35 0 -25 35 -59 60 -59 25 0 60 34
60 59 0 28 -27 51 -60 51 -16 0 -36 -7 -44 -16z"/>
<path d="M5085 18066 c43 -50 51 -56 86 -56 l39 0 -30 53 -29 52 -57 3 -56 3
47 -55z"/>
<path d="M4303 18042 c-51 -14 -53 -16 -53 -48 0 -30 -3 -34 -25 -34 -22 0
-25 -4 -25 -40 0 -36 3 -40 25 -40 25 0 25 0 25 -95 0 -60 5 -108 14 -130 17
-39 60 -65 110 -65 56 0 66 8 66 51 0 35 -3 39 -24 39 -46 0 -57 24 -54 114
l3 81 38 3 c36 3 37 4 37 43 0 39 0 39 -39 39 l-40 0 -3 48 -3 49 -52 -15z"/>
<path d="M2835 17957 c-37 -12 -40 -15 -37 -47 3 -43 5 -44 43 -31 49 17 103
14 122 -7 10 -10 17 -21 17 -24 0 -3 -24 -8 -54 -11 -132 -13 -198 -96 -151
-187 30 -59 105 -76 175 -40 34 17 40 18 40 5 0 -11 12 -15 50 -15 l50 0 0
128 c0 140 -11 178 -63 216 -34 25 -134 31 -192 13z m145 -221 c0 -57 -76 -91
-100 -46 -22 41 12 78 73 79 24 1 27 -2 27 -33z"/>
<path d="M3544 17956 c-18 -8 -35 -19 -38 -25 -11 -18 -26 -13 -26 9 0 17 -7
20 -51 20 l-51 0 6 -31 c3 -17 6 -132 6 -255 l0 -224 55 0 55 0 0 92 c0 90 0
91 20 73 11 -10 40 -20 67 -22 61 -5 118 26 151 82 19 34 22 51 20 117 -2 59
-8 83 -24 105 -50 67 -121 89 -190 59z m76 -96 c37 -37 39 -122 4 -161 -23
-25 -78 -25 -104 1 -28 28 -28 117 1 154 25 32 70 35 99 6z"/>
<path d="M3933 17959 c-66 -19 -123 -102 -123 -179 0 -124 95 -200 235 -187
90 9 98 13 91 55 -3 19 -7 36 -8 38 -2 1 -24 -2 -50 -7 -57 -13 -121 2 -143
34 -8 12 -15 25 -15 29 0 5 54 8 120 8 l120 0 0 50 c0 126 -99 196 -227 159z
m110 -87 c35 -31 21 -42 -53 -42 -38 0 -70 3 -70 6 0 16 24 46 43 54 26 10 55
4 80 -18z"/>
<path d="M4665 17959 c-11 -6 -30 -23 -42 -38 l-23 -26 0 33 c0 32 0 32 -51
32 -48 0 -51 -1 -45 -22 3 -13 6 -94 6 -180 l0 -158 55 0 55 0 0 110 c0 127
12 150 75 150 l35 0 0 55 c0 50 -2 55 -22 55 -13 0 -32 -5 -43 -11z"/>
<path d="M5093 17959 c-66 -19 -123 -102 -123 -179 0 -124 95 -200 235 -187
90 9 98 13 91 55 -3 19 -7 36 -8 38 -2 1 -24 -2 -50 -7 -57 -13 -121 2 -143
34 -8 12 -15 25 -15 29 0 5 54 8 120 8 l120 0 0 50 c0 126 -99 196 -227 159z
m110 -87 c35 -31 21 -42 -53 -42 -38 0 -70 3 -70 6 0 16 24 46 43 54 26 10 55
4 80 -18z"/>
<path d="M5555 17959 c-11 -6 -30 -23 -42 -38 l-23 -26 0 33 c0 32 0 32 -51
32 -48 0 -51 -1 -45 -22 3 -13 6 -94 6 -180 l0 -158 55 0 55 0 0 110 c0 127
12 150 75 150 l35 0 0 55 c0 50 -2 55 -22 55 -13 0 -32 -5 -43 -11z"/>
<path d="M5773 17959 c-66 -19 -123 -102 -123 -179 0 -124 95 -200 235 -187
90 9 98 13 91 55 -3 19 -7 36 -8 38 -2 1 -24 -2 -50 -7 -57 -13 -121 2 -143
34 -8 12 -15 25 -15 29 0 5 54 8 120 8 l120 0 0 50 c0 126 -99 196 -227 159z
m110 -87 c35 -31 21 -42 -53 -42 -38 0 -70 3 -70 6 0 16 24 46 43 54 26 10 55
4 80 -18z"/>
<path d="M4800 17780 l0 -180 55 0 55 0 0 180 0 180 -55 0 -55 0 0 -180z"/>
<path d="M2510 15648 c0 -134 -3 -253 -6 -265 -6 -22 -3 -23 45 -23 48 0 51 1
51 26 l0 27 26 -26 c66 -66 193 -35 234 56 28 61 27 160 -3 211 -43 75 -140
97 -208 47 l-29 -22 0 106 0 105 -55 0 -55 0 0 -242z m236 -29 c14 -16 19 -36
19 -81 0 -51 -4 -63 -24 -79 -31 -25 -69 -24 -98 3 -32 30 -33 123 -3 156 27
29 80 29 106 1z"/>
<path d="M3830 15625 l0 -265 55 0 55 0 0 265 0 265 -55 0 -55 0 0 -265z"/>
<path d="M5730 15795 c0 -52 -2 -95 -5 -95 -4 0 -20 7 -37 16 -67 35 -160 -1
-198 -76 -22 -44 -27 -140 -9 -187 36 -97 153 -131 229 -67 l30 26 0 -26 c0
-25 3 -26 50 -26 l50 0 0 265 0 265 -55 0 -55 0 0 -95z m-25 -175 c22 -24 30
-96 16 -133 -6 -15 -22 -32 -35 -38 -61 -28 -112 27 -103 108 6 55 30 83 72
83 19 0 39 -8 50 -20z"/>
<path d="M3034 15706 c-66 -34 -97 -87 -98 -165 -1 -109 60 -177 168 -188 47
-5 64 -2 109 20 71 35 101 86 101 172 0 108 -62 173 -172 182 -47 4 -65 0
-108 -21z m135 -75 c11 -11 23 -36 27 -55 20 -110 -54 -187 -117 -120 -20 21
-24 36 -24 86 0 53 3 62 28 84 34 29 60 31 86 5z"/>
<path d="M4133 15719 c-66 -19 -123 -102 -123 -179 0 -124 95 -200 235 -187
90 9 98 13 91 55 -3 19 -7 36 -8 38 -2 1 -24 -2 -50 -7 -57 -13 -121 2 -143
34 -8 12 -15 25 -15 29 0 5 54 8 120 8 l120 0 0 50 c0 126 -99 196 -227 159z
m110 -87 c35 -31 21 -42 -53 -42 -38 0 -70 3 -70 6 0 16 24 46 43 54 26 10 55
4 80 -18z"/>
<path d="M4865 15717 c-37 -12 -40 -15 -37 -47 3 -43 5 -44 43 -31 49 17 103
14 122 -7 10 -10 17 -21 17 -24 0 -3 -24 -8 -54 -11 -132 -13 -198 -96 -151
-187 30 -59 105 -76 175 -40 34 17 40 18 40 5 0 -11 12 -15 50 -15 l50 0 0
128 c0 140 -11 178 -63 216 -34 25 -134 31 -192 13z m145 -221 c0 -57 -76 -91
-100 -46 -22 41 12 78 73 79 24 1 27 -2 27 -33z"/>
<path d="M5375 15719 c-11 -6 -30 -23 -42 -38 l-23 -26 0 33 c0 32 0 32 -51
32 -48 0 -51 -1 -45 -22 3 -13 6 -94 6 -180 l0 -158 55 0 55 0 0 110 c0 127
12 150 75 150 l35 0 0 55 c0 50 -2 55 -22 55 -13 0 -32 -5 -43 -11z"/>
<path d="M3390 15584 c0 -156 11 -193 65 -218 56 -27 114 -18 154 25 l21 23 0
-27 c0 -26 2 -27 50 -27 l50 0 0 180 0 180 -55 0 -55 0 0 -115 c0 -110 -1
-117 -25 -140 -29 -30 -49 -31 -75 -5 -18 18 -20 33 -20 140 l0 120 -55 0 -55
0 0 -136z"/>
<path d="M4390 15713 c0 -5 29 -84 64 -178 l64 -170 59 0 58 0 66 175 66 175
-54 3 c-31 2 -58 1 -61 -3 -3 -3 -20 -58 -37 -122 -32 -117 -36 -123 -49 -68
-4 17 -19 67 -32 113 l-25 82 -60 0 c-32 0 -59 -3 -59 -7z"/>
<path d="M2550 14895 c0 -52 -2 -95 -5 -95 -4 0 -20 7 -37 16 -67 35 -160 -1
-198 -76 -22 -44 -27 -140 -9 -187 36 -97 153 -131 229 -67 l30 26 0 -26 c0
-25 3 -26 50 -26 l50 0 0 265 0 265 -55 0 -55 0 0 -95z m-25 -175 c22 -24 30
-96 16 -133 -6 -15 -22 -32 -35 -38 -61 -28 -112 27 -103 108 6 55 30 83 72
83 19 0 39 -8 50 -20z"/>
<path d="M3300 14725 l0 -265 55 0 55 0 0 265 0 265 -55 0 -55 0 0 -265z"/>
<path d="M5940 14725 l0 -265 55 0 55 0 0 265 0 265 -55 0 -55 0 0 -265z"/>
<path d="M3495 14893 c8 -112 9 -113 44 -113 33 0 32 -3 46 143 l5 57 -50 0
-51 0 6 -87z"/>
<path d="M4266 14925 l-36 -55 40 0 c22 0 40 3 40 8 0 4 9 18 19 31 l18 24 19
-32 c15 -26 24 -31 56 -31 l38 0 -36 55 c-35 52 -39 55 -79 55 -40 0 -44 -3
-79 -55z"/>
<path d="M5066 14964 c-9 -8 -16 -24 -16 -35 0 -25 35 -59 60 -59 25 0 60 34
60 59 0 28 -27 51 -60 51 -16 0 -36 -7 -44 -16z"/>
<path d="M3660 14715 l0 -255 55 0 55 0 0 105 0 105 95 0 95 0 0 -105 0 -105
55 0 55 0 0 255 0 255 -55 0 -55 0 0 -100 0 -100 -95 0 -95 0 0 100 0 100 -55
0 -55 0 0 -255z"/>
<path d="M5323 14902 c-51 -14 -53 -16 -53 -48 0 -30 -3 -34 -25 -34 -22 0
-25 -4 -25 -40 0 -36 3 -40 25 -40 25 0 25 0 25 -95 0 -60 5 -108 14 -130 17
-39 60 -65 110 -65 56 0 66 8 66 51 0 35 -3 39 -24 39 -46 0 -57 24 -54 114
l3 81 38 3 c36 3 37 4 37 43 0 39 0 39 -39 39 l-40 0 -3 48 -3 49 -52 -15z"/>
<path d="M2853 14819 c-66 -19 -123 -102 -123 -179 0 -124 95 -200 235 -187
90 9 98 13 91 55 -3 19 -7 36 -8 38 -2 1 -24 -2 -50 -7 -57 -13 -121 2 -143
34 -8 12 -15 25 -15 29 0 5 54 8 120 8 l120 0 0 50 c0 126 -99 196 -227 159z
m110 -87 c35 -31 21 -42 -53 -42 -38 0 -70 3 -70 6 0 16 24 46 43 54 26 10 55
4 80 -18z"/>
<path d="M4254 14806 c-66 -34 -97 -87 -98 -165 -1 -109 60 -177 168 -188 47
-5 64 -2 109 20 71 35 101 86 101 172 0 108 -62 173 -172 182 -47 4 -65 0
-108 -21z m135 -75 c11 -11 23 -36 27 -55 20 -110 -54 -187 -117 -120 -20 21
-24 36 -24 86 0 53 3 62 28 84 34 29 60 31 86 5z"/>
<path d="M4764 14816 c-18 -8 -35 -19 -38 -25 -11 -18 -26 -13 -26 9 0 17 -7
20 -51 20 l-51 0 6 -31 c3 -17 6 -132 6 -255 l0 -224 55 0 55 0 0 92 c0 90 0
91 20 73 11 -10 40 -20 67 -22 61 -5 118 26 151 82 19 34 22 51 20 117 -2 59
-8 83 -24 105 -50 67 -121 89 -190 59z m76 -96 c37 -37 39 -122 4 -161 -23
-25 -78 -25 -104 1 -28 28 -28 117 1 154 25 32 70 35 99 6z"/>
<path d="M5585 14817 c-37 -12 -40 -15 -37 -47 3 -43 5 -44 43 -31 49 17 103
14 122 -7 10 -10 17 -21 17 -24 0 -3 -24 -8 -54 -11 -132 -13 -198 -96 -151
-187 30 -59 105 -76 175 -40 34 17 40 18 40 5 0 -11 12 -15 50 -15 l50 0 0
128 c0 140 -11 178 -63 216 -34 25 -134 31 -192 13z m145 -221 c0 -57 -76 -91
-100 -46 -22 41 12 78 73 79 24 1 27 -2 27 -33z"/>
<path d="M5060 14640 l0 -180 55 0 55 0 0 180 0 180 -55 0 -55 0 0 -180z"/>
<path d="M11220 13605 l0 -875 -825 0 -825 0 0 760 0 760 -890 0 -890 0 0
-737 c0 -406 0 -748 0 -760 l0 -23 -915 0 -915 0 0 -125 0 -125 1216 0 1215 0
-3 33 -3 32 295 0 295 0 3 -32 3 -33 954 -2 954 -3 -130 -277 c-71 -153 -129
-280 -129 -282 0 -6 110 -49 114 -45 4 4 58 119 134 284 20 44 63 134 94 200
l57 120 221 3 220 2 0 875 0 875 10970 0 10970 0 0 -945 0 -945 -9993 0
c-9848 0 -9995 0 -10069 -19 -194 -50 -306 -160 -343 -338 -21 -100 -21 -1057
0 -1158 41 -197 162 -325 343 -364 39 -8 2657 -11 10057 -11 l10005 0 0 -945
0 -945 -10970 0 -10970 0 0 750 0 750 -1015 0 -1015 -1 0 -2544 0 -2545 -1737
-2 -1738 -3 -3 -123 -3 -122 1866 0 1865 0 0 63 c0 34 0 1177 0 2540 0 2000 2
2477 12 2477 7 0 352 1 765 3 l753 2 0 -747 0 -748 11223 0 11222 0 0 1092 0
1092 50 29 c28 16 67 45 88 65 50 48 104 160 117 242 6 37 10 275 10 558 0
545 -4 588 -62 712 -35 72 -113 156 -171 184 l-38 17 1 1022 c1 562 1 1052 1
1090 l-1 67 -11220 0 -11220 0 0 -875z m-2485 60 c14 -13 25 -36 25 -50 0 -36
-42 -75 -80 -75 -38 0 -80 39 -80 75 0 36 42 75 80 75 19 0 40 -9 55 -25z m15
-435 l0 -240 -75 0 -75 0 0 240 0 240 75 0 75 0 0 -240z m7940 -1130 l0 -100
37 20 c131 70 258 -52 223 -214 -27 -125 -149 -186 -244 -121 -34 23 -36 23
-36 5 0 -17 -7 -20 -50 -20 l-50 0 0 265 0 265 60 0 60 0 0 -100z m438 72 c43
-56 -37 -123 -90 -75 -44 39 -2 111 57 96 11 -3 26 -12 33 -21z m-1151 -15
c18 -10 40 -29 49 -43 33 -50 12 -144 -36 -159 -17 -5 -13 -12 25 -49 40 -38
45 -47 45 -88 0 -57 -30 -104 -85 -132 -34 -18 -58 -21 -160 -21 l-120 0 -3
252 c-2 233 -1 252 15 257 10 2 68 4 128 2 82 -1 118 -6 142 -19z m-2315 -4
c10 -9 18 -30 18 -49 0 -28 -11 -43 -77 -103 l-78 -71 149 0 c168 0 186 -6
186 -66 0 -56 -23 -64 -185 -64 l-140 0 73 -71 c55 -55 72 -78 72 -100 0 -36
-24 -59 -61 -59 -27 0 -124 81 -327 275 l-24 22 164 152 c170 157 191 170 230
134z m1108 -132 c45 -23 76 -69 84 -124 12 -76 10 -77 -125 -77 -76 0 -119 -4
-119 -10 0 -6 12 -22 26 -36 24 -24 30 -26 105 -22 75 3 80 2 85 -19 14 -56
-7 -70 -112 -72 -76 -1 -120 13 -162 52 -67 64 -69 197 -4 271 47 52 158 71
222 37z m380 -36 l0 -55 -34 0 c-25 0 -40 -7 -55 -26 -18 -23 -21 -41 -21
-130 l0 -104 -60 0 -60 0 0 180 0 180 50 0 c47 0 50 -2 50 -25 0 -32 2 -31 38
5 21 20 40 30 61 30 31 0 31 0 31 -55z m265 45 c25 -9 27 -14 20 -48 -4 -20
-8 -38 -8 -39 -1 -1 -21 4 -45 10 -30 8 -48 8 -59 1 -32 -20 -25 -34 32 -59
74 -33 105 -67 105 -115 0 -93 -115 -145 -242 -109 -42 11 -42 10 -28 60 l10
37 38 -14 c49 -17 87 -17 102 1 17 20 5 33 -54 59 -29 13 -62 36 -74 51 -42
54 -17 130 52 161 37 16 114 18 151 4z m991 -9 c136 -62 137 -274 2 -340 -82
-39 -197 -19 -246 44 -49 62 -53 168 -8 236 48 72 164 100 252 60z m1038 -2
c23 -18 27 -18 32 -5 4 12 20 16 55 16 l49 0 0 -152 c0 -247 -19 -310 -104
-349 -46 -21 -139 -25 -200 -8 -38 11 -38 11 -32 52 4 23 9 43 11 46 3 2 22
-1 44 -7 95 -29 161 4 161 80 0 20 -1 20 -27 2 -17 -11 -47 -18 -76 -18 -135
0 -201 183 -110 302 47 62 145 82 197 41z m506 5 c53 -32 64 -66 68 -216 l4
-138 -60 0 -60 0 -4 126 c-3 111 -5 127 -22 140 -26 19 -39 18 -70 -7 -25 -20
-26 -23 -26 -140 l0 -119 -60 0 -60 0 0 180 0 180 49 0 c40 0 51 -4 56 -19 6
-19 7 -19 42 5 42 28 102 32 143 8z m-3694 -109 c18 -60 33 -112 34 -115 1 -3
16 47 34 110 l32 115 63 3 c35 2 61 -1 60 -6 -2 -5 -33 -87 -69 -181 l-65
-172 -60 3 -60 3 -62 165 c-34 91 -62 171 -62 178 -1 10 15 12 61 10 l61 -3
33 -110z m2884 -65 l0 -180 -60 0 -60 0 0 180 0 180 60 0 60 0 0 -180z m1056
135 c7 -22 24 -76 37 -120 l23 -80 30 120 30 120 62 3 c34 2 62 1 62 0 0 -6
-87 -250 -110 -308 -35 -91 -82 -159 -129 -191 -65 -43 -84 -39 -99 17 -7 26
-11 47 -10 48 2 1 20 9 41 19 69 31 69 46 -6 235 -37 92 -67 171 -67 175 0 4
28 7 62 5 l61 -3 13 -40z m5808 -51 c200 -52 368 -220 420 -420 9 -34 16 -101
16 -149 0 -165 -57 -303 -173 -417 -121 -121 -272 -176 -450 -165 -192 11
-351 104 -457 268 -65 101 -85 174 -85 314 0 146 21 218 97 331 79 118 206
207 343 240 72 18 216 17 289 -2z m-1756 -426 c29 -101 55 -202 58 -226 4 -23
10 -44 14 -47 3 -2 15 31 25 73 10 42 39 145 65 227 l48 150 101 3 101 3 0
-38 c0 -21 7 -150 15 -288 8 -137 15 -271 15 -297 l0 -48 -69 0 -69 0 -6 63
c-3 34 -9 151 -13 260 l-8 199 -38 -129 c-21 -70 -56 -185 -78 -255 l-40 -128
-59 0 -59 0 -11 43 c-7 23 -27 96 -45 162 -19 66 -43 160 -54 208 -10 49 -21
90 -24 93 -2 2 -7 -80 -11 -183 -3 -104 -9 -221 -13 -260 l-6 -73 -69 0 -70 0
6 48 c3 26 13 176 23 335 l17 287 101 0 102 0 51 -182z m6892 -633 l0 -265
-60 0 -60 0 0 265 0 265 60 0 60 0 0 -265z m1720 0 l0 -265 -50 0 c-48 0 -50
1 -50 27 l0 27 -21 -23 c-62 -67 -176 -50 -223 33 -77 135 -4 306 131 306 21
0 50 -7 66 -14 l27 -15 0 95 0 94 60 0 60 0 0 -265z m225 243 c-4 -13 -24 -60
-45 -105 -38 -82 -40 -83 -76 -83 -30 0 -35 3 -29 18 4 9 16 54 28 99 21 78
23 82 52 86 73 9 77 9 70 -15z m1075 -243 l0 -265 -60 0 -60 0 0 265 0 265 60
0 60 0 0 -265z m188 237 c43 -56 -37 -123 -90 -75 -44 39 -2 111 57 96 11 -3
26 -12 33 -21z m1070 -61 c53 -49 128 -118 165 -152 l68 -64 -158 -146 c-87
-80 -169 -149 -181 -153 -36 -12 -72 17 -72 58 0 28 11 44 73 105 l72 71 -140
0 c-160 0 -185 8 -185 62 0 62 16 68 182 68 l148 0 -75 71 c-64 61 -75 76 -75
105 0 35 28 64 62 64 10 0 62 -40 116 -89z m-4566 59 c82 -23 130 -109 107
-192 -21 -79 -95 -128 -196 -128 l-43 0 0 -90 0 -90 -60 0 -60 0 0 249 c0 229
1 250 18 254 34 9 198 7 234 -3z m2428 -245 l0 -255 -60 0 -60 0 0 255 0 255
60 0 60 0 0 -255z m220 155 l0 -50 46 0 45 0 -3 -42 c-3 -43 -3 -43 -45 -46
l-43 -3 0 -75 c0 -62 3 -77 21 -95 13 -13 29 -19 40 -16 18 5 20 1 17 -41 l-3
-47 -62 0 c-55 0 -66 4 -90 28 -27 26 -28 33 -31 137 -4 109 -4 110 -28 110
-22 0 -24 4 -24 45 0 41 2 45 25 45 22 0 25 4 25 34 0 33 3 36 48 49 26 8 50
15 55 16 4 1 7 -21 7 -49z m-3820 -59 c45 -23 76 -69 84 -124 12 -76 10 -77
-125 -77 -76 0 -119 -4 -119 -10 0 -6 12 -22 26 -36 24 -24 30 -26 105 -22 75
3 80 2 85 -19 14 -56 -7 -70 -112 -72 -76 -1 -120 13 -162 52 -67 64 -69 197
-4 271 47 52 158 71 222 37z m370 -36 l0 -55 -34 0 c-25 0 -40 -7 -55 -26 -18
-23 -21 -41 -21 -130 l0 -104 -60 0 -60 0 0 180 0 180 50 0 c47 0 50 -2 50
-25 0 -32 2 -31 38 5 21 20 40 30 61 30 31 0 31 0 31 -55z m275 45 c25 -9 27
-14 20 -48 -4 -20 -8 -38 -8 -39 -1 -1 -21 4 -45 10 -30 8 -48 8 -59 1 -32
-20 -25 -34 32 -59 74 -33 105 -67 105 -115 0 -93 -115 -145 -242 -109 -42 11
-42 10 -28 60 l10 37 38 -14 c49 -17 87 -17 102 1 17 20 5 33 -54 59 -29 13
-62 36 -74 51 -42 54 -17 130 52 161 37 16 114 18 151 4z m1140 -6 c61 -29 69
-53 75 -212 l5 -142 -52 0 c-40 0 -53 4 -53 15 0 12 -7 11 -40 -6 -59 -31
-124 -22 -163 21 -26 29 -29 38 -24 83 3 41 11 56 35 78 33 30 88 49 140 49
40 0 44 25 6 42 -19 9 -39 9 -82 0 -30 -6 -57 -10 -60 -8 -2 3 -5 19 -5 38 -2
29 2 34 33 45 50 17 146 16 185 -3z m430 5 c3 -3 2 -23 -3 -45 l-8 -38 -50 3
c-62 3 -100 -23 -110 -75 -14 -76 41 -131 121 -120 l43 5 6 -41 c4 -22 5 -43
2 -45 -12 -12 -136 -15 -169 -4 -103 34 -154 147 -112 249 36 85 104 124 207
120 37 -2 69 -6 73 -9z m305 -8 c45 -23 76 -69 84 -124 12 -76 10 -77 -125
-77 -76 0 -119 -4 -119 -10 0 -6 12 -22 26 -36 24 -24 30 -26 105 -22 75 3 80
2 85 -19 14 -56 -7 -70 -112 -72 -76 -1 -120 13 -162 52 -67 64 -69 197 -4
271 47 52 158 71 222 37z m1675 3 c61 -29 69 -53 75 -212 l5 -142 -52 0 c-40
0 -53 4 -53 15 0 12 -7 11 -40 -6 -59 -31 -124 -22 -163 21 -26 29 -29 38 -24
83 3 41 11 56 35 78 33 30 88 49 140 49 40 0 44 25 6 42 -19 9 -39 9 -82 0
-30 -6 -57 -10 -60 -8 -2 3 -5 19 -5 38 -2 29 2 34 33 45 50 17 146 16 185 -3z
m825 -3 c45 -23 76 -69 84 -124 12 -76 10 -77 -125 -77 -76 0 -119 -4 -119
-10 0 -6 12 -22 26 -36 24 -24 30 -26 105 -22 75 3 80 2 85 -19 14 -56 -7 -70
-112 -72 -76 -1 -120 13 -162 52 -67 64 -69 197 -4 271 47 52 158 71 222 37z
m-5534 -106 c18 -60 33 -112 34 -115 1 -3 16 47 34 110 l32 115 63 3 c35 2 61
-1 60 -6 -2 -5 -33 -87 -69 -181 l-65 -172 -60 3 -60 3 -62 165 c-34 91 -62
171 -62 178 -1 10 15 12 61 10 l61 -3 33 -110z m5194 -65 l0 -180 -60 0 -60 0
0 180 0 180 60 0 60 0 0 -180z"/>
<path d="M16711 11924 c-32 -40 -29 -117 5 -151 20 -20 31 -24 57 -19 37 7 54
27 63 73 18 97 -71 166 -125 97z"/>
<path d="M15810 12029 l0 -62 43 7 c102 16 101 116 -1 116 l-42 0 0 -61z"/>
<path d="M15810 11821 l0 -71 43 0 c33 0 49 6 65 23 46 49 15 106 -61 114
l-47 6 0 -72z"/>
<path d="M14630 11940 c-33 -33 -24 -40 50 -40 39 0 70 3 70 8 0 4 -7 18 -16
30 -20 29 -76 30 -104 2z"/>
<path d="M16273 11936 c-25 -22 -28 -31 -28 -86 0 -55 3 -64 28 -86 15 -13 34
-24 42 -24 8 0 27 11 42 24 25 22 28 31 28 86 0 55 -3 64 -28 86 -15 13 -34
24 -42 24 -8 0 -27 -11 -42 -24z"/>
<path d="M17362 11943 c-7 -3 -19 -18 -27 -33 -47 -92 38 -197 105 -130 25 25
28 114 4 148 -14 21 -50 28 -82 15z"/>
<path d="M23690 11629 c0 -15 -29 -258 -35 -296 l-6 -31 100 -4 c82 -2 105 -7
128 -24 56 -42 55 -106 0 -148 -34 -25 -129 -27 -193 -3 l-40 15 -13 -61 c-14
-67 -13 -69 49 -87 54 -15 190 -12 242 6 107 36 164 122 156 237 -7 114 -79
176 -214 185 l-70 4 5 42 6 41 128 3 127 3 0 64 0 65 -185 0 c-127 0 -185 -3
-185 -11z"/>
<path d="M30631 10871 c-44 -44 -34 -153 16 -172 36 -13 51 -11 73 11 16 16
20 33 20 84 0 56 -3 67 -22 80 -30 22 -64 20 -87 -3z"/>
<path d="M28720 10954 l0 -77 47 6 c79 9 109 72 58 122 -18 18 -35 25 -65 25
l-40 0 0 -76z"/>
<path d="M27540 10880 c-33 -33 -24 -40 50 -40 39 0 70 3 70 8 0 4 -7 18 -16
30 -20 29 -76 30 -104 2z"/>
<path d="M29363 10770 c-19 -8 -43 -38 -43 -54 0 -12 33 -36 51 -36 29 0 59
36 59 70 0 25 -4 30 -22 29 -13 0 -33 -4 -45 -9z"/>
<path d="M30060 10880 c-33 -33 -24 -40 50 -40 39 0 70 3 70 8 0 4 -7 18 -16
30 -20 29 -76 30 -104 2z"/>
<path d="M31773 10770 c-19 -8 -43 -38 -43 -54 0 -12 33 -36 51 -36 29 0 59
36 59 70 0 25 -4 30 -22 29 -13 0 -33 -4 -45 -9z"/>
<path d="M32560 10880 c-33 -33 -24 -40 50 -40 39 0 70 3 70 8 0 4 -7 18 -16
30 -20 29 -76 30 -104 2z"/>
<path d="M13274 13807 c-2 -7 -3 -247 -2 -533 l3 -519 168 -3 167 -2 0 535 0
535 -165 0 c-127 0 -167 -3 -171 -13z"/>
<path d="M13750 13285 l0 -435 125 0 125 0 0 435 0 435 -125 0 -125 0 0 -435z"/>
<path d="M14176 13622 c-3 -3 -6 -155 -6 -338 0 -378 -12 -339 103 -343 l67
-2 0 345 0 346 -79 -1 c-44 0 -82 -3 -85 -7z"/>
<path d="M4725 12388 c-55 -43 -55 -42 -55 -623 0 -580 0 -580 54 -623 41 -32
79 -36 128 -14 52 24 669 479 715 527 64 67 64 161 1 222 -34 32 -640 482
-693 514 -42 27 -115 25 -150 -3z m435 -413 c140 -103 261 -193 268 -200 14
-13 31 1 -383 -305 -99 -73 -186 -137 -192 -143 -10 -7 -13 81 -13 438 l0 447
33 -24 c17 -14 147 -109 287 -213z"/>
<path d="M6172 11868 l3 -533 153 -3 c107 -2 158 1 168 9 12 10 14 98 14 535
l0 524 -170 0 -170 0 2 -532z"/>
<path d="M6640 11865 l0 -435 125 0 125 0 0 435 0 435 -125 0 -125 0 0 -435z"/>
<path d="M7070 11870 l0 -340 85 0 85 0 -3 338 -2 337 -82 3 -83 3 0 -341z"/>
<path d="M4035 12044 c-51 -13 -112 -36 -128 -48 -17 -13 -16 -16 3 -62 12
-27 23 -50 24 -52 2 -1 19 7 39 18 86 51 189 28 203 -45 12 -64 -31 -129 -172
-262 -122 -114 -124 -117 -124 -160 l0 -43 230 0 230 0 0 60 0 60 -121 0 -121
0 89 88 c110 107 138 159 138 253 0 55 -5 72 -28 107 -36 55 -94 84 -177 88
-36 2 -74 1 -85 -2z"/>
<path d="M10926 11822 c-3 -3 -6 -133 -6 -289 l0 -283 -393 0 c-326 0 -402 -3
-446 -15 -66 -20 -134 -84 -150 -140 -7 -25 -11 -163 -11 -377 0 -313 1 -341
20 -391 21 -57 54 -93 110 -123 32 -18 69 -19 494 -22 510 -3 532 -1 603 61
71 63 73 69 73 461 0 239 -4 361 -12 388 -15 52 -80 124 -123 138 l-35 11 -2
292 -3 292 -57 1 c-31 1 -59 -1 -62 -4z m-493 -645 c16 -11 17 -31 15 -176 -3
-143 -5 -165 -20 -175 -13 -8 -23 -8 -35 0 -16 10 -18 32 -21 175 -2 145 -1
165 15 176 9 7 20 13 23 13 3 0 14 -6 23 -13z m456 -266 c57 -53 128 -118 158
-146 l55 -50 -158 -145 c-125 -116 -163 -146 -189 -148 -39 -4 -65 19 -65 56
0 20 18 44 78 99 l77 73 -350 0 c-393 0 -395 0 -395 65 0 65 2 65 395 65 l350
0 -77 73 c-92 86 -102 122 -43 155 32 18 54 5 164 -97z m-451 -313 c8 -8 12
-61 12 -175 0 -152 -1 -163 -20 -173 -14 -8 -26 -8 -40 0 -19 10 -20 21 -20
170 0 87 3 165 6 174 7 19 45 21 62 4z"/>
<path d="M5962 11158 l3 -123 998 -3 997 -2 0 -2265 c0 -1246 -3 -2265 -7
-2265 -5 0 -453 -1 -998 -3 l-990 -2 -1 -120 c-1 -78 3 -123 10 -127 6 -4 512
-8 1124 -8 l1112 0 0 2520 0 2520 -1125 0 -1126 0 3 -122z"/>
<path d="M13274 10027 c-2 -7 -3 -247 -2 -532 l3 -520 168 -3 167 -2 0 535 0
535 -165 0 c-126 0 -167 -3 -171 -13z"/>
<path d="M13750 9505 l0 -435 125 0 125 0 0 435 0 435 -125 0 -125 0 0 -435z"/>
<path d="M8290 9685 l0 -165 535 0 535 0 0 165 0 165 -535 0 -535 0 0 -165z"/>
<path d="M14175 9842 c-3 -3 -5 -155 -5 -338 0 -259 3 -333 13 -337 7 -2 44
-4 82 -3 l70 1 3 343 2 343 -80 -2 c-44 -1 -82 -4 -85 -7z"/>
<path d="M8390 9255 l0 -125 440 0 440 0 0 125 0 125 -440 0 -440 0 0 -125z"/>
<path d="M8490 8875 l0 -85 340 0 340 0 0 79 c0 61 -3 80 -15 85 -8 3 -161 5
-340 5 l-325 1 0 -85z"/>
<path d="M3710 7898 c0 -134 -3 -253 -6 -265 -6 -22 -3 -23 45 -23 48 0 51 1
51 26 l0 27 26 -26 c66 -66 193 -35 234 56 28 61 27 160 -3 211 -43 75 -140
97 -208 47 l-29 -22 0 106 0 105 -55 0 -55 0 0 -242z m236 -29 c14 -16 19 -36
19 -81 0 -51 -4 -63 -24 -79 -31 -25 -69 -24 -98 3 -32 30 -33 123 -3 156 27
29 80 29 106 1z"/>
<path d="M4400 8045 c0 -52 -2 -95 -5 -95 -4 0 -20 7 -37 16 -67 35 -160 -1
-198 -76 -22 -44 -27 -140 -9 -187 36 -97 153 -131 229 -67 l30 26 0 -26 c0
-25 3 -26 50 -26 l50 0 0 265 0 265 -55 0 -55 0 0 -95z m-25 -175 c22 -24 30
-96 16 -133 -6 -15 -22 -32 -35 -38 -61 -28 -112 27 -103 108 6 55 30 83 72
83 19 0 39 -8 50 -20z"/>
<path d="M5000 8045 c0 -52 -2 -95 -5 -95 -4 0 -20 7 -37 16 -67 35 -160 -1
-198 -76 -22 -44 -27 -140 -9 -187 36 -97 153 -131 229 -67 l30 26 0 -26 c0
-25 3 -26 50 -26 l50 0 0 265 0 265 -55 0 -55 0 0 -95z m-25 -175 c22 -24 30
-96 16 -133 -6 -15 -22 -32 -35 -38 -61 -28 -112 27 -103 108 6 55 30 83 72
83 19 0 39 -8 50 -20z"/>
<path d="M3234 8096 c-82 -37 -118 -119 -112 -259 2 -72 8 -103 27 -140 66
-134 249 -126 305 13 23 57 31 165 17 232 -13 62 -41 110 -83 141 -34 25 -113
32 -154 13z m99 -94 c36 -40 44 -180 16 -270 -11 -35 -50 -53 -77 -35 -51 31
-57 250 -9 311 14 18 51 15 70 -6z"/>
<path d="M2770 8098 c0 -2 -7 -57 -15 -123 -8 -65 -15 -123 -15 -128 0 -5 13
-6 30 -2 45 10 137 -12 155 -38 20 -29 19 -60 -4 -88 -16 -20 -28 -24 -78 -24
-32 0 -70 3 -84 7 -25 7 -27 5 -37 -32 -9 -37 -8 -42 12 -52 11 -7 59 -12 106
-13 72 0 91 4 128 25 60 34 86 80 86 148 -2 88 -55 138 -159 149 -58 6 -62 11
-49 61 6 21 11 22 100 22 l94 0 0 45 0 45 -135 0 c-74 0 -135 -1 -135 -2z"/>
<path d="M5303 7969 c-66 -19 -123 -102 -123 -179 0 -124 95 -200 235 -187 90
9 98 13 91 55 -3 19 -7 36 -8 38 -2 1 -24 -2 -50 -7 -57 -13 -121 2 -143 34
-8 12 -15 25 -15 29 0 5 54 8 120 8 l120 0 0 50 c0 126 -99 196 -227 159z
m110 -87 c35 -31 21 -42 -53 -42 -38 0 -70 3 -70 6 0 16 24 46 43 54 26 10 55
4 80 -18z"/>
<path d="M2750 6975 l0 -265 55 0 55 0 0 265 0 265 -55 0 -55 0 0 -265z"/>
<path d="M5380 6975 l0 -265 55 0 55 0 0 265 0 265 -55 0 -55 0 0 -265z"/>
<path d="M2935 7143 c8 -112 9 -113 44 -113 33 0 32 -3 46 143 l5 57 -50 0
-51 0 6 -87z"/>
<path d="M3706 7175 l-36 -55 40 0 c22 0 40 3 40 8 0 4 9 18 19 31 l18 24 19
-32 c15 -26 24 -31 56 -31 l38 0 -36 55 c-35 52 -39 55 -79 55 -40 0 -44 -3
-79 -55z"/>
<path d="M4506 7214 c-9 -8 -16 -24 -16 -35 0 -25 35 -59 60 -59 25 0 60 34
60 59 0 28 -27 51 -60 51 -16 0 -36 -7 -44 -16z"/>
<path d="M3110 6965 l0 -255 55 0 55 0 0 105 0 105 95 0 95 0 0 -105 0 -105
55 0 55 0 0 255 0 255 -55 0 -55 0 0 -100 0 -100 -95 0 -95 0 0 100 0 100 -55
0 -55 0 0 -255z"/>
<path d="M4773 7152 c-51 -14 -53 -16 -53 -48 0 -30 -3 -34 -25 -34 -22 0 -25
-4 -25 -40 0 -36 3 -40 25 -40 25 0 25 0 25 -95 0 -60 5 -108 14 -130 17 -39
60 -65 110 -65 56 0 66 8 66 51 0 35 -3 39 -24 39 -46 0 -57 24 -54 114 l3 81
38 3 c36 3 37 4 37 43 0 39 0 39 -39 39 l-40 0 -3 48 -3 49 -52 -15z"/>
<path d="M3694 7056 c-66 -34 -97 -87 -98 -165 -1 -109 60 -177 168 -188 47
-5 64 -2 109 20 71 35 101 86 101 172 0 108 -62 173 -172 182 -47 4 -65 0
-108 -21z m135 -75 c11 -11 23 -36 27 -55 20 -110 -54 -187 -117 -120 -20 21
-24 36 -24 86 0 53 3 62 28 84 34 29 60 31 86 5z"/>
<path d="M4204 7066 c-18 -8 -35 -19 -38 -25 -11 -18 -26 -13 -26 9 0 17 -7
20 -51 20 l-51 0 6 -31 c3 -17 6 -132 6 -255 l0 -224 55 0 55 0 0 92 c0 90 0
91 20 73 11 -10 40 -20 67 -22 61 -5 118 26 151 82 19 34 22 51 20 117 -2 59
-8 83 -24 105 -50 67 -121 89 -190 59z m76 -96 c37 -37 39 -122 4 -161 -23
-25 -78 -25 -104 1 -28 28 -28 117 1 154 25 32 70 35 99 6z"/>
<path d="M5025 7067 c-37 -12 -40 -15 -37 -47 3 -43 5 -44 43 -31 49 17 103
14 122 -7 10 -10 17 -21 17 -24 0 -3 -24 -8 -54 -11 -132 -13 -198 -96 -151
-187 30 -59 105 -76 175 -40 34 17 40 18 40 5 0 -11 12 -15 50 -15 l50 0 0
128 c0 140 -11 178 -63 216 -34 25 -134 31 -192 13z m145 -221 c0 -57 -76 -91
-100 -46 -22 41 12 78 73 79 24 1 27 -2 27 -33z"/>
<path d="M4500 6890 l0 -180 55 0 55 0 0 180 0 180 -55 0 -55 0 0 -180z"/>
<path d="M4741 6253 c-19 -10 -43 -34 -53 -53 -17 -32 -18 -70 -18 -575 0
-509 2 -542 19 -582 25 -53 68 -77 127 -70 36 4 73 27 224 138 100 74 260 191
355 262 177 130 208 162 220 229 13 69 -21 116 -148 210 -62 45 -208 153 -325
240 -116 87 -230 169 -251 184 -52 34 -106 40 -150 17z m383 -397 c143 -105
272 -202 288 -216 l28 -25 -291 -215 c-160 -118 -295 -216 -300 -218 -5 -2 -9
188 -9 438 0 350 3 440 13 434 6 -4 129 -93 271 -198z"/>
<path d="M6172 5608 l3 -533 159 -3 c123 -2 161 0 167 10 5 7 9 248 9 536 l0
522 -170 0 -170 0 2 -532z"/>
<path d="M6640 5605 l0 -435 125 0 125 0 0 435 0 435 -125 0 -125 0 0 -435z"/>
<path d="M7070 5610 l0 -340 85 0 85 0 -2 338 -3 337 -82 3 -83 3 0 -341z"/>
<path d="M4015 5852 c-44 -20 -82 -39 -84 -42 -6 -8 9 -99 18 -104 4 -3 31 6
60 20 29 13 55 24 57 24 2 0 4 -115 4 -255 l0 -255 75 0 75 0 0 325 0 325 -62
0 c-52 0 -78 -7 -143 -38z"/>
<path d="M1388 3363 c-32 -5 -34 -13 -13 -53 l16 -30 -156 0 -155 0 0 -40 0
-40 195 0 195 0 0 35 c0 29 -44 139 -53 134 -1 -1 -14 -4 -29 -6z"/>
<path d="M1100 3059 c-18 -32 -23 -111 -11 -156 13 -49 60 -93 100 -93 33 0
77 31 87 62 6 21 7 21 20 -4 17 -33 71 -52 108 -39 33 13 66 67 66 109 0 18
-5 54 -11 79 -11 43 -13 45 -42 39 -17 -3 -32 -7 -33 -9 -1 -1 3 -21 9 -44 13
-50 -2 -93 -32 -93 -25 0 -51 36 -51 72 0 24 -4 28 -30 28 -28 0 -30 -3 -30
-35 0 -37 -28 -75 -55 -75 -25 0 -48 47 -42 88 3 20 8 44 12 53 4 12 -2 19
-24 27 -27 9 -32 8 -41 -9z"/>
<path d="M1060 2730 c0 -33 -31 -20 284 -114 65 -20 122 -36 127 -36 5 0 9 12
9 28 0 26 -3 28 -163 75 -89 26 -183 54 -209 62 l-48 14 0 -29z"/>
<path d="M1190 2549 c-80 -25 -120 -86 -106 -162 8 -44 62 -93 113 -104 70
-15 159 -7 202 18 95 53 93 182 -3 231 -48 24 -153 33 -206 17z m180 -92 c16
-8 26 -23 28 -40 3 -23 -2 -30 -32 -42 -19 -8 -60 -15 -91 -15 -31 0 -72 7
-91 15 -30 12 -35 19 -32 42 4 38 39 53 123 53 39 0 81 -6 95 -13z"/>
<path d="M1268 2224 c-49 -26 -72 -99 -47 -146 17 -31 4 -32 -31 -1 -25 22
-33 39 -37 76 -5 46 -6 47 -41 47 l-35 0 6 -49 c13 -112 82 -178 195 -188 142
-13 236 100 172 205 -39 64 -121 90 -182 56z m125 -95 c19 -27 11 -54 -19 -68
-71 -32 -134 19 -87 71 23 26 87 24 106 -3z"/>
<path d="M1060 1890 c0 -33 -31 -20 284 -114 65 -20 122 -36 127 -36 5 0 9 12
9 28 0 26 -3 28 -163 75 -89 26 -183 54 -209 62 l-48 14 0 -29z"/>
<path d="M1388 1683 c-32 -5 -34 -13 -13 -53 l16 -30 -156 0 -155 0 0 -40 0
-40 195 0 195 0 0 35 c0 29 -44 139 -53 134 -1 -1 -14 -4 -29 -6z"/>
<path d="M32274 1576 c-58 -49 -20 -146 57 -146 39 0 89 48 89 85 0 37 -50 85
-89 85 -17 0 -42 -10 -57 -24z m86 -30 c28 -35 -11 -93 -47 -70 -36 22 -23 84
17 84 10 0 23 -7 30 -14z"/>
<path d="M32636 1578 c-36 -10 -38 -12 -32 -41 3 -17 7 -32 9 -33 1 -1 21 3
44 9 50 13 93 -2 93 -32 0 -25 -36 -51 -72 -51 -24 0 -28 -4 -28 -30 0 -28 3
-30 35 -30 37 0 75 -28 75 -55 0 -25 -47 -48 -88 -42 -20 3 -44 8 -53 12 -12
4 -19 -2 -27 -24 -9 -27 -8 -32 9 -41 32 -18 111 -23 156 -11 49 13 93 60 93
100 0 33 -31 77 -62 87 -21 6 -21 7 4 20 33 17 52 71 39 108 -22 56 -101 78
-195 54z"/>
<path d="M32956 1578 c-36 -10 -38 -12 -32 -41 3 -17 7 -32 9 -33 1 -1 21 3
44 9 50 13 93 -2 93 -32 0 -25 -36 -51 -72 -51 -24 0 -28 -4 -28 -30 0 -28 3
-30 35 -30 37 0 75 -28 75 -55 0 -25 -47 -48 -88 -42 -20 3 -44 8 -53 12 -12
4 -19 -2 -27 -24 -9 -27 -8 -32 9 -41 32 -18 111 -23 156 -11 49 13 93 60 93
100 0 33 -31 77 -62 87 -21 6 -21 7 4 20 33 17 52 71 39 108 -22 56 -101 78
-195 54z"/>
<path d="M31920 1345 l0 -145 45 0 45 0 0 93 c0 78 3 97 18 110 23 21 46 22
66 1 12 -12 16 -37 16 -110 l0 -94 45 0 45 0 0 88 c0 48 -5 104 -10 124 -20
72 -92 98 -157 58 -33 -20 -33 -20 -33 0 0 17 -7 20 -40 20 l-40 0 0 -145z"/>
<path d="M1190 1389 c-80 -25 -120 -86 -106 -162 8 -44 62 -93 113 -104 70
-15 159 -7 202 18 95 53 93 182 -3 231 -48 24 -153 33 -206 17z m180 -92 c16
-8 26 -23 28 -40 3 -23 -2 -30 -32 -42 -19 -8 -60 -15 -91 -15 -31 0 -72 7
-91 15 -30 12 -35 19 -32 42 4 38 39 53 123 53 39 0 81 -6 95 -13z"/>
</g>
</svg>
