<?xml version="1.0" encoding="UTF-8" standalone="no"?>
<!-- Created with Inkscape (http://www.inkscape.org/) -->

<svg xmlns:dc="http://purl.org/dc/elements/1.1/" xmlns:cc="http://creativecommons.org/ns#" xmlns:rdf="http://www.w3.org/1999/02/22-rdf-syntax-ns#" xmlns:svg="http://www.w3.org/2000/svg" xmlns="http://www.w3.org/2000/svg" xmlns:inkscape="http://www.inkscape.org/namespaces/inkscape" version="1.0" width="3508pt" height="2480pt" viewBox="0 0 3508 2480" id="svg2">
  <defs id="defs146" />
  <metadata id="metadata4">
Created by potrace 1.11, written by Peter Selinger 2001-2013
<rdf:RDF>
  <cc:Work rdf:about="">
    <dc:format>image/svg+xml</dc:format>
    <dc:type rdf:resource="http://purl.org/dc/dcmitype/StillImage" />
  </cc:Work>
</rdf:RDF>
</metadata>
  <g transform="matrix(0.1,0,0,-0.1,0,2480)" id="g6" style="fill:#000000;stroke:none">
    <path d="m 1563,23612 c -18,-2 -33,-5 -33,-7 0,-2 -7,-39 -15,-82 -19,-99 -20,-95 12,-91 26,3 28,7 42,86 l 14,82 42,0 c 56,0 74,-20 51,-55 -13,-20 -25,-25 -58,-25 l -41,0 39,-44 c 31,-35 46,-44 73,-45 l 35,-1 -32,33 c -18,18 -32,36 -32,39 0,3 12,9 28,13 52,13 81,61 50,82 -16,9 -130,19 -175,15 z" inkscape:connector-curvature="0" id="path8" />
    <path d="m 2830,22736 c 0,-795 2,-884 16,-890 8,-3 2800,-5 6202,-3 l 6187,2 3,888 2,887 -6205,0 -6205,0 0,-884 z m 10530,187 0,-147 28,26 c 37,35 94,52 150,44 106,-14 172,-103 172,-229 0,-96 -17,-144 -70,-198 -46,-48 -94,-69 -155,-69 -40,0 -109,33 -128,60 -15,22 -16,22 -19,-11 l -3,-34 -62,-3 -63,-3 0,356 0,355 75,0 75,0 0,-147 z m -8710,62 -61,-75 -51,0 -50,0 38,68 c 20,37 39,70 41,75 2,4 36,7 74,7 l 70,0 -61,-75 z m 2128,25 c 65,-29 115,-81 148,-154 24,-53 28,-73 28,-156 0,-139 -43,-233 -134,-291 -25,-16 -24,-17 55,-34 44,-10 81,-19 82,-20 4,-3 -29,-99 -37,-108 -4,-5 -63,13 -131,38 -68,26 -155,53 -192,61 -127,26 -189,71 -239,172 -31,62 -33,73 -33,167 0,91 3,106 31,165 46,99 113,155 211,180 55,13 156,4 211,-20 z m 3344,19 c 29,-6 57,-15 61,-19 5,-4 1,-33 -8,-64 -14,-46 -20,-56 -33,-51 -37,14 -125,26 -153,20 -26,-6 -69,-46 -69,-66 0,-23 53,-63 120,-90 96,-39 138,-71 162,-127 42,-94 2,-199 -94,-246 -87,-43 -235,-44 -323,-4 -22,10 -22,11 -7,70 13,53 17,59 36,53 78,-25 136,-34 170,-29 41,7 86,42 86,68 0,29 -50,73 -108,94 -162,60 -226,161 -173,278 45,99 181,145 333,113 z m -6344,-181 c 29,-101 55,-202 58,-226 4,-23 10,-44 14,-47 3,-2 15,31 25,73 10,42 39,145 65,227 l 48,150 101,3 101,3 0,-38 c 0,-21 7,-150 15,-288 8,-137 15,-271 15,-297 l 0,-48 -69,0 -69,0 -6,63 c -3,34 -9,151 -13,260 l -8,199 -38,-129 c -21,-70 -56,-185 -78,-255 l -40,-128 -59,0 -59,0 -11,43 c -7,23 -27,96 -45,162 -19,66 -43,160 -54,208 -10,49 -21,90 -24,93 -2,2 -7,-80 -11,-183 -3,-104 -9,-221 -13,-260 l -6,-73 -69,0 -70,0 6,48 c 3,26 13,176 23,335 l 17,287 101,0 102,0 51,-182 z m 1252,57 0,-65 55,0 55,0 0,-55 0,-55 -55,0 -55,0 0,-110 c 0,-98 2,-112 21,-131 15,-15 30,-20 50,-17 l 29,5 0,-58 0,-58 -36,-7 c -47,-9 -118,2 -150,22 -48,32 -58,67 -62,217 l -4,137 -29,0 c -28,0 -29,1 -29,55 0,54 0,55 30,55 29,0 30,2 30,45 l 0,44 58,16 c 31,9 62,18 67,20 23,8 25,2 25,-60 z m 3310,0 0,-65 55,0 55,0 0,-55 0,-55 -55,0 -55,0 0,-110 c 0,-98 2,-112 21,-131 15,-15 30,-20 50,-17 l 29,5 0,-58 0,-58 -36,-7 c -47,-9 -118,2 -150,22 -48,32 -58,67 -62,217 l -4,137 -29,0 c -28,0 -29,1 -29,55 0,54 0,55 30,55 29,0 30,2 30,45 l 0,44 58,16 c 31,9 62,18 67,20 23,8 25,2 25,-60 z m 3290,0 0,-65 55,0 55,0 0,-55 0,-55 -55,0 -55,0 0,-110 c 0,-98 2,-112 21,-131 15,-15 30,-20 50,-17 l 29,5 0,-58 0,-58 -36,-7 c -47,-9 -118,2 -150,22 -48,32 -58,67 -62,217 l -4,137 -29,0 c -28,0 -29,1 -29,55 0,54 0,55 30,55 29,0 30,2 30,45 l 0,44 58,16 c 31,9 62,18 67,20 23,8 25,2 25,-60 z m -6972,-79 c 64,-33 101,-100 109,-197 l 6,-69 -162,0 c -179,0 -188,-4 -133,-60 35,-35 102,-47 181,-32 31,5 59,7 63,3 4,-3 8,-26 10,-51 l 3,-44 -50,-12 c -117,-28 -236,-9 -302,49 -52,46 -73,98 -73,183 0,59 5,81 28,125 30,58 87,105 143,120 45,11 143,3 177,-15 z m 872,-45 0,-68 -47,-6 c -37,-4 -54,-12 -75,-36 -28,-31 -28,-32 -28,-171 l 0,-140 -75,0 -75,0 0,240 0,240 65,0 65,0 0,-47 0,-48 26,39 c 28,40 71,65 117,66 27,0 27,0 27,-69 z m 425,41 c 86,-44 128,-117 128,-223 0,-180 -158,-288 -341,-234 -106,32 -166,117 -165,236 0,115 61,201 163,234 61,20 164,14 215,-13 z m 2014,-3 c 22,-12 49,-39 62,-63 22,-38 24,-55 27,-218 l 4,-178 -66,0 c -62,0 -66,1 -72,25 -6,24 -8,24 -23,11 -80,-72 -221,-53 -261,36 -23,51 -25,87 -6,131 27,67 124,117 222,117 50,0 59,9 39,37 -21,30 -79,37 -148,18 -32,-8 -60,-15 -62,-15 -4,0 -25,69 -25,83 0,4 12,12 28,18 89,35 218,34 281,-2 z m 861,-38 0,-68 -47,-6 c -37,-4 -54,-12 -75,-36 -28,-31 -28,-32 -28,-171 l 0,-140 -75,0 -75,0 0,240 0,240 65,0 65,0 0,-47 0,-48 26,39 c 28,40 71,65 117,66 27,0 27,0 27,-69 z m 398,45 c 64,-33 101,-100 109,-197 l 6,-69 -162,0 c -179,0 -188,-4 -133,-60 35,-35 102,-47 181,-32 31,5 59,7 63,3 4,-3 8,-26 10,-51 l 3,-44 -50,-12 c -117,-28 -236,-9 -302,49 -52,46 -73,98 -73,183 0,59 5,81 28,125 30,58 87,105 143,120 45,11 143,3 177,-15 z m 1430,0 c 64,-33 101,-100 109,-197 l 6,-69 -162,0 c -179,0 -188,-4 -133,-60 35,-35 102,-47 181,-32 31,5 59,7 63,3 4,-3 8,-26 10,-51 l 3,-44 -50,-12 c -117,-28 -236,-9 -302,49 -52,46 -73,98 -73,183 0,59 5,81 28,125 30,58 87,105 143,120 45,11 143,3 177,-15 z m 578,5 c 80,-37 124,-117 124,-228 0,-85 -23,-144 -75,-192 -70,-64 -149,-77 -228,-37 l -47,23 0,-118 0,-119 -75,0 -75,0 0,340 0,340 65,0 65,0 0,-37 0,-37 29,28 c 57,54 145,70 217,37 z m 912,-5 c 64,-33 101,-100 109,-197 l 6,-69 -162,0 c -179,0 -188,-4 -133,-60 35,-35 102,-47 181,-32 31,5 59,7 63,3 4,-3 8,-26 10,-51 l 3,-44 -50,-12 c -117,-28 -236,-9 -302,49 -52,46 -73,98 -73,183 0,59 5,81 28,125 30,58 87,105 143,120 45,11 143,3 177,-15 z m 546,10 c 18,-7 43,-26 55,-41 l 21,-28 28,26 c 85,82 205,72 260,-22 26,-45 27,-51 30,-228 l 4,-183 -76,0 -76,0 0,160 c 0,157 -1,161 -25,185 -13,14 -34,25 -45,25 -11,0 -32,-11 -45,-25 -24,-24 -25,-28 -25,-185 l 0,-160 -74,0 -75,0 -3,166 c -3,162 -4,166 -28,186 -30,24 -77,18 -102,-13 -16,-18 -18,-43 -18,-180 l 0,-159 -75,0 -75,0 0,240 0,240 59,0 c 61,0 71,-7 71,-50 0,-15 5,-13 31,11 50,46 122,60 183,35 z m 1416,-55 0,-68 -47,-6 c -37,-4 -54,-12 -75,-36 -28,-31 -28,-32 -28,-171 l 0,-140 -75,0 -75,0 0,240 0,240 65,0 65,0 0,-47 0,-48 26,39 c 28,40 71,65 117,66 27,0 27,0 27,-69 z m 398,45 c 64,-33 101,-100 109,-197 l 6,-69 -162,0 c -179,0 -188,-4 -133,-60 35,-35 102,-47 181,-32 31,5 59,7 63,3 4,-3 8,-26 10,-51 l 3,-44 -50,-12 c -117,-28 -236,-9 -302,49 -52,46 -73,98 -73,183 0,59 5,81 28,125 30,58 87,105 143,120 45,11 143,3 177,-15 z m -7298,-136 c 0,-113 4,-158 15,-179 25,-49 68,-54 114,-15 l 31,26 0,159 0,159 75,0 75,0 0,-240 0,-240 -65,0 -65,0 0,37 0,37 -27,-27 c -85,-80 -218,-71 -274,19 -23,37 -24,49 -27,227 l -4,187 76,0 76,0 0,-150 z m 2480,-70 0,-50 -130,0 -130,0 0,50 0,50 130,0 130,0 0,-50 z" inkscape:connector-curvature="0" id="path10" />
    <path d="m 13393,22706 c -26,-23 -28,-29 -28,-106 0,-77 2,-83 28,-106 61,-53 152,-12 164,73 13,98 -25,163 -96,163 -28,0 -48,-7 -68,-24 z" inkscape:connector-curvature="0" id="path12" />
    <path d="m 6569,22897 c -19,-12 -45,-43 -59,-67 -22,-39 -25,-57 -25,-140 0,-86 3,-99 29,-144 48,-82 144,-107 211,-54 51,40 70,94 70,198 0,83 -3,101 -25,140 -31,55 -81,90 -130,90 -22,0 -51,-9 -71,-23 z" inkscape:connector-curvature="0" id="path14" />
    <path d="m 4479,22721 c -51,-52 -42,-61 62,-61 l 91,0 -6,28 c -16,66 -96,84 -147,33 z" inkscape:connector-curvature="0" id="path16" />
    <path d="m 5777,22720 c -73,-58 -56,-225 27,-254 104,-38 172,146 90,244 -31,36 -78,40 -117,10 z" inkscape:connector-curvature="0" id="path18" />
    <path d="m 7813,22575 c -37,-16 -51,-54 -34,-91 9,-19 18,-24 50,-24 50,0 81,35 81,91 0,37 -1,39 -32,39 -18,-1 -47,-7 -65,-15 z" inkscape:connector-curvature="0" id="path20" />
    <path d="m 9049,22721 c -51,-52 -42,-61 62,-61 l 91,0 -6,28 c -16,66 -96,84 -147,33 z" inkscape:connector-curvature="0" id="path22" />
    <path d="m 10479,22721 c -51,-52 -42,-61 62,-61 l 91,0 -6,28 c -16,66 -96,84 -147,33 z" inkscape:connector-curvature="0" id="path24" />
    <path d="m 11057,22719 c -30,-17 -47,-65 -47,-129 0,-55 3,-65 29,-91 23,-22 39,-29 69,-29 72,0 112,66 99,163 -10,74 -91,121 -150,86 z" inkscape:connector-curvature="0" id="path26" />
    <path d="m 11969,22721 c -51,-52 -42,-61 62,-61 l 91,0 -6,28 c -16,66 -96,84 -147,33 z" inkscape:connector-curvature="0" id="path28" />
    <path d="m 14329,22721 c -51,-52 -42,-61 62,-61 l 91,0 -6,28 c -16,66 -96,84 -147,33 z" inkscape:connector-curvature="0" id="path30" />
    <path d="m 1849,23522 c -75,-85 -97,-123 -41,-69 24,23 37,27 85,27 52,0 59,-3 69,-25 8,-18 19,-25 40,-25 15,0 28,3 28,6 0,12 -92,174 -98,174 -4,-1 -41,-40 -83,-88 z m 76,-2 16,-30 -46,0 -46,0 21,30 c 12,17 25,30 30,30 5,0 16,-13 25,-30 z" inkscape:connector-curvature="0" id="path32" />
    <path d="m 2088,23603 c 63,-5 61,2 27,-150 -5,-20 -1,-23 24,-23 24,0 30,5 35,28 3,15 10,53 16,84 l 11,57 52,4 c 29,2 -9,3 -83,3 -74,0 -111,-1 -82,-3 z" inkscape:connector-curvature="0" id="path34" />
    <path d="m 2356,23598 c -8,-25 -26,-132 -26,-150 0,-12 7,-18 24,-18 20,0 25,6 31,40 l 7,40 67,0 c 44,0 74,5 89,16 24,17 29,53 10,72 -17,17 -197,17 -202,0 z m 152,-24 c 5,-32 -24,-54 -69,-54 -41,0 -46,8 -33,58 6,20 12,23 53,20 38,-2 47,-7 49,-24 z" inkscape:connector-curvature="0" id="path36" />
    <path d="m 29334,23470 c -220,-33 -412,-196 -477,-405 -31,-100 -31,-262 1,-362 72,-230 295,-399 537,-408 341,-13 614,249 615,587 0,42 -5,101 -11,130 -15,75 -80,204 -134,265 -124,141 -345,222 -531,193 z m 187,-240 c 29,-6 69,-19 89,-29 101,-52 107,-188 9,-245 l -32,-19 35,-18 c 148,-76 118,-285 -46,-334 -66,-20 -204,-30 -289,-21 l -67,8 0,328 0,329 53,4 c 112,8 197,7 248,-3 z" inkscape:connector-curvature="0" id="path38" />
    <path d="m 29370,23056 0,-76 44,0 c 84,0 126,28 126,83 0,40 -34,61 -106,65 l -64,4 0,-76 z" inkscape:connector-curvature="0" id="path40" />
    <path d="m 29370,22770 0,-100 45,0 c 86,0 145,42 145,103 0,63 -49,97 -140,97 l -50,0 0,-100 z" inkscape:connector-curvature="0" id="path42" />
    <path d="m 1850,23314 c -95,-25 -197,-82 -268,-148 l -66,-63 55,-26 c 30,-14 66,-34 81,-44 27,-17 28,-17 55,9 152,141 384,158 560,41 158,-105 235,-304 188,-488 -27,-104 -63,-165 -146,-246 l -78,-77 -16,-83 c -8,-45 -14,-83 -12,-85 7,-7 126,49 175,82 71,50 162,150 201,223 69,131 89,306 51,455 -29,116 -73,190 -165,281 -89,90 -182,143 -295,169 -81,20 -247,19 -320,0 z" inkscape:connector-curvature="0" id="path44" />
    <path d="m 30508,23078 c -27,-11 -48,-25 -48,-30 0,-12 28,-78 33,-78 3,0 18,7 33,15 41,21 107,19 127,-3 21,-23 22,-64 3,-100 -8,-15 -57,-69 -110,-121 -84,-82 -96,-98 -96,-127 l 0,-34 175,0 175,0 0,50 0,50 -85,0 -86,0 59,58 c 73,71 102,125 102,190 0,60 -30,109 -80,134 -49,25 -142,23 -202,-4 z" inkscape:connector-curvature="0" id="path46" />
    <path d="m 30950,23078 c -79,-52 -118,-202 -86,-327 30,-117 87,-166 186,-159 70,5 110,32 142,96 20,41 23,62 23,157 0,95 -3,116 -23,157 -33,66 -72,91 -147,96 -50,3 -66,0 -95,-20 z m 127,-95 c 15,-22 18,-49 18,-138 0,-89 -3,-116 -18,-138 -37,-57 -83,-23 -99,76 -25,151 42,287 99,200 z" inkscape:connector-curvature="0" id="path48" />
    <path d="m 31840,23094 c -43,-15 -90,-38 -90,-46 0,-5 7,-24 15,-44 14,-34 15,-35 42,-21 60,30 124,28 145,-6 31,-49 -13,-128 -131,-235 -71,-65 -81,-77 -81,-108 l 0,-34 175,0 175,0 0,50 0,50 -87,0 -86,0 60,58 c 33,33 69,79 81,104 61,125 -10,239 -148,237 -30,0 -62,-3 -70,-5 z" inkscape:connector-curvature="0" id="path50" />
    <path d="m 32255,23084 c -126,-65 -144,-226 -33,-294 39,-24 111,-26 150,-6 24,13 26,12 21,-2 -22,-60 -89,-102 -161,-102 l -42,0 0,-45 0,-45 48,0 c 169,0 282,116 282,289 0,143 -66,221 -187,221 -26,0 -61,-7 -78,-16 z m 111,-82 c 19,-13 34,-50 34,-86 0,-59 -68,-88 -110,-46 -24,24 -27,86 -4,118 15,22 57,30 80,14 z" inkscape:connector-curvature="0" id="path52" />
    <path d="m 1228,23044 c -47,-14 -48,-16 -48,-55 0,-34 3,-39 18,-35 146,44 268,31 367,-39 130,-92 154,-106 196,-113 24,-4 72,-4 107,1 35,5 65,7 67,5 3,-2 8,-28 12,-58 7,-49 10,-54 43,-65 27,-9 36,-18 40,-41 5,-24 10,-29 35,-29 27,0 30,-4 33,-33 3,-26 10,-35 39,-47 40,-17 41,-8 -11,-142 -65,-168 -95,-399 -65,-505 9,-36 12,-38 49,-38 l 39,0 -10,32 c -14,51 -11,221 7,306 14,69 69,242 105,330 18,43 5,63 -51,76 -45,11 -47,13 -66,85 -3,9 -12,11 -28,7 -21,-5 -25,-2 -28,21 -2,20 -12,32 -35,42 -26,12 -33,21 -38,55 -14,89 -15,90 -125,75 -97,-13 -127,-5 -207,58 -142,110 -306,150 -445,107 z" inkscape:connector-curvature="0" id="path54" />
    <path d="m 1388,22873 c -8,-25 -13,-86 -13,-173 0,-162 19,-229 97,-345 101,-152 263,-251 441,-270 75,-8 66,-18 84,97 l 10,58 -36,5 c -134,22 -215,62 -294,146 -101,108 -152,281 -117,399 10,33 8,37 -21,62 -28,23 -106,58 -130,58 -4,0 -13,-17 -21,-37 z" inkscape:connector-curvature="0" id="path56" />
    <path d="m 9430,12680 0,-3510 -665,2 -665,3 -3,450 -2,450 -116,3 c -90,2 -119,-1 -128,-11 -8,-11 -10,-164 -9,-582 l 3,-568 920,0 920,0 -4,362 c -2,234 0,361 6,361 11,0 181,-77 387,-174 65,-31 121,-56 125,-56 4,0 19,24 33,54 l 27,55 -77,36 c -42,19 -171,79 -287,133 l -210,98 -3,3072 -2,3072 11135,0 11135,0 0,-945 0,-945 -9684,0 -9685,0 -78,-25 c -162,-51 -259,-148 -299,-300 -21,-76 -20,-1138 1,-1215 46,-171 154,-285 317,-332 34,-10 2056,-13 9736,-15 l 9692,-3 0,-940 0,-940 -9752,-1 c -5364,0 -9813,0 -9886,1 l -132,1 2,-1561 3,-1560 -802,0 -803,0 0,-30 0,-30 -295,0 -295,0 0,30 0,30 -1690,0 -1690,0 -1,1468 c -1,807 -2,1474 -3,1482 -1,12 -22,15 -126,15 l -125,0 -2,-1607 -3,-1608 1525,0 1525,0 0,-760 0,-760 885,0 885,0 0,760 0,760 635,0 635,0 0,1552 c 0,853 2,1553 3,1555 2,2 4448,3 9880,3 l 9877,0 2,1076 3,1077 52,13 c 175,45 293,164 329,333 22,103 20,1064 -2,1164 -22,99 -64,184 -120,240 -61,62 -115,93 -197,113 l -67,17 0,1073 0,1074 -11385,0 -11385,0 0,-3510 z m 7240,955 0,-265 -60,0 -60,0 0,265 0,265 60,0 60,0 0,-265 z m 210,0 0,-265 -60,0 -60,0 0,265 0,265 60,0 60,0 0,-265 z m 618,237 c 43,-56 -37,-123 -90,-75 -44,39 -2,111 57,96 11,-3 26,-12 33,-21 z m -4518,-12 c 38,-38 26,-66 -57,-146 l -78,-73 148,-1 c 133,0 149,-2 167,-20 28,-28 25,-64 -6,-89 -24,-19 -40,-21 -167,-21 l -141,0 78,-73 c 66,-63 77,-78 74,-102 -4,-39 -46,-69 -79,-57 -28,11 -331,291 -327,302 2,4 74,73 160,153 167,156 188,167 228,127 z m 2140,-185 0,-204 98,-3 97,-3 3,-47 3,-48 -160,0 -161,0 0,255 0,255 60,0 60,0 0,-205 z m -1030,46 c 45,-23 76,-69 84,-124 12,-76 10,-77 -125,-77 -76,0 -119,-4 -119,-10 0,-6 12,-22 26,-36 24,-24 30,-26 105,-22 75,3 80,2 85,-19 14,-56 -7,-70 -112,-72 -76,-1 -120,13 -162,52 -67,64 -69,197 -4,271 47,52 158,71 222,37 z m 370,-36 0,-55 -34,0 c -25,0 -40,-7 -55,-26 -18,-23 -21,-41 -21,-130 l 0,-104 -60,0 -60,0 0,180 0,180 50,0 c 47,0 50,-2 50,-25 0,-32 2,-31 38,5 21,20 40,30 61,30 31,0 31,0 31,-55 z m 275,45 c 25,-9 27,-14 20,-48 -4,-20 -8,-38 -8,-39 -1,-1 -21,4 -45,10 -30,8 -48,8 -59,1 -32,-20 -25,-34 32,-59 74,-33 105,-67 105,-115 0,-93 -115,-145 -242,-109 -42,11 -42,10 -28,60 l 10,37 38,-14 c 49,-17 87,-17 102,1 17,20 5,33 -54,59 -29,13 -62,36 -74,51 -42,54 -17,130 52,161 37,16 114,18 151,4 z m 885,-9 c 45,-23 76,-69 84,-124 12,-76 10,-77 -125,-77 -76,0 -119,-4 -119,-10 0,-6 12,-22 26,-36 24,-24 30,-26 105,-22 75,3 80,2 85,-19 14,-56 -7,-70 -112,-72 -76,-1 -120,13 -162,52 -67,64 -69,197 -4,271 47,52 158,71 222,37 z m 765,3 c 61,-29 69,-53 75,-212 l 5,-142 -52,0 c -40,0 -53,4 -53,15 0,12 -7,11 -40,-6 -59,-31 -124,-22 -163,21 -26,29 -29,38 -24,83 3,41 11,56 35,78 33,30 88,49 140,49 40,0 44,25 6,42 -19,9 -39,9 -82,0 -30,-6 -57,-10 -60,-8 -2,3 -5,19 -5,38 -2,29 2,34 33,45 50,17 146,16 185,-3 z m 841,-3 c 136,-62 137,-274 2,-340 -82,-39 -197,-19 -246,44 -49,62 -53,168 -8,236 48,72 164,100 252,60 z m 589,9 c 25,-9 27,-14 20,-48 -4,-20 -8,-38 -8,-39 -1,-1 -21,4 -45,10 -30,8 -48,8 -59,1 -32,-20 -25,-34 32,-59 74,-33 105,-67 105,-115 0,-93 -115,-145 -242,-109 -42,11 -42,10 -28,60 l 10,37 38,-14 c 49,-17 87,-17 102,1 17,20 5,33 -54,59 -29,13 -62,36 -74,51 -42,54 -17,130 52,161 37,16 114,18 151,4 z m -4239,-115 c 18,-60 33,-112 34,-115 1,-3 16,47 34,110 l 32,115 63,3 c 35,2 61,-1 60,-6 -2,-5 -33,-87 -69,-181 l -65,-172 -60,3 -60,3 -62,165 c -34,91 -62,171 -62,178 -1,10 15,12 61,10 l 61,-3 33,-110 z m 2310,0 c 18,-60 33,-112 34,-115 1,-3 16,47 34,110 l 32,115 63,3 c 35,2 61,-1 60,-6 -2,-5 -33,-87 -69,-181 l -65,-172 -60,3 -60,3 -62,165 c -34,91 -62,171 -62,178 -1,10 15,12 61,10 l 61,-3 33,-110 z m 1624,-65 0,-180 -60,0 -60,0 0,180 0,180 60,0 60,0 0,-180 z m 4488,-332 c 29,-101 55,-202 58,-226 4,-23 10,-44 14,-47 3,-2 15,31 25,73 10,42 39,145 65,227 l 48,150 101,3 101,3 0,-38 c 0,-21 7,-150 15,-288 8,-137 15,-271 15,-297 l 0,-48 -69,0 -69,0 -6,63 c -3,34 -9,151 -13,260 l -8,199 -38,-129 c -21,-70 -56,-185 -78,-255 l -40,-128 -59,0 -59,0 -11,43 c -7,23 -27,96 -45,162 -19,66 -43,160 -54,208 -10,49 -21,90 -24,93 -2,2 -7,-80 -11,-183 -3,-104 -9,-221 -13,-260 l -6,-73 -69,0 -70,0 6,48 c 3,26 13,176 23,335 l 17,287 101,0 102,0 51,-182 z m 1623,161 c 74,-25 129,-89 129,-151 0,-36 -40,-107 -71,-125 -16,-10 -29,-20 -29,-23 0,-3 14,-11 30,-18 76,-34 109,-132 72,-214 -36,-82 -126,-128 -250,-128 -73,0 -181,26 -189,45 -8,22 24,110 38,107 8,-2 40,-10 73,-19 95,-24 168,-1 181,57 14,63 -48,110 -145,110 l -50,0 0,55 0,55 45,0 c 91,0 152,49 125,99 -23,44 -105,50 -188,15 -31,-13 -33,-12 -42,10 -5,13 -12,40 -15,59 -7,34 -6,35 37,50 23,9 52,18 63,20 42,9 153,7 186,-4 z m 6229,-764 0,-265 -60,0 -60,0 0,265 0,265 60,0 60,0 0,-265 z m 210,0 0,-265 -60,0 -60,0 0,265 0,265 60,0 60,0 0,-265 z m 198,237 c 43,-56 -37,-123 -90,-75 -44,39 -2,111 57,96 11,-3 26,-12 33,-21 z m 1040,0 c 43,-56 -37,-123 -90,-75 -44,39 -2,111 57,96 11,-3 26,-12 33,-21 z m -2105,7 c 40,-11 45,-24 26,-77 -9,-28 -13,-30 -35,-21 -41,15 -136,11 -174,-9 -64,-32 -96,-131 -69,-213 24,-72 101,-119 170,-104 28,6 29,9 29,61 l 0,54 -40,0 -40,0 0,45 0,45 95,0 95,0 0,-135 0,-135 -27,-11 c -52,-21 -184,-23 -246,-5 -161,47 -221,258 -116,410 59,86 209,129 332,95 z m 2841,-151 c 85,-79 155,-148 155,-154 1,-9 -101,-108 -262,-252 -35,-32 -66,-52 -81,-52 -26,0 -66,42 -66,69 0,8 36,50 80,93 l 80,78 -148,0 c -81,0 -152,4 -158,8 -39,25 -36,90 5,111 11,6 81,11 158,11 l 138,1 -66,62 c -74,69 -92,97 -82,124 12,33 25,43 60,43 30,0 52,-17 187,-142 z m -4124,-7 c 45,-23 76,-69 84,-124 12,-76 10,-77 -125,-77 -76,0 -119,-4 -119,-10 0,-6 12,-22 26,-36 24,-24 30,-26 105,-22 75,3 80,2 85,-19 14,-56 -7,-70 -112,-72 -76,-1 -120,13 -162,52 -67,64 -69,197 -4,271 47,52 158,71 222,37 z m 380,-36 0,-55 -34,0 c -25,0 -40,-7 -55,-26 -18,-23 -21,-41 -21,-130 l 0,-104 -60,0 -60,0 0,180 0,180 50,0 c 47,0 50,-2 50,-25 0,-32 2,-31 38,5 21,20 40,30 61,30 31,0 31,0 31,-55 z m 265,45 c 25,-9 27,-14 20,-48 -4,-20 -8,-38 -8,-39 -1,-1 -21,4 -45,10 -30,8 -48,8 -59,1 -32,-20 -25,-34 32,-59 74,-33 105,-67 105,-115 0,-93 -115,-145 -242,-109 -42,11 -42,10 -28,60 l 10,37 38,-14 c 49,-17 87,-17 102,1 17,20 5,33 -54,59 -29,13 -62,36 -74,51 -42,54 -17,130 52,161 37,16 114,18 151,4 z m 1020,-6 c 61,-29 69,-53 75,-212 l 5,-142 -52,0 c -40,0 -53,4 -53,15 0,12 -7,11 -40,-6 -59,-31 -124,-22 -163,21 -26,29 -29,38 -24,83 3,41 11,56 35,78 33,30 88,49 140,49 40,0 44,25 6,42 -19,9 -39,9 -82,0 -30,-6 -57,-10 -60,-8 -2,3 -5,19 -5,38 -2,29 2,34 33,45 50,17 146,16 185,-3 z m 1025,-3 c 45,-23 76,-69 84,-124 12,-76 10,-77 -125,-77 -76,0 -119,-4 -119,-10 0,-6 12,-22 26,-36 24,-24 30,-26 105,-22 75,3 80,2 85,-19 14,-56 -7,-70 -112,-72 -76,-1 -120,13 -162,52 -67,64 -69,197 -4,271 47,52 158,71 222,37 z m 440,3 c 53,-32 64,-66 68,-216 l 4,-138 -60,0 -60,0 -4,126 c -3,111 -5,127 -22,140 -26,19 -39,18 -70,-7 -25,-20 -26,-23 -26,-140 l 0,-119 -60,0 -60,0 0,180 0,180 49,0 c 40,0 51,-4 56,-19 6,-19 7,-19 42,5 42,28 102,32 143,8 z m -3634,-109 c 18,-60 33,-112 34,-115 1,-3 16,47 34,110 l 32,115 63,3 c 35,2 61,-1 60,-6 -2,-5 -33,-87 -69,-181 l -65,-172 -60,3 -60,3 -62,165 c -34,91 -62,171 -62,178 -1,10 15,12 61,10 l 61,-3 33,-110 z m 2864,-65 0,-180 -60,0 -60,0 0,180 0,180 60,0 60,0 0,-180 z m 1040,0 0,-180 -60,0 -60,0 0,180 0,180 60,0 60,0 0,-180 z M 10345,6565 c 14,-13 25,-36 25,-50 0,-36 -42,-75 -80,-75 -38,0 -80,39 -80,75 0,36 42,75 80,75 19,0 40,-9 55,-25 z m 15,-435 0,-240 -75,0 -75,0 0,240 0,240 75,0 75,0 0,-240 z" inkscape:connector-curvature="0" id="path58" />
    <path d="m 13950,13640 c -33,-33 -24,-40 50,-40 39,0 70,3 70,8 0,4 -7,18 -16,30 -20,29 -76,30 -104,2 z" inkscape:connector-curvature="0" id="path60" />
    <path d="m 15480,13640 c -33,-33 -24,-40 50,-40 39,0 70,3 70,8 0,4 -7,18 -16,30 -20,29 -76,30 -104,2 z" inkscape:connector-curvature="0" id="path62" />
    <path d="m 16283,13530 c -19,-8 -43,-38 -43,-54 0,-12 33,-36 51,-36 29,0 59,36 59,70 0,25 -4,30 -22,29 -13,0 -33,-4 -45,-9 z" inkscape:connector-curvature="0" id="path64" />
    <path d="m 17093,13636 c -25,-22 -28,-31 -28,-86 0,-55 3,-64 28,-86 15,-13 34,-24 42,-24 8,0 27,11 42,24 25,22 28,31 28,86 0,55 -3,64 -28,86 -15,13 -34,24 -42,24 -8,0 -27,-11 -42,-24 z" inkscape:connector-curvature="0" id="path66" />
    <path d="m 27770,12620 c -33,-33 -24,-40 50,-40 39,0 70,3 70,8 0,4 -7,18 -16,30 -20,29 -76,30 -104,2 z" inkscape:connector-curvature="0" id="path68" />
    <path d="m 29473,12510 c -19,-8 -43,-38 -43,-54 0,-12 33,-36 51,-36 29,0 59,36 59,70 0,25 -4,30 -22,29 -13,0 -33,-4 -45,-9 z" inkscape:connector-curvature="0" id="path70" />
    <path d="m 30460,12620 c -33,-33 -24,-40 50,-40 39,0 70,3 70,8 0,4 -7,18 -16,30 -20,29 -76,30 -104,2 z" inkscape:connector-curvature="0" id="path72" />
    <path d="m 12610,14990 0,-530 165,0 165,0 0,530 0,530 -165,0 -165,0 0,-530 z" inkscape:connector-curvature="0" id="path74" />
    <path d="m 13080,14990 0,-440 125,0 125,0 0,439 0,439 -125,1 -125,2 0,-441 z" inkscape:connector-curvature="0" id="path76" />
    <path d="m 13507,15324 c -4,-4 -6,-157 -6,-340 l 0,-334 84,0 85,0 0,340 0,340 -78,0 c -43,0 -82,-3 -85,-6 z" inkscape:connector-curvature="0" id="path78" />
    <path d="m 5570,14335 c 0,-52 -2,-95 -5,-95 -4,0 -20,7 -37,16 -67,35 -160,-1 -198,-76 -22,-44 -27,-140 -9,-187 36,-97 153,-131 229,-67 l 30,26 0,-26 c 0,-25 3,-26 50,-26 l 50,0 0,265 0,265 -55,0 -55,0 0,-95 z m -25,-175 c 22,-24 30,-96 16,-133 -6,-15 -22,-32 -35,-38 -61,-28 -112,27 -103,108 6,55 30,83 72,83 19,0 39,-8 50,-20 z" inkscape:connector-curvature="0" id="path80" />
    <path d="m 6520,14411 c -86,-28 -142,-84 -166,-168 -45,-156 38,-319 173,-339 27,-4 86,-21 133,-39 130,-50 129,-50 139,-23 24,66 25,64 -34,77 -30,7 -55,14 -55,16 0,1 18,20 39,42 113,113 85,345 -51,414 -45,23 -138,33 -178,20 z m 111,-97 c 86,-44 91,-249 8,-308 -32,-22 -91,-20 -122,4 -39,31 -61,99 -54,170 11,120 83,178 168,134 z" inkscape:connector-curvature="0" id="path82" />
    <path d="m 3129,14384 c -63,-19 -70,-30 -52,-76 l 14,-36 47,20 c 59,26 110,17 130,-25 24,-50 1,-91 -114,-203 -88,-86 -104,-106 -104,-133 l 0,-31 175,0 175,0 0,45 0,45 -92,0 -92,0 66,68 c 103,104 127,174 88,260 -33,73 -131,100 -241,66 z" inkscape:connector-curvature="0" id="path84" />
    <path d="m 3565,14393 c -11,-2 -33,-9 -49,-15 -25,-10 -28,-15 -22,-46 7,-46 9,-47 55,-34 52,16 82,15 109,-4 25,-18 29,-56 7,-74 -9,-7 -38,-15 -65,-18 l -50,-5 0,-37 0,-37 50,-5 c 28,-3 59,-13 70,-23 20,-18 26,-60 12,-81 -23,-34 -90,-43 -154,-20 l -38,14 -10,-37 c -13,-49 -14,-47 23,-62 51,-22 185,-18 227,7 102,59 105,173 6,234 -27,17 -27,18 -7,25 62,19 82,118 35,174 -36,43 -120,62 -199,44 z" inkscape:connector-curvature="0" id="path86" />
    <path d="m 7793,14342 c -51,-14 -53,-16 -53,-48 0,-30 -3,-34 -25,-34 -22,0 -25,-4 -25,-40 0,-36 3,-40 25,-40 25,0 25,0 25,-95 0,-60 5,-108 14,-130 17,-39 60,-65 110,-65 56,0 66,8 66,51 0,35 -3,39 -24,39 -46,0 -57,24 -54,114 l 3,81 38,3 c 36,3 37,4 37,43 0,39 0,39 -39,39 l -40,0 -3,48 -3,49 -52,-15 z" inkscape:connector-curvature="0" id="path88" />
    <path d="m 4215,14259 c -11,-6 -30,-23 -42,-38 l -23,-26 0,33 c 0,32 0,32 -51,32 -48,0 -51,-1 -45,-22 3,-13 6,-94 6,-180 l 0,-158 55,0 55,0 0,110 c 0,127 12,150 75,150 l 35,0 0,55 c 0,50 -2,55 -22,55 -13,0 -32,-5 -43,-11 z" inkscape:connector-curvature="0" id="path90" />
    <path d="m 4873,14259 c -66,-19 -123,-102 -123,-179 0,-124 95,-200 235,-187 90,9 98,13 91,55 -3,19 -7,36 -8,38 -2,1 -24,-2 -50,-7 -57,-13 -121,2 -143,34 -8,12 -15,25 -15,29 0,5 54,8 120,8 l 120,0 0,50 c 0,126 -99,196 -227,159 z m 110,-87 c 35,-31 21,-42 -53,-42 -38,0 -70,3 -70,6 0,16 24,46 43,54 26,10 55,4 80,-18 z" inkscape:connector-curvature="0" id="path92" />
    <path d="m 7385,14257 c -37,-12 -40,-15 -37,-47 3,-43 5,-44 43,-31 49,17 103,14 122,-7 10,-10 17,-21 17,-24 0,-3 -24,-8 -54,-11 -132,-13 -198,-96 -151,-187 30,-59 105,-76 175,-40 34,17 40,18 40,5 0,-11 12,-15 50,-15 l 50,0 0,128 c 0,140 -11,178 -63,216 -34,25 -134,31 -192,13 z m 145,-221 c 0,-57 -76,-91 -100,-46 -22,41 12,78 73,79 24,1 27,-2 27,-33 z" inkscape:connector-curvature="0" id="path94" />
    <path d="m 8165,14259 c -11,-6 -30,-23 -42,-38 l -23,-26 0,33 c 0,32 0,32 -51,32 -48,0 -51,-1 -45,-22 3,-13 6,-94 6,-180 l 0,-158 55,0 55,0 0,110 c 0,127 12,150 75,150 l 35,0 0,55 c 0,50 -2,55 -22,55 -13,0 -32,-5 -43,-11 z" inkscape:connector-curvature="0" id="path96" />
    <path d="m 8373,14259 c -66,-19 -123,-102 -123,-179 0,-124 95,-200 235,-187 90,9 98,13 91,55 -3,19 -7,36 -8,38 -2,1 -24,-2 -50,-7 -57,-13 -121,2 -143,34 -8,12 -15,25 -15,29 0,5 54,8 120,8 l 120,0 0,50 c 0,126 -99,196 -227,159 z m 110,-87 c 35,-31 21,-42 -53,-42 -38,0 -70,3 -70,6 0,16 24,46 43,54 26,10 55,4 80,-18 z" inkscape:connector-curvature="0" id="path98" />
    <path d="m 4340,14124 c 0,-156 11,-193 65,-218 56,-27 114,-18 154,25 l 21,23 0,-27 c 0,-26 2,-27 50,-27 l 50,0 0,180 0,180 -55,0 -55,0 0,-115 c 0,-110 -1,-117 -25,-140 -29,-30 -49,-31 -75,-5 -18,18 -20,33 -20,140 l 0,120 -55,0 -55,0 0,-136 z" inkscape:connector-curvature="0" id="path100" />
    <path d="m 5770,14124 c 0,-156 11,-193 65,-218 56,-27 114,-18 154,25 l 21,23 0,-27 c 0,-26 2,-27 50,-27 l 50,0 0,180 0,180 -55,0 -55,0 0,-115 c 0,-110 -1,-117 -25,-140 -29,-30 -49,-31 -75,-5 -18,18 -20,33 -20,140 l 0,120 -55,0 -55,0 0,-136 z" inkscape:connector-curvature="0" id="path102" />
    <path d="m 6900,14124 c 0,-156 11,-193 65,-218 56,-27 114,-18 154,25 l 21,23 0,-27 c 0,-26 2,-27 50,-27 l 50,0 0,180 0,180 -55,0 -55,0 0,-115 c 0,-110 -1,-117 -25,-140 -29,-30 -49,-31 -75,-5 -18,18 -20,33 -20,140 l 0,120 -55,0 -55,0 0,-136 z" inkscape:connector-curvature="0" id="path104" />
    <path d="m 8670,14095 0,-35 100,0 100,0 0,35 0,35 -100,0 -100,0 0,-35 z" inkscape:connector-curvature="0" id="path106" />
    <path d="m 6730,13288 c 0,-134 -3,-253 -6,-265 -6,-22 -3,-23 45,-23 48,0 51,1 51,26 l 0,27 26,-26 c 66,-66 193,-35 234,56 28,61 27,160 -3,211 -43,75 -140,97 -208,47 l -29,-22 0,106 0,105 -55,0 -55,0 0,-242 z m 236,-29 c 14,-16 19,-36 19,-81 0,-51 -4,-63 -24,-79 -31,-25 -69,-24 -98,3 -32,30 -33,123 -3,156 27,29 80,29 106,1 z" inkscape:connector-curvature="0" id="path108" />
    <path d="m 4260,13509 c -54,-17 -87,-46 -105,-93 -33,-85 18,-165 126,-201 78,-26 110,-73 74,-108 -29,-29 -104,-30 -178,-2 -12,5 -18,-3 -27,-34 -6,-23 -8,-46 -5,-51 9,-15 117,-33 171,-27 89,9 146,50 165,119 22,82 -27,155 -130,194 -73,27 -92,43 -89,73 5,41 49,57 117,43 61,-13 63,-12 79,36 11,31 10,33 -16,43 -39,16 -141,20 -182,8 z" inkscape:connector-curvature="0" id="path110" />
    <path d="m 5483,13442 c -51,-14 -53,-16 -53,-48 0,-30 -3,-34 -25,-34 -22,0 -25,-4 -25,-40 0,-36 3,-40 25,-40 25,0 25,0 25,-95 0,-60 5,-108 14,-130 17,-39 60,-65 110,-65 56,0 66,8 66,51 0,35 -3,39 -24,39 -46,0 -57,24 -54,114 l 3,81 38,3 c 36,3 37,4 37,43 0,39 0,39 -39,39 l -40,0 -3,48 -3,49 -52,-15 z" inkscape:connector-curvature="0" id="path112" />
    <path d="m 4663,13359 c -66,-19 -123,-102 -123,-179 0,-124 95,-200 235,-187 90,9 98,13 91,55 -3,19 -7,36 -8,38 -2,1 -24,-2 -50,-7 -57,-13 -121,2 -143,34 -8,12 -15,25 -15,29 0,5 54,8 120,8 l 120,0 0,50 c 0,126 -99,196 -227,159 z m 110,-87 c 35,-31 21,-42 -53,-42 -38,0 -70,3 -70,6 0,16 24,46 43,54 26,10 55,4 80,-18 z" inkscape:connector-curvature="0" id="path114" />
    <path d="m 5124,13356 c -18,-8 -35,-19 -38,-25 -11,-18 -26,-13 -26,9 0,17 -7,20 -51,20 l -51,0 6,-31 c 3,-17 6,-132 6,-255 l 0,-224 55,0 55,0 0,92 c 0,90 0,91 20,73 11,-10 40,-20 67,-22 61,-5 118,26 151,82 19,34 22,51 20,117 -2,59 -8,83 -24,105 -50,67 -121,89 -190,59 z m 76,-96 c 37,-37 39,-122 4,-161 -23,-25 -78,-25 -104,1 -28,28 -28,117 1,154 25,32 70,35 99,6 z" inkscape:connector-curvature="0" id="path116" />
    <path d="m 5783,13359 c -66,-19 -123,-102 -123,-179 0,-124 95,-200 235,-187 90,9 98,13 91,55 -3,19 -7,36 -8,38 -2,1 -24,-2 -50,-7 -57,-13 -121,2 -143,34 -8,12 -15,25 -15,29 0,5 54,8 120,8 l 120,0 0,50 c 0,126 -99,196 -227,159 z m 110,-87 c 35,-31 21,-42 -53,-42 -38,0 -70,3 -70,6 0,16 24,46 43,54 26,10 55,4 80,-18 z" inkscape:connector-curvature="0" id="path118" />
    <path d="m 6227,13346 c -38,-26 -39,-26 -44,-6 -4,16 -14,20 -49,20 l -44,0 0,-180 0,-180 55,0 55,0 0,120 c 0,107 2,122 20,140 11,11 27,20 35,20 8,0 24,-9 35,-20 18,-18 20,-33 20,-140 l 0,-120 55,0 55,0 0,120 c 0,107 2,122 20,140 11,11 27,20 35,20 8,0 24,-9 35,-20 18,-18 20,-33 20,-140 l 0,-120 55,0 55,0 0,123 c 0,67 -4,137 -10,156 -13,46 -46,79 -87,87 -44,8 -75,-1 -112,-32 l -31,-25 -23,26 c -34,41 -100,45 -150,11 z" inkscape:connector-curvature="0" id="path120" />
    <path d="m 7335,13359 c -11,-6 -30,-23 -42,-38 l -23,-26 0,33 c 0,32 0,32 -51,32 -48,0 -51,-1 -45,-22 3,-13 6,-94 6,-180 l 0,-158 55,0 55,0 0,110 c 0,127 12,150 75,150 l 35,0 0,55 c 0,50 -2,55 -22,55 -13,0 -32,-5 -43,-11 z" inkscape:connector-curvature="0" id="path122" />
    <path d="m 7553,13359 c -66,-19 -123,-102 -123,-179 0,-124 95,-200 235,-187 90,9 98,13 91,55 -3,19 -7,36 -8,38 -2,1 -24,-2 -50,-7 -57,-13 -121,2 -143,34 -8,12 -15,25 -15,29 0,5 54,8 120,8 l 120,0 0,50 c 0,126 -99,196 -227,159 z m 110,-87 c 35,-31 21,-42 -53,-42 -38,0 -70,3 -70,6 0,16 24,46 43,54 26,10 55,4 80,-18 z" inkscape:connector-curvature="0" id="path124" />
    <path d="m 7125,12152 c -44,-20 -82,-39 -84,-42 -6,-8 9,-99 18,-104 4,-3 31,6 60,20 29,13 55,24 57,24 2,0 4,-115 4,-255 l 0,-255 75,0 75,0 0,325 0,325 -62,0 c -52,0 -78,-7 -143,-38 z" inkscape:connector-curvature="0" id="path126" />
    <path d="m 12610,11210 0,-530 165,0 165,0 0,530 0,530 -165,0 -165,0 0,-530 z" inkscape:connector-curvature="0" id="path128" />
    <path d="m 13080,11210 0,-440 125,0 125,0 0,440 0,440 -125,0 -125,0 0,-440 z" inkscape:connector-curvature="0" id="path130" />
    <path d="m 13500,11210 0,-340 85,0 85,0 0,340 0,340 -85,0 -84,0 -1,-340 z" inkscape:connector-curvature="0" id="path132" />
    <path d="m 6651,11192 c -72,-36 -94,-103 -57,-174 12,-24 100,-149 197,-278 96,-129 208,-279 247,-333 104,-140 162,-169 250,-125 50,25 51,25 386,478 88,118 168,229 178,247 40,66 17,157 -46,187 -30,14 -95,16 -578,16 -497,0 -546,-2 -577,-18 z m 1011,-164 c -8,-11 -221,-299 -385,-521 -28,-37 -54,-64 -58,-60 -4,4 -93,125 -199,268 -106,143 -204,275 -217,293 l -24,32 447,0 c 356,0 444,-3 436,-12 z" inkscape:connector-curvature="0" id="path134" />
    <path d="m 11085,10252 c -126,-44 -156,-97 -162,-281 -3,-69 -5,-130 -6,-134 -1,-5 -133,-8 -293,-7 -160,0 -298,-2 -307,-6 -13,-5 -17,-19 -17,-65 l 0,-59 313,0 312,0 0,-278 c 0,-260 1,-280 21,-322 26,-56 76,-106 123,-122 27,-10 128,-13 386,-13 l 350,0 58,28 c 64,32 100,72 116,132 18,65 15,919 -3,979 -19,62 -57,111 -109,139 -41,21 -51,22 -387,24 -308,3 -350,1 -395,-15 z m 448,-189 c 40,-43 104,-112 143,-153 39,-42 74,-86 78,-98 13,-41 -34,-90 -74,-77 -10,3 -51,40 -89,82 l -71,75 0,-356 c 0,-343 -1,-357 -20,-376 -24,-24 -57,-26 -82,-3 -17,15 -18,40 -18,377 l -1,361 -69,-72 c -85,-89 -101,-98 -138,-81 -21,10 -28,21 -30,48 -2,33 8,46 144,193 80,86 148,157 151,157 2,0 37,-35 76,-77 z m -185,-601 c 7,-47 -9,-52 -177,-52 -109,0 -161,4 -169,12 -13,13 -16,51 -5,62 4,3 84,5 177,4 170,-3 171,-3 174,-26 z m 576,12 c 9,-24 8,-31 -10,-48 -13,-13 -42,-16 -165,-16 -85,0 -159,5 -170,10 -18,10 -26,50 -12,63 3,4 84,7 179,7 147,0 173,-2 178,-16 z" inkscape:connector-curvature="0" id="path136" />
    <path d="m 6697,9924 c -4,-4 -7,-81 -7,-171 l 0,-163 535,0 535,0 -2,168 -3,167 -525,3 c -289,1 -529,0 -533,-4 z" inkscape:connector-curvature="0" id="path138" />
    <path d="m 6790,9330 0,-130 435,0 435,0 0,129 0,130 -435,1 -435,1 0,-131 z" inkscape:connector-curvature="0" id="path140" />
    <path d="m 6882,8948 3,-83 340,0 340,0 1,83 1,82 -344,0 -344,0 3,-82 z" inkscape:connector-curvature="0" id="path142" />
  </g>
</svg>
