<?xml version="1.0" encoding="UTF-8" standalone="no"?>
<!-- Created with Inkscape (http://www.inkscape.org/) -->

<svg xmlns:dc="http://purl.org/dc/elements/1.1/" xmlns:cc="http://creativecommons.org/ns#" xmlns:rdf="http://www.w3.org/1999/02/22-rdf-syntax-ns#" xmlns:svg="http://www.w3.org/2000/svg" xmlns="http://www.w3.org/2000/svg" xmlns:inkscape="http://www.inkscape.org/namespaces/inkscape" version="1.0" width="3508pt" height="2480pt" viewBox="0 0 3508 2480" id="svg2">
  <defs id="defs112" />
  <metadata id="metadata4">
Created by potrace 1.11, written by Peter Selinger 2001-2013
<rdf:RDF>
  <cc:Work rdf:about="">
    <dc:format>image/svg+xml</dc:format>
    <dc:type rdf:resource="http://purl.org/dc/dcmitype/StillImage" />
  </cc:Work>
</rdf:RDF>
</metadata>
  <g transform="matrix(0.1,0,0,-0.1,0,2480)" id="g6" style="fill:#000000;stroke:none">
    <path d="m 420,23465 0,-955 8663,0 c 4765,0 9103,-3 9640,-7 l 977,-6 0,961 0,962 -9640,0 -9640,0 0,-955 z m 9691,13 c 1,-194 3,-365 5,-380 l 3,-28 -75,0 -74,0 0,35 c 0,40 -9,44 -28,14 -33,-53 -153,-74 -227,-40 -194,90 -180,435 20,501 54,18 148,9 185,-18 l 30,-23 0,146 0,145 80,0 80,0 1,-352 z m 1089,-28 0,-380 -85,0 -85,0 0,380 0,380 85,0 85,0 0,-380 z m -7130,345 c 33,-35 31,-81 -4,-112 -72,-62 -175,12 -132,95 18,35 28,40 77,41 26,1 42,-6 59,-24 z m 9308,7 c -7,-10 -35,-46 -63,-80 l -50,-62 -57,0 -57,0 46,80 45,80 75,0 c 69,0 73,-1 61,-18 z m 3633,5 c 20,-15 39,-51 39,-72 0,-30 -55,-75 -91,-75 -70,0 -106,85 -57,137 24,26 82,31 109,10 z m -15457,-22 c 115,-30 191,-106 228,-228 46,-154 -5,-351 -112,-422 -16,-11 -30,-23 -30,-26 0,-3 36,-14 80,-24 44,-10 80,-22 80,-26 0,-8 -39,-112 -44,-117 -4,-3 -188,61 -249,87 -27,12 -59,21 -72,21 -12,0 -52,9 -88,20 -189,58 -279,277 -206,499 56,171 232,263 413,216 z m 9956,5 c 0,-18 -47,-134 -83,-207 -36,-70 -37,-72 -82,-79 -25,-3 -48,-5 -50,-2 -2,2 7,42 20,88 13,47 29,111 35,142 l 11,57 52,4 c 29,2 62,4 75,5 12,1 22,-2 22,-8 z m 462,-1 c 29,-6 66,-18 82,-26 54,-28 113,-92 142,-156 27,-57 29,-71 29,-177 0,-110 -1,-118 -33,-182 -43,-88 -104,-142 -190,-168 -112,-35 -223,-21 -311,38 -174,117 -191,436 -31,586 91,85 187,111 312,85 z m 3691,-20 c 96,-32 153,-121 145,-229 -9,-125 -107,-202 -265,-209 l -83,-3 0,-129 0,-129 -80,0 -80,0 2,353 3,352 55,7 c 79,9 258,1 303,-13 z m 2535,-21 c 71,-34 112,-106 112,-198 0,-74 -48,-158 -143,-251 -44,-44 -84,-79 -89,-79 -4,0 -8,-4 -8,-10 0,-5 53,-11 126,-12 l 127,-3 0,-60 0,-60 -247,-3 -246,-2 0,46 0,47 134,129 c 155,148 196,211 180,275 -20,79 -116,101 -209,50 -26,-15 -49,-26 -51,-25 -4,4 -44,108 -44,114 0,9 108,55 152,64 60,12 155,3 206,-22 z m -14488,-93 0,-75 60,0 61,0 -3,-57 -3,-58 -57,-3 -58,-3 0,-114 c 0,-132 11,-155 75,-155 l 35,0 0,-59 c 0,-69 -3,-71 -91,-71 -73,0 -131,27 -156,73 -14,25 -18,63 -21,179 l -4,147 -31,3 c -31,3 -32,4 -35,61 l -3,57 36,0 35,0 0,59 0,59 63,15 c 103,24 97,28 97,-58 z m -854,-84 c 51,-23 90,-72 103,-131 6,-25 11,-118 11,-207 l 0,-163 -70,0 c -65,0 -70,2 -76,24 l -6,24 -35,-24 c -42,-28 -90,-38 -145,-31 -48,6 -84,30 -116,78 -20,28 -23,44 -20,91 7,103 74,157 221,179 82,12 95,25 55,53 -28,20 -119,20 -173,1 -22,-8 -41,-15 -41,-15 -6,-1 -23,93 -19,100 24,39 241,53 311,21 z m 564,-56 0,-75 -40,0 c -55,0 -95,-23 -109,-61 -6,-18 -11,-94 -11,-170 l 0,-139 -80,0 -80,0 0,255 0,255 70,0 70,0 0,-47 0,-48 20,33 c 26,42 76,72 123,72 l 37,0 0,-75 z m 1135,56 c 44,-19 91,-69 107,-110 17,-46 28,-120 21,-151 l -5,-30 -169,0 c -93,0 -169,-2 -169,-5 0,-4 7,-19 15,-34 26,-52 143,-77 235,-51 43,12 51,4 53,-56 l 2,-49 -45,-12 c -25,-6 -80,-12 -122,-12 -184,-2 -288,95 -288,268 1,109 53,195 145,237 63,30 161,32 220,5 z m 545,-56 0,-75 -44,0 c -55,0 -92,-28 -106,-81 -6,-22 -10,-95 -9,-162 l 1,-122 -81,-3 -81,-3 0,256 0,255 69,0 70,0 3,-47 3,-48 17,31 c 23,42 75,74 121,74 l 37,0 0,-75 z m 442,64 c 11,-6 26,-26 34,-46 28,-66 -16,-133 -88,-133 -67,0 -110,60 -88,124 6,20 21,43 33,51 25,18 80,20 109,4 z m 705,-21 c 70,-46 81,-83 85,-300 l 4,-188 -73,0 c -71,0 -73,1 -73,25 0,29 -12,32 -31,8 -37,-44 -135,-56 -205,-24 -103,47 -120,177 -36,262 41,40 104,64 195,74 62,7 73,22 35,49 -28,20 -118,20 -173,1 -21,-8 -41,-13 -42,-11 -2,1 -9,23 -17,49 l -14,46 42,15 c 22,8 48,17 56,20 8,3 58,4 111,3 85,-2 101,-6 136,-29 z m 1091,17 c 83,-35 123,-103 130,-217 l 5,-78 -172,0 c -186,0 -191,-2 -151,-53 34,-43 146,-61 230,-37 19,5 38,6 42,2 4,-4 9,-30 10,-57 l 3,-50 -45,-12 c -63,-16 -188,-16 -244,1 -67,20 -110,57 -141,120 -31,64 -37,144 -16,219 18,63 87,140 144,160 56,20 158,21 205,2 z m 632,-6 c 77,-48 89,-87 90,-312 l 2,-182 -80,-3 -81,-3 -3,175 c -3,154 -5,176 -22,195 -28,31 -86,28 -117,-5 -23,-25 -24,-32 -27,-195 l -3,-169 -80,0 -79,0 0,255 0,255 70,0 70,0 0,-30 c 0,-35 10,-38 36,-9 46,52 161,66 224,28 z m 1195,2 c 44,-19 91,-69 107,-110 17,-46 28,-120 21,-151 l -5,-30 -163,0 c -89,0 -164,-3 -168,-6 -3,-4 0,-19 8,-34 26,-51 136,-74 238,-51 44,11 50,3 51,-63 1,-40 0,-41 -44,-53 -25,-6 -80,-12 -122,-12 -184,-2 -288,95 -288,268 1,109 53,195 145,237 63,30 161,32 220,5 z m 1456,-16 c 61,-43 93,-109 98,-202 l 3,-73 -171,0 c -186,0 -191,-2 -151,-53 29,-37 81,-51 164,-44 39,3 78,8 88,12 17,7 22,-2 34,-67 6,-35 4,-39 -22,-49 -16,-6 -70,-13 -119,-16 -108,-7 -181,11 -236,56 -94,78 -113,252 -41,360 56,83 120,112 234,109 66,-3 82,-7 119,-33 z m 2122,21 c 109,-46 167,-210 122,-346 -22,-67 -83,-134 -141,-156 -58,-22 -144,-15 -184,14 -16,12 -32,22 -35,22 -3,0 -5,-58 -5,-130 l 0,-130 -80,0 -80,0 0,365 0,365 70,0 70,0 0,-30 c 0,-34 11,-38 31,-13 39,47 164,68 232,39 z m 582,-5 c 44,-19 91,-69 107,-110 17,-46 28,-120 21,-151 l -5,-30 -163,0 c -89,0 -164,-3 -168,-6 -3,-4 0,-19 8,-34 26,-51 144,-76 235,-50 43,12 51,4 53,-56 l 2,-49 -45,-12 c -25,-6 -80,-12 -122,-12 -184,-2 -288,95 -288,268 1,109 53,195 145,237 63,30 161,32 220,5 z m 545,-56 0,-75 -44,0 c -55,0 -92,-28 -106,-81 -6,-22 -10,-95 -9,-162 l 1,-122 -81,-3 -81,-3 0,256 0,255 69,0 70,0 3,-47 3,-48 17,31 c 23,42 75,74 121,74 l 37,0 0,-75 z m 397,60 c 48,-20 70,-41 96,-90 19,-36 22,-61 25,-228 l 4,-188 -73,3 c -68,3 -74,5 -77,25 l -3,22 -40,-26 c -88,-58 -217,-35 -258,46 -12,22 -21,59 -21,81 0,112 78,174 243,194 62,8 73,24 35,50 -28,20 -119,20 -173,1 -22,-8 -41,-15 -41,-15 -7,-1 -25,91 -20,99 23,37 234,55 303,26 z m 1959,-4 c 54,-25 92,-75 104,-141 5,-29 10,-122 10,-207 l 0,-154 -72,3 c -66,3 -73,5 -76,25 l -3,22 -36,-24 c -42,-29 -90,-39 -145,-32 -48,6 -84,30 -116,78 -20,28 -23,44 -20,91 7,103 74,157 221,179 82,12 95,25 55,53 -28,20 -119,20 -173,1 -22,-8 -41,-15 -41,-15 -7,-1 -25,91 -20,99 25,39 240,55 312,22 z m 564,-56 0,-75 -40,0 c -55,0 -95,-23 -109,-61 -6,-18 -11,-94 -11,-170 l 0,-139 -80,0 -80,0 0,255 0,255 70,0 70,0 0,-47 0,-48 20,33 c 26,42 76,72 123,72 l 37,0 0,-75 z m 673,64 c 41,-11 44,-20 26,-82 -9,-34 -14,-38 -32,-32 -76,22 -140,17 -151,-11 -9,-24 19,-51 74,-69 27,-9 67,-29 89,-45 102,-75 67,-227 -62,-265 -65,-19 -149,-19 -216,1 l -53,15 7,36 c 3,19 10,45 15,58 l 8,22 62,-20 c 47,-16 70,-18 98,-11 32,8 37,13 37,38 0,27 -6,32 -70,58 -93,37 -145,91 -145,148 0,67 49,135 115,158 40,14 150,15 198,1 z m 1315,-4 c 83,-35 123,-103 130,-217 l 5,-78 -172,0 c -132,0 -171,-3 -171,-13 0,-23 32,-59 66,-73 39,-16 134,-18 184,-4 19,5 38,6 42,2 4,-4 9,-30 10,-57 l 3,-50 -45,-12 c -63,-16 -188,-16 -244,1 -67,20 -110,57 -141,121 -31,62 -37,150 -17,222 17,56 91,138 145,156 56,20 158,21 205,2 z m -16706,-166 3,-171 28,-24 c 36,-31 68,-30 106,2 l 31,26 0,169 0,169 80,0 80,0 0,-209 c 0,-114 3,-229 6,-255 l 7,-46 -71,0 c -74,0 -82,5 -82,53 0,20 -1,20 -27,-6 -81,-76 -210,-76 -276,2 -40,48 -47,90 -47,284 l 0,177 79,0 80,0 3,-171 z m 2018,-84 0,-255 -85,0 -85,0 0,255 0,255 85,0 85,0 0,-255 z m 2514,163 c 16,-51 39,-131 51,-177 14,-52 25,-77 28,-65 3,10 24,90 48,177 l 42,157 87,0 87,0 -89,-232 c -48,-128 -93,-243 -98,-256 -9,-21 -15,-23 -92,-20 l -81,3 -93,250 c -52,138 -94,251 -94,253 0,1 39,2 88,2 l 87,0 29,-92 z m 1758,-25 c -5,-157 4,-219 33,-249 32,-32 78,-32 110,1 25,24 25,27 25,195 l 0,170 85,0 85,0 0,-255 0,-255 -70,0 -70,0 0,35 c 0,19 -2,35 -4,35 -2,0 -18,-13 -35,-29 -41,-39 -91,-54 -156,-49 -64,5 -107,34 -138,91 -20,38 -22,59 -25,235 l -4,192 84,0 83,0 -3,-117 z m 8678,-138 0,-256 -80,3 -80,3 -3,253 -2,252 83,0 82,0 0,-255 z m -2062,23 -3,-53 -137,-3 -138,-3 0,56 0,55 141,0 140,0 -3,-52 z m -9436,-109 c 11,-6 26,-26 34,-46 28,-66 -16,-133 -88,-133 -42,0 -72,20 -88,59 -25,62 20,131 85,131 20,0 45,-5 57,-11 z" inkscape:connector-curvature="0" id="path8" />
    <path d="m 9799,23455 c -15,-8 -34,-32 -43,-55 -42,-104 5,-210 92,-210 44,0 68,14 87,50 18,34 20,141 4,173 -28,54 -86,71 -140,42 z" inkscape:connector-curvature="0" id="path10" />
    <path d="m 1391,23649 c -19,-11 -42,-30 -52,-42 -47,-55 -64,-210 -33,-300 58,-171 256,-161 309,15 62,209 -79,416 -224,327 z" inkscape:connector-curvature="0" id="path12" />
    <path d="m 11825,23651 c -78,-47 -111,-129 -103,-256 8,-127 72,-205 168,-205 63,0 108,31 140,95 29,60 38,154 20,232 -26,119 -140,187 -225,134 z" inkscape:connector-curvature="0" id="path14" />
    <path d="m 15462,23558 c 3,-116 3,-116 86,-103 97,14 137,112 73,176 -27,26 -36,29 -96,29 l -66,0 3,-102 z" inkscape:connector-curvature="0" id="path16" />
    <path d="m 2765,23315 c -5,-2 -22,-6 -38,-9 -38,-9 -67,-41 -67,-75 0,-37 23,-55 67,-55 51,0 85,41 81,98 -3,39 -15,51 -43,41 z" inkscape:connector-curvature="0" id="path18" />
    <path d="m 4403,23480 c -21,-8 -63,-64 -63,-82 0,-5 43,-8 95,-8 94,0 95,0 95,24 0,29 -52,76 -83,75 -12,0 -32,-4 -44,-9 z" inkscape:connector-curvature="0" id="path20" />
    <path d="m 6108,23311 c -52,-11 -78,-37 -78,-77 0,-25 7,-38 25,-50 54,-36 130,25 123,99 -3,35 -13,39 -70,28 z" inkscape:connector-curvature="0" id="path22" />
    <path d="m 7194,23481 c -25,-11 -64,-58 -64,-77 0,-11 21,-14 95,-14 87,0 95,2 95,19 0,49 -76,93 -126,72 z" inkscape:connector-curvature="0" id="path24" />
    <path d="m 9013,23480 c -21,-8 -63,-64 -63,-82 0,-5 43,-8 95,-8 94,0 95,0 95,24 0,29 -52,76 -83,75 -12,0 -32,-4 -44,-9 z" inkscape:connector-curvature="0" id="path26" />
    <path d="m 10444,23481 c -25,-11 -64,-58 -64,-77 0,-11 21,-14 95,-14 87,0 95,2 95,19 0,49 -76,93 -126,72 z" inkscape:connector-curvature="0" id="path28" />
    <path d="m 12554,23451 c -36,-22 -54,-65 -54,-128 0,-99 60,-158 137,-132 92,30 108,199 24,256 -41,28 -66,29 -107,4 z" inkscape:connector-curvature="0" id="path30" />
    <path d="m 13173,23480 c -21,-8 -63,-64 -63,-82 0,-5 43,-8 95,-8 94,0 95,0 95,24 0,29 -52,76 -83,75 -12,0 -32,-4 -44,-9 z" inkscape:connector-curvature="0" id="path32" />
    <path d="m 14156,23309 c -54,-13 -76,-35 -76,-75 0,-62 65,-81 121,-36 18,15 23,30 23,68 1,55 -4,58 -68,43 z" inkscape:connector-curvature="0" id="path34" />
    <path d="m 16135,23315 c -5,-2 -22,-6 -38,-9 -38,-9 -67,-41 -67,-75 0,-37 23,-55 67,-55 51,0 85,41 81,98 -3,39 -15,51 -43,41 z" inkscape:connector-curvature="0" id="path36" />
    <path d="m 18634,23481 c -25,-11 -64,-58 -64,-77 0,-11 21,-14 95,-14 87,0 95,2 95,19 0,49 -76,93 -126,72 z" inkscape:connector-curvature="0" id="path38" />
    <path d="m 8230,19135 0,-1455 -270,0 -270,0 0,-955 c 0,-592 4,-955 9,-955 6,0 83,-36 173,-79 158,-77 205,-94 352,-126 184,-41 443,-37 640,10 125,29 200,58 348,131 123,62 124,63 188,244 56,157 65,224 65,475 -1,189 -4,233 -22,312 -17,69 -20,100 -12,125 5,18 9,187 9,375 l 0,343 88,0 c 99,0 119,-8 306,-126 118,-74 288,-175 366,-217 30,-17 93,-54 140,-82 86,-53 296,-177 349,-206 16,-8 59,-34 97,-56 151,-89 128,-83 304,-83 l 160,0 0,-242 0,-243 61,-165 c 68,-188 150,-420 153,-435 1,-5 8,-20 14,-32 7,-13 10,-23 8,-23 -3,0 2,-19 10,-42 8,-23 12,-54 9,-68 -4,-19 0,-32 16,-46 25,-22 22,-16 104,-249 35,-99 89,-250 120,-335 31,-85 57,-159 58,-165 1,-5 6,-16 10,-22 5,-7 6,-13 3,-13 -5,0 35,-117 128,-375 20,-55 36,-117 36,-137 l 0,-38 -1255,0 -1255,0 0,-685 0,-685 -70,-35 -70,-35 -811,0 -812,0 -171,88 -171,87 -603,603 c -331,331 -606,602 -611,602 -5,0 -31,-37 -58,-81 -123,-208 -357,-438 -651,-641 -191,-132 -165,-117 -582,-331 -256,-131 -405,-201 -539,-253 -248,-95 -629,-96 -906,-2 -59,20 -412,191 -428,207 -5,5 -9,244 -8,532 0,287 -3,527 -6,532 -9,15 -9,68 0,74 4,3 7,57 6,121 l -1,115 33,18 c 19,9 43,26 53,38 11,12 31,21 48,21 36,0 155,60 187,94 16,17 35,26 55,26 38,0 163,35 182,51 7,6 21,8 30,5 27,-10 147,15 191,40 l 43,25 42,-23 c 34,-18 62,-23 133,-25 50,-1 98,-4 105,-7 46,-14 140,-25 172,-20 30,5 43,1 72,-21 56,-42 285,-155 316,-155 15,0 33,-7 40,-15 19,-22 170,-108 225,-127 27,-10 62,-17 78,-18 l 27,0 0,925 0,925 -665,0 -665,0 0,85 0,85 -1200,0 -1200,0 0,-1100 0,-1100 -640,0 -640,0 0,-3480 0,-3480 7360,0 7360,0 0,-240 0,-240 -1135,0 -1135,0 0,-1620 0,-1620 -1070,0 -1070,0 0,230 0,230 -900,0 -900,0 0,-1183 0,-1184 -77,-74 c -77,-74 -83,-77 -478,-273 l -400,-199 -97,-95 -98,-96 0,-118 0,-118 1840,0 1840,0 0,-75 0,-75 2940,0 2940,0 0,1515 0,1515 570,0 570,0 0,1780 0,1780 170,0 170,0 0,80 0,80 1840,0 1840,0 0,-120 0,-120 538,0 538,0 201,-100 c 110,-54 205,-105 211,-113 14,-16 66,-152 127,-327 23,-69 56,-163 73,-210 17,-47 48,-139 70,-205 49,-145 122,-351 151,-423 26,-66 26,-82 -4,-277 -22,-149 -30,-200 -69,-455 -9,-52 -24,-153 -36,-225 -11,-71 -29,-185 -38,-252 l -18,-123 968,0 968,0 0,-385 0,-385 270,0 270,0 0,-1440 0,-1440 2505,0 2505,0 0,1440 0,1440 -935,0 -935,0 0,1860 0,1860 2820,0 2820,0 0,1175 0,1175 -2820,0 -2820,0 0,-1030 0,-1030 -1490,0 -1490,0 0,-225 0,-225 -1150,0 -1150,0 0,229 0,228 -8400,-4 -8400,-3 0,1550 0,1550 -1840,0 -1840,0 0,325 0,325 1840,0 1840,0 0,545 0,545 3440,0 3440,0 0,915 0,915 615,0 615,0 0,-915 0,-915 4770,0 4770,0 0,915 0,915 725,0 725,0 0,-915 0,-915 4310,0 4310,0 0,145 0,145 -2820,0 -2820,0 0,1860 0,1860 485,0 485,0 0,690 0,690 1355,0 1355,0 0,1155 0,1155 115,0 115,0 0,215 0,215 -115,0 -115,0 0,80 0,80 -1268,0 c -698,0 -2039,-3 -2980,-7 l -1712,-6 0,-1444 0,-1443 -700,0 -700,0 0,-1000 0,-1000 -545,0 -545,0 0,-780 0,-780 -1295,0 -1295,0 0,-770 0,-770 -1840,0 -1840,0 0,770 0,770 -1295,0 -1295,0 0,780 0,780 -545,0 -545,0 0,1000 0,1000 -700,0 -700,0 0,1455 0,1455 -2545,0 -2545,0 0,-1455 z m 438,-2001 c 395,-81 654,-468 574,-857 -92,-444 -539,-700 -965,-552 -105,36 -174,82 -272,180 -77,76 -98,105 -138,185 -58,118 -77,197 -77,325 0,121 18,202 69,309 76,162 186,273 346,351 148,72 303,92 463,59 z M 2244,14400 c 306,-78 526,-358 526,-669 -1,-227 -108,-433 -295,-566 -121,-86 -242,-125 -395,-125 -118,0 -201,19 -309,71 -68,33 -101,58 -171,128 -126,125 -188,247 -209,414 -37,304 146,603 442,721 89,36 133,44 243,45 61,1 116,-5 168,-19 z m 8001,-577 c 54,-29 99,-78 126,-138 28,-60 37,-211 20,-296 -44,-210 -210,-339 -438,-339 l -73,0 0,74 0,73 73,6 c 111,9 181,44 224,115 31,50 29,53 -14,31 -43,-22 -134,-25 -194,-7 -57,16 -113,69 -139,130 -28,65 -24,161 8,223 29,56 90,112 148,135 67,27 200,23 259,-7 z m 763,-60 -3,-78 -152,-3 -153,-3 0,-33 c 0,-19 -2,-41 -6,-49 -4,-11 11,-15 70,-20 120,-9 212,-60 249,-140 61,-130 0,-285 -141,-354 -52,-26 -66,-28 -172,-28 -105,0 -174,11 -208,33 -10,7 -10,20 -1,63 19,90 16,88 107,66 101,-25 159,-18 207,25 45,39 48,91 10,137 -35,41 -83,54 -198,54 l -98,-1 5,37 c 6,37 46,357 46,366 0,3 99,5 220,5 l 221,0 -3,-77 z M 9282,3537 c 101,-59 149,-145 156,-282 15,-289 -156,-477 -443,-487 l -80,-3 0,75 0,75 80,6 c 87,6 132,24 183,73 29,26 62,75 62,89 0,3 -17,-4 -37,-14 -26,-13 -58,-19 -109,-19 -109,0 -172,33 -221,118 -24,40 -28,58 -27,122 0,92 21,138 95,204 65,58 120,77 220,73 61,-3 86,-9 121,-30 z m 768,-57 0,-80 -150,0 c -136,0 -150,-2 -150,-17 0,-10 -3,-34 -6,-53 l -6,-35 72,-2 c 124,-3 227,-67 259,-162 43,-130 -25,-274 -158,-334 -83,-38 -312,-33 -367,7 -14,11 -14,20 -4,74 7,34 16,65 21,68 5,3 32,-2 61,-11 79,-23 168,-20 209,8 51,34 66,71 48,121 -22,62 -68,81 -201,81 l -108,0 0,28 c 0,31 39,355 45,375 3,9 56,12 220,12 l 215,0 0,-80 z" inkscape:connector-curvature="0" id="path40" />
    <path d="m 8934,16626 c -95,-43 -120,-160 -48,-227 14,-13 58,-40 97,-59 61,-30 72,-39 75,-63 7,-57 -48,-78 -142,-54 l -56,14 -11,-40 c -6,-23 -7,-43 -2,-48 5,-5 37,-14 71,-20 115,-20 208,17 244,97 15,36 17,51 9,82 -14,50 -63,96 -133,123 -69,26 -93,49 -84,83 10,41 98,55 157,25 13,-6 19,0 28,33 9,28 9,44 2,51 -17,17 -171,20 -207,3 z" inkscape:connector-curvature="0" id="path42" />
    <path d="m 7903,16623 c -10,-3 -13,-63 -13,-248 l 0,-243 63,-6 c 73,-8 182,6 225,28 51,26 72,62 72,122 0,42 -5,59 -26,83 -14,17 -32,31 -39,31 -27,0 -25,19 3,34 36,19 56,65 48,109 -13,69 -76,96 -221,96 -55,0 -106,-3 -112,-6 z m 179,-73 c 88,-25 64,-103 -36,-116 l -46,-7 0,61 c 0,74 10,82 82,62 z m 18,-205 c 32,-17 46,-51 36,-90 -8,-30 -53,-55 -101,-55 l -35,0 0,80 0,80 35,0 c 20,0 49,-7 65,-15 z" inkscape:connector-curvature="0" id="path44" />
    <path d="m 8342,16443 c 3,-184 4,-189 30,-234 35,-60 81,-83 169,-83 88,0 147,33 180,101 21,44 24,65 27,226 l 4,177 -56,0 -56,0 0,-157 c 0,-87 -5,-175 -10,-195 -20,-72 -98,-92 -151,-39 l -29,29 0,181 0,181 -56,0 -56,0 4,-187 z" inkscape:connector-curvature="0" id="path46" />
    <path d="m 1706,14018 c -3,-29 -8,-96 -11,-148 -3,-52 -12,-187 -20,-300 -8,-113 -15,-220 -15,-237 l 0,-33 79,0 78,0 8,193 c 5,105 9,201 10,212 1,11 2,57 3,103 2,88 15,108 26,40 10,-60 49,-217 98,-391 l 41,-148 66,3 65,3 44,135 c 24,74 64,205 88,290 25,85 47,156 49,159 3,2 5,-25 5,-60 1,-35 3,-102 5,-149 2,-47 7,-154 10,-237 l 7,-153 85,0 84,0 -5,53 c -3,28 -8,111 -11,182 -3,72 -10,193 -15,270 -6,77 -11,168 -12,203 l -2,63 -115,-3 -115,-3 -33,-105 c -19,-58 -53,-175 -77,-260 -24,-85 -46,-148 -49,-140 -3,8 -15,56 -27,105 -12,50 -37,142 -55,205 -18,63 -38,134 -45,158 l -11,42 -114,0 -114,0 -5,-52 z" inkscape:connector-curvature="0" id="path48" />
    <path d="m 10053,13698 c -59,-28 -71,-160 -19,-205 61,-52 176,-12 176,60 0,117 -74,185 -157,145 z" inkscape:connector-curvature="0" id="path50" />
    <path d="m 9100,3419 c -35,-14 -58,-47 -66,-95 -14,-91 55,-160 136,-135 53,16 73,42 72,95 -2,68 -25,114 -66,131 -40,17 -42,17 -76,4 z" inkscape:connector-curvature="0" id="path52" />
    <path d="m 10214,16548 c -141,-14 -252,-75 -321,-177 -60,-87 -78,-153 -78,-282 0,-101 1,-109 35,-175 41,-81 95,-126 177,-150 114,-33 239,0 315,84 52,58 71,116 67,205 -5,99 -41,159 -118,199 -68,36 -174,39 -236,8 -21,-11 -41,-17 -44,-15 -10,11 57,91 94,112 47,27 89,39 168,48 l 58,7 -3,70 c -3,82 3,78 -114,66 z m -21,-438 c 22,-25 27,-40 27,-83 0,-66 -16,-98 -60,-119 -77,-38 -150,17 -158,119 -4,47 -1,58 19,80 33,34 57,44 104,38 29,-3 48,-12 68,-35 z" inkscape:connector-curvature="0" id="path54" />
    <path d="m 10647,16535 c -89,-29 -157,-118 -157,-205 1,-37 33,-101 68,-134 l 31,-29 -43,-38 c -53,-47 -76,-93 -76,-153 0,-87 49,-154 145,-198 72,-33 217,-32 292,1 92,41 153,127 153,217 0,49 -46,128 -91,159 l -40,26 40,44 c 47,51 55,76 49,150 -5,65 -40,115 -101,147 -55,28 -199,35 -270,13 z m 170,-130 c 47,-33 35,-124 -20,-154 -21,-11 -30,-10 -65,8 -65,33 -81,85 -41,135 16,21 29,26 63,26 23,0 51,-7 63,-15 z m -10,-331 c 60,-38 73,-115 28,-159 -32,-32 -100,-35 -138,-5 -53,42 -43,134 17,171 32,19 54,18 93,-7 z" inkscape:connector-curvature="0" id="path56" />
    <path d="m 8027,15177 c -38,-13 -77,-33 -87,-43 -18,-19 -18,-20 6,-78 13,-33 26,-61 28,-64 3,-2 33,10 67,27 120,60 219,25 219,-79 0,-73 -66,-161 -239,-315 l -112,-100 3,-55 3,-55 278,-3 277,-2 0,80 0,80 -140,0 -140,0 57,52 c 79,70 149,153 175,208 27,54 36,162 18,215 -16,48 -63,101 -114,127 -64,34 -209,36 -299,5 z" inkscape:connector-curvature="0" id="path58" />
    <path d="m 10000,15185 c -94,-30 -159,-114 -160,-203 0,-54 21,-98 67,-138 l 35,-30 -35,-24 c -59,-40 -87,-94 -87,-165 0,-77 28,-128 93,-172 122,-82 335,-65 429,34 59,62 76,169 38,244 -12,22 -41,54 -66,72 l -44,31 30,24 c 60,47 86,138 59,209 -14,38 -56,81 -104,106 -52,27 -189,33 -255,12 z m 167,-137 c 34,-31 32,-96 -3,-132 -33,-32 -51,-33 -95,-3 -61,41 -71,107 -22,145 27,20 94,15 120,-10 z m -27,-318 c 87,-44 95,-152 15,-186 -42,-17 -87,-9 -119,22 -44,45 -38,114 15,158 37,31 39,31 89,6 z" inkscape:connector-curvature="0" id="path60" />
    <path d="m 8722,15146 c -51,-24 -95,-46 -98,-49 -4,-3 -1,-30 6,-59 22,-96 12,-91 96,-53 l 74,34 0,-305 0,-304 90,0 90,0 0,390 0,390 -82,0 c -76,-1 -90,-4 -176,-44 z" inkscape:connector-curvature="0" id="path62" />
    <path d="m 10631,15144 c -52,-24 -97,-46 -99,-48 -8,-9 22,-128 33,-133 7,-2 40,9 74,26 33,17 63,31 66,31 3,0 5,-137 5,-305 l 0,-306 88,3 87,3 0,385 0,385 -80,2 c -76,2 -85,0 -174,-43 z" inkscape:connector-curvature="0" id="path64" />
    <path d="m 3600,14035 0,-85 185,0 c 102,0 185,-3 185,-6 0,-7 -261,-518 -301,-590 -16,-28 -29,-54 -29,-58 0,-4 48,-5 106,-4 l 106,3 169,350 c 168,346 170,350 167,410 l -3,60 -292,3 -293,2 0,-85 z" inkscape:connector-curvature="0" id="path66" />
    <path d="m 8070,13853 c -161,-60 -156,-55 -129,-129 12,-33 25,-63 30,-68 5,-6 30,2 61,19 87,48 190,37 217,-22 39,-86 -18,-180 -223,-362 l -116,-104 0,-59 0,-58 280,0 280,0 0,80 0,80 -140,0 -141,0 38,32 c 77,65 160,158 188,209 33,62 45,172 25,233 -17,53 -67,105 -125,132 -41,20 -66,24 -140,23 -49,0 -97,-3 -105,-6 z" inkscape:connector-curvature="0" id="path68" />
    <path d="m 8582,13773 3,-78 168,-3 167,-2 -153,-306 c -97,-192 -150,-307 -142,-310 6,-3 52,-4 100,-2 84,3 90,5 102,28 7,14 78,162 158,329 136,284 145,307 145,362 l 0,59 -275,0 -276,0 3,-77 z" inkscape:connector-curvature="0" id="path70" />
    <path d="m 990,5200 0,-1760 260,0 260,0 0,-80 0,-80 120,0 120,0 0,80 0,80 1975,0 1976,0 24,53 c 31,65 33,142 5,196 -10,21 -16,41 -13,45 3,3 10,27 15,53 22,117 23,112 -11,147 -18,18 -104,177 -204,376 -148,294 -175,354 -180,403 -4,44 -21,90 -67,182 l -62,124 -571,3 -572,4 -100,29 c -84,25 -115,29 -194,27 -52,-1 -120,-9 -152,-18 -55,-15 -60,-15 -84,0 -16,11 -52,18 -98,20 -143,7 -195,23 -268,82 -61,49 -154,93 -199,94 -9,0 -40,24 -69,54 -48,49 -158,116 -190,116 -8,0 -11,178 -11,674 l 1,675 182,90 182,91 -1037,0 -1038,0 0,-1760 z m 1038,1587 c 135,-48 237,-120 325,-230 108,-133 152,-277 145,-460 -7,-176 -61,-303 -183,-435 -125,-136 -285,-210 -470,-219 -132,-6 -223,13 -345,73 -77,38 -110,62 -176,129 -67,67 -90,98 -128,176 -55,115 -76,197 -76,310 0,256 151,500 380,612 137,68 182,77 330,73 103,-3 138,-8 198,-29 z" inkscape:connector-curvature="0" id="path72" />
    <path d="m 1440,6443 c -1,-16 -3,-44 -5,-63 -2,-19 -11,-154 -20,-300 -8,-146 -18,-291 -21,-322 l -6,-58 80,0 79,0 6,123 c 4,67 9,194 13,282 3,88 8,167 11,175 3,8 19,-46 37,-120 17,-74 52,-206 76,-292 l 45,-158 66,0 66,0 12,38 c 16,51 126,413 148,487 l 18,60 6,-70 c 4,-38 7,-118 8,-176 0,-58 4,-161 8,-227 l 6,-122 85,0 84,0 -6,83 c -3,45 -8,125 -11,177 -3,52 -10,172 -15,265 -5,94 -10,187 -10,208 l 0,37 -115,0 -114,0 -45,-142 c -25,-79 -58,-194 -75,-257 -17,-62 -33,-116 -35,-119 -7,-6 -9,2 -36,118 -13,52 -42,162 -66,243 -24,82 -44,151 -44,153 0,2 -52,4 -115,4 l -115,0 0,-27 z" inkscape:connector-curvature="0" id="path74" />
    <path d="m 4455,6802 c 160,-81 333,-174 385,-206 52,-33 120,-74 150,-92 66,-38 141,-97 280,-218 209,-182 384,-380 451,-511 23,-44 42,-81 44,-83 1,-1 218,105 482,238 l 480,240 69,0 69,-1 85,-80 c 101,-96 255,-217 365,-289 44,-29 85,-58 90,-64 18,-23 198,-122 425,-236 124,-62 230,-116 235,-121 19,-15 188,-76 260,-94 40,-9 96,-33 131,-55 l 60,-38 67,32 c 59,29 80,34 180,39 62,4 139,12 172,18 33,6 69,12 80,13 12,1 26,6 33,10 7,4 12,5 12,2 0,-30 792,367 857,430 7,7 45,34 85,60 40,27 120,86 177,132 57,46 110,86 118,89 11,4 13,92 13,469 l 0,464 -3072,0 -3073,-1 290,-147 z m 4301,57 c 272,-38 517,-239 603,-494 52,-156 48,-329 -10,-489 -86,-238 -306,-424 -553,-467 -40,-6 -113,-9 -175,-7 -190,9 -335,73 -472,208 -138,136 -208,293 -217,483 -5,124 7,199 49,305 99,248 320,423 584,462 75,11 106,11 191,-1 z" inkscape:connector-curvature="0" id="path76" />
    <path d="m 9087,6345 c -99,-35 -134,-134 -76,-216 9,-14 53,-42 96,-63 84,-41 93,-49 93,-83 0,-48 -91,-70 -165,-39 -39,17 -40,16 -49,-36 -9,-51 14,-62 124,-63 98,0 139,17 178,76 20,28 23,44 20,87 -6,68 -31,94 -131,140 -86,39 -105,66 -72,102 20,22 94,28 138,11 22,-9 25,-6 36,31 7,22 10,42 7,45 -9,9 -81,23 -121,22 -22,0 -57,-6 -78,-14 z" inkscape:connector-curvature="0" id="path78" />
    <path d="m 8058,6343 -28,-4 0,-244 0,-244 36,-7 c 52,-10 195,2 236,19 55,23 88,70 88,125 0,57 -29,109 -65,118 -30,8 -32,20 -4,29 25,8 59,61 59,93 0,39 -27,78 -67,97 -38,18 -193,29 -255,18 z m 205,-104 c 15,-21 17,-31 8,-46 -14,-27 -60,-45 -102,-41 -32,3 -34,5 -37,47 -5,67 0,72 59,69 43,-2 56,-8 72,-29 z m -6,-191 c 31,-29 30,-72 -2,-104 -21,-21 -33,-25 -73,-22 l -47,3 -3,64 c -4,90 -1,95 55,87 27,-3 57,-15 70,-28 z" inkscape:connector-curvature="0" id="path80" />
    <path d="m 8482,6157 c 3,-192 3,-194 30,-235 34,-51 74,-73 147,-79 118,-10 199,51 221,166 5,29 10,118 10,197 l 0,144 -55,0 -55,0 -1,-162 c 0,-192 -8,-225 -60,-251 -29,-14 -42,-15 -68,-6 -54,19 -61,47 -61,244 l 0,175 -56,0 -56,0 4,-193 z" inkscape:connector-curvature="0" id="path82" />
    <path d="m 19580,6075 0,-825 825,0 825,0 0,115 c 0,81 4,124 14,144 90,173 129,517 91,811 -13,108 -56,265 -90,330 -8,16 -15,55 -15,87 l 0,58 108,52 107,51 -932,1 -933,1 0,-825 z m 1067,696 c 117,-40 185,-84 278,-176 92,-93 135,-160 178,-282 30,-83 32,-96 31,-233 0,-129 -3,-154 -26,-222 -40,-121 -92,-204 -187,-299 -71,-70 -102,-93 -181,-131 -128,-63 -201,-81 -330,-81 -124,0 -201,17 -315,72 -138,66 -226,143 -308,272 -81,126 -112,239 -111,399 1,100 5,127 32,205 43,129 92,207 191,305 131,130 273,196 451,208 119,9 190,0 297,-37 z" inkscape:connector-curvature="0" id="path84" />
    <path d="m 20865,6301 c -61,-15 -96,-41 -116,-87 -39,-87 -7,-146 109,-203 84,-40 98,-55 88,-94 -9,-39 -64,-52 -136,-33 -30,8 -58,12 -62,8 -3,-4 -10,-24 -13,-44 -7,-35 -5,-38 21,-45 16,-4 67,-8 114,-8 72,0 91,4 123,23 46,29 67,68 67,124 0,70 -27,102 -127,151 -75,36 -88,46 -91,69 -5,40 35,62 96,55 26,-3 55,-9 64,-12 13,-5 19,2 28,35 6,23 10,44 7,46 -5,6 -107,24 -126,23 -9,-1 -29,-4 -46,-8 z" inkscape:connector-curvature="0" id="path86" />
    <path d="m 19832,6293 -52,-4 2,-247 3,-247 120,0 c 105,0 125,3 162,23 51,27 73,65 73,126 0,48 -32,99 -70,111 -23,7 -27,25 -6,25 25,0 66,59 66,94 0,40 -32,84 -74,101 -36,15 -147,24 -224,18 z m 173,-98 c 14,-13 25,-29 25,-35 0,-6 -11,-22 -25,-35 -18,-19 -35,-25 -70,-25 l -45,0 0,60 0,60 45,0 c 35,0 52,-6 70,-25 z m 0,-200 c 53,-52 18,-119 -68,-131 l -47,-7 0,82 0,81 45,0 c 35,0 52,-6 70,-25 z" inkscape:connector-curvature="0" id="path88" />
    <path d="m 20230,6128 c 0,-193 7,-233 51,-283 69,-78 242,-72 307,9 39,51 47,93 47,271 l 0,170 -52,3 -53,3 0,-166 c 0,-181 -8,-220 -54,-250 -32,-21 -85,-14 -112,16 -17,19 -20,43 -24,208 l -5,186 -52,3 -53,3 0,-173 z" inkscape:connector-curvature="0" id="path90" />
    <path d="m 3337,6513 c -4,-3 -7,-42 -7,-85 l 0,-78 191,0 191,0 -45,-82 c -24,-46 -101,-194 -171,-330 l -127,-248 109,0 110,0 10,28 c 5,15 80,172 166,349 l 157,322 -3,63 -3,63 -286,3 c -157,1 -288,-1 -292,-5 z" inkscape:connector-curvature="0" id="path92" />
    <path d="m 22023,6406 c -216,-53 -344,-238 -331,-477 11,-202 139,-319 332,-307 110,7 197,63 241,154 27,54 31,159 11,222 -21,63 -86,126 -147,142 -56,15 -155,9 -198,-13 -19,-9 -37,-15 -39,-12 -3,3 8,24 24,48 41,58 117,95 214,105 l 75,7 3,73 3,72 -68,-1 c -37,0 -91,-6 -120,-13 z m 12,-400 c 47,-20 68,-65 63,-134 -4,-47 -10,-60 -37,-84 -76,-68 -181,0 -181,117 0,55 19,83 70,104 34,14 46,13 85,-3 z" inkscape:connector-curvature="0" id="path94" />
    <path d="m 22554,6409 c -52,-15 -126,-71 -147,-111 -43,-86 -31,-164 37,-231 26,-25 36,-42 28,-44 -27,-10 -74,-57 -92,-94 -26,-51 -26,-128 0,-180 70,-137 333,-174 479,-69 79,58 111,170 72,255 -17,38 -74,98 -102,107 -9,3 0,17 24,42 21,21 42,49 48,63 12,31 12,115 0,146 -16,42 -81,96 -134,112 -55,16 -164,18 -213,4 z m 160,-150 c 38,-45 31,-102 -18,-134 -21,-14 -31,-15 -60,-5 -106,35 -96,170 13,170 32,0 44,-6 65,-31 z m -17,-319 c 39,-23 55,-52 55,-97 0,-82 -109,-121 -169,-60 -40,40 -40,104 1,146 35,36 67,39 113,11 z" inkscape:connector-curvature="0" id="path96" />
    <path d="m 7086,4904 c -71,-23 -128,-61 -122,-82 15,-44 44,-117 47,-115 148,80 260,72 283,-20 20,-76 -39,-161 -236,-342 l -108,-99 0,-58 0,-58 278,2 277,3 3,66 c 2,48 -1,69 -12,78 -10,9 -52,11 -140,9 -69,-2 -125,0 -124,3 2,3 27,27 57,54 163,144 226,276 192,403 -14,52 -70,116 -125,145 -54,28 -199,34 -270,11 z" inkscape:connector-curvature="0" id="path98" />
    <path d="m 7753,4861 -101,-49 14,-68 c 8,-37 16,-70 18,-72 3,-2 34,10 69,27 36,17 68,31 71,31 3,0 6,-135 6,-300 l 0,-301 93,3 92,3 0,385 0,385 -80,3 c -78,3 -83,2 -182,-47 z" inkscape:connector-curvature="0" id="path100" />
    <path d="m 9067,4899 c -82,-19 -154,-74 -176,-132 -30,-78 -1,-186 59,-224 l 31,-20 -36,-24 c -19,-13 -48,-42 -63,-63 -23,-33 -27,-49 -27,-107 0,-59 4,-73 30,-110 86,-123 327,-148 464,-49 79,58 111,170 72,256 -19,42 -85,104 -110,104 -8,0 4,17 27,38 49,45 62,76 62,144 0,92 -58,157 -163,185 -57,15 -113,15 -170,2 z m 116,-130 c 27,-12 47,-47 47,-84 0,-30 -46,-85 -71,-85 -29,0 -75,26 -93,52 -52,73 32,156 117,117 z m 5,-339 c 18,-11 40,-36 48,-56 42,-100 -76,-178 -158,-105 -28,25 -33,36 -33,76 0,40 5,51 33,76 38,34 65,36 110,9 z" inkscape:connector-curvature="0" id="path102" />
    <path d="m 9673,4850 -101,-50 14,-61 c 8,-34 17,-65 20,-70 3,-5 36,7 75,26 38,20 69,32 69,28 0,-5 1,-141 3,-303 l 2,-295 88,-3 87,-3 -2,388 -3,388 -75,2 c -71,2 -80,-1 -177,-47 z" inkscape:connector-curvature="0" id="path104" />
    <path d="m 7091,3565 c -60,-19 -131,-57 -131,-71 0,-6 7,-29 16,-50 9,-22 20,-49 25,-61 l 8,-22 57,29 c 92,49 194,37 222,-25 37,-80 -17,-164 -230,-360 l -108,-99 0,-58 0,-58 278,2 277,3 0,75 0,75 -138,0 c -75,0 -137,2 -136,5 0,3 24,25 52,49 71,59 152,155 178,210 30,62 37,158 14,216 -20,55 -97,127 -153,143 -52,16 -176,14 -231,-3 z" inkscape:connector-curvature="0" id="path106" />
    <path d="m 7612,3493 3,-78 172,-3 173,-2 -155,-304 c -85,-166 -155,-306 -155,-309 0,-4 44,-7 99,-7 l 98,0 157,324 c 153,318 156,325 156,390 l 0,66 -275,0 -276,0 3,-77 z" inkscape:connector-curvature="0" id="path108" />
  </g>
</svg>
