<?xml version="1.0" standalone="no"?>
<!DOCTYPE svg PUBLIC "-//W3C//DTD SVG 20010904//EN"
 "http://www.w3.org/TR/2001/REC-SVG-20010904/DTD/svg10.dtd">
<svg version="1.0" xmlns="http://www.w3.org/2000/svg"
 width="3508.000000pt" height="2480.000000pt" viewBox="0 0 3508.000000 2480.000000"
 preserveAspectRatio="xMidYMid meet">
<metadata>
Created by potrace 1.11, written by Peter Selinger 2001-2013
</metadata>
<g transform="translate(0.000000,2480.000000) scale(0.100000,-0.100000)"
fill="#000000" stroke="none">
<path d="M1563 23612 c-18 -2 -33 -5 -33 -7 0 -2 -7 -39 -15 -82 -19 -99 -20
-95 12 -91 26 3 28 7 42 86 l14 82 42 0 c56 0 74 -20 51 -55 -13 -20 -25 -25
-58 -25 l-41 0 39 -44 c31 -35 46 -44 73 -45 l35 -1 -32 33 c-18 18 -32 36
-32 39 0 3 12 9 28 13 52 13 81 61 50 82 -16 9 -130 19 -175 15z"/>
<path d="M2830 22736 c0 -795 2 -884 16 -890 8 -3 2428 -5 5377 -3 l5362 2 3
888 2 887 -5380 0 -5380 0 0 -884z m1820 249 l-61 -75 -51 0 -50 0 38 68 c20
37 39 70 41 75 2 4 36 7 74 7 l70 0 -61 -75z m7675 50 c14 -13 25 -36 25 -50
0 -36 -42 -75 -80 -75 -38 0 -80 39 -80 75 0 36 42 75 80 75 19 0 40 -9 55
-25z m-5514 -5 c29 -6 57 -14 62 -19 11 -11 -20 -124 -33 -116 -4 3 -32 10
-62 15 -147 28 -267 -64 -268 -205 0 -146 77 -225 219 -225 38 0 81 4 94 9 29
11 32 7 42 -63 7 -43 6 -46 -20 -56 -89 -34 -256 -19 -343 31 -210 120 -197
478 22 591 84 44 186 57 287 38z m-3033 -182 c29 -101 55 -202 58 -226 4 -23
10 -44 14 -47 3 -2 15 31 25 73 10 42 39 145 65 227 l48 150 101 3 101 3 0
-38 c0 -21 7 -150 15 -288 8 -137 15 -271 15 -297 l0 -48 -69 0 -69 0 -6 63
c-3 34 -9 151 -13 260 l-8 199 -38 -129 c-21 -70 -56 -185 -78 -255 l-40 -128
-59 0 -59 0 -11 43 c-7 23 -27 96 -45 162 -19 66 -43 160 -54 208 -10 49 -21
90 -24 93 -2 2 -7 -80 -11 -183 -3 -104 -9 -221 -13 -260 l-6 -73 -69 0 -70 0
6 48 c3 26 13 176 23 335 l17 287 101 0 102 0 51 -182z m6512 122 l0 -60 -130
0 -130 0 0 -80 0 -80 120 0 120 0 0 -60 0 -60 -120 0 -120 0 0 -135 0 -135
-75 0 -75 0 0 335 0 335 205 0 205 0 0 -60z m-5260 -65 l0 -65 55 0 55 0 0
-55 0 -55 -55 0 -55 0 0 -110 c0 -98 2 -112 21 -131 15 -15 30 -20 50 -17 l29
5 0 -58 0 -58 -36 -7 c-47 -9 -118 2 -150 22 -48 32 -58 67 -62 217 l-4 137
-29 0 c-28 0 -29 1 -29 55 0 54 0 55 30 55 29 0 30 2 30 45 l0 44 58 16 c31 9
62 18 67 20 23 8 25 2 25 -60z m-372 -79 c64 -33 101 -100 109 -197 l6 -69
-162 0 c-179 0 -188 -4 -133 -60 35 -35 102 -47 181 -32 31 5 59 7 63 3 4 -3
8 -26 10 -51 l3 -44 -50 -12 c-117 -28 -236 -9 -302 49 -52 46 -73 98 -73 183
0 59 5 81 28 125 30 58 87 105 143 120 45 11 143 3 177 -15z m872 -45 l0 -68
-47 -6 c-37 -4 -54 -12 -75 -36 -28 -31 -28 -32 -28 -171 l0 -140 -75 0 -75 0
0 240 0 240 65 0 65 0 0 -47 0 -48 26 39 c28 40 71 65 117 66 27 0 27 0 27
-69z m425 41 c86 -44 128 -117 128 -223 0 -180 -158 -288 -341 -234 -106 32
-166 117 -165 236 0 115 61 201 163 234 61 20 164 14 215 -13z m1334 -3 c22
-12 49 -39 62 -63 22 -38 24 -55 27 -218 l4 -178 -66 0 c-62 0 -66 1 -72 25
-6 24 -8 24 -23 11 -80 -72 -221 -53 -261 36 -23 51 -25 87 -6 131 27 67 124
117 222 117 50 0 59 9 39 37 -21 30 -79 37 -148 18 -32 -8 -60 -15 -62 -15 -4
0 -25 69 -25 83 0 4 12 12 28 18 89 35 218 34 281 -2z m545 17 c18 -7 43 -26
55 -41 l21 -28 28 26 c85 82 205 72 260 -22 26 -45 27 -51 30 -228 l4 -183
-76 0 -76 0 0 160 c0 157 -1 161 -25 185 -13 14 -33 25 -45 25 -11 0 -32 -11
-45 -25 -24 -24 -25 -28 -25 -185 l0 -160 -74 0 -75 0 -3 166 c-3 162 -4 166
-28 186 -30 24 -77 18 -102 -13 -16 -18 -18 -43 -18 -180 l0 -159 -75 0 -75 0
0 240 0 240 59 0 c61 0 71 -7 71 -50 0 -15 5 -13 31 11 50 46 122 60 183 35z
m892 -5 c80 -37 124 -117 124 -228 0 -85 -23 -144 -75 -192 -70 -64 -149 -77
-228 -37 l-47 23 0 -118 0 -119 -75 0 -75 0 0 340 0 340 65 0 65 0 0 -37 0
-37 29 28 c57 54 145 70 217 37z m579 -9 c86 -44 128 -117 128 -223 0 -180
-158 -288 -341 -234 -106 32 -166 117 -165 236 0 115 61 201 163 234 61 20
164 14 215 -13z m1420 0 c86 -44 128 -117 128 -223 0 -180 -158 -288 -341
-234 -106 32 -166 117 -165 236 0 115 61 201 163 234 61 20 164 14 215 -13z
m525 -41 l0 -68 -47 -6 c-37 -4 -54 -12 -75 -36 -28 -31 -28 -32 -28 -171 l0
-140 -75 0 -75 0 0 240 0 240 65 0 65 0 0 -47 0 -48 26 39 c28 40 71 65 117
66 27 0 27 0 27 -69z m424 55 c18 -7 43 -26 55 -41 l21 -28 28 26 c85 82 205
72 260 -22 26 -45 27 -51 30 -228 l4 -183 -76 0 -76 0 0 160 c0 157 -1 161
-25 185 -13 14 -34 25 -45 25 -11 0 -32 -11 -45 -25 -24 -24 -25 -28 -25 -185
l0 -160 -74 0 -75 0 -3 166 c-3 162 -4 166 -28 186 -30 24 -77 18 -102 -13
-16 -18 -18 -43 -18 -180 l0 -159 -75 0 -75 0 0 240 0 240 59 0 c61 0 71 -7
71 -50 0 -15 5 -13 31 11 50 46 122 60 183 35z m1141 -14 c86 -44 128 -117
128 -223 0 -180 -158 -288 -341 -234 -106 32 -166 117 -165 236 0 115 61 201
163 234 61 20 164 14 215 -13z m-475 -222 l0 -240 -75 0 -75 0 0 240 0 240 75
0 75 0 0 -240z m-2560 20 l0 -50 -130 0 -130 0 0 50 0 50 130 0 130 0 0 -50z"/>
<path d="M4479 22721 c-51 -52 -42 -61 62 -61 l91 0 -6 28 c-16 66 -96 84
-147 33z"/>
<path d="M5777 22720 c-73 -58 -56 -225 27 -254 104 -38 172 146 90 244 -31
36 -78 40 -117 10z"/>
<path d="M7133 22575 c-37 -16 -51 -54 -34 -91 9 -19 18 -24 50 -24 50 0 81
35 81 91 0 37 -1 39 -32 39 -18 -1 -47 -7 -65 -15z"/>
<path d="M8547 22719 c-30 -17 -47 -65 -47 -129 0 -55 3 -65 29 -91 23 -22 39
-29 69 -29 72 0 112 66 99 163 -10 74 -91 121 -150 86z"/>
<path d="M9127 22720 c-73 -58 -56 -225 27 -254 104 -38 172 146 90 244 -31
36 -78 40 -117 10z"/>
<path d="M10547 22720 c-73 -58 -56 -225 27 -254 104 -38 172 146 90 244 -31
36 -78 40 -117 10z"/>
<path d="M12637 22720 c-73 -58 -56 -225 27 -254 104 -38 172 146 90 244 -31
36 -78 40 -117 10z"/>
<path d="M30642 23600 c-259 -68 -442 -305 -442 -570 0 -167 54 -294 175 -415
124 -125 245 -175 422 -175 201 0 381 99 494 273 57 88 80 165 86 287 6 121
-9 195 -60 300 -41 84 -158 204 -244 248 -132 69 -291 88 -431 52z m249 -230
c29 -6 69 -19 89 -29 101 -52 107 -188 9 -245 l-32 -19 35 -18 c148 -76 118
-285 -46 -334 -66 -20 -204 -30 -289 -21 l-67 8 0 328 0 329 53 4 c112 8 197
7 248 -3z"/>
<path d="M30740 23196 l0 -76 44 0 c84 0 126 28 126 83 0 40 -34 61 -106 65
l-64 4 0 -76z"/>
<path d="M30740 22910 l0 -100 45 0 c86 0 145 42 145 103 0 63 -49 97 -140 97
l-50 0 0 -100z"/>
<path d="M1849 23522 c-75 -85 -97 -123 -41 -69 24 23 37 27 85 27 52 0 59 -3
69 -25 8 -18 19 -25 40 -25 15 0 28 3 28 6 0 12 -92 174 -98 174 -4 -1 -41
-40 -83 -88z m76 -2 l16 -30 -46 0 -46 0 21 30 c12 17 25 30 30 30 5 0 16 -13
25 -30z"/>
<path d="M2088 23603 c63 -5 61 2 27 -150 -5 -20 -1 -23 24 -23 24 0 30 5 35
28 3 15 10 53 16 84 l11 57 52 4 c29 2 -9 3 -83 3 -74 0 -111 -1 -82 -3z"/>
<path d="M2356 23598 c-8 -25 -26 -132 -26 -150 0 -12 7 -18 24 -18 20 0 25 6
31 40 l7 40 67 0 c44 0 74 5 89 16 24 17 29 53 10 72 -17 17 -197 17 -202 0z
m152 -24 c5 -32 -24 -54 -69 -54 -41 0 -46 8 -33 58 6 20 12 23 53 20 38 -2
47 -7 49 -24z"/>
<path d="M31700 23060 l0 -350 470 0 470 0 0 350 0 350 -470 0 -470 0 0 -350z
m410 160 l0 -50 -95 0 c-87 0 -95 -2 -95 -19 0 -11 -3 -26 -6 -35 -5 -13 2
-16 43 -16 190 0 241 -231 68 -311 -66 -31 -245 -20 -245 14 0 7 5 28 10 48
l10 36 52 -14 c65 -16 112 -8 138 24 26 33 25 46 -4 80 -21 24 -32 28 -102 33
l-79 5 14 128 14 127 139 0 138 0 0 -50z m440 10 c0 -30 -20 -82 -75 -198 -42
-86 -86 -178 -98 -204 l-22 -48 -62 0 c-35 0 -63 2 -63 5 0 3 43 91 95 195
l95 190 -110 0 -110 0 0 50 0 50 175 0 175 0 0 -40z"/>
<path d="M1850 23314 c-95 -25 -197 -82 -268 -148 l-66 -63 55 -26 c30 -14 66
-34 81 -44 27 -17 28 -17 55 9 152 141 384 158 560 41 158 -105 235 -304 188
-488 -27 -104 -63 -165 -146 -246 l-78 -77 -16 -83 c-8 -45 -14 -83 -12 -85 7
-7 126 49 175 82 71 50 162 150 201 223 69 131 89 306 51 455 -29 116 -73 190
-165 281 -89 90 -182 143 -295 169 -81 20 -247 19 -320 0z"/>
<path d="M33224 23269 c-18 -5 -53 -24 -80 -41 -69 -47 -108 -125 -112 -227
-3 -68 -1 -82 25 -130 97 -186 382 -96 347 109 -14 81 -72 130 -154 130 -22 0
-55 -7 -72 -16 l-31 -16 19 32 c23 40 79 71 140 78 l44 5 0 43 0 44 -47 -1
c-27 0 -62 -5 -79 -10z m33 -254 c24 -17 39 -71 28 -104 -27 -86 -135 -56
-135 38 0 41 6 53 35 69 27 16 47 15 72 -3z"/>
<path d="M33462 23223 l3 -48 108 -3 c59 -1 107 -5 107 -9 0 -3 -43 -88 -95
-189 -52 -100 -95 -185 -95 -188 0 -3 27 -6 60 -6 l60 0 100 206 c74 152 100
217 100 245 l0 39 -176 0 -175 0 3 -47z"/>
<path d="M1228 23044 c-47 -14 -48 -16 -48 -55 0 -34 3 -39 18 -35 146 44 268
31 367 -39 130 -92 154 -106 196 -113 24 -4 72 -4 107 1 35 5 65 7 67 5 3 -2
8 -28 12 -58 7 -49 10 -54 43 -65 27 -9 36 -18 40 -41 5 -24 10 -29 35 -29 27
0 30 -4 33 -33 3 -26 10 -35 39 -47 40 -17 41 -8 -11 -142 -65 -168 -95 -399
-65 -505 9 -36 12 -38 49 -38 l39 0 -10 32 c-14 51 -11 221 7 306 14 69 69
242 105 330 18 43 5 63 -51 76 -45 11 -47 13 -66 85 -3 9 -12 11 -28 7 -21 -5
-25 -2 -28 21 -2 20 -12 32 -35 42 -26 12 -33 21 -38 55 -14 89 -15 90 -125
75 -97 -13 -127 -5 -207 58 -142 110 -306 150 -445 107z"/>
<path d="M1388 22873 c-8 -25 -13 -86 -13 -173 0 -162 19 -229 97 -345 101
-152 263 -251 441 -270 75 -8 66 -18 84 97 l10 58 -36 5 c-134 22 -215 62
-294 146 -101 108 -152 281 -117 399 10 33 8 37 -21 62 -28 23 -106 58 -130
58 -4 0 -13 -17 -21 -37z"/>
<path d="M12190 14720 c0 -2113 -3 -2650 -12 -2650 -7 0 -524 0 -1149 0 -905
0 -1138 -2 -1141 -12 -3 -7 -6 -63 -7 -124 -2 -97 0 -112 15 -118 9 -3 442 -6
962 -6 519 1 947 -2 950 -4 2 -3 -4 -27 -16 -53 -153 -363 -212 -504 -212
-511 0 -5 23 -20 52 -32 43 -18 54 -20 61 -9 5 8 66 148 135 312 l127 299 241
-1 242 -2 6 23 c3 13 6 1208 6 2656 l0 2632 9950 0 9950 0 0 -1180 0 -1180
-8662 -2 -8663 -3 -66 -22 c-137 -47 -231 -132 -281 -253 -23 -55 -23 -59 -26
-627 -3 -633 -3 -637 61 -757 60 -113 155 -184 286 -212 56 -12 1323 -14 8709
-14 l8642 0 0 -1180 0 -1180 -8849 0 c-7070 0 -8850 -3 -8854 -12 -4 -10 -6
-10 -6 0 -1 9 -33 12 -126 12 l-125 0 0 -1220 0 -1220 -32 0 c-18 0 -374 0
-790 0 -417 0 -776 -3 -799 -6 -36 -6 -40 -9 -37 -33 l3 -26 -295 0 -295 0 3
27 c3 25 1 27 -50 33 -29 3 -564 4 -1188 3 l-1135 -3 0 -125 0 -125 30 -2 c17
0 416 -2 887 -2 l858 -1 2 -757 3 -758 872 -2 c480 -2 879 0 888 3 14 6 15 85
15 743 0 405 0 745 0 756 0 20 6 20 655 17 l655 -2 0 1227 0 1228 8980 -3
8980 -2 0 1303 0 1302 81 17 c206 43 332 154 374 329 22 95 22 1093 0 1188
-33 140 -117 256 -223 310 -47 24 -151 51 -199 51 l-33 0 0 1305 0 1305
-10205 0 -10205 0 0 -2650z m6400 -160 l0 -100 37 20 c131 70 258 -52 223
-214 -27 -125 -149 -186 -244 -121 -34 23 -36 23 -36 5 0 -17 -7 -20 -50 -20
l-50 0 0 265 0 265 60 0 60 0 0 -100z m438 72 c43 -56 -37 -123 -90 -75 -44
39 -2 111 57 96 11 -3 26 -12 33 -21z m-1151 -15 c18 -10 40 -29 49 -43 33
-50 12 -144 -36 -159 -17 -5 -13 -12 25 -49 40 -38 45 -47 45 -88 0 -57 -30
-104 -85 -132 -34 -18 -58 -21 -160 -21 l-120 0 -3 252 c-2 233 -1 252 15 257
10 2 68 4 128 2 82 -1 118 -6 142 -19z m-2315 -14 c10 -9 18 -30 18 -47 1 -26
-12 -43 -77 -103 l-78 -72 149 -1 c164 0 186 -7 186 -59 -1 -60 -30 -71 -192
-71 l-132 0 72 -73 c76 -76 89 -109 56 -141 -36 -37 -69 -21 -186 87 -61 56
-133 122 -161 147 l-50 46 163 152 c170 159 192 172 232 135z m1108 -122 c45
-23 76 -69 84 -124 12 -76 10 -77 -125 -77 -76 0 -119 -4 -119 -10 0 -6 12
-22 26 -36 24 -24 30 -26 105 -22 75 3 80 2 85 -19 14 -56 -7 -70 -112 -72
-76 -1 -120 13 -162 52 -67 64 -69 197 -4 271 47 52 158 71 222 37z m370 -36
l0 -55 -34 0 c-25 0 -40 -7 -55 -26 -18 -23 -21 -41 -21 -130 l0 -104 -60 0
-60 0 0 180 0 180 50 0 c47 0 50 -2 50 -25 0 -32 2 -31 38 5 21 20 40 30 61
30 31 0 31 0 31 -55z m275 45 c25 -9 27 -14 20 -48 -4 -20 -8 -38 -8 -39 -1
-1 -21 4 -45 10 -30 8 -48 8 -59 1 -32 -20 -25 -34 32 -59 74 -33 105 -67 105
-115 0 -93 -115 -145 -242 -109 -42 11 -42 10 -28 60 l10 37 38 -14 c49 -17
87 -17 102 1 17 20 5 33 -54 59 -29 13 -62 36 -74 51 -42 54 -17 130 52 161
37 16 114 18 151 4z m981 -9 c136 -62 137 -274 2 -340 -82 -39 -197 -19 -246
44 -49 62 -53 168 -8 236 48 72 164 100 252 60z m1048 -2 c23 -18 27 -18 32
-5 4 12 20 16 55 16 l49 0 0 -152 c0 -247 -19 -310 -104 -349 -46 -21 -139
-25 -200 -8 -38 11 -38 11 -32 52 4 23 9 43 11 46 3 2 22 -1 44 -7 95 -29 161
4 161 80 0 20 -1 20 -27 2 -17 -11 -47 -18 -76 -18 -135 0 -201 183 -110 302
47 62 145 82 197 41z m506 5 c53 -32 64 -66 68 -216 l4 -138 -60 0 -60 0 -4
126 c-3 111 -5 127 -22 140 -26 19 -39 18 -70 -7 -25 -20 -26 -23 -26 -140 l0
-119 -60 0 -60 0 0 180 0 180 49 0 c40 0 51 -4 56 -19 6 -19 7 -19 42 5 42 28
102 32 143 8z m-3694 -109 c18 -60 33 -112 34 -115 1 -3 16 47 34 110 l32 115
63 3 c35 2 61 -1 60 -6 -2 -5 -33 -87 -69 -181 l-65 -172 -60 3 -60 3 -62 165
c-34 91 -62 171 -62 178 -1 10 15 12 61 10 l61 -3 33 -110z m2884 -65 l0 -180
-60 0 -60 0 0 180 0 180 60 0 60 0 0 -180z m1046 135 c7 -22 24 -76 37 -120
l23 -80 30 120 30 120 62 3 c34 2 62 1 62 0 0 -6 -87 -250 -110 -308 -35 -91
-82 -159 -129 -191 -65 -43 -84 -39 -99 17 -7 26 -11 47 -10 48 2 1 20 9 41
19 69 31 69 46 -6 235 -37 92 -67 171 -67 175 0 4 28 7 62 5 l61 -3 13 -40z
m4349 -60 c276 -71 460 -322 442 -605 -10 -152 -65 -270 -176 -380 -366 -363
-989 -109 -994 405 0 50 5 115 12 145 48 205 218 379 422 434 72 19 220 20
294 1z m-1747 -427 c29 -101 55 -202 58 -226 4 -23 10 -44 14 -47 3 -2 15 31
25 73 10 42 39 145 65 227 l48 150 101 3 101 3 0 -38 c0 -21 7 -150 15 -288 8
-137 15 -271 15 -297 l0 -48 -69 0 -69 0 -6 63 c-3 34 -9 151 -13 260 l-8 199
-38 -129 c-21 -70 -56 -185 -78 -255 l-40 -128 -59 0 -59 0 -11 43 c-7 23 -27
96 -45 162 -19 66 -43 160 -54 208 -10 49 -21 90 -24 93 -2 2 -7 -80 -11 -183
-3 -104 -9 -221 -13 -260 l-6 -73 -69 0 -70 0 6 48 c3 26 13 176 23 335 l17
287 101 0 102 0 51 -182z m5432 -623 l0 -265 -60 0 -60 0 0 265 0 265 60 0 60
0 0 -265z m1720 0 l0 -265 -50 0 c-48 0 -50 1 -50 27 l0 27 -21 -23 c-62 -67
-176 -50 -223 33 -77 135 -4 306 131 306 21 0 50 -7 66 -14 l27 -15 0 95 0 94
60 0 60 0 0 -265z m225 243 c-4 -13 -24 -60 -45 -105 -38 -82 -40 -83 -76 -83
-30 0 -35 3 -29 18 4 9 16 54 28 99 21 78 23 82 52 86 73 9 77 9 70 -15z
m1065 -243 l0 -265 -60 0 -60 0 0 265 0 265 60 0 60 0 0 -265z m198 237 c43
-56 -37 -123 -90 -75 -44 39 -2 111 57 96 11 -3 26 -12 33 -21z m1050 -51 c48
-44 123 -112 166 -153 l79 -74 -163 -152 c-171 -160 -191 -171 -230 -132 -38
38 -27 68 58 147 l77 73 -147 0 c-135 0 -150 2 -168 20 -11 11 -20 31 -20 45
0 14 9 34 20 45 18 18 33 20 166 20 l146 0 -76 71 c-58 54 -76 77 -76 97 0 15
4 32 8 38 9 14 43 33 60 34 7 0 52 -36 100 -79z m-4556 49 c82 -23 130 -109
107 -192 -21 -79 -95 -128 -196 -128 l-43 0 0 -90 0 -90 -60 0 -60 0 0 249 c0
229 1 250 18 254 34 9 198 7 234 -3z m2428 -245 l0 -255 -60 0 -60 0 0 255 0
255 60 0 60 0 0 -255z m220 155 l0 -50 46 0 45 0 -3 -42 c-3 -43 -3 -43 -45
-46 l-43 -3 0 -75 c0 -62 3 -77 21 -95 13 -13 29 -19 40 -16 18 5 20 1 17 -41
l-3 -47 -62 0 c-55 0 -66 4 -90 28 -27 26 -28 33 -31 137 -4 109 -4 110 -28
110 -22 0 -24 4 -24 45 0 41 2 45 25 45 22 0 25 4 25 34 0 33 3 36 48 49 26 8
50 15 55 16 4 1 7 -21 7 -49z m-3820 -59 c45 -23 76 -69 84 -124 12 -76 10
-77 -125 -77 -76 0 -119 -4 -119 -10 0 -6 12 -22 26 -36 24 -24 30 -26 105
-22 75 3 80 2 85 -19 14 -56 -7 -70 -112 -72 -76 -1 -120 13 -162 52 -67 64
-69 197 -4 271 47 52 158 71 222 37z m380 -36 l0 -55 -34 0 c-25 0 -40 -7 -55
-26 -18 -23 -21 -41 -21 -130 l0 -104 -60 0 -60 0 0 180 0 180 50 0 c47 0 50
-2 50 -25 0 -32 2 -31 38 5 21 20 40 30 61 30 31 0 31 0 31 -55z m265 45 c25
-9 27 -14 20 -48 -4 -20 -8 -38 -8 -39 -1 -1 -21 4 -45 10 -30 8 -48 8 -59 1
-32 -20 -25 -34 32 -59 74 -33 105 -67 105 -115 0 -93 -115 -145 -242 -109
-42 11 -42 10 -28 60 l10 37 38 -14 c49 -17 87 -17 102 1 17 20 5 33 -54 59
-29 13 -62 36 -74 51 -42 54 -17 130 52 161 37 16 114 18 151 4z m1140 -6 c61
-29 69 -53 75 -212 l5 -142 -52 0 c-40 0 -53 4 -53 15 0 12 -7 11 -40 -6 -59
-31 -124 -22 -163 21 -26 29 -29 38 -24 83 3 41 11 56 35 78 33 30 88 49 140
49 40 0 44 25 6 42 -19 9 -39 9 -82 0 -30 -6 -57 -10 -60 -8 -2 3 -5 19 -5 38
-2 29 2 34 33 45 50 17 146 16 185 -3z m440 5 c3 -3 2 -23 -3 -45 l-8 -38 -50
3 c-62 3 -100 -23 -110 -75 -14 -76 41 -131 121 -120 l43 5 6 -41 c4 -22 5
-43 2 -45 -12 -12 -136 -15 -169 -4 -103 34 -154 147 -112 249 36 85 104 124
207 120 37 -2 69 -6 73 -9z m305 -8 c45 -23 76 -69 84 -124 12 -76 10 -77
-125 -77 -76 0 -119 -4 -119 -10 0 -6 12 -22 26 -36 24 -24 30 -26 105 -22 75
3 80 2 85 -19 14 -56 -7 -70 -112 -72 -76 -1 -120 13 -162 52 -67 64 -69 197
-4 271 47 52 158 71 222 37z m1665 3 c61 -29 69 -53 75 -212 l5 -142 -52 0
c-40 0 -53 4 -53 15 0 12 -7 11 -40 -6 -59 -31 -124 -22 -163 21 -26 29 -29
38 -24 83 3 41 11 56 35 78 33 30 88 49 140 49 40 0 44 25 6 42 -19 9 -39 9
-82 0 -30 -6 -57 -10 -60 -8 -2 3 -5 19 -5 38 -2 29 2 34 33 45 50 17 146 16
185 -3z m825 -3 c45 -23 76 -69 84 -124 12 -76 10 -77 -125 -77 -76 0 -119 -4
-119 -10 0 -6 12 -22 26 -36 24 -24 30 -26 105 -22 75 3 80 2 85 -19 14 -56
-7 -70 -112 -72 -76 -1 -120 13 -162 52 -67 64 -69 197 -4 271 47 52 158 71
222 37z m-5524 -106 c18 -60 33 -112 34 -115 1 -3 16 47 34 110 l32 115 63 3
c35 2 61 -1 60 -6 -2 -5 -33 -87 -69 -181 l-65 -172 -60 3 -60 3 -62 165 c-34
91 -62 171 -62 178 -1 10 15 12 61 10 l61 -3 33 -110z m5194 -65 l0 -180 -60
0 -60 0 0 180 0 180 60 0 60 0 0 -180z m-18845 -5775 c14 -13 25 -36 25 -50 0
-36 -42 -75 -80 -75 -38 0 -80 39 -80 75 0 36 42 75 80 75 19 0 40 -9 55 -25z
m15 -435 l0 -240 -75 0 -75 0 0 240 0 240 75 0 75 0 0 -240z"/>
<path d="M18611 14384 c-32 -40 -29 -117 5 -151 20 -20 31 -24 57 -19 37 7 54
27 63 73 18 97 -71 166 -125 97z"/>
<path d="M17710 14489 l0 -62 43 7 c102 16 101 116 -1 116 l-42 0 0 -61z"/>
<path d="M17710 14281 l0 -71 43 0 c33 0 49 6 65 23 46 49 15 106 -61 114
l-47 6 0 -72z"/>
<path d="M16530 14400 c-33 -33 -24 -40 50 -40 39 0 70 3 70 8 0 4 -7 18 -16
30 -20 29 -76 30 -104 2z"/>
<path d="M18163 14396 c-25 -22 -28 -31 -28 -86 0 -55 3 -64 28 -86 15 -13 34
-24 42 -24 8 0 27 11 42 24 25 22 28 31 28 86 0 55 -3 64 -28 86 -15 13 -34
24 -42 24 -8 0 -27 -11 -42 -24z"/>
<path d="M19262 14403 c-7 -3 -19 -18 -27 -33 -47 -92 38 -197 105 -130 25 25
28 114 4 148 -14 21 -50 28 -82 15z"/>
<path d="M24120 14079 c0 -15 -29 -258 -35 -296 l-6 -31 100 -4 c82 -2 105 -7
128 -24 56 -42 55 -106 0 -148 -34 -25 -129 -27 -193 -3 l-40 15 -13 -61 c-14
-67 -13 -69 49 -87 54 -15 190 -12 242 6 107 36 164 122 156 237 -7 114 -79
176 -214 185 l-70 4 5 42 6 41 128 3 127 3 0 64 0 65 -185 0 c-127 0 -185 -3
-185 -11z"/>
<path d="M29611 13331 c-44 -44 -34 -153 16 -172 36 -13 51 -11 73 11 16 16
20 33 20 84 0 56 -3 67 -22 80 -30 22 -64 20 -87 -3z"/>
<path d="M27690 13414 l0 -77 47 6 c79 9 109 72 58 122 -18 18 -35 25 -65 25
l-40 0 0 -76z"/>
<path d="M26510 13340 c-33 -33 -24 -40 50 -40 39 0 70 3 70 8 0 4 -7 18 -16
30 -20 29 -76 30 -104 2z"/>
<path d="M28333 13230 c-19 -8 -43 -38 -43 -54 0 -12 33 -36 51 -36 29 0 59
36 59 70 0 25 -4 30 -22 29 -13 0 -33 -4 -45 -9z"/>
<path d="M29040 13340 c-33 -33 -24 -40 50 -40 39 0 70 3 70 8 0 4 -7 18 -16
30 -20 29 -76 30 -104 2z"/>
<path d="M30743 13230 c-19 -8 -43 -38 -43 -54 0 -12 33 -36 51 -36 29 0 59
36 59 70 0 25 -4 30 -22 29 -13 0 -33 -4 -45 -9z"/>
<path d="M31530 13340 c-33 -33 -24 -40 50 -40 39 0 70 3 70 8 0 4 -7 18 -16
30 -20 29 -76 30 -104 2z"/>
<path d="M14646 16444 c-8 -21 -7 -1019 0 -1039 5 -12 34 -15 170 -15 l164 0
0 535 0 535 -164 0 c-142 0 -165 -2 -170 -16z"/>
<path d="M15120 15925 l0 -435 125 0 125 0 0 435 0 435 -125 0 -125 0 0 -435z"/>
<path d="M15545 16257 c-3 -6 -4 -161 -3 -342 l3 -330 83 -2 82 -2 0 345 0
344 -80 0 c-56 0 -82 -4 -85 -13z"/>
<path d="M14640 11710 l0 -530 23 -5 c12 -2 87 -4 167 -2 l145 2 3 533 2 532
-170 0 -170 0 0 -530z"/>
<path d="M15120 11705 l0 -435 125 0 125 0 0 435 0 435 -125 0 -125 0 0 -435z"/>
<path d="M15540 11710 l0 -340 85 0 85 0 0 340 0 340 -85 0 -85 0 0 -340z"/>
<path d="M11870 10770 c0 -289 -3 -370 -12 -371 -7 0 -39 -1 -70 -1 l-58 0 0
-64 0 -64 750 0 750 0 0 -427 c0 -409 1 -430 21 -473 11 -25 34 -60 52 -78 55
-57 92 -62 452 -62 358 0 396 5 462 63 74 65 73 55 73 587 l0 475 -24 50 c-26
58 -68 97 -123 117 -56 19 -688 19 -757 -1 -46 -14 -127 -77 -137 -108 -2 -6
-13 -12 -24 -13 -11 -1 -293 -2 -627 -1 l-608 1 0 370 0 370 -60 0 -60 0 0
-370z m2044 -523 c154 -166 166 -187 126 -227 -36 -36 -60 -26 -142 62 l-78
81 0 -358 c0 -319 -2 -360 -17 -377 -20 -22 -61 -23 -85 -1 -17 15 -18 40 -18
376 l0 360 -77 -81 c-83 -88 -107 -98 -143 -62 -40 40 -28 60 128 230 81 88
150 159 154 157 4 -1 72 -73 152 -160z m-266 -499 c16 -16 15 -33 -4 -52 -13
-13 -43 -16 -173 -16 -109 0 -161 4 -169 12 -13 13 -16 50 -5 61 12 13 338 8
351 -5z m580 -16 c7 -48 -8 -52 -179 -52 -130 0 -160 3 -173 16 -9 8 -16 21
-16 28 0 32 23 36 195 34 169 -3 170 -3 173 -26z"/>
<path d="M3920 10378 c0 -134 -3 -253 -6 -265 -6 -22 -3 -23 45 -23 48 0 51 1
51 26 l0 27 26 -26 c66 -66 193 -35 234 56 28 61 27 160 -3 211 -43 75 -140
97 -208 47 l-29 -22 0 106 0 105 -55 0 -55 0 0 -242z m236 -29 c14 -16 19 -36
19 -81 0 -51 -4 -63 -24 -79 -31 -25 -69 -24 -98 3 -32 30 -33 123 -3 156 27
29 80 29 106 1z"/>
<path d="M5240 10355 l0 -265 55 0 55 0 0 265 0 265 -55 0 -55 0 0 -265z"/>
<path d="M7150 10525 c0 -52 -2 -95 -5 -95 -4 0 -20 7 -37 16 -67 35 -160 -1
-198 -76 -22 -44 -27 -140 -9 -187 36 -97 153 -131 229 -67 l30 26 0 -26 c0
-25 3 -26 50 -26 l50 0 0 265 0 265 -55 0 -55 0 0 -95z m-25 -175 c22 -24 30
-96 16 -133 -6 -15 -22 -32 -35 -38 -61 -28 -112 27 -103 108 6 55 30 83 72
83 19 0 39 -8 50 -20z"/>
<path d="M3034 10576 c-82 -37 -118 -119 -112 -259 2 -72 8 -103 27 -140 66
-134 249 -126 305 13 23 57 31 165 17 232 -13 62 -41 110 -83 141 -34 25 -113
32 -154 13z m99 -94 c36 -40 44 -180 16 -270 -11 -35 -50 -53 -77 -35 -51 31
-57 250 -9 311 14 18 51 15 70 -6z"/>
<path d="M3527 10579 c-56 -13 -89 -33 -130 -78 -68 -76 -92 -183 -64 -282 61
-207 356 -173 357 42 0 42 -6 65 -23 90 -41 62 -128 87 -191 54 -16 -9 -30
-14 -32 -12 -2 2 6 18 17 36 23 38 88 70 142 71 l37 0 0 45 0 45 -37 -1 c-21
-1 -55 -5 -76 -10z m32 -265 c34 -43 23 -121 -19 -144 -51 -27 -120 51 -104
116 14 56 88 72 123 28z"/>
<path d="M2601 10550 l-63 -30 7 -37 c4 -21 9 -40 11 -42 2 -3 25 5 49 17 l45
22 0 -195 0 -195 55 0 55 0 0 245 0 245 -47 0 c-31 -1 -70 -11 -112 -30z"/>
<path d="M8613 10569 c-40 -8 -59 -23 -81 -63 -15 -28 -17 -84 -17 -576 0
-509 1 -547 18 -582 29 -58 64 -75 143 -69 12 0 73 38 135 84 115 84 474 349
562 415 87 66 112 172 56 242 -38 47 -708 537 -749 547 -19 5 -50 6 -67 2z
m242 -324 c94 -69 227 -167 297 -218 70 -50 126 -96 124 -102 -2 -9 -537 -412
-578 -436 -17 -9 -18 14 -18 436 0 245 1 445 3 445 1 0 79 -56 172 -125z"/>
<path d="M4444 10436 c-66 -34 -97 -87 -98 -165 -1 -109 60 -177 168 -188 47
-5 64 -2 109 20 71 35 101 86 101 172 0 108 -62 173 -172 182 -47 4 -65 0
-108 -21z m135 -75 c11 -11 23 -36 27 -55 20 -110 -54 -187 -117 -120 -20 21
-24 36 -24 86 0 53 3 62 28 84 34 29 60 31 86 5z"/>
<path d="M5543 10449 c-66 -19 -123 -102 -123 -179 0 -124 95 -200 235 -187
90 9 98 13 91 55 -3 19 -7 36 -8 38 -2 1 -24 -2 -50 -7 -57 -13 -121 2 -143
34 -8 12 -15 25 -15 29 0 5 54 8 120 8 l120 0 0 50 c0 126 -99 196 -227 159z
m110 -87 c35 -31 21 -42 -53 -42 -38 0 -70 3 -70 6 0 16 24 46 43 54 26 10 55
4 80 -18z"/>
<path d="M6275 10447 c-37 -12 -40 -15 -37 -47 3 -43 5 -44 43 -31 49 17 103
14 122 -7 10 -10 17 -21 17 -24 0 -3 -24 -8 -54 -11 -132 -13 -198 -96 -151
-187 30 -59 105 -76 175 -40 34 17 40 18 40 5 0 -11 12 -15 50 -15 l50 0 0
128 c0 140 -11 178 -63 216 -34 25 -134 31 -192 13z m145 -221 c0 -57 -76 -91
-100 -46 -22 41 12 78 73 79 24 1 27 -2 27 -33z"/>
<path d="M6785 10449 c-11 -6 -30 -23 -42 -38 l-23 -26 0 33 c0 32 0 32 -51
32 -48 0 -51 -1 -45 -22 3 -13 6 -94 6 -180 l0 -158 55 0 55 0 0 110 c0 127
12 150 75 150 l35 0 0 55 c0 50 -2 55 -22 55 -13 0 -32 -5 -43 -11z"/>
<path d="M9886 10444 c-3 -8 -5 -248 -3 -532 l2 -517 168 -3 167 -2 0 535 0
535 -164 0 c-139 0 -165 -2 -170 -16z"/>
<path d="M4800 10314 c0 -156 11 -193 65 -218 56 -27 114 -18 154 25 l21 23 0
-27 c0 -26 2 -27 50 -27 l50 0 0 180 0 180 -55 0 -55 0 0 -115 c0 -110 -1
-117 -25 -140 -29 -30 -49 -31 -75 -5 -18 18 -20 33 -20 140 l0 120 -55 0 -55
0 0 -136z"/>
<path d="M5800 10443 c0 -5 29 -84 64 -178 l64 -170 59 0 58 0 66 175 66 175
-54 3 c-31 2 -58 1 -61 -3 -3 -3 -20 -58 -37 -122 -32 -117 -36 -123 -49 -68
-4 17 -19 67 -32 113 l-25 82 -60 0 c-32 0 -59 -3 -59 -7z"/>
<path d="M10360 9925 l0 -435 125 0 125 0 0 435 0 435 -125 0 -125 0 0 -435z"/>
<path d="M10787 10264 c-4 -4 -7 -157 -7 -340 0 -382 -11 -347 105 -343 l65 2
-2 341 -3 341 -75 3 c-41 2 -79 0 -83 -4z"/>
<path d="M7945 10162 c-44 -20 -82 -39 -84 -42 -6 -8 9 -99 18 -104 4 -3 31 6
60 20 29 13 55 24 57 24 2 0 4 -115 4 -255 l0 -255 75 0 75 0 0 325 0 325 -62
0 c-52 0 -78 -7 -143 -38z"/>
<path d="M3240 9625 c0 -52 -2 -95 -5 -95 -4 0 -20 7 -37 16 -67 35 -160 -1
-198 -76 -22 -44 -27 -140 -9 -187 36 -97 153 -131 229 -67 l30 26 0 -26 c0
-25 3 -26 50 -26 l50 0 0 265 0 265 -55 0 -55 0 0 -95z m-25 -175 c22 -24 30
-96 16 -133 -6 -15 -22 -32 -35 -38 -61 -28 -112 27 -103 108 6 55 30 83 72
83 19 0 39 -8 50 -20z"/>
<path d="M3990 9455 l0 -265 55 0 55 0 0 265 0 265 -55 0 -55 0 0 -265z"/>
<path d="M6670 9455 l0 -265 55 0 55 0 0 265 0 265 -55 0 -55 0 0 -265z"/>
<path d="M4220 9692 c0 -10 -11 -55 -24 -100 l-24 -82 35 0 c33 0 35 2 72 83
58 127 59 117 -4 117 -46 0 -55 -3 -55 -18z"/>
<path d="M4996 9655 l-36 -55 40 0 c22 0 40 3 40 8 0 4 9 18 19 31 l18 24 19
-32 c15 -26 24 -31 56 -31 l38 0 -36 55 c-35 52 -39 55 -79 55 -40 0 -44 -3
-79 -55z"/>
<path d="M5796 9694 c-9 -8 -16 -24 -16 -35 0 -25 35 -59 60 -59 25 0 60 34
60 59 0 28 -27 51 -60 51 -16 0 -36 -7 -44 -16z"/>
<path d="M4400 9445 l0 -255 55 0 55 0 0 105 0 105 95 0 95 0 0 -105 0 -105
55 0 55 0 0 255 0 255 -55 0 -55 0 0 -100 0 -100 -95 0 -95 0 0 100 0 100 -55
0 -55 0 0 -255z"/>
<path d="M6063 9632 c-51 -14 -53 -16 -53 -48 0 -30 -3 -34 -25 -34 -22 0 -25
-4 -25 -40 0 -36 3 -40 25 -40 25 0 25 0 25 -95 0 -60 5 -108 14 -130 17 -39
60 -65 110 -65 56 0 66 8 66 51 0 35 -3 39 -24 39 -46 0 -57 24 -54 114 l3 81
38 3 c36 3 37 4 37 43 0 39 0 39 -39 39 l-40 0 -3 48 -3 49 -52 -15z"/>
<path d="M3533 9549 c-66 -19 -123 -102 -123 -179 0 -124 95 -200 235 -187 90
9 98 13 91 55 -3 19 -7 36 -8 38 -2 1 -24 -2 -50 -7 -57 -13 -121 2 -143 34
-8 12 -15 25 -15 29 0 5 54 8 120 8 l120 0 0 50 c0 126 -99 196 -227 159z
m110 -87 c35 -31 21 -42 -53 -42 -38 0 -70 3 -70 6 0 16 24 46 43 54 26 10 55
4 80 -18z"/>
<path d="M4984 9536 c-66 -34 -97 -87 -98 -165 -1 -109 60 -177 168 -188 47
-5 64 -2 109 20 71 35 101 86 101 172 0 108 -62 173 -172 182 -47 4 -65 0
-108 -21z m135 -75 c11 -11 23 -36 27 -55 20 -110 -54 -187 -117 -120 -20 21
-24 36 -24 86 0 53 3 62 28 84 34 29 60 31 86 5z"/>
<path d="M5494 9546 c-18 -8 -35 -19 -38 -25 -11 -18 -26 -13 -26 9 0 17 -7
20 -51 20 l-51 0 6 -31 c3 -17 6 -132 6 -255 l0 -224 55 0 55 0 0 92 c0 90 0
91 20 73 11 -10 40 -20 67 -22 61 -5 118 26 151 82 19 34 22 51 20 117 -2 59
-8 83 -24 105 -50 67 -121 89 -190 59z m76 -96 c37 -37 39 -122 4 -161 -23
-25 -78 -25 -104 1 -28 28 -28 117 1 154 25 32 70 35 99 6z"/>
<path d="M6315 9547 c-37 -12 -40 -15 -37 -47 3 -43 5 -44 43 -31 49 17 103
14 122 -7 10 -10 17 -21 17 -24 0 -3 -24 -8 -54 -11 -132 -13 -198 -96 -151
-187 30 -59 105 -76 175 -40 34 17 40 18 40 5 0 -11 12 -15 50 -15 l50 0 0
128 c0 140 -11 178 -63 216 -34 25 -134 31 -192 13z m145 -221 c0 -57 -76 -91
-100 -46 -22 41 12 78 73 79 24 1 27 -2 27 -33z"/>
<path d="M5790 9370 l0 -180 55 0 55 0 0 180 0 180 -55 0 -55 0 0 -180z"/>
</g>
</svg>
