<?xml version="1.0" encoding="UTF-8" standalone="no"?>
<!-- Created with Inkscape (http://www.inkscape.org/) -->

<svg xmlns:dc="http://purl.org/dc/elements/1.1/" xmlns:cc="http://creativecommons.org/ns#" xmlns:rdf="http://www.w3.org/1999/02/22-rdf-syntax-ns#" xmlns:svg="http://www.w3.org/2000/svg" xmlns="http://www.w3.org/2000/svg" xmlns:inkscape="http://www.inkscape.org/namespaces/inkscape" version="1.2" width="1052.3622" height="744.09448" id="svg2">
  <defs id="defs4">
    <marker refX="0" refY="0" orient="auto" id="Arrow2Lend" style="overflow:visible">
      <path d="M 8.7185878,4.0337352 -2.2072895,0.01601326 8.7185884,-4.0017078 c -1.7454984,2.3720609 -1.7354408,5.6174519 -6e-7,8.035443 z" inkscape:connector-curvature="0" transform="matrix(-1.1,0,0,-1.1,-1.1,0)" id="path8297" style="fill-rule:evenodd;stroke-width:0.625;stroke-linejoin:round" />
    </marker>
    <clipPath id="clipPath1-4">
      <path d="m 1e-4,-42.517 85.039,0 0,85.039 -85.039,0 z" inkscape:connector-curvature="0" id="path4314-8" />
    </clipPath>
    <defs id="defs1">
      <clipPath id="clipPath1">
        <path d="m 1e-4,-42.517 85.039,0 0,85.039 -85.039,0 z" inkscape:connector-curvature="0" id="path4314" />
      </clipPath>
    </defs>
    <clipPath id="clipPath1-2">
      <path d="m 1e-4,-42.517 85.039,0 0,85.039 -85.039,0 z" inkscape:connector-curvature="0" id="path4314-2" />
    </clipPath>
  </defs>
  <metadata id="metadata7">
    <rdf:RDF>
      <cc:Work rdf:about="">
        <dc:format>image/svg+xml</dc:format>
        <dc:type rdf:resource="http://purl.org/dc/dcmitype/StillImage" />
        <dc:title />
        <dc:creator>
          <cc:Agent>
            <dc:title>Darnuria aliasAxel Viala</dc:title>
          </cc:Agent>
        </dc:creator>
        <cc:license rdf:resource="http://creativecommons.org/licenses/by-nc-sa/3.0/" />
      </cc:Work>
      <cc:License rdf:about="http://creativecommons.org/licenses/by-nc-sa/3.0/">
        <cc:permits rdf:resource="http://creativecommons.org/ns#Reproduction" />
        <cc:permits rdf:resource="http://creativecommons.org/ns#Distribution" />
        <cc:requires rdf:resource="http://creativecommons.org/ns#Notice" />
        <cc:requires rdf:resource="http://creativecommons.org/ns#Attribution" />
        <cc:prohibits rdf:resource="http://creativecommons.org/ns#CommercialUse" />
        <cc:permits rdf:resource="http://creativecommons.org/ns#DerivativeWorks" />
        <cc:requires rdf:resource="http://creativecommons.org/ns#ShareAlike" />
      </cc:License>
    </rdf:RDF>
  </metadata>
  <path d="m 40,302.09472 414,0 0,-258.000207 0,0 0,0" inkscape:connector-curvature="0" id="path4224" style="fill:none;stroke:#000000;stroke-width:8.98712444;stroke-linecap:butt;stroke-linejoin:miter;stroke-miterlimit:4;stroke-opacity:1;stroke-dasharray:none" />
  <path d="m 1020,450.09472 -398,0 0,233.9998 0,0 0,0" inkscape:connector-curvature="0" id="path4224-7" style="fill:none;stroke:#000000;stroke-width:8.39189053;stroke-linecap:butt;stroke-linejoin:miter;stroke-miterlimit:4;stroke-opacity:1;stroke-dasharray:none" />
  <path d="m 40,446.09472 414,0 0,237.9998 0,0 0,0" inkscape:connector-curvature="0" id="path4224-9" style="fill:none;stroke:#000000;stroke-width:8.63175297;stroke-linecap:butt;stroke-linejoin:miter;stroke-miterlimit:4;stroke-opacity:1;stroke-dasharray:none" />
  <path d="m 1020,302.09472 -400,0 0,-258.000207 0,0 0,0" inkscape:connector-curvature="0" id="path4224-3" style="fill:none;stroke:#000000;stroke-width:8.83386135;stroke-linecap:butt;stroke-linejoin:miter;stroke-miterlimit:4;stroke-opacity:1;stroke-dasharray:none" />
  <g transform="translate(0,1.2188976e-5)" id="g4991">
    <rect width="109" height="50" x="335" y="242.0947" id="rect5854" style="fill:#b3b3b3;fill-opacity:1;fill-rule:nonzero;stroke:none" />
    <text x="329.47513" y="285.64166" transform="scale(1.0198039,0.98058068)" id="text5856" xml:space="preserve" style="font-size:40.79215622px;font-style:normal;font-weight:normal;line-height:125%;letter-spacing:0px;word-spacing:0px;fill:#000000;fill-opacity:1;stroke:none;font-family:Sans"><tspan x="329.47513" y="285.64166" id="tspan5858">Fleur</tspan></text>
  </g>
  <text x="628.21771" y="63.786018" id="text6906" xml:space="preserve" style="font-size:40px;font-style:normal;font-weight:normal;line-height:125%;letter-spacing:0px;word-spacing:0px;fill:#000000;fill-opacity:1;stroke:none;font-family:Sans"><tspan x="628.21771" y="63.786018" id="tspan6908" /></text>
  <text x="569.87579" y="323.19922" id="text6910" xml:space="preserve" style="font-size:40px;font-style:normal;font-weight:normal;line-height:125%;letter-spacing:0px;word-spacing:0px;fill:#000000;fill-opacity:1;stroke:none;font-family:Sans"><tspan x="569.87579" y="323.19922" id="tspan6912" /></text>
  <g transform="translate(0,1.2188976e-5)" id="g5012">
    <rect width="100" height="50" x="638" y="466.0947" id="rect5854-1" style="fill:#b3b3b3;fill-opacity:1;fill-rule:nonzero;stroke:none" />
    <text x="654" y="504.0947" id="text5856-4" xml:space="preserve" style="font-size:40px;font-style:normal;font-weight:normal;line-height:125%;letter-spacing:0px;word-spacing:0px;fill:#000000;fill-opacity:1;stroke:none;font-family:Sans"><tspan x="654" y="504.0947" id="tspan5858-6">Bar</tspan></text>
  </g>
  <g transform="translate(0,1.2188976e-5)" id="g4996">
    <rect width="100" height="50" x="684" y="180.0947" id="rect5854-3" style="fill:#b3b3b3;fill-opacity:1;fill-rule:nonzero;stroke:none" />
    <text x="692" y="218.0947" id="text5856-3" xml:space="preserve" style="font-size:40px;font-style:normal;font-weight:normal;line-height:125%;letter-spacing:0px;word-spacing:0px;fill:#000000;fill-opacity:1;stroke:none;font-family:Sans"><tspan x="692" y="218.0947" id="tspan5858-5">Pain</tspan><tspan x="692" y="268.0947" id="tspan6968" /></text>
  </g>
  <rect width="46.380772" height="25.999994" x="203.66307" y="258.66675" id="rect4372" style="font-size:12px;font-style:normal;font-weight:normal;fill:#eeb5c4;fill-opacity:1;fill-rule:nonzero;stroke:none;font-family:Dialog" />
  <text x="219.24072" y="272.55151" transform="scale(0.96554855,1.0356807)" id="text5827" xml:space="preserve" style="font-size:26.08815575px;font-style:normal;font-weight:normal;line-height:125%;letter-spacing:0px;word-spacing:0px;fill:#000000;fill-opacity:1;stroke:none;font-family:Sans"><tspan x="219.24072" y="272.55151" id="tspan5829">47</tspan></text>
  <path d="m 278.04385,252.66682 c -80,0 -80,0 -80,0 l 0,40 0,0 0,0" inkscape:connector-curvature="0" id="path4294-2" style="fill:none;stroke:#000000;stroke-width:3.99999976;stroke-linecap:butt;stroke-linejoin:miter;stroke-miterlimit:4;stroke-opacity:1;stroke-dasharray:none" />
  <rect width="50.739384" height="29.673208" x="140.7606" y="257.09473" id="rect7098-0" style="fill:none;stroke:#000093;stroke-width:1.7225914;stroke-linecap:round;stroke-linejoin:round;stroke-miterlimit:4;stroke-opacity:1;stroke-dasharray:none" />
  <text x="158.91449" y="255.55505" transform="scale(0.91252341,1.0958623)" id="text7294-1" xml:space="preserve" style="font-size:22px;font-style:normal;font-weight:bold;line-height:125%;letter-spacing:0px;word-spacing:0px;fill:#000093;fill-opacity:1;stroke:#000093;stroke-width:0.63464338;stroke-linecap:round;stroke-linejoin:round;stroke-opacity:1;font-family:Sans;-inkscape-font-specification:Sans Bold"><tspan x="158.91449" y="255.55505" id="tspan7296-8" style="font-size:22px;font-weight:normal;letter-spacing:0px;stroke-width:0.63464338;-inkscape-font-specification:Sans">BUS</tspan></text>
  <g transform="translate(0,1.2188976e-5)" id="g5027">
    <rect width="46.380772" height="25.999994" x="842.16309" y="469.66678" id="rect4372-6" style="font-size:12px;font-style:normal;font-weight:normal;fill:#eeb5c4;fill-opacity:1;fill-rule:nonzero;stroke:none;font-family:Dialog" />
    <text x="880.52289" y="476.28238" transform="scale(0.96554853,1.0356807)" id="text5827-3" xml:space="preserve" style="font-size:26.08815575px;font-style:normal;font-weight:normal;line-height:125%;letter-spacing:0px;word-spacing:0px;fill:#000000;fill-opacity:1;stroke:none;font-family:Sans"><tspan x="880.52289" y="476.28238" id="tspan5829-0">47</tspan></text>
  </g>
  <path d="m 814.54386,463.66682 c 80,0 80,0 80,0 l 0,40 0,0 0,0" inkscape:connector-curvature="0" id="path4294-2-5" style="fill:none;stroke:#000000;stroke-width:3.99999976;stroke-linecap:butt;stroke-linejoin:miter;stroke-miterlimit:4;stroke-opacity:1;stroke-dasharray:none" />
  <g transform="translate(0,1.2188976e-5)" id="g5021">
    <rect width="50.739384" height="29.673208" x="899.26062" y="464.0947" id="rect7098-0-54" style="fill:none;stroke:#000093;stroke-width:1.7225914;stroke-linecap:round;stroke-linejoin:round;stroke-miterlimit:4;stroke-opacity:1;stroke-dasharray:none" />
    <g id="g5017">
      <text x="990.12604" y="444.44733" transform="scale(0.91252341,1.0958623)" id="text7294-1-4" xml:space="preserve" style="font-size:22px;font-style:normal;font-weight:bold;line-height:125%;letter-spacing:0px;word-spacing:0px;fill:#000093;fill-opacity:1;stroke:#000093;stroke-width:0.63464338;stroke-linecap:round;stroke-linejoin:round;stroke-opacity:1;font-family:Sans;-inkscape-font-specification:Sans Bold"><tspan x="990.12604" y="444.44733" id="tspan7296-8-7" style="font-size:22px;font-weight:normal;letter-spacing:0px;stroke-width:0.63464338;-inkscape-font-specification:Sans">BUS</tspan></text>
    </g>
  </g>
  <flowRoot transform="translate(0,-308.26748)" id="flowRoot8122" xml:space="preserve" style="font-size:40px;font-style:normal;font-weight:normal;line-height:125%;letter-spacing:0px;word-spacing:0px;fill:#000000;fill-opacity:1;stroke:none;font-family:Sans"><flowRegion id="flowRegion8124"><rect width="159.38264" height="40.0345" x="507.60727" y="541.73346" id="rect8126" /></flowRegion><flowPara id="flowPara8128">Ryrue</flowPara></flowRoot>  <text x="343.8638" y="320.88879" transform="scale(0.95349073,1.0487779)" id="text8130-7" xml:space="preserve" style="font-size:22px;font-style:normal;font-weight:bold;line-height:125%;letter-spacing:0px;word-spacing:0px;fill:#000000;fill-opacity:1;stroke:none;font-family:Sans;-inkscape-font-specification:Sans Bold"><tspan x="343.8638" y="320.88879" id="tspan8132-0" style="font-size:22px;fill:#000000;fill-opacity:1;stroke:none">rue Monge</tspan></text>
  <flowRoot transform="translate(0,-308.26748)" id="flowRoot8155" xml:space="preserve" style="font-size:40px;font-style:normal;font-weight:normal;line-height:125%;letter-spacing:0px;word-spacing:0px;fill:#000000;fill-opacity:1;stroke:none;font-family:Sans"><flowRegion id="flowRegion8157"><rect width="119.34814" height="118.59277" x="398.83429" y="598.38605" id="rect8159" /></flowRegion><flowPara id="flowPara8161" /></flowRoot>  <text x="480" y="246.09473" id="text8173" xml:space="preserve" style="font-size:25px;font-style:normal;font-weight:bold;line-height:125%;letter-spacing:0px;word-spacing:0px;fill:#000000;fill-opacity:1;stroke:none;font-family:Sans;-inkscape-font-specification:Sans Bold"><tspan x="480" y="246.09473" id="tspan8175" style="font-size:22px;font-weight:bold;fill:#000000;fill-opacity:1;stroke:none;-inkscape-font-specification:Sans Bold">rue</tspan><tspan x="480" y="273.59473" id="tspan8177" style="font-size:22px;font-weight:bold;fill:#000000;fill-opacity:1;stroke:none;-inkscape-font-specification:Sans Bold">Cardinal</tspan><tspan x="480" y="301.09473" id="tspan8179" style="font-size:22px;font-weight:bold;fill:#000000;fill-opacity:1;stroke:none;-inkscape-font-specification:Sans Bold">Lemoine</tspan></text>
  <text x="484" y="466.09473" id="text8173-8" xml:space="preserve" style="font-size:25px;font-style:normal;font-weight:bold;line-height:125%;letter-spacing:0px;word-spacing:0px;fill:#000000;fill-opacity:1;stroke:none;font-family:Sans;-inkscape-font-specification:Sans Bold"><tspan x="484" y="466.09473" id="tspan8175-8" style="font-size:22px;font-weight:bold;-inkscape-font-specification:Sans Bold">rue</tspan><tspan x="484" y="493.59473" id="tspan8177-3" style="font-size:22px;font-weight:bold;-inkscape-font-specification:Sans Bold">Cardinal</tspan><tspan x="484" y="521.09473" id="tspan8179-3" style="font-size:22px;font-weight:bold;-inkscape-font-specification:Sans Bold">Lemoine</tspan></text>
  <text x="645.91254" y="414.33093" transform="scale(0.95349073,1.0487779)" id="text8130-7-4" xml:space="preserve" style="font-size:41.95111465px;font-style:normal;font-weight:bold;line-height:125%;letter-spacing:0px;word-spacing:0px;fill:#000000;fill-opacity:1;stroke:none;font-family:Sans;-inkscape-font-specification:Sans Bold"><tspan x="645.91254" y="414.33093" id="tspan8132-0-9" style="font-size:25px">rue <tspan id="tspan10279" style="font-size:22px">Monge</tspan></tspan></text>
  <text x="135.13342" y="385.99805" id="text8229" xml:space="preserve" style="font-size:20px;font-style:normal;font-weight:bold;line-height:125%;letter-spacing:0px;word-spacing:0px;fill:#000000;fill-opacity:1;stroke:none;font-family:Sans;-inkscape-font-specification:Sans Bold"><tspan x="135.13342" y="385.99805" id="tspan8231">vers les gobelins</tspan></text>
  <rect width="280" height="60" x="20" y="19.094488" id="rect8237" style="fill:#000000;fill-opacity:1;fill-rule:nonzero;stroke:none" />
  <text x="33.930965" y="48.331123" transform="scale(0.82520507,1.21182)" id="text8247" xml:space="preserve" style="font-size:19.16750145px;font-style:normal;font-weight:bold;line-height:125%;letter-spacing:0px;word-spacing:0px;fill:#ffffff;fill-opacity:1;stroke:none;font-family:Sans;-inkscape-font-specification:Sans Bold"><tspan x="33.930965" y="48.331123" id="tspan8249">Quartier Cardinal Lemoine 5<tspan id="tspan8251" style="font-size:19.16750145px;font-weight:bold;baseline-shift:super;fill:#ffffff;fill-opacity:1;stroke:none;-inkscape-font-specification:Sans Bold">e</tspan></tspan></text>
  <g transform="matrix(1,0,0,1.0947888,0,-65.792292)" id="g5092">
    <rect width="339.99997" height="44.956364" x="360" y="694.09442" id="rect8259" style="fill:#808080;fill-opacity:1;fill-rule:nonzero;stroke:none" />
    <text x="395.68112" y="845.40735" transform="scale(1.1595306,0.86241797)" id="text8261" xml:space="preserve" style="font-size:43.44031143px;font-style:normal;font-weight:normal;line-height:125%;letter-spacing:0px;word-spacing:0px;fill:#000000;fill-opacity:1;stroke:none;font-family:Sans"><tspan x="395.68112" y="845.40735" id="tspan8263">Seine</tspan></text>
  </g>
  <path d="m 126,378.50662 -89.714596,0" inkscape:connector-curvature="0" id="path8270" style="opacity:0.9;fill:none;stroke:#000000;stroke-width:3;stroke-linecap:round;stroke-linejoin:round;stroke-miterlimit:4;stroke-opacity:1;stroke-dasharray:12, 12;stroke-dashoffset:0;marker-start:none;marker-mid:none;marker-end:url(#Arrow2Lend)" />
  <path d="m 540,153.80912 0,-89.714607" inkscape:connector-curvature="0" id="path8270-6" style="opacity:0.9;fill:none;stroke:#000000;stroke-width:3;stroke-linecap:round;stroke-linejoin:round;stroke-miterlimit:4;stroke-opacity:1;stroke-dasharray:12, 12;stroke-dashoffset:0;marker-start:none;marker-mid:none;marker-end:url(#Arrow2Lend)" />
  <path d="m 930.2854,374.09452 89.7146,0" inkscape:connector-curvature="0" id="path8270-67" style="opacity:0.9;fill:none;stroke:#000000;stroke-width:3;stroke-linecap:round;stroke-linejoin:round;stroke-miterlimit:4;stroke-opacity:1;stroke-dasharray:12, 12;stroke-dashoffset:0;marker-start:none;marker-mid:none;marker-end:url(#Arrow2Lend)" />
  <path d="m 540,550.37992 0,89.7146" inkscape:connector-curvature="0" id="path8270-7" style="opacity:0.9;fill:none;stroke:#000000;stroke-width:3;stroke-linecap:round;stroke-linejoin:round;stroke-miterlimit:4;stroke-opacity:1;stroke-dasharray:12, 12;stroke-dashoffset:0;marker-start:none;marker-mid:none;marker-end:url(#Arrow2Lend)" />
  <text x="460" y="24.094488" id="text10273" xml:space="preserve" style="font-size:20px;font-style:normal;font-weight:bold;line-height:125%;letter-spacing:0px;word-spacing:0px;fill:#000000;fill-opacity:1;stroke:none;font-family:Sans;-inkscape-font-specification:Sans Bold"><tspan x="460" y="24.094488" id="tspan10275">Vers le Panthéon</tspan><tspan x="460" y="49.09449" id="tspan10277">(montée)</tspan></text>
  <text x="471.38196" y="661.0918" id="text10281" xml:space="preserve" style="font-size:20px;font-style:normal;font-weight:bold;line-height:125%;letter-spacing:0px;word-spacing:0px;fill:#000000;fill-opacity:1;stroke:none;font-family:Sans;-inkscape-font-specification:Sans Bold"><tspan x="471.38196" y="661.0918" id="tspan10283">Vers Jussieu</tspan><tspan x="471.38196" y="686.0918" id="tspan10285">(descente)</tspan></text>
  <g transform="translate(0,1.2188976e-5)" id="g4953">
    <path d="M 0,0 C 0,23.48 19.026,42.522 42.511,42.522 66,42.522 85.039,23.48 85.039,0 85.039,-23.472 66,-42.517 42.511,-42.517 19.026,-42.517 0,-23.472 0,0" inkscape:connector-curvature="0" transform="matrix(0.47037239,0,0,-0.47104718,714,270.06719)" clip-path="url(#clipPath1)" id="path4318" style="font-size:12px;font-style:normal;font-weight:normal;fill:#d3aa18;fill-opacity:1;stroke:none;font-family:Dialog" />
    <path d="m 724.15751,280.92943 4.63269,0 0,-20.51411 -3.97088,0 -5.42057,2.52482 0.78787,3.59785 3.90786,-1.86205 0.063,0 z" inkscape:connector-curvature="0" id="path4322" style="font-size:12px;font-style:normal;font-weight:normal;fill:#000000;fill-opacity:1;stroke:none;font-family:Dialog" />
    <path d="m 743.03496,260.06816 c -5.29451,0 -7.81571,4.70247 -7.81571,10.63578 0.0315,5.80707 2.36363,10.57265 7.65814,10.57265 5.23148,0 7.78419,-4.3553 7.78419,-10.69889 0,-5.61771 -2.14302,-10.50954 -7.62662,-10.50954 z m -0.063,3.62942 c 1.92241,0 2.89938,2.39857 2.89938,6.94324 0,4.6709 -1.00848,7.00635 -2.86786,7.00635 -1.85939,0 -2.99392,-2.24077 -2.96241,-6.94323 -0.0315,-4.76559 1.16605,-7.00636 2.93089,-7.00636 z" inkscape:connector-curvature="0" id="path4324" style="font-size:12px;font-style:normal;font-weight:normal;fill:#000000;fill-opacity:1;stroke:none;font-family:Dialog" />
  </g>
  <path d="m 712,270.09472 a 20,20 0 0 1 -40,0 20,20 0 1 1 40,0 z" inkscape:connector-curvature="0" id="path6999" style="fill:none;stroke:#000093;stroke-width:3;stroke-linecap:round;stroke-linejoin:round;stroke-miterlimit:4;stroke-opacity:1;stroke-dasharray:none" />
  <g transform="translate(0,1.2188976e-5)" id="g4958">
    <text x="648.98627" y="293.61807" transform="scale(1.0442724,0.95760454)" id="text7001" xml:space="preserve" style="font-size:31.69484711px;font-style:normal;font-weight:normal;line-height:125%;letter-spacing:0px;word-spacing:0px;fill:#000093;fill-opacity:1;stroke:#000093;stroke-width:1.84849012;stroke-linecap:round;stroke-linejoin:round;stroke-miterlimit:4;stroke-opacity:1;stroke-dasharray:none;font-family:Sans"><tspan x="648.98627" y="293.61807" id="tspan7003" style="stroke-width:1.84849012">M</tspan></text>
  </g>
  <g transform="translate(0,1.2188976e-5)" id="g4962">
    <path d="m 668,256.09448 c -3.32607,0 -6.65213,0 -9.9782,0 0,10 0,20 0,30 3.32607,0 6.65213,0 9.9782,0 0,-10 0,-20 0,-30 z m -13.72003,2.67857 c -2.49455,0 -4.9891,0 -7.48365,0 0,8.21428 0,16.42857 0,24.64286 2.49455,0 4.9891,0 7.48365,0 0,-8.21429 0,-16.42858 0,-24.64286 z m -11.22547,2.67857 c -1.66303,0 -3.32606,0 -4.9891,0 0,6.42857 0,12.85714 0,19.28572 1.66304,0 3.32607,0 4.9891,0 0,-6.42858 0,-12.85715 0,-19.28572 z" inkscape:connector-curvature="0" id="stairs" style="fill-rule:evenodd" />
    <path d="m 668,291.09448 -35,0 0,-40 35,0" inkscape:connector-curvature="0" id="path10312" style="fill:none;stroke:#000000;stroke-width:2;stroke-linecap:butt;stroke-linejoin:miter;stroke-miterlimit:4;stroke-opacity:1;stroke-dasharray:none" />
  </g>
  <path d="m 676,212.09472 c 0,-80 0,-80 0,-80 l -40,0 0,0 0,0" inkscape:connector-curvature="0" id="path4294-2-1" style="font-size:12px;font-style:normal;font-weight:normal;fill:none;stroke:#000000;stroke-width:3.99999976;stroke-linecap:butt;stroke-linejoin:miter;stroke-miterlimit:4;stroke-opacity:1;stroke-dasharray:none;stroke-dashoffset:0;font-family:Dialog" />
  <g transform="translate(0,1.2188976e-5)" id="g5007">
    <rect width="50.739384" height="29.673208" x="637.26062" y="98.421486" id="rect7098-0-5" style="font-size:12px;font-style:normal;font-weight:normal;fill:none;stroke:#000093;stroke-width:1.7225914;stroke-linecap:round;stroke-linejoin:round;stroke-miterlimit:4;stroke-opacity:1;stroke-dasharray:none;stroke-dashoffset:0;font-family:Dialog" />
    <text x="703.01013" y="110.76196" transform="scale(0.91252341,1.0958623)" id="text7294-1-3" xml:space="preserve" style="font-size:22px;font-style:normal;font-weight:bold;line-height:125%;letter-spacing:0px;word-spacing:0px;fill:#000093;fill-opacity:1;stroke:#000093;stroke-width:0.63464338;stroke-linecap:round;stroke-linejoin:round;stroke-miterlimit:10;stroke-opacity:1;stroke-dasharray:none;stroke-dashoffset:0;font-family:Sans;-inkscape-font-specification:Sans Bold"><tspan x="703.01013" y="110.76196" id="tspan7296-8-79" style="font-size:22px;font-weight:normal;letter-spacing:0px;stroke-width:0.63464338;-inkscape-font-specification:Sans">BUS</tspan></text>
  </g>
  <g transform="translate(0,1.2188976e-5)" id="g5002">
    <rect width="42.000004" height="25.999994" x="630" y="139.66676" id="rect4372-6-0" style="font-size:12px;font-style:normal;font-weight:normal;fill:#c3e5e7;fill-opacity:1;fill-rule:nonzero;stroke:none;font-family:Dialog" />
    <text x="677.26636" y="153.267" transform="scale(0.93869629,1.0653073)" id="text5827-3-2" xml:space="preserve" style="font-size:25.36263466px;font-style:normal;font-weight:normal;line-height:125%;letter-spacing:0px;word-spacing:0px;fill:#000000;fill-opacity:1;stroke:none;font-family:Sans"><tspan x="677.26636" y="153.267" id="tspan5829-0-5">89</tspan></text>
  </g>
  <path d="m 394,526.09472 c 0,80 0,80 0,80 l 40,0 0,0 0,0" inkscape:connector-curvature="0" id="path4294" style="fill:none;stroke:#000000;stroke-width:4;stroke-linecap:butt;stroke-linejoin:miter;stroke-miterlimit:4;stroke-opacity:1;stroke-dasharray:none" />
  <g transform="translate(0,1.2188976e-5)" id="g5041">
    <rect width="50.739384" height="29.673208" x="392.76062" y="611.09467" id="rect7098-0-50" style="fill:none;stroke:#000093;stroke-width:1.7225914;stroke-linecap:round;stroke-linejoin:round;stroke-miterlimit:4;stroke-opacity:1;stroke-dasharray:none" />
    <g id="g5037">
      <text x="435.07181" y="578.58826" transform="scale(0.91252341,1.0958623)" id="text7294-1-7" xml:space="preserve" style="font-size:22px;font-style:normal;font-weight:bold;line-height:125%;letter-spacing:0px;word-spacing:0px;fill:#000093;fill-opacity:1;stroke:#000093;stroke-width:0.63464338;stroke-linecap:round;stroke-linejoin:round;stroke-opacity:1;font-family:Sans;-inkscape-font-specification:Sans Bold"><tspan x="435.07181" y="578.58826" id="tspan7296-8-5" style="font-size:22px;font-weight:normal;letter-spacing:0px;stroke-width:0.63464338;-inkscape-font-specification:Sans">BUS</tspan></text>
    </g>
  </g>
  <g transform="translate(0,1.2188976e-5)" id="g5032">
    <rect width="42.000004" height="25.999994" x="400" y="573.66669" id="rect4372-6-0-6" style="font-size:12px;font-style:normal;font-weight:normal;fill:#c3e5e7;fill-opacity:1;fill-rule:nonzero;stroke:none;font-family:Dialog" />
    <text x="432.24573" y="560.66113" transform="scale(0.93869629,1.0653073)" id="text5827-3-2-9" xml:space="preserve" style="font-size:25.36263466px;font-style:normal;font-weight:normal;line-height:125%;letter-spacing:0px;word-spacing:0px;fill:#000000;fill-opacity:1;stroke:none;font-family:Sans"><tspan x="432.24573" y="560.66113" id="tspan5829-0-5-6">89</tspan></text>
  </g>
  <g transform="translate(0,1.2188976e-5)" id="g5086">
    <path d="M 0,0 C 0,23.48 19.026,42.522 42.511,42.522 66,42.522 85.039,23.48 85.039,0 85.039,-23.472 66,-42.517 42.511,-42.517 19.026,-42.517 0,-23.472 0,0" inkscape:connector-curvature="0" transform="matrix(0.47037239,0,0,-0.47104718,401.99997,484.06695)" clip-path="url(#clipPath1-4)" id="path4318-2" style="font-size:12px;font-style:normal;font-weight:normal;fill:#d3aa18;fill-opacity:1;stroke:none;font-family:Dialog" />
    <g id="g5082">
      <path d="m 431.03493,474.06792 c -5.29451,0 -7.81571,4.70247 -7.81571,10.63578 0.0315,5.80707 2.36363,10.57265 7.65814,10.57265 5.23148,0 7.78419,-4.3553 7.78419,-10.69889 0,-5.61771 -2.14302,-10.50954 -7.62662,-10.50954 z m -0.063,3.62942 c 1.92241,0 2.89938,2.39857 2.89938,6.94324 0,4.6709 -1.00848,7.00635 -2.86786,7.00635 -1.85939,0 -2.99392,-2.24077 -2.96241,-6.94323 -0.0315,-4.76559 1.16605,-7.00636 2.93089,-7.00636 z" inkscape:connector-curvature="0" id="path4324-0" style="font-size:12px;font-style:normal;font-weight:normal;fill:#000000;fill-opacity:1;stroke:none;font-family:Dialog" />
      <path d="m 412.15748,494.92919 4.63269,0 0,-20.51411 -3.97088,0 -5.42057,2.52482 0.78787,3.59785 3.90786,-1.86205 0.063,0 z" inkscape:connector-curvature="0" id="path4322-3" style="font-size:12px;font-style:normal;font-weight:normal;fill:#000000;fill-opacity:1;stroke:none;font-family:Dialog" />
    </g>
  </g>
  <g transform="translate(0,1.2188976e-5)" id="g5077">
    <path d="m 399.99997,484.09446 a 20,20 0 0 1 -40,0 20,20 0 1 1 40,0 z" inkscape:connector-curvature="0" id="path6999-6" style="font-size:12px;font-style:normal;font-weight:normal;fill:none;stroke:#000093;stroke-width:3;stroke-linecap:round;stroke-linejoin:round;stroke-miterlimit:4;stroke-opacity:1;stroke-dasharray:none;stroke-dashoffset:0;font-family:Dialog" />
    <text x="350.21362" y="517.0921" transform="scale(1.0442724,0.95760454)" id="text7001-0" xml:space="preserve" style="font-size:31.69484711px;font-style:normal;font-weight:normal;line-height:125%;letter-spacing:0px;word-spacing:0px;fill:#000093;fill-opacity:1;stroke:#000093;stroke-width:1.84849012;stroke-linecap:round;stroke-linejoin:round;stroke-miterlimit:4;stroke-opacity:1;stroke-dasharray:none;stroke-dashoffset:0;font-family:Sans"><tspan x="350.21362" y="517.0921" id="tspan7003-1" style="stroke-width:1.84849012">M</tspan></text>
  </g>
  <g transform="translate(0,1.2188976e-5)" id="g5047">
    <path d="m 355.99997,470.09424 c -3.32607,0 -6.65213,0 -9.9782,0 0,10 0,20 0,30 3.32607,0 6.65213,0 9.9782,0 0,-10 0,-20 0,-30 z m -13.72003,2.67857 c -2.49455,0 -4.9891,0 -7.48365,0 0,8.21428 0,16.42857 0,24.64286 2.49455,0 4.9891,0 7.48365,0 0,-8.21429 0,-16.42858 0,-24.64286 z m -11.22547,2.67857 c -1.66303,0 -3.32606,0 -4.9891,0 0,6.42857 0,12.85714 0,19.28572 1.66304,0 3.32607,0 4.9891,0 0,-6.42858 0,-12.85715 0,-19.28572 z" inkscape:connector-curvature="0" id="stairs-0" style="font-size:12px;font-style:normal;font-weight:normal;fill:#000000;fill-opacity:1;fill-rule:evenodd;stroke:#000000;stroke-width:0.10776325;stroke-linecap:square;stroke-linejoin:miter;stroke-miterlimit:10;stroke-opacity:1;stroke-dasharray:none;stroke-dashoffset:0;font-family:Dialog" />
    <path d="m 355.99997,505.09424 -35,0 0,-40 35,0" inkscape:connector-curvature="0" id="path10312-7" style="font-size:12px;font-style:normal;font-weight:normal;fill:none;stroke:#000000;stroke-width:2;stroke-linecap:butt;stroke-linejoin:miter;stroke-miterlimit:4;stroke-opacity:1;stroke-dasharray:none;stroke-dashoffset:0;font-family:Dialog" />
  </g>
  <flowRoot transform="translate(0,1.2188976e-5)" id="flowRoot6231" xml:space="preserve" style="font-size:40px;font-style:normal;font-weight:normal;line-height:125%;letter-spacing:0px;word-spacing:0px;fill:#000000;fill-opacity:1;stroke:none;font-family:Sans"><flowRegion id="flowRegion6233"><rect width="55.620617" height="74.835014" x="854.53497" y="81.703484" id="rect6235" /></flowRegion><flowPara id="flowPara6237" /></flowRoot>  <g transform="translate(0,1.2188976e-5)" id="g4966">
    <path d="m 910,84.094475 a 20,20 0 0 1 -40,0 20,20 0 1 1 40,0 z" inkscape:connector-curvature="0" id="path6999-1" style="fill:none;stroke:#000093;stroke-width:3;stroke-linecap:round;stroke-linejoin:round;stroke-miterlimit:4;stroke-opacity:1;stroke-dasharray:none" />
    <text x="838.59198" y="99.383171" transform="scale(1.0442724,0.95760454)" id="text7001-3" xml:space="preserve" style="font-size:31.69484711px;font-style:normal;font-weight:normal;line-height:125%;letter-spacing:0px;word-spacing:0px;fill:#000093;fill-opacity:1;stroke:#000093;stroke-width:1.84849012;stroke-linecap:round;stroke-linejoin:round;stroke-miterlimit:4;stroke-opacity:1;stroke-dasharray:none;font-family:Sans"><tspan x="838.59198" y="99.383171" id="tspan7003-2" style="stroke-width:1.84849012">M</tspan></text>
  </g>
  <g transform="translate(0,1.2188976e-5)" id="g4986">
    <rect width="50.739384" height="29.673208" x="869.26062" y="24.094482" id="rect7098-0-54-9" style="fill:none;stroke:#000093;stroke-width:1.7225914;stroke-linecap:round;stroke-linejoin:round;stroke-miterlimit:4;stroke-opacity:1;stroke-dasharray:none" />
    <text x="957.25018" y="42.936825" transform="scale(0.91252341,1.0958623)" id="text7294-1-4-5" xml:space="preserve" style="font-size:22px;font-style:normal;font-weight:bold;line-height:125%;letter-spacing:0px;word-spacing:0px;fill:#000093;fill-opacity:1;stroke:#000093;stroke-width:0.63464338;stroke-linecap:round;stroke-linejoin:round;stroke-opacity:1;font-family:Sans;-inkscape-font-specification:Sans Bold"><tspan x="957.25018" y="42.936825" id="tspan7296-8-7-6" style="font-size:22px;font-weight:normal;letter-spacing:0px;stroke-width:0.63464338;-inkscape-font-specification:Sans">BUS</tspan></text>
  </g>
  <g transform="translate(0,1.2188976e-5)" id="g4971">
    <path d="M 0,0 C 0,23.48 19.026,42.522 42.511,42.522 66,42.522 85.039,23.48 85.039,0 85.039,-23.472 66,-42.517 42.511,-42.517 19.026,-42.517 0,-23.472 0,0" inkscape:connector-curvature="0" transform="matrix(0.47037239,0,0,-0.47104718,925.2098,83.74635)" clip-path="url(#clipPath1-2)" id="path4318-5" style="font-size:12px;font-style:normal;font-weight:normal;fill:#d3aa18;fill-opacity:1;stroke:none;font-family:Dialog" />
    <path d="m 935.36731,94.60859 4.63269,0 0,-20.51411 -3.97088,0 -5.42057,2.52482 0.78787,3.59785 3.90786,-1.86205 0.063,0 z" inkscape:connector-curvature="0" id="path4322-4" style="font-size:12px;font-style:normal;font-weight:normal;fill:#000000;fill-opacity:1;stroke:none;font-family:Dialog" />
    <path d="m 954.24476,73.74732 c -5.29451,0 -7.81571,4.70247 -7.81571,10.63578 0.0315,5.80707 2.36363,10.57265 7.65814,10.57265 5.23148,0 7.78419,-4.3553 7.78419,-10.69889 0,-5.61771 -2.14302,-10.50954 -7.62662,-10.50954 z m -0.063,3.62942 c 1.92241,0 2.89938,2.39857 2.89938,6.94324 0,4.6709 -1.00848,7.00635 -2.86786,7.00635 -1.85939,0 -2.99392,-2.24077 -2.96241,-6.94323 -0.0315,-4.76559 1.16605,-7.00636 2.93089,-7.00636 z" inkscape:connector-curvature="0" id="path4324-4" style="font-size:12px;font-style:normal;font-weight:normal;fill:#000000;fill-opacity:1;stroke:none;font-family:Dialog" />
  </g>
  <text x="868" y="128.09448" id="text6239" xml:space="preserve" style="font-size:40px;font-style:normal;font-weight:normal;line-height:125%;letter-spacing:0px;word-spacing:0px;fill:#000000;fill-opacity:1;stroke:none;font-family:Sans"><tspan x="868" y="128.09448" id="tspan6241" style="font-size:18px;font-weight:bold;-inkscape-font-specification:Sans Bold">Interconnexions</tspan><tspan x="868" y="150.59448" id="tspan6243" style="font-size:18px;font-weight:bold;-inkscape-font-specification:Sans Bold">Cardinal Lemoine</tspan></text>
  <g transform="translate(0,1.2188976e-5)" id="g4981">
    <rect width="42.000004" height="25.999994" x="930" y="25.666767" id="rect4372-6-0-2" style="font-size:12px;font-style:normal;font-weight:normal;fill:#c3e5e7;fill-opacity:1;fill-rule:nonzero;stroke:none;font-family:Dialog" />
    <text x="996.85858" y="46.255627" transform="scale(0.93869629,1.0653073)" id="text5827-3-2-7" xml:space="preserve" style="font-size:25.36263466px;font-style:normal;font-weight:normal;line-height:125%;letter-spacing:0px;word-spacing:0px;fill:#000000;fill-opacity:1;stroke:none;font-family:Sans"><tspan x="996.85858" y="46.255627" id="tspan5829-0-5-5">89</tspan></text>
  </g>
  <g transform="translate(0,1.2188976e-5)" id="g4976">
    <rect width="46.380772" height="25.999994" x="976.16309" y="25.666777" id="rect4372-6-4" style="font-size:12px;font-style:normal;font-weight:normal;fill:#eeb5c4;fill-opacity:1;fill-rule:nonzero;stroke:none;font-family:Dialog" />
    <text x="1019.3041" y="47.578819" transform="scale(0.96554853,1.0356807)" id="text5827-3-5" xml:space="preserve" style="font-size:26.08815575px;font-style:normal;font-weight:normal;line-height:125%;letter-spacing:0px;word-spacing:0px;fill:#000000;fill-opacity:1;stroke:none;font-family:Sans"><tspan x="1019.3041" y="47.578819" id="tspan5829-0-0">47</tspan></text>
  </g>
  <text x="816" y="362.09448" id="text10281-1" xml:space="preserve" style="font-size:20px;font-style:normal;font-weight:bold;line-height:125%;letter-spacing:0px;word-spacing:0px;fill:#000000;fill-opacity:1;stroke:none;font-family:Sans;-inkscape-font-specification:Sans Bold"><tspan x="816" y="362.09448" id="tspan10285-8">Vers Saint</tspan><tspan x="816" y="387.09448" id="tspan6343">Germain</tspan></text>
</svg>
