<?xml version="1.0" standalone="no"?>
<!DOCTYPE svg PUBLIC "-//W3C//DTD SVG 20010904//EN"
 "http://www.w3.org/TR/2001/REC-SVG-20010904/DTD/svg10.dtd">
<svg version="1.0" xmlns="http://www.w3.org/2000/svg"
 width="3507.000000pt" height="2480.000000pt" viewBox="0 0 3507.000000 2480.000000"
 preserveAspectRatio="xMidYMid meet">
<metadata>
Created by potrace 1.11, written by Peter Selinger 2001-2013
</metadata>
<g transform="translate(0.000000,2480.000000) scale(0.100000,-0.100000)"
fill="#000000" stroke="none">
<path d="M2840 22735 l0 -885 5960 0 5960 0 0 885 0 885 -5960 0 -5960 0 0
-885z m9258 349 c21 -6 23 -11 20 -68 l-3 -61 -37 3 c-45 4 -78 -24 -78 -68 0
-29 2 -30 45 -30 l45 0 0 -66 0 -66 -45 4 -45 3 0 -187 0 -188 -85 0 -85 0 0
188 0 188 -27 -1 c-27 0 -28 2 -31 63 l-3 62 30 0 c27 0 30 4 36 43 20 122 86
184 200 186 22 0 50 -2 63 -5z m-6888 -364 l0 -360 -80 0 -80 0 0 360 0 360
80 0 80 0 0 -360z m2240 0 l0 -360 -70 0 c-63 0 -70 2 -70 19 0 27 -15 34 -31
14 -38 -45 -152 -57 -218 -23 -85 43 -126 133 -119 259 6 90 30 145 85 190 65
54 150 66 218 31 22 -11 41 -20 42 -20 2 0 3 56 3 125 l0 125 80 0 80 0 0
-360z m1310 0 l0 -360 -70 0 c-63 0 -70 2 -70 19 0 27 -15 34 -31 14 -38 -45
-152 -57 -218 -23 -85 43 -126 133 -119 259 6 90 30 145 85 190 65 54 150 66
218 31 22 -11 41 -20 42 -20 2 0 3 56 3 125 l0 125 80 0 80 0 0 -360z m1000 0
l0 -360 -80 0 -80 0 0 360 0 360 80 0 80 0 0 -360z m1908 340 c-1 -5 -28 -41
-58 -80 l-55 -70 -58 0 c-32 0 -57 3 -55 8 2 4 21 40 43 79 l40 73 73 0 c44 0
72 -4 70 -10z m-748 -21 c170 -27 270 -126 286 -285 16 -151 -53 -292 -172
-353 -82 -43 -256 -63 -388 -45 l-46 7 0 333 0 334 23 5 c66 15 219 17 297 4z
m-7010 -64 l0 -65 -135 0 -135 0 0 -65 0 -65 125 0 125 0 0 -70 0 -70 -125 0
-125 0 0 -75 0 -75 140 0 140 0 0 -65 0 -65 -220 0 -220 0 0 340 0 340 215 0
215 0 0 -65z m387 -120 l51 -15 -13 -51 c-8 -28 -16 -53 -18 -56 -3 -2 -22 1
-44 7 -58 18 -107 10 -111 -17 -3 -19 10 -28 83 -63 77 -37 89 -46 106 -83 10
-23 19 -53 19 -67 0 -45 -36 -106 -76 -130 -62 -39 -234 -39 -293 -1 -11 7
-11 18 0 65 7 31 14 56 15 56 2 0 21 -6 41 -14 86 -32 153 -26 153 13 0 16
-20 30 -85 61 -94 45 -125 79 -125 138 0 130 140 204 297 157z m528 -4 c178
-81 178 -401 1 -482 -56 -25 -141 -25 -183 1 l-33 20 0 -115 0 -115 -80 0 -80
0 0 243 c0 134 -3 292 -7 351 l-6 107 74 -3 c73 -3 74 -3 77 -32 l4 -28 23 22
c52 48 143 62 210 31z m780 8 c22 -6 54 -22 72 -35 51 -38 61 -86 66 -286 l3
-178 -73 0 c-67 0 -73 2 -73 21 0 20 0 20 -32 -3 -28 -19 -45 -23 -110 -23
-74 0 -78 1 -113 35 -60 58 -68 134 -22 209 27 44 109 82 193 89 67 5 75 13
47 44 -20 23 -108 25 -160 3 -19 -8 -37 -15 -39 -15 -6 0 -20 39 -28 77 -7 30
-6 31 41 46 91 29 161 34 228 16z m610 -8 c90 -41 105 -88 105 -317 l0 -174
-79 0 -80 0 -3 164 c-3 145 -5 166 -22 185 -28 31 -79 28 -105 -5 -19 -24 -21
-40 -21 -185 l0 -159 -80 0 -80 0 0 153 c0 83 -3 196 -7 250 l-6 98 74 -3 c73
-3 74 -3 79 -32 5 -27 6 -28 20 -11 22 26 89 55 130 55 19 0 53 -9 75 -19z
m500 8 c22 -6 54 -22 72 -35 51 -38 61 -86 66 -286 l3 -178 -73 0 c-67 0 -73
2 -73 21 0 20 0 20 -32 -3 -28 -19 -45 -23 -110 -23 -74 0 -78 1 -113 35 -60
58 -68 134 -22 209 27 44 109 82 193 89 67 5 75 13 47 44 -20 23 -108 25 -160
3 -19 -8 -37 -15 -39 -15 -6 0 -20 39 -28 77 -7 30 -6 31 41 46 91 29 161 34
228 16z m1146 -4 c91 -33 142 -119 137 -233 l-3 -67 -153 -3 c-135 -2 -153 -4
-150 -19 7 -35 55 -57 126 -58 37 0 83 4 104 8 l36 9 9 -54 c9 -53 9 -53 -22
-68 -21 -10 -63 -15 -140 -15 -94 0 -116 3 -150 22 -81 43 -124 119 -125 220
0 194 159 318 331 258z m1320 0 c91 -33 142 -119 137 -233 l-3 -67 -153 -3
c-135 -2 -153 -4 -150 -19 7 -35 55 -57 126 -58 37 0 83 4 104 8 l36 9 9 -54
c9 -53 9 -53 -22 -68 -21 -10 -63 -15 -140 -15 -94 0 -116 3 -150 22 -81 43
-124 119 -125 220 0 194 159 318 331 258z m974 4 c22 -6 54 -22 72 -35 51 -38
61 -86 66 -286 l3 -178 -73 0 c-67 0 -73 2 -73 21 0 20 0 20 -32 -3 -28 -19
-45 -23 -110 -23 -74 0 -78 1 -113 35 -60 58 -68 134 -22 209 27 44 109 82
193 89 67 5 75 13 47 44 -20 23 -108 25 -160 3 -19 -8 -37 -15 -39 -15 -6 0
-20 39 -28 77 -7 30 -6 31 41 46 91 29 161 34 228 16z m1436 -4 c91 -33 142
-119 137 -233 l-3 -67 -153 -3 c-135 -2 -153 -4 -150 -19 7 -35 55 -57 126
-58 37 0 83 4 104 8 l36 9 9 -54 c9 -53 9 -53 -22 -68 -21 -10 -63 -15 -140
-15 -94 0 -116 3 -150 22 -81 43 -124 119 -125 220 0 194 159 318 331 258z
m860 0 c91 -33 142 -119 137 -233 l-3 -67 -153 -3 c-135 -2 -153 -4 -150 -19
7 -35 55 -57 126 -58 37 0 83 4 104 8 l36 9 9 -54 c9 -53 9 -53 -22 -68 -21
-10 -63 -15 -140 -15 -94 0 -116 3 -150 22 -81 43 -124 119 -125 220 0 194
159 318 331 258z m594 -4 c90 -41 105 -88 105 -317 l0 -174 -79 0 -80 0 -3
164 c-3 145 -5 166 -22 185 -28 31 -79 28 -105 -5 -19 -24 -21 -40 -21 -185
l0 -159 -80 0 -80 0 0 153 c0 83 -3 196 -7 250 l-6 98 74 -3 c73 -3 74 -3 79
-32 5 -27 6 -28 20 -11 22 26 89 55 130 55 19 0 53 -9 75 -19z m502 4 l51 -15
-13 -51 c-8 -28 -16 -53 -18 -56 -3 -2 -22 1 -44 7 -58 18 -107 10 -111 -17
-3 -19 10 -28 83 -63 77 -37 89 -46 106 -83 10 -23 19 -53 19 -67 0 -45 -36
-106 -76 -130 -62 -39 -234 -39 -293 -1 -11 7 -11 18 0 65 7 31 14 56 15 56 2
0 21 -6 41 -14 86 -32 153 -26 153 13 0 16 -20 30 -85 61 -94 45 -125 79 -125
138 0 130 140 204 297 157z m454 0 c91 -33 142 -119 137 -233 l-3 -67 -153 -3
c-135 -2 -153 -4 -150 -19 7 -35 55 -57 126 -58 37 0 83 4 104 8 l36 9 9 -54
c9 -53 9 -53 -22 -68 -21 -10 -63 -15 -140 -15 -94 0 -116 3 -150 22 -81 43
-124 119 -125 220 0 194 159 318 331 258z"/>
<path d="M7147 22719 c-15 -11 -31 -38 -37 -61 -34 -123 64 -225 147 -154 26
23 28 29 28 106 0 77 -2 83 -28 106 -34 29 -76 31 -110 3z"/>
<path d="M8457 22719 c-15 -11 -31 -38 -37 -61 -34 -123 64 -225 147 -154 26
23 28 29 28 106 0 77 -2 83 -28 106 -34 29 -76 31 -110 3z"/>
<path d="M10767 22913 c-4 -3 -7 -102 -7 -220 l0 -213 48 0 c144 0 224 81 224
230 0 136 -72 208 -208 210 -28 0 -54 -3 -57 -7z"/>
<path d="M4639 22711 c-27 -27 -29 -35 -29 -101 0 -82 9 -104 50 -125 38 -20
73 -11 105 27 20 24 25 40 25 88 0 71 -15 107 -51 126 -42 21 -67 17 -100 -15z"/>
<path d="M5510 22577 c-59 -20 -74 -88 -24 -108 49 -18 93 16 101 81 5 37 4
40 -18 39 -13 0 -40 -5 -59 -12z"/>
<path d="M6620 22577 c-59 -20 -74 -88 -24 -108 49 -18 93 16 101 81 5 37 4
40 -18 39 -13 0 -40 -5 -59 -12z"/>
<path d="M7732 22744 c-12 -8 -29 -28 -37 -45 l-16 -29 86 0 c47 0 85 4 85 10
0 23 -24 59 -47 69 -32 15 -44 14 -71 -5z"/>
<path d="M9052 22744 c-12 -8 -29 -28 -37 -45 l-16 -29 86 0 c47 0 85 4 85 10
0 23 -24 59 -47 69 -32 15 -44 14 -71 -5z"/>
<path d="M10060 22577 c-59 -20 -74 -88 -24 -108 49 -18 93 16 101 81 5 37 4
40 -18 39 -13 0 -40 -5 -59 -12z"/>
<path d="M11462 22744 c-12 -8 -29 -28 -37 -45 l-16 -29 86 0 c47 0 85 4 85
10 0 23 -24 59 -47 69 -32 15 -44 14 -71 -5z"/>
<path d="M12322 22744 c-12 -8 -29 -28 -37 -45 l-16 -29 86 0 c47 0 85 4 85
10 0 23 -24 59 -47 69 -32 15 -44 14 -71 -5z"/>
<path d="M13872 22744 c-12 -8 -29 -28 -37 -45 l-16 -29 86 0 c47 0 85 4 85
10 0 23 -24 59 -47 69 -32 15 -44 14 -71 -5z"/>
<path d="M1555 23598 c-2 -7 -11 -48 -18 -90 l-15 -78 28 0 c27 0 28 3 39 68
17 100 19 102 52 102 17 0 39 -5 50 -10 43 -24 5 -80 -54 -80 l-29 0 32 -40
c26 -33 38 -40 68 -40 l36 0 -32 33 c-38 39 -40 47 -9 47 61 0 87 62 37 87
-34 17 -179 17 -185 1z"/>
<path d="M2065 23600 c3 -5 26 -10 51 -10 41 0 44 -2 39 -22 -31 -140 -31
-138 4 -138 27 0 29 3 35 48 17 121 12 112 72 112 30 0 54 5 54 10 0 6 -50 10
-131 10 -84 0 -128 -4 -124 -10z"/>
<path d="M2361 23548 c-6 -35 -14 -76 -17 -91 -6 -26 -4 -28 22 -25 23 2 30 9
34 33 5 29 7 30 80 37 60 5 78 11 93 29 41 51 -1 79 -119 79 l-81 0 -12 -62z
m153 36 c19 -18 19 -20 6 -45 -8 -15 -22 -19 -61 -19 -49 0 -49 0 -43 28 3 15
7 33 10 40 5 17 70 15 88 -4z"/>
<path d="M1872 23518 c-68 -78 -89 -116 -39 -70 33 31 131 32 147 2 7 -13 21
-20 40 -20 l30 0 -45 82 c-24 46 -48 84 -54 86 -5 2 -41 -34 -79 -80z m68 3
c17 -33 11 -41 -30 -41 -46 0 -48 5 -18 37 26 28 34 29 48 4z"/>
<path d="M32787 23446 c-94 -35 -149 -91 -187 -191 -34 -87 -34 -247 -1 -323
43 -96 115 -137 227 -130 50 3 72 10 106 34 79 55 111 147 83 240 -16 54 -40
81 -94 109 -43 22 -129 22 -171 1 -18 -9 -35 -14 -37 -12 -8 8 30 102 51 124
38 42 74 55 136 48 l56 -7 12 48 c7 30 7 52 1 58 -15 16 -140 17 -182 1z m53
-361 c85 -44 58 -175 -36 -175 -54 0 -86 36 -92 103 -4 57 -4 57 29 72 44 18
63 18 99 0z"/>
<path d="M31769 23421 c-13 -10 -57 -35 -96 -55 -40 -21 -74 -40 -76 -44 -9
-15 33 -92 49 -92 9 0 39 14 66 30 26 17 50 30 53 30 3 0 5 -108 5 -240 l0
-240 70 0 70 0 0 315 0 315 -59 0 c-42 0 -65 -5 -82 -19z"/>
<path d="M32080 23385 l0 -55 145 0 c80 0 145 -3 145 -7 0 -5 -17 -37 -36 -73
-37 -68 -120 -221 -134 -249 -25 -51 -41 -101 -43 -141 l-2 -45 71 -3 72 -3 6
36 c18 92 93 270 180 423 29 52 36 74 36 118 l0 54 -220 0 -220 0 0 -55z"/>
<path d="M1895 23314 c-38 -8 -101 -31 -140 -49 -73 -35 -205 -137 -205 -159
0 -7 21 -22 48 -33 26 -12 59 -29 73 -39 26 -17 27 -17 70 18 64 52 113 75
198 94 86 19 175 11 273 -26 64 -24 166 -111 203 -174 86 -147 86 -334 0 -488
-25 -45 -101 -129 -142 -155 -33 -22 -70 -193 -41 -193 21 0 122 53 173 90
112 82 225 247 241 351 4 22 10 39 15 39 5 0 9 52 9 115 0 63 -4 115 -9 115
-5 0 -11 17 -15 39 -3 21 -25 76 -47 122 -76 152 -233 280 -399 324 -85 23
-223 27 -305 9z"/>
<path d="M1280 23047 c-73 -17 -80 -22 -80 -64 0 -32 2 -35 23 -29 161 46 283
26 400 -66 20 -16 63 -43 95 -60 53 -28 63 -30 147 -26 l89 3 11 -54 c9 -50
13 -55 45 -66 27 -9 36 -18 40 -41 4 -24 10 -29 35 -29 26 0 30 -3 30 -29 0
-28 10 -38 48 -50 24 -8 22 -26 -19 -133 -58 -157 -74 -233 -74 -369 0 -67 3
-136 6 -153 6 -28 10 -31 46 -31 37 0 40 2 33 23 -3 12 -9 57 -12 100 -9 130
28 315 98 484 22 51 36 99 33 108 -3 8 -27 21 -52 28 -47 14 -55 22 -72 70 -8
23 -14 26 -35 21 -23 -6 -25 -3 -25 25 0 25 -6 34 -27 44 -35 15 -43 25 -43
60 0 63 -9 67 -134 65 l-114 -3 -43 32 c-101 75 -165 114 -213 128 -72 22
-172 27 -236 12z"/>
<path d="M1413 22872 c-24 -57 -29 -222 -9 -307 26 -108 78 -206 152 -285 74
-78 134 -120 223 -154 50 -20 169 -46 209 -46 8 0 32 122 32 159 0 5 -26 11
-58 15 -83 9 -191 64 -256 129 -99 99 -152 260 -127 388 7 33 11 62 9 63 -42
30 -72 46 -111 59 l-48 16 -16 -37z"/>
<path d="M31520 22175 l0 -425 840 0 840 0 0 425 0 425 -840 0 -840 0 0 -425z
m510 -10 l0 -305 -70 0 -70 0 0 230 c0 127 -2 230 -3 230 -2 0 -28 -13 -58
-30 -30 -16 -57 -30 -61 -30 -10 0 -48 75 -48 93 0 8 19 22 43 31 24 9 68 32
98 51 45 29 63 35 112 35 l57 0 0 -305z m530 255 c0 -35 -7 -62 -23 -88 -60
-96 -167 -332 -182 -399 l-17 -73 -74 0 c-41 0 -74 1 -74 3 0 2 5 30 11 63 10
55 34 106 167 356 l42 77 -143 3 -142 3 -3 53 -3 52 220 0 221 0 0 -50z m400
-5 l0 -55 -110 0 -110 0 0 -27 c0 -16 -3 -38 -6 -49 -5 -19 -1 -23 37 -29 140
-24 212 -92 212 -200 0 -80 -48 -151 -130 -191 -56 -28 -183 -26 -240 4 -24
12 -43 24 -43 26 0 2 12 24 26 50 25 45 37 55 48 37 3 -4 25 -14 50 -21 114
-32 195 72 117 151 -27 27 -35 29 -103 29 -40 0 -79 4 -87 9 -14 9 -12 115 6
269 l6 52 163 0 164 0 0 -55z"/>
<path d="M26830 21260 l0 -590 403 2 402 3 3 63 3 62 -346 0 -345 0 0 465 0
465 1005 0 1005 0 0 -465 0 -465 -345 0 -345 0 0 -65 0 -65 405 0 405 0 0 590
0 590 -1125 0 -1125 0 0 -590z"/>
<path d="M31521 21653 c2 -24 2 -25 6 -5 l4 22 825 0 824 0 0 -425 c0 -371 2
-425 15 -425 13 0 15 54 15 430 l0 430 -845 0 -845 0 1 -27z"/>
<path d="M27850 21250 l0 -270 55 0 55 0 0 59 c0 41 5 62 16 72 11 9 18 9 22
2 4 -6 23 -39 42 -72 l35 -61 73 0 c56 0 71 3 66 13 -4 6 -39 56 -77 111 l-68
99 38 41 c21 22 51 56 68 74 l29 32 -72 0 -72 0 -47 -72 -48 -71 -3 156 -3
157 -54 0 -55 0 0 -270z"/>
<path d="M27320 21490 c-11 -11 -20 -29 -20 -40 0 -25 34 -60 58 -60 34 0 62
29 62 65 0 54 -60 75 -100 35z"/>
<path d="M31984 21215 c0 -159 2 -223 3 -142 2 82 2 212 0 290 -1 78 -3 12 -3
-148z"/>
<path d="M31806 21475 c-11 -8 -15 -15 -9 -15 6 0 16 7 23 15 16 19 11 19 -14
0z"/>
<path d="M27088 21433 c-45 -13 -48 -16 -48 -49 0 -30 -3 -34 -25 -34 -23 0
-25 -4 -25 -45 0 -41 2 -45 25 -45 25 0 25 0 25 -94 0 -51 5 -107 11 -124 17
-50 73 -76 142 -65 36 5 37 6 37 49 0 40 -2 44 -24 44 -40 0 -56 35 -56 117
l0 72 43 3 c42 3 42 3 45 45 l3 42 -43 3 -43 3 -3 48 c-2 26 -6 47 -10 46 -4
-1 -28 -8 -54 -16z"/>
<path d="M28698 21433 c-45 -13 -48 -16 -48 -49 0 -30 -3 -34 -25 -34 -23 0
-25 -4 -25 -45 0 -41 2 -45 25 -45 25 0 25 0 25 -94 0 -51 5 -107 11 -124 17
-50 73 -76 142 -65 36 5 37 6 37 49 0 40 -2 44 -24 44 -40 0 -56 35 -56 117
l0 72 43 3 c42 3 42 3 45 45 l3 42 -43 3 -43 3 -3 48 c-2 26 -6 47 -10 46 -4
-1 -28 -8 -54 -16z"/>
<path d="M31650 21394 c-11 -12 -10 -18 5 -32 18 -16 18 -16 6 1 -11 14 -11
20 -1 32 7 8 10 15 7 15 -2 0 -10 -7 -17 -16z"/>
<path d="M32540 21402 c0 -9 -33 -12 -110 -12 l-110 0 1 -27 c2 -24 2 -25 6
-5 4 21 9 22 108 22 95 0 130 9 111 27 -3 4 -6 1 -6 -5z"/>
<path d="M32181 21384 c0 -11 3 -14 6 -6 3 7 2 16 -1 19 -3 4 -6 -2 -5 -13z"/>
<path d="M32713 21383 c37 -2 96 -2 130 0 34 2 4 3 -68 3 -71 0 -99 -1 -62 -3z"/>
<path d="M27611 21348 c-59 -20 -107 -75 -120 -138 -30 -153 88 -266 242 -231
50 12 50 13 43 58 l-7 38 -48 -3 c-59 -4 -85 8 -107 50 -22 43 -11 90 28 124
28 23 38 26 79 21 l47 -6 7 40 c4 22 5 43 2 46 -12 11 -133 12 -166 1z"/>
<path d="M28344 21349 c-104 -30 -154 -204 -87 -305 36 -56 147 -82 256 -61
39 8 45 22 31 74 -5 18 -10 20 -37 12 -18 -5 -48 -9 -67 -9 -40 0 -100 33
-100 55 0 13 19 15 115 15 l115 0 0 55 c0 131 -97 202 -226 164z m105 -95 c12
-15 21 -31 21 -35 0 -5 -29 -9 -65 -9 -72 0 -83 12 -45 50 28 28 64 25 89 -6z"/>
<path d="M27310 21165 l0 -185 55 0 55 0 0 185 0 185 -55 0 -55 0 0 -185z"/>
<path d="M31770 21320 c-8 -5 -10 -10 -5 -10 6 0 17 5 25 10 8 5 11 10 5 10
-5 0 -17 -5 -25 -10z"/>
<path d="M32318 21303 c7 -3 16 -2 19 1 4 3 -2 6 -13 5 -11 0 -14 -3 -6 -6z"/>
<path d="M32428 21283 c7 -3 16 -2 19 1 4 3 -2 6 -13 5 -11 0 -14 -3 -6 -6z"/>
<path d="M32171 21254 c0 -11 3 -14 6 -6 3 7 2 16 -1 19 -3 4 -6 -2 -5 -13z"/>
<path d="M32957 21213 c-4 -3 -7 -11 -7 -17 0 -6 5 -5 12 2 6 6 9 14 7 17 -3
3 -9 2 -12 -2z"/>
<path d="M32198 21183 c7 -3 16 -2 19 1 4 3 -2 6 -13 5 -11 0 -14 -3 -6 -6z"/>
<path d="M32248 21183 c12 -2 30 -2 40 0 9 3 -1 5 -23 4 -22 0 -30 -2 -17 -4z"/>
<path d="M32552 21180 c0 -8 4 -26 8 -40 6 -20 8 -21 8 -5 0 11 -3 29 -8 40
-5 12 -8 14 -8 5z"/>
<path d="M32365 21160 c3 -5 11 -10 16 -10 6 0 7 5 4 10 -3 6 -11 10 -16 10
-6 0 -7 -4 -4 -10z"/>
<path d="M32567 21103 c-4 -3 -7 -16 -6 -27 0 -19 1 -19 10 3 10 24 8 36 -4
24z"/>
<path d="M32220 21046 c0 -2 7 -7 16 -10 8 -3 12 -2 9 4 -6 10 -25 14 -25 6z"/>
<path d="M32364 21034 c-18 -14 -18 -15 4 -4 12 6 22 13 22 15 0 8 -5 6 -26
-11z"/>
<path d="M32550 21039 c0 -5 5 -7 10 -4 6 3 10 8 10 11 0 2 -4 4 -10 4 -5 0
-10 -5 -10 -11z"/>
<path d="M32303 21023 c9 -2 23 -2 30 0 6 3 -1 5 -18 5 -16 0 -22 -2 -12 -5z"/>
<path d="M32695 21019 c-4 -6 -5 -12 -2 -15 2 -3 7 2 10 11 7 17 1 20 -8 4z"/>
<path d="M32680 20941 c0 -6 4 -13 10 -16 6 -3 7 1 4 9 -7 18 -14 21 -14 7z"/>
<path d="M32850 20940 c0 -5 5 -10 11 -10 5 0 7 5 4 10 -3 6 -8 10 -11 10 -2
0 -4 -4 -4 -10z"/>
<path d="M29835 20903 c-114 -29 -128 -194 -20 -239 46 -19 73 -18 114 4 98
52 88 184 -16 228 -33 14 -44 15 -78 7z"/>
<path d="M21315 20868 c-114 -105 23 -274 153 -190 70 45 66 162 -7 205 -48
28 -105 22 -146 -15z"/>
<path d="M21865 20891 c-102 -42 -85 -201 25 -231 110 -30 197 79 145 180 -26
51 -109 75 -170 51z"/>
<path d="M22378 20884 c-87 -47 -70 -190 26 -222 98 -32 197 58 166 152 -18
54 -62 86 -118 86 -26 -1 -59 -7 -74 -16z"/>
<path d="M22896 20879 c-14 -11 -33 -34 -41 -49 -58 -113 83 -224 193 -152 70
46 66 162 -7 205 -41 24 -112 22 -145 -4z"/>
<path d="M23434 20890 c-66 -26 -87 -131 -38 -189 73 -87 224 -40 224 70 0 51
-23 95 -60 114 -31 16 -92 19 -126 5z"/>
<path d="M23952 20886 c-90 -49 -76 -191 22 -224 98 -32 197 58 166 152 -18
54 -62 86 -118 86 -26 -1 -57 -6 -70 -14z"/>
<path d="M24462 20875 c-82 -69 -57 -186 46 -215 109 -30 202 84 146 180 -38
63 -137 81 -192 35z"/>
<path d="M24993 20880 c-41 -25 -53 -48 -53 -104 0 -115 149 -165 224 -75 31
36 35 105 10 145 -36 54 -122 70 -181 34z"/>
<path d="M25519 20883 c-120 -74 -37 -260 100 -223 43 11 87 53 96 92 10 38
-11 93 -46 123 -36 30 -109 34 -150 8z"/>
<path d="M26031 20875 c-35 -30 -56 -85 -46 -123 9 -39 53 -81 96 -92 106 -29
198 86 143 180 -38 63 -137 81 -193 35z"/>
<path d="M26563 20880 c-41 -25 -53 -48 -53 -104 0 -33 6 -52 26 -75 74 -89
214 -38 214 78 0 53 -18 84 -60 106 -40 21 -89 19 -127 -5z"/>
<path d="M29238 20885 c-61 -34 -78 -130 -32 -184 64 -77 186 -50 213 47 12
41 -2 92 -34 122 -31 29 -108 37 -147 15z"/>
<path d="M30819 20770 c-249 -39 -453 -234 -503 -482 -9 -42 -16 -99 -16 -125
1 -128 67 -301 155 -400 61 -70 175 -144 266 -174 106 -34 272 -35 377 0 182
60 326 202 387 385 127 378 -136 771 -535 799 -41 3 -100 2 -131 -3z m220 -65
c192 -46 355 -207 406 -401 19 -75 19 -204 0 -279 -48 -181 -202 -336 -390
-391 -127 -36 -282 -18 -410 49 -128 68 -245 223 -274 365 -39 191 20 384 158
514 144 136 324 186 510 143z"/>
<path d="M31220 20324 c-47 -20 -70 -51 -70 -95 0 -48 31 -86 95 -114 58 -26
78 -46 69 -69 -11 -28 -79 -34 -136 -11 -13 5 -19 -1 -26 -27 -5 -19 -5 -37 0
-43 14 -15 145 -19 179 -5 44 19 69 56 69 104 0 56 -19 79 -95 115 -48 23 -65
36 -65 51 0 31 42 46 87 32 43 -13 41 -14 52 26 9 28 7 31 -21 41 -43 15 -96
13 -138 -5z"/>
<path d="M30430 20140 l0 -190 78 0 c99 0 145 13 176 51 37 44 35 91 -5 132
-18 18 -27 33 -20 35 6 2 18 17 27 34 12 24 13 36 4 64 -17 51 -51 64 -165 64
l-95 0 0 -190z m161 120 c42 -23 0 -86 -53 -78 -19 2 -23 10 -26 46 -3 41 -2
42 28 42 17 0 40 -5 51 -10z m9 -158 c31 -25 21 -65 -19 -82 -52 -21 -66 -11
-69 48 l-3 52 34 0 c19 0 45 -8 57 -18z"/>
<path d="M30770 20195 c0 -206 21 -240 150 -240 73 0 81 2 108 28 40 38 52 92
52 231 l0 116 -45 0 -45 0 0 -122 c0 -68 -3 -133 -6 -146 -8 -29 -52 -52 -79
-42 -44 16 -50 37 -53 177 l-4 133 -39 0 -39 0 0 -135z"/>
<path d="M31790 20230 l0 -520 705 0 705 0 0 520 0 520 -705 0 -705 0 0 -520z
m1100 269 c24 -13 55 -40 68 -59 20 -30 23 -44 20 -97 -3 -52 -9 -68 -33 -93
-16 -16 -37 -32 -47 -36 -16 -5 -11 -11 27 -35 86 -54 108 -163 51 -249 -13
-20 -47 -48 -77 -65 -47 -25 -67 -30 -150 -33 -69 -3 -111 0 -150 12 -81 24
-80 22 -62 95 14 56 18 62 37 56 129 -42 190 -42 232 0 30 30 31 66 1 101 -21
24 -33 28 -98 33 l-74 6 -3 63 -3 62 58 0 c76 0 123 27 123 69 0 20 -8 35 -22
45 -31 22 -114 20 -166 -4 -32 -14 -44 -16 -47 -7 -3 7 -11 34 -19 60 -14 47
-14 48 11 64 72 48 247 54 323 12z m-440 -33 c0 -49 -13 -81 -137 -340 l-138
-286 -92 0 -92 0 134 263 c74 145 135 267 135 270 0 4 -67 7 -150 7 l-150 0 0
63 c0 35 3 67 7 70 3 4 114 7 245 7 l238 0 0 -54z"/>
<path d="M21322 20450 c-68 -42 -78 -133 -22 -189 77 -77 197 -32 208 78 4 45
1 52 -30 86 -43 48 -105 58 -156 25z"/>
<path d="M25785 20441 c-56 -14 -115 -51 -140 -89 -42 -63 -46 -116 -43 -464
3 -285 5 -328 21 -363 24 -53 63 -93 112 -116 37 -17 74 -19 516 -19 l475 0
55 28 c35 18 64 42 84 70 l30 44 0 376 c0 418 2 406 -68 480 -57 60 -80 62
-571 61 -243 -1 -454 -4 -471 -8z m659 -67 c13 -13 16 -42 16 -165 0 -85 -5
-159 -10 -170 -6 -11 -21 -19 -35 -19 -14 0 -29 8 -35 19 -5 11 -10 85 -10
170 0 123 3 152 16 165 8 9 22 16 29 16 7 0 21 -7 29 -16z m-334 -172 c44 -35
31 -69 -56 -149 l-79 -73 358 0 c344 0 358 -1 377 -20 27 -27 25 -56 -5 -85
l-24 -25 -348 0 -347 0 73 -74 c53 -54 74 -81 74 -100 0 -37 -20 -56 -58 -56
-29 0 -54 19 -190 146 -86 80 -155 150 -153 154 8 22 321 300 337 300 10 0 29
-8 41 -18z m340 -413 c6 -10 10 -81 10 -159 0 -78 -4 -149 -10 -159 -14 -28
-40 -34 -61 -15 -17 15 -19 34 -19 175 0 149 1 159 21 173 24 17 45 12 59 -15z"/>
<path d="M29800 20398 c-68 -46 -77 -140 -19 -197 84 -84 216 -18 206 102 -8
97 -109 148 -187 95z"/>
<path d="M21322 19990 c-68 -42 -78 -142 -21 -200 79 -78 209 -20 209 93 0
101 -102 159 -188 107z"/>
<path d="M29813 19925 c-60 -26 -87 -102 -60 -168 50 -119 223 -90 234 40 5
58 -10 89 -56 120 -39 26 -72 28 -118 8z"/>
<path d="M21335 19541 c-26 -11 -51 -40 -64 -74 l-11 -28 -687 1 c-379 1 -703
1 -720 1 l-33 -1 0 -805 0 -805 723 0 722 0 28 -35 c94 -118 271 1 202 135
-30 58 -122 79 -180 40 -29 -19 -48 -20 -697 -20 l-668 0 0 685 0 685 686 0
c470 0 698 -3 723 -11 99 -30 188 90 135 181 -31 51 -102 74 -159 51z"/>
<path d="M29833 19453 c-13 -2 -36 -18 -52 -34 -77 -77 -32 -196 79 -207 48
-4 52 -3 90 36 33 33 40 46 40 78 0 51 -32 102 -75 120 -35 14 -42 15 -82 7z"/>
<path d="M23733 19443 l-693 -3 0 -60 0 -60 690 0 690 0 0 -685 0 -685 -690 0
-690 0 0 -60 0 -60 755 0 755 0 0 805 c0 778 -1 805 -19 805 -10 0 -38 1 -62
3 -24 2 -356 2 -736 0z"/>
<path d="M31654 19291 c-84 -22 -124 -70 -124 -152 0 -48 3 -55 39 -90 22 -20
62 -44 89 -53 51 -17 92 -48 92 -69 0 -48 -78 -70 -156 -43 -26 9 -48 16 -50
16 -1 0 -7 -21 -13 -47 -14 -55 -12 -57 74 -72 181 -32 307 77 247 212 -19 42
-27 49 -104 86 -99 47 -114 61 -98 90 13 25 49 35 98 28 20 -4 46 -8 56 -9 15
-2 22 7 32 40 13 42 12 43 -13 53 -37 14 -132 20 -169 10z"/>
<path d="M32013 19241 l-61 -29 9 -39 c5 -21 9 -41 9 -46 0 -4 18 2 40 13 21
11 44 20 50 20 6 0 10 -65 10 -190 l0 -190 55 0 55 0 0 245 0 245 -52 0 c-36
-1 -72 -10 -115 -29z"/>
<path d="M30915 19183 c-73 -39 -706 -517 -725 -547 -44 -73 -35 -138 28 -198
46 -44 648 -490 694 -514 46 -24 101 -23 135 2 59 44 58 29 58 624 0 514 -1
547 -19 583 -31 63 -106 85 -171 50z m21 -1071 c-7 -6 -591 429 -591 440 0 6
133 108 295 228 l295 218 3 -440 c1 -243 0 -443 -2 -446z"/>
<path d="M20882 18613 l3 -528 165 0 165 0 3 528 2 527 -170 0 -170 0 2 -527z"/>
<path d="M23040 18610 l0 -530 165 0 165 0 0 530 0 530 -165 0 -165 0 0 -530z"/>
<path d="M25937 19054 c-66 -20 -130 -85 -145 -146 -7 -26 -12 -81 -12 -122
l0 -76 45 0 45 0 0 -200 0 -200 -46 0 -47 0 5 -68 c4 -50 13 -83 34 -121 51
-94 95 -111 290 -111 l144 0 0 -350 0 -350 65 0 65 0 0 350 0 350 143 0 c128
0 147 2 192 24 58 27 88 57 110 108 22 55 22 714 0 779 -22 62 -79 116 -139
134 -72 22 -679 20 -749 -1z m600 -440 c-2 -2 -106 -3 -231 -2 l-226 3 116
174 116 173 115 -172 c63 -94 113 -174 110 -176z m3 -151 c0 -14 -223 -344
-231 -341 -7 3 -229 335 -229 343 0 3 104 5 230 5 127 0 230 -3 230 -7z"/>
<path d="M20500 18615 l0 -435 125 0 125 0 -2 433 -3 432 -122 3 -123 3 0
-436z"/>
<path d="M23510 18615 l0 -435 125 0 125 0 0 435 0 435 -125 0 -125 0 0 -435z"/>
<path d="M20150 18615 l0 -335 85 0 85 0 0 335 0 335 -85 0 -85 0 0 -335z"/>
<path d="M23940 18615 l0 -335 80 0 80 0 0 335 0 335 -80 0 -80 0 0 -335z"/>
<path d="M31684 18321 c-84 -22 -124 -70 -124 -152 0 -48 3 -55 39 -90 22 -20
62 -44 89 -53 51 -17 92 -48 92 -69 0 -48 -78 -70 -156 -43 -26 9 -48 16 -50
16 -1 0 -7 -21 -13 -47 -14 -55 -12 -57 74 -72 181 -32 307 77 247 212 -19 42
-27 49 -104 86 -99 47 -114 61 -98 90 13 25 49 35 98 28 20 -4 46 -8 56 -9 15
-2 22 7 32 40 13 42 12 43 -13 53 -37 14 -132 20 -169 10z"/>
<path d="M32043 18271 l-61 -29 9 -39 c5 -21 9 -41 9 -46 0 -4 18 2 40 13 21
11 44 20 50 20 6 0 10 -65 10 -190 l0 -190 55 0 55 0 0 245 0 245 -52 0 c-36
-1 -72 -10 -115 -29z"/>
<path d="M32463 18271 l-61 -29 9 -39 c5 -21 9 -41 9 -46 0 -4 18 2 40 13 21
11 44 20 50 20 6 0 10 -65 10 -190 l0 -190 55 0 55 0 0 245 0 245 -52 0 c-36
-1 -72 -10 -115 -29z"/>
<path d="M29802 18000 c-67 -42 -78 -136 -23 -191 52 -51 130 -48 183 8 18 19
23 36 23 79 0 47 -4 58 -31 85 -42 41 -104 49 -152 19z"/>
<path d="M29811 17522 c-37 -20 -71 -73 -71 -110 0 -76 65 -136 139 -129 125
13 152 194 36 243 -45 18 -63 18 -104 -4z"/>
<path d="M21311 17505 c-91 -77 -42 -225 75 -225 25 0 56 7 70 16 74 49 71
179 -6 219 -46 24 -103 19 -139 -10z"/>
<path d="M30730 17304 c-103 -27 -198 -81 -275 -158 -115 -114 -171 -238 -182
-396 -11 -176 49 -332 176 -459 125 -126 256 -181 431 -181 111 0 191 19 284
68 137 72 244 198 293 347 22 67 26 98 27 190 0 94 -4 121 -27 188 -70 203
-229 350 -432 402 -74 19 -222 18 -295 -1z m240 -44 c104 -17 221 -78 299
-158 110 -112 161 -236 161 -389 0 -153 -51 -275 -165 -389 -80 -81 -162 -126
-270 -149 -95 -20 -157 -19 -249 5 -107 27 -169 63 -252 145 -112 111 -164
233 -164 390 0 142 48 268 143 371 129 141 307 203 497 174z"/>
<path d="M31180 16874 c-47 -20 -70 -51 -70 -95 0 -48 31 -86 95 -114 58 -26
78 -46 69 -69 -11 -28 -79 -34 -136 -11 -13 5 -19 -1 -26 -27 -5 -19 -5 -37 0
-43 14 -15 145 -19 179 -5 44 19 69 56 69 104 0 56 -19 79 -95 115 -48 23 -65
36 -65 51 0 31 42 46 87 32 43 -13 41 -14 52 26 9 28 7 31 -21 41 -43 15 -96
13 -138 -5z"/>
<path d="M30400 16690 l0 -190 78 0 c99 0 145 13 176 51 37 44 35 91 -5 132
-18 18 -27 33 -20 35 6 2 18 17 27 34 12 24 13 36 4 64 -17 51 -51 64 -165 64
l-95 0 0 -190z m161 120 c42 -23 0 -86 -53 -78 -19 2 -23 10 -26 46 -3 41 -2
42 28 42 17 0 40 -5 51 -10z m9 -158 c31 -25 21 -65 -19 -82 -52 -21 -66 -11
-69 48 l-3 52 34 0 c19 0 45 -8 57 -18z"/>
<path d="M30740 16745 c0 -206 21 -240 150 -240 73 0 81 2 108 28 40 38 52 92
52 231 l0 116 -45 0 -45 0 0 -122 c0 -68 -3 -133 -6 -146 -8 -29 -52 -52 -79
-42 -44 16 -50 37 -53 177 l-4 133 -39 0 -39 0 0 -135z"/>
<path d="M26541 17222 c-20 -40 -218 -462 -257 -550 l-24 -53 52 -24 53 -24
-38 0 c-79 -2 -127 -51 -127 -130 0 -76 76 -128 158 -110 99 22 128 146 49
213 l-34 29 148 316 c81 174 145 319 141 323 -4 4 -28 16 -54 27 l-48 20 -19
-37z"/>
<path d="M31790 16710 l0 -520 705 0 705 0 0 520 0 520 -705 0 -705 0 0 -520z
m1100 269 c24 -13 55 -40 68 -59 20 -30 23 -44 20 -97 -3 -52 -9 -68 -33 -93
-16 -16 -37 -32 -47 -36 -16 -5 -11 -11 27 -35 86 -54 108 -163 51 -249 -13
-20 -47 -48 -77 -65 -47 -25 -67 -30 -150 -33 -69 -3 -111 0 -150 12 -81 24
-80 22 -62 95 14 56 18 62 37 56 129 -42 190 -42 232 0 30 30 31 66 1 101 -21
24 -33 28 -98 33 l-74 6 -3 63 -3 62 58 0 c76 0 123 27 123 69 0 20 -8 35 -22
45 -31 22 -114 20 -166 -4 -32 -14 -44 -16 -47 -7 -3 7 -11 34 -19 60 -14 47
-14 48 11 64 72 48 247 54 323 12z m-440 -33 c0 -49 -13 -81 -137 -340 l-138
-286 -92 0 -92 0 134 263 c74 145 135 267 135 270 0 4 -67 7 -150 7 l-150 0 0
63 c0 35 3 67 7 70 3 4 114 7 245 7 l238 0 0 -54z"/>
<path d="M21311 17045 c-40 -34 -56 -84 -41 -130 43 -131 240 -103 240 35 0
101 -122 159 -199 95z"/>
<path d="M29836 17049 c-70 -20 -109 -94 -86 -163 44 -135 240 -102 240 41 0
86 -75 145 -154 122z"/>
<path d="M4220 16660 l0 -210 40 0 40 0 0 210 0 210 -40 0 -40 0 0 -210z"/>
<path d="M5520 16796 l0 -75 -27 15 c-37 19 -61 18 -102 -4 -44 -24 -71 -74
-71 -134 0 -95 43 -148 119 -148 26 0 56 7 69 16 20 14 22 14 22 0 0 -12 10
-16 40 -16 l40 0 0 210 0 210 -45 0 -45 0 0 -74z m-22 -132 c18 -12 22 -25 22
-64 0 -74 -45 -105 -90 -60 -29 29 -27 84 5 115 28 29 33 30 63 9z"/>
<path d="M6300 16796 l0 -75 -27 15 c-37 19 -61 18 -102 -4 -44 -24 -71 -74
-71 -134 0 -95 43 -148 119 -148 26 0 56 7 69 16 20 14 22 14 22 0 0 -12 10
-16 40 -16 l40 0 0 210 0 210 -45 0 -45 0 0 -74z m-22 -132 c18 -12 22 -25 22
-64 0 -74 -45 -105 -90 -60 -29 29 -27 84 5 115 28 29 33 30 63 9z"/>
<path d="M7770 16796 l0 -75 -27 15 c-37 19 -61 18 -102 -4 -44 -24 -71 -74
-71 -134 0 -95 43 -148 119 -148 26 0 56 7 69 16 20 14 22 14 22 0 0 -12 10
-16 40 -16 l40 0 0 210 0 210 -45 0 -45 0 0 -74z m-22 -132 c18 -12 22 -25 22
-64 0 -74 -45 -105 -90 -60 -29 29 -27 84 5 115 28 29 33 30 63 9z"/>
<path d="M9410 16660 l0 -210 40 0 40 0 0 210 0 210 -40 0 -40 0 0 -210z"/>
<path d="M9570 16660 l0 -210 40 0 40 0 0 210 0 210 -40 0 -40 0 0 -210z"/>
<path d="M3310 16650 l0 -200 125 0 125 0 0 40 0 40 -80 0 -80 0 0 45 0 45 70
0 70 0 0 35 0 35 -70 0 -70 0 0 40 0 40 75 0 75 0 0 40 0 40 -120 0 -120 0 0
-200z"/>
<path d="M7035 16838 c-83 -29 -135 -103 -135 -193 0 -54 25 -120 56 -147 51
-45 168 -62 257 -37 l37 10 0 104 0 105 -75 0 -75 0 0 -35 c0 -32 2 -35 31
-35 29 0 30 -1 27 -42 -3 -38 -6 -43 -29 -46 -42 -5 -96 23 -114 59 -38 72
-16 147 52 180 39 19 51 20 96 11 29 -6 53 -9 55 -7 2 1 5 18 8 37 6 33 4 35
-26 42 -47 9 -130 6 -165 -6z"/>
<path d="M8475 16838 c-83 -29 -135 -103 -135 -193 0 -54 25 -120 56 -147 51
-45 168 -62 257 -37 l37 10 0 104 0 105 -75 0 -75 0 0 -35 c0 -32 2 -35 31
-35 29 0 30 -1 27 -42 -3 -38 -6 -43 -29 -46 -42 -5 -96 23 -114 59 -38 72
-16 147 52 180 39 19 51 20 96 11 29 -6 53 -9 55 -7 2 1 5 18 8 37 6 33 4 35
-26 42 -47 9 -130 6 -165 -6z"/>
<path d="M3673 16739 c-41 -12 -63 -44 -63 -90 0 -40 15 -58 75 -86 51 -23 53
-48 5 -48 -19 1 -45 4 -57 8 -18 7 -22 3 -28 -24 -10 -43 5 -50 92 -47 89 4
113 21 113 84 0 50 -15 68 -78 95 -56 24 -51 45 12 42 41 -1 47 1 52 24 4 13
3 28 -2 33 -14 14 -86 20 -121 9z"/>
<path d="M3995 16730 c-47 -24 -45 -24 -45 -5 0 11 -11 15 -41 15 l-42 0 6
-67 c4 -38 7 -128 7 -200 l0 -133 40 0 40 0 0 65 c0 60 9 80 25 55 3 -5 28
-10 54 -10 80 0 131 58 131 150 0 113 -85 177 -175 130z m66 -77 c8 -9 14 -35
14 -58 0 -51 -18 -75 -55 -75 -37 0 -53 23 -53 75 0 24 5 51 13 59 17 21 64
20 81 -1z"/>
<path d="M4423 16739 c-43 -10 -47 -16 -37 -55 5 -19 9 -20 43 -11 44 12 91 3
91 -18 0 -10 -11 -15 -34 -15 -78 0 -126 -40 -126 -105 0 -56 30 -85 89 -85
23 0 51 5 61 10 13 7 21 7 25 0 3 -5 23 -10 43 -10 l37 0 -3 113 c-4 115 -13
146 -51 166 -30 16 -92 21 -138 10z m105 -173 c5 -24 -28 -57 -52 -54 -14 2
-22 12 -24 29 -3 22 2 29 25 37 35 13 47 10 51 -12z"/>
<path d="M4823 16743 c-12 -2 -27 -11 -33 -19 -16 -18 -30 -18 -30 1 0 11 -11
15 -41 15 l-42 0 6 -67 c4 -38 7 -103 7 -145 l0 -78 40 0 40 0 0 83 c0 90 14
130 47 135 38 6 53 -32 53 -130 l0 -88 45 0 45 0 0 100 c0 117 -14 161 -59
184 -30 16 -37 17 -78 9z"/>
<path d="M5073 16739 c-43 -10 -47 -16 -37 -55 5 -19 9 -20 43 -11 44 12 91 3
91 -18 0 -10 -11 -15 -34 -15 -78 0 -126 -40 -126 -105 0 -56 30 -85 89 -85
23 0 51 5 61 10 13 7 21 7 25 0 3 -5 23 -10 43 -10 l37 0 -3 113 c-4 115 -13
146 -51 166 -30 16 -92 21 -138 10z m105 -173 c5 -24 -28 -57 -52 -54 -14 2
-22 12 -24 29 -3 22 2 29 25 37 35 13 47 10 51 -12z"/>
<path d="M5772 16740 c-118 -28 -140 -222 -32 -277 25 -13 128 -17 166 -7 16
4 19 11 16 36 -5 30 -6 30 -49 24 -51 -7 -113 14 -113 38 0 13 15 16 90 16
l90 0 0 43 c0 93 -74 150 -168 127z m80 -84 c15 -22 7 -26 -42 -26 -56 0 -67
17 -28 44 22 16 53 8 70 -18z"/>
<path d="M8022 16740 c-118 -28 -140 -222 -32 -277 25 -13 128 -17 166 -7 16
4 19 11 16 36 -5 30 -6 30 -49 24 -51 -7 -113 14 -113 38 0 13 15 16 90 16
l90 0 0 43 c0 93 -74 150 -168 127z m80 -84 c15 -22 7 -26 -42 -26 -56 0 -67
17 -28 44 22 16 53 8 70 -18z"/>
<path d="M8803 16739 c-43 -10 -47 -16 -37 -55 5 -19 9 -20 43 -11 44 12 91 3
91 -18 0 -10 -11 -15 -34 -15 -78 0 -126 -40 -126 -105 0 -56 30 -85 89 -85
23 0 51 5 61 10 13 7 21 7 25 0 3 -5 23 -10 43 -10 l37 0 -3 113 c-4 115 -13
146 -51 166 -30 16 -92 21 -138 10z m105 -173 c5 -24 -28 -57 -52 -54 -14 2
-22 12 -24 29 -3 22 2 29 25 37 35 13 47 10 51 -12z"/>
<path d="M9812 16740 c-118 -28 -140 -222 -32 -277 25 -13 128 -17 166 -7 16
4 19 11 16 36 -5 30 -6 30 -49 24 -51 -7 -113 14 -113 38 0 13 15 16 90 16
l90 0 0 43 c0 93 -74 150 -168 127z m80 -84 c15 -22 7 -26 -42 -26 -56 0 -67
17 -28 44 22 16 53 8 70 -18z"/>
<path d="M6450 16648 c0 -109 12 -162 43 -183 27 -19 97 -19 123 0 25 19 34
19 34 0 0 -11 11 -15 41 -15 l42 0 -7 77 c-3 42 -6 107 -6 145 l0 68 -40 0
-40 0 0 -82 c0 -96 -14 -133 -50 -133 -36 0 -50 37 -50 133 l0 82 -45 0 -45 0
0 -92z"/>
<path d="M9060 16648 c0 -109 12 -162 43 -183 27 -19 97 -19 123 0 25 19 34
19 34 0 0 -11 11 -15 41 -15 l42 0 -7 77 c-3 42 -6 107 -6 145 l0 68 -40 0
-40 0 0 -82 c0 -96 -14 -133 -50 -133 -36 0 -50 37 -50 133 l0 82 -45 0 -45 0
0 -92z"/>
<path d="M21315 16538 c-85 -79 -35 -208 80 -208 70 0 125 53 125 121 0 35
-28 84 -59 102 -48 28 -105 22 -146 -15z"/>
<path d="M21811 16544 c-17 -14 -36 -43 -42 -64 -10 -32 -9 -44 7 -76 27 -53
62 -76 117 -76 56 0 82 14 107 55 24 38 25 87 5 127 -33 63 -138 81 -194 34z"/>
<path d="M22318 16554 c-36 -19 -58 -63 -58 -113 0 -107 148 -155 222 -72 23
26 28 41 28 82 0 45 -4 55 -34 85 -30 30 -40 34 -82 34 -27 -1 -61 -7 -76 -16z"/>
<path d="M22808 16554 c-53 -28 -73 -105 -44 -163 22 -41 61 -63 113 -63 55 0
90 23 117 76 16 32 17 44 7 76 -17 57 -61 90 -119 90 -26 -1 -59 -7 -74 -16z"/>
<path d="M23285 16538 c-86 -80 -34 -208 85 -208 102 0 157 84 115 174 -20 42
-63 66 -119 66 -38 0 -52 -6 -81 -32z"/>
<path d="M23781 16544 c-44 -37 -58 -94 -34 -141 26 -52 61 -75 116 -75 56 0
82 14 107 55 24 38 25 87 5 127 -33 63 -138 81 -194 34z"/>
<path d="M24288 16554 c-36 -19 -58 -63 -58 -113 0 -107 148 -155 222 -72 23
26 28 41 28 82 0 45 -4 55 -34 85 -30 30 -40 34 -82 34 -27 -1 -61 -7 -76 -16z"/>
<path d="M24782 16556 c-76 -42 -81 -161 -9 -209 70 -45 185 -4 202 73 9 42
-11 95 -46 125 -34 28 -106 34 -147 11z"/>
<path d="M25255 16538 c-86 -80 -34 -208 85 -208 102 0 157 84 115 174 -20 42
-63 66 -119 66 -38 0 -52 -6 -81 -32z"/>
<path d="M25751 16544 c-44 -37 -58 -94 -34 -141 26 -52 61 -75 116 -75 56 0
82 14 107 55 24 38 25 87 5 127 -33 63 -138 81 -194 34z"/>
<path d="M26752 16556 c-76 -42 -81 -161 -9 -209 73 -47 187 -3 203 79 14 75
-46 144 -124 144 -26 -1 -57 -6 -70 -14z"/>
<path d="M27225 16538 c-109 -101 13 -261 145 -193 58 30 77 113 41 169 -26
39 -57 55 -109 56 -34 0 -49 -6 -77 -32z"/>
<path d="M29791 16545 c-35 -30 -55 -83 -46 -125 3 -16 22 -43 41 -60 81 -70
204 -16 204 90 0 101 -122 159 -199 95z"/>
<path d="M7332 16544 c-24 -17 -30 -62 -10 -82 13 -13 47 -16 72 -6 11 4 16
19 16 45 0 33 -4 41 -26 49 -31 12 -25 13 -52 -6z"/>
<path d="M27557 16513 c-4 -3 -7 -269 -7 -590 l0 -583 1065 0 1065 0 -2 588
-3 587 -382 3 -383 2 0 -65 0 -65 320 0 320 0 0 -465 0 -465 -935 0 -935 0 0
465 0 465 325 0 326 0 -3 63 -3 62 -381 3 c-209 1 -383 -1 -387 -5z"/>
<path d="M7060 16078 c0 -79 -3 -173 -7 -210 l-6 -68 42 0 c30 0 41 4 41 16 0
14 2 14 22 0 13 -9 43 -16 69 -16 85 0 136 69 127 171 -6 60 -30 96 -74 115
-34 14 -61 12 -116 -11 -16 -6 -18 0 -18 69 l0 76 -40 0 -40 0 0 -142z m177
-74 c22 -22 25 -32 20 -67 -6 -44 -27 -67 -63 -67 -32 0 -49 27 -49 77 0 35 5
49 24 64 30 25 37 24 68 -7z"/>
<path d="M8350 16195 c-17 -20 -5 -62 20 -70 31 -10 59 4 66 31 8 31 -11 54
-46 54 -15 0 -33 -7 -40 -15z"/>
<path d="M5925 16181 c-22 -10 -50 -29 -62 -42 -91 -100 -58 -284 60 -328 32
-12 166 -15 183 -3 7 4 9 21 7 40 -5 32 -5 32 -52 26 -90 -12 -152 36 -153
118 -2 92 60 146 152 133 48 -7 48 -6 55 25 5 23 3 35 -6 41 -25 16 -142 10
-184 -10z"/>
<path d="M28782 16160 c-36 -22 -62 -72 -62 -120 0 -25 -4 -30 -25 -30 -23 0
-25 -4 -25 -46 0 -41 2 -45 23 -42 22 3 22 2 25 -139 l3 -143 54 0 55 0 0 139
0 140 38 3 c36 3 37 4 40 46 l3 42 -36 0 c-43 0 -54 20 -31 55 11 17 26 25 45
25 30 0 41 18 41 68 0 20 -4 22 -57 22 -41 0 -68 -6 -91 -20z"/>
<path d="M29091 16115 c-17 -30 -31 -57 -31 -60 0 -3 17 -5 39 -5 39 0 51 10
124 108 7 9 -3 12 -46 12 l-55 0 -31 -55z"/>
<path d="M5012 16090 c-118 -28 -140 -222 -32 -277 25 -13 128 -17 166 -7 16
4 19 11 16 36 -5 30 -6 30 -49 24 -51 -7 -113 14 -113 38 0 13 15 16 90 16
l90 0 0 43 c0 93 -74 150 -168 127z m80 -84 c15 -22 7 -26 -42 -26 -56 0 -67
17 -28 44 22 16 53 8 70 -18z"/>
<path d="M5370 16093 c-8 -3 -25 -15 -37 -26 l-23 -20 0 21 c0 19 -6 22 -41
22 l-42 0 6 -67 c4 -38 7 -103 7 -145 l0 -78 40 0 40 0 0 69 c0 103 18 141 68
141 19 0 22 5 22 45 0 45 -6 50 -40 38z"/>
<path d="M5513 16089 c-41 -12 -63 -44 -63 -90 0 -40 15 -58 75 -86 51 -23 53
-48 5 -48 -19 1 -45 4 -57 8 -18 7 -22 3 -28 -24 -10 -43 5 -50 92 -47 89 4
113 21 113 84 0 50 -15 68 -78 95 -56 24 -51 45 12 42 41 -1 47 1 52 24 4 13
3 28 -2 33 -14 14 -86 20 -121 9z"/>
<path d="M6240 16088 c-66 -19 -100 -68 -100 -145 0 -91 55 -143 151 -143 70
0 112 27 135 85 28 73 7 154 -49 189 -31 20 -95 27 -137 14z m82 -75 c23 -21
25 -99 2 -131 -34 -48 -89 -9 -89 63 0 69 46 106 87 68z"/>
<path d="M6970 16093 c-8 -3 -25 -15 -37 -26 l-23 -20 0 21 c0 19 -6 22 -41
22 l-42 0 6 -67 c4 -38 7 -103 7 -145 l0 -78 40 0 40 0 0 69 c0 103 18 141 68
141 19 0 22 5 22 45 0 45 -6 50 -40 38z"/>
<path d="M7492 16090 c-118 -28 -140 -222 -32 -277 25 -13 128 -17 166 -7 16
4 19 11 16 36 -5 30 -6 30 -49 24 -51 -7 -113 14 -113 38 0 13 15 16 90 16
l90 0 0 43 c0 93 -74 150 -168 127z m80 -84 c15 -22 7 -26 -42 -26 -56 0 -67
17 -28 44 22 16 53 8 70 -18z"/>
<path d="M8100 16088 c-66 -19 -100 -68 -100 -145 0 -91 55 -143 151 -143 70
0 112 27 135 85 28 73 7 154 -49 189 -31 20 -95 27 -137 14z m82 -75 c23 -21
25 -99 2 -131 -34 -48 -89 -9 -89 63 0 69 46 106 87 68z"/>
<path d="M8592 16090 c-118 -28 -140 -222 -32 -277 25 -13 128 -17 166 -7 16
4 19 11 16 36 -5 30 -6 30 -49 24 -51 -7 -113 14 -113 38 0 13 15 16 90 16
l90 0 0 43 c0 93 -74 150 -168 127z m80 -84 c15 -22 7 -26 -42 -26 -56 0 -67
17 -28 44 22 16 53 8 70 -18z"/>
<path d="M4600 16078 c1 -7 22 -71 49 -143 l47 -130 46 -3 c36 -2 47 1 53 15
31 80 95 256 95 263 0 6 -20 10 -45 10 l-44 0 -21 -69 c-11 -37 -20 -75 -20
-84 0 -9 -4 -18 -8 -21 -5 -3 -20 34 -33 82 l-24 87 -48 3 c-34 2 -47 -1 -47
-10z"/>
<path d="M6490 15998 c0 -109 12 -162 43 -183 27 -19 97 -19 123 0 25 19 34
19 34 0 0 -11 11 -15 41 -15 l42 0 -7 77 c-3 42 -6 107 -6 145 l0 68 -40 0
-40 0 0 -82 c0 -96 -14 -133 -50 -133 -36 0 -50 37 -50 133 l0 82 -45 0 -45 0
0 -92z"/>
<path d="M7690 16078 c1 -7 22 -71 49 -143 l47 -130 46 -3 c36 -2 47 1 53 15
31 80 95 256 95 263 0 6 -20 10 -45 10 l-44 0 -21 -69 c-11 -37 -20 -75 -20
-84 0 -9 -4 -18 -8 -21 -5 -3 -20 34 -33 82 l-24 87 -48 3 c-34 2 -47 -1 -47
-10z"/>
<path d="M8350 15945 l0 -145 40 0 40 0 0 145 0 145 -40 0 -40 0 0 -145z"/>
<path d="M31530 15660 l0 -410 835 0 835 0 0 410 0 410 -835 0 -835 0 0 -410z
m448 -12 l-3 -303 -65 0 -65 0 -3 232 -2 232 -65 -35 -65 -36 -20 47 c-11 26
-20 48 -20 51 0 2 24 15 53 29 28 15 70 39 92 55 33 24 50 28 103 29 l62 1 -2
-302z m592 254 c0 -32 -8 -62 -25 -92 -87 -155 -178 -370 -187 -440 -3 -24 -7
-25 -72 -28 l-68 -3 4 59 c4 62 4 62 142 325 l66 127 -145 0 -145 0 0 50 0 50
215 0 215 0 0 -48z m420 -141 l0 -190 33 -3 c31 -3 32 -5 35 -50 l3 -48 -35 0
-35 0 -3 -62 -3 -63 -60 0 -60 0 -3 63 -3 62 -134 0 -135 0 0 50 c0 60 2 64
116 246 127 203 106 183 202 184 l82 0 0 -189z"/>
<path d="M32836 15778 c-9 -18 -35 -60 -56 -93 -22 -33 -46 -72 -55 -87 l-16
-28 76 0 75 0 0 120 c0 66 -2 120 -4 120 -2 0 -11 -15 -20 -32z"/>
<path d="M28071 16008 c-59 -20 -107 -75 -120 -138 -30 -153 88 -266 242 -231
50 12 50 13 43 58 l-7 38 -48 -3 c-59 -4 -85 8 -107 50 -22 43 -11 90 28 124
28 23 38 26 79 21 l47 -6 7 40 c4 22 5 43 2 46 -12 11 -133 12 -166 1z"/>
<path d="M28355 16007 c-35 -12 -40 -17 -38 -42 4 -52 8 -56 47 -40 51 21 92
19 118 -7 l22 -22 -66 -12 c-86 -16 -122 -36 -142 -78 -20 -42 -20 -67 -2
-110 25 -61 126 -83 183 -41 24 19 33 18 33 0 0 -11 13 -15 53 -15 l52 0 -3
127 c-3 155 -12 195 -53 224 -38 27 -144 35 -204 16z m145 -226 c0 -36 -30
-63 -67 -59 -57 6 -35 80 27 90 34 5 40 1 40 -31z"/>
<path d="M29044 16009 c-104 -30 -154 -204 -87 -305 36 -56 147 -82 256 -61
39 8 45 22 31 74 -5 18 -10 20 -37 12 -18 -5 -48 -9 -67 -9 -40 0 -100 33
-100 55 0 13 19 15 115 15 l115 0 0 55 c0 131 -97 202 -226 164z m105 -95 c12
-15 21 -31 21 -35 0 -5 -29 -9 -65 -9 -72 0 -83 12 -45 50 28 28 64 25 89 -6z"/>
<path d="M5484 15541 c-84 -22 -124 -70 -124 -152 0 -48 3 -55 39 -90 22 -20
62 -44 89 -53 51 -17 92 -48 92 -69 0 -48 -78 -70 -156 -43 -26 9 -48 16 -50
16 -1 0 -7 -21 -13 -47 -14 -55 -12 -57 74 -72 181 -32 307 77 247 212 -19 42
-27 49 -104 86 -99 47 -114 61 -98 90 13 25 49 35 98 28 20 -4 46 -8 56 -9 15
-2 22 7 32 40 13 42 12 43 -13 53 -37 14 -132 20 -169 10z"/>
<path d="M7144 15541 c-84 -22 -124 -70 -124 -152 0 -48 3 -55 39 -90 22 -20
62 -44 89 -53 51 -17 92 -48 92 -69 0 -48 -78 -70 -156 -43 -26 9 -48 16 -50
16 -1 0 -7 -21 -13 -47 -14 -55 -12 -57 74 -72 181 -32 307 77 247 212 -19 42
-27 49 -104 86 -99 47 -114 61 -98 90 13 25 49 35 98 28 20 -4 46 -8 56 -9 15
-2 22 7 32 40 13 42 12 43 -13 53 -37 14 -132 20 -169 10z"/>
<path d="M7520 15524 c-43 -15 -90 -38 -90 -46 0 -14 28 -78 35 -78 3 0 17 7
31 16 60 40 144 12 144 -48 0 -47 -23 -79 -124 -176 -86 -82 -96 -95 -96 -127
l0 -35 175 0 175 0 0 50 0 50 -86 0 -87 0 71 74 c77 81 98 129 89 199 -7 53
-32 85 -80 108 -39 17 -121 24 -157 13z"/>
<path d="M5843 15491 l-61 -29 9 -39 c5 -21 9 -41 9 -46 0 -4 18 2 40 13 21
11 44 20 50 20 6 0 10 -65 10 -190 l0 -190 55 0 55 0 0 245 0 245 -52 0 c-36
-1 -72 -10 -115 -29z"/>
<path d="M9175 15414 c-154 -33 -314 -146 -393 -277 -62 -103 -85 -188 -86
-312 0 -179 54 -314 176 -436 236 -237 620 -236 859 2 78 77 141 194 164 304
70 333 -147 657 -482 721 -92 17 -147 17 -238 -2z m259 -59 c245 -64 416 -283
416 -533 0 -158 -52 -285 -159 -391 -111 -111 -233 -161 -391 -161 -137 0
-249 40 -353 125 -65 53 -139 159 -168 240 -26 75 -36 219 -19 298 40 193 208
369 403 422 70 18 199 19 271 0z"/>
<path d="M9610 14974 c-47 -20 -70 -51 -70 -95 0 -48 31 -86 95 -114 58 -26
78 -46 69 -69 -11 -28 -79 -34 -136 -11 -13 5 -19 -1 -26 -27 -5 -19 -5 -37 0
-43 14 -15 145 -19 179 -5 44 19 69 56 69 104 0 56 -19 79 -95 115 -48 23 -65
36 -65 51 0 31 42 46 87 32 43 -13 41 -14 52 26 9 28 7 31 -21 41 -43 15 -96
13 -138 -5z"/>
<path d="M8820 14790 l0 -190 78 0 c99 0 145 13 176 51 37 44 35 91 -5 132
-18 18 -27 33 -20 35 6 2 18 17 27 34 12 24 13 36 4 64 -17 51 -51 64 -165 64
l-95 0 0 -190z m161 120 c42 -23 0 -86 -53 -78 -19 2 -23 10 -26 46 -3 41 -2
42 28 42 17 0 40 -5 51 -10z m9 -158 c31 -25 21 -65 -19 -82 -52 -21 -66 -11
-69 48 l-3 52 34 0 c19 0 45 -8 57 -18z"/>
<path d="M9160 14845 c0 -206 21 -240 150 -240 73 0 81 2 108 28 40 38 52 92
52 231 l0 116 -45 0 -45 0 0 -122 c0 -68 -3 -133 -6 -146 -8 -29 -52 -52 -79
-42 -44 16 -50 37 -53 177 l-4 133 -39 0 -39 0 0 -135z"/>
<path d="M10070 14810 l0 -410 835 0 835 0 0 410 0 410 -835 0 -835 0 0 -410z
m445 -5 l0 -300 -67 -3 -68 -3 0 231 0 230 -53 -30 c-72 -40 -82 -39 -100 14
-16 48 -13 57 28 70 11 3 52 26 90 51 62 40 75 45 120 43 l50 -3 0 -300z m593
255 c3 -40 -7 -64 -76 -200 -65 -127 -108 -236 -138 -348 -3 -9 -22 -12 -71
-10 l-68 3 3 45 c3 47 44 137 151 338 l61 112 -145 0 -145 0 0 48 c0 27 3 52
7 56 4 3 99 5 212 4 l206 -3 3 -45z m420 -142 l2 -187 33 -3 c31 -3 32 -4 32
-53 0 -49 -1 -50 -32 -53 l-33 -3 0 -60 0 -59 -65 0 -65 0 0 60 0 59 -132 3
-133 3 -3 55 c-3 56 7 77 118 245 8 12 28 44 44 71 16 27 40 64 53 82 25 33
25 33 101 30 l77 -3 3 -187z"/>
<path d="M11327 14850 c-37 -60 -67 -112 -67 -115 0 -3 32 -5 70 -5 l70 0 0
115 c0 63 -2 115 -3 115 -2 0 -34 -49 -70 -110z"/>
<path d="M31510 14725 l0 -425 850 0 850 0 0 425 0 425 -850 0 -850 0 0 -425z
m518 -8 l2 -307 -70 0 -70 0 0 230 c0 127 -2 230 -3 230 -2 0 -28 -13 -58 -30
-30 -16 -57 -30 -61 -30 -10 0 -48 75 -48 93 0 8 24 24 53 36 29 12 73 36 98
54 38 27 54 32 100 32 l54 -1 3 -307z m532 257 c0 -36 -11 -67 -51 -142 -70
-132 -73 -138 -108 -214 -17 -38 -38 -99 -47 -138 l-16 -70 -74 0 c-41 0 -74
1 -74 3 0 2 5 30 11 63 10 55 43 125 167 356 l42 77 -143 3 -142 3 -3 44 c-2
24 -1 48 1 55 3 8 66 10 221 8 l216 -3 0 -45z m400 -9 l0 -55 -110 0 -110 0 0
-27 c0 -16 -3 -38 -6 -49 -5 -19 0 -22 43 -28 147 -21 230 -124 198 -248 -28
-110 -138 -178 -268 -164 -48 5 -137 37 -137 50 0 2 12 25 26 50 20 36 30 46
43 40 93 -40 131 -40 175 1 36 34 36 87 -2 124 -24 25 -37 28 -110 34 -46 3
-86 8 -90 11 -6 6 15 302 22 314 2 4 76 6 165 4 l161 -3 0 -54z"/>
<path d="M6095 14805 c-80 -28 -109 -106 -67 -183 9 -17 128 -182 265 -366
248 -335 276 -366 344 -381 38 -8 107 20 139 56 31 36 499 670 512 696 7 12
12 42 12 67 0 55 -35 101 -88 116 -23 6 -232 10 -557 10 -422 -1 -528 -4 -560
-15z m998 -167 c-17 -29 -407 -554 -423 -571 -17 -18 -26 -7 -230 270 -117
158 -218 294 -223 301 -8 9 81 12 437 12 355 0 446 -3 439 -12z"/>
<path d="M8660 13105 l0 -645 1086 0 1086 0 -4 -438 -4 -438 -87 -186 c-48
-102 -87 -190 -87 -195 0 -9 83 -53 99 -53 5 0 50 90 102 200 l93 200 583 0
583 0 0 -427 0 -428 8635 3 8635 4 0 -2019 0 -2018 -8322 -2 c-4578 -2 -8916
-5 -9640 -8 l-1318 -5 0 -30 0 -30 -295 0 -295 0 0 30 0 30 -675 0 -675 0 0
-60 0 -60 340 0 340 0 0 -470 0 -470 -1000 0 -1000 0 0 470 0 470 345 0 345 0
0 60 0 60 -410 0 -410 0 0 -545 0 -545 -105 0 -105 0 0 -125 0 -125 1210 0
1210 0 0 -215 0 -215 885 0 885 0 -2 -772 -3 -773 -3277 -3 -3278 -2 0 -120 0
-120 3405 0 3405 0 0 1655 0 1655 719 0 719 0 -16 -47 c-15 -42 -17 -116 -17
-608 0 -516 1 -565 18 -620 55 -175 155 -279 312 -320 53 -13 934 -15 8355
-15 7415 0 8302 2 8355 15 166 43 273 137 327 286 22 63 22 73 26 574 4 616
-1 671 -82 809 l-26 45 0 2142 0 2141 40 48 c53 64 87 139 100 226 7 48 10
246 8 595 -4 474 -6 529 -22 579 -60 180 -163 281 -323 315 -101 22 -16663 22
-16764 1 -123 -26 -241 -102 -296 -190 -57 -89 -66 -135 -71 -363 l-4 -213
-609 0 -609 0 -2 453 -3 452 -1082 3 -1083 2 0 520 0 520 -125 0 -125 0 0
-645z m4318 -861 c15 -10 22 -25 22 -49 0 -29 -10 -43 -77 -104 l-78 -71 149
0 c168 0 186 -6 186 -66 0 -56 -23 -64 -184 -64 l-140 0 72 -73 c51 -52 72
-80 72 -98 0 -38 -23 -62 -58 -62 -25 0 -50 18 -137 99 -59 54 -132 122 -162
149 l-56 51 164 152 c102 95 171 152 184 152 11 0 31 -7 43 -16z m3282 -70 c0
-41 -2 -45 -20 -39 -25 8 -50 -10 -50 -36 0 -14 7 -19 30 -19 28 0 30 -3 30
-35 0 -32 -2 -35 -30 -35 l-30 0 0 -110 0 -110 -50 0 -50 0 0 110 c0 103 -1
110 -20 110 -16 0 -20 7 -20 35 0 28 4 35 20 35 13 0 20 7 20 19 0 69 54 121
128 121 l42 0 0 -46z m-260 29 c0 -3 -15 -25 -32 -49 -29 -37 -38 -43 -70 -44
-21 0 -38 3 -38 6 0 3 12 25 26 50 24 41 28 44 70 44 24 0 44 -3 44 -7z m-392
-25 c44 -13 92 -55 108 -95 8 -18 14 -58 14 -90 0 -74 -30 -136 -81 -170 -46
-30 -161 -50 -232 -39 l-47 7 2 197 3 197 55 6 c63 7 130 2 178 -13z m-866
-145 l3 -158 78 -3 77 -3 0 -39 0 -40 -130 0 -130 0 0 200 0 200 50 0 49 0 3
-157z m6843 72 c211 -55 381 -230 431 -443 21 -86 14 -222 -15 -314 -44 -137
-160 -272 -291 -338 -94 -48 -165 -64 -275 -63 -165 1 -293 56 -416 178 -99
99 -169 267 -169 410 0 255 184 494 435 566 77 22 222 24 300 4z m-7645 -30
c38 -20 59 -62 63 -122 l2 -48 -95 -5 -95 -5 28 -19 c22 -15 39 -18 82 -13 53
5 54 5 60 -25 10 -44 -6 -53 -93 -53 -84 0 -115 13 -148 63 -26 38 -25 127 1
171 37 63 130 90 195 56z m298 -32 c-3 -43 -5 -46 -32 -48 -44 -1 -56 -28 -56
-122 l0 -83 -50 0 -50 0 0 145 0 145 45 0 c25 0 45 -5 45 -11 0 -5 10 -3 22 5
12 9 35 16 51 16 27 0 28 -1 25 -47z m215 35 c13 -10 15 -20 9 -43 -7 -25 -13
-29 -33 -26 -74 12 -93 -10 -30 -35 131 -52 95 -194 -48 -194 -60 0 -103 18
-96 41 3 10 8 28 11 39 4 15 9 18 22 11 16 -9 54 -14 80 -12 25 2 11 30 -22
41 -47 15 -86 54 -86 84 0 37 18 70 48 89 32 20 121 22 145 5z m677 -3 c48
-25 60 -61 60 -180 l0 -105 -45 0 c-25 0 -45 5 -45 11 0 5 -10 3 -22 -5 -62
-44 -158 4 -158 77 0 56 38 93 113 110 60 14 61 15 36 27 -19 9 -36 9 -65 1
-42 -12 -50 -8 -59 30 -6 23 -2 27 27 36 49 16 125 15 158 -2z m840 0 c38 -20
59 -62 63 -122 l2 -48 -95 -5 -95 -5 28 -19 c22 -15 39 -18 82 -13 53 5 54 5
60 -25 10 -44 -6 -53 -93 -53 -84 0 -115 13 -148 63 -26 38 -25 127 1 171 37
63 130 90 195 56z m500 0 c38 -20 59 -62 63 -122 l2 -48 -95 -5 -95 -5 28 -19
c22 -15 39 -18 82 -13 53 5 54 5 60 -25 10 -44 -6 -53 -93 -53 -84 0 -115 13
-148 63 -26 38 -25 127 1 171 37 63 130 90 195 56z m339 1 c41 -22 51 -55 51
-176 l0 -110 -50 0 -50 0 0 94 c0 73 -4 98 -16 110 -19 20 -23 20 -46 -1 -15
-13 -18 -32 -18 -110 l0 -93 -50 0 -50 0 0 145 0 145 45 0 c25 0 45 -4 45 -9
0 -6 12 -3 28 5 35 18 75 18 111 0z m294 2 c13 -10 15 -20 9 -43 -7 -25 -13
-29 -33 -26 -74 12 -93 -10 -30 -35 131 -52 95 -194 -48 -194 -60 0 -103 18
-96 41 3 10 8 28 11 39 4 15 9 18 22 11 16 -9 54 -14 80 -12 25 2 11 30 -22
41 -47 15 -86 54 -86 84 0 37 18 70 48 89 32 20 121 22 145 5z m277 -3 c38
-20 59 -62 63 -122 l2 -48 -95 -5 -95 -5 28 -19 c22 -15 39 -18 82 -13 53 5
54 5 60 -25 10 -44 -6 -53 -93 -53 -84 0 -115 13 -148 63 -26 38 -25 127 1
171 37 63 130 90 195 56z m-3846 -47 c8 -29 19 -69 23 -88 9 -33 10 -32 32 53
l24 87 54 0 c40 0 54 -3 50 -12 -2 -7 -26 -73 -53 -145 l-49 -133 -51 0 -51 0
-48 133 c-27 72 -50 138 -53 145 -3 9 11 12 51 12 l56 0 15 -52z m6338 -268
c24 -82 56 -204 83 -315 6 -26 11 -18 34 70 15 55 45 155 66 223 l38 123 106
-3 106 -3 17 -300 c9 -165 17 -317 17 -337 l1 -38 -78 0 -79 0 -6 113 c-4 61
-7 173 -8 247 0 86 -4 128 -9 115 -5 -11 -39 -120 -76 -242 l-68 -223 -66 0
-65 0 -39 143 c-21 78 -49 185 -61 237 l-22 95 -6 -105 c-4 -58 -10 -167 -13
-242 l-7 -138 -73 0 -74 0 0 41 c0 49 27 487 36 577 l6 63 106 -3 106 -3 28
-95z m1707 -5545 c163 -39 316 -162 389 -315 51 -106 67 -185 59 -298 -10
-151 -66 -273 -176 -382 -77 -76 -182 -133 -287 -155 -89 -19 -147 -19 -242 1
-317 65 -525 379 -458 693 47 221 216 397 436 455 72 19 199 19 279 1z
m-11725 -136 c34 -27 37 -88 4 -119 -32 -29 -92 -27 -123 5 -74 73 36 179 119
114z m10018 -209 c24 -82 56 -204 83 -315 6 -26 11 -18 34 70 15 55 45 155 66
223 l38 123 106 -3 106 -3 17 -300 c9 -165 17 -317 17 -337 l1 -38 -78 0 -79
0 -6 113 c-4 61 -7 173 -8 247 0 86 -4 128 -9 115 -5 -11 -39 -120 -76 -242
l-68 -223 -66 0 -65 0 -39 143 c-21 78 -49 185 -61 237 l-22 95 -6 -105 c-4
-58 -10 -167 -13 -242 l-7 -138 -73 0 -74 0 0 41 c0 49 27 487 36 577 l6 63
106 -3 106 -3 28 -95z m-9994 -232 l2 -248 -80 0 -80 0 0 250 0 251 78 -3 77
-3 3 -247z m19345 -174 c86 -80 157 -149 157 -153 0 -7 -123 -124 -263 -249
-63 -57 -94 -65 -127 -32 -35 35 -25 59 55 139 41 41 75 76 75 78 0 2 -67 3
-149 3 -144 0 -151 1 -165 22 -22 32 -20 55 9 83 23 24 29 25 166 25 l143 0
-77 73 c-47 44 -77 80 -77 92 0 36 28 65 63 65 28 0 55 -20 190 -146z m-2822
96 c22 -12 26 -59 7 -78 -7 -7 -24 -12 -38 -12 -33 0 -50 17 -50 52 0 40 40
59 81 38z m-357 -27 c43 -151 65 -232 68 -247 2 -11 18 33 36 98 50 177 43
166 102 166 27 0 50 -3 50 -8 0 -4 -28 -93 -63 -197 l-64 -190 -59 -3 -59 -3
-59 183 c-32 101 -61 191 -63 201 -5 15 2 17 50 17 44 0 57 -4 61 -17z m-764
-98 c38 -20 59 -62 63 -122 l2 -48 -95 -5 -95 -5 28 -19 c22 -15 39 -18 82
-13 53 5 54 5 60 -25 10 -44 -6 -53 -93 -53 -84 0 -115 13 -148 63 -26 38 -25
127 1 171 37 63 130 90 195 56z m298 -32 c-3 -43 -5 -46 -32 -48 -44 -1 -56
-28 -56 -122 l0 -83 -50 0 -50 0 0 145 0 145 45 0 c25 0 45 -5 45 -11 0 -5 10
-3 22 5 12 9 35 16 51 16 27 0 28 -1 25 -47z m215 35 c13 -10 15 -20 9 -43 -7
-25 -13 -29 -33 -26 -74 12 -93 -10 -30 -35 131 -52 95 -194 -48 -194 -60 0
-103 18 -96 41 3 10 8 28 11 39 4 15 9 18 22 11 16 -9 54 -14 80 -12 25 2 11
30 -22 41 -47 15 -86 54 -86 84 0 37 18 70 48 89 32 20 121 22 145 5z m906 -2
c41 -22 51 -55 51 -176 l0 -110 -50 0 -50 0 0 94 c0 73 -4 98 -16 110 -19 20
-23 20 -46 -1 -15 -13 -18 -32 -18 -110 l0 -93 -50 0 -50 0 0 145 0 145 45 0
c25 0 45 -4 45 -9 0 -6 12 -3 28 5 35 18 75 18 111 0z m346 3 c2 -3 0 -21 -5
-41 -10 -35 -12 -36 -49 -31 -50 7 -81 -21 -81 -71 0 -49 40 -79 91 -71 36 6
37 6 41 -30 4 -32 1 -38 -20 -46 -38 -14 -94 -10 -140 11 -110 50 -103 224 13
276 28 13 137 15 150 3z m225 -4 c38 -20 59 -62 63 -122 l2 -48 -95 -5 -95 -5
28 -19 c22 -15 39 -18 82 -13 53 5 54 5 60 -25 10 -44 -6 -53 -93 -53 -84 0
-115 13 -148 63 -26 38 -25 127 1 171 37 63 130 90 195 56z m339 1 c41 -22 51
-55 51 -176 l0 -110 -50 0 -50 0 0 94 c0 73 -4 98 -16 110 -19 20 -23 20 -46
-1 -15 -13 -18 -32 -18 -110 l0 -93 -50 0 -50 0 0 145 0 145 45 0 c25 0 45 -4
45 -9 0 -6 12 -3 28 5 35 18 75 18 111 0z m340 0 c41 -22 51 -55 51 -176 l0
-110 -50 0 -50 0 0 94 c0 73 -4 98 -16 110 -19 20 -23 20 -46 -1 -15 -13 -18
-32 -18 -110 l0 -93 -50 0 -50 0 0 145 0 145 45 0 c25 0 45 -4 45 -9 0 -6 12
-3 28 5 35 18 75 18 111 0z m321 -1 c38 -20 59 -62 63 -122 l2 -48 -95 -5 -95
-5 28 -19 c22 -15 39 -18 82 -13 53 5 54 5 60 -25 10 -44 -6 -53 -93 -53 -84
0 -115 13 -148 63 -26 38 -25 127 1 171 37 63 130 90 195 56z m283 3 c13 -10
15 -20 9 -43 -7 -25 -13 -29 -33 -26 -74 12 -93 -10 -30 -35 131 -52 95 -194
-48 -194 -60 0 -103 18 -96 41 3 10 8 28 11 39 4 15 9 18 22 11 16 -9 54 -14
80 -12 25 2 11 30 -22 41 -47 15 -86 54 -86 84 0 37 18 70 48 89 32 20 121 22
145 5z m-3679 -50 c8 -29 19 -69 23 -88 9 -33 10 -32 32 53 l24 87 54 0 c40 0
54 -3 50 -12 -2 -7 -26 -73 -53 -145 l-49 -133 -51 0 -51 0 -48 133 c-27 72
-50 138 -53 145 -3 9 11 12 51 12 l56 0 15 -52z m1546 -93 l0 -145 -50 0 -50
0 0 145 0 145 50 0 50 0 0 -145z"/>
<path d="M15472 11988 l3 -123 40 3 c52 4 87 30 103 78 17 51 7 100 -28 136
-23 23 -37 28 -75 28 l-46 0 3 -122z"/>
<path d="M21330 11798 c-47 -22 -86 -41 -87 -41 -6 -7 23 -110 32 -114 7 -2
36 7 64 21 l51 26 0 -255 0 -255 80 0 80 0 -2 328 -3 327 -65 2 c-57 1 -75 -3
-150 -39z"/>
<path d="M13837 12002 c-25 -28 -21 -32 28 -32 46 0 58 13 33 38 -17 17 -42
15 -61 -6z"/>
<path d="M15035 11906 c-24 -17 -13 -46 19 -46 23 0 36 16 36 46 0 18 -30 18
-55 0z"/>
<path d="M15867 12002 c-25 -28 -21 -32 28 -32 46 0 58 13 33 38 -17 17 -42
15 -61 -6z"/>
<path d="M16367 12002 c-25 -28 -21 -32 28 -32 46 0 58 13 33 38 -17 17 -42
15 -61 -6z"/>
<path d="M17277 12002 c-25 -28 -21 -32 28 -32 46 0 58 13 33 38 -17 17 -42
15 -61 -6z"/>
<path d="M21330 5908 c-47 -22 -86 -41 -87 -41 -6 -7 23 -110 32 -114 7 -2 36
7 64 21 l51 26 0 -255 0 -255 80 0 80 0 -2 328 -3 327 -65 2 c-57 1 -75 -3
-150 -39z"/>
<path d="M25177 5362 c-25 -28 -21 -32 28 -32 46 0 58 13 33 38 -17 17 -42 15
-61 -6z"/>
<path d="M27167 5362 c-25 -28 -21 -32 28 -32 46 0 58 13 33 38 -17 17 -42 15
-61 -6z"/>
<path d="M28167 5362 c-25 -28 -21 -32 28 -32 46 0 58 13 33 38 -17 17 -42 15
-61 -6z"/>
<path d="M4490 13230 l0 -500 -1235 0 -1235 0 0 -4790 0 -4790 125 0 125 0 0
1080 0 1080 1335 0 1335 0 0 125 0 125 -95 0 -95 0 0 255 0 255 -65 0 -65 0 0
-255 0 -255 -1175 0 -1175 0 0 720 0 720 1175 0 1175 0 0 -255 0 -255 65 0 65
0 0 1973 c0 1084 -3 2185 -7 2445 l-6 472 -59 0 -58 0 0 -290 0 -290 -1175 0
-1175 0 0 840 0 840 1173 -2 1172 -3 3 -292 2 -293 60 0 60 0 0 920 0 920
-125 0 -125 0 0 -500z m10 -4330 l0 -1770 -1115 0 -1115 0 0 1770 0 1770 1115
0 1115 0 0 -1770z"/>
<path d="M5037 13653 c-8 -13 -98 -306 -95 -308 2 -2 121 -39 265 -84 l263
-82 257 77 c142 42 262 80 267 85 6 5 4 29 -6 61 -9 29 -30 99 -47 154 l-31
101 -211 -63 c-117 -35 -218 -64 -226 -64 -12 0 -94 25 -415 126 -9 2 -18 1
-21 -3z"/>
<path d="M6110 13495 l0 -165 530 0 530 0 0 165 0 165 -530 0 -530 0 0 -165z"/>
<path d="M7660 13581 c-221 -67 -255 -80 -253 -97 1 -10 21 -83 44 -160 l42
-142 26 9 c90 29 400 119 412 119 8 0 109 -29 223 -65 115 -36 210 -64 211
-63 7 8 97 310 93 313 -7 7 -519 165 -532 164 -6 0 -126 -36 -266 -78z"/>
<path d="M6210 13065 l0 -125 430 0 430 0 0 125 0 125 -430 0 -430 0 0 -125z"/>
<path d="M7730 13117 c-107 -40 -203 -76 -212 -80 -16 -6 -14 -17 23 -119 22
-62 42 -114 44 -116 2 -2 77 24 168 57 90 34 171 61 180 61 9 0 89 -27 178
-60 89 -34 165 -57 169 -53 16 19 81 216 73 223 -8 9 -412 160 -422 159 -3 0
-94 -33 -201 -72z"/>
<path d="M5080 13064 c-23 -63 -40 -117 -38 -120 9 -9 409 -154 425 -154 32 0
434 153 430 164 -84 235 -79 225 -106 214 -14 -5 -93 -34 -175 -64 l-148 -55
-127 47 c-69 26 -147 55 -172 65 l-46 18 -43 -115z"/>
<path d="M6307 12763 c-4 -3 -7 -42 -7 -85 l0 -78 340 0 341 0 -3 83 -3 82
-331 3 c-182 1 -333 -1 -337 -5z"/>
<path d="M5171 12693 c-17 -36 -30 -70 -29 -75 2 -5 77 -43 167 -84 l164 -76
81 36 c45 20 121 56 169 79 l88 42 -35 73 c-19 39 -37 72 -40 72 -2 0 -62 -27
-132 -61 l-128 -60 -131 60 c-73 34 -134 61 -137 61 -4 0 -20 -30 -37 -67z"/>
<path d="M7765 12689 c-82 -38 -153 -73 -158 -78 -4 -4 7 -40 25 -79 l33 -72
129 60 c71 33 133 60 137 60 5 0 67 -27 140 -60 72 -34 133 -59 134 -58 16 23
64 143 58 148 -18 15 -317 150 -332 149 -9 0 -83 -32 -166 -70z"/>
<path d="M2550 11719 c-13 -6 -32 -17 -41 -25 -16 -14 -18 -13 -24 5 -5 18
-15 21 -57 21 l-51 0 6 -82 c4 -46 7 -163 7 -260 l0 -178 55 0 55 0 0 85 c0
47 2 85 4 85 2 0 21 -7 41 -16 73 -30 159 6 195 82 29 60 26 178 -6 221 -48
64 -118 88 -184 62z m57 -94 c76 -53 33 -210 -52 -189 -42 10 -58 45 -53 111
7 81 53 115 105 78z"/>
<path d="M2993 11720 c-12 -5 -28 -18 -35 -30 -17 -27 -28 -25 -28 5 0 23 -3
25 -51 25 l-52 0 7 -77 c3 -42 6 -125 6 -185 l0 -108 55 0 55 0 0 110 c0 104
1 112 25 135 15 16 36 25 55 25 30 0 30 0 30 55 0 51 -2 55 -22 54 -13 0 -33
-4 -45 -9z"/>
<path d="M3214 11719 c-104 -30 -154 -204 -87 -305 36 -56 147 -82 256 -61 39
8 45 22 31 74 -5 18 -10 20 -37 12 -18 -5 -48 -9 -67 -9 -40 0 -100 33 -100
55 0 13 19 15 115 15 l115 0 0 55 c0 131 -97 202 -226 164z m105 -95 c12 -15
21 -31 21 -35 0 -5 -29 -9 -65 -9 -72 0 -83 12 -45 50 28 28 64 25 89 -6z"/>
<path d="M3567 11709 c-45 -24 -72 -76 -62 -120 8 -35 63 -85 104 -94 36 -8
55 -29 47 -51 -5 -13 -16 -15 -59 -12 -28 3 -59 8 -68 12 -13 6 -19 -2 -27
-34 -9 -38 -8 -42 11 -49 86 -32 191 -18 232 30 37 45 35 111 -4 148 -16 15
-50 36 -75 45 -79 30 -52 80 31 57 20 -6 38 -9 39 -8 1 1 6 19 12 39 10 35 9
37 -20 47 -48 17 -119 12 -161 -10z"/>
<path d="M3887 11709 c-45 -24 -72 -76 -62 -120 8 -35 63 -85 104 -94 36 -8
55 -29 47 -51 -5 -13 -16 -15 -59 -12 -28 3 -59 8 -68 12 -13 6 -19 -2 -27
-34 -9 -38 -8 -42 11 -49 86 -32 191 -18 232 30 37 45 35 111 -4 148 -16 15
-50 36 -75 45 -79 30 -52 80 31 57 20 -6 38 -9 39 -8 1 1 6 19 12 39 10 35 9
37 -20 47 -48 17 -119 12 -161 -10z"/>
<path d="M4264 11719 c-104 -30 -154 -204 -87 -305 36 -56 147 -82 256 -61 39
8 45 22 31 74 -5 18 -10 20 -37 12 -18 -5 -48 -9 -67 -9 -40 0 -100 33 -100
55 0 13 19 15 115 15 l115 0 0 55 c0 131 -97 202 -226 164z m105 -95 c12 -15
21 -31 21 -35 0 -5 -29 -9 -65 -9 -72 0 -83 12 -45 50 28 28 64 25 89 -6z"/>
<path d="M10940 10757 l0 -342 -140 -300 c-77 -164 -140 -301 -140 -303 0 -8
105 -50 112 -44 3 4 71 146 150 316 l143 308 -3 354 -2 354 -60 0 -60 0 0
-343z"/>
<path d="M12357 10368 c-20 -62 -56 -180 -82 -263 l-47 -150 80 -265 c44 -146
84 -265 89 -264 4 1 74 20 156 44 98 29 147 48 147 58 0 7 -27 103 -60 212
-33 109 -60 205 -60 213 0 8 29 109 65 223 36 114 63 209 61 211 -6 7 -287 93
-301 93 -8 0 -27 -44 -48 -112z"/>
<path d="M20620 10387 c-63 -18 -111 -49 -164 -108 -143 -159 -89 -415 107
-509 80 -39 140 -45 219 -25 106 27 180 87 226 185 38 78 38 191 0 271 -67
146 -239 228 -388 186z m169 -73 c102 -30 181 -140 181 -250 0 -126 -101 -240
-232 -259 -159 -24 -315 132 -293 294 9 64 57 145 105 177 82 55 149 65 239
38z"/>
<path d="M20636 10129 c-36 -43 -35 -91 3 -130 22 -21 39 -29 65 -29 85 0 131
106 71 165 -18 19 -35 25 -69 25 -37 0 -48 -5 -70 -31z"/>
<path d="M12855 10377 c-3 -7 -39 -104 -80 -216 l-75 -203 75 -207 c42 -113
77 -211 80 -218 2 -7 39 2 112 29 59 21 111 43 116 47 4 4 -20 80 -53 170 -33
89 -60 169 -60 176 0 8 27 87 60 177 33 89 60 165 60 168 0 3 -21 13 -47 22
-27 8 -79 27 -116 41 -49 19 -69 23 -72 14z"/>
<path d="M13246 10218 c-19 -40 -52 -113 -75 -162 -22 -49 -41 -94 -41 -100 0
-13 138 -317 148 -328 4 -4 40 9 79 27 l73 34 -46 98 c-86 184 -84 152 -15
304 34 72 60 133 59 134 -11 9 -130 65 -138 65 -6 0 -26 -33 -44 -72z"/>
<path d="M22897 10058 c-52 -18 -45 -101 9 -114 33 -8 77 13 82 40 11 55 -35
92 -91 74z"/>
<path d="M23155 10062 c-33 -7 -45 -23 -45 -58 0 -57 69 -85 110 -44 46 46 1
116 -65 102z"/>
<path d="M23392 10060 c-12 -5 -27 -21 -34 -35 -10 -22 -8 -30 9 -53 27 -37
66 -40 98 -8 30 30 31 47 8 74 -22 25 -51 33 -81 22z"/>
<path d="M23639 10056 c-34 -17 -45 -41 -33 -73 20 -59 115 -52 122 9 7 56
-40 89 -89 64z"/>
<path d="M23895 10062 c-47 -9 -62 -79 -23 -106 31 -22 64 -20 88 4 46 46 1
116 -65 102z"/>
<path d="M24132 10060 c-29 -12 -46 -54 -32 -80 24 -45 79 -52 109 -14 26 32
26 46 4 72 -22 25 -51 33 -81 22z"/>
<path d="M24379 10056 c-34 -17 -45 -41 -33 -73 22 -63 116 -52 122 15 2 19
-2 39 -8 47 -15 18 -56 24 -81 11z"/>
<path d="M24627 10058 c-46 -16 -51 -82 -6 -107 52 -29 110 14 95 72 -7 31
-50 48 -89 35z"/>
<path d="M24870 10057 c-36 -18 -41 -78 -8 -101 32 -22 61 -20 86 7 27 28 28
48 5 75 -24 27 -53 34 -83 19z"/>
<path d="M25120 10057 c-13 -7 -29 -25 -34 -40 -8 -22 -6 -31 14 -52 28 -30
59 -32 90 -7 58 47 -3 133 -70 99z"/>
<path d="M25367 10058 c-52 -18 -45 -101 9 -114 33 -8 77 13 82 40 11 55 -35
92 -91 74z"/>
<path d="M25625 10062 c-33 -7 -45 -23 -45 -58 0 -57 69 -85 110 -44 46 46 1
116 -65 102z"/>
<path d="M25862 10060 c-12 -5 -27 -21 -34 -35 -10 -22 -8 -30 9 -53 27 -37
66 -40 98 -8 30 30 31 47 8 74 -22 25 -51 33 -81 22z"/>
<path d="M26109 10056 c-34 -17 -45 -41 -33 -73 20 -59 115 -52 122 9 7 56
-40 89 -89 64z"/>
<path d="M26365 10062 c-47 -9 -62 -79 -23 -106 31 -22 64 -20 88 4 46 46 1
116 -65 102z"/>
<path d="M26602 10060 c-29 -12 -46 -54 -32 -80 24 -45 79 -52 109 -14 26 32
26 46 4 72 -22 25 -51 33 -81 22z"/>
<path d="M26849 10056 c-34 -17 -45 -41 -33 -73 22 -63 116 -52 122 15 2 19
-2 39 -8 47 -15 18 -56 24 -81 11z"/>
<path d="M27097 10058 c-46 -16 -51 -82 -6 -107 52 -29 110 14 95 72 -7 31
-50 48 -89 35z"/>
<path d="M27340 10057 c-36 -18 -41 -78 -8 -101 32 -22 61 -20 86 7 27 28 28
48 5 75 -24 27 -53 34 -83 19z"/>
<path d="M27590 10057 c-13 -7 -29 -25 -34 -40 -8 -22 -6 -31 14 -52 28 -30
59 -32 90 -7 58 47 -3 133 -70 99z"/>
<path d="M27837 10058 c-52 -18 -45 -101 9 -114 33 -8 77 13 82 40 11 55 -35
92 -91 74z"/>
<path d="M28095 10062 c-33 -7 -45 -23 -45 -58 0 -57 69 -85 110 -44 46 46 1
116 -65 102z"/>
<path d="M28332 10060 c-12 -5 -27 -21 -34 -35 -10 -22 -8 -30 9 -53 27 -37
66 -40 98 -8 30 30 31 47 8 74 -22 25 -51 33 -81 22z"/>
<path d="M28560 10050 c-41 -41 -13 -110 46 -110 51 0 75 84 32 114 -30 21
-54 20 -78 -4z"/>
<path d="M22294 10035 c-19 -30 -11 -60 22 -82 31 -20 69 -6 86 31 28 62 -70
109 -108 51z"/>
<path d="M22626 10038 c-22 -31 -20 -51 7 -76 28 -27 48 -28 77 -4 25 20 30
63 10 87 -19 23 -76 19 -94 -7z"/>
<path d="M22305 9785 c-32 -31 -32 -59 0 -91 18 -18 31 -23 48 -19 28 9 57 42
57 67 0 23 -43 68 -65 68 -9 0 -27 -11 -40 -25z"/>
<path d="M28560 9790 c-20 -20 -26 -65 -12 -86 24 -37 91 -36 106 1 13 35 6
74 -16 89 -30 21 -54 20 -78 -4z"/>
<path d="M10950 9385 l0 -325 -277 0 c-271 0 -279 -1 -328 -24 -58 -27 -88
-57 -110 -108 -12 -31 -15 -94 -15 -386 0 -392 2 -408 68 -475 63 -65 80 -67
566 -67 237 0 448 3 469 6 65 11 138 63 167 119 l25 49 0 341 c0 373 -4 405
-57 469 -51 62 -76 70 -238 76 l-145 5 -3 323 -2 322 -60 0 -60 0 0 -325z
m-205 -565 c0 -153 -1 -163 -20 -176 -18 -12 -24 -11 -43 2 -21 15 -22 22 -22
174 0 152 1 159 22 174 19 13 25 14 43 2 19 -13 20 -23 20 -176z m488 -136
c87 -81 156 -150 155 -155 -8 -23 -321 -299 -339 -299 -25 0 -69 43 -69 67 0
10 36 53 81 96 l81 77 -356 0 c-343 0 -357 1 -376 20 -26 26 -25 62 1 86 20
18 45 19 371 24 l351 5 -65 61 c-74 69 -91 94 -81 121 11 33 25 43 57 43 27 0
55 -22 189 -146z m-493 -273 c5 -11 10 -85 10 -170 0 -159 -6 -181 -50 -181
-33 0 -40 33 -40 185 0 82 5 155 10 166 6 11 21 19 35 19 14 0 29 -8 35 -19z"/>
<path d="M23096 9458 c64 -128 118 -235 120 -237 3 -3 234 454 234 464 0 3
-106 5 -235 5 l-235 0 116 -232z m214 142 c0 -13 -89 -190 -95 -190 -6 0 -95
177 -95 190 0 6 37 10 95 10 58 0 95 -4 95 -10z"/>
<path d="M22306 9534 c-45 -44 -21 -114 38 -114 37 0 51 12 61 50 14 55 -61
103 -99 64z"/>
<path d="M28560 9530 c-41 -41 -14 -110 43 -110 35 0 57 25 57 65 0 57 -60 85
-100 45z"/>
<path d="M22300 9270 c-11 -11 -20 -29 -20 -40 0 -19 -7 -20 -100 -20 l-100 0
0 -530 0 -530 102 0 c56 0 116 -5 134 -12 25 -9 39 -8 63 2 l31 13 -2 554 c-3
536 -4 555 -22 569 -28 20 -63 17 -86 -6z"/>
<path d="M28557 9272 c-36 -40 -9 -112 42 -112 35 0 61 28 61 67 0 55 -67 85
-103 45z"/>
<path d="M24070 8680 l0 -530 168 2 167 3 3 528 2 527 -170 0 -170 0 0 -530z"/>
<path d="M26804 9186 c-58 -27 -96 -72 -114 -131 -8 -28 -10 -145 -8 -390 3
-339 4 -351 25 -392 31 -56 86 -100 145 -113 66 -14 642 -13 708 1 59 13 125
59 154 108 14 24 21 59 24 118 l5 83 -52 0 -51 0 0 200 0 200 50 0 50 0 0 74
c0 122 -45 211 -124 247 -38 17 -71 19 -401 19 -358 0 -360 0 -411 -24z m525
-254 c61 -92 111 -171 111 -175 0 -4 -103 -7 -230 -7 -126 0 -230 3 -230 7 0
12 222 343 230 343 4 0 57 -76 119 -168z m105 -334 c-4 -7 -57 -87 -117 -177
l-109 -163 -92 138 c-51 77 -102 156 -115 177 l-23 37 232 0 c182 0 230 -3
224 -12z"/>
<path d="M21690 8685 l0 -435 125 0 125 0 0 435 0 435 -125 0 -125 0 0 -435z"/>
<path d="M24540 8685 l0 -435 125 0 125 0 0 435 0 435 -125 0 -125 0 0 -435z"/>
<path d="M28557 9012 c-23 -25 -21 -68 3 -92 24 -24 48 -25 78 -4 26 18 30 74
6 98 -21 22 -67 20 -87 -2z"/>
<path d="M21350 8685 l0 -335 80 0 80 0 0 335 0 335 -80 0 -80 0 0 -335z"/>
<path d="M24970 8685 l0 -335 80 0 80 0 0 335 0 335 -80 0 -80 0 0 -335z"/>
<path d="M7380 8680 l0 -210 40 0 40 0 0 210 0 210 -40 0 -40 0 0 -210z"/>
<path d="M7550 8680 l0 -210 40 0 40 0 0 210 0 210 -40 0 -40 0 0 -210z"/>
<path d="M17430 8865 c-17 -20 -5 -62 20 -70 31 -10 59 4 66 31 8 31 -11 54
-46 54 -15 0 -33 -7 -40 -15z"/>
<path d="M6680 8670 l0 -200 45 0 45 0 0 85 0 85 70 0 70 0 0 -85 0 -85 45 0
45 0 0 201 0 200 -42 -3 -43 -3 -3 -72 -3 -73 -69 0 -70 0 0 75 0 75 -45 0
-45 0 0 -200z"/>
<path d="M16445 8856 c-121 -53 -142 -260 -36 -349 18 -15 45 -29 59 -32 15
-3 68 -19 117 -35 50 -17 95 -30 101 -30 10 0 34 41 34 60 0 4 -18 11 -40 15
-22 4 -40 8 -40 10 0 2 13 16 28 33 86 92 60 271 -49 327 -35 18 -133 19 -174
1z m126 -66 c73 -40 62 -226 -16 -246 -68 -17 -115 34 -115 124 0 102 61 159
131 122z"/>
<path d="M28573 8770 c-44 -18 -43 -98 2 -118 29 -14 69 -2 79 23 13 35 6 74
-16 89 -25 18 -33 19 -65 6z"/>
<path d="M7123 8759 c-43 -10 -47 -16 -37 -55 5 -19 9 -20 43 -11 44 12 91 3
91 -18 0 -10 -11 -15 -34 -15 -78 0 -126 -40 -126 -105 0 -56 30 -85 89 -85
23 0 51 5 61 10 13 7 21 7 25 0 3 -5 23 -10 43 -10 l37 0 -3 113 c-4 115 -13
146 -51 166 -30 16 -92 21 -138 10z m105 -173 c5 -24 -28 -57 -52 -54 -14 2
-22 12 -24 29 -3 22 2 29 25 37 35 13 47 10 51 -12z"/>
<path d="M17163 8759 c-43 -10 -47 -16 -37 -55 5 -19 9 -20 43 -11 44 12 91 3
91 -18 0 -10 -11 -15 -34 -15 -78 0 -126 -40 -126 -105 0 -56 30 -85 89 -85
23 0 51 5 61 10 13 7 21 7 25 0 3 -5 23 -10 43 -10 l37 0 -3 113 c-4 115 -13
146 -51 166 -30 16 -92 21 -138 10z m105 -173 c5 -24 -28 -57 -52 -54 -14 2
-22 12 -24 29 -3 22 2 29 25 37 35 13 47 10 51 -12z"/>
<path d="M16770 8668 c0 -109 12 -162 43 -183 27 -19 97 -19 123 0 25 19 34
19 34 0 0 -11 11 -15 41 -15 l42 0 -7 77 c-3 42 -6 107 -6 145 l0 68 -40 0
-40 0 0 -82 c0 -96 -14 -133 -50 -133 -36 0 -50 37 -50 133 l0 82 -45 0 -45 0
0 -92z"/>
<path d="M17430 8615 l0 -145 40 0 40 0 0 145 0 145 -40 0 -40 0 0 -145z"/>
<path d="M12300 8220 l0 -530 165 0 165 0 0 530 0 530 -165 0 -165 0 0 -530z"/>
<path d="M12770 8215 l0 -435 125 0 125 0 0 435 0 435 -125 0 -125 0 0 -435z"/>
<path d="M13200 8215 l0 -335 80 0 80 0 0 335 0 335 -80 0 -80 0 0 -335z"/>
<path d="M28560 8500 c-41 -41 -14 -110 43 -110 35 0 57 25 57 65 0 57 -60 85
-100 45z"/>
<path d="M28557 8242 c-22 -25 -21 -75 1 -95 42 -38 102 -8 102 50 0 55 -67
85 -103 45z"/>
<path d="M22296 7978 c-9 -12 -16 -30 -16 -39 0 -27 39 -69 65 -69 26 0 65 42
65 69 0 33 -30 61 -65 61 -24 0 -39 -7 -49 -22z"/>
<path d="M28557 7982 c-23 -25 -21 -68 3 -92 24 -24 48 -25 78 -4 26 18 30 74
6 98 -21 22 -67 20 -87 -2z"/>
<path d="M23152 7745 c-61 -124 -112 -230 -112 -235 0 -6 84 -10 230 -10 127
0 230 2 230 5 0 7 -229 465 -233 465 -1 0 -53 -101 -115 -225z m171 -60 l47
-95 -100 0 -100 0 47 95 c26 52 50 95 53 95 3 0 27 -43 53 -95z"/>
<path d="M10403 7870 c-54 -11 -91 -31 -125 -67 -57 -59 -58 -71 -58 -455 0
-334 2 -355 21 -398 25 -56 53 -86 104 -113 39 -22 48 -22 510 -22 429 0 474
2 517 18 59 23 124 92 135 144 4 21 8 189 8 373 0 372 -2 384 -64 453 -66 74
-52 72 -556 74 -247 1 -469 -2 -492 -7z m329 -67 c16 -14 18 -33 18 -165 0
-84 -5 -158 -10 -169 -12 -21 -50 -25 -68 -7 -8 8 -12 60 -12 169 0 130 3 160
16 173 20 20 33 20 56 -1z m348 -170 c24 -15 72 -60 239 -218 l74 -70 -134
-128 c-196 -187 -225 -203 -265 -142 -22 34 -13 53 70 134 l74 71 -348 0
c-336 0 -348 1 -374 21 -32 25 -33 55 -4 86 l21 23 352 0 351 0 -78 78 c-43
43 -78 86 -78 96 0 20 43 66 62 66 8 0 25 -7 38 -17z m-340 -412 c5 -11 10
-85 10 -167 0 -123 -3 -150 -17 -166 -20 -22 -37 -23 -57 -2 -13 13 -16 43
-16 173 0 109 4 161 12 169 18 18 56 14 68 -7z"/>
<path d="M22305 7725 c-14 -13 -25 -33 -25 -45 0 -25 42 -70 65 -70 23 0 65
45 65 70 0 25 -42 70 -65 70 -9 0 -27 -11 -40 -25z"/>
<path d="M28572 7738 c-46 -23 -39 -104 11 -121 41 -13 77 13 77 56 0 56 -41
87 -88 65z"/>
<path d="M20600 7484 c-161 -59 -251 -216 -217 -380 53 -253 353 -351 546
-178 176 159 129 450 -88 547 -62 28 -181 33 -241 11z m210 -75 c55 -25 105
-71 133 -124 31 -57 30 -173 0 -231 -29 -54 -101 -117 -151 -132 -102 -31
-216 -1 -281 73 -48 55 -64 100 -64 175 0 75 16 120 64 175 71 80 201 108 299
64z"/>
<path d="M20665 7258 c-34 -18 -55 -51 -55 -86 0 -44 14 -68 52 -88 64 -33
138 11 138 83 0 45 -14 69 -50 88 -34 18 -57 19 -85 3z"/>
<path d="M22301 7464 c-25 -32 -26 -52 -5 -82 32 -45 114 -18 114 39 0 27 -39
69 -65 69 -14 0 -32 -11 -44 -26z"/>
<path d="M28560 7470 c-41 -41 -14 -110 43 -110 35 0 57 25 57 65 0 57 -60 85
-100 45z"/>
<path d="M22307 7218 c-28 -22 -32 -63 -8 -87 42 -42 104 -18 104 39 0 51 -55
79 -96 48z"/>
<path d="M22630 7210 c-24 -24 -25 -48 -4 -78 18 -26 65 -30 88 -6 9 8 16 28
16 44 0 56 -60 80 -100 40z"/>
<path d="M22877 7212 c-38 -42 -8 -102 50 -102 55 0 85 67 45 103 -25 22 -75
21 -95 -1z"/>
<path d="M23127 7212 c-21 -23 -22 -66 -1 -86 24 -24 80 -20 98 6 21 30 20 54
-4 78 -25 25 -72 26 -93 2z"/>
<path d="M23370 7210 c-51 -51 12 -122 85 -94 37 15 38 82 1 106 -21 14 -66 8
-86 -12z"/>
<path d="M23616 7208 c-34 -47 -7 -98 51 -98 55 0 85 67 45 103 -27 25 -78 22
-96 -5z"/>
<path d="M23867 7212 c-38 -42 -8 -102 50 -102 54 0 80 52 47 98 -19 28 -74
30 -97 4z"/>
<path d="M24124 7222 c-37 -24 -36 -91 1 -106 48 -18 105 11 105 54 0 43 -69
77 -106 52z"/>
<path d="M24360 7210 c-40 -40 -12 -100 45 -100 41 0 65 22 65 59 0 56 -70 81
-110 41z"/>
<path d="M24607 7212 c-38 -42 -8 -102 50 -102 55 0 85 67 45 103 -25 22 -75
21 -95 -1z"/>
<path d="M24856 7214 c-9 -8 -16 -28 -16 -44 0 -38 24 -60 65 -60 36 0 65 28
65 62 0 47 -80 77 -114 42z"/>
<path d="M25100 7210 c-40 -40 -12 -100 45 -100 41 0 65 22 65 60 0 16 -7 36
-16 44 -22 22 -70 20 -94 -4z"/>
<path d="M25347 7212 c-38 -42 -8 -102 50 -102 55 0 85 67 45 103 -25 22 -75
21 -95 -1z"/>
<path d="M25597 7212 c-21 -23 -22 -66 -1 -86 24 -24 80 -20 98 6 21 30 20 54
-4 78 -25 25 -72 26 -93 2z"/>
<path d="M25840 7210 c-51 -51 12 -122 85 -94 37 15 38 82 1 106 -21 14 -66 8
-86 -12z"/>
<path d="M26086 7208 c-34 -47 -7 -98 51 -98 55 0 85 67 45 103 -27 25 -78 22
-96 -5z"/>
<path d="M26337 7212 c-38 -42 -8 -102 50 -102 54 0 80 52 47 98 -19 28 -74
30 -97 4z"/>
<path d="M26594 7222 c-37 -24 -36 -91 1 -106 48 -18 105 11 105 54 0 43 -69
77 -106 52z"/>
<path d="M26830 7210 c-40 -40 -12 -100 45 -100 41 0 65 22 65 59 0 56 -70 81
-110 41z"/>
<path d="M27077 7212 c-38 -42 -8 -102 50 -102 55 0 85 67 45 103 -25 22 -75
21 -95 -1z"/>
<path d="M27326 7214 c-9 -8 -16 -28 -16 -44 0 -38 24 -60 65 -60 36 0 65 28
65 62 0 47 -80 77 -114 42z"/>
<path d="M27570 7210 c-40 -40 -12 -100 45 -100 41 0 65 22 65 60 0 16 -7 36
-16 44 -22 22 -70 20 -94 -4z"/>
<path d="M27817 7212 c-38 -42 -8 -102 50 -102 55 0 85 67 45 103 -25 22 -75
21 -95 -1z"/>
<path d="M28067 7212 c-21 -23 -22 -66 -1 -86 24 -24 80 -20 98 6 21 30 20 54
-4 78 -25 25 -72 26 -93 2z"/>
<path d="M28310 7210 c-51 -51 12 -122 85 -94 37 15 38 82 1 106 -21 14 -66 8
-86 -12z"/>
<path d="M28557 7212 c-37 -40 -9 -102 46 -102 34 0 57 24 57 60 0 16 -7 36
-16 44 -21 22 -67 20 -87 -2z"/>
<path d="M3602 6520 c-36 -22 -62 -72 -62 -120 0 -25 -4 -30 -25 -30 -23 0
-25 -4 -25 -46 0 -41 2 -45 23 -42 22 3 22 2 25 -139 l3 -143 54 0 55 0 0 139
0 140 38 3 c36 3 37 4 40 46 l3 42 -36 0 c-43 0 -54 20 -31 55 11 17 26 25 45
25 30 0 41 18 41 68 0 20 -4 22 -57 22 -41 0 -68 -6 -91 -20z"/>
<path d="M3921 6475 c-17 -30 -31 -57 -31 -60 0 -3 17 -5 39 -5 39 0 51 10
124 108 7 9 -3 12 -46 12 l-55 0 -31 -55z"/>
<path d="M2901 6368 c-59 -20 -107 -75 -120 -138 -30 -153 88 -266 242 -231
50 12 50 13 43 58 l-7 38 -48 -3 c-59 -4 -85 8 -107 50 -22 43 -11 90 28 124
28 23 38 26 79 21 l47 -6 7 40 c4 22 5 43 2 46 -12 11 -133 12 -166 1z"/>
<path d="M3185 6367 c-35 -12 -40 -17 -38 -42 4 -52 8 -56 47 -40 51 21 92 19
118 -7 l22 -22 -66 -12 c-86 -16 -122 -36 -142 -78 -20 -42 -20 -67 -2 -110
25 -61 126 -83 183 -41 24 19 33 18 33 0 0 -11 13 -15 53 -15 l52 0 -3 127
c-3 155 -12 195 -53 224 -38 27 -144 35 -204 16z m145 -226 c0 -36 -30 -63
-67 -59 -57 6 -35 80 27 90 34 5 40 1 40 -31z"/>
<path d="M3874 6369 c-104 -30 -154 -204 -87 -305 36 -56 147 -82 256 -61 39
8 45 22 31 74 -5 18 -10 20 -37 12 -18 -5 -48 -9 -67 -9 -40 0 -100 33 -100
55 0 13 19 15 115 15 l115 0 0 55 c0 131 -97 202 -226 164z m105 -95 c12 -15
21 -31 21 -35 0 -5 -29 -9 -65 -9 -72 0 -83 12 -45 50 28 28 64 25 89 -6z"/>
<path d="M7740 6040 l0 -270 55 0 55 0 0 59 c0 41 5 62 16 72 11 9 18 9 22 2
4 -6 23 -39 42 -72 l35 -61 73 0 c56 0 71 3 66 13 -4 6 -39 56 -77 111 l-68
99 38 41 c21 22 51 56 68 74 l29 32 -72 0 -72 0 -47 -72 -48 -71 -3 156 -3
157 -54 0 -55 0 0 -270z"/>
<path d="M7210 6280 c-11 -11 -20 -29 -20 -40 0 -25 34 -60 58 -60 34 0 62 29
62 65 0 54 -60 75 -100 35z"/>
<path d="M6978 6223 c-45 -13 -48 -16 -48 -49 0 -30 -3 -34 -25 -34 -23 0 -25
-4 -25 -45 0 -41 2 -45 25 -45 25 0 25 0 25 -94 0 -51 5 -107 11 -124 17 -50
73 -76 142 -65 36 5 37 6 37 49 0 40 -2 44 -24 44 -40 0 -56 35 -56 117 l0 72
43 3 c42 3 42 3 45 45 l3 42 -43 3 -43 3 -3 48 c-2 26 -6 47 -10 46 -4 -1 -28
-8 -54 -16z"/>
<path d="M8588 6223 c-45 -13 -48 -16 -48 -49 0 -30 -3 -34 -25 -34 -23 0 -25
-4 -25 -45 0 -41 2 -45 25 -45 25 0 25 0 25 -94 0 -51 5 -107 11 -124 17 -50
73 -76 142 -65 36 5 37 6 37 49 0 40 -2 44 -24 44 -40 0 -56 35 -56 117 l0 72
43 3 c42 3 42 3 45 45 l3 42 -43 3 -43 3 -3 48 c-2 26 -6 47 -10 46 -4 -1 -28
-8 -54 -16z"/>
<path d="M7501 6138 c-59 -20 -107 -75 -120 -138 -30 -153 88 -266 242 -231
50 12 50 13 43 58 l-7 38 -48 -3 c-59 -4 -85 8 -107 50 -22 43 -11 90 28 124
28 23 38 26 79 21 l47 -6 7 40 c4 22 5 43 2 46 -12 11 -133 12 -166 1z"/>
<path d="M8224 6139 c-104 -30 -154 -204 -87 -305 36 -56 147 -82 256 -61 39
8 45 22 31 74 -5 18 -10 20 -37 12 -18 -5 -48 -9 -67 -9 -40 0 -100 33 -100
55 0 13 19 15 115 15 l115 0 0 55 c0 131 -97 202 -226 164z m105 -95 c12 -15
21 -31 21 -35 0 -5 -29 -9 -65 -9 -72 0 -83 12 -45 50 28 28 64 25 89 -6z"/>
<path d="M7200 5955 l0 -185 55 0 55 0 0 185 0 185 -55 0 -55 0 0 -185z"/>
<path d="M3185 2956 c-16 -7 -42 -26 -56 -42 -43 -47 -491 -656 -511 -694 -36
-68 -14 -145 49 -175 28 -13 104 -15 590 -13 l558 3 32 23 c41 29 58 78 44
129 -14 49 -508 717 -555 751 -42 29 -109 38 -151 18z m285 -457 c122 -165
220 -302 218 -305 -3 -2 -204 -3 -447 -2 l-442 3 223 302 c123 166 224 303
225 303 0 0 101 -135 223 -301z"/>
<path d="M4504 2691 c-84 -22 -124 -70 -124 -152 0 -48 3 -55 39 -90 22 -20
62 -44 89 -53 51 -17 92 -48 92 -69 0 -48 -78 -70 -156 -43 -26 9 -48 16 -50
16 -1 0 -7 -21 -13 -47 -14 -55 -12 -57 74 -72 181 -32 307 77 247 212 -19 42
-27 49 -104 86 -99 47 -114 61 -98 90 13 25 49 35 98 28 20 -4 46 -8 56 -9 15
-2 22 7 32 40 13 42 12 43 -13 53 -37 14 -132 20 -169 10z"/>
<path d="M5290 2658 c-81 -41 -121 -161 -99 -298 22 -141 106 -210 221 -180
98 26 143 117 136 270 -3 68 -10 98 -29 136 -45 88 -138 117 -229 72z m113
-86 c54 -60 40 -283 -19 -306 -47 -18 -84 51 -84 159 0 128 53 203 103 147z"/>
<path d="M4863 2641 l-61 -29 9 -39 c5 -21 9 -41 9 -46 0 -4 18 2 40 13 21 11
44 20 50 20 6 0 10 -65 10 -190 l0 -190 55 0 55 0 0 245 0 245 -52 0 c-36 -1
-72 -10 -115 -29z"/>
<path d="M4073 1793 c-10 -3 -13 -53 -13 -199 l0 -194 45 0 45 0 0 70 0 70 38
0 c48 0 123 38 139 70 17 34 16 95 -2 129 -20 40 -79 61 -168 60 -39 0 -78 -3
-84 -6z m155 -79 c45 -31 21 -91 -41 -101 l-37 -6 0 62 c0 60 0 61 28 61 15 0
38 -7 50 -16z"/>
<path d="M4763 1750 c-14 -6 -23 -18 -23 -31 0 -12 -8 -23 -20 -26 -15 -4 -20
-14 -20 -39 0 -27 4 -34 20 -34 18 0 20 -7 20 -84 0 -69 4 -88 21 -110 18 -22
28 -26 75 -26 l54 0 0 34 c0 30 -3 35 -27 38 -27 3 -28 5 -31 76 l-3 72 31 0
c28 0 30 3 30 35 0 32 -2 35 -30 35 -28 0 -30 3 -30 35 0 30 -3 35 -22 34 -13
0 -33 -4 -45 -9z"/>
<path d="M3252 1690 c-118 -28 -140 -222 -32 -277 25 -13 128 -17 166 -7 16 4
19 11 16 36 -5 30 -6 30 -49 24 -51 -7 -113 14 -113 38 0 13 15 16 90 16 l90
0 0 43 c0 93 -74 150 -168 127z m80 -84 c15 -22 7 -26 -42 -26 -56 0 -67 17
-28 44 22 16 53 8 70 -18z"/>
<path d="M3610 1693 c-8 -3 -25 -15 -37 -26 l-23 -20 0 21 c0 19 -6 22 -41 22
l-42 0 6 -67 c4 -38 7 -103 7 -145 l0 -78 40 0 40 0 0 69 c0 103 18 141 68
141 19 0 22 5 22 45 0 45 -6 50 -40 38z"/>
<path d="M3753 1689 c-41 -12 -63 -44 -63 -90 0 -40 15 -58 75 -86 51 -23 53
-48 5 -48 -19 1 -45 4 -57 8 -18 7 -22 3 -28 -24 -10 -43 5 -50 92 -47 89 4
113 21 113 84 0 50 -15 68 -78 95 -56 24 -51 45 12 42 41 -1 47 1 52 24 4 13
3 28 -2 33 -14 14 -86 20 -121 9z"/>
<path d="M5022 1690 c-118 -28 -140 -222 -32 -277 25 -13 128 -17 166 -7 16 4
19 11 16 36 -5 30 -6 30 -49 24 -51 -7 -113 14 -113 38 0 13 15 16 90 16 l90
0 0 43 c0 93 -74 150 -168 127z m80 -84 c15 -22 7 -26 -42 -26 -56 0 -67 17
-28 44 22 16 53 8 70 -18z"/>
<path d="M5293 1689 c-43 -10 -47 -16 -37 -55 5 -19 9 -20 43 -11 44 12 91 3
91 -18 0 -10 -11 -15 -34 -15 -78 0 -126 -40 -126 -105 0 -56 30 -85 89 -85
23 0 51 5 61 10 13 7 21 7 25 0 3 -5 23 -10 43 -10 l37 0 -3 113 c-4 115 -13
146 -51 166 -30 16 -92 21 -138 10z m105 -173 c5 -24 -28 -57 -52 -54 -14 2
-22 12 -24 29 -3 22 2 29 25 37 35 13 47 10 51 -12z"/>
<path d="M2840 1678 c1 -7 22 -71 49 -143 l47 -130 46 -3 c36 -2 47 1 53 15
31 80 95 256 95 263 0 6 -20 10 -45 10 l-44 0 -21 -69 c-11 -37 -20 -75 -20
-84 0 -9 -4 -18 -8 -21 -5 -3 -20 34 -33 82 l-24 87 -48 3 c-34 2 -47 -1 -47
-10z"/>
<path d="M4380 1598 c0 -109 12 -162 43 -183 27 -19 97 -19 123 0 25 19 34 19
34 0 0 -11 11 -15 41 -15 l42 0 -7 77 c-3 42 -6 107 -6 145 l0 68 -40 0 -40 0
0 -82 c0 -96 -14 -133 -50 -133 -36 0 -50 37 -50 133 l0 82 -45 0 -45 0 0 -92z"/>
<path d="M5550 1598 c0 -109 12 -162 43 -183 27 -19 97 -19 123 0 25 19 34 19
34 0 0 -11 11 -15 41 -15 l42 0 -7 77 c-3 42 -6 107 -6 145 l0 68 -40 0 -40 0
0 -82 c0 -96 -14 -133 -50 -133 -36 0 -50 37 -50 133 l0 82 -45 0 -45 0 0 -92z"/>
<path d="M5900 1630 c22 -33 43 -66 46 -74 3 -8 -12 -41 -33 -73 -22 -32 -43
-64 -47 -70 -5 -10 6 -13 43 -13 50 0 51 0 74 46 l24 47 27 -47 c26 -45 28
-46 76 -46 28 0 50 2 50 5 0 2 -21 37 -46 76 l-46 71 39 57 c61 86 60 81 4 81
-49 0 -51 -1 -71 -40 -11 -22 -22 -40 -25 -40 -2 0 -14 18 -26 40 -22 39 -24
40 -76 40 l-54 0 41 -60z"/>
</g>
</svg>
