<?xml version="1.0" encoding="UTF-8" standalone="no"?>
<!-- Created with Inkscape (http://www.inkscape.org/) -->

<svg xmlns:dc="http://purl.org/dc/elements/1.1/" xmlns:cc="http://creativecommons.org/ns#" xmlns:rdf="http://www.w3.org/1999/02/22-rdf-syntax-ns#" xmlns:svg="http://www.w3.org/2000/svg" xmlns="http://www.w3.org/2000/svg" xmlns:inkscape="http://www.inkscape.org/namespaces/inkscape" version="1.0" width="3508pt" height="2480pt" viewBox="0 0 3508 2480" id="svg2">
  <defs id="defs174" />
  <metadata id="metadata4">
Created by potrace 1.11, written by Peter Selinger 2001-2013
<rdf:RDF>
  <cc:Work rdf:about="">
    <dc:format>image/svg+xml</dc:format>
    <dc:type rdf:resource="http://purl.org/dc/dcmitype/StillImage" />
  </cc:Work>
</rdf:RDF>
</metadata>
  <g transform="matrix(0.1,0,0,-0.1,0,2480)" id="g6" style="fill:#000000;stroke:none">
    <path d="m 1563,23612 c -18,-2 -33,-5 -33,-7 0,-2 -7,-39 -15,-82 -19,-99 -20,-95 12,-91 26,3 28,7 42,86 l 14,82 42,0 c 56,0 74,-20 51,-55 -13,-20 -25,-25 -58,-25 l -41,0 39,-44 c 31,-35 46,-44 73,-45 l 35,-1 -32,33 c -18,18 -32,36 -32,39 0,3 12,9 28,13 52,13 81,61 50,82 -16,9 -130,19 -175,15 z" inkscape:connector-curvature="0" id="path8" />
    <path d="m 2830,22736 c 0,-794 2,-884 16,-890 8,-3 2022,-6 4474,-6 3991,0 4458,2 4464,15 3,9 6,409 6,890 l 0,875 -4480,0 -4480,0 0,-884 z m 1820,249 -61,-75 -51,0 -50,0 38,68 c 20,37 39,70 41,75 2,4 36,7 74,7 l 70,0 -61,-75 z m 5905,50 c 14,-13 25,-36 25,-50 0,-36 -42,-75 -80,-75 -38,0 -80,39 -80,75 0,36 42,75 80,75 19,0 40,-9 55,-25 z m -6777,-187 c 29,-101 55,-202 58,-226 4,-23 10,-44 14,-47 3,-2 15,31 25,73 10,42 39,145 65,227 l 48,150 101,3 101,3 0,-38 c 0,-21 7,-150 15,-288 8,-137 15,-271 15,-297 l 0,-48 -69,0 -69,0 -6,63 c -3,34 -9,151 -13,260 l -8,199 -38,-129 c -21,-70 -56,-185 -78,-255 l -40,-128 -59,0 -59,0 -11,43 c -7,23 -27,96 -45,162 -19,66 -43,160 -54,208 -10,49 -21,90 -24,93 -2,2 -7,-80 -11,-183 -3,-104 -9,-221 -13,-260 l -6,-73 -69,0 -70,0 6,48 c 3,26 13,176 23,335 l 17,287 101,0 102,0 51,-182 z m 2924,168 c 98,-23 152,-78 164,-168 19,-136 -81,-232 -252,-245 l -74,-6 0,-118 0,-119 -75,0 -75,0 0,329 0,330 53,4 c 120,8 205,6 259,-7 z m 2246,-168 c 29,-101 55,-202 58,-226 4,-23 10,-44 14,-47 3,-2 15,31 25,73 10,42 39,145 65,227 l 48,150 101,3 101,3 0,-38 c 0,-21 7,-150 15,-288 8,-137 15,-271 15,-297 l 0,-48 -69,0 -69,0 -6,63 c -3,34 -9,151 -13,260 l -8,199 -38,-129 c -21,-70 -56,-185 -78,-255 l -40,-128 -59,0 -59,0 -11,43 c -7,23 -27,96 -45,162 -19,66 -43,160 -54,208 -10,49 -21,90 -24,93 -2,2 -7,-80 -11,-183 -3,-104 -9,-221 -13,-260 l -6,-73 -69,0 -70,0 6,48 c 3,26 13,176 23,335 l 17,287 101,0 102,0 51,-182 z m -3918,57 0,-65 55,0 55,0 0,-55 0,-55 -55,0 -55,0 0,-110 c 0,-98 2,-112 21,-131 15,-15 30,-20 50,-17 l 29,5 0,-58 0,-58 -36,-7 c -47,-9 -118,2 -150,22 -48,32 -58,67 -62,217 l -4,137 -29,0 c -28,0 -29,1 -29,55 0,54 0,55 30,55 29,0 30,2 30,45 l 0,44 58,16 c 31,9 62,18 67,20 23,8 25,2 25,-60 z m 3230,0 0,-65 55,0 55,0 0,-55 0,-55 -55,0 -55,0 0,-110 c 0,-98 2,-112 21,-131 15,-15 30,-20 50,-17 l 29,5 0,-58 0,-58 -36,-7 c -47,-9 -118,2 -150,22 -48,32 -58,67 -62,217 l -4,137 -29,0 c -28,0 -29,1 -29,55 0,54 0,55 30,55 29,0 30,2 30,45 l 0,44 58,16 c 31,9 62,18 67,20 23,8 25,2 25,-60 z m -3602,-79 c 64,-33 101,-100 109,-197 l 6,-69 -162,0 c -179,0 -188,-4 -133,-60 35,-35 102,-47 181,-32 31,5 59,7 63,3 4,-3 8,-26 10,-51 l 3,-44 -50,-12 c -117,-28 -236,-9 -302,49 -52,46 -73,98 -73,183 0,59 5,81 28,125 30,58 87,105 143,120 45,11 143,3 177,-15 z m 872,-45 0,-68 -47,-6 c -37,-4 -54,-12 -75,-36 -28,-31 -28,-32 -28,-171 l 0,-140 -75,0 -75,0 0,240 0,240 65,0 65,0 0,-47 0,-48 26,39 c 28,40 71,65 117,66 27,0 27,0 27,-69 z m 425,41 c 86,-44 128,-117 128,-223 0,-180 -158,-288 -341,-234 -106,32 -166,117 -165,236 0,115 61,201 163,234 61,20 164,14 215,-13 z m 1340,0 c 86,-44 128,-117 128,-223 0,-180 -158,-288 -341,-234 -106,32 -166,117 -165,236 0,115 61,201 163,234 61,20 164,14 215,-13 z m 581,7 c 33,-15 49,-32 68,-72 25,-49 26,-58 26,-224 l 0,-173 -74,0 -75,0 -3,166 c -3,160 -4,166 -27,185 -33,27 -68,24 -102,-10 l -29,-29 0,-156 0,-156 -75,0 -75,0 0,240 0,240 65,0 65,0 0,-37 0,-37 28,27 c 60,57 137,71 208,36 z m 1953,-10 c 22,-12 49,-39 62,-63 22,-38 24,-55 27,-218 l 4,-178 -66,0 c -62,0 -66,1 -72,25 -6,24 -8,24 -23,11 -80,-72 -221,-53 -261,36 -23,51 -25,87 -6,131 27,67 124,117 222,117 50,0 59,9 39,37 -21,30 -79,37 -148,18 -32,-8 -60,-15 -62,-15 -4,0 -25,69 -25,83 0,4 12,12 28,18 89,35 218,34 281,-2 z m 511,-38 0,-68 -47,-6 c -37,-4 -54,-12 -75,-36 -28,-31 -28,-32 -28,-171 l 0,-140 -75,0 -75,0 0,240 0,240 65,0 65,0 0,-47 0,-48 26,39 c 28,40 71,65 117,66 27,0 27,0 27,-69 z m 678,45 c 64,-33 101,-100 109,-197 l 6,-69 -162,0 c -179,0 -188,-4 -133,-60 35,-35 102,-47 181,-32 31,5 59,7 63,3 4,-3 8,-26 10,-51 l 3,-44 -50,-12 c -117,-28 -236,-9 -302,49 -52,46 -73,98 -73,183 0,59 5,81 28,125 30,58 87,105 143,120 45,11 143,3 177,-15 z m -448,-226 0,-240 -75,0 -75,0 0,240 0,240 75,0 75,0 0,-240 z" inkscape:connector-curvature="0" id="path10" />
    <path d="m 6558,22913 c -16,-4 -18,-17 -18,-99 l 0,-94 50,0 c 87,0 130,36 130,109 0,57 -89,103 -162,84 z" inkscape:connector-curvature="0" id="path12" />
    <path d="m 4479,22721 c -51,-52 -42,-61 62,-61 l 91,0 -6,28 c -16,66 -96,84 -147,33 z" inkscape:connector-curvature="0" id="path14" />
    <path d="m 5777,22720 c -73,-58 -56,-225 27,-254 104,-38 172,146 90,244 -31,36 -78,40 -117,10 z" inkscape:connector-curvature="0" id="path16" />
    <path d="m 7117,22720 c -73,-58 -56,-225 27,-254 104,-38 172,146 90,244 -31,36 -78,40 -117,10 z" inkscape:connector-curvature="0" id="path18" />
    <path d="m 9673,22575 c -37,-16 -51,-54 -34,-91 9,-19 18,-24 50,-24 50,0 81,35 81,91 0,37 -1,39 -32,39 -18,-1 -47,-7 -65,-15 z" inkscape:connector-curvature="0" id="path20" />
    <path d="m 10839,22721 c -51,-52 -42,-61 62,-61 l 91,0 -6,28 c -16,66 -96,84 -147,33 z" inkscape:connector-curvature="0" id="path22" />
    <path d="m 31822,23600 c -106,-28 -187,-75 -267,-155 -150,-150 -207,-356 -155,-559 29,-114 73,-190 160,-276 119,-119 245,-170 415,-170 165,0 298,55 414,172 116,115 174,259 173,422 -2,164 -56,291 -172,408 -58,59 -95,86 -151,113 -144,68 -276,82 -417,45 z m 249,-230 c 29,-6 69,-19 89,-29 101,-52 107,-188 9,-245 l -32,-19 35,-18 c 148,-76 118,-285 -46,-334 -66,-20 -204,-30 -289,-21 l -67,8 0,328 0,329 53,4 c 112,8 197,7 248,-3 z" inkscape:connector-curvature="0" id="path24" />
    <path d="m 31920,23196 0,-76 44,0 c 84,0 126,28 126,83 0,40 -34,61 -106,65 l -64,4 0,-76 z" inkscape:connector-curvature="0" id="path26" />
    <path d="m 31920,22910 0,-100 45,0 c 86,0 145,42 145,103 0,63 -49,97 -140,97 l -50,0 0,-100 z" inkscape:connector-curvature="0" id="path28" />
    <path d="m 1849,23522 c -75,-85 -97,-123 -41,-69 24,23 37,27 85,27 52,0 59,-3 69,-25 8,-18 19,-25 40,-25 15,0 28,3 28,6 0,12 -92,174 -98,174 -4,-1 -41,-40 -83,-88 z m 76,-2 16,-30 -46,0 -46,0 21,30 c 12,17 25,30 30,30 5,0 16,-13 25,-30 z" inkscape:connector-curvature="0" id="path30" />
    <path d="m 2088,23603 c 63,-5 61,2 27,-150 -5,-20 -1,-23 24,-23 24,0 30,5 35,28 3,15 10,53 16,84 l 11,57 52,4 c 29,2 -9,3 -83,3 -74,0 -111,-1 -82,-3 z" inkscape:connector-curvature="0" id="path32" />
    <path d="m 2356,23598 c -8,-25 -26,-132 -26,-150 0,-12 7,-18 24,-18 20,0 25,6 31,40 l 7,40 67,0 c 44,0 74,5 89,16 24,17 29,53 10,72 -17,17 -197,17 -202,0 z m 152,-24 c 5,-32 -24,-54 -69,-54 -41,0 -46,8 -33,58 6,20 12,23 53,20 38,-2 47,-7 49,-24 z" inkscape:connector-curvature="0" id="path34" />
    <path d="m 1850,23314 c -95,-25 -197,-82 -268,-148 l -66,-63 55,-26 c 30,-14 66,-34 81,-44 27,-17 28,-17 55,9 152,141 384,158 560,41 158,-105 235,-304 188,-488 -27,-104 -63,-165 -146,-246 l -78,-77 -16,-83 c -8,-45 -14,-83 -12,-85 7,-7 126,49 175,82 71,50 162,150 201,223 69,131 89,306 51,455 -29,116 -73,190 -165,281 -89,90 -182,143 -295,169 -81,20 -247,19 -320,0 z" inkscape:connector-curvature="0" id="path36" />
    <path d="m 33144,23239 c -18,-5 -53,-24 -80,-41 -69,-47 -108,-125 -112,-227 -3,-68 -1,-82 25,-130 97,-186 382,-96 347,109 -14,81 -72,130 -154,130 -22,0 -55,-7 -72,-16 l -31,-16 19,32 c 23,40 79,71 140,78 l 44,5 0,43 0,44 -47,-1 c -27,0 -62,-5 -79,-10 z m 33,-254 c 24,-17 39,-71 28,-104 -27,-86 -135,-56 -135,38 0,41 6,53 35,69 27,16 47,15 72,-3 z" inkscape:connector-curvature="0" id="path38" />
    <path d="m 33372,23193 3,-48 108,-3 c 59,-1 107,-5 107,-9 0,-3 -43,-88 -95,-189 -52,-100 -95,-185 -95,-188 0,-3 27,-6 60,-6 l 60,0 100,206 c 74,152 100,217 100,245 l 0,39 -176,0 -175,0 3,-47 z" inkscape:connector-curvature="0" id="path40" />
    <path d="m 1228,23044 c -47,-14 -48,-16 -48,-55 0,-34 3,-39 18,-35 146,44 268,31 367,-39 130,-92 154,-106 196,-113 24,-4 72,-4 107,1 35,5 65,7 67,5 3,-2 8,-28 12,-58 7,-49 10,-54 43,-65 27,-9 36,-18 40,-41 5,-24 10,-29 35,-29 27,0 30,-4 33,-33 3,-26 10,-35 39,-47 40,-17 41,-8 -11,-142 -65,-168 -95,-399 -65,-505 9,-36 12,-38 49,-38 l 39,0 -10,32 c -14,51 -11,221 7,306 14,69 69,242 105,330 18,43 5,63 -51,76 -45,11 -47,13 -66,85 -3,9 -12,11 -28,7 -21,-5 -25,-2 -28,21 -2,20 -12,32 -35,42 -26,12 -33,21 -38,55 -14,89 -15,90 -125,75 -97,-13 -127,-5 -207,58 -142,110 -306,150 -445,107 z" inkscape:connector-curvature="0" id="path42" />
    <path d="m 1388,22873 c -8,-25 -13,-86 -13,-173 0,-162 19,-229 97,-345 101,-152 263,-251 441,-270 75,-8 66,-18 84,97 l 10,58 -36,5 c -134,22 -215,62 -294,146 -101,108 -152,281 -117,399 10,33 8,37 -21,62 -28,23 -106,58 -130,58 -4,0 -13,-17 -21,-37 z" inkscape:connector-curvature="0" id="path44" />
    <path d="m 33766,19484 c -9,-8 -16,-24 -16,-35 0,-25 35,-59 60,-59 25,0 60,34 60,59 0,28 -27,51 -60,51 -16,0 -36,-7 -44,-16 z" inkscape:connector-curvature="0" id="path46" />
    <path d="m 30758,19483 -28,-4 0,-250 0,-249 55,0 55,0 0,89 0,88 63,5 c 123,10 187,67 187,166 0,111 -58,155 -210,158 -52,1 -107,0 -122,-3 z m 202,-103 c 28,-28 26,-75 -5,-105 -18,-19 -35,-25 -70,-25 l -45,0 0,75 0,75 50,0 c 37,0 55,-5 70,-20 z" inkscape:connector-curvature="0" id="path48" />
    <path d="m 32460,19456 c 0,-38 -17,-304 -26,-409 l -5,-68 53,3 53,3 10,200 c 10,197 10,199 23,140 7,-33 29,-122 49,-197 l 37,-138 46,0 46,0 54,183 c 29,100 57,189 62,197 4,8 8,-55 8,-141 0,-86 3,-177 6,-203 l 7,-46 54,0 c 50,0 53,1 49,23 -3,12 -7,85 -11,162 -3,77 -8,182 -11,233 l -7,92 -73,0 -72,0 -26,-77 c -14,-43 -37,-120 -50,-172 -14,-51 -27,-95 -29,-98 -3,-2 -7,16 -11,39 -3,24 -23,103 -44,176 l -37,132 -77,0 -78,0 0,-34 z" inkscape:connector-curvature="0" id="path50" />
    <path d="m 32083,19422 c -51,-14 -53,-16 -53,-48 0,-30 -3,-34 -25,-34 -22,0 -25,-4 -25,-40 0,-36 3,-40 25,-40 25,0 25,0 25,-95 0,-60 5,-108 14,-130 17,-39 60,-65 110,-65 56,0 66,8 66,51 0,35 -3,39 -24,39 -46,0 -57,24 -54,114 l 3,81 38,3 c 36,3 37,4 37,43 0,39 0,39 -39,39 l -40,0 -3,48 -3,49 -52,-15 z" inkscape:connector-curvature="0" id="path52" />
    <path d="m 31224,19326 c -66,-34 -97,-87 -98,-165 -1,-109 60,-177 168,-188 47,-5 64,-2 109,20 71,35 101,86 101,172 0,108 -62,173 -172,182 -47,4 -65,0 -108,-21 z m 135,-75 c 11,-11 23,-36 27,-55 20,-110 -54,-187 -117,-120 -20,21 -24,36 -24,86 0,53 3,62 28,84 34,29 60,31 86,5 z" inkscape:connector-curvature="0" id="path54" />
    <path d="m 31734,19336 c -18,-8 -35,-19 -38,-25 -11,-18 -26,-13 -26,9 0,17 -7,20 -51,20 l -51,0 6,-31 c 3,-17 6,-98 6,-180 l 0,-149 55,0 55,0 0,120 c 0,107 2,122 20,140 11,11 29,20 40,20 11,0 29,-9 40,-20 18,-18 20,-33 20,-140 l 0,-120 55,0 55,0 0,139 c 0,127 -2,141 -23,172 -39,57 -97,73 -163,45 z" inkscape:connector-curvature="0" id="path56" />
    <path d="m 33125,19337 c -37,-12 -40,-15 -37,-47 3,-43 5,-44 43,-31 49,17 103,14 122,-7 10,-10 17,-21 17,-24 0,-3 -24,-8 -54,-11 -132,-13 -198,-96 -151,-187 30,-59 105,-76 175,-40 34,17 40,18 40,5 0,-11 12,-15 50,-15 l 50,0 0,128 c 0,140 -11,178 -63,216 -34,25 -134,31 -192,13 z m 145,-221 c 0,-57 -76,-91 -100,-46 -22,41 12,78 73,79 24,1 27,-2 27,-33 z" inkscape:connector-curvature="0" id="path58" />
    <path d="m 33625,19339 c -11,-6 -30,-23 -42,-38 l -23,-26 0,33 c 0,32 0,32 -51,32 -48,0 -51,-1 -45,-22 3,-13 6,-94 6,-180 l 0,-158 55,0 55,0 0,110 c 0,127 12,150 75,150 l 35,0 0,55 c 0,50 -2,55 -22,55 -13,0 -32,-5 -43,-11 z" inkscape:connector-curvature="0" id="path60" />
    <path d="m 34063,19339 c -66,-19 -123,-102 -123,-179 0,-124 95,-200 235,-187 90,9 98,13 91,55 -3,19 -7,36 -8,38 -2,1 -24,-2 -50,-7 -57,-13 -121,2 -143,34 -8,12 -15,25 -15,29 0,5 54,8 120,8 l 120,0 0,50 c 0,126 -99,196 -227,159 z m 110,-87 c 35,-31 21,-42 -53,-42 -38,0 -70,3 -70,6 0,16 24,46 43,54 26,10 55,4 80,-18 z" inkscape:connector-curvature="0" id="path62" />
    <path d="m 33760,19160 0,-180 55,0 55,0 0,180 0,180 -55,0 -55,0 0,-180 z" inkscape:connector-curvature="0" id="path64" />
    <path d="m 25565,18810 c -7,-11 -5,-209 2,-227 4,-10 501,-13 2439,-13 l 2434,0 0,125 0,125 -2434,0 c -1587,0 -2437,-3 -2441,-10 z" inkscape:connector-curvature="0" id="path66" />
    <path d="m 31385,18624 c -16,-7 -183,-127 -370,-266 -374,-279 -389,-294 -382,-379 2,-27 13,-60 26,-77 32,-46 703,-539 752,-554 57,-17 116,4 144,52 19,34 20,52 23,565 2,386 0,542 -9,573 -24,85 -104,124 -184,86 z m 21,-1072 c -7,-6 -591,427 -591,438 0,5 133,107 295,227 l 295,218 3,-439 c 1,-241 0,-441 -2,-444 z" inkscape:connector-curvature="0" id="path68" />
    <path d="m 20030,18495 c 0,-52 -2,-95 -5,-95 -4,0 -20,7 -37,16 -67,35 -160,-1 -198,-76 -22,-44 -27,-140 -9,-187 36,-97 153,-131 229,-67 l 30,26 0,-26 c 0,-25 3,-26 50,-26 l 50,0 0,265 0,265 -55,0 -55,0 0,-95 z m -25,-175 c 22,-24 30,-96 16,-133 -6,-15 -22,-32 -35,-38 -61,-28 -112,27 -103,108 6,55 30,83 72,83 19,0 39,-8 50,-20 z" inkscape:connector-curvature="0" id="path70" />
    <path d="m 20790,18325 0,-265 55,0 55,0 0,265 0,265 -55,0 -55,0 0,-265 z" inkscape:connector-curvature="0" id="path72" />
    <path d="m 22810,18325 0,-265 55,0 55,0 0,265 0,265 -55,0 -55,0 0,-265 z" inkscape:connector-curvature="0" id="path74" />
    <path d="m 19446,18564 c -9,-8 -16,-24 -16,-35 0,-25 35,-59 60,-59 25,0 60,34 60,59 0,28 -27,51 -60,51 -16,0 -36,-7 -44,-16 z" inkscape:connector-curvature="0" id="path76" />
    <path d="m 21020,18562 c 0,-10 -11,-55 -24,-100 l -24,-82 35,0 c 33,0 35,2 72,83 58,127 59,117 -4,117 -46,0 -55,-3 -55,-18 z" inkscape:connector-curvature="0" id="path78" />
    <path d="m 21796,18525 -36,-55 40,0 c 22,0 40,3 40,8 0,4 9,18 19,31 l 18,24 19,-32 c 15,-26 24,-31 56,-31 l 38,0 -36,55 c -35,52 -39,55 -79,55 -40,0 -44,-3 -79,-55 z" inkscape:connector-curvature="0" id="path80" />
    <path d="m 21190,18315 0,-255 55,0 55,0 0,105 0,105 95,0 95,0 0,-105 0,-105 55,0 55,0 0,255 0,255 -55,0 -55,0 0,-100 0,-100 -95,0 -95,0 0,100 0,100 -55,0 -55,0 0,-255 z" inkscape:connector-curvature="0" id="path82" />
    <path d="m 24454,18524 c -16,-8 -39,-29 -50,-47 -18,-31 -19,-55 -19,-587 l 0,-555 22,-36 c 46,-73 120,-79 209,-18 183,125 662,490 681,518 34,50 39,95 17,150 -18,43 -44,64 -359,299 -187,139 -358,262 -380,272 -48,23 -80,25 -121,4 z m 404,-414 c 160,-118 291,-217 292,-221 0,-5 -41,-36 -427,-321 l -173,-128 0,446 c 0,245 4,444 8,442 5,-1 139,-100 300,-218 z" inkscape:connector-curvature="0" id="path84" />
    <path d="m 22203,18502 c -51,-14 -53,-16 -53,-48 0,-30 -3,-34 -25,-34 -22,0 -25,-4 -25,-40 0,-36 3,-40 25,-40 25,0 25,0 25,-95 0,-60 5,-108 14,-130 17,-39 60,-65 110,-65 56,0 66,8 66,51 0,35 -3,39 -24,39 -46,0 -57,24 -54,114 l 3,81 38,3 c 36,3 37,4 37,43 0,39 0,39 -39,39 l -40,0 -3,48 -3,49 -52,-15 z" inkscape:connector-curvature="0" id="path86" />
    <path d="m 25657,18464 c -4,-4 -7,-245 -7,-535 l 0,-529 170,0 170,0 0,535 0,535 -163,0 c -90,0 -167,-3 -170,-6 z" inkscape:connector-curvature="0" id="path88" />
    <path d="m 30010,17935 0,-535 170,0 170,0 -2,533 -3,532 -167,3 -168,2 0,-535 z" inkscape:connector-curvature="0" id="path90" />
    <path d="m 18250,18423 c -37,-15 -72,-48 -91,-85 -17,-33 -20,-55 -17,-114 4,-81 20,-112 79,-152 42,-29 106,-26 150,7 l 29,22 0,-96 0,-95 55,0 55,0 0,255 0,255 -55,0 c -50,0 -55,-2 -55,-22 l 0,-21 -24,22 c -25,24 -95,37 -126,24 z m 125,-103 c 22,-24 30,-96 16,-133 -22,-58 -98,-61 -127,-5 -22,43 -14,116 16,140 29,24 73,23 95,-2 z" inkscape:connector-curvature="0" id="path92" />
    <path d="m 19085,18417 c -37,-12 -40,-15 -37,-47 3,-43 5,-44 43,-31 49,17 103,14 122,-7 10,-10 17,-21 17,-24 0,-3 -24,-8 -54,-11 -132,-13 -198,-96 -151,-187 30,-59 105,-76 175,-40 34,17 40,18 40,5 0,-11 12,-15 50,-15 l 50,0 0,128 c 0,140 -11,178 -63,216 -34,25 -134,31 -192,13 z m 145,-221 c 0,-57 -76,-91 -100,-46 -22,41 12,78 73,79 24,1 27,-2 27,-33 z" inkscape:connector-curvature="0" id="path94" />
    <path d="m 20333,18419 c -66,-19 -123,-102 -123,-179 0,-124 95,-200 235,-187 90,9 98,13 91,55 -3,19 -7,36 -8,38 -2,1 -24,-2 -50,-7 -57,-13 -121,2 -143,34 -8,12 -15,25 -15,29 0,5 54,8 120,8 l 120,0 0,50 c 0,126 -99,196 -227,159 z m 110,-87 c 35,-31 21,-42 -53,-42 -38,0 -70,3 -70,6 0,16 24,46 43,54 26,10 55,4 80,-18 z" inkscape:connector-curvature="0" id="path96" />
    <path d="m 21784,18406 c -66,-34 -97,-87 -98,-165 -1,-109 60,-177 168,-188 47,-5 64,-2 109,20 71,35 101,86 101,172 0,108 -62,173 -172,182 -47,4 -65,0 -108,-21 z m 135,-75 c 11,-11 23,-36 27,-55 20,-110 -54,-187 -117,-120 -20,21 -24,36 -24,86 0,53 3,62 28,84 34,29 60,31 86,5 z" inkscape:connector-curvature="0" id="path98" />
    <path d="m 22503,18419 c -66,-19 -123,-102 -123,-179 0,-124 95,-200 235,-187 90,9 98,13 91,55 -3,19 -7,36 -8,38 -2,1 -24,-2 -50,-7 -57,-13 -121,2 -143,34 -8,12 -15,25 -15,29 0,5 54,8 120,8 l 120,0 0,50 c 0,126 -99,196 -227,159 z m 110,-87 c 35,-31 21,-42 -53,-42 -38,0 -70,3 -70,6 0,16 24,46 43,54 26,10 55,4 80,-18 z" inkscape:connector-curvature="0" id="path100" />
    <path d="m 18600,18284 c 0,-156 11,-193 65,-218 56,-27 114,-18 154,25 l 21,23 0,-27 c 0,-26 2,-27 50,-27 l 50,0 0,180 0,180 -55,0 -55,0 0,-115 c 0,-110 -1,-117 -25,-140 -29,-30 -49,-31 -75,-5 -18,18 -20,33 -20,140 l 0,120 -55,0 -55,0 0,-136 z" inkscape:connector-curvature="0" id="path102" />
    <path d="m 19440,18240 0,-180 55,0 55,0 0,180 0,180 -55,0 -55,0 0,-180 z" inkscape:connector-curvature="0" id="path104" />
    <path d="m 26130,17935 0,-435 125,0 125,0 0,435 0,435 -125,0 -125,0 0,-435 z" inkscape:connector-curvature="0" id="path106" />
    <path d="m 29627,18364 c -3,-4 -6,-200 -7,-436 l 0,-429 127,3 128,3 0,430 0,430 -121,3 c -66,1 -123,0 -127,-4 z" inkscape:connector-curvature="0" id="path108" />
    <path d="m 26552,17933 3,-338 80,0 80,0 3,338 2,337 -85,0 -85,0 2,-337 z" inkscape:connector-curvature="0" id="path110" />
    <path d="m 29282,17933 3,-338 80,0 80,0 3,338 2,337 -85,0 -85,0 2,-337 z" inkscape:connector-curvature="0" id="path112" />
    <path d="m 32165,18164 c -51,-13 -112,-36 -128,-48 -17,-13 -16,-16 3,-62 12,-27 23,-50 24,-52 2,-1 19,7 39,18 86,51 189,28 203,-45 12,-64 -31,-129 -172,-262 -122,-114 -124,-117 -124,-160 l 0,-43 230,0 230,0 0,60 0,60 -121,0 -121,0 89,88 c 110,107 138,159 138,253 0,55 -5,72 -28,107 -36,55 -94,84 -177,88 -36,2 -74,1 -85,-2 z" inkscape:connector-curvature="0" id="path114" />
    <path d="m 23795,18122 c -44,-20 -82,-39 -84,-42 -6,-8 9,-99 18,-104 4,-3 31,6 60,20 29,13 55,24 57,24 2,0 4,-115 4,-255 l 0,-255 75,0 75,0 0,325 0,325 -62,0 c -52,0 -78,-7 -143,-38 z" inkscape:connector-curvature="0" id="path116" />
    <path d="m 19610,17595 c 0,-52 -2,-95 -5,-95 -4,0 -20,7 -37,16 -67,35 -160,-1 -198,-76 -22,-44 -27,-140 -9,-187 36,-97 153,-131 229,-67 l 30,26 0,-26 c 0,-25 3,-26 50,-26 l 50,0 0,265 0,265 -55,0 -55,0 0,-95 z m -25,-175 c 22,-24 30,-96 16,-133 -6,-15 -22,-32 -35,-38 -61,-28 -112,27 -103,108 6,55 30,83 72,83 19,0 39,-8 50,-20 z" inkscape:connector-curvature="0" id="path118" />
    <path d="m 21000,17425 0,-265 55,0 55,0 0,265 0,265 -55,0 -55,0 0,-265 z" inkscape:connector-curvature="0" id="path120" />
    <path d="m 21200,17425 0,-265 55,0 55,0 0,265 0,265 -55,0 -55,0 0,-265 z" inkscape:connector-curvature="0" id="path122" />
    <path d="m 20796,17664 c -9,-8 -16,-24 -16,-35 0,-25 35,-59 60,-59 25,0 60,34 60,59 0,28 -27,51 -60,51 -16,0 -36,-7 -44,-16 z" inkscape:connector-curvature="0" id="path124" />
    <path d="m 20291,17658 c 0,-7 35,-121 78,-253 l 77,-240 66,-3 66,-3 85,256 86,256 -61,-3 -61,-3 -28,-95 c -16,-52 -41,-141 -55,-198 l -27,-102 -32,127 c -18,71 -42,161 -54,201 l -22,72 -59,0 c -42,0 -60,-4 -59,-12 z" inkscape:connector-curvature="0" id="path126" />
    <path d="m 19903,17519 c -66,-19 -123,-102 -123,-179 0,-124 95,-200 235,-187 90,9 98,13 91,55 -3,19 -7,36 -8,38 -2,1 -24,-2 -50,-7 -57,-13 -121,2 -143,34 -8,12 -15,25 -15,29 0,5 54,8 120,8 l 120,0 0,50 c 0,126 -99,196 -227,159 z m 110,-87 c 35,-31 21,-42 -53,-42 -38,0 -70,3 -70,6 0,16 24,46 43,54 26,10 55,4 80,-18 z" inkscape:connector-curvature="0" id="path128" />
    <path d="m 21503,17519 c -66,-19 -123,-102 -123,-179 0,-124 95,-200 235,-187 90,9 98,13 91,55 -3,19 -7,36 -8,38 -2,1 -24,-2 -50,-7 -57,-13 -121,2 -143,34 -8,12 -15,25 -15,29 0,5 54,8 120,8 l 120,0 0,50 c 0,126 -99,196 -227,159 z m 110,-87 c 35,-31 21,-42 -53,-42 -38,0 -70,3 -70,6 0,16 24,46 43,54 26,10 55,4 80,-18 z" inkscape:connector-curvature="0" id="path130" />
    <path d="m 20790,17340 0,-180 55,0 55,0 0,180 0,180 -55,0 -55,0 0,-180 z" inkscape:connector-curvature="0" id="path132" />
    <path d="m 25564,17227 c -2,-7 -3,-62 -2,-123 l 3,-109 582,-3 583,-2 2,-1865 c 2,-1026 2,-1870 0,-1875 -2,-6 -161,-10 -448,-10 l -444,0 0,760 0,760 -885,0 -885,0 0,-760 0,-760 -535,0 -535,0 0,930 0,930 -10260,0 -10260,0 0,-1315 c 0,-1044 -3,-1317 -12,-1320 -174,-60 -256,-130 -310,-262 l -23,-58 -3,-569 c -3,-625 -3,-627 58,-753 48,-97 163,-190 261,-210 l 29,-5 0,-1314 0,-1314 10260,0 10260,0 0,1115 0,1115 3135,0 3135,0 0,3390 0,3390 585,0 585,0 0,125 0,125 -710,0 -710,0 0,-47 c 0,-27 0,-1552 0,-3390 l 0,-3343 -2816,0 c -2249,0 -2815,3 -2811,13 3,6 57,135 121,286 64,150 116,275 116,277 0,5 -92,44 -105,44 -7,0 -70,-138 -142,-307 l -129,-308 -252,-3 -252,-2 0,-1115 0,-1115 -10010,0 -10010,0 0,1180 0,1180 8712,2 8713,3 77,26 c 174,60 273,165 307,327 7,35 11,232 11,585 0,581 -1,588 -59,712 -54,113 -145,188 -266,220 -53,13 -954,15 -8777,15 l -8718,0 0,1180 0,1180 10000,2 c 5500,2 10005,2 10010,0 7,-3 10,-321 10,-928 l 0,-924 955,0 955,0 0,30 0,30 295,0 295,0 0,-30 0,-30 870,0 870,0 -2,2123 -3,2122 -708,3 c -579,2 -708,0 -713,-11 z m -549,-3052 c 14,-13 25,-36 25,-50 0,-36 -42,-75 -80,-75 -38,0 -80,39 -80,75 0,36 42,75 80,75 19,0 40,-9 55,-25 z m 15,-435 0,-240 -75,0 -75,0 0,240 0,240 75,0 75,0 0,-240 z M 2902,12333 c 38,-34 24,-69 -59,-149 l -78,-73 152,-1 c 167,0 183,-5 183,-60 0,-55 -16,-60 -183,-60 l -152,-1 78,-73 c 82,-78 95,-109 60,-148 -37,-41 -63,-26 -230,129 -87,81 -158,150 -158,153 0,3 71,71 157,153 166,155 188,168 230,130 z m 3307,-54 c 35,-12 34,-11 21,-60 l -10,-36 -78,4 c -94,5 -133,-14 -162,-80 -38,-82 -13,-186 52,-227 28,-18 45,-21 110,-17 l 78,4 6,-34 c 9,-45 1,-59 -36,-67 -199,-39 -350,68 -350,248 0,168 107,274 276,276 34,0 75,-5 93,-11 z m -1159,-204 0,-204 98,-3 97,-3 3,-47 3,-48 -160,0 -161,0 0,255 0,255 60,0 60,0 0,-205 z m -1040,46 c 45,-23 76,-69 84,-124 12,-76 10,-77 -125,-77 -76,0 -119,-4 -119,-10 0,-6 12,-22 26,-36 24,-24 30,-26 105,-22 75,3 80,2 85,-19 14,-56 -7,-70 -112,-72 -76,-1 -120,13 -162,52 -67,64 -69,197 -4,271 47,52 158,71 222,37 z m 380,-36 0,-55 -34,0 c -25,0 -40,-7 -55,-26 -18,-23 -21,-41 -21,-130 l 0,-104 -60,0 -60,0 0,180 0,180 50,0 c 47,0 50,-2 50,-25 0,-32 2,-31 38,5 21,20 40,30 61,30 31,0 31,0 31,-55 z m 265,45 c 25,-9 27,-14 20,-48 -4,-20 -8,-38 -8,-39 -1,-1 -21,4 -45,10 -30,8 -48,8 -59,1 -32,-20 -25,-34 32,-59 74,-33 105,-67 105,-115 0,-93 -115,-145 -242,-109 -42,11 -42,10 -28,60 l 10,37 38,-14 c 49,-17 87,-17 102,1 17,20 5,33 -54,59 -29,13 -62,36 -74,51 -42,54 -17,130 52,161 37,16 114,18 151,4 z m 880,-6 c 61,-29 69,-53 75,-212 l 5,-142 -52,0 c -40,0 -53,4 -53,15 0,12 -7,11 -40,-6 -59,-31 -124,-22 -163,21 -26,29 -29,38 -24,83 3,41 11,56 35,78 33,30 88,49 140,49 40,0 44,25 6,42 -19,9 -39,9 -82,0 -30,-6 -57,-10 -60,-8 -2,3 -5,19 -5,38 -2,29 2,34 33,45 50,17 146,16 185,-3 z m 1011,-3 c 136,-62 137,-274 2,-340 -82,-39 -197,-19 -246,44 -49,62 -53,168 -8,236 48,72 164,100 252,60 z m 834,-36 0,-55 -34,0 c -25,0 -40,-7 -55,-26 -18,-23 -21,-41 -21,-130 l 0,-104 -60,0 -60,0 0,180 0,180 50,0 c 47,0 50,-2 50,-25 0,-32 2,-31 38,5 21,20 40,30 61,30 31,0 31,0 31,-55 z m 350,39 c 53,-32 64,-66 68,-216 l 4,-138 -60,0 -60,0 -4,126 c -3,111 -5,127 -22,140 -26,19 -39,18 -70,-7 -25,-20 -26,-23 -26,-140 l 0,-119 -60,0 -60,0 0,180 0,180 49,0 c 40,0 51,-4 56,-19 6,-19 7,-19 42,5 42,28 102,32 143,8 z m 400,-3 c 45,-23 76,-69 84,-124 12,-76 10,-77 -125,-77 -76,0 -119,-4 -119,-10 0,-6 12,-22 26,-36 24,-24 30,-26 105,-22 75,3 80,2 85,-19 14,-56 -7,-70 -112,-72 -76,-1 -120,13 -162,52 -67,64 -69,197 -4,271 47,52 158,71 222,37 z m 1220,0 c 45,-23 76,-69 84,-124 12,-76 10,-77 -125,-77 -76,0 -119,-4 -119,-10 0,-6 12,-22 26,-36 24,-24 30,-26 105,-22 75,3 80,2 85,-19 14,-56 -7,-70 -112,-72 -76,-1 -120,13 -162,52 -67,64 -69,197 -4,271 47,52 158,71 222,37 z m -5854,-106 c 18,-60 33,-112 34,-115 1,-3 16,47 34,110 l 32,115 63,3 c 35,2 61,-1 60,-6 -2,-5 -33,-87 -69,-181 l -65,-172 -60,3 -60,3 -62,165 c -34,91 -62,171 -62,178 -1,10 15,12 61,10 l 61,-3 33,-110 z m 3344,6 c 0,-60 4,-121 9,-134 13,-33 46,-43 76,-23 24,16 25,20 25,141 l 0,125 60,0 60,0 0,-180 0,-180 -50,0 c -43,0 -50,3 -50,20 0,18 -2,18 -36,-5 -66,-45 -157,-27 -191,38 -13,24 -18,65 -21,170 l -4,137 61,0 61,0 0,-109 z m 1550,0 c 0,-60 4,-121 9,-134 13,-33 46,-43 76,-23 24,16 25,20 25,141 l 0,125 60,0 60,0 0,-180 0,-180 -50,0 c -43,0 -50,3 -50,20 0,18 -2,18 -36,-5 -66,-45 -157,-27 -191,38 -13,24 -18,65 -21,170 l -4,137 61,0 61,0 0,-109 z m 446,-6 c 18,-60 33,-112 34,-115 1,-3 16,47 34,110 l 32,115 63,3 c 35,2 61,-1 60,-6 -2,-5 -33,-87 -69,-181 l -65,-172 -60,3 -60,3 -62,165 c -34,91 -62,171 -62,178 -1,10 15,12 61,10 l 61,-3 33,-110 z m 3366,100 c 210,-44 390,-220 444,-434 22,-90 15,-254 -14,-335 -63,-172 -198,-308 -365,-366 -86,-30 -238,-38 -331,-16 -176,41 -335,175 -406,341 -33,78 -53,199 -45,279 35,364 363,606 717,531 z m -1674,-437 c 29,-101 55,-202 58,-226 4,-23 10,-44 14,-47 3,-2 15,31 25,73 10,42 39,145 65,227 l 48,150 101,3 101,3 0,-38 c 0,-21 7,-150 15,-288 8,-137 15,-271 15,-297 l 0,-48 -69,0 -69,0 -6,63 c -3,34 -9,151 -13,260 l -8,199 -38,-129 c -21,-70 -56,-185 -78,-255 l -40,-128 -59,0 -59,0 -11,43 c -7,23 -27,96 -45,162 -19,66 -43,160 -54,208 -10,49 -21,90 -24,93 -2,2 -7,-80 -11,-183 -3,-104 -9,-221 -13,-260 l -6,-73 -69,0 -70,0 6,48 c 3,26 13,176 23,335 l 17,287 101,0 102,0 51,-182 z m 8750,-375 c 3,-42 2,-43 -27,-43 -38,0 -61,-23 -61,-61 0,-27 3,-29 35,-29 35,0 35,0 35,-45 0,-45 0,-45 -35,-45 l -35,0 0,-135 0,-135 -60,0 -60,0 0,135 0,135 -25,0 c -23,0 -25,4 -25,45 0,41 2,45 25,45 22,0 25,5 25,33 0,45 29,98 70,125 27,18 45,22 85,20 l 50,-3 3,-42 z m -1990,9 c 43,-56 -37,-123 -90,-75 -44,39 -2,111 57,96 11,-3 26,-12 33,-21 z m 212,-237 0,-265 -60,0 -60,0 0,265 0,265 60,0 60,0 0,-265 z m 210,0 0,-265 -60,0 -60,0 0,265 0,265 60,0 60,0 0,-265 z m 608,237 c 43,-56 -37,-123 -90,-75 -44,39 -2,111 57,96 11,-3 26,-12 33,-21 z m 630,0 c 43,-56 -37,-123 -90,-75 -44,39 -2,111 57,96 11,-3 26,-12 33,-21 z m 909,-51 c 43,-38 118,-107 166,-153 l 89,-83 -157,-145 c -87,-80 -166,-148 -177,-153 -34,-13 -73,13 -76,52 -3,31 4,41 70,108 l 72,73 -140,0 c -159,0 -184,8 -184,62 0,62 16,68 183,68 l 151,0 -77,71 c -67,61 -77,75 -77,104 0,36 28,65 62,65 10,0 53,-31 95,-69 z m -4827,-196 0,-255 -60,0 -60,0 0,255 0,255 60,0 60,0 0,-255 z m 1802,185 c 10,-36 34,-122 52,-191 l 32,-126 55,191 54,191 63,3 c 57,3 63,1 58,-15 -3,-10 -41,-124 -84,-253 l -79,-235 -69,-3 -69,-3 -78,248 c -43,136 -78,252 -77,256 0,4 28,7 62,5 l 61,-3 19,-65 z m -2842,-89 c 45,-23 76,-69 84,-124 12,-76 10,-77 -125,-77 -76,0 -119,-4 -119,-10 0,-6 12,-22 26,-36 24,-24 30,-26 105,-22 75,3 80,2 85,-19 14,-56 -7,-70 -112,-72 -76,-1 -120,13 -162,52 -67,64 -69,197 -4,271 47,52 158,71 222,37 z m 380,-36 0,-55 -34,0 c -25,0 -40,-7 -55,-26 -18,-23 -21,-41 -21,-130 l 0,-104 -60,0 -60,0 0,180 0,180 50,0 c 47,0 50,-2 50,-25 0,-32 2,-31 38,5 21,20 40,30 61,30 31,0 31,0 31,-55 z m 265,45 c 25,-9 27,-14 20,-48 -4,-20 -8,-38 -8,-39 -1,-1 -21,4 -45,10 -30,8 -48,8 -59,1 -32,-20 -25,-34 32,-59 74,-33 105,-67 105,-115 0,-93 -115,-145 -242,-109 -42,11 -42,10 -28,60 l 10,37 38,-14 c 49,-17 87,-17 102,1 17,20 5,33 -54,59 -29,13 -62,36 -74,51 -42,54 -17,130 52,161 37,16 114,18 151,4 z m 1105,-45 0,-55 -34,0 c -25,0 -40,-7 -55,-26 -18,-23 -21,-41 -21,-130 l 0,-104 -60,0 -60,0 0,180 0,180 50,0 c 47,0 50,-2 50,-25 0,-32 2,-31 38,5 21,20 40,30 61,30 31,0 31,0 31,-55 z m 2300,36 c 45,-23 76,-69 84,-124 12,-76 10,-77 -125,-77 -76,0 -119,-4 -119,-10 0,-6 12,-22 26,-36 24,-24 30,-26 105,-22 75,3 80,2 85,-19 14,-56 -7,-70 -112,-72 -76,-1 -120,13 -162,52 -67,64 -69,197 -4,271 47,52 158,71 222,37 z m -4554,-106 c 18,-60 33,-112 34,-115 1,-3 16,47 34,110 l 32,115 63,3 c 35,2 61,-1 60,-6 -2,-5 -33,-87 -69,-181 l -65,-172 -60,3 -60,3 -62,165 c -34,91 -62,171 -62,178 -1,10 15,12 61,10 l 61,-3 33,-110 z m 1750,0 c 18,-60 33,-112 34,-115 1,-3 16,47 34,110 l 32,115 63,3 c 35,2 61,-1 60,-6 -2,-5 -33,-87 -69,-181 l -65,-172 -60,3 -60,3 -62,165 c -34,91 -62,171 -62,178 -1,10 15,12 61,10 l 61,-3 33,-110 z m 680,70 c 7,-22 24,-76 37,-120 l 23,-80 30,120 30,120 62,3 c 34,2 62,1 62,0 0,-6 -87,-250 -110,-308 -35,-91 -82,-159 -129,-191 -65,-43 -84,-39 -99,17 -7,26 -11,47 -10,48 2,1 20,9 41,19 69,31 69,46 -6,235 -37,92 -67,171 -67,175 0,4 28,7 62,5 l 61,-3 13,-40 z m 1384,-135 0,-180 -60,0 -60,0 0,180 0,180 60,0 60,0 0,-180 z m 1028,-17 c -4,-217 -9,-237 -68,-286 -26,-23 -113,-47 -125,-35 -2,2 -7,22 -10,44 -7,38 -6,40 28,52 50,18 57,47 57,248 l 0,174 61,0 61,0 -4,-197 z m 202,88 c 0,-60 4,-121 9,-134 13,-33 46,-43 76,-23 24,16 25,20 25,141 l 0,125 60,0 60,0 0,-180 0,-180 -50,0 c -43,0 -50,3 -50,20 0,18 -2,18 -36,-5 -66,-45 -157,-27 -191,38 -13,24 -18,65 -21,170 l -4,137 61,0 61,0 0,-109 z m 430,-71 0,-180 -60,0 -60,0 0,180 0,180 60,0 60,0 0,-180 z m -2430,20 0,-40 -100,0 -100,0 0,40 0,40 100,0 100,0 0,-40 z" inkscape:connector-curvature="0" id="path134" />
    <path d="m 3870,12040 c -33,-33 -24,-40 50,-40 39,0 70,3 70,8 0,4 -7,18 -16,30 -20,29 -76,30 -104,2 z" inkscape:connector-curvature="0" id="path136" />
    <path d="m 5433,11930 c -19,-8 -43,-38 -43,-54 0,-12 33,-36 51,-36 29,0 59,36 59,70 0,25 -4,30 -22,29 -13,0 -33,-4 -45,-9 z" inkscape:connector-curvature="0" id="path138" />
    <path d="m 6413,12036 c -25,-22 -28,-31 -28,-86 0,-55 3,-64 28,-86 15,-13 34,-24 42,-24 8,0 27,11 42,24 25,22 28,31 28,86 0,55 -3,64 -28,86 -15,13 -34,24 -42,24 -8,0 -27,-11 -42,-24 z" inkscape:connector-curvature="0" id="path140" />
    <path d="m 7990,12040 c -33,-33 -24,-40 50,-40 39,0 70,3 70,8 0,4 -7,18 -16,30 -20,29 -76,30 -104,2 z" inkscape:connector-curvature="0" id="path142" />
    <path d="m 9210,12040 c -33,-33 -24,-40 50,-40 39,0 70,3 70,8 0,4 -7,18 -16,30 -20,29 -76,30 -104,2 z" inkscape:connector-curvature="0" id="path144" />
    <path d="m 11850,11775 0,-65 145,0 c 80,0 145,-2 145,-4 0,-2 -58,-118 -130,-257 -71,-140 -130,-255 -130,-256 0,-2 37,-3 83,-3 l 82,0 133,275 c 115,240 132,282 132,325 l 0,50 -230,0 -230,0 0,-65 z" inkscape:connector-curvature="0" id="path146" />
    <path d="m 13850,11080 c -33,-33 -24,-40 50,-40 39,0 70,3 70,8 0,4 -7,18 -16,30 -20,29 -76,30 -104,2 z" inkscape:connector-curvature="0" id="path148" />
    <path d="m 17900,11080 c -33,-33 -24,-40 50,-40 39,0 70,3 70,8 0,4 -7,18 -16,30 -20,29 -76,30 -104,2 z" inkscape:connector-curvature="0" id="path150" />
    <path d="m 19850,13725 0,-535 165,0 165,0 0,535 0,535 -165,0 -165,0 0,-535 z" inkscape:connector-curvature="0" id="path152" />
    <path d="m 19460,13725 0,-435 125,0 125,0 0,435 0,435 -125,0 -125,0 0,-435 z" inkscape:connector-curvature="0" id="path154" />
    <path d="m 19115,14058 c -3,-7 -4,-161 -2,-343 l 2,-330 83,-3 82,-3 0,346 0,345 -80,0 c -55,0 -82,-4 -85,-12 z" inkscape:connector-curvature="0" id="path156" />
    <path d="m 22926,12898 c -55,-15 -131,-91 -146,-146 -8,-30 -10,-151 -8,-390 3,-342 3,-348 26,-391 54,-101 100,-121 278,-121 l 134,0 0,-360 0,-360 65,0 65,0 0,360 0,360 278,0 c 270,0 278,1 327,24 59,27 100,71 115,124 8,25 10,157 8,397 l -3,360 -28,47 c -29,51 -63,78 -116,96 -44,15 -938,15 -995,0 z m 692,-222 c 3,-169 -2,-196 -34,-196 -7,0 -20,7 -28,16 -13,13 -16,43 -16,173 0,169 4,184 50,179 l 25,-3 3,-169 z m -336,-13 c 10,-9 18,-30 18,-46 0,-25 -14,-44 -77,-103 l -78,-73 353,-1 c 210,0 361,-4 372,-10 26,-14 34,-57 15,-86 l -15,-24 -363,0 -362,0 78,-76 c 82,-80 94,-109 60,-146 -35,-39 -60,-25 -225,128 -87,80 -158,149 -158,153 0,4 48,53 108,108 222,207 233,214 274,176 z m 321,-396 c 16,-11 17,-31 15,-182 -3,-169 -3,-170 -26,-173 -48,-7 -52,8 -52,179 0,130 3,160 16,173 19,19 25,20 47,3 z" inkscape:connector-curvature="0" id="path158" />
    <path d="m 26520,11790 0,-530 23,-5 c 12,-3 87,-4 167,-3 l 145,3 3,533 2,532 -170,0 -170,0 0,-530 z" inkscape:connector-curvature="0" id="path160" />
    <path d="m 26153,12224 c -10,-4 -13,-102 -13,-440 l 0,-434 125,0 125,0 -2,438 -3,437 -110,2 c -60,1 -116,0 -122,-3 z" inkscape:connector-curvature="0" id="path162" />
    <path d="m 25796,12121 c -3,-5 -5,-158 -5,-340 l 0,-331 85,0 84,0 0,340 0,340 -79,0 c -44,0 -82,-4 -85,-9 z" inkscape:connector-curvature="0" id="path164" />
    <path d="m 19850,9505 0,-535 165,0 165,0 0,535 0,535 -165,0 -165,0 0,-535 z" inkscape:connector-curvature="0" id="path166" />
    <path d="m 19460,9505 0,-435 125,0 125,0 0,435 0,435 -125,0 -125,0 0,-435 z" inkscape:connector-curvature="0" id="path168" />
    <path d="m 19116,9843 c -3,-4 -6,-157 -6,-340 l 1,-333 85,0 84,0 0,340 0,340 -78,0 c -43,0 -82,-3 -86,-7 z" inkscape:connector-curvature="0" id="path170" />
  </g>
</svg>
