<?xml version="1.0" standalone="no"?>
<!DOCTYPE svg PUBLIC "-//W3C//DTD SVG 20010904//EN"
 "http://www.w3.org/TR/2001/REC-SVG-20010904/DTD/svg10.dtd">
<svg version="1.0" xmlns="http://www.w3.org/2000/svg"
 width="3508.000000pt" height="2480.000000pt" viewBox="0 0 3508.000000 2480.000000"
 preserveAspectRatio="xMidYMid meet">
<metadata>
Created by potrace 1.11, written by Peter Selinger 2001-2013
</metadata>
<g transform="translate(0.000000,2480.000000) scale(0.100000,-0.100000)"
fill="#000000" stroke="none">
<path d="M4990 22830 l0 -1590 -635 0 -635 0 0 -190 c0 -183 -1 -190 -20 -190
-19 0 -20 -7 -20 -120 l0 -120 -1125 0 -1125 0 0 -1470 0 -1470 -615 0 -615 0
0 -1780 0 -1780 45 0 45 0 0 -1780 0 -1780 135 0 135 0 0 -1780 0 -1780 -95 0
-95 0 0 -1780 0 -1780 -165 0 -165 0 0 -1475 0 -1475 1820 0 1820 0 0 285 0
285 5520 0 5520 0 0 1170 0 1170 -1840 0 -1840 0 0 215 0 215 1355 0 1355 0 0
491 c0 389 -3 489 -12 483 -10 -6 -10 -4 -1 7 10 10 13 244 13 1101 l0 1088
357 0 356 0 -19 23 -19 22 26 -22 c23 -21 35 -23 147 -23 l122 0 0 360 0 360
7360 0 7360 0 0 -360 0 -360 120 0 120 0 0 -2160 0 -2160 1225 0 1225 0 0
2160 0 2160 495 0 495 0 0 360 0 360 980 0 980 0 0 2380 0 2380 -980 0 -980 0
0 820 0 820 -495 0 -495 0 0 1780 0 1780 225 0 225 0 0 3370 0 3370 -13795 0
-13795 0 0 -1590z m3628 964 c60 -67 -24 -163 -106 -120 -32 16 -42 34 -42 71
0 38 11 56 44 71 40 17 75 10 104 -22z m2962 -293 c0 -180 3 -349 6 -375 l7
-46 -77 0 -76 0 0 30 c0 17 -3 30 -6 30 -3 0 -23 -14 -45 -32 -53 -42 -144
-51 -205 -20 -86 44 -133 127 -134 233 0 127 42 208 132 253 67 33 128 34 191
2 l47 -23 0 138 0 139 80 0 80 0 0 -329z m5147 254 c23 -38 43 -76 43 -82 0
-9 -17 -13 -50 -13 l-50 0 -62 76 c-35 42 -65 80 -66 86 -3 5 26 8 69 6 l74
-3 42 -70z m3803 -300 l0 -375 -80 0 -80 0 0 375 0 375 80 0 80 0 0 -375z
m3728 339 c29 -33 28 -66 -2 -101 -19 -22 -32 -28 -66 -28 -50 0 -80 30 -80
79 0 80 94 112 148 50z m302 -339 l0 -376 -80 3 -81 3 -2 373 -2 372 83 0 82
0 0 -375z m300 0 l0 -375 -85 0 -85 0 0 375 0 375 85 0 85 0 0 -375z m-18684
312 c70 -35 112 -80 147 -155 41 -88 48 -202 19 -299 -23 -75 -73 -149 -116
-172 -14 -8 -26 -17 -26 -21 0 -4 36 -15 80 -25 44 -10 80 -22 80 -26 0 -17
-43 -119 -51 -119 -11 0 -170 57 -226 81 -26 11 -75 25 -107 30 -188 31 -296
164 -296 363 0 174 84 308 223 358 77 27 204 21 273 -15z m4623 7 c67 -19 130
-76 140 -124 12 -57 -5 -100 -57 -147 -27 -25 -40 -43 -31 -43 26 0 97 -69
109 -106 17 -50 8 -139 -17 -171 -66 -89 -147 -115 -354 -111 l-144 3 -3 352
-2 352 27 4 c77 11 282 6 332 -9z m1441 -242 c0 -276 -6 -320 -50 -382 -36
-50 -110 -80 -200 -80 -126 0 -130 4 -113 104 l6 38 48 -6 c57 -8 111 11 131
46 10 17 14 90 16 281 l3 257 80 0 79 0 0 -258z m2520 -24 c-6 -315 -8 -328
-73 -385 -20 -18 -56 -37 -79 -44 -40 -10 -202 -9 -213 2 -2 3 -1 32 3 65 l7
59 67 0 c60 0 70 3 95 28 l28 27 3 265 3 265 82 0 82 0 -5 -282z m4140 247
c64 -35 93 -79 93 -139 0 -51 -23 -94 -69 -125 l-34 -24 40 -19 c121 -60 128
-246 12 -323 -61 -40 -141 -55 -292 -55 -74 0 -141 4 -148 8 -9 7 -12 84 -10
352 l3 344 25 7 c14 5 93 7 175 6 146 -2 151 -3 205 -32z m4928 20 c151 -45
191 -193 76 -281 l-36 -28 29 -14 c70 -36 103 -90 103 -167 0 -82 -46 -146
-135 -187 -46 -21 -64 -23 -220 -23 l-170 0 -3 352 -2 352 27 4 c76 11 282 6
331 -8z m5447 -29 c90 -53 132 -157 123 -307 -7 -110 -36 -184 -98 -252 -62
-68 -143 -106 -243 -115 -116 -11 -117 -11 -117 58 l0 58 68 7 c106 11 172 48
208 117 22 43 17 49 -23 26 -52 -31 -144 -30 -203 3 -68 37 -104 95 -108 177
-3 58 0 74 25 121 52 100 132 144 249 138 56 -3 82 -10 119 -31z m526 24 c96
-27 153 -103 152 -205 0 -96 -59 -194 -178 -295 -27 -24 -51 -47 -53 -51 -2
-5 53 -9 122 -9 l126 0 0 -65 0 -65 -245 0 -245 0 0 48 0 48 125 118 c179 168
221 253 161 323 -21 25 -31 28 -83 28 -41 0 -71 -7 -102 -23 -52 -27 -57 -24
-81 48 -12 37 -12 42 6 55 57 44 214 67 295 45z m-21543 -108 l3 -72 54 0 55
0 0 -60 0 -60 -55 0 -55 0 0 -117 c0 -135 8 -153 72 -153 l38 0 0 -59 c0 -69
-2 -71 -98 -71 -49 0 -76 5 -99 20 -60 36 -67 58 -73 225 l-5 150 -32 3 -33 3
0 60 0 59 35 0 35 0 0 58 0 58 68 15 c37 9 72 15 77 14 6 -1 11 -34 13 -73z
m20230 0 l3 -72 54 0 55 0 0 -60 0 -60 -55 0 -55 0 0 -117 c0 -135 8 -153 72
-153 l38 0 0 -59 c0 -69 -2 -71 -98 -71 -49 0 -76 5 -99 20 -60 36 -67 58 -73
225 l-5 150 -32 3 -33 3 0 60 0 59 35 0 35 0 0 58 0 58 68 15 c37 9 72 15 77
14 6 -1 11 -34 13 -73z m-21064 -91 c20 -13 49 -42 64 -64 26 -40 27 -45 32
-234 l5 -193 -72 0 c-70 0 -73 1 -79 26 l-6 25 -22 -20 c-30 -28 -70 -41 -127
-41 -190 0 -230 243 -53 322 23 10 72 22 109 27 37 5 69 12 72 15 11 11 -8 37
-34 47 -27 11 -130 1 -176 -17 -17 -6 -28 13 -43 70 -5 21 0 26 38 39 66 25
77 26 169 23 69 -2 92 -6 123 -25z m546 -46 l0 -75 -37 0 c-47 0 -100 -31
-113 -66 -6 -14 -10 -88 -10 -165 l0 -139 -80 0 -80 0 -2 225 c-1 124 -2 237
-2 253 -1 27 -1 27 69 27 l70 0 5 -38 5 -39 22 29 c26 36 77 62 121 63 l32 0
0 -75z m1134 50 c22 -11 52 -36 68 -55 36 -46 65 -157 52 -203 l-10 -32 -162
-3 c-179 -3 -185 -6 -131 -58 29 -28 35 -29 117 -29 48 0 98 2 112 5 22 5 25
1 36 -48 12 -53 12 -53 -14 -64 -43 -17 -216 -22 -266 -8 -56 15 -120 69 -148
124 -18 33 -22 58 -22 126 -1 76 3 91 29 138 29 54 81 98 140 120 45 17 153
10 199 -13z m536 -50 l0 -75 -35 0 c-44 0 -90 -23 -106 -51 -7 -13 -10 -77
-10 -170 l2 -149 -86 0 -85 0 0 255 0 255 70 0 70 0 0 -47 0 -48 24 36 c28 41
77 68 124 69 l32 0 0 -75z m451 46 c76 -76 -6 -199 -104 -157 -42 17 -57 41
-57 91 0 51 44 95 95 95 27 0 44 -8 66 -29z m2592 18 c84 -23 142 -105 153
-218 10 -92 10 -92 -175 -90 -110 1 -156 -2 -159 -11 -5 -14 25 -48 60 -66 31
-16 137 -19 186 -5 29 9 34 7 42 -13 4 -13 10 -38 12 -57 3 -33 2 -34 -47 -47
-76 -20 -229 -11 -281 16 -57 29 -100 82 -119 144 -33 111 -9 207 69 283 28
28 67 56 86 62 46 14 125 16 173 2z m599 -25 c73 -52 82 -82 88 -297 l5 -188
-75 3 c-69 3 -75 5 -78 25 l-3 23 -36 -27 c-29 -22 -49 -28 -102 -31 -56 -3
-71 0 -101 20 -77 53 -100 131 -60 212 32 68 93 98 243 121 48 8 48 30 2 52
-31 15 -44 15 -98 6 -34 -7 -71 -15 -83 -18 -18 -6 -23 -1 -33 39 -6 25 -11
47 -11 50 0 5 70 32 105 40 11 3 59 4 107 2 79 -2 92 -5 130 -32z m604 17 c86
-39 104 -96 104 -328 l0 -173 -79 0 -79 0 -4 171 -3 171 -28 24 c-36 30 -68
30 -104 0 l-28 -24 -3 -171 -3 -171 -80 0 -79 0 0 203 c0 111 -3 226 -7 255
l-6 53 74 -3 c72 -3 74 -4 77 -30 4 -32 14 -35 33 -11 22 26 90 53 134 53 22
0 58 -9 81 -19z m1356 -17 c73 -52 82 -82 88 -297 l5 -188 -75 3 c-69 3 -75 5
-80 27 -5 22 -6 23 -20 6 -41 -49 -163 -61 -221 -22 -76 51 -99 130 -59 211
32 68 93 98 243 121 48 8 48 30 2 52 -31 15 -44 15 -98 6 -34 -7 -71 -15 -83
-18 -17 -5 -22 -1 -27 22 -4 15 -9 38 -13 49 -5 18 1 24 38 37 66 25 77 26
170 23 79 -2 92 -5 130 -32z m1148 -39 l0 -75 -29 0 c-47 0 -91 -21 -106 -51
-11 -21 -15 -65 -15 -174 l0 -146 -80 3 -79 3 -3 253 -3 252 68 0 67 0 0 -40
c0 -46 11 -51 34 -15 23 36 75 65 114 65 l32 0 0 -75z m395 64 c58 -16 119
-81 139 -148 22 -74 21 -147 -1 -155 -9 -4 -84 -6 -166 -5 -81 0 -151 -2 -154
-5 -12 -11 30 -58 65 -73 37 -15 166 -14 204 1 13 6 18 -2 27 -44 6 -28 9 -55
6 -60 -11 -18 -115 -32 -201 -28 -102 5 -152 26 -201 82 -41 45 -57 97 -57
176 0 82 17 132 62 182 70 78 172 106 277 77z m541 0 c24 -6 44 -16 44 -21 0
-9 -21 -101 -24 -105 -1 -1 -24 4 -51 12 -62 19 -78 19 -105 -3 -33 -26 -17
-46 66 -82 116 -51 158 -112 134 -198 -12 -48 -64 -97 -117 -111 -50 -14 -168
-13 -218 3 -39 12 -40 13 -38 53 1 23 6 51 12 62 10 18 13 18 41 5 16 -9 54
-18 83 -21 42 -4 57 -2 71 12 24 25 16 47 -24 67 -19 9 -57 27 -85 40 -109 52
-128 166 -42 246 51 48 157 65 253 41z m2155 -4 c60 -21 104 -58 136 -113 25
-42 28 -57 28 -137 0 -80 -3 -95 -28 -137 -50 -85 -131 -128 -242 -128 -115 0
-191 42 -240 131 -25 47 -29 64 -29 130 1 87 23 145 78 198 65 63 202 89 297
56z m1565 -13 c52 -26 108 -89 125 -138 17 -49 16 -147 0 -198 -17 -49 -73
-111 -125 -138 -64 -33 -187 -37 -254 -8 -103 44 -157 138 -150 258 5 92 38
156 102 200 27 17 62 36 80 42 52 16 176 6 222 -18z m507 15 c18 -8 38 -21 46
-30 19 -24 31 -21 31 8 0 24 2 25 70 25 l70 0 0 -227 c0 -248 -10 -337 -42
-395 -24 -43 -74 -80 -133 -98 -49 -16 -186 -16 -240 -1 -68 19 -70 22 -55 78
7 26 16 51 19 55 4 4 29 1 56 -8 30 -9 73 -14 109 -11 51 3 63 8 86 34 25 28
48 98 36 110 -3 3 -19 -5 -37 -18 -39 -27 -121 -37 -174 -19 -48 16 -101 63
-128 114 -33 63 -31 193 5 261 32 61 59 87 118 114 52 24 117 27 163 8z m724
2 c38 -14 71 -46 96 -94 19 -36 22 -61 25 -227 l4 -188 -86 0 -86 0 0 159 c0
88 -4 171 -10 185 -19 52 -88 59 -130 14 -18 -20 -20 -35 -20 -190 l0 -168
-85 0 -85 0 0 255 0 255 70 0 c67 0 70 -1 70 -23 0 -36 10 -38 44 -12 17 13
43 28 56 34 34 13 102 13 137 0z m588 -8 c89 -40 142 -139 133 -251 l-3 -45
-163 -2 c-90 -1 -166 -4 -169 -7 -12 -11 30 -58 65 -73 37 -15 168 -15 204 1
19 9 29 -15 31 -76 2 -29 -2 -33 -38 -44 -67 -21 -206 -17 -269 6 -221 83
-197 430 34 501 46 14 134 9 175 -10z m2416 7 c53 -17 88 -46 111 -91 20 -38
23 -61 26 -229 l4 -188 -76 0 c-76 0 -76 0 -76 27 0 24 -1 25 -17 11 -57 -50
-159 -64 -223 -29 -113 59 -103 228 17 293 37 20 152 48 197 48 3 0 6 7 6 16
0 8 -17 22 -37 31 -32 13 -48 14 -98 5 -33 -6 -69 -14 -81 -17 -17 -5 -22 0
-32 33 -7 22 -12 44 -12 50 0 10 60 36 105 45 42 9 154 6 186 -5z m656 -7 c29
-14 49 -33 70 -68 28 -48 28 -50 31 -240 l4 -193 -81 0 -81 0 0 150 c0 107 -4
160 -14 185 -26 61 -80 72 -127 26 l-29 -29 0 -166 0 -166 -80 0 -80 0 0 203
c0 111 -3 226 -6 255 l-7 52 71 0 c70 0 70 0 77 -30 8 -36 9 -36 38 -9 53 51
141 63 214 30z m623 3 c5 -5 4 -33 -3 -64 l-12 -55 -70 3 c-60 3 -75 0 -105
-20 -42 -28 -62 -77 -54 -133 6 -51 26 -80 66 -101 31 -16 111 -21 149 -9 14
5 18 -2 24 -37 3 -24 9 -50 11 -59 7 -24 -45 -39 -136 -39 -95 0 -157 20 -205
67 -54 52 -75 105 -75 188 0 133 67 222 200 266 31 11 198 5 210 -7z m431 1
c59 -20 114 -66 142 -118 18 -34 22 -58 22 -132 0 -80 -3 -95 -28 -137 -50
-85 -131 -128 -242 -128 -115 0 -191 42 -240 131 -38 71 -41 180 -6 252 58
119 216 178 352 132z m1209 -60 l0 -75 -37 0 c-47 0 -100 -31 -113 -66 -6 -14
-10 -88 -10 -165 l0 -139 -80 0 -80 0 -2 225 c-1 124 -2 237 -2 253 -1 27 -1
27 69 27 l70 0 5 -38 5 -39 22 29 c26 36 77 62 121 63 l32 0 0 -75z m-21570
-89 c0 -86 5 -167 11 -185 19 -55 78 -68 126 -27 l28 24 3 171 3 171 80 0 79
0 0 -255 0 -255 -70 0 -70 0 0 30 c0 17 -3 30 -6 30 -4 0 -21 -13 -40 -30 -55
-48 -172 -54 -231 -12 -60 42 -68 76 -71 295 l-3 197 80 0 81 0 0 -154z m2000
-101 l0 -255 -80 0 -80 0 0 255 0 255 80 0 80 0 0 -255z m6980 101 c0 -86 5
-167 11 -185 19 -55 78 -68 126 -27 l28 24 3 171 3 171 80 0 79 0 0 -255 0
-255 -70 0 -70 0 0 37 0 37 -32 -31 c-42 -40 -76 -53 -141 -53 -68 0 -123 32
-151 85 -19 36 -21 60 -24 238 l-3 197 80 0 81 0 0 -154z m4302 -10 c3 -149 5
-167 24 -193 36 -48 108 -40 133 14 7 14 11 88 11 184 l0 160 80 -3 80 -3 2
-253 3 -253 -70 3 c-68 3 -70 4 -73 31 -4 29 -16 36 -25 13 -10 -25 -90 -56
-146 -56 -60 0 -98 17 -134 60 -40 47 -47 90 -47 283 l0 177 79 0 79 0 4 -164z
m4358 -91 l0 -255 -80 0 -80 0 0 255 0 255 80 0 80 0 0 -255z m3141 86 c4
-163 5 -170 28 -195 26 -28 56 -33 94 -15 41 18 47 49 47 219 l0 160 80 0 80
0 0 -209 c0 -114 3 -229 6 -255 l7 -47 -74 3 -74 3 -5 35 c-5 33 -6 34 -18 13
-30 -53 -167 -82 -231 -48 -39 20 -78 69 -91 113 -5 20 -10 117 -10 215 l0
177 79 0 79 0 3 -169z m-13051 -66 l0 -56 -137 3 -138 3 -3 53 -3 52 140 0
141 0 0 -55z m3820 0 l0 -55 -140 0 -140 0 0 55 0 55 140 0 140 0 0 -55z
m5185 0 l0 -50 -140 0 -140 0 -3 39 c-6 68 -8 67 145 64 l138 -3 0 -50z
m-13274 -124 c21 -22 29 -39 29 -66 0 -96 -134 -132 -178 -48 -34 64 12 143
83 143 27 0 44 -8 66 -29z m15669 -1351 l0 -640 1770 0 1770 0 0 -130 0 -130
70 0 70 0 0 -60 c0 -53 2 -60 20 -60 20 0 20 -7 20 -1590 l0 -1590 100 0 100
0 0 -1780 0 -1780 -100 0 -100 0 0 -190 c0 -183 -1 -190 -20 -190 -20 0 -20
-7 -20 -630 l0 -630 -5520 0 -5520 0 0 820 0 820 -1755 0 -1755 0 0 1780 0
1780 1660 0 1660 0 0 1780 0 1780 95 0 95 0 0 640 0 640 3680 0 3680 0 0 -640z
m-18913 -1847 c116 -42 184 -87 271 -178 130 -136 192 -287 192 -470 0 -212
-100 -417 -263 -541 -298 -225 -708 -183 -944 97 -314 373 -154 943 306 1093
110 36 105 35 236 32 104 -3 131 -7 202 -33z m5716 -441 l27 -28 0 -483 0
-483 -250 -500 c-199 -398 -250 -507 -250 -539 0 -38 -1 -39 -37 -39 -22 0
-60 -12 -90 -27 -47 -25 -53 -31 -53 -60 l0 -33 90 0 90 0 0 -105 0 -104 128
-3 127 -3 3 -443 c2 -366 0 -447 -12 -470 -12 -23 -12 -31 0 -52 11 -20 13
-122 14 -534 l0 -509 -130 -262 -130 -261 -205 -205 c-113 -112 -211 -205
-218 -207 -7 -1 -201 92 -432 209 l-420 211 -74 -7 c-44 -4 -90 -15 -114 -27
-35 -17 -58 -20 -169 -20 -80 1 -128 -3 -128 -9 0 -6 -4 -7 -10 -4 -5 3 -10 1
-10 -5 0 -6 -4 -8 -10 -5 -5 3 -10 2 -10 -3 0 -5 -18 -9 -40 -9 -22 0 -40 4
-40 9 0 5 -4 6 -10 3 -5 -3 -10 -1 -10 5 0 6 -4 8 -10 5 -5 -3 -10 -1 -10 5 0
6 -6 10 -12 9 -7 -1 -30 -1 -50 0 l-38 1 0 285 0 285 -30 0 -30 0 0 165 0 165
-329 0 -330 0 43 73 c24 39 72 122 106 182 35 61 77 135 95 165 50 84 115 218
115 235 0 9 20 38 45 64 25 26 45 53 45 59 0 7 17 49 38 94 34 73 96 288 91
314 -1 5 -1 11 0 14 8 29 15 329 7 337 -3 3 -6 33 -6 65 0 32 -12 105 -26 161
-26 97 -27 112 -25 332 l2 230 84 85 c84 85 85 87 239 390 l155 305 140 139
140 140 723 362 723 362 226 1 225 1 27 -28z m-6102 -1078 c7 -4 10 -3 6 2 -5
9 486 9 553 0 19 -3 289 -5 599 -5 l564 -1 -6 -192 c-5 -181 -7 -199 -35 -285
-54 -162 -136 -346 -169 -381 -7 -7 -16 -24 -19 -38 -3 -13 -10 -24 -16 -24
-5 0 -6 -4 -3 -10 3 -5 1 -10 -4 -10 -6 0 -10 -3 -9 -8 3 -7 -41 -83 -83 -144
-11 -15 -19 -30 -19 -33 0 -17 -103 -154 -112 -148 -7 3 -8 1 -4 -6 5 -7 -49
-69 -145 -166 l-153 -155 -158 0 c-88 0 -157 4 -154 8 3 5 -9 6 -26 4 -19 -3
-28 -1 -25 5 4 7 -12 6 -46 0 -29 -6 -66 -11 -84 -11 -17 -1 -29 -5 -26 -10 3
-5 -8 -7 -25 -4 -17 2 -29 1 -27 -2 3 -4 -27 -10 -66 -14 -39 -3 -84 -13 -100
-22 -27 -14 -32 -13 -57 5 -16 11 -54 22 -94 26 -37 4 -66 10 -64 14 3 3 -14
5 -36 3 -23 -3 -38 0 -35 5 3 5 -20 6 -54 3 -35 -3 -64 -2 -71 5 -8 7 -9 6 -3
-4 6 -11 2 -13 -18 -9 -16 3 -24 1 -20 -5 3 -6 -8 -8 -30 -5 -20 2 -33 0 -31
-4 3 -4 -34 -8 -83 -7 l-88 1 -74 148 c-46 92 -71 152 -66 160 6 9 4 11 -5 5
-10 -6 -12 -4 -7 9 4 9 3 15 -2 12 -12 -8 -35 50 -25 65 5 8 3 9 -6 4 -10 -6
-12 -4 -7 9 4 9 3 15 -2 12 -10 -7 -36 75 -53 169 -21 120 -13 535 10 521 4
-2 8 15 8 38 1 47 90 259 105 250 5 -3 6 3 2 12 -5 13 -3 15 7 9 9 -5 11 -4 6
3 -4 7 14 52 39 102 l47 90 127 1 c69 1 158 4 196 8 84 7 160 5 176 -5z m2749
-878 c80 -22 206 -88 275 -143 172 -140 267 -340 267 -563 0 -520 -523 -870
-1006 -674 -209 85 -383 290 -431 509 -27 119 -17 294 22 402 72 198 202 339
395 427 40 19 98 39 128 45 30 6 64 13 75 15 37 9 220 -3 275 -18z m1830
-5891 l0 -445 3680 0 3680 0 0 445 0 445 5520 0 5520 0 0 -1120 0 -1120 -5520
0 -5520 0 0 -25 0 -25 -1840 0 -1840 0 0 -940 0 -940 -3680 0 -3680 0 0 1065
0 1065 -1840 0 -1840 0 0 240 0 240 1840 0 1840 0 0 780 0 780 1840 0 1840 0
0 -445z m1720 -4275 c-547 -3 -1004 -9 -1015 -13 -11 -5 -9 -1 5 7 22 14 140
15 1015 13 l990 -2 -995 -5z m-1890 -26 c36 -8 108 -35 160 -61 80 -39 108
-59 185 -137 97 -98 144 -173 187 -301 20 -61 23 -89 23 -215 0 -136 -2 -150
-31 -231 -80 -226 -267 -401 -499 -470 -68 -20 -196 -30 -274 -20 -299 38
-541 246 -623 538 -28 99 -29 266 -4 363 68 258 274 463 530 530 89 24 255 26
346 4z m-3510 -759 l0 -665 -1840 0 -1840 0 0 665 0 665 1840 0 1840 0 0 -665z
m6876 547 c-5 -4 -106 46 -106 53 0 3 25 -7 55 -22 30 -15 53 -29 51 -31z
m-1391 -148 c111 -59 145 -107 145 -202 0 -98 -12 -117 -151 -255 -71 -70
-129 -132 -129 -137 0 -5 66 -11 148 -12 l147 -3 0 -65 0 -65 -242 -3 -243 -2
0 66 c0 89 23 126 165 261 127 122 148 160 126 226 -16 48 -42 69 -93 74 -43
4 -54 -1 -125 -52 -20 -16 -22 -14 -58 40 -45 67 -43 70 59 120 93 46 175 49
251 9z m595 -4 c109 -55 146 -150 96 -248 -14 -28 -38 -58 -53 -65 l-27 -14
25 -13 c70 -36 101 -89 100 -172 0 -100 -70 -188 -176 -225 -68 -23 -225 -14
-282 15 -42 22 -57 52 -32 68 6 3 17 22 25 40 15 36 24 40 54 24 11 -6 43 -15
71 -20 119 -23 200 51 158 143 -18 39 -60 57 -133 57 l-67 0 3 68 3 67 67 3
c53 2 71 7 92 27 35 32 35 77 0 112 -23 23 -31 25 -89 21 -49 -3 -70 -9 -88
-26 -13 -12 -27 -22 -33 -22 -8 0 -54 95 -54 113 0 4 32 23 72 42 99 48 181
49 268 5z m-1179 0 l49 0 0 -370 0 -370 -85 0 -85 0 0 284 0 283 -72 -38 c-40
-21 -77 -39 -83 -39 -10 0 -55 95 -55 116 0 6 19 19 43 28 23 8 80 38 127 66
47 27 91 47 98 45 8 -3 36 -5 63 -5z m-5472 -2076 c31 -8 92 -32 136 -53 342
-163 484 -580 313 -921 -33 -66 -62 -104 -128 -171 -146 -148 -280 -204 -485
-204 -205 0 -339 56 -485 204 -137 137 -201 292 -201 480 1 442 425 773 850
665z m4981 -201 c0 -8 -9 0 -50 45 l-45 47 48 -45 c26 -24 47 -45 47 -47z
m-5520 -1332 c20 3 493 3 928 1 l94 -1 168 -173 c93 -95 167 -174 165 -177 -3
-2 4 -10 15 -18 11 -8 20 -18 20 -24 0 -5 9 -19 20 -31 12 -13 27 -30 34 -38
35 -40 106 -161 100 -172 -5 -7 -3 -8 6 -3 10 6 12 4 7 -8 -3 -9 -1 -19 5 -23
7 -5 8 -2 4 7 -4 8 0 5 8 -6 9 -11 14 -25 11 -33 -2 -7 0 -10 5 -7 16 10 90
-154 150 -330 l27 -80 -50 -62 c-50 -62 -51 -63 -101 -63 -41 0 -68 -9 -136
-45 -72 -37 -105 -64 -215 -174 l-130 -131 -50 0 c-30 0 -74 -10 -109 -25 -33
-13 -64 -21 -69 -18 -6 4 -7 1 -2 -7 6 -10 4 -12 -9 -7 -11 5 -15 3 -10 -5 5
-8 2 -9 -9 -5 -9 3 -19 1 -23 -5 -5 -7 -2 -8 6 -3 9 6 11 4 5 -4 -4 -7 -16
-11 -26 -8 -11 3 -17 1 -14 -3 3 -5 -14 -20 -37 -33 -34 -19 -56 -23 -110 -22
-37 1 -65 -2 -62 -6 6 -11 -36 -23 -71 -20 -16 1 -51 -2 -77 -7 -43 -9 -52 -7
-109 25 -57 32 -67 34 -140 32 -79 -2 -79 -2 -136 41 -78 59 -145 80 -251 80
l-85 0 -73 70 c-39 39 -77 70 -84 70 -6 0 -8 5 -4 12 4 6 3 8 -4 4 -13 -8 -63
14 -56 25 3 5 -3 6 -12 2 -10 -4 -15 -2 -11 3 6 11 0 12 -90 20 -47 4 -66 11
-84 30 -22 24 -23 27 -11 107 11 75 66 251 122 387 13 30 25 75 27 100 16 197
39 334 53 325 4 -3 6 5 2 17 -4 16 -2 19 8 13 9 -5 11 -4 6 4 -10 16 3 53 16
45 7 -4 8 -2 4 5 -9 14 2 53 14 46 4 -3 6 3 4 12 -3 10 27 79 65 153 l69 135
107 2 c59 0 109 4 113 8 4 3 16 3 27 0 11 -4 31 -5 45 -4z"/>
<path d="M11282 23465 c-35 -15 -71 -78 -72 -124 0 -43 23 -102 48 -122 35
-27 94 -25 129 5 25 22 28 31 31 104 4 76 3 81 -24 110 -35 38 -69 46 -112 27z"/>
<path d="M5940 23648 c-19 -13 -45 -45 -59 -73 -23 -43 -26 -62 -26 -145 0
-107 18 -155 75 -204 58 -48 126 -46 184 5 79 69 97 234 39 356 -37 78 -143
108 -213 61z"/>
<path d="M10602 23593 c3 -76 4 -78 30 -81 38 -5 106 16 129 39 26 26 24 65
-6 94 -21 22 -33 25 -90 25 l-66 0 3 -77z"/>
<path d="M10600 23295 l0 -105 56 0 c96 0 144 37 144 111 0 56 -70 99 -162 99
l-38 0 0 -105z"/>
<path d="M18652 23593 l3 -78 60 2 c75 3 109 25 113 75 5 54 -31 78 -115 78
l-64 0 3 -77z"/>
<path d="M18658 23394 c-5 -4 -8 -52 -8 -106 l0 -98 63 0 c77 0 120 23 137 74
13 42 0 78 -40 108 -26 19 -139 36 -152 22z"/>
<path d="M23630 23589 l0 -82 55 7 c72 8 101 23 116 58 25 62 -18 98 -117 98
l-54 0 0 -81z"/>
<path d="M23630 23294 l0 -106 71 4 c66 3 74 6 101 37 26 29 30 39 25 75 -9
61 -65 96 -159 96 l-38 0 0 -106z"/>
<path d="M29082 23638 c-77 -83 -30 -218 70 -205 72 10 95 50 78 133 -8 37
-19 60 -37 74 -35 27 -84 26 -111 -2z"/>
<path d="M7258 23304 c-49 -26 -61 -71 -28 -104 48 -48 130 3 130 79 0 41 0
41 -37 41 -21 -1 -50 -7 -65 -16z"/>
<path d="M8922 23465 c-16 -14 -32 -34 -35 -45 -5 -19 0 -20 93 -20 l97 0 -5
25 c-11 62 -97 85 -150 40z"/>
<path d="M12529 23461 c-52 -52 -42 -61 67 -61 94 0 95 0 89 23 -20 68 -105
89 -156 38z"/>
<path d="M13114 23310 c-26 -10 -54 -48 -54 -72 0 -26 36 -58 66 -58 41 0 84
50 84 99 0 41 0 41 -37 40 -21 0 -48 -4 -59 -9z"/>
<path d="M15068 23304 c-49 -26 -61 -71 -28 -104 48 -48 130 3 130 79 0 41 0
41 -37 41 -21 -1 -50 -7 -65 -16z"/>
<path d="M16629 23461 c-52 -52 -42 -61 67 -61 94 0 95 0 89 23 -20 68 -105
89 -156 38z"/>
<path d="M19317 23460 c-17 -14 -30 -38 -38 -74 -28 -128 50 -238 139 -192 39
20 62 71 62 140 0 61 -27 129 -55 140 -33 12 -83 6 -108 -14z"/>
<path d="M20851 23459 c-31 -29 -43 -65 -42 -127 0 -71 25 -121 70 -139 31
-13 39 -13 67 1 80 37 97 194 29 262 -31 31 -92 33 -124 3z"/>
<path d="M21474 23466 c-45 -20 -67 -74 -62 -149 4 -52 9 -64 36 -88 22 -20
43 -29 65 -29 64 1 87 40 87 144 0 64 -3 79 -22 100 -29 32 -64 39 -104 22z"/>
<path d="M22707 23479 c-15 -9 -47 -59 -47 -74 0 -3 43 -5 95 -5 61 0 95 4 95
11 0 16 -21 53 -39 66 -19 15 -80 16 -104 2z"/>
<path d="M25155 23304 c-16 -8 -33 -21 -37 -27 -14 -22 -8 -57 13 -78 46 -46
129 7 129 82 0 38 0 39 -37 39 -21 0 -51 -7 -68 -16z"/>
<path d="M26825 23456 c-36 -36 -50 -100 -37 -165 13 -60 29 -83 73 -102 68
-28 129 40 129 144 0 99 -33 147 -100 147 -30 0 -47 -7 -65 -24z"/>
<path d="M6232 19353 c-13 -203 -22 -374 -22 -380 0 -9 22 -13 78 -13 l79 0 7
173 c11 286 19 408 26 400 3 -4 16 -53 28 -108 12 -55 44 -179 70 -275 l47
-175 69 0 69 0 73 234 c40 128 78 255 84 282 7 27 16 49 21 49 5 0 9 -56 9
-123 0 -68 3 -199 7 -290 l6 -167 85 0 84 0 -6 83 c-3 45 -11 181 -17 302 -6
121 -12 234 -14 250 -1 17 -3 51 -4 78 l-1 47 -113 0 -113 0 -52 -162 c-28
-90 -61 -203 -73 -253 -12 -49 -24 -92 -26 -94 -8 -10 -16 13 -37 106 -13 55
-43 168 -66 251 l-44 152 -116 0 -116 0 -22 -367z"/>
<path d="M10925 18329 c-33 -10 -69 -26 -79 -34 -21 -16 -21 -15 15 -112 l8
-22 48 24 c135 69 235 17 203 -106 -10 -38 -32 -64 -156 -186 l-144 -141 0
-51 0 -51 245 0 245 0 0 70 0 70 -126 0 -125 0 84 80 c108 102 151 177 151
267 0 129 -95 214 -238 212 -42 0 -96 -8 -131 -20z"/>
<path d="M11687 18339 c-91 -21 -177 -81 -225 -157 -89 -139 -87 -344 4 -451
55 -64 104 -85 199 -85 93 -1 141 19 195 80 45 52 60 93 60 166 0 76 -23 131
-73 175 -64 56 -159 68 -237 30 -43 -22 -43 -22 -26 12 34 64 127 111 223 111
l43 0 0 65 0 65 -62 -1 c-35 -1 -80 -5 -101 -10z m41 -374 c38 -44 28 -147
-17 -182 -23 -18 -73 -16 -100 3 -43 30 -65 119 -41 164 29 54 117 62 158 15z"/>
<path d="M10974 17160 c-38 -8 -144 -55 -144 -64 0 -14 44 -116 50 -116 5 0
28 11 51 25 32 18 59 25 97 25 46 0 58 -4 83 -29 72 -73 10 -185 -210 -376
l-80 -70 -1 -52 0 -53 250 0 250 0 0 70 0 70 -125 0 -125 0 88 88 c169 167
197 312 83 423 -66 64 -149 82 -267 59z"/>
<path d="M11728 17160 c-202 -34 -330 -212 -316 -440 9 -141 73 -234 187 -267
108 -31 216 -2 283 77 91 105 75 280 -31 355 -34 24 -54 30 -109 33 -64 4 -86
-1 -155 -36 -5 -2 1 15 13 37 34 68 140 121 240 121 l30 0 0 65 0 65 -47 -1
c-27 -1 -69 -5 -95 -9z m13 -389 c37 -37 42 -106 13 -162 -15 -30 -33 -39 -75
-39 -57 0 -88 33 -102 107 -19 100 93 165 164 94z"/>
<path d="M10368 17115 c-53 -28 -88 -51 -88 -61 0 -30 22 -104 32 -104 5 0 31
11 58 25 27 14 54 25 60 25 7 0 10 -92 10 -275 l0 -275 80 0 80 0 -2 353 -3
352 -70 2 c-65 2 -76 -1 -157 -42z"/>
<path d="M10753 16282 c-48 -24 -53 -29 -53 -59 l0 -33 191 0 c186 0 193 1
251 27 55 25 59 28 56 57 l-3 31 -195 2 c-193 2 -196 2 -247 -25z"/>
<path d="M10135 16153 c1107 -7 1935 -7 1935 0 0 4 -530 6 -1177 5 -648 -2
-989 -4 -758 -5z"/>
<path d="M10476 16004 c-15 -14 -26 -27 -24 -30 3 -2 13 5 23 16 15 17 31 20
97 20 l78 0 0 -382 c0 -210 2 -379 5 -377 2 3 5 173 5 378 1 270 -2 377 -11
387 -8 9 -33 14 -78 14 -56 -1 -70 -4 -95 -26z"/>
<path d="M10760 16020 c0 -6 95 -10 266 -10 174 0 263 3 259 10 -4 6 -103 10
-266 10 -166 0 -259 -4 -259 -10z"/>
<path d="M11390 16020 c0 -6 72 -10 195 -10 123 0 195 4 195 10 0 6 -72 10
-195 10 -123 0 -195 -4 -195 -10z"/>
<path d="M11793 15935 c0 -38 2 -53 4 -32 2 20 2 52 0 70 -2 17 -4 1 -4 -38z"/>
<path d="M11363 15915 c0 -22 2 -30 4 -17 2 12 2 30 0 40 -3 9 -5 -1 -4 -23z"/>
<path d="M10335 15915 c-39 -32 -28 -32 15 0 19 14 30 25 24 25 -5 0 -22 -11
-39 -25z"/>
<path d="M10267 15889 c7 -7 15 -10 18 -7 3 3 -2 9 -12 12 -14 6 -15 5 -6 -5z"/>
<path d="M11284 15862 c-34 -54 -125 -234 -121 -238 3 -3 17 19 31 48 15 29
44 87 66 128 21 41 38 75 37 77 -2 1 -8 -6 -13 -15z"/>
<path d="M10240 15867 c0 -11 49 -117 54 -117 3 0 -7 26 -20 58 -26 56 -34 71
-34 59z"/>
<path d="M11085 15859 c-11 -16 -1 -19 13 -3 7 8 8 14 3 14 -5 0 -13 -5 -16
-11z"/>
<path d="M11520 15836 c0 -18 -3 -48 -6 -65 -6 -30 -6 -31 31 -31 54 0 113
-19 163 -52 23 -16 42 -25 42 -21 -1 26 -130 83 -188 83 l-35 0 6 60 c3 33 1
60 -4 60 -5 0 -9 -15 -9 -34z"/>
<path d="M10405 15784 c-33 -18 -69 -38 -80 -43 -11 -5 -15 -10 -9 -10 9 -1
140 64 153 75 2 2 2 6 0 8 -2 2 -31 -11 -64 -30z"/>
<path d="M11353 15755 c0 -27 2 -38 4 -22 2 15 2 37 0 50 -2 12 -4 0 -4 -28z"/>
<path d="M11016 15725 c-9 -26 -7 -32 5 -12 6 10 9 21 6 23 -2 3 -7 -2 -11
-11z"/>
<path d="M10981 15650 c-12 -22 -20 -40 -18 -40 7 0 48 72 44 76 -2 2 -14 -14
-26 -36z"/>
<path d="M11338 15645 c-2 -19 0 -35 4 -35 4 0 8 16 8 35 0 19 -2 35 -4 35 -2
0 -6 -16 -8 -35z"/>
<path d="M11780 15631 c0 -6 9 -29 20 -51 22 -43 27 -128 9 -162 -6 -11 -8
-22 -6 -25 13 -12 30 47 29 98 -1 39 -9 71 -27 104 -14 26 -25 43 -25 36z"/>
<path d="M10945 15589 c-18 -28 -76 -150 -94 -197 -12 -29 -21 -74 -20 -100 1
-46 1 -45 14 23 15 84 24 107 76 208 22 42 38 77 35 77 -3 0 -8 -5 -11 -11z"/>
<path d="M11614 15524 c17 -41 17 -53 1 -88 -29 -60 -104 -70 -208 -28 -42 18
-46 14 -9 -9 46 -30 152 -38 188 -15 47 32 68 130 32 153 -8 4 -9 0 -4 -13z"/>
<path d="M11340 15380 c-6 -11 -8 -20 -6 -20 3 0 10 9 16 20 6 11 8 20 6 20
-3 0 -10 -9 -16 -20z"/>
<path d="M11035 15316 c-4 -25 -5 -51 -2 -58 3 -7 6 1 6 19 1 17 5 43 11 57 5
15 6 26 0 26 -5 0 -12 -20 -15 -44z"/>
<path d="M11309 15321 c-13 -22 -14 -31 -4 -44 7 -10 16 -17 20 -17 4 0 2 7
-5 15 -10 12 -10 21 -1 42 16 35 9 38 -10 4z"/>
<path d="M11735 15304 c-18 -16 -22 -22 -9 -15 18 9 53 42 43 41 -2 -1 -17
-12 -34 -26z"/>
<path d="M11598 15223 c7 -3 16 -2 19 1 4 3 -2 6 -13 5 -11 0 -14 -3 -6 -6z"/>
<path d="M6535 18088 c-77 -28 -145 -98 -181 -183 -38 -92 4 -216 95 -280 38
-26 52 -30 126 -34 63 -2 92 1 116 13 18 9 34 16 36 16 12 0 -32 -62 -65 -92
-49 -44 -93 -59 -182 -61 l-70 -2 0 -76 c0 -72 1 -77 23 -83 33 -8 173 10 227
29 105 37 201 131 242 237 29 74 36 244 14 321 -20 71 -68 133 -131 172 -43
27 -58 30 -134 32 -47 1 -99 -3 -116 -9z m160 -160 c32 -29 50 -110 32 -148
-24 -50 -104 -66 -150 -30 -45 35 -48 121 -6 174 27 34 86 36 124 4z"/>
<path d="M6585 17920 c-3 -6 1 -7 9 -4 18 7 21 14 7 14 -6 0 -13 -4 -16 -10z"/>
<path d="M6573 17563 c15 -2 37 -2 50 0 12 2 0 4 -28 4 -27 0 -38 -2 -22 -4z"/>
<path d="M6513 17283 c9 -2 23 -2 30 0 6 3 -1 5 -18 5 -16 0 -22 -2 -12 -5z"/>
<path d="M7445 16968 l-50 -53 53 50 c28 27 52 51 52 52 0 8 -9 -1 -55 -49z"/>
<path d="M9420 17138 c-56 -29 -83 -77 -77 -136 6 -58 43 -95 134 -137 57 -26
74 -39 79 -60 14 -57 -55 -86 -145 -59 -29 8 -55 14 -57 12 -1 -2 -6 -22 -10
-45 -6 -41 -6 -41 32 -52 60 -17 154 -13 200 8 69 31 106 101 89 168 -9 38
-73 96 -124 113 -57 19 -91 46 -91 75 0 45 53 61 141 41 36 -8 36 -7 46 33 10
39 10 40 -20 50 -53 19 -148 13 -197 -11z"/>
<path d="M8412 17142 c-9 -7 -12 -63 -10 -248 l3 -239 120 0 c100 0 126 3 159
20 57 29 81 66 80 126 -1 52 -16 78 -67 109 l-28 17 28 18 c41 27 52 46 53 87
0 47 -36 91 -88 106 -44 13 -230 16 -250 4z m222 -92 c13 -13 17 -26 12 -44
-8 -32 -35 -47 -89 -49 l-42 -2 -3 54 c-2 36 1 57 10 63 20 13 90 0 112 -22z
m-10 -191 c33 -26 36 -79 5 -108 -22 -21 -91 -37 -109 -26 -5 3 -10 40 -10 81
l0 74 44 0 c29 0 52 -7 70 -21z"/>
<path d="M8850 16987 c0 -185 12 -246 58 -290 73 -70 239 -60 300 17 36 46 43
87 45 265 l2 171 -52 0 -53 0 -1 -157 c0 -173 -9 -215 -51 -246 -38 -28 -92
-17 -118 26 -18 28 -20 51 -20 205 l0 172 -55 0 -55 0 0 -163z"/>
<path d="M11127 6945 c-78 -27 -116 -93 -97 -165 13 -50 43 -78 116 -111 73
-33 94 -52 94 -84 0 -50 -80 -70 -162 -41 l-38 14 -11 -40 c-6 -24 -7 -44 -2
-49 20 -20 130 -31 184 -20 98 21 145 77 137 163 -6 62 -33 92 -118 130 -101
46 -122 75 -82 111 21 19 95 23 135 8 22 -9 25 -6 36 31 7 22 10 42 7 45 -9 9
-81 23 -121 22 -22 0 -57 -6 -78 -14z"/>
<path d="M10108 6943 l-28 -4 0 -243 0 -244 63 -6 c80 -9 188 7 231 33 90 56
82 196 -13 233 l-25 9 30 18 c61 37 77 87 45 138 -31 50 -73 66 -181 69 -52 1
-107 0 -122 -3z m190 -89 c52 -36 13 -94 -68 -102 l-50 -5 0 62 0 61 48 0 c27
0 57 -7 70 -16z m5 -202 c52 -53 5 -132 -79 -132 l-44 0 0 73 c0 41 3 77 8 81
13 14 94 -1 115 -22z"/>
<path d="M10520 6808 c0 -227 15 -285 88 -334 62 -43 179 -39 245 8 58 41 71
92 75 291 l4 177 -56 0 -56 0 0 -165 c0 -176 -9 -223 -48 -244 -26 -14 -68
-14 -93 -1 -41 23 -49 59 -49 240 l0 170 -55 0 -55 0 0 -142z"/>
<path d="M6255 4658 c-3 -12 -45 -688 -45 -730 0 -16 10 -18 78 -18 l79 0 7
173 c11 286 19 408 26 400 3 -4 16 -53 28 -108 12 -55 44 -179 70 -275 l47
-175 69 0 69 0 73 234 c40 128 78 255 84 282 7 27 16 49 21 49 5 0 9 -56 9
-123 0 -68 3 -199 7 -290 l6 -167 85 0 84 0 -6 83 c-3 45 -11 181 -17 302 -6
121 -12 234 -14 250 -1 17 -3 51 -4 78 l-1 47 -113 0 -113 0 -52 -162 c-28
-90 -61 -203 -73 -253 -12 -49 -24 -92 -26 -94 -7 -10 -15 11 -38 110 -14 57
-44 170 -67 252 l-42 147 -113 0 c-82 0 -115 -3 -118 -12z"/>
<path d="M6608 3073 c6 -2 18 -2 25 0 6 3 1 5 -13 5 -14 0 -19 -2 -12 -5z"/>
<path d="M6658 3073 c7 -3 16 -2 19 1 4 3 -2 6 -13 5 -11 0 -14 -3 -6 -6z"/>
<path d="M6535 3038 c-142 -51 -231 -222 -180 -345 43 -103 121 -153 237 -153
44 1 83 6 98 15 37 21 42 18 26 -13 -21 -41 -87 -98 -130 -112 -20 -6 -68 -12
-106 -13 l-70 -2 0 -76 c0 -72 1 -77 23 -83 26 -6 165 8 212 22 57 17 113 51
159 97 96 97 131 196 124 359 -6 152 -53 237 -160 290 -43 21 -65 26 -127 25
-42 0 -89 -5 -106 -11z m157 -155 c27 -32 38 -61 40 -109 2 -39 -2 -50 -25
-70 -56 -48 -147 -21 -162 47 -9 42 1 92 26 123 16 21 29 26 63 26 28 0 48 -6
58 -17z"/>
<path d="M6578 2513 c12 -2 30 -2 40 0 9 3 -1 5 -23 4 -22 0 -30 -2 -17 -4z"/>
<path d="M6443 2433 c9 -2 25 -2 35 0 9 3 1 5 -18 5 -19 0 -27 -2 -17 -5z"/>
<path d="M14770 2955 l0 -295 450 0 450 0 0 295 0 295 -450 0 -450 0 0 -295z"/>
</g>
</svg>
