<?xml version="1.0" encoding="UTF-8" standalone="no"?>
<!-- Created with Inkscape (http://www.inkscape.org/) -->

<svg xmlns:dc="http://purl.org/dc/elements/1.1/" xmlns:cc="http://creativecommons.org/ns#" xmlns:rdf="http://www.w3.org/1999/02/22-rdf-syntax-ns#" xmlns:svg="http://www.w3.org/2000/svg" xmlns="http://www.w3.org/2000/svg" xmlns:inkscape="http://www.inkscape.org/namespaces/inkscape" version="1.0" width="3508pt" height="2480pt" viewBox="0 0 3508 2480" id="svg2">
  <defs id="defs256" />
  <metadata id="metadata4">
Created by potrace 1.11, written by Peter Selinger 2001-2013
<rdf:RDF>
  <cc:Work rdf:about="">
    <dc:format>image/svg+xml</dc:format>
    <dc:type rdf:resource="http://purl.org/dc/dcmitype/StillImage" />
  </cc:Work>
</rdf:RDF>
</metadata>
  <g transform="matrix(0.1,0,0,-0.1,0,2480)" id="g6" style="fill:#000000;stroke:none">
    <path d="m 1563,23612 c -18,-2 -33,-5 -33,-7 0,-2 -7,-39 -15,-82 -19,-99 -20,-95 12,-91 26,3 28,7 42,86 l 14,82 42,0 c 56,0 74,-20 51,-55 -13,-20 -25,-25 -58,-25 l -41,0 39,-44 c 31,-35 46,-44 73,-45 l 35,-1 -32,33 c -18,18 -32,36 -32,39 0,3 12,9 28,13 52,13 81,61 50,82 -16,9 -130,19 -175,15 z" inkscape:connector-curvature="0" id="path8" />
    <path d="m 2830,22736 c 0,-794 2,-884 16,-890 8,-3 1923,-6 4255,-6 l 4239,0 0,890 0,890 -4255,0 -4255,0 0,-884 z m 7898,338 c 19,-6 22,-13 22,-63 l 0,-57 -39,4 c -32,3 -42,-1 -60,-23 -12,-16 -21,-42 -21,-61 l 0,-34 50,0 50,0 0,-55 0,-55 -50,0 -50,0 0,-185 0,-185 -75,0 -75,0 0,185 0,185 -35,0 -35,0 0,55 0,55 34,0 c 33,0 33,0 39,55 10,94 50,147 137,178 21,8 81,8 108,1 z m -6078,-89 -61,-75 -51,0 -50,0 38,68 c 20,37 39,70 41,75 2,4 36,7 74,7 l 70,0 -61,-75 z m -872,-137 c 29,-101 55,-202 58,-226 4,-23 10,-44 14,-47 3,-2 15,31 25,73 10,42 39,145 65,227 l 48,150 101,3 101,3 0,-38 c 0,-21 7,-150 15,-288 8,-137 15,-271 15,-297 l 0,-48 -69,0 -69,0 -6,63 c -3,34 -9,151 -13,260 l -8,199 -38,-129 c -21,-70 -56,-185 -78,-255 l -40,-128 -59,0 -59,0 -11,43 c -7,23 -27,96 -45,162 -19,66 -43,160 -54,208 -10,49 -21,90 -24,93 -2,2 -7,-80 -11,-183 -3,-104 -9,-221 -13,-260 l -6,-73 -69,0 -70,0 6,48 c 3,26 13,176 23,335 l 17,287 101,0 102,0 51,-182 z m 2924,168 c 98,-23 152,-78 164,-168 19,-136 -81,-232 -252,-245 l -74,-6 0,-118 0,-119 -75,0 -75,0 0,329 0,330 53,4 c 120,8 205,6 259,-7 z m 2240,-163 c 53,-98 107,-205 121,-238 l 25,-59 -6,237 -5,237 72,0 71,0 0,-335 0,-335 -79,0 -79,0 -100,183 c -54,100 -112,211 -128,246 l -29,64 3,-247 4,-246 -71,0 -71,0 0,335 0,335 88,0 88,0 96,-177 z m -3912,52 0,-65 55,0 55,0 0,-55 0,-55 -55,0 -55,0 0,-110 c 0,-98 2,-112 21,-131 15,-15 30,-20 50,-17 l 29,5 0,-58 0,-58 -36,-7 c -47,-9 -118,2 -150,22 -48,32 -58,67 -62,217 l -4,137 -29,0 c -28,0 -29,1 -29,55 0,54 0,55 30,55 29,0 30,2 30,45 l 0,44 58,16 c 31,9 62,18 67,20 23,8 25,2 25,-60 z m 3230,0 0,-65 55,0 55,0 0,-55 0,-55 -55,0 -55,0 0,-110 c 0,-98 2,-112 21,-131 15,-15 30,-20 50,-17 l 29,5 0,-58 0,-58 -36,-7 c -47,-9 -118,2 -150,22 -48,32 -58,67 -62,217 l -4,137 -29,0 c -28,0 -29,1 -29,55 0,54 0,55 30,55 29,0 30,2 30,45 l 0,44 58,16 c 31,9 62,18 67,20 23,8 25,2 25,-60 z m -3602,-79 c 64,-33 101,-100 109,-197 l 6,-69 -162,0 c -179,0 -188,-4 -133,-60 35,-35 102,-47 181,-32 31,5 59,7 63,3 4,-3 8,-26 10,-51 l 3,-44 -50,-12 c -117,-28 -236,-9 -302,49 -52,46 -73,98 -73,183 0,59 5,81 28,125 30,58 87,105 143,120 45,11 143,3 177,-15 z m 872,-45 0,-68 -47,-6 c -37,-4 -54,-12 -75,-36 -28,-31 -28,-32 -28,-171 l 0,-140 -75,0 -75,0 0,240 0,240 65,0 65,0 0,-47 0,-48 26,39 c 28,40 71,65 117,66 27,0 27,0 27,-69 z m 425,41 c 86,-44 128,-117 128,-223 0,-180 -158,-288 -341,-234 -106,32 -166,117 -165,236 0,115 61,201 163,234 61,20 164,14 215,-13 z m 1340,0 c 86,-44 128,-117 128,-223 0,-180 -158,-288 -341,-234 -106,32 -166,117 -165,236 0,115 61,201 163,234 61,20 164,14 215,-13 z m 581,7 c 33,-15 49,-32 68,-72 25,-49 26,-58 26,-224 l 0,-173 -74,0 -75,0 -3,166 c -3,160 -4,166 -27,185 -33,27 -68,24 -102,-10 l -29,-29 0,-156 0,-156 -75,0 -75,0 0,240 0,240 65,0 65,0 0,-37 0,-37 28,27 c 60,57 137,71 208,36 z m 1802,-3 c 64,-33 101,-100 109,-197 l 6,-69 -162,0 c -179,0 -188,-4 -133,-60 35,-35 102,-47 181,-32 31,5 59,7 63,3 4,-3 8,-26 10,-51 l 3,-44 -50,-12 c -117,-28 -236,-9 -302,49 -52,46 -73,98 -73,183 0,59 5,81 28,125 30,58 87,105 143,120 45,11 143,3 177,-15 z m 352,-136 c 0,-113 4,-158 15,-179 25,-49 68,-54 114,-15 l 31,26 0,159 0,159 75,0 75,0 0,-240 0,-240 -65,0 -65,0 0,37 0,37 -27,-27 c -85,-80 -218,-71 -274,19 -23,37 -24,49 -27,227 l -4,187 76,0 76,0 0,-150 z" inkscape:connector-curvature="0" id="path10" />
    <path d="m 6558,22913 c -16,-4 -18,-17 -18,-99 l 0,-94 50,0 c 87,0 130,36 130,109 0,57 -89,103 -162,84 z" inkscape:connector-curvature="0" id="path12" />
    <path d="m 4479,22721 c -51,-52 -42,-61 62,-61 l 91,0 -6,28 c -16,66 -96,84 -147,33 z" inkscape:connector-curvature="0" id="path14" />
    <path d="m 5777,22720 c -73,-58 -56,-225 27,-254 104,-38 172,146 90,244 -31,36 -78,40 -117,10 z" inkscape:connector-curvature="0" id="path16" />
    <path d="m 7117,22720 c -73,-58 -56,-225 27,-254 104,-38 172,146 90,244 -31,36 -78,40 -117,10 z" inkscape:connector-curvature="0" id="path18" />
    <path d="m 9499,22721 c -51,-52 -42,-61 62,-61 l 91,0 -6,28 c -16,66 -96,84 -147,33 z" inkscape:connector-curvature="0" id="path20" />
    <path d="m 31720,23265 0,-355 470,0 470,0 0,355 0,355 -470,0 -470,0 0,-355 z m 767,198 c 44,-21 73,-67 73,-116 0,-31 -7,-46 -33,-72 l -33,-33 23,-11 c 54,-25 78,-111 48,-174 -44,-92 -217,-118 -309,-46 -57,45 -58,137 -1,190 l 34,32 -31,35 c -27,31 -30,40 -26,84 6,54 33,92 83,114 42,19 130,17 172,-3 z m -357,-43 0,-50 -94,0 c -89,0 -94,-1 -100,-22 -11,-43 -8,-48 37,-48 120,-1 199,-96 167,-203 -30,-102 -155,-151 -296,-116 -49,13 -48,10 -33,62 9,33 14,38 32,33 121,-34 207,5 182,83 -10,33 -57,51 -130,51 -75,0 -70,-11 -54,124 17,152 -1,136 154,136 l 135,0 0,-50 z" inkscape:connector-curvature="0" id="path22" />
    <path d="m 32356,23384 c -24,-23 -19,-60 10,-83 34,-27 49,-26 68,1 32,45 10,98 -39,98 -13,0 -31,-7 -39,-16 z" inkscape:connector-curvature="0" id="path24" />
    <path d="m 32351,23164 c -27,-35 -26,-59 4,-89 28,-29 51,-31 83,-9 38,26 28,85 -19,109 -38,20 -44,19 -68,-11 z" inkscape:connector-curvature="0" id="path26" />
    <path d="m 1849,23522 c -75,-85 -97,-123 -41,-69 24,23 37,27 85,27 52,0 59,-3 69,-25 8,-18 19,-25 40,-25 15,0 28,3 28,6 0,12 -92,174 -98,174 -4,-1 -41,-40 -83,-88 z m 76,-2 16,-30 -46,0 -46,0 21,30 c 12,17 25,30 30,30 5,0 16,-13 25,-30 z" inkscape:connector-curvature="0" id="path28" />
    <path d="m 2088,23603 c 63,-5 61,2 27,-150 -5,-20 -1,-23 24,-23 24,0 30,5 35,28 3,15 10,53 16,84 l 11,57 52,4 c 29,2 -9,3 -83,3 -74,0 -111,-1 -82,-3 z" inkscape:connector-curvature="0" id="path30" />
    <path d="m 2356,23598 c -8,-25 -26,-132 -26,-150 0,-12 7,-18 24,-18 20,0 25,6 31,40 l 7,40 67,0 c 44,0 74,5 89,16 24,17 29,53 10,72 -17,17 -197,17 -202,0 z m 152,-24 c 5,-32 -24,-54 -69,-54 -41,0 -46,8 -33,58 6,20 12,23 53,20 38,-2 47,-7 49,-24 z" inkscape:connector-curvature="0" id="path32" />
    <path d="m 28178,23458 c -27,-11 -48,-25 -48,-30 0,-12 28,-78 33,-78 3,0 18,7 33,15 41,21 107,19 127,-3 21,-23 22,-64 3,-100 -8,-15 -57,-69 -110,-121 -84,-82 -96,-98 -96,-127 l 0,-34 175,0 175,0 0,50 0,50 -85,0 -86,0 59,58 c 73,71 102,125 102,190 0,60 -30,109 -80,134 -49,25 -142,23 -202,-4 z" inkscape:connector-curvature="0" id="path34" />
    <path d="m 30638,23458 c -27,-11 -48,-25 -48,-30 0,-12 28,-78 33,-78 3,0 18,7 33,15 41,21 107,19 127,-3 21,-23 22,-64 3,-100 -8,-15 -57,-69 -110,-121 -84,-82 -96,-98 -96,-127 l 0,-34 175,0 175,0 0,50 0,50 -85,0 -86,0 59,58 c 73,71 102,125 102,190 0,60 -30,109 -80,134 -49,25 -142,23 -202,-4 z" inkscape:connector-curvature="0" id="path36" />
    <path d="m 28634,23440 -62,-28 11,-45 10,-46 36,15 c 20,9 42,18 49,21 9,4 12,-37 12,-186 l 0,-191 55,0 55,0 0,245 0,245 -52,-1 c -36,0 -73,-10 -114,-29 z" inkscape:connector-curvature="0" id="path38" />
    <path d="m 30990,23420 0,-50 110,0 c 61,0 110,-2 110,-4 0,-2 -43,-86 -95,-188 -52,-102 -95,-188 -95,-192 0,-3 27,-6 61,-6 l 60,0 100,206 c 73,153 99,216 99,245 l 0,39 -175,0 -175,0 0,-50 z" inkscape:connector-curvature="0" id="path40" />
    <path d="m 1850,23314 c -95,-25 -197,-82 -268,-148 l -66,-63 55,-26 c 30,-14 66,-34 81,-44 27,-17 28,-17 55,9 152,141 384,158 560,41 158,-105 235,-304 188,-488 -27,-104 -63,-165 -146,-246 l -78,-77 -16,-83 c -8,-45 -14,-83 -12,-85 7,-7 126,49 175,82 71,50 162,150 201,223 69,131 89,306 51,455 -29,116 -73,190 -165,281 -89,90 -182,143 -295,169 -81,20 -247,19 -320,0 z" inkscape:connector-curvature="0" id="path42" />
    <path d="m 1228,23044 c -47,-14 -48,-16 -48,-55 0,-34 3,-39 18,-35 146,44 268,31 367,-39 130,-92 154,-106 196,-113 24,-4 72,-4 107,1 35,5 65,7 67,5 3,-2 8,-28 12,-58 7,-49 10,-54 43,-65 27,-9 36,-18 40,-41 5,-24 10,-29 35,-29 27,0 30,-4 33,-33 3,-26 10,-35 39,-47 40,-17 41,-8 -11,-142 -65,-168 -95,-399 -65,-505 9,-36 12,-38 49,-38 l 39,0 -10,32 c -14,51 -11,221 7,306 14,69 69,242 105,330 18,43 5,63 -51,76 -45,11 -47,13 -66,85 -3,9 -12,11 -28,7 -21,-5 -25,-2 -28,21 -2,20 -12,32 -35,42 -26,12 -33,21 -38,55 -14,89 -15,90 -125,75 -97,-13 -127,-5 -207,58 -142,110 -306,150 -445,107 z" inkscape:connector-curvature="0" id="path44" />
    <path d="m 1388,22873 c -8,-25 -13,-86 -13,-173 0,-162 19,-229 97,-345 101,-152 263,-251 441,-270 75,-8 66,-18 84,97 l 10,58 -36,5 c -134,22 -215,62 -294,146 -101,108 -152,281 -117,399 10,33 8,37 -21,62 -28,23 -106,58 -130,58 -4,0 -13,-17 -21,-37 z" inkscape:connector-curvature="0" id="path46" />
    <path d="m 26749,22765 c -176,-57 -321,-199 -381,-373 -33,-97 -33,-288 0,-382 62,-174 202,-310 381,-372 88,-30 267,-33 351,-4 99,33 173,79 246,151 146,146 206,354 159,554 -26,109 -71,187 -160,277 -124,125 -244,174 -425,174 -72,-1 -113,-7 -171,-25 z m 282,-215 c 29,-6 69,-19 89,-29 101,-52 107,-188 9,-245 l -32,-19 35,-18 c 148,-76 118,-285 -46,-334 -66,-20 -204,-30 -289,-21 l -67,8 0,328 0,329 53,4 c 112,8 197,7 248,-3 z" inkscape:connector-curvature="0" id="path48" />
    <path d="m 26880,22376 0,-76 44,0 c 84,0 126,28 126,83 0,40 -34,61 -106,65 l -64,4 0,-76 z" inkscape:connector-curvature="0" id="path50" />
    <path d="m 26880,22090 0,-100 45,0 c 86,0 145,42 145,103 0,63 -49,97 -140,97 l -50,0 0,-100 z" inkscape:connector-curvature="0" id="path52" />
    <path d="m 31720,22200 0,-350 470,0 470,0 0,350 0,350 -470,0 -470,0 0,-350 z m 760,202 c 50,-25 80,-75 80,-131 -1,-66 -29,-120 -101,-190 l -62,-61 86,0 87,0 0,-50 0,-50 -175,0 -175,0 0,33 c 0,29 12,45 89,118 48,46 98,100 110,119 25,41 27,92 5,114 -24,24 -94,24 -131,0 -12,-8 -25,-14 -28,-14 -7,0 -35,64 -35,78 0,5 21,19 48,30 60,27 153,29 202,4 z m -330,-31 c 0,-29 -26,-92 -99,-245 l -100,-206 -60,0 c -34,0 -61,3 -61,7 0,3 43,89 95,190 52,102 95,186 95,189 0,2 -49,4 -110,4 l -110,0 0,50 0,50 175,0 175,0 0,-39 z" inkscape:connector-curvature="0" id="path54" />
    <path d="m 28304,22409 c -18,-5 -53,-24 -80,-41 -69,-47 -108,-125 -112,-227 -3,-68 -1,-82 25,-130 97,-186 382,-96 347,109 -14,81 -72,130 -154,130 -22,0 -55,-7 -72,-16 l -31,-16 19,32 c 23,40 79,71 140,78 l 44,5 0,43 0,44 -47,-1 c -27,0 -62,-5 -79,-10 z m 33,-254 c 24,-17 39,-71 28,-104 -27,-86 -135,-56 -135,38 0,41 6,53 35,69 27,16 47,15 72,-3 z" inkscape:connector-curvature="0" id="path56" />
    <path d="m 29534,22409 c -18,-5 -53,-24 -80,-41 -69,-47 -108,-125 -112,-227 -3,-68 -1,-82 25,-130 97,-186 382,-96 347,109 -14,81 -72,130 -154,130 -22,0 -55,-7 -72,-16 l -31,-16 19,32 c 23,40 79,71 140,78 l 44,5 0,43 0,44 -47,-1 c -27,0 -62,-5 -79,-10 z m 33,-254 c 31,-22 40,-78 19,-121 -13,-29 -21,-34 -50,-34 -44,0 -76,37 -76,89 0,41 6,53 35,69 27,16 47,15 72,-3 z" inkscape:connector-curvature="0" id="path58" />
    <path d="m 29865,22404 c -126,-65 -144,-226 -33,-294 39,-24 111,-26 150,-6 24,13 26,12 21,-2 -22,-60 -89,-102 -161,-102 l -42,0 0,-45 0,-45 48,0 c 169,0 282,116 282,289 0,143 -66,221 -187,221 -26,0 -61,-7 -78,-16 z m 111,-82 c 19,-13 34,-50 34,-86 0,-59 -68,-88 -110,-46 -24,24 -27,86 -4,118 15,22 57,30 80,14 z" inkscape:connector-curvature="0" id="path60" />
    <path d="m 31080,22398 c -79,-52 -118,-202 -86,-327 30,-117 87,-166 186,-159 70,5 110,32 142,96 20,41 23,62 23,157 0,95 -3,116 -23,157 -33,66 -72,91 -147,96 -50,3 -66,0 -95,-20 z m 127,-95 c 15,-22 18,-49 18,-138 0,-89 -3,-116 -18,-138 -37,-57 -83,-23 -99,76 -25,151 42,287 99,200 z" inkscape:connector-curvature="0" id="path62" />
    <path d="m 28542,22363 3,-48 108,-3 c 59,-1 107,-5 107,-9 0,-3 -43,-88 -95,-189 -52,-100 -95,-185 -95,-188 0,-3 27,-6 60,-6 l 60,0 100,206 c 74,152 100,217 100,245 l 0,39 -176,0 -175,0 3,-47 z" inkscape:connector-curvature="0" id="path64" />
    <path d="m 30580,22360 0,-50 110,0 c 61,0 110,-2 110,-4 0,-2 -43,-86 -95,-188 -52,-102 -95,-188 -95,-192 0,-3 27,-6 61,-6 l 60,0 100,206 c 73,153 99,216 99,245 l 0,39 -175,0 -175,0 0,-50 z" inkscape:connector-curvature="0" id="path66" />
    <path d="m 30490,21140 0,-350 470,0 470,0 0,350 0,350 -470,0 -470,0 0,-350 z m 810,176 0,-43 -51,-6 c -63,-8 -108,-33 -132,-75 l -19,-32 36,15 c 116,49 219,-20 219,-146 0,-104 -75,-179 -179,-179 -108,0 -181,72 -191,189 -17,180 101,318 275,320 l 42,1 0,-44 z m -370,-4 c 0,-29 -27,-94 -100,-245 l -100,-207 -60,0 c -33,0 -60,3 -60,6 0,3 43,88 95,188 52,101 95,186 95,189 0,4 -48,8 -107,9 l -108,3 -3,48 -3,47 175,0 176,0 0,-38 z" inkscape:connector-curvature="0" id="path68" />
    <path d="m 31135,21098 c -29,-16 -35,-28 -35,-69 0,-52 32,-89 76,-89 29,0 37,5 50,34 39,80 -22,163 -91,124 z" inkscape:connector-curvature="0" id="path70" />
    <path d="m 32960,21140 0,-350 470,0 470,0 0,350 0,350 -470,0 -470,0 0,-350 z m 347,203 c 44,-21 73,-67 73,-116 0,-31 -7,-46 -33,-72 l -33,-33 23,-11 c 32,-15 63,-69 63,-111 0,-88 -76,-150 -182,-150 -95,0 -158,34 -179,97 -16,50 -4,97 36,134 l 34,32 -31,35 c -27,31 -30,40 -26,84 6,54 33,92 83,114 42,19 130,17 172,-3 z m 483,-43 0,-50 -94,0 c -89,0 -94,-1 -100,-22 -11,-43 -8,-48 37,-48 51,0 123,-34 150,-71 30,-41 33,-108 8,-156 -45,-88 -157,-124 -287,-92 -49,13 -48,10 -33,62 9,33 14,38 32,33 121,-34 207,5 182,83 -10,33 -57,51 -130,51 -75,0 -70,-11 -55,125 18,151 0,135 155,135 l 135,0 0,-50 z" inkscape:connector-curvature="0" id="path72" />
    <path d="m 33176,21264 c -24,-23 -19,-60 10,-83 34,-27 49,-26 68,1 32,45 10,98 -39,98 -13,0 -31,-7 -39,-16 z" inkscape:connector-curvature="0" id="path74" />
    <path d="m 33171,21044 c -27,-35 -26,-59 4,-89 28,-29 51,-31 83,-9 38,26 28,85 -19,109 -38,20 -44,19 -68,-11 z" inkscape:connector-curvature="0" id="path76" />
    <path d="m 31895,21346 c -50,-22 -77,-60 -83,-114 -4,-44 -1,-53 26,-84 l 31,-35 -34,-32 c -40,-37 -52,-84 -36,-134 21,-63 84,-97 179,-97 106,0 182,62 182,150 0,42 -31,96 -63,111 l -23,11 33,33 c 26,26 33,41 33,72 0,49 -29,95 -73,116 -42,20 -130,22 -172,3 z m 119,-82 c 20,-20 20,-53 0,-82 -19,-27 -34,-28 -68,-1 -44,35 -26,99 29,99 13,0 31,-7 39,-16 z m -15,-209 c 47,-24 57,-83 19,-109 -32,-22 -55,-20 -83,9 -30,30 -31,54 -4,89 24,30 30,31 68,11 z" inkscape:connector-curvature="0" id="path78" />
    <path d="m 28120,21300 0,-50 110,0 c 61,0 110,-2 110,-4 0,-2 -43,-86 -95,-188 -52,-102 -95,-188 -95,-192 0,-3 27,-6 61,-6 l 60,0 100,206 c 73,153 99,216 99,245 l 0,39 -175,0 -175,0 0,-50 z" inkscape:connector-curvature="0" id="path80" />
    <path d="m 28612,21195 c -76,-125 -93,-161 -90,-187 l 3,-33 108,-3 107,-3 0,-54 0,-55 55,0 55,0 0,55 c 0,54 0,55 30,55 29,0 30,2 30,45 0,43 -1,45 -30,45 l -30,0 0,145 0,145 -72,0 -73,-1 -93,-154 z m 128,-45 0,-90 -50,0 c -27,0 -50,1 -50,3 0,2 20,39 45,83 25,43 45,82 45,86 0,5 2,8 5,8 3,0 5,-40 5,-90 z" inkscape:connector-curvature="0" id="path82" />
    <path d="m 29350,21300 0,-50 110,0 c 61,0 110,-2 110,-4 0,-3 -43,-87 -95,-189 -52,-101 -95,-187 -95,-190 0,-4 27,-7 61,-7 l 60,0 100,206 c 73,153 99,216 99,245 l 0,39 -175,0 -175,0 0,-50 z" inkscape:connector-curvature="0" id="path84" />
    <path d="m 29829,21348 c -1,-2 -9,-60 -18,-130 l -17,-128 63,0 c 110,0 159,-38 134,-103 -17,-44 -78,-54 -178,-30 -18,4 -23,-1 -32,-34 -6,-21 -11,-41 -11,-44 0,-16 95,-31 161,-27 57,4 79,11 111,34 57,40 80,87 75,147 -7,86 -62,136 -156,144 -48,5 -61,9 -57,20 4,8 6,23 6,34 0,17 8,19 95,19 l 95,0 0,50 0,50 -135,0 c -74,0 -136,-1 -136,-2 z" inkscape:connector-curvature="0" id="path86" />
    <path d="m 32320,21322 c -30,-15 -57,-28 -59,-29 -2,-1 0,-23 3,-47 l 7,-46 27,14 c 15,7 37,17 50,20 l 22,7 0,-190 0,-191 55,0 55,0 0,245 0,245 -52,-1 c -36,0 -71,-9 -108,-27 z" inkscape:connector-curvature="0" id="path88" />
    <path d="m 24300,17933 c 1,-82 1,-761 1,-1510 l -1,-1363 -11265,0 -11265,0 0,-1068 0,-1069 -101,-7 c -266,-17 -429,-139 -475,-355 -20,-97 -20,-1066 1,-1163 39,-186 161,-319 326,-357 24,-6 90,-11 147,-11 l 102,0 0,-1075 0,-1075 11340,0 11340,0 0,-760 0,-760 835,0 835,0 0,-415 0,-415 -705,0 -705,0 0,-125 0,-125 830,0 830,0 0,1414 c 0,1122 -3,1415 -12,1418 -7,3 -40,6 -73,7 -33,1 -62,6 -65,11 -3,5 -136,8 -295,7 l -290,-2 -3,-32 -3,-33 -295,0 -294,0 0,35 0,35 -857,0 c -472,0 -5652,0 -11511,0 l -10652,0 2,943 3,942 8610,5 8610,5 59,23 c 158,59 248,156 288,307 10,39 13,175 13,600 0,505 -1,555 -18,610 -29,95 -75,171 -138,230 -67,61 -136,91 -243,105 -43,6 -3474,10 -8629,10 l -8557,0 2,943 3,942 9628,3 9627,2 1,-292 c 1,-161 0,-305 -1,-320 -2,-28 -1,-28 64,-28 l 66,0 0,321 0,320 1558,-1 c 856,-1 1565,-1 1574,-1 17,1 18,84 18,1509 l 0,1507 1260,3 1260,2 0,125 0,125 -1391,0 -1390,0 1,-147 z M 1966,12755 c 25,-38 11,-67 -68,-139 l -72,-66 142,0 c 138,0 144,-1 167,-25 30,-29 32,-58 5,-85 -18,-18 -33,-20 -167,-20 l -148,0 78,-78 c 82,-83 92,-107 57,-142 -39,-39 -63,-27 -192,93 -67,61 -138,127 -160,145 -21,19 -38,37 -38,42 0,4 71,74 158,154 135,125 162,146 189,146 24,0 37,-7 49,-25 z m 3303,-46 c 35,-12 34,-11 21,-60 l -10,-36 -78,4 c -94,5 -133,-14 -162,-80 -38,-82 -13,-186 52,-227 28,-18 45,-21 110,-17 l 78,4 6,-34 c 9,-45 1,-59 -36,-67 -199,-39 -350,68 -350,248 0,168 107,274 276,276 34,0 75,-5 93,-11 z m -1169,-204 0,-204 98,-3 97,-3 3,-47 3,-48 -160,0 -161,0 0,255 0,255 60,0 60,0 0,-205 z m -1040,46 c 45,-23 76,-69 84,-124 12,-76 10,-77 -125,-77 -76,0 -119,-4 -119,-10 0,-6 12,-22 26,-36 24,-24 30,-26 105,-22 75,3 80,2 85,-19 14,-56 -7,-70 -112,-72 -76,-1 -120,13 -162,52 -67,64 -69,197 -4,271 47,52 158,71 222,37 z m 380,-36 0,-55 -34,0 c -25,0 -40,-7 -55,-26 -18,-23 -21,-41 -21,-130 l 0,-104 -60,0 -60,0 0,180 0,180 50,0 c 47,0 50,-2 50,-25 0,-32 2,-31 38,5 21,20 40,30 61,30 31,0 31,0 31,-55 z m 275,45 c 25,-9 27,-14 20,-48 -4,-20 -8,-38 -8,-39 -1,-1 -21,4 -45,10 -30,8 -48,8 -59,1 -32,-20 -25,-34 32,-59 74,-33 105,-67 105,-115 0,-93 -115,-145 -242,-109 -42,11 -42,10 -28,60 l 10,37 38,-14 c 49,-17 87,-17 102,1 17,20 5,33 -54,59 -29,13 -62,36 -74,51 -42,54 -17,130 52,161 37,16 114,18 151,4 z m 880,-6 c 61,-29 69,-53 75,-212 l 5,-142 -52,0 c -40,0 -53,4 -53,15 0,12 -7,11 -40,-6 -59,-31 -124,-22 -163,21 -26,29 -29,38 -24,83 3,41 11,56 35,78 33,30 88,49 140,49 40,0 44,25 6,42 -19,9 -39,9 -82,0 -30,-6 -57,-10 -60,-8 -2,3 -5,19 -5,38 -2,29 2,34 33,45 50,17 146,16 185,-3 z m 1011,-3 c 136,-62 137,-274 2,-340 -82,-39 -197,-19 -246,44 -49,62 -53,168 -8,236 48,72 164,100 252,60 z m 834,-36 0,-55 -34,0 c -25,0 -40,-7 -55,-26 -18,-23 -21,-41 -21,-130 l 0,-104 -60,0 -60,0 0,180 0,180 50,0 c 47,0 50,-2 50,-25 0,-32 2,-31 38,5 21,20 40,30 61,30 31,0 31,0 31,-55 z m 340,39 c 53,-32 64,-66 68,-216 l 4,-138 -60,0 -60,0 -4,126 c -3,111 -5,127 -22,140 -26,19 -39,18 -70,-7 -25,-20 -26,-23 -26,-140 l 0,-119 -60,0 -60,0 0,180 0,180 49,0 c 40,0 51,-4 56,-19 6,-19 7,-19 42,5 42,28 102,32 143,8 z m 400,-3 c 45,-23 76,-69 84,-124 12,-76 10,-77 -125,-77 -76,0 -119,-4 -119,-10 0,-6 12,-22 26,-36 24,-24 30,-26 105,-22 75,3 80,2 85,-19 14,-56 -7,-70 -112,-72 -76,-1 -120,13 -162,52 -67,64 -69,197 -4,271 47,52 158,71 222,37 z m 1220,0 c 45,-23 76,-69 84,-124 12,-76 10,-77 -125,-77 -76,0 -119,-4 -119,-10 0,-6 12,-22 26,-36 24,-24 30,-26 105,-22 75,3 80,2 85,-19 14,-56 -7,-70 -112,-72 -76,-1 -120,13 -162,52 -67,64 -69,197 -4,271 47,52 158,71 222,37 z m -5844,-106 c 18,-60 33,-112 34,-115 1,-3 16,47 34,110 l 32,115 63,3 c 35,2 61,-1 60,-6 -2,-5 -33,-87 -69,-181 l -65,-172 -60,3 -60,3 -62,165 c -34,91 -62,171 -62,178 -1,10 15,12 61,10 l 61,-3 33,-110 z m 3334,6 c 0,-60 4,-121 9,-134 13,-33 46,-43 76,-23 24,16 25,20 25,141 l 0,125 60,0 60,0 0,-180 0,-180 -50,0 c -43,0 -50,3 -50,20 0,18 -2,18 -36,-5 -66,-45 -157,-27 -191,38 -13,24 -18,65 -21,170 l -4,137 61,0 61,0 0,-109 z m 1560,0 c 0,-60 4,-121 9,-134 13,-33 46,-43 76,-23 24,16 25,20 25,141 l 0,125 60,0 60,0 0,-180 0,-180 -50,0 c -43,0 -50,3 -50,20 0,18 -2,18 -36,-5 -66,-45 -157,-27 -191,38 -13,24 -18,65 -21,170 l -4,137 61,0 61,0 0,-109 z m 446,-6 c 18,-60 33,-112 34,-115 1,-3 16,47 34,110 l 32,115 63,3 c 35,2 61,-1 60,-6 -2,-5 -33,-87 -69,-181 l -65,-172 -60,3 -60,3 -62,165 c -34,91 -62,171 -62,178 -1,10 15,12 61,10 l 61,-3 33,-110 z m 3373,100 c 101,-24 196,-79 277,-160 324,-325 170,-873 -277,-986 -310,-79 -632,114 -714,426 -8,33 -15,98 -15,145 0,169 52,293 175,415 87,88 165,133 271,159 78,19 204,19 283,1 z m -1681,-427 c 29,-101 55,-202 58,-226 4,-23 10,-44 14,-47 3,-2 15,31 25,73 10,42 39,145 65,227 l 48,150 101,3 101,3 0,-38 c 0,-21 7,-150 15,-288 8,-137 15,-271 15,-297 l 0,-48 -69,0 -69,0 -6,63 c -3,34 -9,151 -13,260 l -8,199 -38,-129 c -21,-70 -56,-185 -78,-255 l -40,-128 -59,0 -59,0 -11,43 c -7,23 -27,96 -45,162 -19,66 -43,160 -54,208 -10,49 -21,90 -24,93 -2,2 -7,-80 -11,-183 -3,-104 -9,-221 -13,-260 l -6,-73 -69,0 -70,0 6,48 c 3,26 13,176 23,335 l 17,287 101,0 102,0 51,-182 z m 8750,-385 c 3,-42 2,-43 -27,-43 -38,0 -61,-23 -61,-61 0,-27 3,-29 35,-29 35,0 35,0 35,-45 0,-45 0,-45 -35,-45 l -35,0 0,-135 0,-135 -60,0 -60,0 0,135 0,135 -25,0 c -23,0 -25,4 -25,45 0,41 2,45 25,45 22,0 25,5 25,33 0,45 29,98 70,125 27,18 45,22 85,20 l 50,-3 3,-42 z m -2000,9 c 43,-56 -37,-123 -90,-75 -44,39 -2,111 57,96 11,-3 26,-12 33,-21 z m 222,-237 0,-265 -60,0 -60,0 0,265 0,265 60,0 60,0 0,-265 z m 200,0 0,-265 -60,0 -60,0 0,265 0,265 60,0 60,0 0,-265 z m 608,237 c 43,-56 -37,-123 -90,-75 -44,39 -2,111 57,96 11,-3 26,-12 33,-21 z m 640,0 c 43,-56 -37,-123 -90,-75 -44,39 -2,111 57,96 11,-3 26,-12 33,-21 z m 954,-94 c 67,-62 138,-128 160,-146 21,-19 38,-37 38,-42 0,-5 -71,-74 -157,-154 -135,-126 -162,-146 -190,-146 -35,0 -63,29 -63,65 0,12 30,48 77,93 l 77,72 -143,0 c -137,0 -143,1 -166,25 -30,29 -32,58 -5,85 18,18 33,20 167,20 l 148,0 -78,78 c -82,83 -92,107 -57,142 39,39 63,27 192,-92 z m -4872,-153 0,-255 -60,0 -60,0 0,255 0,255 60,0 60,0 0,-255 z m 1792,185 c 10,-36 34,-122 52,-191 l 32,-126 55,191 54,191 63,3 c 57,3 63,1 58,-15 -3,-10 -41,-124 -84,-253 l -79,-235 -69,-3 -69,-3 -78,248 c -43,136 -78,252 -77,256 0,4 28,7 62,5 l 61,-3 19,-65 z m -2832,-89 c 45,-23 76,-69 84,-124 12,-76 10,-77 -125,-77 -76,0 -119,-4 -119,-10 0,-6 12,-22 26,-36 24,-24 30,-26 105,-22 75,3 80,2 85,-19 14,-56 -7,-70 -112,-72 -76,-1 -120,13 -162,52 -67,64 -69,197 -4,271 47,52 158,71 222,37 z m 370,-36 0,-55 -34,0 c -25,0 -40,-7 -55,-26 -18,-23 -21,-41 -21,-130 l 0,-104 -60,0 -60,0 0,180 0,180 50,0 c 47,0 50,-2 50,-25 0,-32 2,-31 38,5 21,20 40,30 61,30 31,0 31,0 31,-55 z m 275,45 c 25,-9 27,-14 20,-48 -4,-20 -8,-38 -8,-39 -1,-1 -21,4 -45,10 -30,8 -48,8 -59,1 -32,-20 -25,-34 32,-59 74,-33 105,-67 105,-115 0,-93 -115,-145 -242,-109 -42,11 -42,10 -28,60 l 10,37 38,-14 c 49,-17 87,-17 102,1 17,20 5,33 -54,59 -29,13 -62,36 -74,51 -42,54 -17,130 52,161 37,16 114,18 151,4 z m 1105,-45 0,-55 -34,0 c -25,0 -40,-7 -55,-26 -18,-23 -21,-41 -21,-130 l 0,-104 -60,0 -60,0 0,180 0,180 50,0 c 47,0 50,-2 50,-25 0,-32 2,-31 38,5 21,20 40,30 61,30 31,0 31,0 31,-55 z m 2300,36 c 45,-23 76,-69 84,-124 12,-76 10,-77 -125,-77 -76,0 -119,-4 -119,-10 0,-6 12,-22 26,-36 24,-24 30,-26 105,-22 75,3 80,2 85,-19 14,-56 -7,-70 -112,-72 -76,-1 -120,13 -162,52 -67,64 -69,197 -4,271 47,52 158,71 222,37 z m -4564,-106 c 18,-60 33,-112 34,-115 1,-3 16,47 34,110 l 32,115 63,3 c 35,2 61,-1 60,-6 -2,-5 -33,-87 -69,-181 l -65,-172 -60,3 -60,3 -62,165 c -34,91 -62,171 -62,178 -1,10 15,12 61,10 l 61,-3 33,-110 z m 1760,0 c 18,-60 33,-112 34,-115 1,-3 16,47 34,110 l 32,115 63,3 c 35,2 61,-1 60,-6 -2,-5 -33,-87 -69,-181 l -65,-172 -60,3 -60,3 -62,165 c -34,91 -62,171 -62,178 -1,10 15,12 61,10 l 61,-3 33,-110 z m 670,70 c 7,-22 24,-76 37,-120 l 23,-80 30,120 30,120 62,3 c 34,2 62,1 62,0 0,-6 -87,-250 -110,-308 -35,-91 -82,-159 -129,-191 -65,-43 -84,-39 -99,17 -7,26 -11,47 -10,48 2,1 20,9 41,19 69,31 69,46 -6,235 -37,92 -67,171 -67,175 0,4 28,7 62,5 l 61,-3 13,-40 z m 1384,-135 0,-180 -60,0 -60,0 0,180 0,180 60,0 60,0 0,-180 z m 1028,-17 c -4,-217 -9,-237 -68,-286 -26,-23 -113,-47 -125,-35 -2,2 -7,22 -10,44 -7,38 -6,40 28,52 50,18 57,47 57,248 l 0,174 61,0 61,0 -4,-197 z m 202,88 c 0,-60 4,-121 9,-134 13,-33 46,-43 76,-23 24,16 25,20 25,141 l 0,125 60,0 60,0 0,-180 0,-180 -50,0 c -43,0 -50,3 -50,20 0,18 -2,18 -36,-5 -66,-45 -157,-27 -191,38 -13,24 -18,65 -21,170 l -4,137 61,0 61,0 0,-109 z m 440,-71 0,-180 -60,0 -60,0 0,180 0,180 60,0 60,0 0,-180 z m -2430,20 0,-40 -100,0 -100,0 0,40 0,40 100,0 100,0 0,-40 z m 9805,-2885 c 14,-13 25,-36 25,-50 0,-36 -42,-75 -80,-75 -38,0 -80,39 -80,75 0,36 42,75 80,75 19,0 40,-9 55,-25 z m 15,-435 0,-240 -75,0 -75,0 0,240 0,240 75,0 75,0 0,-240 z" inkscape:connector-curvature="0" id="path90" />
    <path d="m 2920,12470 c -33,-33 -24,-40 50,-40 39,0 70,3 70,8 0,4 -7,18 -16,30 -20,29 -76,30 -104,2 z" inkscape:connector-curvature="0" id="path92" />
    <path d="m 4493,12360 c -19,-8 -43,-38 -43,-54 0,-12 33,-36 51,-36 29,0 59,36 59,70 0,25 -4,30 -22,29 -13,0 -33,-4 -45,-9 z" inkscape:connector-curvature="0" id="path94" />
    <path d="m 5473,12466 c -25,-22 -28,-31 -28,-86 0,-55 3,-64 28,-86 15,-13 34,-24 42,-24 8,0 27,11 42,24 25,22 28,31 28,86 0,55 -3,64 -28,86 -15,13 -34,24 -42,24 -8,0 -27,-11 -42,-24 z" inkscape:connector-curvature="0" id="path96" />
    <path d="m 7040,12470 c -33,-33 -24,-40 50,-40 39,0 70,3 70,8 0,4 -7,18 -16,30 -20,29 -76,30 -104,2 z" inkscape:connector-curvature="0" id="path98" />
    <path d="m 8260,12470 c -33,-33 -24,-40 50,-40 39,0 70,3 70,8 0,4 -7,18 -16,30 -20,29 -76,30 -104,2 z" inkscape:connector-curvature="0" id="path100" />
    <path d="m 10900,12215 0,-65 145,0 c 80,0 145,-3 145,-6 0,-4 -31,-66 -69,-138 -60,-114 -179,-347 -189,-368 -2,-5 34,-8 81,-8 l 84,0 31,68 c 17,37 76,160 131,274 88,179 101,213 101,257 l 0,51 -230,0 -230,0 0,-65 z" inkscape:connector-curvature="0" id="path102" />
    <path d="m 12910,11510 c -33,-33 -24,-40 50,-40 39,0 70,3 70,8 0,4 -7,18 -16,30 -20,29 -76,30 -104,2 z" inkscape:connector-curvature="0" id="path104" />
    <path d="m 16960,11510 c -33,-33 -24,-40 50,-40 39,0 70,3 70,8 0,4 -7,18 -16,30 -20,29 -76,30 -104,2 z" inkscape:connector-curvature="0" id="path106" />
    <path d="m 31110,17805 c 0,-52 -2,-95 -5,-95 -4,0 -20,7 -37,16 -67,35 -160,-1 -198,-76 -22,-44 -27,-140 -9,-187 36,-97 153,-131 229,-67 l 30,26 0,-26 c 0,-25 3,-26 50,-26 l 50,0 0,265 0,265 -55,0 -55,0 0,-95 z m -25,-175 c 22,-24 30,-96 16,-133 -6,-15 -22,-32 -35,-38 -61,-28 -112,27 -103,108 6,55 30,83 72,83 19,0 39,-8 50,-20 z" inkscape:connector-curvature="0" id="path108" />
    <path d="m 31860,17635 0,-265 55,0 55,0 0,265 0,265 -55,0 -55,0 0,-265 z" inkscape:connector-curvature="0" id="path110" />
    <path d="m 28065,17776 c -38,-17 -657,-475 -707,-523 -71,-67 -75,-156 -10,-224 36,-37 591,-453 681,-511 58,-36 128,-39 165,-5 56,49 56,49 53,634 -2,493 -3,541 -20,570 -32,60 -104,86 -162,59 z m 13,-860 -3,-225 -298,221 c -287,212 -298,221 -280,238 10,10 144,111 298,224 l 280,207 3,-220 c 1,-121 1,-321 0,-445 z" inkscape:connector-curvature="0" id="path112" />
    <path d="m 26746,17732 c -3,-2 -5,-242 -6,-533 l -1,-529 171,0 170,0 0,529 0,529 -26,6 c -29,8 -301,6 -308,-2 z" inkscape:connector-curvature="0" id="path114" />
    <path d="m 29755,17729 c -11,-6 -30,-23 -42,-38 l -23,-26 0,33 c 0,32 0,32 -51,32 -48,0 -51,-1 -45,-22 3,-13 6,-94 6,-180 l 0,-158 55,0 55,0 0,110 c 0,127 12,150 75,150 l 35,0 0,55 c 0,50 -2,55 -22,55 -13,0 -32,-5 -43,-11 z" inkscape:connector-curvature="0" id="path116" />
    <path d="m 30413,17729 c -66,-19 -123,-102 -123,-179 0,-124 95,-200 235,-187 90,9 98,13 91,55 -3,19 -7,36 -8,38 -2,1 -24,-2 -50,-7 -57,-13 -121,2 -143,34 -8,12 -15,25 -15,29 0,5 54,8 120,8 l 120,0 0,50 c 0,126 -99,196 -227,159 z m 110,-87 c 35,-31 21,-42 -53,-42 -38,0 -70,3 -70,6 0,16 24,46 43,54 26,10 55,4 80,-18 z" inkscape:connector-curvature="0" id="path118" />
    <path d="m 31403,17729 c -66,-19 -123,-102 -123,-179 0,-124 95,-200 235,-187 90,9 98,13 91,55 -3,19 -7,36 -8,38 -2,1 -24,-2 -50,-7 -57,-13 -121,2 -143,34 -8,12 -15,25 -15,29 0,5 54,8 120,8 l 120,0 0,50 c 0,126 -99,196 -227,159 z m 110,-87 c 35,-31 21,-42 -53,-42 -38,0 -70,3 -70,6 0,16 24,46 43,54 26,10 55,4 80,-18 z" inkscape:connector-curvature="0" id="path120" />
    <path d="m 32115,17727 c -37,-12 -40,-15 -37,-47 3,-43 5,-44 43,-31 49,17 103,14 122,-7 10,-10 17,-21 17,-24 0,-3 -24,-8 -54,-11 -132,-13 -198,-96 -151,-187 30,-59 105,-76 175,-40 34,17 40,18 40,5 0,-11 12,-15 50,-15 l 50,0 0,128 c 0,140 -11,178 -63,216 -34,25 -134,31 -192,13 z m 145,-221 c 0,-57 -76,-91 -100,-46 -22,41 12,78 73,79 24,1 27,-2 27,-33 z" inkscape:connector-curvature="0" id="path122" />
    <path d="m 29880,17594 c 0,-156 11,-193 65,-218 56,-27 114,-18 154,25 l 21,23 0,-27 c 0,-26 2,-27 50,-27 l 50,0 0,180 0,180 -55,0 -55,0 0,-115 c 0,-110 -1,-117 -25,-140 -29,-30 -49,-31 -75,-5 -18,18 -20,33 -20,140 l 0,120 -55,0 -55,0 0,-136 z" inkscape:connector-curvature="0" id="path124" />
    <path d="m 26356,17632 c -3,-5 -4,-202 -3,-438 l 2,-429 125,0 125,0 0,435 0,435 -122,3 c -67,1 -124,-1 -127,-6 z" inkscape:connector-curvature="0" id="path126" />
    <path d="m 26010,17200 0,-340 85,0 85,0 0,340 0,340 -85,0 -85,0 0,-340 z" inkscape:connector-curvature="0" id="path128" />
    <path d="m 28725,17372 c -44,-20 -82,-39 -84,-42 -6,-8 9,-99 18,-104 4,-3 31,6 60,20 29,13 55,24 57,24 2,0 4,-115 4,-255 l 0,-255 75,0 75,0 0,325 0,325 -62,0 c -52,0 -78,-7 -143,-38 z" inkscape:connector-curvature="0" id="path130" />
    <path d="m 31916,16974 c -9,-8 -16,-24 -16,-35 0,-25 35,-59 60,-59 25,0 60,34 60,59 0,28 -27,51 -60,51 -16,0 -36,-7 -44,-16 z" inkscape:connector-curvature="0" id="path132" />
    <path d="m 29687,16816 c -38,-26 -39,-26 -44,-6 -4,16 -14,20 -49,20 l -44,0 0,-180 0,-180 55,0 55,0 0,120 c 0,107 2,122 20,140 11,11 27,20 35,20 8,0 24,-9 35,-20 18,-18 20,-33 20,-140 l 0,-120 55,0 55,0 0,120 c 0,107 2,122 20,140 11,11 27,20 35,20 8,0 24,-9 35,-20 18,-18 20,-33 20,-140 l 0,-120 55,0 55,0 0,123 c 0,67 -4,137 -10,156 -13,46 -46,79 -87,87 -44,8 -75,-1 -112,-32 l -31,-25 -23,26 c -34,41 -100,45 -150,11 z" inkscape:connector-curvature="0" id="path134" />
    <path d="m 30274,16816 c -66,-34 -97,-87 -98,-165 -1,-109 60,-177 168,-188 47,-5 64,-2 109,20 71,35 101,86 101,172 0,108 -62,173 -172,182 -47,4 -65,0 -108,-21 z m 135,-75 c 11,-11 23,-36 27,-55 20,-110 -54,-187 -117,-120 -20,21 -24,36 -24,86 0,53 3,62 28,84 34,29 60,31 86,5 z" inkscape:connector-curvature="0" id="path136" />
    <path d="m 30784,16826 c -18,-8 -35,-19 -38,-25 -11,-18 -26,-13 -26,9 0,17 -7,20 -51,20 l -51,0 6,-31 c 3,-17 6,-98 6,-180 l 0,-149 55,0 55,0 0,120 c 0,107 2,122 20,140 11,11 29,20 40,20 11,0 29,-9 40,-20 18,-18 20,-33 20,-140 l 0,-120 55,0 55,0 0,139 c 0,127 -2,141 -23,172 -39,57 -97,73 -163,45 z" inkscape:connector-curvature="0" id="path138" />
    <path d="m 31224,16826 c -18,-8 -35,-19 -38,-25 -11,-18 -26,-13 -26,9 0,17 -7,20 -51,20 l -51,0 6,-31 c 3,-17 6,-98 6,-180 l 0,-149 55,0 55,0 0,120 c 0,107 2,122 20,140 11,11 29,20 40,20 11,0 29,-9 40,-20 18,-18 20,-33 20,-140 l 0,-120 55,0 55,0 0,139 c 0,127 -2,141 -23,172 -39,57 -97,73 -163,45 z" inkscape:connector-curvature="0" id="path140" />
    <path d="m 31555,16827 c -37,-12 -40,-15 -37,-47 3,-43 5,-44 43,-31 49,17 103,14 122,-7 10,-10 17,-21 17,-24 0,-3 -24,-8 -54,-11 -132,-13 -198,-96 -151,-187 30,-59 105,-76 175,-40 34,17 40,18 40,5 0,-11 12,-15 50,-15 l 50,0 0,128 c 0,140 -11,178 -63,216 -34,25 -134,31 -192,13 z m 145,-221 c 0,-57 -76,-91 -100,-46 -22,41 12,78 73,79 24,1 27,-2 27,-33 z" inkscape:connector-curvature="0" id="path142" />
    <path d="m 32203,16829 c -66,-19 -123,-102 -123,-179 0,-124 95,-200 235,-187 90,9 98,13 91,55 -3,19 -7,36 -8,38 -2,1 -24,-2 -50,-7 -57,-13 -121,2 -143,34 -8,12 -15,25 -15,29 0,5 54,8 120,8 l 120,0 0,50 c 0,126 -99,196 -227,159 z m 110,-87 c 35,-31 21,-42 -53,-42 -38,0 -70,3 -70,6 0,16 24,46 43,54 26,10 55,4 80,-18 z" inkscape:connector-curvature="0" id="path144" />
    <path d="m 31910,16650 0,-180 55,0 55,0 0,180 0,180 -55,0 -55,0 0,-180 z" inkscape:connector-curvature="0" id="path146" />
    <path d="m 25800,15711 c 0,-686 -2,-780 -15,-791 -14,-12 -14,-15 0,-30 8,-9 15,-29 15,-43 0,-23 5,-27 28,-28 23,0 161,-150 950,-1026 l 922,-1026 0,-314 0,-313 65,0 65,0 0,325 0,325 735,0 735,0 0,-935 0,-935 -735,0 -735,0 -2,323 -3,322 -60,0 -60,0 -3,-2470 c -2,-1358 0,-2548 4,-2643 l 6,-172 827,2 826,3 3,122 3,123 -708,2 -708,3 -3,2128 -2,2127 740,0 740,0 0,1065 0,1065 -765,0 -764,0 -39,42 c -22,24 -438,486 -926,1028 l -886,984 0,633 0,633 515,0 515,0 0,125 0,125 -640,0 -640,0 0,-779 z" inkscape:connector-curvature="0" id="path148" />
    <path d="m 24660,15705 0,-165 535,0 534,0 0,165 0,165 -535,0 -534,0 0,-165 z" inkscape:connector-curvature="0" id="path150" />
    <path d="m 24750,15275 0,-125 440,0 440,0 0,125 0,125 -440,0 -440,0 0,-125 z" inkscape:connector-curvature="0" id="path152" />
    <path d="m 24857,14973 c -4,-3 -7,-42 -7,-85 l 0,-78 340,0 340,0 0,85 0,85 -333,0 c -184,0 -337,-3 -340,-7 z" inkscape:connector-curvature="0" id="path154" />
    <path d="m 18840,13860 0,-530 165,0 165,0 0,530 0,530 -165,0 -165,0 0,-530 z" inkscape:connector-curvature="0" id="path156" />
    <path d="m 18450,13859 0,-441 123,4 122,3 3,438 2,437 -125,0 -125,0 0,-441 z" inkscape:connector-curvature="0" id="path158" />
    <path d="m 18100,13860 0,-340 85,0 85,0 0,340 0,340 -85,0 -85,0 0,-340 z" inkscape:connector-curvature="0" id="path160" />
    <path d="m 21567,14077 c -173,-372 -240,-513 -245,-519 -4,-4 -94,-8 -201,-8 -106,-1 -200,-4 -207,-7 -11,-4 -14,-191 -14,-1124 l 0,-1119 590,0 590,0 0,1125 0,1126 -310,-3 c -171,-2 -310,-2 -310,0 0,2 21,47 46,100 128,272 196,424 191,429 -3,3 -28,16 -56,28 l -50,24 -24,-52 z m 393,-1651 c 0,-787 -3,-995 -12,-997 -7,-2 -217,-3 -465,-1 l -453,2 0,995 0,995 465,0 465,0 0,-994 z" inkscape:connector-curvature="0" id="path162" />
    <path d="m 28710,12088 c -41,-27 -70,-80 -70,-125 0,-29 -3,-33 -26,-33 -23,0 -25,-3 -22,-42 2,-36 7,-44 26,-46 22,-3 22,-6 22,-138 l 0,-134 60,0 60,0 0,134 0,135 33,3 c 30,3 32,6 35,46 l 3,42 -35,0 c -34,0 -36,2 -36,35 0,38 20,55 65,55 25,0 26,3 23,43 l -3,42 -50,3 c -40,2 -58,-2 -85,-20 z" inkscape:connector-curvature="0" id="path164" />
    <path d="m 29037,12063 c -52,-84 -52,-83 -8,-83 35,0 44,6 78,48 61,73 61,72 4,72 -48,0 -52,-2 -74,-37 z" inkscape:connector-curvature="0" id="path166" />
    <path d="m 27995,11926 c -82,-30 -134,-122 -120,-212 8,-58 42,-105 95,-132 38,-20 56,-23 118,-19 40,2 75,6 78,9 2,3 2,23 -2,44 l -6,40 -59,-1 c -78,0 -104,23 -104,96 0,43 4,54 29,76 24,20 37,24 79,22 l 51,-3 8,38 c 5,22 6,42 3,45 -13,12 -132,10 -170,-3 z" inkscape:connector-curvature="0" id="path168" />
    <path d="m 28280,11926 c -31,-12 -35,-17 -33,-45 2,-42 6,-45 44,-32 42,15 102,14 117,-1 24,-24 12,-35 -42,-41 -68,-7 -112,-29 -136,-70 -36,-58 -22,-124 32,-157 42,-25 93,-25 141,0 31,17 37,17 37,5 0,-11 12,-15 53,-15 l 52,0 -5,139 c -6,156 -15,180 -81,213 -40,21 -127,23 -179,4 z m 150,-216 c 0,-34 -30,-70 -59,-70 -22,0 -51,25 -51,44 0,25 45,54 88,55 18,1 22,-4 22,-29 z" inkscape:connector-curvature="0" id="path170" />
    <path d="m 28955,11921 c -48,-22 -69,-44 -90,-94 -29,-70 -10,-174 41,-219 35,-31 92,-48 156,-47 107,2 129,16 114,72 -5,21 -10,22 -85,19 -75,-4 -81,-2 -105,22 -14,14 -26,30 -26,36 0,6 43,10 119,10 108,0 120,2 126,19 8,27 -12,109 -35,141 -41,58 -138,77 -215,41 z m 129,-83 c 9,-12 16,-26 16,-30 0,-5 -31,-8 -70,-8 -74,0 -83,7 -50,40 28,28 84,27 104,-2 z" inkscape:connector-curvature="0" id="path172" />
    <path d="m 22323,11544 c -53,-19 -118,-89 -133,-143 -7,-28 -10,-191 -8,-508 3,-458 3,-469 25,-508 27,-51 68,-90 115,-109 31,-13 93,-16 382,-16 324,0 349,1 400,20 62,24 107,68 127,127 11,30 14,137 14,503 l 0,465 -23,51 c -29,64 -64,99 -121,119 -63,22 -715,21 -778,-1 z m 435,-176 c 9,-9 12,-105 12,-370 0,-197 2,-358 5,-358 3,0 37,34 76,75 76,80 104,91 141,58 40,-36 25,-65 -105,-206 -68,-72 -134,-145 -148,-160 l -25,-28 -145,156 c -79,85 -148,166 -153,179 -14,37 15,76 56,76 26,0 43,-13 104,-77 l 73,-78 1,354 c 0,316 2,356 17,373 18,20 73,24 91,6 z m -154,-280 c 8,-13 8,-23 0,-35 -10,-16 -32,-18 -174,-21 -167,-3 -190,2 -190,37 0,38 19,42 189,39 143,-3 165,-5 175,-20 z m 574,-12 c 2,-16 -2,-32 -10,-37 -15,-10 -308,-12 -332,-3 -16,6 -22,54 -9,68 4,3 84,5 177,4 l 171,-3 3,-29 z" inkscape:connector-curvature="0" id="path174" />
    <path d="m 18840,10085 0,-535 165,0 165,0 -2,533 -3,532 -162,2 -163,2 0,-534 z" inkscape:connector-curvature="0" id="path176" />
    <path d="m 18450,10080 0,-441 112,2 c 62,1 118,4 125,6 10,4 13,97 13,439 l 0,434 -125,0 -125,0 0,-440 z" inkscape:connector-curvature="0" id="path178" />
    <path d="m 18100,10096 c 0,-178 3,-331 6,-340 5,-13 22,-16 85,-16 l 79,0 0,340 0,340 -85,0 -85,0 0,-324 z" inkscape:connector-curvature="0" id="path180" />
    <path d="m 23291,10243 c -56,-20 -113,-77 -129,-129 -18,-61 -16,-715 2,-767 21,-57 64,-107 112,-128 41,-19 69,-19 532,-17 l 489,3 49,30 c 37,23 56,44 77,84 l 27,55 0,340 c 0,212 -4,356 -11,381 -17,63 -56,112 -112,140 l -51,25 -470,-1 c -398,0 -478,-3 -515,-16 z m 698,-57 c 8,-9 11,-65 9,-176 -3,-142 -5,-164 -20,-174 -13,-8 -23,-8 -35,0 -16,10 -18,32 -21,174 -3,168 2,190 38,190 10,0 23,-6 29,-14 z m -329,-176 c 36,-36 26,-62 -57,-144 l -78,-76 354,0 c 390,0 391,0 391,-61 0,-59 3,-59 -391,-59 l -359,0 80,-76 c 59,-57 80,-83 80,-102 0,-35 -27,-62 -61,-62 -29,0 -53,20 -276,231 l -72,69 161,150 c 169,158 189,169 228,130 z m 321,-390 c 18,-10 19,-23 19,-170 0,-87 -3,-165 -6,-174 -7,-19 -45,-21 -62,-4 -8,8 -12,61 -12,175 0,144 2,163 18,172 21,13 20,13 43,1 z" inkscape:connector-curvature="0" id="path182" />
    <path d="m 26710,7515 0,-85 340,0 340,0 0,79 c 0,63 -3,80 -16,85 -9,3 -162,6 -340,6 l -324,0 0,-85 z" inkscape:connector-curvature="0" id="path184" />
    <path d="m 26610,7125 0,-125 435,0 435,0 0,125 0,125 -435,0 -435,0 0,-125 z" inkscape:connector-curvature="0" id="path186" />
    <path d="m 26522,6861 c -9,-6 -12,-46 -10,-167 l 3,-159 533,-3 532,-2 0,170 0,170 -522,0 c -288,0 -529,-4 -536,-9 z" inkscape:connector-curvature="0" id="path188" />
    <path d="m 23649,6287 c -19,-13 -39,-38 -46,-57 -15,-45 -18,-1067 -3,-1121 21,-75 101,-116 170,-86 58,24 710,512 739,552 37,52 37,128 0,176 -26,33 -634,490 -714,536 -51,29 -103,29 -146,0 z m 521,-481 c 102,-75 186,-140 187,-144 1,-4 -23,-25 -55,-48 -31,-22 -155,-114 -276,-203 -120,-89 -229,-169 -242,-178 l -24,-15 0,446 0,446 113,-83 c 61,-46 195,-145 297,-221 z" inkscape:connector-curvature="0" id="path190" />
    <path d="m 30310,6292 c -55,-28 -686,-499 -714,-533 -14,-17 -29,-42 -32,-55 -11,-45 2,-114 27,-141 13,-14 119,-97 234,-183 510,-380 496,-370 550,-370 42,0 76,20 102,59 l 23,34 0,549 c 0,605 1,600 -62,638 -41,25 -83,25 -128,2 z m 20,-633 c 0,-301 -3,-433 -10,-431 -6,1 -88,60 -183,130 -95,70 -223,165 -284,211 -62,45 -113,86 -113,91 0,8 582,442 587,437 1,-2 3,-199 3,-438 z" inkscape:connector-curvature="0" id="path192" />
    <path d="m 24830,5660 0,-530 168,2 167,3 3,528 2,527 -170,0 -170,0 0,-530 z" inkscape:connector-curvature="0" id="path194" />
    <path d="m 28820,5660 0,-530 170,0 169,0 1,530 0,530 -170,0 -170,0 0,-530 z" inkscape:connector-curvature="0" id="path196" />
    <path d="m 25302,5663 3,-438 123,-3 122,-3 0,440 0,441 -125,0 -125,0 2,-437 z" inkscape:connector-curvature="0" id="path198" />
    <path d="m 28435,6088 c -3,-7 -4,-204 -3,-438 l 3,-425 125,0 125,0 0,435 0,435 -123,3 c -92,2 -124,-1 -127,-10 z" inkscape:connector-curvature="0" id="path200" />
    <path d="m 25730,5660 0,-340 85,0 85,0 0,340 0,340 -85,0 -85,0 0,-340 z" inkscape:connector-curvature="0" id="path202" />
    <path d="m 28090,5660 0,-340 85,0 85,0 0,340 0,340 -85,0 -85,0 0,-340 z" inkscape:connector-curvature="0" id="path204" />
    <path d="m 22943,5940 c -23,-5 -55,-16 -72,-25 -27,-13 -30,-20 -25,-43 8,-33 22,-72 26,-72 2,0 25,7 52,15 69,21 118,19 150,-6 66,-52 9,-119 -100,-119 l -44,0 0,-55 0,-55 49,0 c 60,0 92,-11 120,-41 28,-30 27,-71 -2,-105 -32,-37 -109,-44 -189,-17 l -58,20 -15,-55 c -14,-45 -14,-56 -3,-63 32,-21 100,-33 183,-34 79,0 97,3 148,28 76,38 111,88 111,161 0,66 -30,118 -84,143 -44,20 -49,29 -22,37 10,4 31,20 47,36 22,23 29,42 33,83 6,69 -14,108 -73,142 -50,30 -157,41 -232,25 z" inkscape:connector-curvature="0" id="path206" />
    <path d="m 30925,5944 c -51,-13 -112,-36 -128,-48 -17,-13 -16,-16 3,-62 12,-27 23,-50 24,-52 2,-1 19,7 39,18 86,51 189,28 203,-45 12,-64 -31,-129 -172,-262 -122,-114 -124,-117 -124,-160 l 0,-43 230,0 230,0 0,60 0,60 -121,0 -121,0 89,88 c 110,107 138,159 138,253 0,55 -5,72 -28,107 -36,55 -94,84 -177,88 -36,2 -74,1 -85,-2 z" inkscape:connector-curvature="0" id="path208" />
    <path d="m 22154,5906 c -44,-20 -73,-61 -80,-117 -6,-43 -9,-49 -30,-49 -21,0 -24,-5 -24,-40 0,-36 3,-40 25,-40 l 25,0 0,-140 0,-140 55,0 54,0 3,138 3,137 38,3 c 36,3 37,4 37,43 l 0,39 -41,0 c -41,0 -41,0 -35,32 8,42 23,58 56,58 24,0 29,5 35,36 4,26 2,39 -7,45 -20,13 -79,10 -114,-5 z" inkscape:connector-curvature="0" id="path210" />
    <path d="m 19098,5883 -28,-4 0,-250 0,-249 55,0 55,0 0,89 0,88 63,5 c 123,10 187,67 187,166 0,111 -58,155 -210,158 -52,1 -107,0 -122,-3 z m 202,-103 c 28,-28 26,-75 -5,-105 -18,-19 -35,-25 -70,-25 l -45,0 0,75 0,75 50,0 c 37,0 55,-5 70,-20 z" inkscape:connector-curvature="0" id="path212" />
    <path d="m 20423,5822 c -51,-14 -53,-16 -53,-48 0,-30 -3,-34 -25,-34 -22,0 -25,-4 -25,-40 0,-36 3,-40 25,-40 25,0 25,0 25,-95 0,-60 5,-108 14,-130 17,-39 60,-65 110,-65 56,0 66,8 66,51 0,35 -3,39 -24,39 -46,0 -57,24 -54,114 l 3,81 38,3 c 36,3 37,4 37,43 0,39 0,39 -39,39 l -40,0 -3,48 -3,49 -52,-15 z" inkscape:connector-curvature="0" id="path214" />
    <path d="m 19564,5726 c -66,-34 -97,-87 -98,-165 -1,-109 60,-177 168,-188 47,-5 64,-2 109,20 71,35 101,86 101,172 0,108 -62,173 -172,182 -47,4 -65,0 -108,-21 z m 135,-75 c 11,-11 23,-36 27,-55 20,-110 -54,-187 -117,-120 -20,21 -24,36 -24,86 0,53 3,62 28,84 34,29 60,31 86,5 z" inkscape:connector-curvature="0" id="path216" />
    <path d="m 20074,5736 c -18,-8 -35,-19 -38,-25 -11,-18 -26,-13 -26,9 0,17 -7,20 -51,20 l -51,0 6,-31 c 3,-17 6,-98 6,-180 l 0,-149 55,0 55,0 0,120 c 0,107 2,122 20,140 11,11 29,20 40,20 11,0 29,-9 40,-20 18,-18 20,-33 20,-140 l 0,-120 55,0 55,0 0,139 c 0,127 -2,141 -23,172 -39,57 -97,73 -163,45 z" inkscape:connector-curvature="0" id="path218" />
    <path d="m 20934,5736 c -18,-8 -35,-19 -38,-25 -11,-18 -26,-13 -26,9 0,17 -7,20 -51,20 l -51,0 6,-31 c 3,-17 6,-98 6,-180 l 0,-149 55,0 55,0 0,120 c 0,107 2,122 20,140 11,11 29,20 40,20 11,0 29,-9 40,-20 18,-18 20,-33 20,-140 l 0,-120 55,0 55,0 0,139 c 0,127 -2,141 -23,172 -39,57 -97,73 -163,45 z" inkscape:connector-curvature="0" id="path220" />
    <path d="m 21313,5739 c -66,-19 -123,-102 -123,-179 0,-124 95,-200 235,-187 90,9 98,13 91,55 -3,19 -7,36 -8,38 -2,1 -24,-2 -50,-7 -57,-13 -121,2 -143,34 -8,12 -15,25 -15,29 0,5 54,8 120,8 l 120,0 0,50 c 0,126 -99,196 -227,159 z m 110,-87 c 35,-31 21,-42 -53,-42 -38,0 -70,3 -70,6 0,16 24,46 43,54 26,10 55,4 80,-18 z" inkscape:connector-curvature="0" id="path222" />
    <path d="m 21620,5604 c 0,-156 11,-193 65,-218 56,-27 114,-18 154,25 l 21,23 0,-27 c 0,-26 2,-27 50,-27 l 50,0 0,180 0,180 -55,0 -55,0 0,-115 c 0,-110 -1,-117 -25,-140 -29,-30 -49,-31 -75,-5 -18,18 -20,33 -20,140 l 0,120 -55,0 -55,0 0,-136 z" inkscape:connector-curvature="0" id="path224" />
    <path d="m 24710,4915 0,-125 2328,2 2327,3 3,123 3,122 -2331,0 -2330,0 0,-125 z" inkscape:connector-curvature="0" id="path226" />
    <path d="m 32830,4665 c 0,-52 -2,-95 -5,-95 -4,0 -20,7 -37,16 -67,35 -160,-1 -198,-76 -22,-44 -27,-140 -9,-187 36,-97 153,-131 229,-67 l 30,26 0,-26 c 0,-25 3,-26 50,-26 l 50,0 0,265 0,265 -55,0 -55,0 0,-95 z m -25,-175 c 22,-24 30,-96 16,-133 -6,-15 -22,-32 -35,-38 -61,-28 -112,27 -103,108 6,55 30,83 72,83 19,0 39,-8 50,-20 z" inkscape:connector-curvature="0" id="path228" />
    <path d="m 32236,4734 c -9,-8 -16,-24 -16,-35 0,-25 35,-59 60,-59 25,0 60,34 60,59 0,28 -27,51 -60,51 -16,0 -36,-7 -44,-16 z" inkscape:connector-curvature="0" id="path230" />
    <path d="m 31040,4593 c -37,-15 -72,-48 -91,-85 -17,-33 -20,-55 -17,-114 4,-81 20,-112 79,-152 42,-29 106,-26 150,7 l 29,22 0,-96 0,-95 55,0 55,0 0,255 0,255 -55,0 c -50,0 -55,-2 -55,-22 l 0,-21 -24,22 c -25,24 -95,37 -126,24 z m 125,-103 c 22,-24 30,-96 16,-133 -22,-58 -98,-61 -127,-5 -22,43 -14,116 16,140 29,24 73,23 95,-2 z" inkscape:connector-curvature="0" id="path232" />
    <path d="m 31885,4587 c -37,-12 -40,-15 -37,-47 3,-43 5,-44 43,-31 49,17 103,14 122,-7 10,-10 17,-21 17,-24 0,-3 -24,-8 -54,-11 -132,-13 -198,-96 -151,-187 30,-59 105,-76 175,-40 34,17 40,18 40,5 0,-11 12,-15 50,-15 l 50,0 0,128 c 0,140 -11,178 -63,216 -34,25 -134,31 -192,13 z m 145,-221 c 0,-57 -76,-91 -100,-46 -22,41 12,78 73,79 24,1 27,-2 27,-33 z" inkscape:connector-curvature="0" id="path234" />
    <path d="m 31400,4454 c 0,-156 11,-193 65,-218 56,-27 114,-18 154,25 l 21,23 0,-27 c 0,-26 2,-27 50,-27 l 50,0 0,180 0,180 -55,0 -55,0 0,-115 c 0,-110 -1,-117 -25,-140 -29,-30 -49,-31 -75,-5 -18,18 -20,33 -20,140 l 0,120 -55,0 -55,0 0,-136 z" inkscape:connector-curvature="0" id="path236" />
    <path d="m 32230,4410 0,-180 55,0 55,0 0,180 0,180 -55,0 -55,0 0,-180 z" inkscape:connector-curvature="0" id="path238" />
    <path d="m 33040,4454 c 0,-156 11,-193 65,-218 56,-27 114,-18 154,25 l 21,23 0,-27 c 0,-26 2,-27 50,-27 l 50,0 0,180 0,180 -55,0 -55,0 0,-115 c 0,-110 -1,-117 -25,-140 -29,-30 -49,-31 -75,-5 -18,18 -20,33 -20,140 l 0,120 -55,0 -55,0 0,-136 z" inkscape:connector-curvature="0" id="path240" />
    <path d="m 31060,3585 0,-255 155,0 155,0 0,45 0,44 -97,3 -98,3 -3,208 -2,207 -55,0 -55,0 0,-255 z" inkscape:connector-curvature="0" id="path242" />
    <path d="m 31504,3676 c -66,-34 -97,-87 -98,-165 -1,-109 60,-177 168,-188 47,-5 64,-2 109,20 71,35 101,86 101,172 0,108 -62,173 -172,182 -47,4 -65,0 -108,-21 z m 135,-75 c 11,-11 23,-36 27,-55 20,-110 -54,-187 -117,-120 -20,21 -24,36 -24,86 0,53 3,62 28,84 34,29 60,31 86,5 z" inkscape:connector-curvature="0" id="path244" />
    <path d="m 32855,3689 c -11,-6 -30,-23 -42,-38 l -23,-26 0,33 c 0,32 0,32 -51,32 -48,0 -51,-1 -45,-22 3,-13 6,-94 6,-180 l 0,-158 55,0 55,0 0,110 c 0,127 12,150 75,150 l 35,0 0,55 c 0,50 -2,55 -22,55 -13,0 -32,-5 -43,-11 z" inkscape:connector-curvature="0" id="path246" />
    <path d="m 33073,3689 c -66,-19 -123,-102 -123,-179 0,-124 95,-200 235,-187 90,9 98,13 91,55 -3,19 -7,36 -8,38 -2,1 -24,-2 -50,-7 -57,-13 -121,2 -143,34 -8,12 -15,25 -15,29 0,5 54,8 120,8 l 120,0 0,50 c 0,126 -99,196 -227,159 z m 110,-87 c 35,-31 21,-42 -53,-42 -38,0 -70,3 -70,6 0,16 24,46 43,54 26,10 55,4 80,-18 z" inkscape:connector-curvature="0" id="path248" />
    <path d="m 31860,3554 c 0,-156 11,-193 65,-218 56,-27 114,-18 154,25 l 21,23 0,-27 c 0,-26 2,-27 50,-27 l 50,0 0,180 0,180 -55,0 -55,0 0,-115 c 0,-110 -1,-117 -25,-140 -29,-30 -49,-31 -75,-5 -18,18 -20,33 -20,140 l 0,120 -55,0 -55,0 0,-136 z" inkscape:connector-curvature="0" id="path250" />
    <path d="m 32260,3683 c 0,-5 29,-84 64,-178 l 64,-170 59,0 58,0 66,175 66,175 -54,3 c -31,2 -58,1 -61,-3 -3,-3 -20,-58 -37,-122 -32,-117 -36,-123 -49,-68 -4,17 -19,67 -32,113 l -25,82 -60,0 c -32,0 -59,-3 -59,-7 z" inkscape:connector-curvature="0" id="path252" />
  </g>
</svg>
