<?xml version="1.0" standalone="no"?>
<!DOCTYPE svg PUBLIC "-//W3C//DTD SVG 20010904//EN"
 "http://www.w3.org/TR/2001/REC-SVG-20010904/DTD/svg10.dtd">
<svg version="1.0" xmlns="http://www.w3.org/2000/svg"
 width="3507.000000pt" height="2480.000000pt" viewBox="0 0 3507.000000 2480.000000"
 preserveAspectRatio="xMidYMid meet">
<metadata>
Created by potrace 1.11, written by Peter Selinger 2001-2013
</metadata>
<g transform="translate(0.000000,2480.000000) scale(0.100000,-0.100000)"
fill="#000000" stroke="none">
<path d="M610 22925 l0 -895 5100 0 5100 0 0 895 0 895 -5100 0 -5100 0 0
-895z m775 200 c33 -21 57 -47 79 -85 28 -50 31 -63 31 -145 0 -72 -5 -100
-23 -139 l-22 -49 27 -29 27 -28 -32 -32 -32 -32 -28 27 -29 27 -62 -16 c-182
-46 -321 69 -321 266 0 119 44 200 132 245 46 23 63 26 129 23 63 -2 83 -8
124 -33z m1665 -25 l0 -50 -55 0 -55 0 0 50 0 50 55 0 55 0 0 -50z m4020 -210
l0 -260 -50 0 c-37 0 -50 4 -50 15 0 11 -7 10 -35 -7 -49 -28 -134 -22 -171
13 -87 81 -87 258 0 338 35 32 133 42 171 17 l25 -16 0 73 c0 41 3 77 7 80 3
4 28 7 55 7 l48 0 0 -260z m170 227 c0 -19 -3 -68 -6 -110 l-7 -77 -33 0 c-18
0 -35 3 -37 8 -3 4 -8 53 -12 110 l-7 102 51 0 51 0 0 -33z m208 -229 l2 -258
-60 0 -60 0 0 260 0 261 58 -3 57 -3 3 -257z m842 2 l0 -260 -55 0 -55 0 0
253 c0 140 3 257 7 260 3 4 28 7 55 7 l48 0 0 -260z m200 210 l0 -50 -55 0
-55 0 0 50 0 50 55 0 55 0 0 -50z m930 -215 l0 -255 -55 0 -55 0 0 170 0 169
-57 3 -58 3 -3 38 c-3 34 -1 37 23 37 46 0 96 27 108 60 10 27 16 30 54 30
l43 0 0 -255z m410 236 c50 -27 72 -60 72 -115 1 -34 -5 -55 -22 -78 -20 -28
-21 -32 -6 -40 48 -27 60 -128 23 -192 -31 -54 -76 -76 -157 -76 -104 0 -155
40 -175 138 l-7 32 56 0 c47 0 56 -3 56 -18 0 -34 29 -62 66 -62 95 0 99 121
3 136 -37 6 -39 8 -39 43 0 36 2 38 43 47 40 9 42 11 45 49 3 29 -1 43 -14 52
-40 30 -94 5 -94 -43 0 -24 -2 -25 -52 -22 l-53 3 3 34 c4 47 35 95 75 115 44
22 134 21 177 -3z m-7010 -56 c0 -54 0 -55 30 -55 28 0 30 -2 30 -40 0 -38 -2
-40 -30 -40 l-31 0 3 -107 3 -108 28 -3 c25 -3 27 -7 27 -49 l0 -45 -60 4
c-45 3 -66 10 -83 26 -20 21 -22 32 -22 152 l0 130 -27 0 c-26 0 -28 3 -28 40
0 36 3 40 25 40 23 0 25 3 25 48 0 27 3 52 7 55 3 4 28 7 55 7 l48 0 0 -55z
m4830 0 c0 -54 0 -55 30 -55 28 0 30 -2 30 -40 0 -38 -2 -40 -30 -40 l-31 0 3
-107 3 -108 28 -3 c25 -3 27 -7 27 -49 l0 -45 -60 4 c-45 3 -66 10 -83 26 -20
21 -22 32 -22 152 l0 130 -27 0 c-26 0 -28 3 -28 40 0 36 3 40 25 40 23 0 25
3 25 48 0 27 3 52 7 55 3 4 28 7 55 7 l48 0 0 -55z m-4262 -63 c54 -24 92 -96
92 -173 l0 -39 -131 0 -130 0 7 -22 c12 -40 35 -58 75 -58 28 0 42 6 51 20 10
16 24 20 65 20 46 0 53 -3 53 -19 0 -25 -44 -77 -81 -96 -16 -9 -55 -15 -90
-15 -115 0 -177 59 -187 176 -14 174 123 276 276 206z m1690 0 c54 -24 92 -96
92 -173 l0 -39 -131 0 -130 0 7 -22 c12 -40 35 -58 75 -58 28 0 42 6 51 20 10
16 24 20 65 20 46 0 53 -3 53 -19 0 -25 -44 -77 -81 -96 -16 -9 -55 -15 -90
-15 -115 0 -177 59 -187 176 -14 174 123 276 276 206z m1280 0 c54 -24 92 -96
92 -173 l0 -39 -131 0 -130 0 7 -22 c12 -40 35 -58 75 -58 28 0 42 6 51 20 10
16 24 20 65 20 46 0 53 -3 53 -19 0 -25 -44 -77 -81 -96 -16 -9 -55 -15 -90
-15 -115 0 -177 59 -187 176 -14 174 123 276 276 206z m2480 0 c54 -24 92 -96
92 -173 l0 -39 -131 0 -130 0 7 -22 c12 -40 35 -58 75 -58 28 0 42 6 51 20 10
16 24 20 65 20 46 0 53 -3 53 -19 0 -25 -44 -77 -81 -96 -16 -9 -55 -15 -90
-15 -115 0 -177 59 -187 176 -14 174 123 276 276 206z m1400 0 c54 -24 92 -96
92 -173 l0 -39 -131 0 -130 0 7 -22 c12 -40 35 -58 75 -58 28 0 42 6 51 20 10
16 24 20 65 20 46 0 53 -3 53 -19 0 -25 -44 -77 -81 -96 -16 -9 -55 -15 -90
-15 -115 0 -177 59 -187 176 -14 174 123 276 276 206z m-8560 -122 c2 -107 6
-138 19 -152 21 -23 55 -23 84 1 23 18 24 27 29 153 l5 133 29 3 c15 2 39 1
52 -2 l24 -6 0 -190 0 -190 -55 0 c-42 0 -55 4 -55 15 0 12 -6 11 -32 -5 -66
-40 -162 -18 -191 43 -14 28 -17 65 -17 179 0 80 3 148 7 152 4 4 28 6 53 4
l45 -3 3 -135z m586 125 c57 -24 66 -54 66 -209 0 -79 4 -137 10 -141 25 -15
5 -25 -49 -25 -43 0 -60 4 -65 15 -5 13 -10 12 -38 -5 -59 -36 -161 -20 -188
29 -16 30 -12 114 6 140 21 29 64 47 136 56 60 8 84 24 74 50 -4 10 -19 15
-51 15 -39 0 -47 -3 -55 -25 -8 -22 -15 -25 -61 -25 l-52 0 6 36 c7 39 38 81
72 94 34 14 150 11 189 -5z m244 -13 l3 -23 30 26 c20 16 43 25 65 25 l34 0 0
-55 0 -55 -37 0 c-71 0 -83 -25 -83 -169 l0 -111 -55 0 -55 0 0 188 c0 104 3
192 7 196 4 4 25 6 48 4 33 -2 41 -7 43 -26z m540 -169 l2 -193 -55 0 -55 0 0
188 c0 104 3 192 7 196 4 4 28 6 53 4 l45 -3 3 -192z m590 169 l3 -23 30 26
c20 16 43 25 65 25 l34 0 0 -55 0 -55 -37 0 c-71 0 -83 -25 -83 -169 l0 -111
-55 0 -55 0 0 188 c0 104 3 192 7 196 4 4 25 6 48 4 33 -2 41 -7 43 -26z m646
13 c57 -24 66 -54 66 -209 0 -79 4 -137 10 -141 25 -15 5 -25 -49 -25 -43 0
-60 4 -65 15 -5 13 -10 12 -38 -5 -59 -36 -161 -20 -188 29 -16 30 -12 114 6
140 21 29 64 47 136 56 60 8 84 24 74 50 -4 10 -19 15 -51 15 -39 0 -47 -3
-55 -25 -8 -22 -15 -25 -61 -25 l-52 0 6 36 c7 39 38 81 72 94 34 14 150 11
189 -5z m268 -120 c20 -71 37 -128 38 -125 1 3 18 61 38 130 l37 125 45 3 c25
1 50 -1 57 -6 8 -5 -7 -59 -55 -195 l-67 -188 -59 3 -58 3 -68 187 c-37 103
-64 190 -61 193 3 3 30 5 61 3 l55 -3 37 -130z m999 97 l29 -32 0 -160 0 -160
-55 0 -55 0 0 134 c0 109 -3 138 -16 150 -24 25 -69 20 -93 -10 -19 -24 -21
-40 -21 -150 l0 -124 -55 0 -55 0 0 190 0 190 55 0 c43 0 55 -3 55 -16 0 -13
5 -11 28 6 23 19 37 21 91 18 57 -4 67 -8 92 -36z m227 -102 c2 -107 6 -138
19 -152 21 -23 55 -23 84 1 23 18 24 27 29 153 l5 133 29 3 c15 2 39 1 52 -2
l24 -6 0 -190 0 -190 -55 0 c-42 0 -55 4 -55 15 0 12 -6 11 -32 -5 -66 -40
-162 -18 -191 43 -14 28 -17 65 -17 179 0 80 3 148 7 152 4 4 28 6 53 4 l45
-3 3 -135z m2256 125 c57 -24 66 -54 66 -209 0 -79 4 -137 10 -141 25 -15 5
-25 -49 -25 -43 0 -60 4 -65 15 -5 13 -10 12 -38 -5 -59 -36 -161 -20 -188 29
-16 30 -12 114 6 140 21 29 64 47 136 56 60 8 84 24 74 50 -4 10 -19 15 -51
15 -39 0 -47 -3 -55 -25 -8 -22 -15 -25 -61 -25 l-52 0 6 36 c7 39 38 81 72
94 34 14 150 11 189 -5z m454 -182 l2 -193 -55 0 -55 0 0 188 c0 104 3 192 7
196 4 4 28 6 53 4 l45 -3 3 -192z"/>
<path d="M1175 23038 c-38 -30 -55 -76 -55 -150 0 -102 51 -172 125 -172 46 0
55 12 25 34 l-25 19 32 33 32 32 25 -23 25 -24 11 27 c14 39 12 131 -4 170
-21 50 -60 76 -116 76 -33 0 -55 -6 -75 -22z"/>
<path d="M6845 22907 c-28 -24 -43 -85 -31 -132 15 -59 84 -86 120 -46 59 65
28 201 -46 201 -9 0 -29 -10 -43 -23z"/>
<path d="M3247 22912 c-10 -10 -17 -26 -17 -35 0 -14 11 -17 65 -17 57 0 65 2
65 18 0 46 -81 70 -113 34z"/>
<path d="M4937 22912 c-10 -10 -17 -26 -17 -35 0 -14 11 -17 65 -17 57 0 65 2
65 18 0 46 -81 70 -113 34z"/>
<path d="M6217 22912 c-10 -10 -17 -26 -17 -35 0 -14 11 -17 65 -17 57 0 65 2
65 18 0 46 -81 70 -113 34z"/>
<path d="M8697 22912 c-10 -10 -17 -26 -17 -35 0 -14 11 -17 65 -17 57 0 65 2
65 18 0 46 -81 70 -113 34z"/>
<path d="M10097 22912 c-10 -10 -17 -26 -17 -35 0 -14 11 -17 65 -17 57 0 65
2 65 18 0 46 -81 70 -113 34z"/>
<path d="M2152 22790 c-44 -10 -54 -22 -50 -56 7 -64 118 -26 118 41 0 27 -9
29 -68 15z"/>
<path d="M4172 22790 c-44 -10 -54 -22 -50 -56 7 -64 118 -26 118 41 0 27 -9
29 -68 15z"/>
<path d="M7922 22790 c-44 -10 -54 -22 -50 -56 7 -64 118 -26 118 41 0 27 -9
29 -68 15z"/>
<path d="M30940 19800 l0 -50 55 0 55 0 0 50 0 50 -55 0 -55 0 0 -50z"/>
<path d="M4620 19790 l0 -50 55 0 55 0 0 50 0 50 -55 0 -55 0 0 -50z"/>
<path d="M28330 19755 c0 -47 -3 -85 -7 -85 -3 0 -15 8 -25 17 -11 10 -41 18
-76 21 -47 3 -63 0 -91 -20 -51 -34 -70 -66 -83 -135 -20 -110 17 -209 93
-248 44 -23 110 -19 153 10 34 23 36 23 36 5 0 -17 7 -20 50 -20 l50 0 0 270
0 270 -50 0 -50 0 0 -85z m-57 -147 c12 -6 27 -18 34 -27 19 -26 26 -96 13
-135 -31 -96 -146 -83 -165 18 -20 104 45 183 118 144z"/>
<path d="M29190 19570 l0 -270 55 0 55 0 0 207 c0 113 2 204 5 201 3 -2 23
-85 45 -184 22 -98 42 -189 45 -202 5 -21 10 -23 62 -20 l57 3 45 205 46 205
3 -207 2 -208 55 0 55 0 0 270 0 270 -85 0 c-47 0 -85 -3 -85 -6 0 -15 -83
-370 -89 -382 -4 -7 -27 76 -52 185 l-46 198 -86 3 -87 3 0 -271z"/>
<path d="M30730 19570 l0 -270 55 0 55 0 0 270 0 270 -55 0 -55 0 0 -270z"/>
<path d="M2270 19745 c0 -47 -3 -85 -7 -85 -3 0 -15 8 -25 17 -11 10 -41 18
-76 21 -47 3 -63 0 -91 -20 -51 -34 -70 -66 -83 -135 -20 -110 17 -209 93
-248 44 -23 110 -19 153 10 34 23 36 23 36 5 0 -17 7 -20 50 -20 l50 0 0 270
0 270 -50 0 -50 0 0 -85z m-57 -147 c12 -6 27 -18 34 -27 19 -26 26 -96 13
-135 -31 -96 -146 -83 -165 18 -20 104 45 183 118 144z"/>
<path d="M3050 19785 l0 -45 80 0 80 0 0 -225 0 -225 60 0 60 0 0 225 0 225
80 0 80 0 0 45 0 45 -220 0 -220 0 0 -45z"/>
<path d="M3950 19560 l0 -270 55 0 55 0 0 270 0 270 -55 0 -55 0 0 -270z"/>
<path d="M4150 19560 l0 -270 55 0 c50 0 55 2 55 22 0 21 0 21 26 -3 22 -20
36 -24 87 -24 77 1 107 19 142 88 52 105 26 251 -55 305 -47 32 -137 28 -175
-8 l-25 -23 0 91 0 92 -55 0 -55 0 0 -270z m247 26 c26 -22 28 -30 28 -96 0
-66 -2 -74 -28 -96 -36 -30 -68 -31 -103 0 -24 20 -28 32 -32 89 -4 63 -3 68
26 97 37 37 71 38 109 6z"/>
<path d="M32040 19755 c0 -52 -1 -55 -25 -55 -22 0 -25 -4 -25 -40 0 -36 3
-40 25 -40 l25 0 0 -135 c0 -131 1 -137 25 -160 20 -21 34 -25 85 -25 l60 0 0
39 c0 36 -3 40 -27 43 l-28 3 -3 118 -3 117 31 0 c28 0 30 2 30 40 0 38 -2 40
-30 40 -30 0 -30 1 -30 55 l0 55 -55 0 -55 0 0 -55z"/>
<path d="M29936 19709 c-90 -22 -140 -97 -140 -209 1 -95 46 -172 117 -199 66
-25 181 -7 231 37 73 65 75 243 3 320 -46 49 -133 71 -211 51z m128 -121 c26
-29 28 -35 24 -96 -4 -56 -8 -68 -32 -88 -34 -30 -88 -32 -115 -5 -39 39 -48
128 -19 184 12 24 67 48 93 41 11 -3 33 -19 49 -36z"/>
<path d="M3606 19699 c-90 -22 -140 -97 -140 -209 1 -95 46 -172 117 -199 66
-25 181 -7 231 37 73 65 75 243 3 320 -46 49 -133 71 -211 51z m128 -121 c26
-29 28 -35 24 -96 -4 -56 -8 -68 -32 -88 -34 -30 -88 -32 -115 -5 -39 39 -48
128 -19 184 12 24 67 48 93 41 11 -3 33 -19 49 -36z"/>
<path d="M26845 19698 c-11 -6 -28 -20 -37 -32 l-18 -21 0 28 c0 26 -2 27 -50
27 l-50 0 0 -200 0 -200 50 0 50 0 0 109 c0 153 18 191 91 191 l39 0 0 55 c0
53 -1 55 -27 55 -16 0 -37 -6 -48 -12z"/>
<path d="M27493 19685 c-58 -35 -83 -90 -83 -185 0 -100 23 -148 89 -184 88
-47 187 -32 249 38 47 54 43 66 -21 66 -41 0 -58 -5 -72 -20 -40 -44 -120 -16
-140 48 l-6 22 140 0 c160 0 149 -7 131 90 -12 63 -50 117 -96 136 -55 23
-142 18 -191 -11z m136 -70 c28 -14 41 -33 41 -61 0 -11 -17 -14 -75 -14 -86
0 -95 11 -46 61 34 33 41 35 80 14z"/>
<path d="M31286 19685 c-34 -23 -36 -23 -36 -5 0 17 -7 20 -50 20 l-50 0 0
-200 0 -200 50 0 50 0 0 109 c0 128 6 163 32 190 24 27 79 28 101 3 14 -15 17
-42 17 -160 l0 -142 55 0 55 0 0 160 c0 178 -8 208 -60 235 -46 24 -121 19
-164 -10z"/>
<path d="M31663 19685 c-58 -35 -83 -90 -83 -185 0 -100 23 -148 89 -184 88
-47 187 -32 249 38 47 54 43 66 -21 66 -41 0 -58 -5 -72 -20 -40 -44 -120 -16
-140 48 l-6 22 140 0 c160 0 149 -7 131 90 -12 63 -50 117 -96 136 -55 23
-142 18 -191 -11z m136 -70 c28 -14 41 -33 41 -61 0 -11 -17 -14 -75 -14 -86
0 -95 11 -46 61 34 33 41 35 80 14z"/>
<path d="M785 19688 c-11 -6 -28 -20 -37 -32 l-18 -21 0 28 c0 26 -2 27 -50
27 l-50 0 0 -200 0 -200 50 0 50 0 0 109 c0 153 18 191 91 191 l39 0 0 55 c0
53 -1 55 -27 55 -16 0 -37 -6 -48 -12z"/>
<path d="M1433 19675 c-58 -35 -83 -90 -83 -185 0 -100 23 -148 89 -184 88
-47 187 -32 249 38 47 54 43 66 -21 66 -41 0 -58 -5 -72 -20 -40 -44 -120 -16
-140 48 l-6 22 140 0 c160 0 149 -7 131 90 -12 63 -50 117 -96 136 -55 23
-142 18 -191 -11z m136 -70 c28 -14 41 -33 41 -61 0 -11 -17 -14 -75 -14 -86
0 -95 11 -46 61 34 33 41 35 80 14z"/>
<path d="M2523 19675 c-58 -35 -83 -90 -83 -185 0 -100 23 -148 89 -184 88
-47 187 -32 249 38 47 54 43 66 -21 66 -41 0 -58 -5 -72 -20 -40 -44 -120 -16
-140 48 l-6 22 140 0 c160 0 149 -7 131 90 -12 63 -50 117 -96 136 -55 23
-142 18 -191 -11z m136 -70 c28 -14 41 -33 41 -61 0 -11 -17 -14 -75 -14 -86
0 -95 11 -46 61 34 33 41 35 80 14z"/>
<path d="M4891 19682 c-39 -19 -66 -54 -75 -94 -6 -28 -6 -28 48 -28 45 0 54
3 59 20 12 45 95 50 121 7 15 -25 -12 -44 -77 -52 -115 -14 -156 -44 -164
-118 -6 -55 16 -101 59 -123 41 -21 119 -14 158 14 28 21 29 21 35 2 5 -17 15
-20 66 -20 32 0 59 2 59 4 0 2 -7 17 -15 32 -11 22 -15 64 -15 165 0 122 -2
139 -20 162 -37 47 -172 64 -239 29z m159 -227 c0 -55 -39 -95 -93 -95 -45 0
-64 52 -29 83 14 12 68 29 115 36 4 1 7 -10 7 -24z"/>
<path d="M5340 19693 c-75 -28 -110 -94 -110 -208 0 -89 21 -140 73 -179 41
-30 173 -30 214 0 37 28 73 81 73 110 0 22 -4 24 -55 24 -47 0 -55 -3 -55 -18
0 -53 -84 -70 -120 -24 -19 23 -21 37 -18 101 3 62 7 76 27 92 13 10 36 19 51
19 27 0 60 -26 60 -48 0 -8 21 -12 59 -12 l59 0 -10 37 c-15 55 -35 80 -79 97
-38 15 -138 20 -169 9z"/>
<path d="M26990 19539 c0 -146 2 -165 21 -195 35 -58 144 -69 204 -22 l25 19
0 -20 c0 -19 6 -21 55 -21 l55 0 0 200 0 200 -55 0 -55 0 0 -125 c0 -134 -8
-166 -47 -184 -36 -16 -58 -14 -79 10 -16 18 -19 40 -22 160 l-4 139 -49 0
-49 0 0 -161z"/>
<path d="M28530 19539 c0 -146 2 -165 21 -195 35 -58 144 -69 204 -22 l25 19
0 -20 c0 -19 6 -21 55 -21 l55 0 0 200 0 200 -55 0 -55 0 0 -125 c0 -134 -8
-166 -47 -184 -36 -16 -58 -14 -79 10 -16 18 -19 40 -22 160 l-4 139 -49 0
-49 0 0 -161z"/>
<path d="M30280 19539 c0 -146 2 -165 21 -195 35 -58 144 -69 204 -22 l25 19
0 -20 c0 -19 6 -21 55 -21 l55 0 0 200 0 200 -55 0 -55 0 0 -125 c0 -134 -8
-166 -47 -184 -36 -16 -58 -14 -79 10 -16 18 -19 40 -22 160 l-4 139 -49 0
-49 0 0 -161z"/>
<path d="M30940 19500 l0 -200 55 0 55 0 0 200 0 200 -55 0 -55 0 0 -200z"/>
<path d="M920 19529 c0 -146 2 -165 21 -195 35 -58 144 -69 204 -22 l25 19 0
-20 c0 -19 6 -21 55 -21 l55 0 0 200 0 200 -55 0 -55 0 0 -125 c0 -134 -8
-166 -47 -184 -36 -16 -58 -14 -79 10 -16 18 -19 40 -22 160 l-4 139 -49 0
-49 0 0 -161z"/>
<path d="M4620 19490 l0 -200 55 0 55 0 0 200 0 200 -55 0 -55 0 0 -200z"/>
<path d="M2130 18393 c0 -151 -39 -4703 -40 -4720 0 -2 -367 -3 -815 -3 l-815
0 0 -125 0 -125 943 2 942 3 0 130 c0 72 7 1143 17 2380 10 1238 18 2343 18
2458 l0 207 -125 0 -125 0 0 -207z"/>
<path d="M28097 18283 c-4 -175 -18 -1279 -33 -2453 -14 -1174 -28 -2141 -30
-2147 -3 -10 -2358 -13 -11734 -13 l-11730 0 0 153 c0 83 14 1180 30 2436 17
1256 29 2285 27 2287 -2 2 -58 7 -125 11 l-122 6 -1 -109 c0 -60 -15 -1209
-33 -2554 -18 -1345 -29 -2446 -24 -2448 4 -2 8 -10 8 -18 0 -12 1651 -14
11980 -14 l11980 0 0 338 c0 185 14 1332 30 2547 16 1216 30 2229 30 2253 l0
42 -123 0 -124 0 -6 -317z"/>
<path d="M30150 18458 c0 -204 -60 -4612 -65 -4793 -4 -121 -3 -233 0 -248 l7
-27 2099 0 2099 0 0 125 0 125 -1975 0 -1975 0 0 153 c0 83 14 1147 30 2362
16 1216 30 2245 30 2288 l0 77 -125 0 -125 0 0 -62z"/>
<path d="M7155 17542 c-6 -5 -43 -14 -83 -20 -248 -41 -486 -220 -604 -457
-71 -142 -112 -356 -88 -465 6 -30 16 -77 22 -105 32 -155 121 -309 247 -427
127 -118 251 -181 431 -218 118 -24 172 -25 280 -4 365 69 637 332 706 684 22
111 28 208 16 234 -5 12 -15 52 -21 89 -25 149 -100 294 -215 414 -120 128
-285 221 -439 250 -45 9 -90 19 -99 24 -22 11 -141 12 -153 1z m249 -152 c414
-106 650 -541 511 -943 -53 -154 -200 -325 -341 -399 -256 -134 -542 -113
-780 58 -120 85 -231 250 -269 399 -101 391 142 792 540 891 80 20 249 17 339
-6z"/>
<path d="M6836 16998 c-3 -29 -8 -98 -11 -153 -3 -55 -8 -127 -11 -160 -9
-118 -24 -361 -24 -402 l0 -43 80 0 80 0 0 28 c0 16 4 98 10 183 5 85 11 207
13 272 6 170 13 169 46 -3 11 -58 44 -187 72 -287 l51 -183 72 0 71 0 77 253
c43 138 83 273 90 300 7 26 15 47 19 47 3 0 9 -100 13 -222 3 -123 9 -260 13
-305 l6 -83 83 0 84 0 0 38 c0 20 -9 199 -20 397 -11 198 -20 364 -20 368 0 4
-53 6 -117 5 l-118 -3 -51 -155 c-28 -85 -64 -208 -80 -273 -16 -64 -33 -116
-38 -114 -5 2 -20 51 -33 110 -13 59 -45 180 -71 269 l-48 163 -116 3 -116 3
-6 -53z"/>
<path d="M26459 17445 c-568 -108 -871 -713 -614 -1225 159 -317 506 -503 856
-461 354 43 636 288 730 636 31 112 31 306 0 420 -29 108 -99 247 -166 328
-113 137 -281 244 -450 287 -107 27 -259 34 -356 15z m304 -131 c247 -56 452
-243 534 -489 24 -71 27 -95 28 -220 0 -121 -3 -150 -23 -209 -54 -162 -146
-288 -279 -382 -208 -149 -480 -177 -709 -74 -368 166 -536 595 -374 956 92
205 270 356 490 415 84 23 238 24 333 3z"/>
<path d="M26210 16959 c0 -3 -11 -185 -25 -405 -14 -219 -25 -400 -25 -401 0
-7 159 -2 163 5 3 4 11 143 18 310 7 166 16 302 19 302 4 0 17 -48 29 -107 13
-60 46 -193 75 -298 l52 -190 74 0 74 0 42 132 c23 73 63 207 90 298 27 91 51
165 55 165 3 0 9 -123 13 -272 4 -150 9 -290 13 -310 l6 -38 83 0 c73 0 84 2
84 18 0 9 -9 181 -20 382 -11 201 -20 375 -20 388 0 22 -1 23 -122 20 l-122
-3 -38 -120 c-22 -66 -56 -187 -78 -269 -21 -82 -41 -151 -44 -154 -7 -6 -10
3 -35 118 -12 52 -42 170 -68 262 l-47 167 -123 3 c-68 2 -123 0 -123 -3z"/>
<path d="M31430 15580 c-8 -4 -51 -16 -95 -25 -164 -35 -300 -112 -421 -237
-118 -121 -185 -245 -219 -403 -9 -44 -21 -88 -26 -97 -12 -23 -12 -143 0
-182 6 -17 20 -69 31 -116 71 -279 271 -498 540 -592 235 -82 449 -66 680 53
226 116 385 336 442 610 34 163 -5 378 -98 548 -114 207 -301 351 -534 411
-47 11 -99 25 -116 31 -37 11 -163 11 -184 -1z m265 -100 c262 -65 478 -263
562 -515 25 -73 27 -94 28 -235 0 -172 -12 -227 -81 -360 -91 -176 -256 -312
-459 -381 -62 -21 -88 -24 -225 -24 -141 1 -162 3 -235 28 -197 66 -367 215
-456 402 -109 226 -104 475 13 698 60 115 200 255 315 315 167 87 368 114 538
72z"/>
<path d="M31986 14959 c-106 -25 -159 -130 -107 -216 20 -31 83 -74 131 -88
94 -28 108 -110 22 -132 -24 -6 -104 6 -143 22 -13 5 -19 -3 -27 -34 -12 -50
-6 -56 74 -70 150 -28 268 39 268 151 0 68 -24 95 -127 146 -103 50 -125 79
-89 115 24 23 80 29 139 14 31 -8 32 -7 43 33 6 23 10 44 7 46 -6 6 -108 24
-131 23 -11 -1 -38 -5 -60 -10z"/>
<path d="M30867 14953 c-4 -3 -7 -120 -7 -259 l0 -252 63 -7 c75 -8 191 7 241
30 100 48 109 180 15 233 -35 21 -36 25 -5 41 51 28 66 109 30 157 -39 52 -77
64 -210 64 -66 0 -124 -3 -127 -7z m225 -90 c10 -9 18 -30 18 -49 0 -27 -6
-36 -30 -49 -16 -8 -47 -15 -70 -15 l-40 0 0 65 0 65 52 0 c34 0 58 -6 70 -17z
m-16 -203 c56 -22 69 -71 31 -115 -19 -23 -32 -27 -77 -28 l-55 -2 -3 78 -3
77 40 0 c22 0 52 -5 67 -10z"/>
<path d="M31332 14773 c4 -199 13 -240 60 -290 52 -55 182 -67 266 -24 80 41
105 128 100 356 l-3 140 -52 3 -53 3 0 -170 c0 -232 -16 -271 -108 -271 -33 0
-45 6 -66 31 -26 30 -26 31 -26 220 l0 189 -61 0 -61 0 4 -187z"/>
<path d="M4950 14710 l0 -630 200 0 200 0 0 630 0 630 -200 0 -200 0 0 -630z"/>
<path d="M24290 14710 l0 -630 195 0 195 0 0 630 0 630 -195 0 -195 0 0 -630z"/>
<path d="M9030 14705 l0 -625 193 2 192 3 3 623 2 622 -195 0 -195 0 0 -625z"/>
<path d="M5527 15214 c-4 -4 -7 -234 -7 -511 l0 -504 138 3 137 3 0 505 0 505
-131 3 c-71 1 -133 -1 -137 -4z"/>
<path d="M6940 15135 l0 -85 195 0 c107 0 195 -3 195 -7 0 -5 -16 -39 -36 -78
-33 -64 -206 -401 -275 -535 -16 -30 -29 -61 -29 -67 0 -10 27 -13 104 -13
l103 0 36 73 c19 39 55 115 81 167 25 53 46 101 46 108 0 7 4 12 9 12 5 0 12
14 16 30 4 17 11 30 16 30 5 0 9 5 9 12 0 7 29 72 65 144 36 73 65 137 65 143
0 6 5 11 10 11 6 0 10 30 10 70 l0 70 -310 0 -310 0 0 -85z"/>
<path d="M8587 15214 c-4 -4 -7 -234 -7 -511 l0 -504 138 3 137 3 0 505 0 505
-131 3 c-71 1 -133 -1 -137 -4z"/>
<path d="M24855 15208 c-3 -7 -4 -236 -3 -508 l3 -495 135 0 135 0 0 505 0
505 -133 3 c-100 2 -134 -1 -137 -10z"/>
<path d="M26320 15135 l0 -85 195 0 c107 0 195 -2 195 -4 0 -2 -13 -27 -29
-57 -15 -30 -82 -160 -148 -289 -66 -129 -132 -257 -147 -284 -14 -27 -26 -53
-26 -58 0 -5 48 -7 106 -6 l105 3 19 35 c38 70 160 328 160 339 0 6 4 11 9 11
5 0 12 14 16 30 4 17 11 30 16 30 5 0 9 6 9 14 0 8 29 72 65 142 61 121 65
133 65 197 l0 67 -305 0 -305 0 0 -85z"/>
<path d="M6015 15097 c-3 -6 -4 -185 -3 -397 l3 -385 98 -3 97 -3 0 401 0 400
-95 0 c-67 0 -97 -4 -100 -13z"/>
<path d="M8170 14710 l0 -400 95 0 95 0 0 400 0 400 -95 0 -95 0 0 -400z"/>
<path d="M25350 14710 l0 -400 100 0 100 0 0 400 0 400 -100 0 -100 0 0 -400z"/>
<path d="M33000 14990 c-19 -33 -38 -60 -41 -60 -4 0 -10 -11 -13 -25 -4 -14
-11 -25 -16 -25 -6 0 -10 -4 -10 -10 0 -12 -138 -239 -157 -258 -7 -7 -13 -20
-13 -28 0 -8 -4 -14 -10 -14 -6 0 -10 -28 -10 -65 l0 -65 178 -2 177 -3 5 -95
5 -95 88 -3 87 -3 0 101 0 100 50 0 51 0 -3 68 -3 67 -47 3 -48 3 0 235 0 234
-117 0 -118 0 -35 -60z m90 -255 l0 -155 -85 0 c-47 0 -85 2 -85 5 0 3 18 34
40 69 22 35 40 68 40 75 0 6 3 11 8 11 4 0 23 34 42 75 19 41 36 75 37 75 2 0
3 -70 3 -155z"/>
<path d="M33460 14970 l0 -80 180 0 c167 0 179 -1 173 -17 -4 -10 -9 -20 -12
-23 -10 -8 -71 -135 -71 -147 0 -6 -3 -13 -7 -15 -5 -1 -24 -34 -43 -73 -19
-38 -37 -72 -40 -75 -10 -10 -140 -278 -140 -289 0 -7 31 -11 96 -11 l96 0 11
30 c6 17 15 30 19 30 4 0 8 5 8 12 0 6 32 75 70 153 39 78 70 147 70 153 0 7
5 12 10 12 6 0 10 5 10 11 0 7 32 75 70 153 62 126 70 148 70 199 l0 57 -285
0 -285 0 0 -80z"/>
<path d="M33180 11880 l0 -50 55 0 55 0 0 50 0 50 -55 0 -55 0 0 -50z"/>
<path d="M29790 11650 l0 -270 55 0 55 0 0 270 0 270 -55 0 -55 0 0 -270z"/>
<path d="M31720 11835 c0 -47 -3 -85 -7 -85 -3 0 -15 8 -25 17 -11 10 -41 18
-76 21 -47 3 -63 0 -91 -20 -51 -34 -70 -66 -83 -135 -20 -110 17 -209 93
-248 44 -23 110 -19 153 10 34 23 36 23 36 5 0 -17 7 -20 50 -20 l50 0 0 270
0 270 -50 0 -50 0 0 -85z m-57 -147 c12 -6 27 -18 34 -27 19 -26 26 -96 13
-135 -31 -96 -146 -83 -165 18 -20 104 45 183 118 144z"/>
<path d="M31900 11893 c0 -16 3 -65 7 -110 l6 -83 33 0 32 0 7 88 c3 48 8 97
11 110 4 20 1 22 -46 22 -48 0 -50 -1 -50 -27z"/>
<path d="M32090 11650 l0 -270 55 0 55 0 0 270 0 270 -55 0 -55 0 0 -270z"/>
<path d="M32970 11650 l0 -270 55 0 55 0 0 270 0 270 -55 0 -55 0 0 -270z"/>
<path d="M32310 11835 c0 -52 -1 -55 -25 -55 -22 0 -25 -4 -25 -40 0 -36 3
-40 25 -40 l25 0 0 -135 c0 -131 1 -137 25 -160 20 -21 34 -25 85 -25 l60 0 0
39 c0 36 -3 40 -27 43 l-28 3 -3 118 -3 117 31 0 c28 0 30 2 30 40 0 38 -2 40
-30 40 -30 0 -30 1 -30 55 l0 55 -55 0 -55 0 0 -55z"/>
<path d="M6640 11760 l0 -50 55 0 55 0 0 50 0 50 -55 0 -55 0 0 -50z"/>
<path d="M5180 11715 c0 -47 -3 -85 -7 -85 -3 0 -15 8 -25 17 -11 10 -41 18
-76 21 -47 3 -63 0 -91 -20 -51 -34 -70 -66 -83 -135 -20 -110 17 -209 93
-248 44 -23 110 -19 153 10 34 23 36 23 36 5 0 -17 7 -20 50 -20 l50 0 0 270
0 270 -50 0 -50 0 0 -85z m-57 -147 c12 -6 27 -18 34 -27 19 -26 26 -96 13
-135 -31 -96 -146 -83 -165 18 -20 104 45 183 118 144z"/>
<path d="M5370 11773 c0 -16 3 -65 7 -110 l6 -83 33 0 32 0 7 88 c3 48 8 97
11 110 4 20 1 22 -46 22 -48 0 -50 -1 -50 -27z"/>
<path d="M5560 11530 l0 -270 55 0 55 0 0 270 0 270 -55 0 -55 0 0 -270z"/>
<path d="M6430 11530 l0 -270 55 0 55 0 0 270 0 270 -55 0 -55 0 0 -270z"/>
<path d="M28053 11765 c-58 -35 -83 -90 -83 -185 0 -100 23 -148 89 -184 88
-47 187 -32 249 38 47 54 43 66 -21 66 -41 0 -58 -5 -72 -20 -40 -44 -120 -16
-140 48 l-6 22 140 0 c160 0 149 -7 131 90 -12 63 -50 117 -96 136 -55 23
-142 18 -191 -11z m136 -70 c28 -14 41 -33 41 -61 0 -11 -17 -14 -75 -14 -86
0 -95 11 -46 61 34 33 41 35 80 14z"/>
<path d="M28565 11778 c-11 -6 -28 -20 -37 -32 l-18 -21 0 28 c0 26 -2 27 -50
27 l-50 0 0 -200 0 -200 50 0 50 0 0 109 c0 153 18 191 91 191 l39 0 0 55 c0
53 -1 55 -27 55 -16 0 -37 -6 -48 -12z"/>
<path d="M28754 11771 c-47 -29 -64 -59 -64 -114 0 -59 27 -88 98 -107 95 -25
126 -37 136 -54 9 -13 7 -20 -8 -32 -38 -27 -119 -10 -129 27 -4 16 -15 19
-62 19 l-57 0 7 -27 c18 -75 61 -104 161 -111 127 -8 204 39 204 125 0 72 -36
104 -153 134 -81 21 -107 40 -87 63 26 32 120 12 120 -25 0 -5 25 -9 55 -9 55
0 55 0 49 28 -17 73 -65 102 -171 102 -49 0 -77 -5 -99 -19z"/>
<path d="M29490 11783 c-8 -3 -25 -15 -37 -26 l-23 -20 0 21 c0 20 -5 22 -50
22 l-50 0 0 -277 0 -278 47 1 48 1 3 96 3 96 36 -25 c45 -30 95 -31 153 -1 61
31 84 79 88 182 3 68 0 87 -20 125 -31 60 -78 90 -137 89 -25 0 -53 -3 -61 -6z
m77 -107 c26 -22 28 -30 28 -96 0 -66 -2 -74 -28 -96 -38 -32 -72 -31 -108 5
-26 26 -29 36 -29 91 0 55 3 65 29 91 36 36 70 37 108 5z"/>
<path d="M30061 11772 c-39 -19 -66 -54 -75 -94 -6 -28 -6 -28 48 -28 45 0 54
3 59 20 12 45 95 50 121 7 15 -25 -12 -44 -77 -52 -115 -14 -156 -44 -164
-118 -6 -55 16 -101 59 -123 41 -21 119 -14 158 14 28 21 29 21 35 2 5 -17 15
-20 66 -20 32 0 59 2 59 4 0 2 -7 17 -15 32 -11 22 -15 64 -15 165 0 122 -2
139 -20 162 -37 47 -172 64 -239 29z m159 -227 c0 -55 -39 -95 -93 -95 -45 0
-64 52 -29 83 14 12 68 29 115 36 4 1 7 -10 7 -24z"/>
<path d="M30500 11783 c-75 -28 -110 -94 -110 -208 0 -89 21 -140 73 -179 41
-30 173 -30 214 0 37 28 73 81 73 110 0 22 -4 24 -55 24 -47 0 -55 -3 -55 -18
0 -53 -84 -70 -120 -24 -19 23 -21 37 -18 101 3 62 7 76 27 92 13 10 36 19 51
19 27 0 60 -26 60 -48 0 -8 21 -12 59 -12 l59 0 -10 37 c-15 55 -35 80 -79 97
-38 15 -138 20 -169 9z"/>
<path d="M30883 11765 c-58 -35 -83 -90 -83 -185 0 -100 23 -148 89 -184 88
-47 187 -32 249 38 47 54 43 66 -21 66 -41 0 -58 -5 -72 -20 -40 -44 -120 -16
-140 48 l-6 22 140 0 c160 0 149 -7 131 90 -12 63 -50 117 -96 136 -55 23
-142 18 -191 -11z m136 -70 c28 -14 41 -33 41 -61 0 -11 -17 -14 -75 -14 -86
0 -95 11 -46 61 34 33 41 35 80 14z"/>
<path d="M32611 11772 c-39 -19 -66 -54 -75 -94 -6 -28 -6 -28 48 -28 45 0 54
3 59 20 12 45 95 50 121 7 15 -25 -12 -44 -77 -52 -115 -14 -156 -44 -164
-118 -6 -55 16 -101 59 -123 41 -21 119 -14 158 14 28 21 29 21 35 2 5 -17 15
-20 66 -20 32 0 59 2 59 4 0 2 -7 17 -15 32 -11 22 -15 64 -15 165 0 122 -2
139 -20 162 -37 47 -172 64 -239 29z m159 -227 c0 -55 -39 -95 -93 -95 -45 0
-64 52 -29 83 14 12 68 29 115 36 4 1 7 -10 7 -24z"/>
<path d="M33433 11765 c-58 -35 -83 -90 -83 -185 0 -100 23 -148 89 -184 88
-47 187 -32 249 38 47 54 43 66 -21 66 -41 0 -58 -5 -72 -20 -40 -44 -120 -16
-140 48 l-6 22 140 0 c160 0 149 -7 131 90 -12 63 -50 117 -96 136 -55 23
-142 18 -191 -11z m136 -70 c28 -14 41 -33 41 -61 0 -11 -17 -14 -75 -14 -86
0 -95 11 -46 61 34 33 41 35 80 14z"/>
<path d="M27543 11768 c2 -7 35 -97 72 -200 l67 -188 57 0 56 0 38 108 c21 59
53 149 72 200 l33 92 -57 0 -58 0 -39 -135 c-21 -74 -41 -135 -44 -135 -3 0
-15 37 -28 83 -13 45 -30 106 -38 135 l-15 52 -61 0 c-44 0 -59 -3 -55 -12z"/>
<path d="M33180 11580 l0 -200 55 0 55 0 0 200 0 200 -55 0 -55 0 0 -200z"/>
<path d="M4060 11715 c0 -52 -1 -55 -25 -55 -22 0 -25 -4 -25 -40 0 -36 3 -40
25 -40 l25 0 0 -135 c0 -131 1 -137 25 -160 20 -21 34 -25 85 -25 l60 0 0 39
c0 36 -3 40 -27 43 l-28 3 -3 118 -3 117 31 0 c28 0 30 2 30 40 0 38 -2 40
-30 40 -30 0 -30 1 -30 55 l0 55 -55 0 -55 0 0 -55z"/>
<path d="M5780 11715 c0 -52 -1 -55 -25 -55 -22 0 -25 -4 -25 -40 0 -36 3 -40
25 -40 l25 0 0 -135 c0 -131 1 -137 25 -160 20 -21 34 -25 85 -25 l60 0 0 39
c0 36 -3 40 -27 43 l-28 3 -3 118 -3 117 31 0 c28 0 30 2 30 40 0 38 -2 40
-30 40 -30 0 -30 1 -30 55 l0 55 -55 0 -55 0 0 -55z"/>
<path d="M3416 11669 c-90 -22 -140 -97 -140 -209 1 -95 46 -172 117 -199 66
-25 181 -7 231 37 73 65 75 243 3 320 -46 49 -133 71 -211 51z m128 -121 c26
-29 28 -35 24 -96 -4 -56 -8 -68 -32 -88 -34 -30 -88 -32 -115 -5 -39 39 -48
128 -19 184 12 24 67 48 93 41 11 -3 33 -19 49 -36z"/>
<path d="M1563 11645 c-58 -35 -83 -90 -83 -185 0 -100 23 -148 89 -184 88
-47 187 -32 249 38 47 54 43 66 -21 66 -41 0 -58 -5 -72 -20 -40 -44 -120 -16
-140 48 l-6 22 140 0 c160 0 149 -7 131 90 -12 63 -50 117 -96 136 -55 23
-142 18 -191 -11z m136 -70 c28 -14 41 -33 41 -61 0 -11 -17 -14 -75 -14 -86
0 -95 11 -46 61 34 33 41 35 80 14z"/>
<path d="M2075 11658 c-11 -6 -28 -20 -37 -32 l-18 -21 0 28 c0 26 -2 27 -50
27 l-50 0 0 -200 0 -200 50 0 50 0 0 109 c0 153 18 191 91 191 l39 0 0 55 c0
53 -1 55 -27 55 -16 0 -37 -6 -48 -12z"/>
<path d="M2264 11651 c-47 -29 -64 -59 -64 -114 0 -59 27 -88 98 -107 95 -25
126 -37 136 -54 9 -13 7 -20 -8 -32 -38 -27 -119 -10 -129 27 -4 16 -15 19
-62 19 l-57 0 7 -27 c18 -75 61 -104 161 -111 127 -8 204 39 204 125 0 72 -36
104 -153 134 -81 21 -107 40 -87 63 26 32 120 12 120 -25 0 -5 25 -9 55 -9 55
0 55 0 49 28 -17 73 -65 102 -171 102 -49 0 -77 -5 -99 -19z"/>
<path d="M3000 11663 c-8 -3 -25 -15 -37 -26 l-23 -20 0 21 c0 20 -5 22 -50
22 l-50 0 0 -277 0 -278 47 1 48 1 3 96 3 96 36 -25 c45 -30 95 -31 153 -1 61
31 84 79 88 182 3 68 0 87 -20 125 -31 60 -78 90 -137 89 -25 0 -53 -3 -61 -6z
m77 -107 c26 -22 28 -30 28 -96 0 -66 -2 -74 -28 -96 -38 -32 -72 -31 -108 5
-26 26 -29 36 -29 91 0 55 3 65 29 91 36 36 70 37 108 5z"/>
<path d="M3915 11658 c-11 -6 -28 -20 -37 -32 l-18 -21 0 28 c0 26 -2 27 -50
27 l-50 0 0 -200 0 -200 50 0 50 0 0 109 c0 153 18 191 91 191 l39 0 0 55 c0
53 -1 55 -27 55 -16 0 -37 -6 -48 -12z"/>
<path d="M4353 11645 c-58 -35 -83 -90 -83 -185 0 -100 23 -148 89 -184 88
-47 187 -32 249 38 47 54 43 66 -21 66 -41 0 -58 -5 -72 -20 -40 -44 -120 -16
-140 48 l-6 22 140 0 c160 0 149 -7 131 90 -12 63 -50 117 -96 136 -55 23
-142 18 -191 -11z m136 -70 c28 -14 41 -33 41 -61 0 -11 -17 -14 -75 -14 -86
0 -95 11 -46 61 34 33 41 35 80 14z"/>
<path d="M6081 11652 c-39 -19 -66 -54 -75 -94 -6 -28 -6 -28 48 -28 45 0 54
3 59 20 12 45 95 50 121 7 15 -25 -12 -44 -77 -52 -115 -14 -156 -44 -164
-118 -6 -55 16 -101 59 -123 41 -21 119 -14 158 14 28 21 29 21 35 2 5 -17 15
-20 66 -20 32 0 59 2 59 4 0 2 -7 17 -15 32 -11 22 -15 64 -15 165 0 122 -2
139 -20 162 -37 47 -172 64 -239 29z m159 -227 c0 -55 -39 -95 -93 -95 -45 0
-64 52 -29 83 14 12 68 29 115 36 4 1 7 -10 7 -24z"/>
<path d="M6903 11645 c-58 -35 -83 -90 -83 -185 0 -100 23 -148 89 -184 88
-47 187 -32 249 38 47 54 43 66 -21 66 -41 0 -58 -5 -72 -20 -40 -44 -120 -16
-140 48 l-6 22 140 0 c160 0 149 -7 131 90 -12 63 -50 117 -96 136 -55 23
-142 18 -191 -11z m136 -70 c28 -14 41 -33 41 -61 0 -11 -17 -14 -75 -14 -86
0 -95 11 -46 61 34 33 41 35 80 14z"/>
<path d="M1053 11648 c2 -7 35 -97 72 -200 l67 -188 57 0 56 0 38 108 c21 59
53 149 72 200 l33 92 -57 0 -58 0 -39 -135 c-21 -74 -41 -135 -44 -135 -3 0
-15 37 -28 83 -13 45 -30 106 -38 135 l-15 52 -61 0 c-44 0 -59 -3 -55 -12z"/>
<path d="M6640 11460 l0 -200 55 0 55 0 0 200 0 200 -55 0 -55 0 0 -200z"/>
<path d="M33630 10725 c0 -3 20 -46 45 -95 l45 -90 -46 -91 c-25 -50 -43 -93
-41 -96 5 -5 377 179 377 187 0 5 -365 190 -375 190 -3 0 -5 -2 -5 -5z"/>
<path d="M29231 10566 c-16 -19 -11 -46 12 -60 25 -16 52 4 52 40 0 24 -5 30
-26 32 -14 2 -31 -4 -38 -12z"/>
<path d="M29481 10566 c-16 -19 -11 -46 12 -60 25 -16 52 4 52 40 0 24 -5 30
-26 32 -14 2 -31 -4 -38 -12z"/>
<path d="M29731 10566 c-16 -19 -11 -46 12 -60 25 -16 52 4 52 40 0 24 -5 30
-26 32 -14 2 -31 -4 -38 -12z"/>
<path d="M29981 10566 c-16 -19 -11 -46 12 -60 25 -16 52 4 52 40 0 24 -5 30
-26 32 -14 2 -31 -4 -38 -12z"/>
<path d="M30231 10566 c-16 -19 -11 -46 12 -60 25 -16 52 4 52 40 0 24 -5 30
-26 32 -14 2 -31 -4 -38 -12z"/>
<path d="M30481 10566 c-16 -19 -11 -46 12 -60 25 -16 52 4 52 40 0 24 -5 30
-26 32 -14 2 -31 -4 -38 -12z"/>
<path d="M30731 10566 c-16 -19 -11 -46 12 -60 25 -16 52 4 52 40 0 24 -5 30
-26 32 -14 2 -31 -4 -38 -12z"/>
<path d="M30981 10566 c-16 -19 -11 -46 12 -60 25 -16 52 4 52 40 0 24 -5 30
-26 32 -14 2 -31 -4 -38 -12z"/>
<path d="M31231 10566 c-16 -19 -11 -46 12 -60 25 -16 52 4 52 40 0 24 -5 30
-26 32 -14 2 -31 -4 -38 -12z"/>
<path d="M31481 10566 c-16 -19 -11 -46 12 -60 25 -16 52 4 52 40 0 24 -5 30
-26 32 -14 2 -31 -4 -38 -12z"/>
<path d="M31731 10566 c-16 -19 -11 -46 12 -60 25 -16 52 4 52 40 0 24 -5 30
-26 32 -14 2 -31 -4 -38 -12z"/>
<path d="M31981 10566 c-16 -19 -11 -46 12 -60 25 -16 52 4 52 40 0 24 -5 30
-26 32 -14 2 -31 -4 -38 -12z"/>
<path d="M32231 10566 c-16 -19 -11 -46 12 -60 25 -16 52 4 52 40 0 24 -5 30
-26 32 -14 2 -31 -4 -38 -12z"/>
<path d="M32481 10566 c-16 -19 -11 -46 12 -60 25 -16 52 4 52 40 0 24 -5 30
-26 32 -14 2 -31 -4 -38 -12z"/>
<path d="M32731 10566 c-16 -19 -11 -46 12 -60 25 -16 52 4 52 40 0 24 -5 30
-26 32 -14 2 -31 -4 -38 -12z"/>
<path d="M32981 10566 c-16 -19 -11 -46 12 -60 25 -16 52 4 52 40 0 24 -5 30
-26 32 -14 2 -31 -4 -38 -12z"/>
<path d="M33232 10568 c-30 -30 -1 -75 43 -64 22 6 26 11 23 39 -2 26 -8 33
-28 35 -14 2 -31 -3 -38 -10z"/>
<path d="M33482 10568 c-30 -30 -1 -75 43 -64 22 6 26 11 23 39 -2 26 -8 33
-28 35 -14 2 -31 -3 -38 -10z"/>
<path d="M720 10440 l-195 -97 194 -97 c106 -54 195 -95 198 -93 2 3 -17 47
-43 99 l-46 94 46 93 c26 51 46 94 44 96 -2 2 -91 -41 -198 -95z"/>
<path d="M1000 10361 c-19 -36 14 -70 53 -55 22 8 31 42 17 59 -18 21 -57 18
-70 -4z"/>
<path d="M1252 10363 c-16 -31 4 -63 41 -63 25 0 44 45 27 65 -17 20 -57 19
-68 -2z"/>
<path d="M1502 10363 c-16 -31 4 -63 41 -63 25 0 44 45 27 65 -17 20 -57 19
-68 -2z"/>
<path d="M1752 10363 c-16 -31 4 -63 41 -63 25 0 44 45 27 65 -17 20 -57 19
-68 -2z"/>
<path d="M2002 10363 c-16 -31 4 -63 41 -63 25 0 44 45 27 65 -17 20 -57 19
-68 -2z"/>
<path d="M2252 10363 c-16 -31 4 -63 41 -63 25 0 44 45 27 65 -17 20 -57 19
-68 -2z"/>
<path d="M2507 10373 c-13 -13 -7 -61 9 -67 29 -11 44 -6 56 19 8 19 8 28 -2
40 -13 15 -51 20 -63 8z"/>
<path d="M2757 10373 c-13 -13 -7 -61 9 -67 29 -11 44 -6 56 19 8 19 8 28 -2
40 -13 15 -51 20 -63 8z"/>
<path d="M3007 10373 c-13 -13 -7 -61 9 -67 29 -11 44 -6 56 19 8 19 8 28 -2
40 -13 15 -51 20 -63 8z"/>
<path d="M3257 10373 c-11 -11 -8 -48 5 -61 32 -32 87 18 58 53 -13 15 -51 20
-63 8z"/>
<path d="M3507 10373 c-11 -11 -8 -48 5 -61 32 -32 87 18 58 53 -13 15 -51 20
-63 8z"/>
<path d="M3757 10373 c-11 -11 -8 -48 5 -61 32 -32 87 18 58 53 -13 15 -51 20
-63 8z"/>
<path d="M4007 10373 c-11 -11 -8 -48 5 -61 32 -32 87 18 58 53 -13 15 -51 20
-63 8z"/>
<path d="M4257 10373 c-11 -11 -8 -48 5 -61 32 -32 87 18 58 53 -13 15 -51 20
-63 8z"/>
<path d="M4507 10373 c-11 -11 -8 -48 5 -61 32 -32 87 18 58 53 -13 15 -51 20
-63 8z"/>
<path d="M4754 10366 c-15 -40 21 -80 54 -60 37 24 21 74 -25 74 -13 0 -26 -6
-29 -14z"/>
<path d="M5004 10366 c-15 -40 21 -80 54 -60 37 24 21 74 -25 74 -13 0 -26 -6
-29 -14z"/>
<path d="M5254 10366 c-15 -40 21 -80 54 -60 37 24 21 74 -25 74 -13 0 -26 -6
-29 -14z"/>
<path d="M29060 8165 c-2786 -7 -6040 -14 -7232 -16 -1193 -2 -2169 -3 -2169
-4 -2 0 -15 -4470 -13 -4473 3 -5 244 -15 245 -11 1 2 5 952 8 2111 3 1158 10
2110 14 2114 4 5 3287 16 7295 25 4008 9 7288 17 7290 18 1 0 2 57 2 126 l0
125 -187 -2 c-104 0 -2467 -7 -5253 -13z"/>
<path d="M330 8015 l0 -125 880 0 880 0 0 -2115 0 -2115 120 0 c88 0 122 3
125 13 3 6 6 1014 7 2240 l3 2227 -1007 0 -1008 0 0 -125z"/>
<path d="M4272 5903 l3 -2238 123 -3 122 -3 0 2116 0 2115 6780 0 6780 0 2
-2112 3 -2113 123 -3 122 -3 -2 2238 -3 2238 -7028 3 -7027 2 2 -2237z"/>
<path d="M7155 7792 c-6 -5 -43 -14 -83 -20 -248 -41 -486 -220 -604 -457 -71
-142 -112 -356 -88 -465 6 -30 16 -77 22 -105 32 -155 121 -309 247 -427 127
-118 251 -181 431 -218 118 -24 172 -25 280 -4 365 69 637 332 706 684 22 111
28 208 16 234 -5 12 -15 52 -21 89 -25 149 -100 294 -215 414 -120 128 -285
221 -439 250 -45 9 -90 19 -99 24 -22 11 -141 12 -153 1z m249 -152 c414 -106
650 -541 511 -943 -53 -154 -200 -325 -341 -399 -256 -134 -542 -113 -780 58
-120 85 -231 250 -269 399 -101 391 142 792 540 891 80 20 249 17 339 -6z"/>
<path d="M6836 7248 c-3 -29 -8 -98 -11 -153 -3 -55 -8 -127 -11 -160 -9 -118
-24 -361 -24 -402 l0 -43 80 0 80 0 0 28 c0 16 4 98 10 183 5 85 11 207 13
272 6 170 13 169 46 -3 11 -58 44 -187 72 -287 l51 -183 72 0 71 0 77 253 c43
138 83 273 90 300 7 26 15 47 19 47 3 0 9 -100 13 -222 3 -123 9 -260 13 -305
l6 -83 83 0 84 0 0 38 c0 20 -9 199 -20 397 -11 198 -20 364 -20 368 0 4 -53
6 -117 5 l-118 -3 -51 -155 c-28 -85 -64 -208 -80 -273 -16 -64 -33 -116 -38
-114 -5 2 -20 51 -33 110 -13 59 -45 180 -71 269 l-48 163 -116 3 -116 3 -6
-53z"/>
<path d="M13060 7791 c-8 -5 -58 -18 -110 -30 -243 -55 -453 -221 -565 -445
-62 -125 -99 -288 -92 -406 20 -351 231 -647 544 -766 105 -39 256 -67 338
-61 326 23 592 195 729 472 112 224 123 453 33 690 -100 265 -344 469 -627
525 -36 7 -69 17 -74 21 -13 11 -156 11 -176 0z m214 -96 c160 -28 302 -101
414 -213 151 -151 225 -330 225 -547 0 -133 -19 -219 -73 -332 -220 -454 -803
-580 -1191 -257 -114 95 -221 266 -255 409 -23 92 -23 267 -1 358 72 296 317
527 614 581 104 19 163 19 267 1z"/>
<path d="M13620 7171 c-19 -4 -45 -13 -56 -19 -30 -16 -73 -69 -80 -98 -18
-71 38 -150 127 -179 67 -23 99 -50 99 -85 0 -56 -67 -75 -164 -46 -53 16 -57
13 -60 -46 -1 -29 3 -34 34 -45 43 -15 143 -16 192 -3 52 15 105 67 113 113
17 90 -15 139 -125 189 -100 45 -122 75 -83 114 14 14 30 16 94 11 74 -5 78
-4 83 18 3 13 9 30 12 38 3 9 -2 19 -13 25 -26 14 -132 22 -173 13z"/>
<path d="M12485 7157 c-3 -7 -4 -125 -3 -262 l3 -250 125 0 c101 0 134 4 167
19 108 49 124 187 26 243 l-36 21 27 17 c81 53 71 159 -19 204 -36 18 -60 21
-164 21 -89 0 -123 -3 -126 -13z m229 -88 c33 -26 33 -53 1 -85 -21 -21 -33
-25 -73 -22 l-47 3 -3 49 c-2 27 -1 55 2 62 9 22 88 18 120 -7z m-15 -200 c59
-21 69 -82 20 -124 -26 -21 -40 -25 -78 -23 l-46 3 -3 64 c-2 35 -1 70 2 77 6
17 61 18 105 3z"/>
<path d="M12953 7155 c-3 -9 -3 -93 -1 -188 6 -198 19 -244 84 -293 33 -25 47
-29 118 -32 108 -5 158 20 198 97 28 53 28 55 28 242 l0 189 -55 0 -55 0 0
-177 c0 -149 -3 -184 -18 -213 -35 -71 -115 -76 -159 -11 -22 32 -23 43 -23
217 l0 184 -55 0 c-41 0 -57 -4 -62 -15z"/>
<path d="M4950 6960 l0 -630 200 0 200 0 0 630 0 630 -200 0 -200 0 0 -630z"/>
<path d="M1360 6955 l0 -625 195 0 195 0 0 625 0 625 -195 0 -195 0 0 -625z"/>
<path d="M9030 6955 l0 -625 193 2 192 3 3 623 2 622 -195 0 -195 0 0 -625z"/>
<path d="M915 7458 c-3 -7 -4 -236 -3 -508 l3 -495 135 0 135 0 0 505 0 505
-133 3 c-100 2 -134 -1 -137 -10z"/>
<path d="M5527 7464 c-4 -4 -7 -234 -7 -511 l0 -504 138 3 137 3 0 505 0 505
-131 3 c-71 1 -133 -1 -137 -4z"/>
<path d="M8587 7464 c-4 -4 -7 -234 -7 -511 l0 -504 138 3 137 3 0 505 0 505
-131 3 c-71 1 -133 -1 -137 -4z"/>
<path d="M500 6960 l0 -400 95 0 95 0 0 400 0 400 -95 0 -95 0 0 -400z"/>
<path d="M6015 7347 c-3 -6 -4 -185 -3 -397 l3 -385 98 -3 97 -3 0 401 0 400
-95 0 c-67 0 -97 -4 -100 -13z"/>
<path d="M8170 6960 l0 -400 95 0 95 0 0 400 0 400 -95 0 -95 0 0 -400z"/>
<path d="M14608 7171 c-32 -49 -58 -94 -58 -100 0 -6 -4 -11 -10 -11 -5 0 -10
-7 -10 -15 0 -8 -4 -15 -10 -15 -5 0 -12 -11 -16 -25 -3 -14 -10 -25 -14 -25
-4 0 -10 -8 -14 -17 -6 -19 -27 -54 -37 -63 -3 -3 -14 -21 -25 -40 -10 -19
-27 -46 -36 -59 -13 -17 -18 -42 -18 -87 l0 -64 178 -2 177 -3 3 -98 3 -98 87
3 87 3 3 98 3 97 44 0 45 0 0 70 0 70 -45 0 -45 0 -2 233 -3 232 -115 3 -115
2 -57 -89z m112 -226 l0 -155 -86 0 c-84 0 -85 0 -78 23 4 12 10 24 14 27 3 3
10 12 13 20 4 8 17 31 28 50 26 42 78 136 93 167 6 13 12 23 14 23 1 0 2 -70
2 -155z"/>
<path d="M15082 7183 l3 -78 182 -3 182 -2 -17 -33 c-9 -17 -19 -34 -22 -37
-3 -3 -14 -25 -25 -50 -11 -25 -22 -47 -25 -50 -3 -3 -21 -36 -40 -75 -19 -38
-38 -71 -42 -73 -5 -2 -8 -9 -8 -15 0 -7 -21 -53 -46 -102 -26 -50 -60 -115
-75 -145 -16 -30 -29 -58 -29 -62 0 -5 44 -8 98 -8 l99 0 26 53 c105 214 197
408 197 417 0 5 5 10 10 10 6 0 10 4 10 10 0 5 20 52 45 103 38 80 45 103 45
156 l0 61 -285 0 -286 0 3 -77z"/>
<path d="M6940 5385 l0 -85 195 0 c107 0 195 -3 195 -7 0 -5 -16 -39 -36 -78
-33 -64 -206 -401 -275 -535 -16 -30 -29 -61 -29 -67 0 -10 27 -13 104 -13
l103 0 36 73 c19 39 55 115 81 167 25 53 46 101 46 108 0 7 4 12 9 12 5 0 12
14 16 30 4 17 11 30 16 30 5 0 9 5 9 12 0 7 29 72 65 144 36 73 65 137 65 143
0 6 5 11 10 11 6 0 10 30 10 70 l0 70 -310 0 -310 0 0 -85z"/>
<path d="M6036 3435 c-20 -30 -35 -55 -34 -56 2 0 20 -1 41 -2 34 -2 44 4 94
56 l57 57 -60 0 -61 0 -37 -55z"/>
<path d="M9050 3420 l0 -50 55 0 55 0 0 50 0 50 -55 0 -55 0 0 -50z"/>
<path d="M5270 3190 l0 -270 55 0 55 0 0 207 c0 113 2 204 5 201 3 -2 23 -85
45 -184 22 -98 42 -189 45 -202 5 -21 10 -23 62 -20 l57 3 45 205 46 205 3
-207 2 -208 55 0 55 0 0 270 0 270 -85 0 c-47 0 -85 -3 -85 -6 0 -15 -83 -370
-89 -382 -4 -7 -27 76 -52 185 l-46 198 -86 3 -87 3 0 -271z"/>
<path d="M7480 3415 l0 -45 80 0 80 0 0 -225 0 -225 60 0 60 0 0 225 0 225 80
0 80 0 0 45 0 45 -220 0 -220 0 0 -45z"/>
<path d="M8380 3190 l0 -270 55 0 55 0 0 270 0 270 -55 0 -55 0 0 -270z"/>
<path d="M8580 3190 l0 -270 55 0 c50 0 55 2 55 22 0 21 0 21 26 -3 22 -20 36
-24 87 -24 77 1 107 19 142 88 52 105 26 251 -55 305 -47 32 -137 28 -175 -8
l-25 -23 0 91 0 92 -55 0 -55 0 0 -270z m247 26 c26 -22 28 -30 28 -96 0 -66
-2 -74 -28 -96 -36 -30 -68 -31 -103 0 -24 20 -28 32 -32 89 -4 63 -3 68 26
97 37 37 71 38 109 6z"/>
<path d="M6320 3375 c0 -52 -1 -55 -25 -55 -22 0 -25 -4 -25 -40 0 -36 3 -40
25 -40 l25 0 0 -135 c0 -131 1 -137 25 -160 20 -21 34 -25 85 -25 l60 0 0 39
c0 36 -3 40 -27 43 l-28 3 -3 118 -3 117 31 0 c28 0 30 2 30 40 0 38 -2 40
-30 40 -30 0 -30 1 -30 55 l0 55 -55 0 -55 0 0 -55z"/>
<path d="M6976 3329 c-90 -22 -140 -97 -140 -209 1 -95 46 -172 117 -199 66
-25 181 -7 231 37 73 65 75 243 3 320 -46 49 -133 71 -211 51z m128 -121 c26
-29 28 -35 24 -96 -4 -56 -8 -68 -32 -88 -34 -30 -88 -32 -115 -5 -39 39 -48
128 -19 184 12 24 67 48 93 41 11 -3 33 -19 49 -36z"/>
<path d="M8046 3329 c-90 -22 -140 -97 -140 -209 1 -95 46 -172 117 -199 66
-25 181 -7 231 37 73 65 75 243 3 320 -46 49 -133 71 -211 51z m128 -121 c26
-29 28 -35 24 -96 -4 -56 -8 -68 -32 -88 -34 -30 -88 -32 -115 -5 -39 39 -48
128 -19 184 12 24 67 48 93 41 11 -3 33 -19 49 -36z"/>
<path d="M5953 3305 c-58 -35 -83 -90 -83 -185 0 -100 23 -148 89 -184 88 -47
187 -32 249 38 47 54 43 66 -21 66 -41 0 -58 -5 -72 -20 -40 -44 -120 -16
-140 48 l-6 22 140 0 c160 0 149 -7 131 90 -12 63 -50 117 -96 136 -55 23
-142 18 -191 -11z m136 -70 c28 -14 41 -33 41 -61 0 -11 -17 -14 -75 -14 -86
0 -95 11 -46 61 34 33 41 35 80 14z"/>
<path d="M6715 3318 c-11 -6 -28 -20 -37 -32 l-18 -21 0 28 c0 26 -2 27 -50
27 l-50 0 0 -200 0 -200 50 0 50 0 0 109 c0 153 18 191 91 191 l39 0 0 55 c0
53 -1 55 -27 55 -16 0 -37 -6 -48 -12z"/>
<path d="M9321 3312 c-39 -19 -66 -54 -75 -94 -6 -28 -6 -28 48 -28 45 0 54 3
59 20 12 45 95 50 121 7 15 -25 -12 -44 -77 -52 -115 -14 -156 -44 -164 -118
-6 -55 16 -101 59 -123 41 -21 119 -14 158 14 28 21 29 21 35 2 5 -17 15 -20
66 -20 32 0 59 2 59 4 0 2 -7 17 -15 32 -11 22 -15 64 -15 165 0 122 -2 139
-20 162 -37 47 -172 64 -239 29z m159 -227 c0 -55 -39 -95 -93 -95 -45 0 -64
52 -29 83 14 12 68 29 115 36 4 1 7 -10 7 -24z"/>
<path d="M9770 3323 c-75 -28 -110 -94 -110 -208 0 -89 21 -140 73 -179 41
-30 173 -30 214 0 37 28 73 81 73 110 0 22 -4 24 -55 24 -47 0 -55 -3 -55 -18
0 -53 -84 -70 -120 -24 -19 23 -21 37 -18 101 3 62 7 76 27 92 13 10 36 19 51
19 27 0 60 -26 60 -48 0 -8 21 -12 59 -12 l59 0 -10 37 c-15 55 -35 80 -79 97
-38 15 -138 20 -169 9z"/>
<path d="M9050 3120 l0 -200 55 0 55 0 0 200 0 200 -55 0 -55 0 0 -200z"/>
<path d="M21076 2765 c-20 -30 -35 -55 -34 -56 2 0 20 -1 41 -2 34 -2 44 4 94
56 l57 57 -60 0 -61 0 -37 -55z"/>
<path d="M19310 2750 l0 -50 55 0 55 0 0 50 0 50 -55 0 -55 0 0 -50z"/>
<path d="M16700 2745 l0 -45 80 0 80 0 0 -225 0 -225 60 0 60 0 0 225 0 225
80 0 80 0 0 45 0 45 -220 0 -220 0 0 -45z"/>
<path d="M20490 2520 l0 -270 55 0 55 0 0 115 0 115 120 0 120 0 0 45 0 45
-120 0 -120 0 0 65 0 65 135 0 135 0 0 45 0 45 -190 0 -190 0 0 -270z"/>
<path d="M19990 2705 c0 -52 -1 -55 -25 -55 -22 0 -25 -4 -25 -40 0 -36 3 -40
25 -40 l25 0 0 -135 c0 -131 1 -137 25 -160 20 -21 34 -25 85 -25 l60 0 0 39
c0 36 -3 40 -27 43 l-28 3 -3 118 -3 117 31 0 c28 0 30 2 30 40 0 38 -2 40
-30 40 -30 0 -30 1 -30 55 l0 55 -55 0 -55 0 0 -55z"/>
<path d="M17256 2659 c-90 -22 -140 -97 -140 -209 1 -95 46 -172 117 -199 66
-25 181 -7 231 37 73 65 75 243 3 320 -46 49 -133 71 -211 51z m128 -121 c26
-29 28 -35 24 -96 -4 -56 -8 -68 -32 -88 -34 -30 -88 -32 -115 -5 -39 39 -48
128 -19 184 12 24 67 48 93 41 11 -3 33 -19 49 -36z"/>
<path d="M21766 2659 c-90 -22 -140 -97 -140 -209 1 -95 46 -172 117 -199 66
-25 181 -7 231 37 73 65 75 243 3 320 -46 49 -133 71 -211 51z m128 -121 c26
-29 28 -35 24 -96 -4 -56 -8 -68 -32 -88 -34 -30 -88 -32 -115 -5 -39 39 -48
128 -19 184 12 24 67 48 93 41 11 -3 33 -19 49 -36z"/>
<path d="M15525 2648 c-11 -6 -28 -20 -37 -32 l-18 -21 0 28 c0 26 -2 27 -50
27 l-50 0 0 -200 0 -200 50 0 50 0 0 109 c0 153 18 191 91 191 l39 0 0 55 c0
53 -1 55 -27 55 -16 0 -37 -6 -48 -12z"/>
<path d="M16173 2635 c-58 -35 -83 -90 -83 -185 0 -100 23 -148 89 -184 88
-47 187 -32 249 38 47 54 43 66 -21 66 -41 0 -58 -5 -72 -20 -40 -44 -120 -16
-140 48 l-6 22 140 0 c160 0 149 -7 131 90 -12 63 -50 117 -96 136 -55 23
-142 18 -191 -11z m136 -70 c28 -14 41 -33 41 -61 0 -11 -17 -14 -75 -14 -86
0 -95 11 -46 61 34 33 41 35 80 14z"/>
<path d="M18114 2641 c-47 -29 -64 -59 -64 -114 0 -59 27 -88 98 -107 95 -25
126 -37 136 -54 9 -13 7 -20 -8 -32 -38 -27 -119 -10 -129 27 -4 16 -15 19
-62 19 l-57 0 7 -27 c18 -75 61 -104 161 -111 127 -8 204 39 204 125 0 72 -36
104 -153 134 -81 21 -107 40 -87 63 26 32 120 12 120 -25 0 -5 25 -9 55 -9 55
0 55 0 49 28 -17 73 -65 102 -171 102 -49 0 -77 -5 -99 -19z"/>
<path d="M18534 2641 c-47 -29 -64 -59 -64 -114 0 -59 27 -88 98 -107 95 -25
126 -37 136 -54 9 -13 7 -20 -8 -32 -38 -27 -119 -10 -129 27 -4 16 -15 19
-62 19 l-57 0 7 -27 c18 -75 61 -104 161 -111 127 -8 204 39 204 125 0 72 -36
104 -153 134 -81 21 -107 40 -87 63 26 32 120 12 120 -25 0 -5 25 -9 55 -9 55
0 55 0 49 28 -17 73 -65 102 -171 102 -49 0 -77 -5 -99 -19z"/>
<path d="M18961 2642 c-39 -19 -66 -54 -75 -94 -6 -28 -6 -28 48 -28 45 0 54
3 59 20 12 45 95 50 121 7 15 -25 -12 -44 -77 -52 -115 -14 -156 -44 -164
-118 -6 -55 16 -101 59 -123 41 -21 119 -14 158 14 28 21 29 21 35 2 5 -17 15
-20 66 -20 32 0 59 2 59 4 0 2 -7 17 -15 32 -11 22 -15 64 -15 165 0 122 -2
139 -20 162 -37 47 -172 64 -239 29z m159 -227 c0 -55 -39 -95 -93 -95 -45 0
-64 52 -29 83 14 12 68 29 115 36 4 1 7 -10 7 -24z"/>
<path d="M19656 2635 c-34 -23 -36 -23 -36 -5 0 17 -7 20 -50 20 l-50 0 0
-200 0 -200 50 0 50 0 0 109 c0 128 6 163 32 190 24 27 79 28 101 3 14 -15 17
-42 17 -160 l0 -142 55 0 55 0 0 160 c0 178 -8 208 -60 235 -46 24 -121 19
-164 -10z"/>
<path d="M20993 2635 c-58 -35 -83 -90 -83 -185 0 -100 23 -148 89 -184 88
-47 187 -32 249 38 47 54 43 66 -21 66 -41 0 -58 -5 -72 -20 -40 -44 -120 -16
-140 48 l-6 22 140 0 c160 0 149 -7 131 90 -12 63 -50 117 -96 136 -55 23
-142 18 -191 -11z m136 -70 c28 -14 41 -33 41 -61 0 -11 -17 -14 -75 -14 -86
0 -95 11 -46 61 34 33 41 35 80 14z"/>
<path d="M21505 2648 c-11 -6 -28 -20 -37 -32 l-18 -21 0 28 c0 26 -2 27 -50
27 l-50 0 0 -200 0 -200 50 0 50 0 0 109 c0 153 18 191 91 191 l39 0 0 55 c0
53 -1 55 -27 55 -16 0 -37 -6 -48 -12z"/>
<path d="M22236 2635 c-34 -23 -36 -23 -36 -5 0 17 -7 20 -50 20 l-50 0 0
-200 0 -200 50 0 50 0 0 109 c0 128 6 163 32 190 24 27 79 28 101 3 14 -15 17
-42 17 -160 l0 -142 55 0 55 0 0 160 c0 178 -8 208 -60 235 -46 24 -121 19
-164 -10z"/>
<path d="M15660 2489 c0 -146 2 -165 21 -195 35 -58 144 -69 204 -22 l25 19 0
-20 c0 -19 6 -21 55 -21 l55 0 0 200 0 200 -55 0 -55 0 0 -125 c0 -134 -8
-166 -47 -184 -36 -16 -58 -14 -79 10 -16 18 -19 40 -22 160 l-4 139 -49 0
-49 0 0 -161z"/>
<path d="M17600 2489 c0 -146 2 -165 21 -195 35 -58 144 -69 204 -22 l25 19 0
-20 c0 -19 6 -21 55 -21 l55 0 0 200 0 200 -55 0 -55 0 0 -125 c0 -134 -8
-166 -47 -184 -36 -16 -58 -14 -79 10 -16 18 -19 40 -22 160 l-4 139 -49 0
-49 0 0 -161z"/>
<path d="M19310 2450 l0 -200 55 0 55 0 0 200 0 200 -55 0 -55 0 0 -200z"/>
<path d="M20200 2460 l0 -50 105 0 105 0 0 50 0 50 -105 0 -105 0 0 -50z"/>
</g>
</svg>
