<?xml version="1.0" standalone="no"?>
<!DOCTYPE svg PUBLIC "-//W3C//DTD SVG 20010904//EN"
 "http://www.w3.org/TR/2001/REC-SVG-20010904/DTD/svg10.dtd">
<svg version="1.0" xmlns="http://www.w3.org/2000/svg"
 width="3507.000000pt" height="2480.000000pt" viewBox="0 0 3507.000000 2480.000000"
 preserveAspectRatio="xMidYMid meet">
<metadata>
Created by potrace 1.11, written by Peter Selinger 2001-2013
</metadata>
<g transform="translate(0.000000,2480.000000) scale(0.100000,-0.100000)"
fill="#000000" stroke="none">
<path d="M1215 24228 c-2 -7 -10 -52 -18 -100 l-14 -88 33 0 c30 0 33 3 39 40
4 22 10 40 14 40 4 0 22 -18 40 -40 28 -35 37 -40 73 -40 l42 0 -34 35 c-29
30 -32 37 -20 45 8 5 20 10 26 10 20 0 46 38 42 61 -2 13 -14 29 -28 36 -34
17 -189 17 -195 1z m154 -42 c4 -26 -25 -46 -66 -46 -30 0 -33 3 -33 28 0 38
7 43 55 40 30 -2 41 -8 44 -22z"/>
<path d="M1523 24142 c-59 -69 -78 -98 -67 -100 8 -2 23 3 33 12 24 22 133 22
151 1 12 -14 80 -22 80 -9 0 12 -101 194 -108 194 -4 0 -44 -44 -89 -98z m77
-8 c14 -35 15 -34 -31 -34 l-41 0 24 29 c29 37 36 38 48 5z"/>
<path d="M1720 24225 c0 -11 12 -15 46 -15 l47 0 -6 -42 c-3 -24 -9 -62 -13
-85 l-7 -43 35 0 35 0 14 83 14 82 49 5 c27 3 51 11 54 18 3 9 -28 12 -132 12
-114 0 -136 -2 -136 -15z"/>
<path d="M2021 24173 c-7 -38 -14 -83 -17 -100 -6 -32 -5 -33 29 -33 32 0 35
3 41 34 l6 33 70 5 c76 6 110 25 110 62 -1 49 -37 66 -143 66 l-85 0 -11 -67z
m162 15 c17 -26 -9 -48 -54 -48 -36 0 -39 2 -39 28 0 16 3 32 7 36 13 13 76 1
86 -16z"/>
<path d="M2720 23315 l0 -895 4455 0 4455 0 0 895 0 895 -4455 0 -4455 0 0
-895z m1260 257 c0 -4 -22 -29 -49 -56 -44 -43 -52 -47 -90 -44 l-41 3 32 53
33 52 57 0 c32 0 58 -4 58 -8z m1596 -17 c54 -16 115 -70 133 -118 20 -52 16
-57 -46 -57 -55 0 -59 2 -73 33 -11 23 -27 36 -56 46 -37 13 -44 12 -80 -5
-53 -26 -74 -70 -74 -157 0 -115 38 -167 120 -167 33 0 48 6 71 29 16 16 29
37 29 45 0 13 12 16 61 16 l61 0 -7 -27 c-31 -127 -158 -197 -288 -159 -110
32 -158 100 -165 236 -2 47 1 103 7 126 36 135 165 201 307 159z m-2298 -27
c5 -18 24 -99 43 -180 18 -82 36 -148 39 -148 3 0 24 80 46 178 l40 177 82 3
82 3 0 -261 0 -260 -55 0 -55 0 -1 183 -1 182 -41 -182 -41 -183 -57 0 -57 0
-22 98 c-12 53 -30 131 -40 172 l-18 75 -1 -172 -1 -173 -55 0 -55 0 0 260 0
260 80 0 79 0 9 -32z m3542 -228 l0 -260 -50 0 c-37 0 -50 4 -50 15 0 11 -7
10 -35 -7 -49 -28 -134 -22 -171 13 -87 81 -87 258 0 338 35 32 133 42 171 17
l25 -16 0 73 c0 41 3 77 7 80 3 4 28 7 55 7 l48 0 0 -260z m200 210 l0 -50
-55 0 -55 0 0 50 0 50 55 0 55 0 0 -50z m1050 -210 l0 -260 -55 0 -55 0 0 253
c0 140 3 257 7 260 3 4 28 7 55 7 l48 0 0 -260z m418 48 l2 -208 125 0 125 0
0 -50 0 -50 -185 0 -185 0 0 260 0 261 58 -3 57 -3 3 -207z m1902 162 l0 -50
-55 0 -55 0 0 50 0 50 55 0 55 0 0 -50z m-6170 -35 c0 -54 0 -55 30 -55 28 0
30 -2 30 -40 0 -38 -2 -40 -30 -40 l-31 0 3 -107 3 -108 28 -3 c25 -3 27 -7
27 -49 l0 -45 -60 4 c-45 3 -66 10 -83 26 -20 21 -22 32 -22 152 l0 130 -27 0
c-26 0 -28 3 -28 40 0 36 3 40 25 40 23 0 25 3 25 48 0 27 3 52 7 55 3 4 28 7
55 7 l48 0 0 -55z m-272 -63 c54 -24 92 -96 92 -173 l0 -39 -131 0 -130 0 7
-22 c12 -40 35 -58 75 -58 28 0 42 6 51 20 10 16 24 20 65 20 46 0 53 -3 53
-19 0 -25 -44 -77 -81 -96 -16 -9 -55 -15 -90 -15 -115 0 -177 59 -187 176
-14 174 123 276 276 206z m963 -7 c101 -66 106 -276 9 -345 -67 -47 -199 -43
-253 8 -70 65 -87 178 -42 269 28 55 52 75 106 92 51 16 138 4 180 -24z m4137
7 c54 -24 92 -96 92 -173 l0 -39 -131 0 -130 0 7 -22 c12 -40 35 -58 75 -58
28 0 42 6 51 20 10 16 24 20 65 20 46 0 53 -3 53 -19 0 -25 -44 -77 -81 -96
-16 -9 -55 -15 -90 -15 -115 0 -177 59 -187 176 -14 174 123 276 276 206z
m1083 -7 c101 -66 106 -276 9 -345 -67 -47 -199 -43 -253 8 -70 65 -87 178
-42 269 28 55 52 75 106 92 51 16 138 4 180 -24z m1037 7 c54 -24 92 -96 92
-173 l0 -39 -131 0 -130 0 7 -22 c12 -40 35 -58 75 -58 28 0 42 6 51 20 10 16
24 20 65 20 46 0 53 -3 53 -19 0 -25 -44 -77 -81 -96 -16 -9 -55 -15 -90 -15
-115 0 -177 59 -187 176 -14 174 123 276 276 206z m-6730 -10 l3 -23 30 26
c20 16 43 25 65 25 l34 0 0 -55 0 -55 -37 0 c-71 0 -83 -25 -83 -169 l0 -111
-55 0 -55 0 0 188 c0 104 3 192 7 196 4 4 25 6 48 4 33 -2 41 -7 43 -26z
m1606 13 c57 -24 66 -54 66 -209 0 -79 4 -137 10 -141 25 -15 5 -25 -49 -25
-43 0 -60 4 -65 15 -5 13 -10 12 -38 -5 -59 -36 -161 -20 -188 29 -16 30 -12
114 6 140 21 29 64 47 136 56 60 8 84 24 74 50 -4 10 -19 15 -51 15 -39 0 -47
-3 -55 -25 -8 -22 -15 -25 -61 -25 l-52 0 6 36 c7 39 38 81 72 94 34 14 150
11 189 -5z m244 -13 l3 -23 30 26 c20 16 43 25 65 25 l34 0 0 -55 0 -55 -37 0
c-71 0 -83 -25 -83 -169 l0 -111 -55 0 -55 0 0 188 c0 104 3 192 7 196 4 4 25
6 48 4 33 -2 41 -7 43 -26z m730 -169 l2 -193 -55 0 -55 0 0 188 c0 104 3 192
7 196 4 4 28 6 53 4 l45 -3 3 -192z m413 159 l29 -32 0 -160 0 -160 -55 0 -55
0 0 134 c0 109 -3 138 -16 150 -24 25 -69 20 -93 -10 -19 -24 -21 -40 -21
-150 l0 -124 -55 0 -55 0 0 190 0 190 55 0 c43 0 55 -3 55 -16 0 -13 5 -11 28
6 23 19 37 21 91 18 57 -4 67 -8 92 -36z m373 23 c57 -24 66 -54 66 -209 0
-79 4 -137 10 -141 25 -15 5 -25 -49 -25 -43 0 -60 4 -65 15 -5 13 -10 12 -38
-5 -59 -36 -161 -20 -188 29 -16 30 -12 114 6 140 21 29 64 47 136 56 60 8 84
24 74 50 -4 10 -19 15 -51 15 -39 0 -47 -3 -55 -25 -8 -22 -15 -25 -61 -25
l-52 0 6 36 c7 39 38 81 72 94 34 14 150 11 189 -5z m1683 -9 l28 -24 28 24
c34 29 119 34 155 8 45 -31 52 -63 52 -224 l0 -150 -55 0 -55 0 0 132 c0 108
-3 135 -17 150 -21 24 -48 23 -73 -2 -18 -18 -20 -33 -20 -150 l0 -130 -55 0
-55 0 0 132 c0 108 -3 135 -17 150 -20 22 -42 23 -71 2 -21 -14 -22 -22 -22
-150 l0 -134 -55 0 -55 0 0 190 0 190 55 0 c46 0 55 -3 55 -17 0 -11 3 -14 8
-7 27 41 126 47 169 10z m901 -173 l2 -193 -55 0 -55 0 0 188 c0 104 3 192 7
196 4 4 28 6 53 4 l45 -3 3 -192z m413 159 l29 -32 0 -160 0 -160 -55 0 -55 0
0 134 c0 109 -3 138 -16 150 -24 25 -69 20 -93 -10 -19 -24 -21 -40 -21 -150
l0 -124 -55 0 -55 0 0 190 0 190 55 0 c43 0 55 -3 55 -16 0 -13 5 -11 28 6 23
19 37 21 91 18 57 -4 67 -8 92 -36z"/>
<path d="M6595 23317 c-28 -24 -43 -85 -31 -132 15 -59 84 -86 120 -46 59 65
28 201 -46 201 -9 0 -29 -10 -43 -23z"/>
<path d="M3807 23322 c-10 -10 -17 -26 -17 -35 0 -14 11 -17 65 -17 57 0 65 2
65 18 0 46 -81 70 -113 34z"/>
<path d="M4752 23333 c-52 -21 -54 -175 -2 -203 21 -11 61 -13 85 -4 58 23 58
185 0 208 -19 7 -64 7 -83 -1z"/>
<path d="M8907 23322 c-10 -10 -17 -26 -17 -35 0 -14 11 -17 65 -17 57 0 65 2
65 18 0 46 -81 70 -113 34z"/>
<path d="M9972 23333 c-52 -21 -54 -175 -2 -203 21 -11 61 -13 85 -4 58 23 58
185 0 208 -19 7 -64 7 -83 -1z"/>
<path d="M11027 23322 c-10 -10 -17 -26 -17 -35 0 -14 11 -17 65 -17 57 0 65
2 65 18 0 46 -81 70 -113 34z"/>
<path d="M5932 23200 c-44 -10 -54 -22 -50 -56 7 -64 118 -26 118 41 0 27 -9
29 -68 15z"/>
<path d="M7692 23200 c-44 -10 -54 -22 -50 -56 7 -64 118 -26 118 41 0 27 -9
29 -68 15z"/>
<path d="M1625 23938 c-90 -8 -148 -27 -229 -72 -60 -34 -186 -139 -186 -155
0 -4 15 -12 34 -19 18 -7 53 -25 76 -41 l43 -29 51 41 c140 111 316 132 472
57 163 -79 254 -226 254 -411 0 -151 -59 -284 -168 -379 -56 -49 -78 -95 -89
-187 l-6 -54 54 20 c80 31 184 107 240 175 64 79 125 204 140 286 6 36 15 73
20 82 12 24 11 105 -1 113 -5 3 -10 19 -10 35 0 47 -40 161 -80 230 -129 220
-355 333 -615 308z"/>
<path d="M975 23664 c-110 -26 -105 -23 -105 -70 0 -24 1 -44 3 -44 1 0 24 7
51 15 28 8 87 15 135 15 103 0 142 -16 245 -95 39 -30 88 -61 108 -69 43 -18
107 -21 157 -6 46 13 61 -1 61 -55 0 -46 10 -59 52 -69 20 -4 30 -15 36 -39 7
-27 13 -32 35 -29 22 2 26 -2 29 -30 2 -26 10 -36 35 -48 18 -8 33 -20 33 -27
0 -6 -14 -46 -31 -88 -61 -152 -97 -348 -85 -464 11 -105 14 -111 51 -111 l33
0 -5 103 c-8 154 25 321 98 502 43 104 38 128 -29 141 -36 7 -50 21 -61 61 -6
22 -13 28 -34 26 -23 -1 -27 2 -27 26 0 21 -8 31 -35 44 -30 14 -35 22 -35 51
0 19 -5 47 -10 61 l-10 27 -108 -7 c-106 -7 -107 -6 -148 22 -137 94 -184 122
-229 138 -50 17 -173 28 -210 19z"/>
<path d="M1091 23502 c-17 -33 -31 -124 -31 -201 0 -163 66 -326 180 -441 105
-106 261 -180 381 -180 l46 0 12 75 c7 41 10 79 7 83 -3 5 -31 12 -62 15 -109
11 -241 99 -306 202 -57 92 -81 204 -67 315 8 74 5 82 -55 112 -66 34 -95 39
-105 20z"/>
<path d="M6708 15825 l3 -3335 -1913 -2 -1913 -3 -3 -3285 c-1 -2169 -5 -3287
-12 -3294 -6 -6 -10 -63 -10 -128 l0 -118 1810 0 1811 0 -3 122 -3 123 -1672
3 -1673 2 0 3165 0 3165 1913 2 1912 3 3 3333 2 3332 1980 0 1980 0 0 125 0
125 -2107 0 -2108 0 3 -3335z"/>
<path d="M12880 18582 c0 -5 -12 -15 -27 -23 -28 -14 -90 -59 -127 -91 -11
-10 -24 -18 -29 -18 -4 0 -15 -6 -22 -12 -25 -23 -38 -32 -140 -103 -55 -38
-102 -71 -105 -75 -3 -3 -27 -22 -55 -41 -27 -18 -55 -38 -62 -44 -30 -24 -39
-31 -64 -43 -14 -8 -37 -31 -50 -53 -13 -21 -27 -39 -31 -39 -11 0 -10 -90 1
-90 5 0 19 -15 31 -34 13 -18 44 -46 69 -62 25 -15 48 -31 51 -34 3 -3 22 -16
42 -30 21 -14 38 -28 38 -32 0 -5 6 -8 14 -8 8 0 16 -4 18 -9 2 -4 41 -34 88
-67 47 -32 87 -62 88 -66 2 -4 8 -8 13 -8 9 0 21 -8 54 -37 7 -7 18 -13 24
-13 6 0 11 -4 11 -10 0 -5 5 -10 11 -10 7 0 19 -8 28 -17 9 -10 25 -24 36 -31
64 -40 81 -52 92 -61 14 -12 83 -15 83 -3 0 4 14 15 30 24 17 9 30 24 30 33 0
8 7 15 15 15 13 0 15 62 15 500 0 462 -1 501 -17 518 -10 11 -26 28 -35 38 -9
10 -23 25 -32 32 -17 13 -86 17 -86 4z m10 -582 c0 -220 -3 -400 -6 -400 -7 0
-66 40 -74 50 -3 4 -20 15 -37 25 -18 11 -33 23 -33 27 0 4 -7 8 -15 8 -8 0
-15 5 -15 10 0 6 -6 10 -13 10 -7 0 -19 9 -27 20 -8 11 -18 20 -22 20 -9 0
-103 66 -132 92 -11 10 -24 18 -29 18 -5 0 -17 8 -26 18 -9 9 -42 34 -73 55
-32 20 -58 41 -58 45 0 4 23 23 50 42 27 19 62 45 77 57 16 13 32 23 36 23 4
0 18 9 30 20 34 32 115 90 124 90 5 0 15 9 23 20 8 11 19 20 24 20 9 0 69 43
124 87 15 13 33 23 40 23 6 0 12 5 12 10 0 6 5 10 10 10 7 0 10 -140 10 -400z"/>
<path d="M10480 17980 l0 -560 195 0 195 0 0 560 0 560 -195 0 -195 0 0 -560z"/>
<path d="M10045 18428 c-3 -7 -4 -213 -3 -458 l3 -445 135 0 135 0 0 455 0
455 -133 3 c-100 2 -134 -1 -137 -10z"/>
<path d="M9630 17980 l0 -360 95 0 95 0 0 360 0 360 -95 0 -95 0 0 -360z"/>
<path d="M11675 18198 c-16 -6 -39 -18 -49 -27 -25 -21 -56 -89 -56 -123 0
-27 2 -28 48 -28 48 0 49 0 61 40 28 95 155 64 137 -33 -6 -34 -39 -70 -129
-142 -87 -68 -107 -97 -121 -177 l-7 -38 186 0 185 0 0 50 0 49 -117 3 -116 3
63 45 c90 64 129 99 145 129 53 104 5 223 -100 250 -53 13 -90 13 -130 -1z"/>
<path d="M13330 17941 l0 -271 55 0 55 0 0 105 0 105 83 0 c102 0 117 -11 117
-86 0 -27 3 -66 6 -86 l7 -38 64 0 c58 0 64 2 57 18 -4 9 -11 57 -14 107 -7
79 -11 91 -34 112 l-27 23 32 28 c27 24 33 37 37 84 5 61 -9 97 -53 138 -26
24 -30 25 -206 28 l-179 3 0 -270z m290 166 c32 -16 47 -58 32 -91 -14 -31
-71 -48 -150 -44 l-57 3 -3 73 -3 72 78 0 c43 0 89 -6 103 -13z"/>
<path d="M14940 17940 l0 -270 55 0 55 0 0 207 c0 113 2 204 5 201 3 -2 23
-85 45 -184 22 -98 42 -189 45 -202 5 -21 10 -23 62 -20 l57 3 45 205 46 205
3 -207 2 -208 55 0 55 0 0 270 0 270 -85 0 c-47 0 -85 -3 -85 -6 0 -15 -83
-370 -89 -382 -4 -7 -27 76 -52 185 l-46 198 -86 3 -87 3 0 -271z"/>
<path d="M15686 18079 c-90 -22 -140 -97 -140 -209 1 -95 46 -172 117 -199 66
-25 181 -7 231 37 73 65 75 243 3 320 -46 49 -133 71 -211 51z m128 -121 c26
-29 28 -35 24 -96 -4 -56 -8 -68 -32 -88 -34 -30 -88 -32 -115 -5 -39 39 -48
128 -19 184 12 24 67 48 93 41 11 -3 33 -19 49 -36z"/>
<path d="M14373 18055 c-58 -35 -83 -90 -83 -185 0 -100 23 -148 89 -184 88
-47 187 -32 249 38 47 54 43 66 -21 66 -41 0 -58 -5 -72 -20 -40 -44 -120 -16
-140 48 l-6 22 140 0 c160 0 149 -7 131 90 -12 63 -50 117 -96 136 -55 23
-142 18 -191 -11z m136 -70 c28 -14 41 -33 41 -61 0 -11 -17 -14 -75 -14 -86
0 -95 11 -46 61 34 33 41 35 80 14z"/>
<path d="M16156 18055 c-34 -23 -36 -23 -36 -5 0 17 -7 20 -50 20 l-50 0 0
-200 0 -200 50 0 50 0 0 109 c0 128 6 163 32 190 24 27 79 28 101 3 14 -15 17
-42 17 -160 l0 -142 55 0 55 0 0 160 c0 178 -8 208 -60 235 -46 24 -121 19
-164 -10z"/>
<path d="M16560 18073 c-27 -10 -71 -57 -85 -89 -35 -84 -25 -199 23 -255 52
-62 142 -77 206 -34 l36 25 -6 -43 c-4 -26 -15 -50 -31 -64 -31 -29 -87 -31
-110 -3 -14 16 -30 20 -76 20 -56 0 -58 -1 -51 -22 23 -73 84 -103 196 -96 82
5 129 25 155 65 16 23 18 58 21 260 l3 233 -50 0 c-46 0 -51 -2 -51 -22 l0
-21 -25 23 c-19 18 -39 24 -83 27 -31 1 -64 0 -72 -4z m143 -108 c66 -67 29
-205 -55 -205 -57 0 -95 66 -83 142 14 81 86 114 138 63z"/>
<path d="M16993 18055 c-58 -35 -83 -90 -83 -185 0 -100 23 -148 89 -184 88
-47 187 -32 249 38 47 54 43 66 -21 66 -41 0 -58 -5 -72 -20 -40 -44 -120 -16
-140 48 l-6 22 140 0 c160 0 149 -7 131 90 -12 63 -50 117 -96 136 -55 23
-142 18 -191 -11z m136 -70 c28 -14 41 -33 41 -61 0 -11 -17 -14 -75 -14 -86
0 -95 11 -46 61 34 33 41 35 80 14z"/>
<path d="M13860 17909 c0 -146 2 -165 21 -195 35 -58 144 -69 204 -22 l25 19
0 -20 c0 -19 6 -21 55 -21 l55 0 0 200 0 200 -55 0 -55 0 0 -125 c0 -134 -8
-166 -47 -184 -36 -16 -58 -14 -79 10 -16 18 -19 40 -22 160 l-4 139 -49 0
-49 0 0 -161z"/>
<path d="M8743 16843 c4 -104 7 -685 7 -1293 l0 -1105 1075 3 c1053 4 1075 4
1075 -15 0 -11 -11 -43 -25 -71 -14 -29 -25 -58 -25 -66 0 -8 -4 -18 -10 -21
-5 -3 -10 -17 -10 -30 0 -13 -3 -25 -7 -27 -11 -4 -43 -75 -43 -93 0 -8 -4
-15 -10 -15 -5 0 -10 -11 -10 -24 0 -14 -4 -27 -9 -31 -5 -3 -12 -19 -16 -35
-4 -17 -11 -30 -16 -30 -5 0 -9 -11 -9 -25 0 -14 -4 -25 -10 -25 -5 0 -10 -9
-10 -20 0 -11 -5 -29 -12 -39 -15 -25 4 -51 38 -51 13 0 24 -4 24 -9 0 -5 14
-11 31 -13 32 -5 37 1 69 87 16 42 41 101 50 117 6 10 10 25 10 33 0 8 5 15
10 15 6 0 10 8 10 18 0 19 12 48 51 125 10 22 19 44 19 50 0 7 11 35 25 62 13
28 25 58 25 68 0 9 4 17 9 17 5 0 11 10 13 23 l3 22 1181 3 1181 2 -5 635 -5
635 9112 0 9111 0 0 -1204 0 -1203 -42 8 c-24 4 -3510 8 -7748 8 -6707 1
-7714 -1 -7774 -14 -222 -47 -413 -234 -471 -460 -22 -86 -22 -840 0 -933 47
-197 202 -369 398 -441 l72 -26 7783 0 7782 0 0 -1177 0 -1178 -9110 0 -9110
0 0 614 c0 338 -3 621 -6 630 -6 15 -173 16 -1790 16 -1183 0 -1784 3 -1784
10 0 6 -97 10 -270 10 l-270 0 0 -29 c0 -17 -6 -31 -16 -35 -9 -3 -130 -6
-269 -6 -271 0 -265 -1 -265 51 0 18 -11 19 -275 19 -189 0 -275 -3 -275 -11
0 -7 -475 -9 -1620 -7 l-1620 3 0 -1105 c0 -608 -3 -1189 -7 -1292 l-6 -188
771 0 772 0 0 125 0 125 -640 0 -640 0 0 1040 0 1040 1495 0 1495 0 0 -680 0
-680 820 0 820 0 0 680 0 680 1665 0 1665 0 0 -505 c0 -330 -3 -505 -10 -505
-6 0 -10 -48 -10 -125 l0 -125 9368 2 9367 3 3 1364 2 1364 59 63 c80 85 137
201 157 318 13 73 15 160 12 470 l-4 381 -27 82 c-30 90 -106 212 -162 262
l-35 30 0 1375 c0 756 -3 1381 -6 1390 -6 15 -841 16 -9370 16 l-9364 0 0
-119 c0 -69 4 -122 10 -126 6 -4 10 -187 10 -516 l0 -509 -2085 0 -2085 0 0
1040 0 1040 960 0 960 0 0 125 0 125 -1092 0 -1091 0 6 -187z m7746 -3682 c22
-38 41 -73 41 -78 0 -4 -69 -48 -152 -98 l-152 -90 277 -3 277 -2 0 -85 0 -85
-280 -2 -280 -3 155 -93 c85 -51 155 -96 155 -99 0 -14 -82 -143 -88 -140 -4
2 -140 84 -303 182 -294 176 -319 195 -319 244 0 10 8 29 18 41 14 18 214 142
608 379 1 1 20 -30 43 -68z m883 -173 c25 -73 69 -197 97 -275 l50 -143 -69 0
-69 0 -17 55 -18 55 -92 0 -93 0 -17 -55 -18 -55 -68 0 -67 0 48 138 c107 300
141 394 146 403 4 5 36 9 73 9 l67 0 47 -132z m2148 -143 l0 -275 -55 0 -54 0
-3 271 c-2 149 -1 273 1 275 2 2 28 4 58 4 l53 0 0 -275z m210 220 l0 -56 -57
3 -58 3 -3 53 -3 52 60 0 61 0 0 -55z m-1160 -35 l0 -60 35 0 c34 0 35 -1 35
-40 0 -39 -1 -40 -35 -40 l-35 0 0 -108 c0 -115 6 -132 48 -132 21 0 23 -4 20
-42 l-3 -43 -66 0 c-105 0 -109 6 -109 182 l0 143 -30 0 c-28 0 -30 2 -30 40
0 38 2 40 30 40 l30 0 0 60 0 60 55 0 55 0 0 -60z m1380 0 l0 -60 35 0 c34 0
35 -1 35 -40 0 -39 -1 -40 -35 -40 l-35 0 0 -108 c0 -115 6 -132 48 -132 21 0
23 -4 20 -42 l-3 -43 -66 0 c-105 0 -109 6 -109 182 l0 143 -30 0 c-28 0 -30
2 -30 40 0 38 2 40 30 40 l30 0 0 60 0 60 55 0 55 0 0 -60z m4810 50 c0 -5 12
-10 28 -10 89 0 269 -90 362 -180 117 -114 210 -288 210 -392 0 -16 5 -28 10
-28 6 0 10 -38 10 -95 0 -57 -4 -95 -10 -95 -5 0 -10 -12 -10 -27 0 -105 -93
-279 -210 -393 -93 -90 -273 -180 -362 -180 -16 0 -28 -4 -28 -10 0 -6 -38
-10 -95 -10 -52 0 -95 4 -95 9 0 5 -23 12 -52 15 -71 10 -219 76 -274 122
-103 88 -159 154 -203 240 -36 72 -71 174 -71 209 0 14 -4 25 -10 25 -6 0 -10
38 -10 95 0 57 4 95 10 95 6 0 10 11 10 25 0 35 35 137 71 209 44 86 100 152
203 240 55 46 203 112 274 122 29 3 52 10 52 15 0 5 43 9 95 9 57 0 95 -4 95
-10z m-6470 -113 c40 -20 70 -62 70 -101 0 -25 -2 -26 -55 -26 -49 0 -57 3
-65 24 -10 29 -59 43 -89 26 -48 -25 -18 -45 109 -74 103 -23 148 -125 88
-201 -34 -43 -76 -59 -158 -59 -117 0 -190 49 -190 127 0 26 2 27 54 27 50 0
56 -2 68 -27 12 -26 18 -28 68 -28 48 0 55 3 58 21 3 19 -6 24 -65 40 -37 10
-82 24 -100 31 -101 41 -95 175 10 224 51 24 143 22 197 -4z m668 -1 c52 -27
86 -88 90 -162 l4 -64 -136 0 c-88 0 -136 -4 -136 -10 0 -25 31 -68 52 -74 41
-11 59 -6 83 20 20 22 30 25 77 22 47 -3 53 -5 50 -23 -8 -53 -77 -109 -146
-119 -98 -15 -201 44 -225 129 -47 171 47 313 200 302 31 -3 70 -12 87 -21z
m397 -36 l0 -54 -44 -8 c-72 -12 -76 -21 -79 -168 l-4 -130 -59 0 -59 0 0 205
0 206 58 -3 c52 -3 57 -5 56 -26 l-1 -23 26 24 c31 30 48 36 81 34 23 -2 25
-6 25 -57z m-1665 -91 c0 -77 5 -149 10 -160 14 -25 81 -27 101 -3 10 12 16
59 19 158 l5 141 58 3 57 3 0 -206 0 -205 -55 0 c-43 0 -55 3 -55 16 0 13 -6
12 -36 -6 -29 -18 -46 -22 -94 -18 -111 8 -130 46 -130 263 l0 155 60 0 60 0
0 -141z m2040 -64 l0 -205 -60 0 -60 0 0 198 c0 109 3 202 7 205 3 4 30 7 60
7 l53 0 0 -205z m658 155 c2 -44 0 -47 -93 -150 -52 -58 -94 -108 -95 -112 0
-5 43 -8 95 -8 l95 0 0 -45 0 -45 -177 2 -177 3 1 43 c0 31 7 51 25 70 13 15
57 64 97 110 l73 82 -91 0 -91 0 0 50 0 50 168 -2 167 -3 3 -45z m2852 25
c181 -48 353 -210 414 -389 49 -145 38 -315 -32 -456 -52 -105 -169 -222 -272
-272 -182 -87 -357 -86 -539 3 -138 68 -248 195 -303 352 -32 90 -32 276 0
364 56 157 165 284 303 352 140 69 284 85 429 46z m8260 -619 c146 -87 277
-171 293 -187 15 -16 27 -40 27 -54 0 -14 -12 -38 -27 -54 -16 -16 -147 -100
-293 -187 -146 -86 -275 -164 -287 -171 -20 -14 -23 -11 -64 57 -29 50 -39 74
-31 82 5 5 77 50 159 99 l148 89 -282 0 -283 0 0 85 0 85 283 0 282 0 -148 89
c-82 49 -153 93 -159 99 -7 7 4 33 32 81 40 68 44 71 64 58 11 -7 140 -85 286
-171z m-3788 64 c20 -6 50 -26 67 -46 26 -30 31 -43 31 -89 0 -43 -5 -59 -26
-84 -22 -26 -23 -32 -10 -37 9 -3 25 -22 37 -41 27 -43 23 -129 -7 -170 -49
-65 -59 -68 -255 -71 l-179 -3 0 275 0 276 153 0 c83 0 169 -5 189 -10z m1228
-265 l0 -275 -55 0 -54 0 -3 271 c-2 149 -1 273 1 275 2 2 28 4 58 4 l53 0 0
-275z m-750 123 c107 -54 143 -214 73 -326 -38 -61 -89 -87 -173 -87 -82 0
-134 25 -175 83 -24 35 -30 55 -33 113 -5 85 13 141 62 188 39 38 71 49 146
50 39 1 69 -6 100 -21z m1130 0 c107 -54 143 -214 73 -326 -38 -61 -89 -87
-173 -87 -82 0 -134 25 -175 83 -24 35 -30 55 -33 113 -5 85 13 141 62 188 39
38 71 49 146 50 39 1 69 -6 100 -21z m363 13 c13 -5 31 -17 40 -26 16 -15 17
-15 17 5 0 19 5 21 58 18 l57 -3 3 -195 c4 -234 -5 -286 -53 -329 -88 -76
-273 -59 -324 31 -24 42 -9 58 54 58 41 0 57 -4 62 -16 9 -24 47 -34 86 -23
36 10 57 44 57 91 0 18 -2 18 -15 4 -40 -40 -139 -39 -194 1 -115 84 -84 344
45 383 39 11 78 12 107 1z m556 -7 c69 -27 76 -46 79 -236 l4 -168 -61 0 -61
0 0 129 c0 71 -4 141 -9 154 -19 49 -90 47 -116 -3 -11 -21 -15 -62 -15 -155
l0 -125 -60 0 -60 0 2 203 3 202 53 3 c48 3 54 1 59 -18 3 -12 9 -17 12 -12
12 18 66 41 98 42 18 0 50 -7 72 -16z m429 -8 c52 -27 86 -88 90 -162 l4 -64
-136 0 c-88 0 -136 -4 -136 -10 0 -25 31 -68 52 -74 41 -11 59 -6 83 20 20 22
30 25 77 22 47 -3 53 -5 50 -23 -8 -53 -77 -109 -146 -119 -98 -15 -201 44
-225 129 -47 171 47 313 200 302 31 -3 70 -12 87 -21z m-2188 -127 c0 -77 5
-149 10 -160 14 -25 81 -27 101 -3 10 12 16 59 19 158 l5 141 58 3 57 3 0
-206 0 -205 -55 0 c-43 0 -55 3 -55 16 0 13 -6 12 -36 -6 -29 -18 -46 -22 -94
-18 -111 8 -130 46 -130 263 l0 155 60 0 60 0 0 -141z m-19427 -2280 c53 -24
48 -100 -9 -124 -61 -24 -119 38 -89 95 19 37 56 48 98 29z m42 -409 l0 -215
-72 -3 -73 -3 0 221 0 221 73 -3 72 -3 0 -215z"/>
<path d="M17226 12882 c-14 -46 -26 -87 -26 -93 0 -5 25 -9 55 -9 30 0 55 4
55 8 0 4 -13 46 -29 92 l-28 85 -27 -83z"/>
<path d="M24874 12706 c-97 -44 -160 -164 -172 -328 -9 -121 40 -270 110 -338
45 -43 93 -60 171 -60 100 0 167 40 219 130 34 60 48 131 48 245 0 151 -29
243 -98 312 -64 64 -185 81 -278 39z m181 -186 c24 -74 28 -185 11 -280 -13
-71 -20 -89 -43 -107 -35 -28 -43 -28 -77 -2 -46 36 -58 81 -60 219 0 114 2
129 24 175 14 28 36 55 49 62 38 18 77 -10 96 -67z"/>
<path d="M24253 12677 c-50 -23 -94 -45 -98 -49 -10 -9 18 -120 32 -125 6 -3
35 7 63 21 28 14 56 26 61 26 5 0 9 -117 9 -280 l0 -280 85 0 85 0 -2 363 -3
362 -70 2 c-63 2 -79 -2 -162 -40z"/>
<path d="M18822 12883 c-7 -3 -19 -18 -27 -34 l-16 -29 76 0 c82 0 89 7 50 45
-23 23 -53 30 -83 18z"/>
<path d="M22755 12658 c-2 -7 -6 -69 -9 -138 -7 -126 -23 -388 -30 -467 l-4
-43 68 0 67 0 7 88 c3 48 9 160 12 250 4 89 10 162 14 162 3 0 12 -30 20 -67
10 -54 81 -325 106 -405 4 -15 17 -18 64 -18 l59 0 50 158 c27 86 61 197 75
246 14 49 27 91 30 93 2 2 7 -92 11 -209 4 -117 9 -224 10 -238 2 -14 4 -33 4
-42 1 -15 11 -18 71 -18 70 0 70 0 70 28 0 15 -7 128 -15 252 -8 124 -15 260
-15 303 l0 78 -102 -3 -102 -3 -33 -105 c-18 -58 -47 -158 -65 -222 -17 -65
-34 -118 -37 -118 -3 0 -18 51 -32 113 -15 61 -42 163 -60 225 l-32 112 -99 0
c-70 0 -100 -4 -103 -12z"/>
<path d="M27490 12250 l0 -50 81 0 c96 0 119 10 119 50 0 40 -23 50 -119 50
l-81 0 0 -50z"/>
<path d="M27490 12024 l0 -66 91 4 c102 3 119 14 119 75 0 44 -21 53 -124 53
l-86 0 0 -66z"/>
<path d="M28034 12157 c-37 -32 -46 -125 -15 -174 41 -66 122 -48 149 33 38
113 -54 209 -134 141z"/>
<path d="M29164 12157 c-37 -32 -46 -125 -15 -174 41 -66 122 -48 149 33 38
113 -54 209 -134 141z"/>
<path d="M29604 12149 c-14 -16 -19 -36 -19 -85 0 -75 23 -107 75 -107 53 0
75 32 75 109 0 57 -3 68 -24 85 -31 26 -83 25 -107 -2z"/>
<path d="M30532 12173 c-7 -3 -19 -18 -27 -34 l-16 -29 76 0 c82 0 89 7 50 45
-23 23 -53 30 -83 18z"/>
<path d="M7337 16953 c-4 -3 -7 -91 -7 -195 l0 -188 565 0 565 0 0 195 0 195
-558 0 c-307 0 -562 -3 -565 -7z"/>
<path d="M7444 16387 c-2 -7 -3 -69 -2 -138 l3 -124 453 -3 452 -2 0 140 0
140 -450 0 c-362 0 -452 -3 -456 -13z"/>
<path d="M7540 15805 l0 -95 360 0 360 0 0 95 0 95 -360 0 -360 0 0 -95z"/>
<path d="M23900 15622 c0 -4 -34 -36 -75 -72 -41 -36 -92 -80 -113 -97 -37
-33 -38 -33 -144 -33 -60 0 -118 -5 -133 -12 l-25 -11 0 -136 0 -136 27 -12
c16 -8 70 -13 138 -13 l110 0 32 -35 c18 -19 35 -35 39 -35 3 0 38 -29 76 -65
46 -42 79 -65 94 -65 l24 0 0 351 c0 290 -2 353 -14 365 -16 15 -36 19 -36 6z"/>
<path d="M24215 15610 c-5 -17 8 -57 24 -70 11 -9 39 -65 60 -120 30 -80 30
-248 -1 -334 -12 -34 -26 -62 -30 -64 -4 -2 -8 -8 -8 -13 0 -5 -12 -27 -26
-49 -43 -65 -11 -98 37 -37 31 39 89 157 89 180 0 9 5 17 10 17 6 0 10 52 10
135 0 74 -3 135 -8 135 -4 0 -18 29 -30 65 -13 36 -28 65 -33 65 -5 0 -9 5 -9
11 0 19 -54 99 -67 99 -6 0 -14 -9 -18 -20z"/>
<path d="M24120 15505 c0 -9 14 -41 30 -72 52 -97 59 -245 15 -329 -8 -16 -15
-33 -15 -37 0 -5 -7 -15 -15 -23 -17 -18 -20 -50 -4 -59 41 -26 119 150 119
269 0 86 -36 199 -78 249 -19 21 -52 23 -52 2z"/>
<path d="M24027 15423 c-12 -11 -8 -37 10 -68 21 -37 25 -182 5 -194 -6 -4
-15 -21 -18 -39 -5 -25 -3 -33 11 -38 25 -10 50 27 71 105 16 61 16 68 0 129
-24 91 -54 131 -79 105z"/>
<path d="M15250 14770 l0 -570 195 0 195 0 0 570 0 570 -195 0 -195 0 0 -570z"/>
<path d="M15815 15218 c-3 -7 -4 -213 -3 -458 l3 -445 135 0 135 0 0 455 0
455 -133 3 c-100 2 -134 -1 -137 -10z"/>
<path d="M16310 14770 l0 -360 95 0 95 0 0 360 0 360 -95 0 -95 0 0 -360z"/>
<path d="M10913 13692 c-9 -6 -13 -85 -16 -302 -4 -286 -10 -360 -28 -360 -5
0 -9 -11 -9 -24 0 -13 -7 -29 -15 -36 -8 -7 -15 -21 -15 -31 0 -11 -4 -19 -10
-19 -5 0 -10 -11 -10 -24 0 -14 -4 -28 -10 -31 -5 -3 -10 -17 -10 -31 0 -13
-4 -24 -9 -24 -5 0 -12 -13 -16 -30 -4 -16 -11 -32 -16 -35 -5 -4 -9 -17 -9
-31 0 -13 -4 -24 -10 -24 -5 0 -10 -11 -10 -25 0 -14 -4 -25 -10 -25 -5 0 -10
-7 -10 -16 0 -9 -6 -28 -14 -42 -33 -65 -59 -139 -52 -151 3 -5 20 -12 36 -16
16 -4 32 -11 35 -16 4 -5 17 -9 30 -9 25 0 55 41 55 75 0 8 5 15 10 15 6 0 10
11 10 25 0 14 5 25 10 25 6 0 10 11 10 24 0 13 7 29 15 36 8 7 15 19 15 26 0
8 5 23 10 34 6 11 15 29 20 40 6 11 10 26 10 33 0 7 11 37 25 65 14 29 25 59
25 67 0 8 5 15 10 15 6 0 10 11 10 25 0 14 4 25 9 25 5 0 11 9 14 20 3 12 14
20 25 20 27 0 28 14 22 405 l-5 330 -55 3 c-30 1 -60 -1 -67 -6z"/>
<path d="M15313 13543 l-33 -4 0 -1179 c0 -648 3 -1180 8 -1182 4 -2 283 -2
620 0 l612 4 0 59 0 59 -555 0 -555 0 0 1065 0 1065 555 0 555 0 0 60 0 60
-587 -2 c-324 0 -603 -3 -620 -5z"/>
<path d="M10867 12274 c-4 -4 -7 -171 -7 -371 0 -260 -3 -363 -11 -363 -17 0
-79 -72 -79 -92 0 -10 -4 -18 -10 -18 -6 0 -10 -133 -10 -380 0 -247 4 -380
10 -380 6 0 10 -11 10 -25 0 -29 87 -125 113 -125 9 0 17 -4 17 -10 0 -13 993
-14 1018 -1 9 5 30 15 47 22 38 18 95 78 95 101 0 10 5 18 10 18 17 0 13 736
-4 784 -17 48 -59 97 -109 125 -37 21 -48 21 -485 21 -246 0 -453 4 -459 8
-10 6 -13 91 -15 348 l-3 339 -60 3 c-34 2 -64 0 -68 -4z m423 -934 l0 -180
-25 -12 c-21 -9 -28 -8 -45 7 -18 17 -20 31 -20 177 0 175 4 187 58 188 l32 0
0 -180z m355 -6 c22 -16 153 -136 251 -230 l64 -62 -81 -78 c-45 -44 -101 -98
-125 -121 -24 -24 -46 -43 -49 -43 -3 0 -22 -16 -42 -35 -20 -20 -46 -35 -59
-35 -36 0 -64 30 -64 66 0 27 12 43 65 95 36 34 65 66 65 71 0 4 -157 8 -349
8 l-348 0 -27 26 c-33 34 -33 60 0 90 l25 24 350 0 c250 0 349 3 349 11 0 6
-29 39 -65 72 -52 48 -65 67 -65 91 0 57 58 86 105 50z m-367 -402 c9 -7 12
-51 10 -188 l-3 -179 -28 -3 c-50 -6 -56 15 -57 187 0 130 3 157 17 173 17 19
40 23 61 10z"/>
<path d="M10280 12160 c0 -5 -13 -10 -30 -10 -16 0 -30 -3 -30 -8 0 -4 -15
-14 -32 -21 -52 -23 -123 -96 -147 -154 -13 -28 -27 -60 -32 -69 -12 -24 -11
-155 1 -163 6 -3 10 -14 10 -24 0 -76 135 -212 233 -235 15 -4 27 -11 27 -16
0 -6 32 -10 74 -10 56 0 75 4 80 15 3 8 14 15 25 15 43 0 122 55 181 127 21
26 50 85 50 103 0 10 5 22 10 25 13 8 13 139 1 163 -5 9 -19 40 -31 67 -36 81
-160 185 -221 185 -10 0 -19 5 -19 10 0 6 -32 10 -75 10 -43 0 -75 -4 -75 -10z
m154 -79 c3 -4 18 -11 33 -14 42 -8 108 -71 137 -129 43 -86 32 -225 -23 -291
-42 -50 -51 -57 -111 -87 -11 -5 -29 -14 -40 -20 -25 -13 -124 -13 -148 -1 -9
5 -32 15 -49 21 -18 7 -33 16 -33 21 0 5 -5 9 -10 9 -14 0 -60 46 -60 60 0 5
-3 10 -8 10 -10 0 -28 44 -43 103 -14 57 1 145 32 189 11 14 19 29 19 33 0 14
55 55 105 80 39 19 67 24 122 25 39 0 74 -4 77 -9z"/>
<path d="M10305 11908 c-36 -21 -48 -39 -52 -81 -5 -51 12 -84 52 -108 38 -22
54 -23 94 -3 102 51 66 205 -47 204 -15 0 -36 -6 -47 -12z"/>
<path d="M5000 11395 l0 -565 195 0 195 0 0 565 0 565 -195 0 -195 0 0 -565z"/>
<path d="M5562 11398 l3 -453 135 0 135 0 0 450 0 450 -138 3 -137 3 2 -453z"/>
<path d="M6060 11400 l0 -360 95 0 95 0 0 360 0 360 -95 0 -95 0 0 -360z"/>
<path d="M15250 10185 l0 -565 195 0 195 0 0 565 0 565 -195 0 -195 0 0 -565z"/>
<path d="M15812 10188 l3 -453 135 0 135 0 3 453 2 452 -140 0 -140 0 2 -452z"/>
<path d="M16310 10190 l0 -360 95 0 95 0 0 360 0 360 -95 0 -95 0 0 -360z"/>
<path d="M23889 9982 c-9 -9 -40 -37 -70 -62 -29 -25 -73 -63 -97 -84 l-43
-39 -112 1 c-158 3 -157 4 -157 -167 0 -119 2 -131 19 -141 11 -5 70 -10 132
-10 l112 0 51 -45 c28 -25 67 -60 86 -79 49 -46 117 -89 129 -81 16 9 15 697
-1 713 -16 16 -29 14 -49 -6z"/>
<path d="M24215 9980 c-5 -14 4 -37 28 -73 58 -87 77 -155 77 -278 0 -122 -17
-184 -75 -274 -35 -56 -40 -85 -12 -85 7 0 23 10 35 23 23 25 77 129 87 170 4
15 11 30 16 33 13 7 12 274 -1 274 -5 0 -10 6 -10 13 -1 6 -9 30 -20 52 -11
22 -19 46 -20 53 0 6 -4 12 -10 12 -5 0 -10 6 -10 13 0 19 -52 86 -67 87 -6 0
-15 -9 -18 -20z"/>
<path d="M24120 9884 c0 -9 7 -28 15 -42 8 -15 24 -49 36 -77 42 -96 22 -275
-38 -346 -17 -21 -17 -48 2 -55 10 -4 24 5 38 22 104 132 101 361 -6 497 -18
21 -47 22 -47 1z"/>
<path d="M24024 9796 c-3 -8 4 -44 17 -80 24 -74 22 -147 -6 -190 -20 -29 -16
-70 5 -74 21 -4 55 58 70 130 11 49 11 65 -4 118 -23 82 -67 134 -82 96z"/>
<path d="M5982 6898 l3 -563 193 -3 192 -2 0 565 0 565 -195 0 -195 0 2 -562z"/>
<path d="M8170 7450 c0 -5 -5 -10 -11 -10 -10 0 -88 -50 -116 -75 -35 -29 -43
-35 -51 -35 -4 0 -17 -8 -28 -18 -10 -10 -50 -40 -89 -67 -38 -27 -79 -58 -89
-67 -11 -10 -24 -18 -28 -18 -5 0 -21 -11 -36 -25 -15 -14 -32 -25 -39 -25 -7
0 -13 -4 -13 -8 0 -4 -12 -15 -27 -24 -16 -9 -38 -25 -50 -35 -12 -10 -38 -29
-58 -43 -19 -14 -40 -37 -47 -52 -7 -16 -19 -28 -25 -28 -9 0 -13 -16 -13 -45
0 -33 4 -45 15 -45 8 0 15 -7 15 -16 0 -15 67 -83 82 -84 4 0 18 -11 32 -25
14 -14 29 -25 33 -25 4 0 21 -11 37 -25 16 -14 32 -25 35 -25 3 0 22 -14 41
-30 19 -16 40 -30 47 -30 6 0 13 -3 15 -8 2 -4 35 -30 73 -57 39 -27 76 -55
82 -61 7 -7 29 -22 50 -35 21 -13 40 -26 43 -29 11 -13 99 -70 109 -70 6 0 11
-4 11 -10 0 -5 20 -10 45 -10 25 0 45 5 45 10 0 6 6 10 13 10 7 0 19 10 27 21
8 12 21 27 28 35 9 10 12 124 12 504 0 378 -3 494 -12 506 -57 71 -75 84 -117
84 -22 0 -41 -4 -41 -10z m10 -575 c0 -217 -3 -395 -6 -395 -12 0 -94 55 -94
63 0 4 -6 7 -14 7 -8 0 -16 4 -18 8 -3 7 -142 110 -186 137 -21 13 -33 22 -61
45 -13 11 -27 20 -31 20 -4 0 -16 8 -27 18 -11 9 -35 28 -53 42 -80 61 -77 54
-39 80 19 14 36 28 37 32 2 4 9 8 16 8 6 0 18 9 26 20 8 11 19 20 25 20 5 0
21 9 35 20 58 46 204 150 211 150 5 0 19 11 33 25 14 14 29 25 35 25 5 0 11 3
13 8 4 9 81 62 90 62 5 0 8 -178 8 -395z"/>
<path d="M5540 6895 l0 -456 138 3 137 3 0 450 0 450 -137 3 -138 3 0 -456z"/>
<path d="M5130 6900 l0 -360 95 0 95 0 0 360 0 360 -95 0 -95 0 0 -360z"/>
<path d="M7015 7053 c-15 -36 -36 -50 -94 -59 -38 -6 -41 -9 -41 -40 l0 -33
63 -3 62 -3 3 -182 2 -183 50 0 50 0 0 268 0 267 -41 0 c-36 0 -42 -3 -54 -32z"/>
<path d="M10295 7071 c-97 -44 -139 -127 -139 -273 0 -76 3 -93 30 -144 40
-80 99 -117 194 -122 81 -5 129 9 177 51 36 32 72 96 73 130 0 14 -9 17 -54
17 -50 0 -54 -2 -66 -30 -31 -76 -121 -95 -185 -39 -42 37 -59 91 -53 169 8
105 55 163 133 163 49 0 89 -24 105 -63 12 -28 16 -30 66 -30 51 0 54 1 54 25
0 54 -55 122 -122 149 -52 22 -162 20 -213 -3z"/>
<path d="M11880 7040 l0 -50 55 0 55 0 0 50 0 50 -55 0 -55 0 0 -50z"/>
<path d="M15380 7040 l0 -50 55 0 55 0 0 50 0 50 -55 0 -55 0 0 -50z"/>
<path d="M8550 6811 l0 -271 55 0 55 0 0 105 0 105 83 0 c102 0 117 -11 117
-86 0 -27 3 -66 6 -86 l7 -38 64 0 c58 0 64 2 57 18 -4 9 -11 57 -14 107 -7
79 -11 91 -34 112 l-27 23 32 28 c27 24 33 37 37 84 5 61 -9 97 -53 138 -26
24 -30 25 -206 28 l-179 3 0 -270z m290 166 c32 -16 47 -58 32 -91 -14 -31
-71 -48 -150 -44 l-57 3 -3 73 -3 72 78 0 c43 0 89 -6 103 -13z"/>
<path d="M11680 6995 c0 -47 -3 -85 -7 -85 -3 0 -15 8 -25 17 -11 10 -41 18
-76 21 -47 3 -63 0 -91 -20 -51 -34 -70 -66 -83 -135 -20 -110 17 -209 93
-248 44 -23 110 -19 153 10 34 23 36 23 36 5 0 -17 7 -20 50 -20 l50 0 0 270
0 270 -50 0 -50 0 0 -85z m-57 -147 c12 -6 27 -18 34 -27 19 -26 26 -96 13
-135 -31 -96 -146 -83 -165 18 -20 104 45 183 118 144z"/>
<path d="M12960 6810 l0 -270 55 0 55 0 0 270 0 270 -55 0 -55 0 0 -270z"/>
<path d="M13390 6810 l0 -270 190 0 190 0 0 50 0 50 -135 0 -135 0 0 220 0
220 -55 0 -55 0 0 -270z"/>
<path d="M15036 6949 c-90 -22 -140 -97 -140 -209 1 -95 46 -172 117 -199 66
-25 181 -7 231 37 73 65 75 243 3 320 -46 49 -133 71 -211 51z m128 -121 c26
-29 28 -35 24 -96 -4 -56 -8 -68 -32 -88 -34 -30 -88 -32 -115 -5 -39 39 -48
128 -19 184 12 24 67 48 93 41 11 -3 33 -19 49 -36z"/>
<path d="M9593 6925 c-58 -35 -83 -90 -83 -185 0 -100 23 -148 89 -184 88 -47
187 -32 249 38 47 54 43 66 -21 66 -41 0 -58 -5 -72 -20 -40 -44 -120 -16
-140 48 l-6 22 140 0 c160 0 149 -7 131 90 -12 63 -50 117 -96 136 -55 23
-142 18 -191 -11z m136 -70 c28 -14 41 -33 41 -61 0 -11 -17 -14 -75 -14 -86
0 -95 11 -46 61 34 33 41 35 80 14z"/>
<path d="M10771 6932 c-39 -19 -66 -54 -75 -94 -6 -28 -6 -28 48 -28 45 0 54
3 59 20 12 45 95 50 121 7 15 -25 -12 -44 -77 -52 -115 -14 -156 -44 -164
-118 -6 -55 16 -101 59 -123 41 -21 119 -14 158 14 28 21 29 21 35 2 5 -17 15
-20 66 -20 32 0 59 2 59 4 0 2 -7 17 -15 32 -11 22 -15 64 -15 165 0 122 -2
139 -20 162 -37 47 -172 64 -239 29z m159 -227 c0 -55 -39 -95 -93 -95 -45 0
-64 52 -29 83 14 12 68 29 115 36 4 1 7 -10 7 -24z"/>
<path d="M11285 6938 c-11 -6 -28 -20 -37 -32 l-18 -21 0 28 c0 26 -2 27 -50
27 l-50 0 0 -200 0 -200 50 0 50 0 0 109 c0 153 18 191 91 191 l39 0 0 55 c0
53 -1 55 -27 55 -16 0 -37 -6 -48 -12z"/>
<path d="M12226 6925 c-34 -23 -36 -23 -36 -5 0 17 -7 20 -50 20 l-50 0 0
-200 0 -200 50 0 50 0 0 109 c0 128 6 163 32 190 24 27 79 28 101 3 14 -15 17
-42 17 -160 l0 -142 55 0 55 0 0 160 c0 178 -8 208 -60 235 -46 24 -121 19
-164 -10z"/>
<path d="M12611 6932 c-39 -19 -66 -54 -75 -94 -6 -28 -6 -28 48 -28 45 0 54
3 59 20 12 45 95 50 121 7 15 -25 -12 -44 -77 -52 -115 -14 -156 -44 -164
-118 -6 -55 16 -101 59 -123 41 -21 119 -14 158 14 28 21 29 21 35 2 5 -17 15
-20 66 -20 32 0 59 2 59 4 0 2 -7 17 -15 32 -11 22 -15 64 -15 165 0 122 -2
139 -20 162 -37 47 -172 64 -239 29z m159 -227 c0 -55 -39 -95 -93 -95 -45 0
-64 52 -29 83 14 12 68 29 115 36 4 1 7 -10 7 -24z"/>
<path d="M13893 6925 c-58 -35 -83 -90 -83 -185 0 -100 23 -148 89 -184 88
-47 187 -32 249 38 47 54 43 66 -21 66 -41 0 -58 -5 -72 -20 -40 -44 -120 -16
-140 48 l-6 22 140 0 c160 0 149 -7 131 90 -12 63 -50 117 -96 136 -55 23
-142 18 -191 -11z m136 -70 c28 -14 41 -33 41 -61 0 -11 -17 -14 -75 -14 -86
0 -95 11 -46 61 34 33 41 35 80 14z"/>
<path d="M14391 6924 c-30 -25 -31 -25 -31 -5 0 19 -6 21 -50 21 l-50 0 0
-200 0 -200 50 0 50 0 0 131 c0 159 11 189 72 189 49 0 58 -28 58 -182 l0
-138 55 0 55 0 0 140 c0 127 2 142 20 160 25 25 62 26 83 2 14 -15 17 -42 17
-160 l0 -142 55 0 55 0 0 155 c0 175 -9 214 -59 239 -42 22 -109 20 -148 -4
-18 -11 -33 -25 -33 -32 0 -7 -8 -3 -18 8 -42 52 -130 61 -181 18z"/>
<path d="M15726 6925 c-34 -23 -36 -23 -36 -5 0 17 -7 20 -50 20 l-50 0 0
-200 0 -200 50 0 50 0 0 109 c0 128 6 163 32 190 24 27 79 28 101 3 14 -15 17
-42 17 -160 l0 -142 55 0 55 0 0 160 c0 178 -8 208 -60 235 -46 24 -121 19
-164 -10z"/>
<path d="M16103 6925 c-58 -35 -83 -90 -83 -185 0 -100 23 -148 89 -184 88
-47 187 -32 249 38 47 54 43 66 -21 66 -41 0 -58 -5 -72 -20 -40 -44 -120 -16
-140 48 l-6 22 140 0 c160 0 149 -7 131 90 -12 63 -50 117 -96 136 -55 23
-142 18 -191 -11z m136 -70 c28 -14 41 -33 41 -61 0 -11 -17 -14 -75 -14 -86
0 -95 11 -46 61 34 33 41 35 80 14z"/>
<path d="M9090 6779 c0 -146 2 -165 21 -195 35 -58 144 -69 204 -22 l25 19 0
-20 c0 -19 6 -21 55 -21 l55 0 0 200 0 200 -55 0 -55 0 0 -125 c0 -134 -8
-166 -47 -184 -36 -16 -58 -14 -79 10 -16 18 -19 40 -22 160 l-4 139 -49 0
-49 0 0 -161z"/>
<path d="M11880 6740 l0 -200 55 0 55 0 0 200 0 200 -55 0 -55 0 0 -200z"/>
<path d="M15380 6740 l0 -200 55 0 55 0 0 200 0 200 -55 0 -55 0 0 -200z"/>
</g>
</svg>
