<?xml version="1.0" standalone="no"?>
<!DOCTYPE svg PUBLIC "-//W3C//DTD SVG 20010904//EN"
 "http://www.w3.org/TR/2001/REC-SVG-20010904/DTD/svg10.dtd">
<svg version="1.0" xmlns="http://www.w3.org/2000/svg"
 width="3507.000000pt" height="2480.000000pt" viewBox="0 0 3507.000000 2480.000000"
 preserveAspectRatio="xMidYMid meet">
<metadata>
Created by potrace 1.11, written by Peter Selinger 2001-2013
</metadata>
<g transform="translate(0.000000,2480.000000) scale(0.100000,-0.100000)"
fill="#000000" stroke="none">
<path d="M590 23325 l0 -885 5315 0 5315 0 0 885 0 885 -5315 0 -5315 0 0
-885z m755 210 c33 -21 57 -47 79 -85 28 -50 31 -63 31 -145 0 -72 -5 -100
-23 -139 l-22 -49 27 -29 27 -28 -32 -32 -32 -32 -28 27 -29 27 -62 -16 c-182
-46 -321 69 -321 266 0 119 44 200 132 245 46 23 63 26 129 23 63 -2 83 -8
124 -33z m2941 20 c54 -16 115 -70 133 -118 20 -52 16 -57 -46 -57 -55 0 -59
2 -73 33 -11 23 -27 36 -56 46 -37 13 -44 12 -80 -5 -53 -26 -74 -70 -74 -157
0 -115 38 -167 120 -167 33 0 48 6 71 29 16 16 29 37 29 45 0 13 12 16 61 16
l61 0 -7 -27 c-31 -127 -158 -197 -288 -159 -110 32 -158 100 -165 236 -2 47
1 103 7 126 36 135 165 201 307 159z m-1286 -45 l0 -50 -55 0 -55 0 0 50 0 50
55 0 55 0 0 -50z m2540 -210 l0 -260 -50 0 c-37 0 -50 4 -50 15 0 11 -7 10
-35 -7 -49 -28 -134 -22 -171 13 -87 81 -87 258 0 338 35 32 133 42 171 17
l25 -16 0 73 c0 41 3 77 7 80 3 4 28 7 55 7 l48 0 0 -260z m200 210 l0 -50
-55 0 -55 0 0 50 0 50 55 0 55 0 0 -50z m1040 -210 l0 -260 -55 0 -55 0 0 253
c0 140 3 257 7 260 3 4 28 7 55 7 l48 0 0 -260z m428 48 l2 -208 125 0 125 0
0 -50 0 -50 -185 0 -185 0 0 260 0 261 58 -3 57 -3 3 -207z m1892 162 l0 -50
-55 0 -55 0 0 50 0 50 55 0 55 0 0 -50z m1450 -15 l0 -45 -104 0 -104 0 -4
-42 c-3 -24 -4 -44 -3 -46 1 -1 15 2 31 9 65 24 162 -20 190 -87 21 -49 17
-113 -8 -164 -48 -95 -149 -121 -261 -69 -30 13 -61 58 -71 102 -6 27 -6 27
49 27 50 0 56 -2 65 -25 19 -50 96 -49 119 1 37 82 -34 164 -100 115 -28 -21
-83 -27 -107 -13 -10 7 -9 35 4 145 l17 137 144 0 143 0 0 -45z m-7780 -20 c0
-54 0 -55 30 -55 28 0 30 -2 30 -40 0 -38 -2 -40 -30 -40 l-31 0 3 -107 3
-108 28 -3 c25 -3 27 -7 27 -49 l0 -45 -60 4 c-45 3 -66 10 -83 26 -20 21 -22
32 -22 152 l0 130 -27 0 c-26 0 -28 3 -28 40 0 36 3 40 25 40 23 0 25 3 25 48
0 27 3 52 7 55 3 4 28 7 55 7 l48 0 0 -55z m8013 4 c46 -12 77 -57 77 -111 l0
-38 -79 0 c-44 0 -82 -4 -86 -10 -7 -12 30 -50 49 -50 7 0 19 7 26 15 16 20
90 21 90 1 0 -8 -16 -28 -35 -45 -41 -35 -96 -42 -145 -16 -45 23 -60 53 -60
118 0 63 11 93 44 117 44 32 63 35 119 19z m-7435 -67 c54 -24 92 -96 92 -173
l0 -39 -131 0 -130 0 7 -22 c12 -40 35 -58 75 -58 28 0 42 6 51 20 10 16 24
20 65 20 46 0 53 -3 53 -19 0 -25 -44 -77 -81 -96 -16 -9 -55 -15 -90 -15
-115 0 -177 59 -187 176 -14 174 123 276 276 206z m4420 0 c54 -24 92 -96 92
-173 l0 -39 -131 0 -130 0 7 -22 c12 -40 35 -58 75 -58 28 0 42 6 51 20 10 16
24 20 65 20 46 0 53 -3 53 -19 0 -25 -44 -77 -81 -96 -16 -9 -55 -15 -90 -15
-115 0 -177 59 -187 176 -14 174 123 276 276 206z m1073 -7 c101 -66 106 -276
9 -345 -67 -47 -199 -43 -253 8 -70 65 -87 178 -42 269 28 55 52 75 106 92 51
16 138 4 180 -24z m1047 7 c54 -24 92 -96 92 -173 l0 -39 -131 0 -130 0 7 -22
c12 -40 35 -58 75 -58 28 0 42 6 51 20 10 16 24 20 65 20 46 0 53 -3 53 -19 0
-25 -44 -77 -81 -96 -16 -9 -55 -15 -90 -15 -115 0 -177 59 -187 176 -14 174
123 276 276 206z m-8250 -122 c2 -107 6 -138 19 -152 21 -23 55 -23 84 1 23
18 24 27 29 153 l5 133 29 3 c15 2 39 1 52 -2 l24 -6 0 -190 0 -190 -55 0
c-42 0 -55 4 -55 15 0 12 -6 11 -32 -5 -66 -40 -162 -18 -191 43 -14 28 -17
65 -17 179 0 80 3 148 7 152 4 4 28 6 53 4 l45 -3 3 -135z m586 125 c57 -24
66 -54 66 -209 0 -79 4 -137 10 -141 25 -15 5 -25 -49 -25 -43 0 -60 4 -65 15
-5 13 -10 12 -38 -5 -59 -36 -161 -20 -188 29 -16 30 -12 114 6 140 21 29 64
47 136 56 60 8 84 24 74 50 -4 10 -19 15 -51 15 -39 0 -47 -3 -55 -25 -8 -22
-15 -25 -61 -25 l-52 0 6 36 c7 39 38 81 72 94 34 14 150 11 189 -5z m244 -13
l3 -23 30 26 c20 16 43 25 65 25 l34 0 0 -55 0 -55 -37 0 c-71 0 -83 -25 -83
-169 l0 -111 -55 0 -55 0 0 188 c0 104 3 192 7 196 4 4 25 6 48 4 33 -2 41 -7
43 -26z m530 -169 l2 -193 -55 0 -55 0 0 188 c0 104 3 192 7 196 4 4 28 6 53
4 l45 -3 3 -192z m600 169 l3 -23 30 26 c20 16 43 25 65 25 l34 0 0 -55 0 -55
-37 0 c-71 0 -83 -25 -83 -169 l0 -111 -55 0 -55 0 0 188 c0 104 3 192 7 196
4 4 25 6 48 4 33 -2 41 -7 43 -26z m1156 13 c57 -24 66 -54 66 -209 0 -79 4
-137 10 -141 25 -15 5 -25 -49 -25 -43 0 -60 4 -65 15 -5 13 -10 12 -38 -5
-59 -36 -161 -20 -188 29 -16 30 -12 114 6 140 21 29 64 47 136 56 60 8 84 24
74 50 -4 10 -19 15 -51 15 -39 0 -47 -3 -55 -25 -8 -22 -15 -25 -61 -25 l-52
0 6 36 c7 39 38 81 72 94 34 14 150 11 189 -5z m244 -13 l3 -23 30 26 c20 16
43 25 65 25 l34 0 0 -55 0 -55 -37 0 c-71 0 -83 -25 -83 -169 l0 -111 -55 0
-55 0 0 188 c0 104 3 192 7 196 4 4 25 6 48 4 33 -2 41 -7 43 -26z m740 -169
l2 -193 -55 0 -55 0 0 188 c0 104 3 192 7 196 4 4 28 6 53 4 l45 -3 3 -192z
m413 159 l29 -32 0 -160 0 -160 -55 0 -55 0 0 134 c0 109 -3 138 -16 150 -24
25 -69 20 -93 -10 -19 -24 -21 -40 -21 -150 l0 -124 -55 0 -55 0 0 190 0 190
55 0 c43 0 55 -3 55 -16 0 -13 5 -11 28 6 23 19 37 21 91 18 57 -4 67 -8 92
-36z m373 23 c57 -24 66 -54 66 -209 0 -79 4 -137 10 -141 25 -15 5 -25 -49
-25 -43 0 -60 4 -65 15 -5 13 -10 12 -38 -5 -59 -36 -161 -20 -188 29 -16 30
-12 114 6 140 21 29 64 47 136 56 60 8 84 24 74 50 -4 10 -19 15 -51 15 -39 0
-47 -3 -55 -25 -8 -22 -15 -25 -61 -25 l-52 0 6 36 c7 39 38 81 72 94 34 14
150 11 189 -5z m1683 -9 l28 -24 28 24 c34 29 119 34 155 8 45 -31 52 -63 52
-224 l0 -150 -55 0 -55 0 0 132 c0 108 -3 135 -17 150 -21 24 -48 23 -73 -2
-18 -18 -20 -33 -20 -150 l0 -130 -55 0 -55 0 0 132 c0 108 -3 135 -17 150
-20 22 -42 23 -71 2 -21 -14 -22 -22 -22 -150 l0 -134 -55 0 -55 0 0 190 0
190 55 0 c46 0 55 -3 55 -17 0 -11 3 -14 8 -7 27 41 126 47 169 10z m891 -173
l2 -193 -55 0 -55 0 0 188 c0 104 3 192 7 196 4 4 28 6 53 4 l45 -3 3 -192z
m423 159 l29 -32 0 -160 0 -160 -55 0 -55 0 0 134 c0 109 -3 138 -16 150 -24
25 -69 20 -93 -10 -19 -24 -21 -40 -21 -150 l0 -124 -55 0 -55 0 0 190 0 190
55 0 c43 0 55 -3 55 -16 0 -13 5 -11 28 6 23 19 37 21 91 18 57 -4 67 -8 92
-36z"/>
<path d="M1135 23448 c-38 -30 -55 -76 -55 -150 0 -102 51 -172 125 -172 46 0
55 12 25 34 l-25 19 32 33 32 32 25 -23 25 -24 11 27 c14 39 12 131 -4 170
-21 50 -60 76 -116 76 -33 0 -55 -6 -75 -22z"/>
<path d="M5315 23317 c-28 -24 -43 -85 -31 -132 15 -59 84 -86 120 -46 59 65
28 201 -46 201 -9 0 -29 -10 -43 -23z"/>
<path d="M10712 23408 c-21 -21 -13 -28 28 -28 22 0 40 4 40 8 0 14 -23 32
-40 32 -9 0 -21 -5 -28 -12z"/>
<path d="M3207 23322 c-10 -10 -17 -26 -17 -35 0 -14 11 -17 65 -17 57 0 65 2
65 18 0 46 -81 70 -113 34z"/>
<path d="M7627 23322 c-10 -10 -17 -26 -17 -35 0 -14 11 -17 65 -17 57 0 65 2
65 18 0 46 -81 70 -113 34z"/>
<path d="M8682 23333 c-52 -21 -54 -175 -2 -203 21 -11 61 -13 85 -4 58 23 58
185 0 208 -19 7 -64 7 -83 -1z"/>
<path d="M9747 23322 c-10 -10 -17 -26 -17 -35 0 -14 11 -17 65 -17 57 0 65 2
65 18 0 46 -81 70 -113 34z"/>
<path d="M2112 23200 c-44 -10 -54 -22 -50 -56 7 -64 118 -26 118 41 0 27 -9
29 -68 15z"/>
<path d="M4642 23200 c-44 -10 -54 -22 -50 -56 7 -64 118 -26 118 41 0 27 -9
29 -68 15z"/>
<path d="M6412 23200 c-44 -10 -54 -22 -50 -56 7 -64 118 -26 118 41 0 27 -9
29 -68 15z"/>
<path d="M30609 24126 c-3 -4 -39 -16 -80 -27 -195 -54 -327 -188 -386 -394
-61 -212 61 -484 265 -593 69 -37 195 -72 257 -72 62 0 188 35 258 72 80 43
174 137 215 215 37 70 72 196 72 258 0 62 -35 188 -72 257 -65 123 -190 218
-343 261 -72 21 -176 33 -186 23z m186 -71 c233 -61 391 -301 355 -539 -31
-211 -205 -385 -416 -416 -243 -37 -488 130 -543 370 -13 57 -13 172 -1 228
39 169 177 310 350 358 63 18 185 17 255 -1z"/>
<path d="M30960 23730 c-19 -5 -45 -20 -57 -35 -46 -53 -19 -120 63 -151 59
-23 75 -51 43 -77 -22 -18 -59 -18 -104 -1 -15 6 -33 -41 -21 -53 4 -4 33 -9
66 -11 72 -5 116 10 135 49 33 63 11 108 -71 144 -30 13 -57 32 -61 41 -10 26
25 46 77 42 37 -2 45 0 48 16 2 10 0 22 -5 26 -14 14 -76 19 -113 10z"/>
<path d="M30250 23565 l0 -165 74 0 c91 0 132 14 151 51 22 42 18 67 -14 100
l-30 29 25 25 c32 32 30 60 -5 96 -28 28 -34 29 -115 29 l-86 0 0 -165z m148
103 c30 -30 1 -68 -52 -68 -24 0 -26 4 -26 40 0 39 1 40 33 40 18 0 38 -5 45
-12z m2 -138 c11 -11 20 -25 20 -32 0 -24 -34 -48 -67 -48 l-33 0 0 50 c0 49
1 50 30 50 17 0 39 -9 50 -20z"/>
<path d="M30552 23595 c3 -129 4 -136 29 -160 49 -49 145 -51 195 -4 30 29 46
104 42 210 l-3 84 -37 3 -38 3 0 -124 c0 -136 -8 -157 -63 -157 -46 0 -57 31
-57 162 l0 118 -36 0 -36 0 4 -135z"/>
<path d="M32805 23813 c-11 -2 -30 -6 -42 -9 -36 -7 -92 -62 -102 -100 -12
-44 1 -89 36 -126 l27 -28 -35 -29 c-22 -18 -40 -45 -48 -71 -11 -38 -10 -46
11 -88 35 -70 89 -95 193 -90 124 6 186 56 187 151 1 40 -24 107 -40 107 -4 0
-16 7 -26 15 -19 15 -19 16 7 43 65 68 49 165 -33 207 -28 14 -104 24 -135 18z
m77 -100 c10 -9 18 -26 18 -38 0 -26 -36 -75 -55 -75 -23 0 -75 51 -75 73 0
50 72 76 112 40z m17 -254 c21 -38 7 -76 -34 -96 -31 -15 -36 -15 -60 1 -54
35 -55 109 -2 134 29 13 78 -7 96 -39z"/>
<path d="M33232 23808 c-89 -19 -164 -128 -147 -211 9 -42 43 -91 76 -111 42
-25 109 -31 152 -13 40 17 46 10 21 -29 -29 -44 -73 -67 -138 -73 l-61 -6 -3
-47 -3 -48 60 0 c72 0 159 30 205 71 18 16 46 57 62 91 24 53 28 76 29 148 0
69 -5 94 -24 133 -38 78 -131 117 -229 95z m95 -100 c18 -15 35 -83 27 -113
-7 -30 -31 -45 -72 -45 -52 0 -83 61 -63 123 17 51 68 67 108 35z"/>
<path d="M31608 23793 c-17 -21 -54 -81 -132 -216 -46 -79 -57 -105 -54 -135
l3 -37 112 -3 112 -3 3 -62 3 -62 58 -3 57 -3 0 66 0 65 30 0 c29 0 30 1 30
50 0 49 -1 50 -30 50 l-30 0 0 155 0 155 -73 0 c-58 0 -77 -4 -89 -17z m44
-195 l-4 -98 -55 0 -55 0 25 43 c13 23 39 68 57 100 18 32 33 57 34 55 1 -2 0
-47 -2 -100z"/>
<path d="M31897 23803 c-4 -3 -7 -26 -7 -50 l0 -43 120 0 c66 0 120 -2 120 -5
0 -3 -47 -100 -105 -215 -58 -115 -105 -212 -105 -215 0 -3 28 -5 63 -5 l63 0
109 222 c78 160 110 236 113 270 l5 48 -185 0 c-102 0 -188 -3 -191 -7z"/>
<path d="M19135 23213 c-32 -47 -31 -53 3 -53 20 0 41 13 72 45 l44 45 -47 0
c-42 0 -48 -3 -72 -37z"/>
<path d="M16760 23020 l0 -210 40 0 40 0 0 210 0 210 -40 0 -40 0 0 -210z"/>
<path d="M17420 23020 l0 -210 40 0 40 0 0 75 0 75 58 0 c113 0 167 32 178
107 9 64 -10 119 -49 143 -27 17 -51 20 -149 20 l-118 0 0 -210z m208 124 c26
-18 29 -60 5 -86 -12 -13 -31 -18 -75 -18 l-58 0 0 53 c0 30 3 57 7 60 13 13
99 7 121 -9z"/>
<path d="M18670 23020 l0 -210 40 0 40 0 0 105 c0 92 3 108 20 125 11 11 31
20 44 20 41 0 50 -24 54 -141 l4 -109 40 0 40 0 -4 136 c-3 135 -3 136 -31
160 -33 28 -92 32 -137 9 l-30 -16 0 66 0 65 -40 0 -40 0 0 -210z"/>
<path d="M18490 23165 c0 -38 -3 -45 -20 -45 -16 0 -20 -7 -20 -30 0 -23 4
-30 20 -30 19 0 20 -7 20 -109 0 -130 6 -141 81 -141 48 0 49 1 49 29 0 23 -5
30 -22 33 -22 3 -23 8 -26 96 l-3 92 26 0 c21 0 25 5 25 30 0 25 -4 30 -25 30
-23 0 -25 4 -25 45 l0 45 -40 0 -40 0 0 -45z"/>
<path d="M15780 23123 c-57 -21 -101 -119 -86 -194 16 -88 90 -138 180 -125
49 8 106 53 106 84 0 23 -73 21 -98 -2 -25 -22 -58 -20 -82 4 -42 42 -29 50
85 50 l105 0 0 37 c0 54 -35 118 -74 137 -33 15 -105 20 -136 9z m102 -80 c34
-31 23 -43 -42 -43 -33 0 -60 3 -60 8 0 4 7 18 16 30 18 26 60 29 86 5z"/>
<path d="M16156 23109 c-21 -17 -26 -18 -26 -5 0 12 -10 16 -40 16 l-40 0 0
-155 0 -155 40 0 40 0 0 95 c0 88 2 98 25 120 13 14 36 25 50 25 23 0 25 4 25
40 0 35 -3 40 -24 40 -13 0 -35 -9 -50 -21z"/>
<path d="M16308 23114 c-35 -18 -48 -43 -48 -88 0 -43 28 -72 85 -87 89 -23
106 -31 103 -47 -5 -27 -82 -29 -105 -3 -23 28 -93 30 -93 3 0 -88 183 -127
255 -54 22 21 25 33 23 71 -3 38 -8 49 -34 66 -17 12 -57 27 -88 34 -61 14
-74 24 -56 46 18 21 57 18 80 -5 25 -25 90 -28 90 -4 0 26 -19 53 -50 69 -37
19 -127 19 -162 -1z"/>
<path d="M16980 23123 c-57 -21 -101 -119 -86 -194 16 -88 90 -138 180 -125
49 8 106 53 106 84 0 23 -73 21 -98 -2 -25 -22 -58 -20 -82 4 -42 42 -29 50
85 50 l105 0 0 37 c0 54 -35 118 -74 137 -33 15 -105 20 -136 9z m102 -80 c34
-31 23 -43 -42 -43 -33 0 -60 3 -60 8 0 4 7 18 16 30 18 26 60 29 86 5z"/>
<path d="M17838 23115 c-31 -17 -48 -44 -48 -74 0 -18 6 -21 40 -21 27 0 40 4
40 13 0 19 40 35 70 27 16 -4 25 -13 25 -25 0 -20 -19 -28 -99 -40 -54 -9 -86
-44 -86 -94 0 -53 7 -69 41 -86 37 -20 67 -19 111 4 30 15 38 16 42 5 3 -9 22
-14 51 -14 42 0 58 11 35 25 -6 4 -10 56 -10 124 0 113 -1 118 -25 141 -21 20
-39 25 -93 27 -46 2 -75 -1 -94 -12z m122 -215 c-24 -45 -100 -45 -100 -1 0
25 19 39 66 49 33 7 39 6 42 -9 2 -10 -2 -27 -8 -39z"/>
<path d="M18226 23109 c-21 -17 -26 -18 -26 -5 0 12 -10 16 -40 16 l-40 0 0
-155 0 -155 40 0 40 0 0 105 c0 93 2 107 21 126 27 27 70 22 86 -11 8 -15 13
-64 13 -122 l0 -98 40 0 40 0 0 131 0 131 -29 29 c-37 37 -104 41 -145 8z"/>
<path d="M19090 23123 c-57 -21 -101 -119 -86 -194 16 -88 90 -138 180 -125
49 8 106 53 106 84 0 23 -73 21 -98 -2 -25 -22 -58 -20 -82 4 -42 42 -29 50
85 50 l105 0 0 37 c0 54 -35 118 -74 137 -33 15 -105 20 -136 9z m102 -80 c34
-31 23 -43 -42 -43 -33 0 -60 3 -60 8 0 4 7 18 16 30 18 26 60 29 86 5z"/>
<path d="M19391 23104 c-42 -35 -61 -79 -61 -141 0 -56 24 -108 62 -136 40
-29 115 -34 170 -9 95 42 115 189 39 275 -27 29 -34 32 -103 35 -69 4 -76 2
-107 -24z m149 -71 c18 -23 21 -37 17 -77 -7 -79 -69 -113 -114 -63 -27 30
-35 66 -22 110 17 62 81 78 119 30z"/>
<path d="M19816 23109 c-21 -17 -26 -18 -26 -5 0 12 -10 16 -40 16 l-40 0 0
-155 0 -155 40 0 40 0 0 105 c0 93 2 107 21 126 27 27 70 22 86 -11 8 -15 13
-64 13 -122 l0 -98 40 0 40 0 0 131 0 131 -29 29 c-37 37 -104 41 -145 8z"/>
<path d="M15371 23113 c0 -4 24 -73 53 -153 l52 -145 45 -3 45 -3 56 156 55
155 -46 0 -46 0 -29 -105 c-16 -58 -31 -104 -33 -101 -2 2 -16 48 -32 102
l-28 99 -46 3 c-26 2 -47 -1 -46 -5z"/>
<path d="M30561 22819 l-22 -29 24 0 c13 0 29 6 35 12 10 10 15 10 21 0 5 -8
18 -12 31 -10 22 3 22 3 3 27 -29 36 -66 36 -92 0z"/>
<path d="M31018 22825 c-39 -22 -58 -65 -58 -130 0 -96 41 -141 127 -139 35 1
51 7 73 30 37 37 43 68 14 72 -13 2 -33 -8 -51 -27 -52 -51 -103 -17 -103 69
0 36 5 52 24 69 29 27 69 23 86 -9 7 -13 21 -20 41 -20 27 0 30 3 24 23 -4 12
-17 33 -30 46 -30 30 -107 39 -147 16z"/>
<path d="M31827 22833 c-4 -3 -7 -15 -7 -25 0 -13 8 -18 30 -18 25 0 30 4 30
25 0 20 -5 25 -23 25 -13 0 -27 -3 -30 -7z"/>
<path d="M33577 22833 c-4 -3 -7 -15 -7 -25 0 -13 8 -18 30 -18 25 0 30 4 30
25 0 20 -5 25 -23 25 -13 0 -27 -3 -30 -7z"/>
<path d="M29996 22699 c-25 -72 -46 -133 -46 -135 0 -2 13 -4 29 -4 23 0 31 6
40 30 9 28 14 30 56 30 43 0 48 -3 58 -30 9 -25 17 -30 43 -30 l33 0 -45 127
c-25 69 -47 130 -50 135 -3 4 -20 8 -38 8 l-34 0 -46 -131z m102 4 c11 -32 10
-33 -19 -33 -32 0 -34 3 -18 49 13 36 21 32 37 -16z"/>
<path d="M31720 22790 c0 -37 -2 -40 -19 -30 -75 39 -148 -60 -111 -150 17
-42 33 -48 118 -48 l72 0 0 134 0 134 -30 0 c-28 0 -30 -2 -30 -40z m-12 -82
c7 -7 12 -29 12 -50 0 -31 -5 -41 -25 -50 -34 -15 -55 4 -55 51 0 40 14 61 40
61 9 0 21 -5 28 -12z"/>
<path d="M32360 22695 l0 -135 30 0 30 0 0 135 0 135 -30 0 -30 0 0 -135z"/>
<path d="M32580 22695 l0 -135 95 0 c95 0 95 0 95 25 0 24 -2 25 -65 25 l-65
0 0 110 0 110 -30 0 -30 0 0 -135z"/>
<path d="M30740 22790 c0 -20 -5 -30 -15 -30 -8 0 -15 -9 -15 -20 0 -11 7 -20
15 -20 12 0 15 -14 15 -68 0 -77 9 -92 57 -92 26 0 33 4 33 19 0 10 -9 21 -20
24 -17 4 -20 14 -20 61 0 49 2 56 20 56 13 0 20 7 20 19 0 10 -9 21 -20 24
-14 3 -20 14 -20 31 0 21 -5 26 -25 26 -21 0 -25 -5 -25 -30z"/>
<path d="M30302 22754 c-12 -8 -22 -10 -22 -5 0 6 -11 11 -25 11 l-25 0 0
-100 0 -100 30 0 30 0 0 63 c0 65 11 87 42 87 13 0 18 8 18 30 0 34 -14 38
-48 14z"/>
<path d="M30452 22754 c-12 -8 -22 -10 -22 -5 0 6 -11 11 -25 11 l-25 0 0
-100 0 -100 30 0 30 0 0 63 c0 65 11 87 42 87 13 0 18 8 18 30 0 34 -14 38
-48 14z"/>
<path d="M30539 22741 c-24 -25 -29 -37 -29 -81 0 -69 29 -100 95 -100 37 0
51 5 73 28 l27 27 -27 3 c-15 2 -36 -2 -47 -7 -27 -15 -37 -14 -55 5 -26 25
-9 34 61 34 l66 0 -6 38 c-13 80 -101 109 -158 53z m99 -43 c3 -15 -4 -18 -32
-18 -34 0 -47 15 -29 34 13 13 58 1 61 -16z"/>
<path d="M31270 22763 c-19 -7 -40 -33 -40 -50 0 -15 46 -18 55 -3 10 16 55
12 55 -5 0 -9 -14 -17 -37 -21 -75 -13 -101 -51 -73 -104 9 -16 22 -19 93 -18
l83 1 -4 71 c-1 39 -5 80 -7 92 -7 34 -76 55 -125 37z m68 -135 c-3 -26 -43
-37 -62 -18 -8 8 -6 15 8 26 31 22 58 18 54 -8z"/>
<path d="M31512 22754 c-12 -8 -22 -10 -22 -5 0 6 -11 11 -25 11 l-25 0 0
-100 0 -100 30 0 30 0 0 63 c0 65 11 87 42 87 13 0 18 8 18 30 0 34 -14 38
-48 14z"/>
<path d="M32006 22763 c-3 -4 -24 -6 -46 -5 l-40 3 0 -101 0 -100 30 0 29 0 3
71 c3 75 17 99 52 86 13 -5 16 -21 16 -82 l0 -75 31 0 31 0 -3 86 c-4 76 -7
88 -28 105 -23 19 -61 25 -75 12z"/>
<path d="M32190 22763 c-19 -7 -40 -33 -40 -50 0 -15 46 -18 55 -3 10 16 55
12 55 -5 0 -9 -14 -17 -37 -21 -75 -13 -101 -51 -73 -104 9 -16 22 -19 93 -18
l83 1 -4 71 c-1 39 -5 80 -7 92 -7 34 -76 55 -125 37z m68 -135 c-3 -26 -43
-37 -62 -18 -8 8 -6 15 8 26 31 22 58 18 54 -8z"/>
<path d="M32819 22741 c-24 -25 -29 -37 -29 -81 0 -69 29 -100 95 -100 37 0
51 5 73 28 l27 27 -27 3 c-15 2 -36 -2 -47 -7 -27 -15 -37 -14 -55 5 -26 25
-9 34 61 34 l66 0 -6 38 c-13 80 -101 109 -158 53z m99 -43 c3 -15 -4 -18 -32
-18 -34 0 -47 15 -29 34 13 13 58 1 61 -16z"/>
<path d="M33081 22761 c-8 -5 -29 -7 -48 -4 l-33 6 0 -102 0 -101 30 0 29 0 3
78 c3 75 4 77 28 77 24 0 25 -2 28 -77 3 -75 4 -78 27 -78 24 0 25 3 25 61 0
65 12 99 35 99 23 0 35 -34 35 -99 0 -58 1 -61 25 -61 25 0 25 1 25 85 0 72
-3 88 -20 105 -24 24 -57 26 -87 5 -18 -13 -22 -13 -33 0 -14 17 -48 19 -69 6z"/>
<path d="M33383 22760 c-56 -23 -68 -129 -20 -177 33 -33 108 -35 142 -3 46
43 37 151 -15 177 -29 15 -75 16 -107 3z m87 -59 c21 -41 0 -101 -36 -101 -37
0 -60 80 -32 108 18 18 56 14 68 -7z"/>
<path d="M33756 22763 c-3 -4 -24 -6 -46 -5 l-40 3 0 -101 0 -100 30 0 29 0 3
71 c3 75 17 99 52 86 13 -5 16 -21 16 -82 l0 -75 31 0 31 0 -3 86 c-4 76 -7
88 -28 105 -23 19 -61 25 -75 12z"/>
<path d="M33919 22741 c-24 -25 -29 -37 -29 -81 0 -69 29 -100 95 -100 37 0
51 5 73 28 l27 27 -27 3 c-15 2 -36 -2 -47 -7 -27 -15 -37 -14 -55 5 -26 25
-9 34 61 34 l66 0 -6 38 c-13 80 -101 109 -158 53z m99 -43 c3 -15 -4 -18 -32
-18 -34 0 -47 15 -29 34 13 13 58 1 61 -16z"/>
<path d="M31820 22660 l0 -100 30 0 30 0 0 100 0 100 -30 0 -30 0 0 -100z"/>
<path d="M33570 22660 l0 -100 30 0 30 0 0 100 0 100 -30 0 -30 0 0 -100z"/>
<path d="M18225 22503 c-32 -47 -31 -53 3 -53 20 0 41 13 72 45 l44 45 -47 0
c-42 0 -48 -3 -72 -37z"/>
<path d="M16572 22518 c-5 -7 -25 -42 -43 -78 -28 -56 -33 -78 -37 -157 -3
-70 0 -105 14 -149 25 -82 72 -148 107 -152 33 -4 33 2 5 64 -65 147 -64 292
2 427 l28 57 -33 0 c-18 0 -37 -6 -43 -12z"/>
<path d="M18740 22525 c0 -3 10 -25 22 -48 32 -64 48 -134 48 -217 -1 -90 -12
-143 -45 -212 -31 -65 -31 -68 4 -68 23 0 34 8 53 37 93 150 100 296 21 445
-33 64 -38 68 -69 68 -19 0 -34 -2 -34 -5z"/>
<path d="M17940 22455 c0 -38 -3 -45 -20 -45 -16 0 -20 -7 -20 -30 0 -23 4
-30 20 -30 19 0 20 -7 20 -109 0 -130 6 -141 81 -141 48 0 49 1 49 29 0 23 -5
30 -22 33 -22 3 -23 8 -26 96 l-3 92 26 0 c21 0 25 5 25 30 0 25 -4 30 -25 30
-23 0 -25 4 -25 45 l0 45 -40 0 -40 0 0 -45z"/>
<path d="M16792 22404 c-12 -8 -22 -10 -22 -5 0 6 -18 11 -40 11 l-40 0 0
-155 0 -155 40 0 40 0 0 109 c0 116 9 141 50 141 37 0 50 -37 50 -147 l0 -103
40 0 40 0 0 103 c0 110 13 147 50 147 41 0 50 -25 50 -141 l0 -109 40 0 40 0
0 125 c0 69 -5 135 -11 148 -22 48 -106 63 -152 27 l-26 -21 -21 21 c-25 25
-95 27 -128 4z"/>
<path d="M17251 22394 c-42 -35 -61 -79 -61 -141 0 -56 24 -108 62 -136 40
-29 115 -34 170 -9 95 42 115 189 39 275 -27 29 -34 32 -103 35 -69 4 -76 2
-107 -24z m149 -71 c18 -23 21 -37 17 -77 -7 -79 -69 -113 -114 -63 -27 30
-35 66 -22 110 17 62 81 78 119 30z"/>
<path d="M17676 22399 c-21 -17 -26 -18 -26 -5 0 12 -10 16 -40 16 l-40 0 0
-155 0 -155 40 0 40 0 0 105 c0 93 2 107 21 126 27 27 70 22 86 -11 8 -15 13
-64 13 -122 l0 -98 40 0 40 0 0 131 0 131 -29 29 c-37 37 -104 41 -145 8z"/>
<path d="M18180 22413 c-57 -21 -101 -119 -86 -194 16 -88 90 -138 180 -125
49 8 106 53 106 84 0 23 -73 21 -98 -2 -25 -22 -58 -20 -82 4 -42 42 -29 50
85 50 l105 0 0 37 c0 54 -35 118 -74 137 -33 15 -105 20 -136 9z m102 -80 c34
-31 23 -43 -42 -43 -33 0 -60 3 -60 8 0 4 7 18 16 30 18 26 60 29 86 5z"/>
<path d="M18500 22413 c-57 -21 -101 -119 -86 -194 16 -88 90 -138 180 -125
49 8 106 53 106 84 0 23 -73 21 -98 -2 -25 -22 -58 -20 -82 4 -42 42 -29 50
85 50 l105 0 0 37 c0 54 -35 118 -74 137 -33 15 -105 20 -136 9z m102 -80 c34
-31 23 -43 -42 -43 -33 0 -60 3 -60 8 0 4 7 18 16 30 18 26 60 29 86 5z"/>
<path d="M17546 21362 c-75 -149 -134 -272 -131 -272 3 0 64 29 135 65 l130
65 131 -66 c72 -36 133 -63 136 -61 2 3 -56 126 -130 273 l-135 269 -136 -273z"/>
<path d="M15540 17950 l0 -3350 -7180 0 -7180 0 0 -125 0 -125 7305 0 7305 0
0 3475 0 3475 -125 0 -125 0 0 -3350z"/>
<path d="M19580 17835 c0 -3458 0 -3465 20 -3465 11 0 20 -4 20 -10 0 -7 2430
-10 7270 -10 l7270 0 0 125 0 125 -7165 0 -7165 0 0 3350 0 3350 -125 0 -125
0 0 -3465z"/>
<path d="M17640 20950 c-39 -39 -14 -100 43 -100 33 0 57 24 57 59 0 55 -61
80 -100 41z"/>
<path d="M17660 20587 c-35 -18 -46 -41 -34 -74 22 -64 114 -48 114 21 0 48
-39 74 -80 53z"/>
<path d="M20250 20360 l0 -60 510 0 510 0 0 -1060 0 -1060 60 0 60 0 0 1110
c0 980 -2 1110 -15 1110 -8 0 -15 5 -15 10 0 7 -192 10 -555 10 l-555 0 0 -60z"/>
<path d="M17640 20200 c-41 -41 -13 -100 48 -100 21 0 35 7 42 19 36 69 -36
135 -90 81z"/>
<path d="M20542 20190 c-200 -53 -336 -189 -396 -395 -36 -124 -22 -234 46
-375 80 -165 287 -294 473 -294 182 0 388 123 473 282 37 69 72 195 72 257 0
62 -35 188 -72 258 -41 78 -135 172 -215 215 -72 38 -197 72 -262 71 -25 0
-79 -9 -119 -19z m198 -40 c260 -41 449 -296 410 -554 -22 -150 -128 -298
-259 -364 -210 -105 -472 -48 -611 133 -83 109 -120 271 -91 404 46 216 240
377 466 390 11 0 49 -4 85 -9z"/>
<path d="M20288 19813 l-38 -4 0 -165 0 -164 73 0 c82 0 133 20 156 61 21 38
0 98 -40 111 -7 2 -2 14 14 31 15 14 27 33 27 41 0 27 -22 64 -45 74 -29 13
-100 21 -147 15z m109 -65 c30 -25 0 -68 -48 -68 -27 0 -29 3 -29 38 0 21 3
42 7 46 9 9 53 -1 70 -16z m1 -134 c43 -30 14 -84 -45 -84 l-33 0 0 50 c0 48
1 50 28 50 15 0 38 -7 50 -16z"/>
<path d="M20953 19809 c-39 -11 -73 -53 -73 -89 0 -39 28 -69 91 -99 62 -30
72 -52 35 -77 -22 -14 -33 -15 -68 -6 -45 12 -58 5 -58 -29 0 -20 28 -29 88
-29 80 0 132 41 132 103 0 36 -29 68 -87 93 -58 26 -73 45 -52 70 9 11 27 15
63 12 49 -3 51 -2 54 23 3 22 -2 27 -29 33 -39 8 -55 7 -96 -5z"/>
<path d="M20550 19688 c0 -104 3 -128 20 -155 27 -45 53 -56 121 -51 102 7
129 58 129 238 l0 90 -40 0 -40 0 0 -123 c0 -107 -2 -126 -18 -140 -25 -23
-58 -21 -82 3 -18 18 -20 33 -20 140 l0 120 -35 0 -35 0 0 -122z"/>
<path d="M17637 19822 c-23 -25 -21 -58 3 -82 41 -41 100 -13 100 46 0 17 -5
35 -12 42 -18 18 -73 14 -91 -6z"/>
<path d="M17640 19450 c-41 -41 -13 -100 46 -100 38 0 54 16 54 55 0 58 -60
85 -100 45z"/>
<path d="M17637 19072 c-23 -25 -21 -58 3 -82 41 -41 100 -13 100 46 0 17 -5
35 -12 42 -18 18 -73 14 -91 -6z"/>
<path d="M20325 18883 c-33 -18 -44 -28 -68 -63 -32 -46 -14 -144 30 -169 16
-9 15 -13 -13 -43 -41 -43 -54 -69 -54 -111 0 -80 88 -147 192 -147 185 0 277
171 148 272 l-31 25 30 32 c61 65 45 153 -35 198 -48 28 -153 31 -199 6z m143
-91 c33 -42 -3 -110 -52 -98 -26 6 -66 42 -66 59 0 54 83 82 118 39z m-17
-225 c65 -43 44 -127 -31 -127 -44 0 -70 26 -70 70 0 30 6 43 26 59 33 26 34
26 75 -2z"/>
<path d="M20785 18883 c-69 -36 -115 -105 -115 -173 0 -117 120 -200 224 -156
21 9 40 16 42 16 11 0 1 -22 -23 -51 -34 -40 -96 -68 -150 -69 l-43 0 0 -51 0
-52 69 5 c118 9 201 64 250 168 22 46 26 69 26 146 0 84 -2 94 -30 140 -40 64
-92 94 -165 93 -30 0 -68 -7 -85 -16z m138 -105 c11 -13 17 -37 17 -70 0 -47
-1 -50 -37 -65 -33 -13 -41 -13 -63 -1 -81 45 -47 179 40 162 14 -3 33 -14 43
-26z"/>
<path d="M21807 17233 c-4 -3 -7 -100 -7 -215 l0 -208 50 0 50 0 0 74 0 73 78
5 c121 7 159 45 150 153 -5 65 -32 100 -87 115 -40 11 -224 14 -234 3z m219
-98 c36 -49 -1 -95 -76 -95 l-50 0 0 61 0 61 56 -4 c40 -3 61 -10 70 -23z"/>
<path d="M22520 17200 l0 -40 43 0 43 0 -4 40 c-4 39 -5 40 -43 40 -39 0 -39
0 -39 -40z"/>
<path d="M22211 17103 c-16 -16 -32 -40 -35 -55 -6 -27 -5 -28 36 -28 32 0 46
5 56 20 14 23 64 27 81 6 17 -20 -3 -32 -74 -45 -80 -15 -110 -44 -110 -107 0
-38 5 -50 29 -71 25 -21 37 -24 78 -21 27 3 57 13 68 23 18 16 20 16 20 2 0
-14 10 -17 51 -17 45 0 50 2 43 18 -5 9 -10 64 -11 122 -2 58 -6 115 -8 127
-8 34 -55 53 -129 53 -58 0 -69 -3 -95 -27z m143 -180 c-8 -35 -30 -53 -65
-53 -51 0 -48 54 5 69 57 17 67 14 60 -16z"/>
<path d="M22520 16970 l0 -160 40 0 40 0 0 160 0 160 -40 0 -40 0 0 -160z"/>
<path d="M22680 16970 l0 -160 40 0 40 0 0 89 c0 107 13 149 48 158 50 12 57
-3 60 -131 l3 -116 44 0 45 0 0 129 c0 71 -3 137 -6 146 -16 41 -127 61 -171
30 -19 -13 -22 -13 -27 0 -3 9 -19 15 -41 15 l-35 0 0 -160z"/>
<path d="M17110 16340 l0 -240 50 0 50 0 0 95 0 95 70 0 c90 0 110 -16 110
-92 0 -92 4 -98 67 -98 53 0 55 1 48 23 -5 12 -10 54 -12 92 -4 53 -10 75 -26
93 l-20 22 21 23 c43 46 52 99 25 154 -30 64 -58 73 -230 73 l-153 0 0 -240z
m268 144 c15 -10 22 -25 22 -49 0 -50 -28 -65 -117 -65 l-73 0 0 65 0 65 73 0
c49 0 80 -5 95 -16z"/>
<path d="M18070 16459 c-33 -14 -68 -47 -87 -83 -22 -42 -20 -157 4 -203 38
-73 154 -105 233 -65 31 15 80 72 80 93 0 5 -22 9 -48 9 -36 0 -54 -5 -67 -20
-25 -28 -70 -26 -100 5 -49 48 -38 55 96 55 l121 0 -4 60 c-5 63 -23 98 -69
132 -30 23 -123 33 -159 17z m108 -89 c41 -38 29 -50 -48 -50 l-71 0 16 29
c23 46 67 54 103 21z"/>
<path d="M17580 16323 c0 -111 3 -145 18 -173 30 -60 121 -75 185 -29 27 20
27 20 27 -1 0 -17 6 -20 45 -20 l45 0 0 180 0 180 -45 0 -45 0 0 -104 c0 -123
-11 -160 -51 -176 -24 -10 -33 -10 -54 4 -25 16 -25 19 -25 146 l0 130 -50 0
-50 0 0 -137z"/>
<path d="M20140 15485 c0 -570 2 -675 14 -675 8 0 16 -7 20 -15 5 -13 81 -15
601 -15 l595 0 0 65 0 65 -550 0 -550 0 0 560 0 560 550 0 550 0 0 65 0 65
-615 0 -615 0 0 -675z"/>
<path d="M22240 16042 c0 -4 -27 -12 -59 -19 -146 -27 -305 -151 -370 -286
-33 -70 -61 -177 -61 -237 0 -60 28 -167 61 -237 65 -135 224 -259 370 -286
32 -7 59 -15 59 -19 0 -11 94 -10 106 0 5 5 35 14 67 21 181 39 347 199 392
379 9 37 21 75 26 84 5 10 9 36 9 58 0 22 -4 48 -9 58 -5 9 -17 47 -26 84 -45
180 -211 340 -392 379 -32 7 -62 16 -67 21 -12 10 -106 11 -106 0z m219 -116
c132 -54 229 -159 271 -294 86 -276 -114 -567 -405 -589 -287 -22 -533 244
-487 524 48 290 355 468 621 359z"/>
<path d="M22031 15508 c-6 -117 -14 -230 -17 -250 l-6 -38 55 0 55 0 7 190 c4
105 11 190 16 190 5 0 9 -8 9 -19 0 -21 37 -172 69 -278 l22 -73 44 0 43 0 45
143 c25 78 51 161 58 184 6 23 16 40 20 37 5 -3 9 -88 9 -190 l0 -184 55 0 55
0 -1 43 c0 23 -6 134 -12 247 l-12 205 -75 0 -74 0 -38 -120 c-20 -66 -43
-142 -51 -170 -16 -56 -17 -55 -45 65 -11 47 -30 118 -42 158 l-22 72 -77 0
-77 0 -13 -212z"/>
<path d="M8450 15985 c0 -8 -4 -15 -10 -15 -7 0 -10 -192 -10 -555 l0 -555 60
0 60 0 0 505 0 505 1058 2 1057 3 3 63 3 62 -1111 0 c-980 0 -1110 -2 -1110
-15z"/>
<path d="M20990 15500 l0 -420 130 0 130 0 0 420 0 420 -130 0 -130 0 0 -420z"/>
<path d="M20695 15828 c-3 -7 -4 -159 -3 -338 l3 -325 90 0 90 0 0 335 0 335
-88 3 c-64 2 -89 -1 -92 -10z"/>
<path d="M13547 15814 c-4 -4 -7 -101 -7 -216 l0 -208 45 0 44 0 3 88 3 87 93
3 92 3 0 39 0 40 -95 0 -95 0 0 40 0 39 108 3 107 3 0 40 0 40 -146 3 c-80 1
-148 -1 -152 -4z"/>
<path d="M13900 15606 l0 -216 40 0 40 0 0 205 c0 113 1 208 3 213 1 4 -17 8
-40 10 l-43 3 0 -215z"/>
<path d="M16520 15789 c-35 -14 -78 -57 -103 -104 -18 -33 -22 -57 -22 -135 0
-102 16 -150 67 -197 83 -78 246 -68 310 18 28 37 50 94 41 103 -4 3 -26 6
-49 6 -38 0 -45 -4 -59 -29 -21 -41 -53 -61 -98 -61 -131 0 -158 263 -32 316
49 20 104 1 125 -43 14 -31 18 -33 68 -33 52 0 52 0 46 28 -11 49 -54 103 -97
123 -46 20 -154 25 -197 8z"/>
<path d="M17927 15793 c-4 -3 -7 -24 -7 -45 l0 -38 50 0 50 0 0 45 0 45 -43 0
c-24 0 -47 -3 -50 -7z"/>
<path d="M17740 15716 l0 -74 -37 20 c-68 35 -145 10 -186 -61 -24 -39 -33
-133 -18 -186 26 -98 136 -144 214 -91 35 24 37 24 37 6 0 -17 7 -20 45 -20
l45 0 0 240 0 240 -50 0 -50 0 0 -74z m-21 -152 c32 -40 29 -126 -4 -159 -29
-30 -64 -32 -96 -6 -34 27 -40 125 -9 164 29 37 80 38 109 1z"/>
<path d="M18882 15553 l3 -238 48 -3 47 -3 0 240 0 241 -50 0 -50 0 2 -237z"/>
<path d="M20410 15500 l0 -271 68 3 67 3 0 265 0 265 -67 3 -68 3 0 -271z"/>
<path d="M23575 15754 c-70 -36 -109 -100 -126 -205 -20 -127 25 -274 101
-325 46 -32 158 -34 207 -4 152 92 147 451 -7 530 -48 24 -132 26 -175 4z
m135 -136 c15 -33 19 -65 19 -133 0 -107 -14 -154 -51 -175 -26 -14 -29 -14
-53 10 -49 50 -58 237 -15 308 15 25 27 32 50 32 27 0 34 -6 50 -42z"/>
<path d="M23090 15728 c-36 -16 -67 -32 -68 -33 -6 -5 8 -79 17 -93 6 -10 18
-8 55 8 26 11 50 20 52 20 2 0 4 -97 4 -215 l0 -216 63 3 62 3 3 278 2 277
-62 -1 c-48 -1 -79 -8 -128 -31z"/>
<path d="M9082 15730 c-97 -26 -163 -63 -237 -131 -73 -69 -128 -158 -150
-247 -9 -37 -21 -75 -26 -84 -12 -23 -12 -103 0 -126 5 -9 17 -44 26 -77 52
-181 189 -318 370 -370 33 -9 68 -21 77 -26 21 -11 112 -12 121 -2 4 4 40 15
79 25 195 49 348 211 394 415 37 169 -28 369 -160 491 -137 126 -328 177 -494
132z m283 -62 c220 -72 361 -303 325 -532 -29 -190 -169 -345 -358 -397 -355
-99 -692 238 -593 593 38 139 132 254 257 314 119 57 241 65 369 22z"/>
<path d="M8828 15353 l-38 -4 0 -159 0 -160 26 -6 c32 -8 141 4 169 18 51 28
61 93 20 134 l-25 25 20 26 c11 14 20 37 20 50 0 28 -41 73 -67 73 -10 0 -34
2 -53 4 -19 2 -52 2 -72 -1z m96 -53 c18 -7 26 -17 26 -34 0 -28 -25 -46 -64
-46 -23 0 -26 4 -26 38 0 54 12 62 64 42z m20 -146 c35 -34 5 -84 -51 -84
l-33 0 0 50 0 50 34 0 c19 0 42 -7 50 -16z"/>
<path d="M9493 15349 c-17 -5 -41 -21 -52 -35 -42 -53 -19 -110 58 -143 26
-11 54 -27 61 -35 30 -37 -22 -70 -86 -56 -27 6 -41 5 -46 -3 -24 -37 30 -62
111 -51 82 11 126 84 85 142 -9 13 -41 35 -71 49 -60 29 -72 45 -52 69 10 12
25 15 62 11 43 -4 50 -2 57 17 4 11 5 24 1 28 -12 13 -94 18 -128 7z"/>
<path d="M9090 15235 c0 -139 13 -179 64 -200 45 -19 87 -19 131 -1 53 23 68
62 73 199 l4 117 -41 0 -41 0 0 -123 c0 -107 -2 -126 -18 -140 -25 -23 -58
-21 -82 3 -18 18 -20 33 -20 140 l0 120 -35 0 -35 0 0 -115z"/>
<path d="M14145 15711 c-49 -12 -82 -39 -99 -82 -33 -82 -13 -179 46 -222 36
-27 114 -33 161 -14 32 14 77 66 77 90 0 16 -83 6 -107 -13 -32 -25 -44 -25
-77 1 -51 40 -36 49 79 49 l105 0 0 43 c0 100 -89 171 -185 148z m75 -91 c32
-32 24 -40 -40 -40 -33 0 -60 4 -60 10 0 17 39 50 60 50 11 0 29 -9 40 -20z"/>
<path d="M14374 15695 c-4 -8 -5 -69 -3 -134 4 -110 6 -121 28 -145 32 -34 82
-43 132 -23 21 8 39 11 39 6 0 -5 20 -9 45 -9 l45 0 0 161 0 160 -42 -3 -43
-3 -5 -106 c-6 -117 -15 -139 -61 -139 -41 0 -49 24 -49 144 l0 106 -40 0
c-27 0 -43 -5 -46 -15z"/>
<path d="M14737 15703 c-4 -3 -7 -75 -7 -160 l0 -153 45 0 45 0 0 88 c0 109
12 136 63 140 37 3 37 4 37 48 0 42 -1 44 -30 44 -17 0 -39 -9 -50 -20 l-20
-20 0 20 c0 17 -7 20 -38 20 -21 0 -42 -3 -45 -7z"/>
<path d="M16954 15669 c-39 -11 -72 -47 -80 -87 l-6 -32 45 0 c37 0 48 4 61
25 18 27 53 33 87 15 39 -21 11 -60 -44 -60 -13 0 -47 -7 -75 -15 -59 -18 -82
-49 -82 -110 0 -47 14 -71 50 -90 40 -21 83 -19 131 5 34 18 40 19 45 5 4 -11
20 -15 56 -15 44 0 49 2 42 18 -5 9 -10 78 -12 152 -3 119 -6 137 -23 156 -35
37 -127 53 -195 33z m126 -218 c0 -59 -76 -103 -113 -66 -34 33 -13 62 57 82
58 16 56 16 56 -16z"/>
<path d="M17410 15673 c-8 -3 -27 -17 -42 -31 l-28 -26 0 27 c0 25 -3 27 -45
27 l-45 0 0 -180 0 -180 50 0 50 0 0 113 c0 106 2 115 23 135 14 13 36 22 55
22 32 0 32 0 32 50 0 52 -8 58 -50 43z"/>
<path d="M18243 15665 c-18 -8 -33 -19 -33 -25 0 -5 -4 -10 -10 -10 -5 0 -10
9 -10 20 0 17 -7 20 -45 20 l-45 0 0 -180 0 -180 50 0 50 0 0 120 c0 115 1
122 25 145 29 30 58 32 85 5 18 -18 20 -33 20 -145 l0 -125 51 0 51 0 -4 148
c-2 87 -9 156 -16 168 -12 23 -79 54 -115 54 -12 -1 -37 -7 -54 -15z"/>
<path d="M18584 15669 c-39 -11 -72 -47 -80 -87 l-6 -32 45 0 c37 0 48 4 61
25 18 27 53 33 87 15 39 -21 11 -60 -44 -60 -13 0 -47 -7 -75 -15 -59 -18 -82
-49 -82 -110 0 -47 14 -71 50 -90 40 -21 83 -19 131 5 34 18 40 19 45 5 4 -11
20 -15 56 -15 44 0 49 2 42 18 -5 9 -10 78 -12 152 -3 119 -6 137 -23 156 -35
37 -127 53 -195 33z m126 -218 c0 -59 -76 -103 -113 -66 -34 33 -13 62 57 82
58 16 56 16 56 -16z"/>
<path d="M17920 15490 l0 -180 50 0 50 0 0 180 0 180 -50 0 -50 0 0 -180z"/>
<path d="M10168 15383 c-19 -32 -65 -107 -102 -167 -51 -84 -66 -117 -66 -147
l0 -38 118 -3 117 -3 3 -62 3 -63 54 0 54 0 3 63 c3 62 3 62 36 65 31 3 32 5
32 47 0 42 -1 44 -32 47 l-33 3 -3 158 -3 157 -73 0 -74 0 -34 -57z m68 -250
c-6 -14 -106 -19 -106 -5 0 5 20 44 45 88 25 43 49 88 53 99 4 12 8 -19 10
-74 1 -52 1 -100 -2 -108z"/>
<path d="M10480 15385 l0 -55 120 0 120 0 -111 -215 -111 -216 68 3 69 3 37
75 c125 249 178 374 178 417 l0 43 -185 0 -185 0 0 -55z"/>
<path d="M18147 15003 c-4 -3 -7 -24 -7 -45 l0 -38 50 0 50 0 0 45 0 45 -43 0
c-24 0 -47 -3 -50 -7z"/>
<path d="M16370 14760 l0 -240 170 0 170 0 0 45 0 45 -120 0 -120 0 0 195 0
195 -50 0 -50 0 0 -240z"/>
<path d="M16850 14879 c-33 -14 -68 -47 -87 -83 -22 -42 -20 -157 4 -203 38
-73 154 -105 233 -65 31 15 80 72 80 93 0 5 -22 9 -48 9 -36 0 -54 -5 -67 -20
-25 -28 -70 -26 -100 5 -49 48 -38 55 96 55 l121 0 -4 60 c-5 63 -23 98 -69
132 -30 23 -123 33 -159 17z m108 -89 c41 -38 29 -50 -48 -50 l-71 0 16 29
c23 46 67 54 103 21z"/>
<path d="M17290 14879 c-13 -6 -33 -17 -42 -26 -17 -15 -18 -15 -18 5 0 19 -6
22 -45 22 l-45 0 0 -180 0 -180 50 0 50 0 0 128 c0 141 4 152 57 152 46 0 53
-20 53 -159 l0 -121 44 0 44 0 4 126 c3 119 4 127 27 145 24 20 59 18 73 -5 4
-6 8 -68 8 -138 l0 -128 50 0 50 0 0 143 c0 160 -7 182 -60 210 -42 22 -92 17
-133 -14 -25 -18 -30 -19 -40 -5 -13 17 -59 36 -85 35 -9 0 -28 -5 -42 -10z"/>
<path d="M17803 14870 c-59 -30 -97 -107 -91 -184 10 -119 78 -180 195 -174
67 4 100 21 137 72 18 23 21 42 21 116 0 96 -10 121 -68 164 -41 30 -140 33
-194 6z m134 -75 c31 -22 47 -85 33 -135 -31 -114 -160 -81 -160 42 0 41 5 54
29 79 33 32 65 37 98 14z"/>
<path d="M18463 14875 c-18 -8 -33 -19 -33 -25 0 -5 -4 -10 -10 -10 -5 0 -10
9 -10 20 0 17 -7 20 -45 20 l-45 0 0 -180 0 -180 50 0 50 0 0 120 c0 115 1
122 25 145 29 30 58 32 85 5 18 -18 20 -33 20 -145 l0 -125 51 0 51 0 -4 148
c-2 87 -9 156 -16 168 -12 23 -79 54 -115 54 -12 -1 -37 -7 -54 -15z"/>
<path d="M18810 14879 c-33 -14 -68 -47 -87 -83 -22 -42 -20 -157 4 -203 38
-73 154 -105 233 -65 31 15 80 72 80 93 0 5 -22 9 -48 9 -36 0 -54 -5 -67 -20
-25 -28 -70 -26 -100 5 -49 48 -38 55 96 55 l121 0 -4 60 c-5 63 -23 98 -69
132 -30 23 -123 33 -159 17z m108 -89 c41 -38 29 -50 -48 -50 l-71 0 16 29
c23 46 67 54 103 21z"/>
<path d="M18140 14700 l0 -180 50 0 50 0 0 180 0 180 -50 0 -50 0 0 -180z"/>
<path d="M10150 13411 l0 -271 55 0 55 0 0 105 0 105 83 0 c102 0 117 -11 117
-86 0 -27 3 -66 6 -86 l7 -38 64 0 c58 0 64 2 57 18 -4 9 -11 57 -14 107 -7
79 -11 91 -34 112 l-27 23 32 28 c27 24 33 37 37 84 5 61 -9 97 -53 138 -26
24 -30 25 -206 28 l-179 3 0 -270z m290 166 c32 -16 47 -58 32 -91 -14 -31
-71 -48 -150 -44 l-57 3 -3 73 -3 72 78 0 c43 0 89 -6 103 -13z"/>
<path d="M11760 13410 l0 -270 55 0 55 0 0 207 c0 113 2 204 5 201 3 -2 23
-85 45 -184 22 -98 42 -189 45 -202 5 -21 10 -23 62 -20 l57 3 45 205 46 205
3 -207 2 -208 55 0 55 0 0 270 0 270 -85 0 c-47 0 -85 -3 -85 -6 0 -15 -83
-370 -89 -382 -4 -7 -27 76 -52 185 l-46 198 -86 3 -87 3 0 -271z"/>
<path d="M12506 13549 c-90 -22 -140 -97 -140 -209 1 -95 46 -172 117 -199 66
-25 181 -7 231 37 73 65 75 243 3 320 -46 49 -133 71 -211 51z m128 -121 c26
-29 28 -35 24 -96 -4 -56 -8 -68 -32 -88 -34 -30 -88 -32 -115 -5 -39 39 -48
128 -19 184 12 24 67 48 93 41 11 -3 33 -19 49 -36z"/>
<path d="M11193 13525 c-58 -35 -83 -90 -83 -185 0 -100 23 -148 89 -184 88
-47 187 -32 249 38 47 54 43 66 -21 66 -41 0 -58 -5 -72 -20 -40 -44 -120 -16
-140 48 l-6 22 140 0 c160 0 149 -7 131 90 -12 63 -50 117 -96 136 -55 23
-142 18 -191 -11z m136 -70 c28 -14 41 -33 41 -61 0 -11 -17 -14 -75 -14 -86
0 -95 11 -46 61 34 33 41 35 80 14z"/>
<path d="M12986 13525 c-34 -23 -36 -23 -36 -5 0 17 -7 20 -50 20 l-50 0 0
-200 0 -200 50 0 50 0 0 109 c0 128 6 163 32 190 24 27 79 28 101 3 14 -15 17
-42 17 -160 l0 -142 55 0 55 0 0 160 c0 178 -8 208 -60 235 -46 24 -121 19
-164 -10z"/>
<path d="M13380 13543 c-27 -10 -71 -57 -85 -89 -35 -84 -25 -199 23 -255 52
-62 142 -77 206 -34 l36 25 -6 -43 c-4 -26 -15 -50 -31 -64 -31 -29 -87 -31
-110 -3 -14 16 -30 20 -76 20 -56 0 -58 -1 -51 -22 23 -73 84 -103 196 -96 82
5 129 25 155 65 16 23 18 58 21 260 l3 233 -50 0 c-46 0 -51 -2 -51 -22 l0
-21 -25 23 c-19 18 -39 24 -83 27 -31 1 -64 0 -72 -4z m143 -108 c66 -67 29
-205 -55 -205 -57 0 -95 66 -83 142 14 81 86 114 138 63z"/>
<path d="M13813 13525 c-58 -35 -83 -90 -83 -185 0 -100 23 -148 89 -184 88
-47 187 -32 249 38 47 54 43 66 -21 66 -41 0 -58 -5 -72 -20 -40 -44 -120 -16
-140 48 l-6 22 140 0 c160 0 149 -7 131 90 -12 63 -50 117 -96 136 -55 23
-142 18 -191 -11z m136 -70 c28 -14 41 -33 41 -61 0 -11 -17 -14 -75 -14 -86
0 -95 11 -46 61 34 33 41 35 80 14z"/>
<path d="M10680 13379 c0 -146 2 -165 21 -195 35 -58 144 -69 204 -22 l25 19
0 -20 c0 -19 6 -21 55 -21 l55 0 0 200 0 200 -55 0 -55 0 0 -125 c0 -134 -8
-166 -47 -184 -36 -16 -58 -14 -79 10 -16 18 -19 40 -22 160 l-4 139 -49 0
-49 0 0 -161z"/>
<path d="M27191 12700 c-87 -21 -131 -133 -77 -197 20 -23 42 -35 93 -48 111
-28 135 -41 131 -73 -7 -58 -134 -63 -160 -6 -9 20 -18 24 -55 24 -42 0 -43
-1 -37 -27 16 -67 61 -101 148 -110 103 -11 183 36 193 113 10 82 -22 114
-144 146 -73 18 -113 40 -113 60 0 4 9 17 20 28 31 31 85 27 122 -10 22 -23
39 -30 68 -30 37 0 38 1 30 28 -16 54 -23 63 -61 83 -46 23 -111 31 -158 19z"/>
<path d="M6725 12684 c-77 -40 -108 -99 -108 -204 0 -114 42 -181 130 -211 47
-15 118 -6 154 20 35 26 39 26 39 1 0 -16 7 -20 30 -20 l30 0 0 115 0 115 -85
0 -85 0 0 -35 c0 -35 0 -35 45 -35 55 0 59 -17 16 -61 -43 -43 -101 -41 -147
5 -35 35 -40 56 -34 136 5 77 60 127 128 116 37 -6 72 -31 72 -53 0 -9 14 -13
45 -13 37 0 45 3 45 19 0 29 -43 85 -80 103 -45 23 -153 24 -195 2z"/>
<path d="M8280 12660 l0 -40 40 0 40 0 0 40 0 40 -40 0 -40 0 0 -40z"/>
<path d="M27820 12660 l0 -40 40 0 40 0 0 40 0 40 -40 0 -40 0 0 -40z"/>
<path d="M28785 12684 c-77 -40 -108 -99 -108 -204 0 -114 42 -181 130 -211
47 -15 118 -6 154 20 35 26 39 26 39 1 0 -16 7 -20 30 -20 l30 0 0 115 0 115
-85 0 -85 0 0 -35 c0 -35 0 -35 45 -35 55 0 59 -17 16 -61 -43 -43 -101 -41
-147 5 -35 35 -40 56 -34 136 5 77 60 127 128 116 37 -6 72 -31 72 -53 0 -9
14 -13 45 -13 37 0 45 3 45 19 0 29 -43 85 -80 103 -45 23 -153 24 -195 2z"/>
<path d="M30540 12660 l0 -40 40 0 40 0 0 40 0 40 -40 0 -40 0 0 -40z"/>
<path d="M5660 12480 l0 -210 40 0 40 0 0 210 0 210 -40 0 -40 0 0 -210z"/>
<path d="M7430 12480 l0 -210 45 0 c25 0 45 4 45 9 0 6 16 3 37 -5 103 -43
197 55 178 185 -9 62 -29 98 -65 116 -38 19 -99 19 -128 -1 l-22 -15 0 65 0
66 -45 0 -45 0 0 -210z m195 15 c42 -41 30 -134 -20 -157 -22 -10 -30 -8 -52
8 -34 25 -45 68 -32 116 16 61 62 76 104 33z"/>
<path d="M8120 12480 l0 -210 40 0 40 0 0 210 0 210 -40 0 -40 0 0 -210z"/>
<path d="M1583 12537 c-145 -72 -263 -134 -263 -137 0 -5 525 -270 535 -270 3
0 -25 61 -62 135 l-68 135 68 135 c37 74 64 135 59 134 -4 0 -125 -59 -269
-132z"/>
<path d="M28340 12625 c0 -38 -3 -45 -20 -45 -16 0 -20 -7 -20 -30 0 -23 4
-30 20 -30 19 0 20 -7 20 -109 0 -130 6 -141 81 -141 48 0 49 1 49 29 0 23 -5
30 -22 33 -22 3 -23 8 -26 96 l-3 92 26 0 c21 0 25 5 25 30 0 25 -4 30 -25 30
-23 0 -25 4 -25 45 l0 45 -40 0 -40 0 0 -45z"/>
<path d="M33647 12535 l68 -135 -68 -135 c-37 -74 -65 -135 -62 -135 10 0 535
265 535 270 0 5 -525 270 -535 270 -3 0 25 -61 62 -135z"/>
<path d="M4680 12583 c-57 -21 -101 -119 -86 -194 16 -88 90 -138 180 -125 49
8 106 53 106 84 0 23 -73 21 -98 -2 -25 -22 -58 -20 -82 4 -42 42 -29 50 85
50 l105 0 0 37 c0 54 -35 118 -74 137 -33 15 -105 20 -136 9z m102 -80 c34
-31 23 -43 -42 -43 -33 0 -60 3 -60 8 0 4 7 18 16 30 18 26 60 29 86 5z"/>
<path d="M5046 12569 c-21 -17 -26 -18 -26 -5 0 12 -10 16 -40 16 l-40 0 0
-155 0 -155 40 0 40 0 0 95 c0 88 2 98 25 120 13 14 36 25 50 25 23 0 25 4 25
40 0 35 -3 40 -24 40 -13 0 -35 -9 -50 -21z"/>
<path d="M5208 12574 c-35 -18 -48 -43 -48 -88 0 -43 28 -72 85 -87 89 -23
106 -31 103 -47 -5 -27 -82 -29 -105 -3 -23 28 -93 30 -93 3 0 -88 183 -127
255 -54 22 21 25 33 23 71 -3 38 -8 49 -34 66 -17 12 -57 27 -88 34 -61 14
-74 24 -56 46 18 21 57 18 80 -5 25 -25 90 -28 90 -4 0 26 -19 53 -50 69 -37
19 -127 19 -162 -1z"/>
<path d="M5880 12583 c-57 -21 -101 -119 -86 -194 16 -88 90 -138 180 -125 49
8 106 53 106 84 0 23 -73 21 -98 -2 -25 -22 -58 -20 -82 4 -42 42 -29 50 85
50 l105 0 0 37 c0 54 -35 118 -74 137 -33 15 -105 20 -136 9z m102 -80 c34
-31 23 -43 -42 -43 -33 0 -60 3 -60 8 0 4 7 18 16 30 18 26 60 29 86 5z"/>
<path d="M6178 12574 c-35 -18 -48 -43 -48 -88 0 -43 28 -72 85 -87 89 -23
106 -31 103 -47 -5 -27 -82 -29 -105 -3 -23 28 -93 30 -93 3 0 -88 183 -127
255 -54 22 21 25 33 23 71 -3 38 -8 49 -34 66 -17 12 -57 27 -88 34 -61 14
-74 24 -56 46 18 21 57 18 80 -5 25 -25 90 -28 90 -4 0 26 -19 53 -50 69 -37
19 -127 19 -162 -1z"/>
<path d="M7131 12564 c-42 -35 -61 -79 -61 -141 0 -56 24 -108 62 -136 40 -29
115 -34 170 -9 95 42 115 189 39 275 -27 29 -34 32 -103 35 -69 4 -76 2 -107
-24z m149 -71 c18 -23 21 -37 17 -77 -7 -79 -69 -113 -114 -63 -27 30 -35 66
-22 110 17 62 81 78 119 30z"/>
<path d="M7860 12583 c-57 -21 -101 -119 -86 -194 16 -88 90 -138 180 -125 49
8 106 53 106 84 0 23 -73 21 -98 -2 -25 -22 -58 -20 -82 4 -42 42 -29 50 85
50 l105 0 0 37 c0 54 -35 118 -74 137 -33 15 -105 20 -136 9z m102 -80 c34
-31 23 -43 -42 -43 -33 0 -60 3 -60 8 0 4 7 18 16 30 18 26 60 29 86 5z"/>
<path d="M8556 12569 c-21 -17 -26 -18 -26 -5 0 12 -10 16 -40 16 l-40 0 0
-155 0 -155 40 0 40 0 0 105 c0 93 2 107 21 126 27 27 70 22 86 -11 8 -15 13
-64 13 -122 l0 -98 40 0 40 0 0 131 0 131 -29 29 c-37 37 -104 41 -145 8z"/>
<path d="M8838 12574 c-35 -18 -48 -43 -48 -88 0 -43 28 -72 85 -87 89 -23
106 -31 103 -47 -5 -27 -82 -29 -105 -3 -23 28 -93 30 -93 3 0 -88 183 -127
255 -54 22 21 25 33 23 71 -3 38 -8 49 -34 66 -17 12 -57 27 -88 34 -61 14
-74 24 -56 46 18 21 57 18 80 -5 25 -25 90 -28 90 -4 0 26 -19 53 -50 69 -37
19 -127 19 -162 -1z"/>
<path d="M26120 12583 c-57 -21 -101 -119 -86 -194 16 -88 90 -138 180 -125
49 8 106 53 106 84 0 23 -73 21 -98 -2 -25 -22 -58 -20 -82 4 -42 42 -29 50
85 50 l105 0 0 37 c0 54 -35 118 -74 137 -33 15 -105 20 -136 9z m102 -80 c34
-31 23 -43 -42 -43 -33 0 -60 3 -60 8 0 4 7 18 16 30 18 26 60 29 86 5z"/>
<path d="M26496 12569 c-21 -17 -26 -18 -26 -5 0 12 -10 16 -40 16 l-40 0 0
-155 0 -155 40 0 40 0 0 95 c0 88 2 98 25 120 13 14 36 25 50 25 23 0 25 4 25
40 0 35 -3 40 -24 40 -13 0 -35 -9 -50 -21z"/>
<path d="M26658 12574 c-35 -18 -48 -43 -48 -88 0 -43 28 -72 85 -87 89 -23
106 -31 103 -47 -5 -27 -82 -29 -105 -3 -23 28 -93 30 -93 3 0 -88 183 -127
255 -54 22 21 25 33 23 71 -3 38 -8 49 -34 66 -17 12 -57 27 -88 34 -61 14
-74 24 -56 46 18 21 57 18 80 -5 25 -25 90 -28 90 -4 0 26 -19 53 -50 69 -37
19 -127 19 -162 -1z"/>
<path d="M27528 12575 c-31 -17 -48 -44 -48 -74 0 -18 6 -21 40 -21 27 0 40 4
40 13 0 19 40 35 70 27 16 -4 25 -13 25 -25 0 -20 -19 -28 -99 -40 -54 -9 -86
-44 -86 -94 0 -53 7 -69 41 -86 37 -20 67 -19 111 4 30 15 38 16 42 5 3 -9 22
-14 51 -14 42 0 58 11 35 25 -6 4 -10 56 -10 124 0 113 -1 118 -25 141 -21 20
-39 25 -93 27 -46 2 -75 -1 -94 -12z m122 -215 c-24 -45 -100 -45 -100 -1 0
25 19 39 66 49 33 7 39 6 42 -9 2 -10 -2 -27 -8 -39z"/>
<path d="M28086 12569 c-21 -17 -26 -18 -26 -5 0 12 -10 16 -40 16 l-40 0 0
-155 0 -155 40 0 40 0 0 105 c0 93 2 107 21 126 27 27 70 22 86 -11 8 -15 13
-64 13 -122 l0 -98 40 0 40 0 0 131 0 131 -29 29 c-37 37 -104 41 -145 8z"/>
<path d="M29200 12583 c-57 -21 -101 -119 -86 -194 16 -88 90 -138 180 -125
49 8 106 53 106 84 0 23 -73 21 -98 -2 -25 -22 -58 -20 -82 4 -42 42 -29 50
85 50 l105 0 0 37 c0 54 -35 118 -74 137 -33 15 -105 20 -136 9z m102 -80 c34
-31 23 -43 -42 -43 -33 0 -60 3 -60 8 0 4 7 18 16 30 18 26 60 29 86 5z"/>
<path d="M29576 12569 c-21 -17 -26 -18 -26 -5 0 12 -10 16 -40 16 l-40 0 0
-155 0 -155 40 0 40 0 0 95 c0 88 2 98 25 120 13 14 36 25 50 25 23 0 25 4 25
40 0 35 -3 40 -24 40 -13 0 -35 -9 -50 -21z"/>
<path d="M29802 12574 c-12 -8 -22 -10 -22 -5 0 6 -18 11 -40 11 l-40 0 0
-155 0 -155 40 0 40 0 0 109 c0 116 9 141 50 141 37 0 50 -37 50 -147 l0 -103
40 0 40 0 0 103 c0 110 13 147 50 147 41 0 50 -25 50 -141 l0 -109 40 0 40 0
0 125 c0 69 -5 135 -11 148 -22 48 -106 63 -152 27 l-26 -21 -21 21 c-25 25
-95 27 -128 4z"/>
<path d="M30248 12575 c-31 -17 -48 -44 -48 -74 0 -18 6 -21 40 -21 27 0 40 4
40 13 0 19 40 35 70 27 16 -4 25 -13 25 -25 0 -20 -19 -28 -99 -40 -54 -9 -86
-44 -86 -94 0 -53 7 -69 41 -86 37 -20 67 -19 111 4 30 15 38 16 42 5 3 -9 22
-14 51 -14 42 0 58 11 35 25 -6 4 -10 56 -10 124 0 113 -1 118 -25 141 -21 20
-39 25 -93 27 -46 2 -75 -1 -94 -12z m122 -215 c-24 -45 -100 -45 -100 -1 0
25 19 39 66 49 33 7 39 6 42 -9 2 -10 -2 -27 -8 -39z"/>
<path d="M30806 12569 c-21 -17 -26 -18 -26 -5 0 12 -10 16 -40 16 l-40 0 0
-155 0 -155 40 0 40 0 0 105 c0 93 2 107 21 126 27 27 70 22 86 -11 8 -15 13
-64 13 -122 l0 -98 40 0 40 0 0 131 0 131 -29 29 c-37 37 -104 41 -145 8z"/>
<path d="M4271 12573 c0 -4 24 -73 53 -153 l52 -145 45 -3 45 -3 56 156 55
155 -46 0 -46 0 -29 -105 c-16 -58 -31 -104 -33 -101 -2 2 -16 48 -32 102
l-28 99 -46 3 c-26 2 -47 -1 -46 -5z"/>
<path d="M8280 12425 l0 -155 40 0 40 0 0 155 0 155 -40 0 -40 0 0 -155z"/>
<path d="M25711 12573 c0 -4 24 -73 53 -153 l52 -145 45 -3 45 -3 56 156 55
155 -46 0 -46 0 -29 -105 c-16 -58 -31 -104 -33 -101 -2 2 -16 48 -32 102
l-28 99 -46 3 c-26 2 -47 -1 -46 -5z"/>
<path d="M27820 12425 l0 -155 40 0 40 0 0 155 0 155 -40 0 -40 0 0 -155z"/>
<path d="M30540 12425 l0 -155 40 0 40 0 0 155 0 155 -40 0 -40 0 0 -155z"/>
<path d="M1997 12442 c-36 -40 -9 -102 45 -102 51 0 78 69 40 103 -24 22 -65
21 -85 -1z"/>
<path d="M2366 12438 c-9 -12 -16 -29 -16 -38 0 -29 30 -60 59 -60 41 0 64 22
64 60 0 58 -75 84 -107 38z"/>
<path d="M2747 12442 c-36 -40 -9 -102 45 -102 51 0 78 69 40 103 -24 22 -65
21 -85 -1z"/>
<path d="M3116 12438 c-9 -12 -16 -29 -16 -38 0 -29 30 -60 59 -60 41 0 64 22
64 60 0 58 -75 84 -107 38z"/>
<path d="M3497 12442 c-36 -40 -9 -102 45 -102 51 0 78 69 40 103 -24 22 -65
21 -85 -1z"/>
<path d="M3870 12440 c-55 -55 22 -132 85 -86 11 8 18 26 18 46 0 56 -62 81
-103 40z"/>
<path d="M31480 12440 c-11 -11 -20 -29 -20 -40 0 -28 35 -60 65 -60 37 0 68
35 60 68 -12 52 -68 69 -105 32z"/>
<path d="M31857 12442 c-22 -24 -21 -65 1 -85 40 -36 102 -9 102 45 0 51 -69
78 -103 40z"/>
<path d="M32230 12440 c-11 -11 -20 -29 -20 -40 0 -28 35 -60 65 -60 30 0 65
32 65 60 0 28 -35 60 -65 60 -14 0 -34 -9 -45 -20z"/>
<path d="M32607 12442 c-22 -24 -21 -65 1 -85 40 -36 102 -9 102 45 0 51 -69
78 -103 40z"/>
<path d="M32980 12440 c-11 -11 -20 -29 -20 -40 0 -28 35 -60 65 -60 30 0 65
32 65 60 0 28 -35 60 -65 60 -14 0 -34 -9 -45 -20z"/>
<path d="M33357 12442 c-36 -40 -9 -102 45 -102 51 0 78 69 40 103 -24 22 -65
21 -85 -1z"/>
<path d="M20190 11331 l0 -271 55 0 55 0 0 105 0 105 83 0 c102 0 117 -11 117
-86 0 -27 3 -66 6 -86 l7 -38 64 0 c58 0 64 2 57 18 -4 9 -11 57 -14 107 -7
79 -11 91 -34 112 l-27 23 32 28 c27 24 33 37 37 84 5 61 -9 97 -53 138 -26
24 -30 25 -206 28 l-179 3 0 -270z m290 166 c32 -16 47 -58 32 -91 -14 -31
-71 -48 -150 -44 l-57 3 -3 73 -3 72 78 0 c43 0 89 -6 103 -13z"/>
<path d="M21800 11330 l0 -270 55 0 55 0 0 207 c0 113 2 204 5 201 3 -2 23
-85 45 -184 22 -98 42 -189 45 -202 5 -21 10 -23 62 -20 l57 3 45 205 46 205
3 -207 2 -208 55 0 55 0 0 270 0 270 -85 0 c-47 0 -85 -3 -85 -6 0 -15 -83
-370 -89 -382 -4 -7 -27 76 -52 185 l-46 198 -86 3 -87 3 0 -271z"/>
<path d="M22546 11469 c-90 -22 -140 -97 -140 -209 1 -95 46 -172 117 -199 66
-25 181 -7 231 37 73 65 75 243 3 320 -46 49 -133 71 -211 51z m128 -121 c26
-29 28 -35 24 -96 -4 -56 -8 -68 -32 -88 -34 -30 -88 -32 -115 -5 -39 39 -48
128 -19 184 12 24 67 48 93 41 11 -3 33 -19 49 -36z"/>
<path d="M21233 11445 c-58 -35 -83 -90 -83 -185 0 -100 23 -148 89 -184 88
-47 187 -32 249 38 47 54 43 66 -21 66 -41 0 -58 -5 -72 -20 -40 -44 -120 -16
-140 48 l-6 22 140 0 c160 0 149 -7 131 90 -12 63 -50 117 -96 136 -55 23
-142 18 -191 -11z m136 -70 c28 -14 41 -33 41 -61 0 -11 -17 -14 -75 -14 -86
0 -95 11 -46 61 34 33 41 35 80 14z"/>
<path d="M23026 11445 c-34 -23 -36 -23 -36 -5 0 17 -7 20 -50 20 l-50 0 0
-200 0 -200 50 0 50 0 0 109 c0 128 6 163 32 190 24 27 79 28 101 3 14 -15 17
-42 17 -160 l0 -142 55 0 55 0 0 160 c0 178 -8 208 -60 235 -46 24 -121 19
-164 -10z"/>
<path d="M23430 11463 c-27 -10 -71 -57 -85 -89 -35 -84 -25 -199 23 -255 52
-62 142 -77 206 -34 l36 25 -6 -43 c-4 -26 -15 -50 -31 -64 -31 -29 -87 -31
-110 -3 -14 16 -30 20 -76 20 -56 0 -58 -1 -51 -22 23 -73 84 -103 196 -96 82
5 129 25 155 65 16 23 18 58 21 260 l3 233 -50 0 c-46 0 -51 -2 -51 -22 l0
-21 -25 23 c-19 18 -39 24 -83 27 -31 1 -64 0 -72 -4z m143 -108 c66 -67 29
-205 -55 -205 -57 0 -95 66 -83 142 14 81 86 114 138 63z"/>
<path d="M23853 11445 c-58 -35 -83 -90 -83 -185 0 -100 23 -148 89 -184 88
-47 187 -32 249 38 47 54 43 66 -21 66 -41 0 -58 -5 -72 -20 -40 -44 -120 -16
-140 48 l-6 22 140 0 c160 0 149 -7 131 90 -12 63 -50 117 -96 136 -55 23
-142 18 -191 -11z m136 -70 c28 -14 41 -33 41 -61 0 -11 -17 -14 -75 -14 -86
0 -95 11 -46 61 34 33 41 35 80 14z"/>
<path d="M20720 11299 c0 -146 2 -165 21 -195 35 -58 144 -69 204 -22 l25 19
0 -20 c0 -19 6 -21 55 -21 l55 0 0 200 0 200 -55 0 -55 0 0 -125 c0 -134 -8
-166 -47 -184 -36 -16 -58 -14 -79 10 -16 18 -19 40 -22 160 l-4 139 -49 0
-49 0 0 -161z"/>
<path d="M1180 10335 l0 -125 7180 0 7180 0 0 -3360 0 -3361 123 3 122 3 3
3483 2 3482 -7305 0 -7305 0 0 -125z"/>
<path d="M19620 10445 c0 -8 -9 -15 -20 -15 -20 0 -20 -7 -20 -3470 l0 -3470
125 0 125 0 0 3360 0 3360 7165 0 7165 0 0 125 0 125 -7270 0 c-6456 0 -7270
-2 -7270 -15z"/>
<path d="M25525 10082 c-6 -5 -34 -14 -64 -21 -143 -31 -298 -153 -359 -282
-35 -74 -62 -174 -62 -235 0 -59 34 -182 71 -255 39 -79 143 -183 221 -222 67
-33 195 -67 253 -67 62 0 188 35 258 72 204 108 325 382 263 593 -43 147 -112
244 -224 319 -63 41 -173 86 -213 86 -10 0 -21 5 -24 10 -7 12 -107 13 -120 2z
m157 -63 c178 -37 327 -177 374 -354 18 -67 18 -177 -1 -250 -61 -234 -300
-392 -539 -355 -213 32 -384 203 -416 416 -49 326 256 611 582 543z"/>
<path d="M25168 9684 c-5 -4 -8 -79 -8 -167 l0 -159 96 4 c94 3 96 4 125 36
37 41 37 75 0 113 l-30 29 26 26 c19 19 23 31 18 52 -13 54 -37 67 -133 70
-48 2 -90 0 -94 -4z m152 -64 c15 -27 -2 -56 -37 -63 -40 -7 -53 2 -53 37 0
41 5 46 46 46 23 0 37 -6 44 -20z m-16 -120 c20 -7 26 -17 26 -38 0 -38 -17
-52 -62 -52 l-38 0 0 43 c0 24 3 47 7 50 9 10 38 9 67 -3z"/>
<path d="M25464 9675 c-4 -9 -4 -65 -2 -125 6 -122 22 -161 72 -182 44 -18
114 -13 145 10 44 32 51 58 51 190 l0 122 -35 0 -35 0 0 -118 c0 -133 -11
-162 -59 -162 -51 0 -60 23 -63 155 l-3 120 -33 3 c-23 2 -34 -2 -38 -13z"/>
<path d="M25854 9680 c-31 -12 -54 -49 -54 -86 0 -37 31 -68 97 -98 51 -23 62
-45 33 -68 -25 -20 -41 -22 -88 -9 -29 9 -32 8 -38 -16 -9 -34 8 -43 85 -43
58 0 65 2 97 34 20 20 34 44 34 59 0 35 -35 75 -88 100 -56 27 -71 49 -52 72
11 14 25 16 62 12 40 -5 48 -3 53 13 4 11 3 24 0 30 -7 12 -111 12 -141 0z"/>
<path d="M17110 9800 l0 -240 50 0 50 0 0 95 0 95 70 0 c90 0 110 -16 110 -92
0 -92 4 -98 67 -98 53 0 55 1 48 23 -5 12 -10 54 -12 92 -4 53 -10 75 -26 93
l-20 22 21 23 c43 46 52 99 25 154 -30 64 -58 73 -230 73 l-153 0 0 -240z
m268 144 c15 -10 22 -25 22 -49 0 -50 -28 -65 -117 -65 l-73 0 0 65 0 65 73 0
c49 0 80 -5 95 -16z"/>
<path d="M18070 9919 c-33 -14 -68 -47 -87 -83 -22 -42 -20 -157 4 -203 38
-73 154 -105 233 -65 31 15 80 72 80 93 0 5 -22 9 -48 9 -36 0 -54 -5 -67 -20
-25 -28 -70 -26 -100 5 -49 48 -38 55 96 55 l121 0 -4 60 c-5 63 -23 98 -69
132 -30 23 -123 33 -159 17z m108 -89 c41 -38 29 -50 -48 -50 l-71 0 16 29
c23 46 67 54 103 21z"/>
<path d="M17580 9783 c0 -111 3 -145 18 -173 30 -60 121 -75 185 -29 27 20 27
20 27 -1 0 -17 6 -20 45 -20 l45 0 0 180 0 180 -45 0 -45 0 0 -104 c0 -123
-11 -160 -51 -176 -24 -10 -33 -10 -54 4 -25 16 -25 19 -25 146 l0 130 -50 0
-50 0 0 -137z"/>
<path d="M10890 9235 c0 -570 2 -675 14 -675 8 0 16 -7 20 -15 5 -13 81 -15
601 -15 l595 0 0 65 0 65 -550 0 -550 0 0 560 0 560 550 0 550 0 0 65 0 65
-615 0 -615 0 0 -675z"/>
<path d="M27527 9883 c-4 -3 -7 -231 -7 -505 l0 -498 -1055 0 -1055 0 0 -65 0
-65 1110 0 c980 0 1110 2 1110 15 0 8 5 15 10 15 7 0 10 192 10 555 l0 555
-58 0 c-32 0 -62 -3 -65 -7z"/>
<path d="M12950 9792 c0 -4 -28 -13 -62 -19 -194 -37 -374 -217 -411 -411 -6
-34 -15 -62 -19 -62 -5 0 -8 -22 -8 -50 0 -27 3 -50 8 -50 4 0 13 -28 19 -62
37 -194 217 -374 411 -411 34 -6 62 -15 62 -19 0 -5 23 -8 50 -8 28 0 50 3 50
8 0 4 28 13 62 19 194 37 374 217 411 411 6 34 15 62 19 62 5 0 8 23 8 50 0
28 -3 50 -8 50 -4 0 -13 28 -19 62 -37 194 -217 374 -411 411 -34 6 -62 15
-62 19 0 5 -22 8 -50 8 -27 0 -50 -3 -50 -8z m156 -96 c203 -54 354 -244 354
-446 0 -203 -150 -392 -354 -446 -273 -73 -566 157 -566 446 0 201 149 390
349 446 62 17 155 17 217 0z"/>
<path d="M12741 9273 c-6 -109 -14 -222 -18 -250 l-5 -53 51 0 c33 0 53 5 56
13 2 6 7 92 10 190 4 99 10 175 14 170 4 -4 27 -88 51 -185 l43 -178 47 0 46
0 52 173 c29 94 52 178 52 185 0 6 5 12 10 12 6 0 10 -34 10 -83 0 -46 3 -132
7 -190 l6 -107 55 0 55 0 -7 78 c-3 42 -8 131 -11 197 -3 66 -8 144 -11 173
l-5 52 -73 0 -73 0 -49 -165 c-27 -91 -52 -165 -56 -165 -3 0 -12 24 -18 53
-6 28 -25 102 -43 162 l-33 110 -76 3 -75 3 -12 -198z"/>
<path d="M26520 9678 c-29 -51 -73 -124 -97 -161 -34 -54 -43 -77 -43 -112 l0
-45 115 0 114 0 3 -62 3 -63 58 -3 57 -3 0 66 0 65 30 0 c29 0 30 1 30 50 0
49 -1 50 -30 50 l-30 0 0 155 0 155 -78 0 -78 0 -54 -92z m90 -118 l0 -100
-56 0 -56 0 31 53 c18 28 42 73 54 99 12 26 23 48 25 48 1 0 2 -45 2 -100z"/>
<path d="M26850 9720 l0 -50 120 0 c66 0 120 -2 120 -5 0 -4 -47 -100 -105
-215 -58 -114 -105 -211 -105 -214 0 -3 28 -6 63 -6 l62 0 109 223 c79 160
111 235 114 270 l5 47 -192 0 -191 0 0 -50z"/>
<path d="M20687 9733 c-4 -3 -7 -100 -7 -215 l0 -208 125 0 c140 0 180 11 209
55 27 41 25 119 -4 150 -21 22 -21 25 -6 47 23 32 21 99 -4 131 -12 15 -38 31
-58 37 -41 11 -245 14 -255 3z m213 -82 c17 -5 26 -15 28 -33 4 -36 -24 -50
-96 -46 -54 3 -57 4 -60 31 -6 48 3 57 55 56 26 -1 59 -4 73 -8z m28 -173 c17
-17 15 -48 -5 -70 -13 -14 -31 -18 -85 -18 l-68 0 0 50 0 50 73 0 c43 0 78 -5
85 -12z"/>
<path d="M11780 9250 l0 -420 135 0 135 0 0 420 0 420 -135 0 -135 0 0 -420z"/>
<path d="M21121 9603 c-16 -16 -32 -40 -35 -55 -6 -27 -5 -28 36 -28 32 0 46
5 56 20 14 23 64 27 81 6 17 -20 -3 -32 -74 -45 -80 -15 -110 -44 -110 -107 0
-38 5 -50 29 -71 25 -21 37 -24 78 -21 27 3 57 13 68 23 18 16 20 16 20 2 0
-14 10 -17 51 -17 45 0 50 2 43 18 -5 9 -10 64 -11 122 -2 58 -6 115 -8 127
-8 34 -55 53 -129 53 -58 0 -69 -3 -95 -27z m143 -180 c-8 -35 -30 -53 -65
-53 -51 0 -48 54 5 69 57 17 67 14 60 -16z"/>
<path d="M21427 9623 c-4 -3 -7 -75 -7 -160 l0 -153 45 0 45 0 0 88 c0 109 12
136 63 140 37 3 37 4 37 48 0 42 -1 44 -30 44 -17 0 -39 -9 -50 -20 l-20 -20
0 20 c0 17 -7 20 -38 20 -21 0 -42 -3 -45 -7z"/>
<path d="M11485 9578 c-3 -7 -4 -159 -3 -338 l3 -325 90 0 90 0 0 335 0 335
-88 3 c-64 2 -89 -1 -92 -10z"/>
<path d="M11200 9250 l0 -270 70 0 70 0 0 270 0 270 -70 0 -70 0 0 -270z"/>
<path d="M14285 9506 c-37 -16 -82 -67 -102 -115 -59 -141 -21 -351 77 -417
28 -20 47 -24 105 -24 84 0 129 25 169 93 57 97 57 287 1 384 -48 81 -162 117
-250 79z m119 -111 c23 -24 36 -82 35 -165 -1 -97 -17 -150 -51 -170 -25 -13
-29 -13 -52 9 -55 52 -62 240 -12 316 19 29 57 33 80 10z"/>
<path d="M13800 9478 c-36 -16 -67 -32 -68 -33 -6 -5 8 -79 17 -94 7 -10 16
-9 49 8 23 12 46 21 52 21 6 0 10 -73 10 -215 l0 -216 63 3 62 3 3 278 2 277
-62 -1 c-48 -1 -79 -8 -128 -31z"/>
<path d="M16520 9249 c-35 -14 -78 -57 -103 -104 -18 -33 -22 -57 -22 -135 0
-102 16 -150 67 -197 83 -78 246 -68 310 18 28 37 50 94 41 103 -4 3 -26 6
-49 6 -38 0 -45 -4 -59 -29 -21 -41 -53 -61 -98 -61 -131 0 -158 263 -32 316
49 20 104 1 125 -43 14 -31 18 -33 68 -33 52 0 52 0 46 28 -11 49 -54 103 -97
123 -46 20 -154 25 -197 8z"/>
<path d="M17927 9253 c-4 -3 -7 -24 -7 -45 l0 -38 50 0 50 0 0 45 0 45 -43 0
c-24 0 -47 -3 -50 -7z"/>
<path d="M17740 9176 l0 -74 -37 20 c-68 35 -145 10 -186 -61 -24 -39 -33
-133 -18 -186 26 -98 136 -144 214 -91 35 24 37 24 37 6 0 -17 7 -20 45 -20
l45 0 0 240 0 240 -50 0 -50 0 0 -74z m-21 -152 c32 -40 29 -126 -4 -159 -29
-30 -64 -32 -96 -6 -34 27 -40 125 -9 164 29 37 80 38 109 1z"/>
<path d="M18882 9013 l3 -238 48 -3 47 -3 0 240 0 241 -50 0 -50 0 2 -237z"/>
<path d="M16954 9129 c-39 -11 -72 -47 -80 -87 l-6 -32 45 0 c37 0 48 4 61 25
18 27 53 33 87 15 39 -21 11 -60 -44 -60 -13 0 -47 -7 -75 -15 -59 -18 -82
-49 -82 -110 0 -47 14 -71 50 -90 40 -21 83 -19 131 5 34 18 40 19 45 5 4 -11
20 -15 56 -15 44 0 49 2 42 18 -5 9 -10 78 -12 152 -3 119 -6 137 -23 156 -35
37 -127 53 -195 33z m126 -218 c0 -59 -76 -103 -113 -66 -34 33 -13 62 57 82
58 16 56 16 56 -16z"/>
<path d="M17410 9133 c-8 -3 -27 -17 -42 -31 l-28 -26 0 27 c0 25 -3 27 -45
27 l-45 0 0 -180 0 -180 50 0 50 0 0 113 c0 106 2 115 23 135 14 13 36 22 55
22 32 0 32 0 32 50 0 52 -8 58 -50 43z"/>
<path d="M18243 9125 c-18 -8 -33 -19 -33 -25 0 -5 -4 -10 -10 -10 -5 0 -10 9
-10 20 0 17 -7 20 -45 20 l-45 0 0 -180 0 -180 50 0 50 0 0 120 c0 115 1 122
25 145 29 30 58 32 85 5 18 -18 20 -33 20 -145 l0 -125 51 0 51 0 -4 148 c-2
87 -9 156 -16 168 -12 23 -79 54 -115 54 -12 -1 -37 -7 -54 -15z"/>
<path d="M18584 9129 c-39 -11 -72 -47 -80 -87 l-6 -32 45 0 c37 0 48 4 61 25
18 27 53 33 87 15 39 -21 11 -60 -44 -60 -13 0 -47 -7 -75 -15 -59 -18 -82
-49 -82 -110 0 -47 14 -71 50 -90 40 -21 83 -19 131 5 34 18 40 19 45 5 4 -11
20 -15 56 -15 44 0 49 2 42 18 -5 9 -10 78 -12 152 -3 119 -6 137 -23 156 -35
37 -127 53 -195 33z m126 -218 c0 -59 -76 -103 -113 -66 -34 33 -13 62 57 82
58 16 56 16 56 -16z"/>
<path d="M17920 8950 l0 -180 50 0 50 0 0 180 0 180 -50 0 -50 0 0 -180z"/>
<path d="M18147 8463 c-4 -3 -7 -24 -7 -45 l0 -38 50 0 50 0 0 45 0 45 -43 0
c-24 0 -47 -3 -50 -7z"/>
<path d="M16370 8220 l0 -240 170 0 170 0 0 45 0 45 -120 0 -120 0 0 195 0
195 -50 0 -50 0 0 -240z"/>
<path d="M16850 8339 c-33 -14 -68 -47 -87 -83 -22 -42 -20 -157 4 -203 38
-73 154 -105 233 -65 31 15 80 72 80 93 0 5 -22 9 -48 9 -36 0 -54 -5 -67 -20
-25 -28 -70 -26 -100 5 -49 48 -38 55 96 55 l121 0 -4 60 c-5 63 -23 98 -69
132 -30 23 -123 33 -159 17z m108 -89 c41 -38 29 -50 -48 -50 l-71 0 16 29
c23 46 67 54 103 21z"/>
<path d="M17290 8339 c-13 -6 -33 -17 -42 -26 -17 -15 -18 -15 -18 5 0 19 -6
22 -45 22 l-45 0 0 -180 0 -180 50 0 50 0 0 128 c0 141 4 152 57 152 46 0 53
-20 53 -159 l0 -121 44 0 44 0 4 126 c3 119 4 127 27 145 24 20 59 18 73 -5 4
-6 8 -68 8 -138 l0 -128 50 0 50 0 0 143 c0 160 -7 182 -60 210 -42 22 -92 17
-133 -14 -25 -18 -30 -19 -40 -5 -13 17 -59 36 -85 35 -9 0 -28 -5 -42 -10z"/>
<path d="M17803 8330 c-59 -30 -97 -107 -91 -184 10 -119 78 -180 195 -174 67
4 100 21 137 72 18 23 21 42 21 116 0 96 -10 121 -68 164 -41 30 -140 33 -194
6z m134 -75 c31 -22 47 -85 33 -135 -31 -114 -160 -81 -160 42 0 41 5 54 29
79 33 32 65 37 98 14z"/>
<path d="M18463 8335 c-18 -8 -33 -19 -33 -25 0 -5 -4 -10 -10 -10 -5 0 -10 9
-10 20 0 17 -7 20 -45 20 l-45 0 0 -180 0 -180 50 0 50 0 0 120 c0 115 1 122
25 145 29 30 58 32 85 5 18 -18 20 -33 20 -145 l0 -125 51 0 51 0 -4 148 c-2
87 -9 156 -16 168 -12 23 -79 54 -115 54 -12 -1 -37 -7 -54 -15z"/>
<path d="M18810 8339 c-33 -14 -68 -47 -87 -83 -22 -42 -20 -157 4 -203 38
-73 154 -105 233 -65 31 15 80 72 80 93 0 5 -22 9 -48 9 -36 0 -54 -5 -67 -20
-25 -28 -70 -26 -100 5 -49 48 -38 55 96 55 l121 0 -4 60 c-5 63 -23 98 -69
132 -30 23 -123 33 -159 17z m108 -89 c41 -38 29 -50 -48 -50 l-71 0 16 29
c23 46 67 54 103 21z"/>
<path d="M18140 8160 l0 -180 50 0 50 0 0 180 0 180 -50 0 -50 0 0 -180z"/>
<path d="M14778 6625 c-3 -3 -34 -13 -68 -21 -143 -33 -282 -138 -348 -262
-37 -69 -72 -195 -72 -257 0 -62 35 -188 72 -258 41 -78 135 -172 215 -215 70
-37 196 -72 258 -72 62 0 188 35 257 72 204 109 326 381 265 593 -59 206 -187
337 -387 396 -77 23 -180 36 -192 24z m242 -89 c177 -75 287 -228 298 -416 2
-48 -1 -110 -7 -139 -53 -248 -297 -419 -545 -381 -265 39 -456 295 -416 556
23 151 131 300 263 363 91 43 128 51 242 47 82 -2 112 -8 165 -30z"/>
<path d="M15123 6229 c-39 -11 -73 -53 -73 -89 0 -38 30 -72 89 -99 60 -29 71
-49 39 -74 -22 -18 -57 -19 -100 -2 -13 5 -19 0 -24 -20 -9 -38 8 -46 88 -43
54 3 72 8 92 27 59 55 39 123 -49 165 -60 28 -75 47 -54 72 10 13 24 15 61 11
41 -5 48 -3 53 15 4 11 3 24 -2 28 -14 14 -86 19 -120 9z"/>
<path d="M14418 6224 c-5 -4 -8 -79 -8 -167 l0 -159 96 4 c94 3 96 4 125 36
37 42 37 75 -1 114 -30 29 -30 30 -10 46 32 28 35 65 7 98 -24 27 -30 29 -114
32 -48 2 -91 0 -95 -4z m152 -65 c16 -29 -12 -59 -57 -59 -31 0 -33 2 -33 33
0 42 5 47 46 47 24 0 37 -6 44 -21z m-16 -119 c20 -7 26 -17 26 -38 0 -38 -17
-52 -62 -52 l-38 0 0 43 c0 24 3 47 7 50 9 10 38 9 67 -3z"/>
<path d="M14712 6113 c5 -127 15 -163 59 -196 31 -22 113 -27 148 -8 49 27 61
66 61 199 l0 122 -35 0 -35 0 0 -118 c0 -134 -10 -162 -60 -162 -50 0 -60 28
-60 162 l0 118 -41 0 -41 0 4 -117z"/>
<path d="M14020 5460 c0 -980 2 -1110 15 -1110 8 0 15 -4 15 -10 0 -7 190 -10
550 -10 l550 0 0 60 0 60 -505 0 -505 0 0 1060 0 1060 -60 0 -60 0 0 -1110z"/>
<path d="M17660 6200 c-39 -39 -14 -100 43 -100 33 0 57 24 57 59 0 55 -61 80
-100 41z"/>
<path d="M17667 5829 c-32 -25 -35 -61 -7 -89 39 -39 100 -12 100 44 0 55 -50
79 -93 45z"/>
<path d="M17660 5450 c-39 -39 -14 -100 43 -100 33 0 57 24 57 59 0 55 -61 80
-100 41z"/>
<path d="M14526 5226 c-91 -25 -141 -109 -110 -185 8 -20 25 -44 37 -53 l22
-18 -32 -25 c-17 -14 -39 -45 -48 -70 -17 -43 -17 -45 6 -92 33 -66 87 -93
185 -93 85 0 148 28 178 79 38 65 19 155 -40 192 l-34 20 30 26 c73 61 47 184
-44 212 -58 18 -101 20 -150 7z m108 -98 c22 -31 20 -58 -6 -85 -28 -30 -53
-29 -83 2 -45 44 -21 105 40 105 24 0 39 -7 49 -22z m4 -241 c22 -20 29 -61
14 -83 -11 -16 -48 -34 -72 -34 -29 0 -70 44 -70 75 0 16 12 38 30 56 26 26
32 29 52 18 13 -6 33 -21 46 -32z"/>
<path d="M14995 5231 c-99 -24 -157 -92 -159 -186 0 -63 27 -112 82 -143 48
-26 122 -29 157 -6 32 21 33 3 3 -42 -31 -45 -70 -65 -139 -71 l-59 -6 0 -45
0 -45 78 5 c165 10 258 101 278 273 9 70 -17 171 -53 209 -42 46 -127 71 -188
57z m79 -104 c15 -11 35 -69 36 -104 0 -25 -39 -53 -73 -53 -60 0 -94 69 -63
128 22 43 64 55 100 29z"/>
<path d="M17667 5079 c-32 -25 -35 -61 -7 -89 39 -39 100 -12 100 44 0 55 -50
79 -93 45z"/>
<path d="M17660 4700 c-39 -39 -14 -100 43 -100 33 0 57 24 57 59 0 55 -61 80
-100 41z"/>
<path d="M17680 4337 c-35 -18 -46 -41 -34 -74 22 -64 114 -48 114 21 0 48
-39 74 -80 53z"/>
<path d="M17566 3828 l136 -273 135 269 c74 147 132 270 130 273 -3 2 -64 -25
-136 -61 l-131 -66 -130 65 c-71 36 -132 65 -135 65 -3 0 56 -123 131 -272z"/>
<path d="M18660 3160 l0 -40 40 0 40 0 0 40 0 40 -40 0 -40 0 0 -40z"/>
<path d="M17478 3018 l-3 -173 -28 -3 c-38 -5 -57 14 -57 54 0 34 0 34 -46 34
l-46 0 7 -47 c12 -85 39 -112 116 -119 63 -6 116 16 136 56 9 17 13 80 13 198
l0 172 -45 0 -45 0 -2 -172z"/>
<path d="M16350 3083 c-57 -21 -101 -119 -86 -194 16 -88 90 -138 180 -125 49
8 106 53 106 84 0 23 -73 21 -98 -2 -25 -22 -58 -20 -82 4 -42 42 -29 50 85
50 l105 0 0 37 c0 54 -35 118 -74 137 -33 15 -105 20 -136 9z m102 -80 c34
-31 23 -43 -42 -43 -33 0 -60 3 -60 8 0 4 7 18 16 30 18 26 60 29 86 5z"/>
<path d="M16716 3069 c-21 -17 -26 -18 -26 -5 0 12 -10 16 -40 16 l-40 0 0
-155 0 -155 40 0 40 0 0 95 c0 88 2 98 25 120 13 14 36 25 50 25 23 0 25 4 25
40 0 35 -3 40 -24 40 -13 0 -35 -9 -50 -21z"/>
<path d="M16878 3074 c-35 -18 -48 -43 -48 -88 0 -43 28 -72 85 -87 89 -23
106 -31 103 -47 -5 -27 -82 -29 -105 -3 -23 28 -93 30 -93 3 0 -88 183 -127
255 -54 22 21 25 33 23 71 -3 38 -8 49 -34 66 -17 12 -57 27 -88 34 -61 14
-74 24 -56 46 18 21 57 18 80 -5 25 -25 90 -28 90 -4 0 26 -19 53 -50 69 -37
19 -127 19 -162 -1z"/>
<path d="M18048 3074 c-35 -18 -48 -43 -48 -88 0 -43 28 -72 85 -87 89 -23
106 -31 103 -47 -5 -27 -82 -29 -105 -3 -23 28 -93 30 -93 3 0 -88 183 -127
255 -54 22 21 25 33 23 71 -3 38 -8 49 -34 66 -17 12 -57 27 -88 34 -61 14
-74 24 -56 46 18 21 57 18 80 -5 25 -25 90 -28 90 -4 0 26 -19 53 -50 69 -37
19 -127 19 -162 -1z"/>
<path d="M18368 3074 c-35 -18 -48 -43 -48 -88 0 -43 28 -72 85 -87 89 -23
106 -31 103 -47 -5 -27 -82 -29 -105 -3 -23 28 -93 30 -93 3 0 -88 183 -127
255 -54 22 21 25 33 23 71 -3 38 -8 49 -34 66 -17 12 -57 27 -88 34 -61 14
-74 24 -56 46 18 21 57 18 80 -5 25 -25 90 -28 90 -4 0 26 -19 53 -50 69 -37
19 -127 19 -162 -1z"/>
<path d="M18880 3083 c-57 -21 -101 -119 -86 -194 16 -88 90 -138 180 -125 49
8 106 53 106 84 0 23 -73 21 -98 -2 -25 -22 -58 -20 -82 4 -42 42 -29 50 85
50 l105 0 0 37 c0 54 -35 118 -74 137 -33 15 -105 20 -136 9z m102 -80 c34
-31 23 -43 -42 -43 -33 0 -60 3 -60 8 0 4 7 18 16 30 18 26 60 29 86 5z"/>
<path d="M15931 3073 c0 -4 24 -73 53 -153 l52 -145 45 -3 45 -3 56 156 55
155 -46 0 -46 0 -29 -105 c-16 -58 -31 -104 -33 -101 -2 2 -16 48 -32 102
l-28 99 -46 3 c-26 2 -47 -1 -46 -5z"/>
<path d="M17650 2950 c0 -126 1 -132 25 -155 20 -20 34 -25 78 -25 36 0 59 5
67 15 7 8 16 15 21 15 5 0 9 -7 9 -15 0 -11 11 -15 40 -15 l40 0 0 155 0 155
-45 0 -45 0 0 -102 c0 -110 -3 -118 -38 -137 -19 -10 -28 -10 -48 4 -23 15
-24 20 -24 125 l0 110 -40 0 -40 0 0 -130z"/>
<path d="M18660 2925 l0 -155 40 0 40 0 0 155 0 155 -40 0 -40 0 0 -155z"/>
<path d="M19140 2950 c0 -126 1 -132 25 -155 20 -20 34 -25 78 -25 36 0 59 5
67 15 7 8 16 15 21 15 5 0 9 -7 9 -15 0 -11 11 -15 40 -15 l40 0 0 155 0 155
-45 0 -45 0 0 -102 c0 -110 -3 -118 -38 -137 -19 -10 -28 -10 -48 4 -23 15
-24 20 -24 125 l0 110 -40 0 -40 0 0 -130z"/>
<path d="M16342 2478 c-5 -7 -25 -42 -43 -78 -28 -56 -33 -78 -37 -157 -3 -70
0 -105 14 -149 25 -82 72 -148 107 -152 33 -4 33 2 5 64 -65 147 -64 292 2
427 l28 57 -33 0 c-18 0 -37 -6 -43 -12z"/>
<path d="M18970 2485 c0 -3 10 -25 22 -48 32 -64 48 -134 48 -217 -1 -90 -12
-143 -45 -212 -31 -65 -31 -68 4 -68 23 0 34 8 53 37 93 150 100 296 21 445
-33 64 -38 68 -69 68 -19 0 -34 -2 -34 -5z"/>
<path d="M16670 2415 c0 -36 -2 -65 -5 -65 -3 0 -17 7 -31 16 -31 21 -106 14
-136 -12 -31 -28 -48 -77 -48 -140 0 -70 22 -117 67 -145 40 -25 102 -22 134
7 17 16 19 16 19 1 0 -13 9 -17 40 -17 l40 0 0 210 0 210 -40 0 -40 0 0 -65z
m-45 -111 c21 -8 45 -56 45 -89 0 -88 -88 -127 -125 -55 -19 37 -19 73 0 110
19 37 44 47 80 34z"/>
<path d="M18490 2415 c0 -38 -3 -45 -20 -45 -16 0 -20 -7 -20 -30 0 -23 4 -30
20 -30 19 0 20 -7 20 -109 0 -130 6 -141 81 -141 48 0 49 1 49 29 0 23 -5 30
-22 33 -22 3 -23 8 -26 96 l-3 92 26 0 c21 0 25 5 25 30 0 25 -4 30 -25 30
-23 0 -25 4 -25 45 l0 45 -40 0 -40 0 0 -45z"/>
<path d="M16880 2373 c-57 -21 -101 -119 -86 -194 16 -88 90 -138 180 -125 49
8 106 53 106 84 0 23 -73 21 -98 -2 -25 -22 -58 -20 -82 4 -42 42 -29 50 85
50 l105 0 0 37 c0 54 -35 118 -74 137 -33 15 -105 20 -136 9z m102 -80 c34
-31 23 -43 -42 -43 -33 0 -60 3 -60 8 0 4 7 18 16 30 18 26 60 29 86 5z"/>
<path d="M17188 2364 c-35 -18 -48 -43 -48 -88 0 -43 28 -72 85 -87 89 -23
106 -31 103 -47 -5 -27 -82 -29 -105 -3 -23 28 -93 30 -93 3 0 -88 183 -127
255 -54 22 21 25 33 23 71 -3 38 -8 49 -34 66 -17 12 -57 27 -88 34 -61 14
-74 24 -56 46 18 21 57 18 80 -5 25 -25 90 -28 90 -4 0 26 -19 53 -50 69 -37
19 -127 19 -162 -1z"/>
<path d="M17521 2363 c-97 -48 -93 -258 6 -299 52 -22 126 -14 160 17 22 20
53 75 53 94 0 3 -20 5 -45 5 -31 0 -45 -4 -45 -13 0 -19 -33 -47 -53 -47 -34
0 -57 37 -57 93 0 61 20 97 55 97 24 0 55 -23 55 -41 0 -5 20 -9 45 -9 44 0
45 1 39 28 -11 46 -24 63 -59 78 -46 19 -112 17 -154 -3z"/>
<path d="M17860 2373 c-57 -21 -101 -119 -86 -194 16 -88 90 -138 180 -125 49
8 106 53 106 84 0 23 -73 21 -98 -2 -25 -22 -58 -20 -82 4 -42 42 -29 50 85
50 l105 0 0 37 c0 54 -35 118 -74 137 -33 15 -105 20 -136 9z m102 -80 c34
-31 23 -43 -42 -43 -33 0 -60 3 -60 8 0 4 7 18 16 30 18 26 60 29 86 5z"/>
<path d="M18226 2359 c-21 -17 -26 -18 -26 -5 0 12 -10 16 -40 16 l-40 0 0
-155 0 -155 40 0 40 0 0 105 c0 93 2 107 21 126 27 27 70 22 86 -11 8 -15 13
-64 13 -122 l0 -98 40 0 40 0 0 131 0 131 -29 29 c-37 37 -104 41 -145 8z"/>
<path d="M18730 2373 c-57 -21 -101 -119 -86 -194 16 -88 90 -138 180 -125 49
8 106 53 106 84 0 23 -73 21 -98 -2 -25 -22 -58 -20 -82 4 -42 42 -29 50 85
50 l105 0 0 37 c0 54 -35 118 -74 137 -33 15 -105 20 -136 9z m102 -80 c34
-31 23 -43 -42 -43 -33 0 -60 3 -60 8 0 4 7 18 16 30 18 26 60 29 86 5z"/>
<path d="M16840 1348 c-62 -32 -90 -77 -90 -145 0 -99 30 -128 168 -164 119
-30 141 -39 147 -60 17 -51 -21 -82 -102 -82 -57 0 -88 18 -104 61 -7 19 -16
22 -64 22 -53 0 -55 -1 -55 -26 0 -48 40 -102 94 -129 64 -32 188 -35 251 -6
96 43 132 153 79 238 -20 32 -74 57 -182 83 -51 12 -100 29 -108 37 -18 19
-18 48 2 67 47 48 174 22 174 -36 0 -15 8 -18 61 -18 l62 0 -6 36 c-8 50 -48
97 -101 123 -64 30 -166 29 -226 -1z"/>
<path d="M17680 1310 l0 -50 55 0 55 0 0 50 0 50 -55 0 -55 0 0 -50z"/>
<path d="M17361 1220 c-47 -11 -82 -40 -110 -90 -20 -36 -25 -58 -25 -119 1
-97 21 -143 83 -182 37 -24 56 -29 109 -29 76 0 123 19 158 65 39 51 33 65
-27 65 -36 0 -58 -6 -76 -20 -14 -11 -39 -20 -55 -20 -34 0 -78 39 -78 70 0
19 6 20 135 20 l135 0 0 38 c0 97 -56 181 -135 201 -49 12 -65 12 -114 1z
m106 -112 c41 -38 31 -48 -52 -48 -41 0 -75 4 -75 9 0 4 9 20 21 35 26 33 73
35 106 4z"/>
<path d="M18064 1219 c-17 -5 -37 -16 -44 -24 -16 -19 -34 -19 -26 0 4 12 -5
15 -49 15 l-55 0 0 -200 0 -200 55 0 55 0 0 135 c0 131 1 137 25 160 31 32 78
33 99 3 13 -18 16 -52 16 -160 l0 -138 55 0 55 0 0 169 c0 166 -1 170 -25 199
-15 18 -41 34 -69 41 -51 12 -50 12 -92 0z"/>
<path d="M18451 1220 c-47 -11 -82 -40 -110 -90 -20 -36 -25 -58 -25 -119 1
-97 21 -143 83 -182 37 -24 56 -29 109 -29 76 0 123 19 158 65 39 51 33 65
-27 65 -36 0 -58 -6 -76 -20 -14 -11 -39 -20 -55 -20 -34 0 -78 39 -78 70 0
19 6 20 135 20 l135 0 0 38 c0 97 -56 181 -135 201 -49 12 -65 12 -114 1z
m106 -112 c41 -38 31 -48 -52 -48 -41 0 -75 4 -75 9 0 4 9 20 21 35 26 33 73
35 106 4z"/>
<path d="M17680 1016 l0 -206 55 0 55 0 -2 203 -3 202 -52 3 -53 3 0 -205z"/>
</g>
</svg>
