<?xml version="1.0" encoding="UTF-8" standalone="no"?>
<!-- Created with Inkscape (http://www.inkscape.org/) -->

<svg xmlns:dc="http://purl.org/dc/elements/1.1/" xmlns:cc="http://creativecommons.org/ns#" xmlns:rdf="http://www.w3.org/1999/02/22-rdf-syntax-ns#" xmlns:svg="http://www.w3.org/2000/svg" xmlns="http://www.w3.org/2000/svg" xmlns:xlink="http://www.w3.org/1999/xlink" xmlns:inkscape="http://www.inkscape.org/namespaces/inkscape" version="1.0" width="630" height="430" id="svg6776">
  <metadata id="metadata6781">
    <rdf:RDF>
      <cc:Work rdf:about="">
        <dc:format>image/svg+xml</dc:format>
        <dc:type rdf:resource="http://purl.org/dc/dcmitype/StillImage" />
        <dc:title />
      </cc:Work>
    </rdf:RDF>
  </metadata>
  <defs id="defs4">
    <rect width="29.387241" height="16.530323" x="0" y="0" id="littlered" style="fill:#b80000;fill-opacity:1;stroke:none" />
  </defs>
  <path d="M 323.86517,165.55548 311.7573,194.0704 c -21.91904,-4.42708 -41.57532,-1.50293 -63.18411,3.28159 -4.61562,-21.62345 -10.37997,-36.4397 -20.73179,-55.15768 32.29675,-34.71863 67.65604,-40.95943 105.69962,-52.604083" inkscape:connector-curvature="0" id="path6014" style="fill:none;stroke:#000000;stroke-width:2;stroke-linecap:round;stroke-linejoin:round;stroke-miterlimit:4;stroke-opacity:1;stroke-dasharray:none" />
  <path d="m 358.97975,215.17005 -18.25245,37.85998 c -1.96934,1.50884 -34.83002,26.27924 -37.79429,28.4204 -3.97107,-0.0109 -26.13525,-0.28059 -29.95501,-1.19167 -17.54424,-17.78275 -36.91409,-33.64424 -55.69284,-50.09192" inkscape:connector-curvature="0" id="path6012" style="fill:none;stroke:#000000;stroke-width:2;stroke-linecap:round;stroke-linejoin:round;stroke-miterlimit:4;stroke-opacity:1;stroke-dasharray:none" />
  <path d="m 337.40932,162.3532 c 2.86855,3.51366 4.46281,5.89303 9.58066,9.38947 10.95515,4.94555 44.57485,14.05621 66.60316,22.1495 l 12.00473,-31.65934" inkscape:connector-curvature="0" id="path6002" style="fill:none;stroke:#000000;stroke-width:2;stroke-linecap:round;stroke-linejoin:round;stroke-miterlimit:4;stroke-opacity:1;stroke-dasharray:none" />
  <path d="M 369.44691,316.37842 413.74682,193.76935" inkscape:connector-curvature="0" id="path6004" style="fill:none;stroke:#000000;stroke-width:2;stroke-linecap:round;stroke-linejoin:round;stroke-miterlimit:4;stroke-opacity:1;stroke-dasharray:none" />
  <path d="m 404.14344,157.13285 -27.38392,-6.38399 -52.23766,15.44926 -0.57131,-0.4256 -0.44717,0.64148 c 11.54044,-22.9024 6.92662,-49.01777 9.63136,-76.576303" inkscape:connector-curvature="0" id="path6016" style="fill:none;stroke:#000000;stroke-width:2;stroke-linecap:round;stroke-linejoin:round;stroke-miterlimit:4;stroke-opacity:1;stroke-dasharray:none" />
  <path d="m 500.53834,147.13128 -5.63189,2.46847 -16.07935,9.78878 -5.06058,3.40481 -16.40588,8.08638 -3.42806,-1.53217 -28.56753,-7.23517 -21.22161,-5.02209 c 3.01349,-32.8029 4.73293,-44.52916 4.24442,-68.776863" inkscape:connector-curvature="0" id="path6018" style="fill:none;stroke:#000000;stroke-width:2;stroke-linecap:round;stroke-linejoin:round;stroke-miterlimit:4;stroke-opacity:1;stroke-dasharray:none" />
  <path d="m 575.14824,269.09176 c -39.12848,-7.70528 -68.85094,-6.02825 -102.22404,-28.25231 -0.49493,-30.32427 -3.84547,-43.71263 -15.35222,-69.93943" inkscape:connector-curvature="0" id="path8201" style="fill:none;stroke:#000000;stroke-width:2;stroke-linecap:round;stroke-linejoin:round;stroke-miterlimit:4;stroke-opacity:1;stroke-dasharray:none" />
  <path d="m 390.92271,411.98206 c -4.73579,-21.86243 -5.0043,-70.13314 -3.51149,-90.26992 l 29.71005,8.5971 34.58027,-16.48862 9.19829,-30.53899" inkscape:connector-curvature="0" id="path8205" style="fill:none;stroke:#000000;stroke-width:2;stroke-linecap:round;stroke-linejoin:round;stroke-miterlimit:4;stroke-opacity:1;stroke-dasharray:none" />
  <path d="m 330.20983,295.77634 39.5711,20.91372 17.79345,5.02208" inkscape:connector-curvature="0" id="path8207" style="fill:none;stroke:#000000;stroke-width:2;stroke-linecap:round;stroke-linejoin:round;stroke-miterlimit:4;stroke-opacity:1;stroke-dasharray:none" />
  <path d="m 302.93301,281.45043 27.26154,14.32981 c -18.1525,22.99472 -51.36435,60.24363 -64.79627,88.95942" inkscape:connector-curvature="0" id="path8211" style="fill:none;stroke:#000000;stroke-width:2;stroke-linecap:round;stroke-linejoin:round;stroke-miterlimit:4;stroke-opacity:1;stroke-dasharray:none" />
  <path d="M 227.8414,142.19431 185.21758,116.28745" inkscape:connector-curvature="0" id="path8217" style="fill:none;stroke:#000000;stroke-width:2;stroke-linecap:round;stroke-linejoin:round;stroke-miterlimit:4;stroke-opacity:1;stroke-dasharray:none" />
  <path d="m 472.48183,12.275647 c 3.73765,24.90231 -4.98163,44.47847 -6.97314,72.532 -17.44922,-1.12075 -39.81539,1.17749 -57.1099,3.75404 -28.10382,1.53937 -55.74136,-4.25633 -75.49125,1.32415 l 0.13703,-0.87357 c -2.85836,-30.70015 2.74571,-49.62055 6.46808,-73.95483" inkscape:connector-curvature="0" id="path8219" style="fill:none;stroke:#000000;stroke-width:2;stroke-linecap:round;stroke-linejoin:round;stroke-miterlimit:4;stroke-opacity:1;stroke-dasharray:none" />
  <path d="m 616.98086,273.4618 -25.51009,-2.40755 -16.04471,-2.04642 C 561.35422,221.15481 535.37724,189.87852 504.43652,153.20451 l -3.9246,-5.89852 c 24.08818,-13.01356 59.38954,-16.65082 97.37804,-27.87278" inkscape:connector-curvature="0" id="path8225" style="fill:none;stroke:#000000;stroke-width:2;stroke-linecap:round;stroke-linejoin:round;stroke-miterlimit:4;stroke-opacity:1;stroke-dasharray:none" />
  <path d="M 447.92006,420.33879 C 349.60156,409.72433 250.44043,392.59008 159.01989,353.55571 138.2942,342.49682 110.05301,332.69263 102.4198,308.55557 105.5186,264.66371 126.34302,224.38849 144.63267,185.12866 174.85912,124.55001 213.86068,62.120002 277.87669,33.099902 332.83281,6.4526977 395.63157,6.0526406 455.39551,7.856553 c 27.61552,1.3154904 55.14088,4.176409 82.51484,8.011504 40.01207,28.024172 54.08731,77.165759 68.69474,121.099163 10.2955,56.59472 21.81642,115.68084 8.39107,172.71895 -7.10098,28.88641 -34.57408,46.00034 -55.25641,65.14478 -32.09167,25.35174 -71.41002,40.34537 -111.81969,45.50784 z" inkscape:connector-curvature="0" id="peripherie" style="fill:none;stroke:#000000;stroke-width:8;stroke-miterlimit:4;stroke-opacity:1;stroke-dasharray:none">
    <desc id="desc3878">Le contour de Paris (hors forêts de Boulogne et Vincennes)</desc>
  </path>
  <path d="m 472.86876,241.35897 c 1.21108,12.00993 -5.82292,23.99693 -9.71987,35.19706" inkscape:connector-curvature="0" id="path8203" style="fill:none;stroke:#000000;stroke-width:2;stroke-linecap:round;stroke-linejoin:round;stroke-miterlimit:4;stroke-opacity:1;stroke-dasharray:none" />
  <path d="m 175.43028,28.199767 0,0 z" inkscape:connector-curvature="0" id="path3729" style="fill:#aaccff;fill-opacity:1;stroke:none" />
  <path d="m 419.17559,186.25611 -26.60856,-14.1299 -12.56968,22.30141 27.58799,12.08703 11.59025,-20.25854 z" inkscape:connector-curvature="0" id="path5109" style="fill:none;stroke:none" />
  <path d="M 500.51192,147.30599 C 482.42744,126.32194 481.76909,103.62274 466.25462,85.048397" inkscape:connector-curvature="0" id="path8221" style="fill:none;stroke:#000000;stroke-width:2;stroke-linecap:round;stroke-linejoin:round;stroke-miterlimit:4;stroke-opacity:1;stroke-dasharray:none" />
  <path d="m 444.5,246.9062 c -5.46123,-3.51177 -56.73271,-30.40771 -60.35187,-31.38397 -2.8387,-0.76573 -12.3644,-2.5433 -15.33563,-3.27223 -17.07508,-6.26449 -32.26428,-14.6663 -48.3125,-21.84375 -25.61582,-9.96202 -50.46519,-10.83681 -86.66237,10.15073 -54.88177,41.13283 -76.34452,93.24709 -113.87684,145.14216 -35.88389,42.03107 -69.389099,43.35268 -89.52329,8.0095 -21.384037,-51.71463 19.314101,-124.23796 54,-182.64614 30.77606,-50.5082 64.46231,-87.38118 85.58639,-114.21875 31.88472,-34.84962 66.17954,-60.7769662 66.17954,-60.7769662 6.89391,-6.2435788 -2.89023,-9.1691118 -8.64093,-6.6795368 C 209.56945,-2.4804127 199.14209,4.2889736 160.63296,47.070464 93.321764,123.65427 91.44139,137.05946 71.59375,168.4375 c -32.056192,55.25105 -81.116892,130.91606 -54.625,193.40625 9.320737,15.70884 29.049379,29.97936 48.21875,31.4375 19.20679,0.26279 37.32797,-11.25529 63.78125,-38.15625 43.92467,-50.93936 64.71378,-111.41192 116.78125,-148.8125 24.35379,-10.98848 39.43771,-12.00991 59.96875,-8.8125 17.47106,5.17144 43.6734,17.6502 64.03125,25.90625 l 9.28125,12.8125 0.0625,0.0312 c 0,0 -9.56137,-5.50465 -0.0312,0.0312 9.53017,5.53585 38.16522,19.18813 56.31245,29.28125 l 14.3125,9.90625 c 52.47566,69.86358 85.68587,100.07646 156.80827,171.31253 14.56752,11.1044 28.74037,6.66377 9.25612,-10.00613 C 543.62367,365.60911 513.98915,337.49766 459.6783,269.27021 m -81.52205,-47.80146 c 10.41769,2.34581 21.6053,7.80884 29,13.84375 l 2.09375,8 -6.03125,-2.8125 c -6.4563,-3.41294 -12.45989,-5.21354 -17.65625,-9.9375 -2.42677,-3.06556 -4.91796,-6.07828 -7.40625,-9.09375 z m 38.0625,16.4375 c 8.92674,4.85451 15.78508,8.57443 23.8125,13.75 l 2.96875,5.9375 -1.5,1.875 c -8.0978,-5.45047 -15.82371,-7.20538 -23.1562,-12.0937 -1.39648,-3.75245 -1.10699,-4.51748 -2.125,-9.46875 z" inkscape:connector-curvature="0" id="path3756" style="fill:#0078ee;fill-opacity:1;stroke:none" />
  <path d="m 84.110972,24.352297 c 1.51632,1.04587 5.48813,4.36579 7.49909,8.07321 4.67208,8.61495 6.59664,19.72771 9.834908,25.03138 7.26624,11.9003 7.75742,11.45145 12.66581,17.15645 3.98477,4.63147 7.71595,12.25584 5.07513,16.00992 -2.05804,2.92507 -5.19523,4.73126 -12.68308,3.04603 -10.298018,-2.31768 -25.720848,-1.64981 -33.909408,0.33005 -20.47119,4.94812 -41.07802,-7.6356 -46.02658,-28.10679 -4.94813,-20.47161 7.63603,-41.07845 28.10722,-46.02657 9.45691,-2.28658 20.54592,-1.64592 29.43691,4.48675 z" inkscape:connector-curvature="0" id="path110" style="fill:none;stroke:#212121;stroke-width:6;stroke-miterlimit:4;stroke-dasharray:none" />
  <a xlink:href="/home/darnuria/code/LittleMap/www/img/plans/fr-92800-parvis/fr-92800-parvis-quartier.png" transform="translate(-279.17878,-545.50063)" id="a-arch">
    <use id="arche" x="322.34125" y="589.58899" width="950" height="1050" xlink:href="#littlered" />
  </a>
  <a xlink:href="/home/darnuria/code/LittleMap/www/img/plans/fr-92800-esplanade/fr-92800-esplanade-metro.png" transform="translate(-279.17878,-545.50063)" id="a-esplanade">
    <use id="esplanade" x="356.32028" y="615.3028" width="950" height="1050" xlink:href="#littlered" />
  </a>
</svg>
