<?xml version="1.0" encoding="UTF-8" standalone="no"?>
<!-- Created with Inkscape (http://www.inkscape.org/) -->

<svg xmlns:dc="http://purl.org/dc/elements/1.1/" xmlns:cc="http://creativecommons.org/ns#" xmlns:rdf="http://www.w3.org/1999/02/22-rdf-syntax-ns#" xmlns:svg="http://www.w3.org/2000/svg" xmlns="http://www.w3.org/2000/svg" xmlns:inkscape="http://www.inkscape.org/namespaces/inkscape" version="1.0" width="3508pt" height="2480pt" viewBox="0 0 3508 2480" id="svg2">
  <defs id="defs496" />
  <metadata id="metadata4">
Created by potrace 1.11, written by Peter Selinger 2001-2013
<rdf:RDF>
  <cc:Work rdf:about="">
    <dc:format>image/svg+xml</dc:format>
    <dc:type rdf:resource="http://purl.org/dc/dcmitype/StillImage" />
  </cc:Work>
</rdf:RDF>
</metadata>
  <g transform="matrix(0.1,0,0,-0.1,0,2480)" id="g6" style="fill:#000000;stroke:none">
    <path d="m 1563,23612 c -18,-2 -33,-5 -33,-7 0,-2 -7,-39 -15,-82 -19,-99 -20,-95 12,-91 26,3 28,7 42,86 l 14,82 42,0 c 56,0 74,-20 51,-55 -13,-20 -25,-25 -58,-25 l -41,0 39,-44 c 31,-35 46,-44 73,-45 l 35,-1 -32,33 c -18,18 -32,36 -32,39 0,3 12,9 28,13 52,13 81,61 50,82 -16,9 -130,19 -175,15 z" inkscape:connector-curvature="0" id="path8" />
    <path d="m 2830,22736 c 0,-795 2,-884 16,-890 8,-3 2136,-5 4727,-3 l 4712,2 3,888 2,887 -4730,0 -4730,0 0,-884 z m 4790,-21 0,-355 -75,0 -75,0 0,355 0,355 75,0 75,0 0,-355 z m 3920,0 0,-355 -75,0 -75,0 0,355 0,355 75,0 75,0 0,-355 z m -6890,270 -61,-75 -51,0 -50,0 38,68 c 20,37 39,70 41,75 2,4 36,7 74,7 l 70,0 -61,-75 z m 3755,50 c 14,-13 25,-36 25,-50 0,-36 -42,-75 -80,-75 -38,0 -80,39 -80,75 0,36 42,75 80,75 19,0 40,-9 55,-25 z m -4627,-187 c 29,-101 55,-202 58,-226 4,-23 10,-44 14,-47 3,-2 15,31 25,73 10,42 39,145 65,227 l 48,150 101,3 101,3 0,-38 c 0,-21 7,-150 15,-288 8,-137 15,-271 15,-297 l 0,-48 -69,0 -69,0 -6,63 c -3,34 -9,151 -13,260 l -8,199 -38,-129 c -21,-70 -56,-185 -78,-255 l -40,-128 -59,0 -59,0 -11,43 c -7,23 -27,96 -45,162 -19,66 -43,160 -54,208 -10,49 -21,90 -24,93 -2,2 -7,-80 -11,-183 -3,-104 -9,-221 -13,-260 l -6,-73 -69,0 -70,0 6,48 c 3,26 13,176 23,335 l 17,287 101,0 102,0 51,-182 z m 2924,168 c 98,-23 152,-78 164,-168 19,-136 -81,-232 -252,-245 l -74,-6 0,-118 0,-119 -75,0 -75,0 0,329 0,330 53,4 c 120,8 205,6 259,-7 z m 2809,0 c 31,-7 71,-23 89,-36 36,-26 69,-90 70,-134 0,-49 -38,-113 -81,-140 l -40,-23 25,-17 c 35,-22 49,-54 81,-171 14,-55 29,-108 32,-118 4,-16 -2,-18 -73,-15 l -78,3 -19,65 c -41,151 -49,170 -70,185 -12,8 -41,15 -64,15 l -43,0 0,-135 0,-135 -75,0 -75,0 0,329 0,330 48,4 c 110,8 221,6 273,-7 z m -4481,-111 0,-65 55,0 55,0 0,-55 0,-55 -55,0 -55,0 0,-110 c 0,-98 2,-112 21,-131 15,-15 30,-20 50,-17 l 29,5 0,-58 0,-58 -36,-7 c -47,-9 -118,2 -150,22 -48,32 -58,67 -62,217 l -4,137 -29,0 c -28,0 -29,1 -29,55 0,54 0,55 30,55 29,0 30,2 30,45 l 0,44 58,16 c 31,9 62,18 67,20 23,8 25,2 25,-60 z m -372,-79 c 64,-33 101,-100 109,-197 l 6,-69 -162,0 c -179,0 -188,-4 -133,-60 35,-35 102,-47 181,-32 31,5 59,7 63,3 4,-3 8,-26 10,-51 l 3,-44 -50,-12 c -117,-28 -236,-9 -302,49 -52,46 -73,98 -73,183 0,59 5,81 28,125 30,58 87,105 143,120 45,11 143,3 177,-15 z m 872,-45 0,-68 -47,-6 c -37,-4 -54,-12 -75,-36 -28,-31 -28,-32 -28,-171 l 0,-140 -75,0 -75,0 0,240 0,240 65,0 65,0 0,-47 0,-48 26,39 c 28,40 71,65 117,66 27,0 27,0 27,-69 z m 425,41 c 86,-44 128,-117 128,-223 0,-180 -158,-288 -341,-234 -106,32 -166,117 -165,236 0,115 61,201 163,234 61,20 164,14 215,-13 z m 1304,-3 c 22,-12 49,-39 62,-63 22,-38 24,-55 27,-218 l 4,-178 -66,0 c -62,0 -66,1 -72,25 -6,24 -8,24 -23,11 -80,-72 -221,-53 -261,36 -23,51 -25,87 -6,131 27,67 124,117 222,117 50,0 59,9 39,37 -21,30 -79,37 -148,18 -32,-8 -60,-15 -62,-15 -4,0 -25,69 -25,83 0,4 12,12 28,18 89,35 218,34 281,-2 z m 810,0 c 22,-12 49,-39 62,-63 22,-38 24,-55 27,-218 l 4,-178 -66,0 c -62,0 -66,1 -72,25 -6,24 -8,24 -23,11 -80,-72 -221,-53 -261,36 -23,51 -25,87 -6,131 27,67 124,117 222,117 50,0 59,9 39,37 -21,30 -79,37 -148,18 -32,-8 -60,-15 -62,-15 -4,0 -25,69 -25,83 0,4 12,12 28,18 89,35 218,34 281,-2 z m 773,12 c 26,-10 26,-10 14,-58 -7,-26 -14,-47 -17,-47 -109,29 -163,22 -157,-18 3,-23 9,-26 110,-73 64,-29 89,-61 95,-119 12,-120 -142,-198 -300,-152 -62,18 -65,23 -47,88 l 11,37 41,-15 c 60,-21 135,-19 147,4 11,21 -11,62 -33,62 -31,0 -137,63 -151,90 -43,84 4,178 105,209 39,12 142,7 182,-8 z m 1293,-9 c 86,-44 128,-117 128,-223 0,-180 -158,-288 -341,-234 -106,32 -166,117 -165,236 0,115 61,201 163,234 61,20 164,14 215,-13 z m 1044,-3 c 22,-12 49,-39 62,-63 22,-38 24,-55 27,-218 l 4,-178 -66,0 c -62,0 -66,1 -72,25 -6,24 -8,24 -23,11 -80,-72 -221,-53 -261,36 -23,51 -25,87 -6,131 27,67 124,117 222,117 50,0 59,9 39,37 -21,30 -79,37 -148,18 -32,-8 -60,-15 -62,-15 -4,0 -25,69 -25,83 0,4 12,12 28,18 89,35 218,34 281,-2 z m -2759,-219 0,-240 -75,0 -75,0 0,240 0,240 75,0 75,0 0,-240 z m 2084,107 c 21,-72 43,-148 49,-167 10,-33 12,-26 52,130 l 41,165 82,3 81,3 -18,-53 c -132,-378 -180,-490 -239,-558 -39,-47 -104,-87 -146,-92 -27,-3 -30,0 -42,47 -19,70 -19,70 27,90 42,20 89,67 89,91 0,7 -40,115 -90,239 -49,124 -90,227 -90,230 0,3 37,5 83,5 l 82,0 39,-133 z" inkscape:connector-curvature="0" id="path10" />
    <path d="m 6558,22913 c -16,-4 -18,-17 -18,-99 l 0,-94 50,0 c 87,0 130,36 130,109 0,57 -89,103 -162,84 z" inkscape:connector-curvature="0" id="path12" />
    <path d="m 9353,22914 c -9,-4 -13,-32 -13,-90 l 0,-84 53,0 c 89,0 140,48 123,115 -4,14 -17,32 -30,40 -25,16 -112,29 -133,19 z" inkscape:connector-curvature="0" id="path14" />
    <path d="m 4479,22721 c -51,-52 -42,-61 62,-61 l 91,0 -6,28 c -16,66 -96,84 -147,33 z" inkscape:connector-curvature="0" id="path16" />
    <path d="m 5777,22720 c -73,-58 -56,-225 27,-254 104,-38 172,146 90,244 -31,36 -78,40 -117,10 z" inkscape:connector-curvature="0" id="path18" />
    <path d="m 7103,22575 c -37,-16 -51,-54 -34,-91 9,-19 18,-24 50,-24 50,0 81,35 81,91 0,37 -1,39 -32,39 -18,-1 -47,-7 -65,-15 z" inkscape:connector-curvature="0" id="path20" />
    <path d="m 7913,22575 c -37,-16 -51,-54 -34,-91 9,-19 18,-24 50,-24 50,0 81,35 81,91 0,37 -1,39 -32,39 -18,-1 -47,-7 -65,-15 z" inkscape:connector-curvature="0" id="path22" />
    <path d="m 9957,22720 c -73,-58 -56,-225 27,-254 104,-38 172,146 90,244 -31,36 -78,40 -117,10 z" inkscape:connector-curvature="0" id="path24" />
    <path d="m 11023,22575 c -37,-16 -51,-54 -34,-91 9,-19 18,-24 50,-24 50,0 81,35 81,91 0,37 -1,39 -32,39 -18,-1 -47,-7 -65,-15 z" inkscape:connector-curvature="0" id="path26" />
    <path d="m 1849,23522 c -75,-85 -97,-123 -41,-69 24,23 37,27 85,27 52,0 59,-3 69,-25 8,-18 19,-25 40,-25 15,0 28,3 28,6 0,12 -92,174 -98,174 -4,-1 -41,-40 -83,-88 z m 76,-2 16,-30 -46,0 -46,0 21,30 c 12,17 25,30 30,30 5,0 16,-13 25,-30 z" inkscape:connector-curvature="0" id="path28" />
    <path d="m 2088,23603 c 63,-5 61,2 27,-150 -5,-20 -1,-23 24,-23 24,0 30,5 35,28 3,15 10,53 16,84 l 11,57 52,4 c 29,2 -9,3 -83,3 -74,0 -111,-1 -82,-3 z" inkscape:connector-curvature="0" id="path30" />
    <path d="m 2356,23598 c -8,-25 -26,-132 -26,-150 0,-12 7,-18 24,-18 20,0 25,6 31,40 l 7,40 67,0 c 44,0 74,5 89,16 24,17 29,53 10,72 -17,17 -197,17 -202,0 z m 152,-24 c 5,-32 -24,-54 -69,-54 -41,0 -46,8 -33,58 6,20 12,23 53,20 38,-2 47,-7 49,-24 z" inkscape:connector-curvature="0" id="path32" />
    <path d="m 30868,23458 c -27,-11 -48,-25 -48,-30 0,-12 28,-78 33,-78 3,0 18,7 33,15 41,21 107,19 127,-3 21,-23 22,-64 3,-100 -8,-15 -57,-69 -110,-121 -84,-82 -96,-98 -96,-127 l 0,-34 175,0 175,0 0,50 0,50 -85,0 -86,0 59,58 c 73,71 102,125 102,190 0,60 -30,109 -80,134 -49,25 -142,23 -202,-4 z" inkscape:connector-curvature="0" id="path34" />
    <path d="m 31998,23458 c -27,-11 -48,-25 -48,-30 0,-12 28,-78 33,-78 3,0 18,7 33,15 41,21 107,19 127,-3 21,-23 22,-64 3,-100 -8,-15 -57,-69 -110,-121 -84,-82 -96,-98 -96,-127 l 0,-34 175,0 175,0 0,50 0,50 -85,0 -86,0 59,58 c 73,71 102,125 102,190 0,60 -30,109 -80,134 -49,25 -142,23 -202,-4 z" inkscape:connector-curvature="0" id="path36" />
    <path d="m 31314,23440 -62,-28 11,-45 10,-46 36,15 c 20,9 42,18 49,21 9,4 12,-37 12,-186 l 0,-191 55,0 55,0 0,245 0,245 -52,-1 c -36,0 -73,-10 -114,-29 z" inkscape:connector-curvature="0" id="path38" />
    <path d="m 32360,23420 0,-50 110,0 c 61,0 110,-2 110,-4 0,-2 -43,-86 -95,-188 -52,-102 -95,-188 -95,-192 0,-3 27,-6 61,-6 l 60,0 100,206 c 73,153 99,216 99,245 l 0,39 -175,0 -175,0 0,-50 z" inkscape:connector-curvature="0" id="path40" />
    <path d="m 1850,23314 c -95,-25 -197,-82 -268,-148 l -66,-63 55,-26 c 30,-14 66,-34 81,-44 27,-17 28,-17 55,9 152,141 384,158 560,41 158,-105 235,-304 188,-488 -27,-104 -63,-165 -146,-246 l -78,-77 -16,-83 c -8,-45 -14,-83 -12,-85 7,-7 126,49 175,82 71,50 162,150 201,223 69,131 89,306 51,455 -29,116 -73,190 -165,281 -89,90 -182,143 -295,169 -81,20 -247,19 -320,0 z" inkscape:connector-curvature="0" id="path42" />
    <path d="m 1228,23044 c -47,-14 -48,-16 -48,-55 0,-34 3,-39 18,-35 146,44 268,31 367,-39 130,-92 154,-106 196,-113 24,-4 72,-4 107,1 35,5 65,7 67,5 3,-2 8,-28 12,-58 7,-49 10,-54 43,-65 27,-9 36,-18 40,-41 5,-24 10,-29 35,-29 27,0 30,-4 33,-33 3,-26 10,-35 39,-47 40,-17 41,-8 -11,-142 -65,-168 -95,-399 -65,-505 9,-36 12,-38 49,-38 l 39,0 -10,32 c -14,51 -11,221 7,306 14,69 69,242 105,330 18,43 5,63 -51,76 -45,11 -47,13 -66,85 -3,9 -12,11 -28,7 -21,-5 -25,-2 -28,21 -2,20 -12,32 -35,42 -26,12 -33,21 -38,55 -14,89 -15,90 -125,75 -97,-13 -127,-5 -207,58 -142,110 -306,150 -445,107 z" inkscape:connector-curvature="0" id="path44" />
    <path d="m 29820,23019 c -174,-44 -311,-156 -387,-314 -130,-274 -42,-590 211,-756 142,-93 340,-119 499,-65 250,85 410,301 411,556 1,169 -54,302 -173,421 -154,154 -355,210 -561,158 z m 241,-229 c 29,-6 69,-19 89,-29 101,-52 107,-188 9,-245 l -32,-19 35,-18 c 148,-76 118,-285 -46,-334 -66,-20 -204,-30 -289,-21 l -67,8 0,328 0,329 53,4 c 112,8 197,7 248,-3 z" inkscape:connector-curvature="0" id="path46" />
    <path d="m 29910,22616 0,-76 44,0 c 84,0 126,28 126,83 0,40 -34,61 -106,65 l -64,4 0,-76 z" inkscape:connector-curvature="0" id="path48" />
    <path d="m 29910,22330 0,-100 45,0 c 86,0 145,42 145,103 0,63 -49,97 -140,97 l -50,0 0,-100 z" inkscape:connector-curvature="0" id="path50" />
    <path d="m 1388,22873 c -8,-25 -13,-86 -13,-173 0,-162 19,-229 97,-345 101,-152 263,-251 441,-270 75,-8 66,-18 84,97 l 10,58 -36,5 c -134,22 -215,62 -294,146 -101,108 -152,281 -117,399 10,33 8,37 -21,62 -28,23 -106,58 -130,58 -4,0 -13,-17 -21,-37 z" inkscape:connector-curvature="0" id="path52" />
    <path d="m 30720,22445 0,-355 470,0 470,0 0,355 0,355 -470,0 -470,0 0,-355 z m 764,211 c 79,-33 102,-126 47,-188 l -29,-33 36,-30 c 31,-27 36,-38 39,-86 5,-69 -20,-112 -80,-139 -58,-27 -155,-27 -208,0 -94,48 -106,170 -23,225 28,18 28,18 7,34 -30,25 -43,55 -43,100 0,46 36,96 85,117 40,17 127,18 169,0 z m -364,-141 0,-145 30,0 c 29,0 30,-2 30,-45 0,-43 -1,-45 -30,-45 -30,0 -30,-1 -30,-55 l 0,-55 -55,0 -55,0 0,55 0,54 -107,3 -108,3 -3,33 c -3,26 14,62 90,187 l 93,154 73,1 72,0 0,-145 z" inkscape:connector-curvature="0" id="path54" />
    <path d="m 31357,22572 c -31,-34 -15,-77 36,-95 23,-8 57,25 57,56 0,49 -61,74 -93,39 z" inkscape:connector-curvature="0" id="path56" />
    <path d="m 31355,22355 c -14,-13 -25,-33 -25,-45 0,-27 43,-70 70,-70 27,0 60,35 60,64 0,23 -49,76 -71,76 -6,0 -21,-11 -34,-25 z" inkscape:connector-curvature="0" id="path58" />
    <path d="m 31000,22542 c 0,-4 -20,-43 -45,-86 -25,-44 -45,-81 -45,-83 0,-2 23,-3 50,-3 l 50,0 0,90 c 0,50 -2,90 -5,90 -3,0 -5,-3 -5,-8 z" inkscape:connector-curvature="0" id="path60" />
    <path d="m 32124,22659 c -18,-5 -53,-24 -80,-41 -69,-47 -108,-125 -112,-227 -3,-68 -1,-82 25,-130 39,-74 93,-104 179,-99 105,6 168,73 168,178 1,97 -59,160 -154,160 -22,0 -55,-7 -72,-16 l -30,-16 18,32 c 26,42 55,59 127,74 l 62,13 3,41 3,42 -53,-1 c -29,0 -67,-5 -84,-10 z m 21,-245 c 43,-17 56,-112 19,-149 -43,-42 -114,4 -114,74 0,41 6,53 35,69 23,13 37,14 60,6 z" inkscape:connector-curvature="0" id="path62" />
    <path d="m 32455,22656 c -50,-22 -77,-60 -83,-114 -4,-44 -1,-52 27,-85 l 32,-36 -25,-16 c -13,-9 -31,-31 -40,-50 -49,-103 29,-194 168,-195 110,0 186,60 186,146 0,44 -28,97 -60,114 -21,11 -21,12 11,47 28,33 31,41 27,85 -6,54 -27,84 -75,104 -41,18 -129,17 -168,0 z m 119,-82 c 22,-21 20,-60 -4,-84 -25,-25 -31,-25 -64,1 -44,35 -26,99 29,99 13,0 31,-7 39,-16 z m -15,-209 c 46,-23 55,-71 21,-105 -11,-11 -29,-20 -40,-20 -27,0 -70,43 -70,70 0,19 40,70 55,70 3,0 19,-7 34,-15 z" inkscape:connector-curvature="0" id="path64" />
    <path d="m 33254,22659 c -65,-19 -127,-71 -159,-133 -26,-53 -30,-70 -30,-145 0,-76 3,-92 27,-133 82,-139 302,-108 338,48 18,77 -14,159 -74,188 -43,20 -108,20 -148,0 l -31,-16 19,32 c 23,40 79,71 140,78 l 44,5 0,43 0,44 -47,-1 c -27,0 -62,-5 -79,-10 z m 33,-254 c 24,-17 39,-71 28,-104 -27,-86 -135,-56 -135,38 0,41 6,53 35,69 27,16 47,15 72,-3 z" inkscape:connector-curvature="0" id="path66" />
    <path d="m 33585,22654 c -126,-65 -144,-226 -33,-294 39,-24 111,-26 150,-6 24,13 26,12 21,-2 -22,-60 -89,-102 -161,-102 l -42,0 0,-45 0,-45 48,0 c 169,0 282,116 282,289 0,143 -66,221 -187,221 -26,0 -61,-7 -78,-16 z m 111,-82 c 19,-13 34,-50 34,-86 0,-59 -68,-88 -110,-46 -24,24 -27,86 -4,118 15,22 57,30 80,14 z" inkscape:connector-curvature="0" id="path68" />
    <path d="m 33000,21635 0,-355 470,0 470,0 0,355 0,355 -470,0 -470,0 0,-355 z m 343,201 c 69,-28 107,-102 107,-207 0,-173 -113,-289 -282,-289 l -48,0 0,45 0,45 42,0 c 72,0 139,42 161,102 5,14 3,15 -21,2 -39,-20 -111,-18 -150,6 -65,40 -91,127 -58,203 37,88 156,133 249,93 z m 487,-46 0,-50 -94,0 c -89,0 -94,-1 -100,-22 -11,-43 -8,-48 37,-48 51,0 123,-34 150,-71 30,-41 33,-108 8,-156 -45,-88 -157,-124 -287,-92 -49,13 -48,10 -33,62 9,33 14,38 32,33 121,-34 207,5 182,83 -10,33 -57,51 -130,51 -75,0 -70,-11 -55,125 18,151 0,135 155,135 l 135,0 0,-50 z" inkscape:connector-curvature="0" id="path70" />
    <path d="m 33216,21738 c -23,-32 -20,-94 4,-118 42,-42 110,-13 110,46 0,36 -15,73 -34,86 -23,16 -65,8 -80,-14 z" inkscape:connector-curvature="0" id="path72" />
    <path d="m 30720,21630 0,-350 470,0 470,0 0,350 0,350 -470,0 -470,0 0,-350 z m 760,202 c 50,-25 80,-75 80,-131 -1,-66 -29,-120 -101,-190 l -62,-61 86,0 87,0 0,-50 0,-50 -175,0 -175,0 0,33 c 0,29 12,45 89,118 48,46 98,100 110,119 25,41 27,92 5,114 -20,21 -103,21 -130,1 -10,-8 -23,-15 -27,-15 -8,0 -37,61 -37,78 0,5 21,19 48,30 60,27 153,29 202,4 z m -320,-31 c 0,-29 -26,-92 -99,-245 l -100,-206 -60,0 c -34,0 -61,3 -61,6 0,4 43,90 95,191 52,101 95,186 95,188 0,2 -48,6 -107,7 l -108,3 -3,48 -3,47 175,0 176,0 0,-39 z" inkscape:connector-curvature="0" id="path74" />
    <path d="m 32035,21836 c -50,-22 -77,-60 -83,-114 -4,-44 -1,-53 26,-84 l 31,-35 -34,-32 c -40,-37 -52,-84 -36,-134 21,-63 84,-97 179,-97 106,0 182,62 182,150 0,42 -31,96 -63,111 l -23,11 33,33 c 26,26 33,41 33,72 0,49 -29,95 -73,116 -42,20 -130,22 -172,3 z m 119,-82 c 20,-20 20,-53 0,-82 -19,-27 -34,-28 -68,-1 -44,35 -26,99 29,99 13,0 31,-7 39,-16 z m -15,-209 c 47,-24 57,-83 19,-109 -32,-22 -55,-20 -83,9 -30,30 -31,54 -4,89 24,30 30,31 68,11 z" inkscape:connector-curvature="0" id="path76" />
    <path d="m 32460,21812 c -30,-15 -57,-28 -59,-29 -2,-1 0,-23 3,-47 l 7,-46 27,14 c 15,7 37,17 50,20 l 22,7 0,-190 0,-191 55,0 55,0 0,245 0,245 -52,-1 c -36,0 -71,-9 -108,-27 z" inkscape:connector-curvature="0" id="path78" />
    <path d="m 4262,18973 3,-128 13045,-2 c 7175,-2 13053,-3 13063,-3 16,0 17,-175 17,-3545 l 0,-3545 875,0 875,0 0,890 0,890 -130,0 -130,0 0,-765 0,-765 -615,0 -615,0 0,3550 0,3550 -13195,0 -13196,0 3,-127 z" inkscape:connector-curvature="0" id="path80" />
    <path d="m 14707,18768 c -8,-30 -9,-1011 -1,-1032 5,-14 28,-16 170,-16 l 164,0 0,535 0,535 -164,0 c -161,0 -164,0 -169,-22 z" inkscape:connector-curvature="0" id="path82" />
    <path d="m 16220,18777 c -43,-22 -43,-83 1,-110 24,-15 68,0 81,28 25,55 -29,109 -82,82 z" inkscape:connector-curvature="0" id="path84" />
    <path d="m 17500,18255 0,-535 168,2 167,3 0,530 0,530 -167,3 -168,2 0,-535 z" inkscape:connector-curvature="0" id="path86" />
    <path d="m 25895,18778 c -3,-7 -4,-247 -2,-533 l 2,-520 168,-3 167,-2 0,535 0,535 -165,0 c -123,0 -167,-3 -170,-12 z" inkscape:connector-curvature="0" id="path88" />
    <path d="m 15170,18272 c 0,-230 2,-426 6,-435 5,-15 23,-17 124,-17 100,0 119,3 124,16 4,9 6,205 6,435 l -1,419 -129,0 -128,0 -2,-418 z" inkscape:connector-curvature="0" id="path90" />
    <path d="m 17110,18255 0,-435 125,0 125,0 0,435 0,435 -125,0 -125,0 0,-435 z" inkscape:connector-curvature="0" id="path92" />
    <path d="m 26365,18678 c -3,-7 -4,-202 -3,-433 l 3,-420 128,-3 128,-3 -3,433 -3,433 -123,3 c -92,2 -124,-1 -127,-10 z" inkscape:connector-curvature="0" id="path94" />
    <path d="m 6093,18614 c -53,-19 -118,-90 -133,-143 -7,-28 -10,-157 -8,-389 l 3,-347 28,-51 c 60,-108 84,-114 428,-114 172,0 279,-4 279,-10 0,-5 -52,-120 -115,-257 -63,-136 -115,-250 -115,-255 0,-12 102,-60 109,-51 4,4 26,49 48,98 23,50 63,135 88,190 26,55 67,142 91,193 l 43,92 119,0 c 109,0 123,2 173,28 35,18 64,42 84,70 l 30,44 3,371 3,372 -28,55 c -19,36 -43,65 -71,85 l -44,30 -486,2 c -410,1 -494,-1 -529,-13 z m 375,-56 c 8,-8 12,-61 12,-174 0,-133 -3,-164 -15,-174 -12,-10 -21,-10 -40,-2 l -25,12 0,163 c 0,167 4,187 40,187 9,0 21,-5 28,-12 z m 425,-235 c 45,-43 118,-111 161,-150 l 77,-73 -83,-77 c -45,-43 -117,-111 -160,-150 -83,-79 -112,-89 -148,-53 -37,37 -26,62 61,144 l 81,76 -358,0 c -319,0 -359,2 -376,17 -22,20 -23,61 -1,85 15,17 40,18 374,18 l 359,0 -80,76 c -86,82 -96,108 -60,144 36,36 63,26 153,-57 z m -430,-336 c 16,-11 17,-31 15,-176 -3,-143 -5,-165 -20,-175 -13,-8 -23,-8 -35,0 -16,10 -18,32 -21,175 -2,145 -1,165 15,176 9,7 20,13 23,13 3,0 14,-6 23,-13 z" inkscape:connector-curvature="0" id="path96" />
    <path d="m 15600,18255 0,-346 83,3 82,3 0,340 0,340 -82,3 -83,3 0,-346 z" inkscape:connector-curvature="0" id="path98" />
    <path d="m 16777,18594 c -4,-4 -7,-160 -7,-346 l 0,-339 83,3 82,3 3,334 c 1,235 -1,337 -9,341 -15,10 -143,12 -152,4 z" inkscape:connector-curvature="0" id="path100" />
    <path d="m 26792,18258 3,-343 80,0 80,0 0,339 0,340 -83,4 -82,3 2,-343 z" inkscape:connector-curvature="0" id="path102" />
    <path d="m 16210,18552 c -26,-21 -30,-66 -7,-90 22,-21 77,-20 93,3 20,27 17,62 -6,85 -25,25 -51,25 -80,2 z" inkscape:connector-curvature="0" id="path104" />
    <path d="m 16214,18342 c -49,-32 -32,-105 25,-110 41,-4 71,21 71,58 0,45 -59,77 -96,52 z" inkscape:connector-curvature="0" id="path106" />
    <path d="m 16042,18290 c 41,-131 203,-559 209,-553 7,7 41,97 169,455 l 39,107 -55,-39 c -116,-81 -235,-76 -333,14 -19,17 -32,24 -29,16 z" inkscape:connector-curvature="0" id="path108" />
    <path d="m 3028,18242 c -69,-35 -68,-24 -68,-637 0,-528 1,-551 20,-582 39,-65 117,-85 179,-47 84,51 701,518 717,541 27,42 30,130 5,171 -12,17 -83,78 -158,134 -76,56 -226,167 -333,247 -107,79 -209,153 -225,162 -44,26 -97,30 -137,11 z m 403,-414 c 164,-122 298,-222 297,-224 -2,-1 -120,-88 -263,-194 -143,-106 -276,-204 -295,-219 -19,-14 -36,-24 -38,-21 -3,7 -8,880 -4,880 2,0 138,-100 303,-222 z" inkscape:connector-curvature="0" id="path110" />
    <path d="m 9655,18128 c -3,-7 -4,-247 -3,-533 l 3,-520 168,-3 167,-2 0,535 0,535 -165,0 c -123,0 -167,-3 -170,-12 z" inkscape:connector-curvature="0" id="path112" />
    <path d="m 4290,17566 0,-535 165,0 165,0 0,534 0,535 -165,0 -165,0 0,-534 z" inkscape:connector-curvature="0" id="path114" />
    <path d="m 10130,17605 0,-435 125,0 125,0 0,435 0,435 -125,0 -125,0 0,-435 z" inkscape:connector-curvature="0" id="path116" />
    <path d="m 4760,17570 0,-440 125,0 125,0 -2,438 -3,437 -122,2 -123,2 0,-439 z" inkscape:connector-curvature="0" id="path118" />
    <path d="m 10555,17937 c -3,-6 -4,-161 -3,-342 l 3,-330 83,-3 82,-3 0,346 0,345 -80,0 c -56,0 -82,-4 -85,-13 z" inkscape:connector-curvature="0" id="path120" />
    <path d="m 5180,17570 0,-340 85,0 85,0 0,340 0,340 -85,0 -85,0 0,-340 z" inkscape:connector-curvature="0" id="path122" />
    <path d="m 2385,17842 c -44,-20 -82,-39 -84,-42 -6,-8 9,-99 18,-104 4,-3 31,6 60,20 29,13 55,24 57,24 2,0 4,-115 4,-255 l 0,-255 75,0 75,0 0,325 0,325 -62,0 c -52,0 -78,-7 -143,-38 z" inkscape:connector-curvature="0" id="path124" />
    <path d="m 26748,17662 -858,-2 0,-125 0,-125 855,0 855,0 0,-592 c 0,-326 -4,-588 -8,-582 -21,31 -112,86 -175,106 l -72,23 -8640,0 -8640,0 -75,-24 c -99,-31 -136,-50 -197,-106 -58,-52 -106,-137 -123,-219 -7,-36 -10,-233 -8,-617 3,-551 3,-565 25,-616 l 21,-53 -23,0 -23,0 -4,-762 c -2,-420 -2,-769 0,-775 3,-10 226,-13 1048,-13 l 1044,0 0,131 0,131 -27,-2 c -16,-1 -430,-2 -920,-1 l -893,1 0,539 0,539 61,-19 c 59,-19 248,-19 8706,-19 7832,0 8651,1 8706,16 71,18 141,52 186,89 l 31,27 0,-591 0,-591 -852,-2 -853,-3 0,-125 0,-125 978,-3 977,-2 -2,2247 -3,2248 -120,0 c -66,0 -506,-1 -977,-3 z M 10424,16284 c 34,-34 20,-69 -56,-143 l -73,-71 133,0 c 160,0 191,-11 192,-69 0,-14 -7,-33 -17,-43 -14,-16 -34,-18 -167,-18 l -151,-1 78,-72 c 83,-77 96,-109 60,-149 -36,-40 -61,-26 -232,133 -157,146 -162,152 -144,169 245,230 304,280 332,280 16,0 37,-7 45,-16 z m 3305,-55 c 35,-12 34,-11 21,-60 l -10,-36 -78,4 c -94,5 -133,-14 -162,-80 -38,-82 -13,-186 52,-227 28,-18 45,-21 110,-17 l 78,4 6,-34 c 9,-45 1,-59 -36,-67 -199,-39 -350,68 -350,248 0,168 107,274 276,276 34,0 75,-5 93,-11 z m -1159,-204 0,-204 98,-3 97,-3 3,-47 3,-48 -160,0 -161,0 0,255 0,255 60,0 60,0 0,-205 z m -1040,46 c 45,-23 76,-69 84,-124 12,-76 10,-77 -125,-77 -76,0 -119,-4 -119,-10 0,-6 12,-22 26,-36 24,-24 30,-26 105,-22 75,3 80,2 85,-19 14,-56 -7,-70 -112,-72 -76,-1 -120,13 -162,52 -67,64 -69,197 -4,271 47,52 158,71 222,37 z m 380,-36 0,-55 -34,0 c -25,0 -40,-7 -55,-26 -18,-23 -21,-41 -21,-130 l 0,-104 -60,0 -60,0 0,180 0,180 50,0 c 47,0 50,-2 50,-25 0,-32 2,-31 38,5 21,20 40,30 61,30 31,0 31,0 31,-55 z m 265,45 c 25,-9 27,-14 20,-48 -4,-20 -8,-38 -8,-39 -1,-1 -21,4 -45,10 -30,8 -48,8 -59,1 -32,-20 -25,-34 32,-59 74,-33 105,-67 105,-115 0,-93 -115,-145 -242,-109 -42,11 -42,10 -28,60 l 10,37 38,-14 c 49,-17 87,-17 102,1 17,20 5,33 -54,59 -29,13 -62,36 -74,51 -42,54 -17,130 52,161 37,16 114,18 151,4 z m 880,-6 c 61,-29 69,-53 75,-212 l 5,-142 -52,0 c -40,0 -53,4 -53,15 0,12 -7,11 -40,-6 -59,-31 -124,-22 -163,21 -26,29 -29,38 -24,83 3,41 11,56 35,78 33,30 88,49 140,49 40,0 44,25 6,42 -19,9 -39,9 -82,0 -30,-6 -57,-10 -60,-8 -2,3 -5,19 -5,38 -2,29 2,34 33,45 50,17 146,16 185,-3 z m 1011,-3 c 136,-62 137,-274 2,-340 -82,-39 -197,-19 -246,44 -49,62 -53,168 -8,236 48,72 164,100 252,60 z m 834,-36 0,-55 -34,0 c -25,0 -40,-7 -55,-26 -18,-23 -21,-41 -21,-130 l 0,-104 -60,0 -60,0 0,180 0,180 50,0 c 47,0 50,-2 50,-25 0,-32 2,-31 38,5 21,20 40,30 61,30 31,0 31,0 31,-55 z m 350,39 c 53,-32 64,-66 68,-216 l 4,-138 -60,0 -60,0 -4,126 c -3,111 -5,127 -22,140 -26,19 -39,18 -70,-7 -25,-20 -26,-23 -26,-140 l 0,-119 -60,0 -60,0 0,180 0,180 49,0 c 40,0 51,-4 56,-19 6,-19 7,-19 42,5 42,28 102,32 143,8 z m 400,-3 c 45,-23 76,-69 84,-124 12,-76 10,-77 -125,-77 -76,0 -119,-4 -119,-10 0,-6 12,-22 26,-36 24,-24 30,-26 105,-22 75,3 80,2 85,-19 14,-56 -7,-70 -112,-72 -76,-1 -120,13 -162,52 -67,64 -69,197 -4,271 47,52 158,71 222,37 z m 1220,0 c 45,-23 76,-69 84,-124 12,-76 10,-77 -125,-77 -76,0 -119,-4 -119,-10 0,-6 12,-22 26,-36 24,-24 30,-26 105,-22 75,3 80,2 85,-19 14,-56 -7,-70 -112,-72 -76,-1 -120,13 -162,52 -67,64 -69,197 -4,271 47,52 158,71 222,37 z m 2834,-1 c 110,-28 190,-74 271,-155 225,-225 232,-581 17,-816 -106,-115 -241,-177 -402,-186 -181,-10 -315,42 -446,172 -121,121 -174,246 -174,413 0,166 53,295 170,413 156,156 355,213 564,159 z m -8688,-105 c 18,-60 33,-112 34,-115 1,-3 16,47 34,110 l 32,115 63,3 c 35,2 61,-1 60,-6 -2,-5 -33,-87 -69,-181 l -65,-172 -60,3 -60,3 -62,165 c -34,91 -62,171 -62,178 -1,10 15,12 61,10 l 61,-3 33,-110 z m 3344,6 c 0,-60 4,-121 9,-134 13,-33 46,-43 76,-23 24,16 25,20 25,141 l 0,125 60,0 60,0 0,-180 0,-180 -50,0 c -43,0 -50,3 -50,20 0,18 -2,18 -36,-5 -66,-45 -157,-27 -191,38 -13,24 -18,65 -21,170 l -4,137 61,0 61,0 0,-109 z m 1550,0 c 0,-60 4,-121 9,-134 13,-33 46,-43 76,-23 24,16 25,20 25,141 l 0,125 60,0 60,0 0,-180 0,-180 -50,0 c -43,0 -50,3 -50,20 0,18 -2,18 -36,-5 -66,-45 -157,-27 -191,38 -13,24 -18,65 -21,170 l -4,137 61,0 61,0 0,-109 z m 446,-6 c 18,-60 33,-112 34,-115 1,-3 16,47 34,110 l 32,115 63,3 c 35,2 61,-1 60,-6 -2,-5 -33,-87 -69,-181 l -65,-172 -60,3 -60,3 -62,165 c -34,91 -62,171 -62,178 -1,10 15,12 61,10 l 61,-3 33,-110 z m 1662,-327 c 29,-101 55,-202 58,-226 4,-23 10,-44 14,-47 3,-2 15,31 25,73 10,42 39,145 65,227 l 48,150 101,3 101,3 0,-38 c 0,-21 7,-150 15,-288 8,-137 15,-271 15,-297 l 0,-48 -69,0 -69,0 -6,63 c -3,34 -9,151 -13,260 l -8,199 -38,-129 c -21,-70 -56,-185 -78,-255 l -40,-128 -59,0 -59,0 -11,43 c -7,23 -27,96 -45,162 -19,66 -43,160 -54,208 -10,49 -21,90 -24,93 -2,2 -7,-80 -11,-183 -3,-104 -9,-221 -13,-260 l -6,-73 -69,0 -70,0 6,48 c 3,26 13,176 23,335 l 17,287 101,0 102,0 51,-182 z m 8500,-385 c 3,-42 2,-43 -27,-43 -38,0 -61,-23 -61,-61 0,-27 3,-29 35,-29 35,0 35,0 35,-45 0,-45 0,-45 -35,-45 l -35,0 0,-135 0,-135 -60,0 -60,0 0,135 0,135 -25,0 c -23,0 -25,4 -25,45 0,41 2,45 25,45 22,0 25,5 25,33 0,45 29,98 70,125 27,18 45,22 85,20 l 50,-3 3,-42 z m -1990,9 c 43,-56 -37,-123 -90,-75 -44,39 -2,111 57,96 11,-3 26,-12 33,-21 z m 212,-237 0,-265 -60,0 -60,0 0,265 0,265 60,0 60,0 0,-265 z m 210,0 0,-265 -60,0 -60,0 0,265 0,265 60,0 60,0 0,-265 z m 608,237 c 43,-56 -37,-123 -90,-75 -44,39 -2,111 57,96 11,-3 26,-12 33,-21 z m 640,0 c 43,-56 -37,-123 -90,-75 -44,39 -2,111 57,96 11,-3 26,-12 33,-21 z m 990,-128 c 86,-80 158,-149 160,-153 1,-4 -50,-57 -115,-117 -65,-60 -136,-126 -158,-146 -44,-42 -86,-49 -117,-21 -37,33 -24,66 58,142 l 76,71 -140,0 c -126,0 -142,2 -166,21 -29,23 -33,54 -10,87 14,21 22,22 167,22 l 152,1 -77,74 c -84,80 -95,108 -58,145 40,40 61,29 228,-126 z m -4918,-119 0,-255 -60,0 -60,0 0,255 0,255 60,0 60,0 0,-255 z m 1802,185 c 10,-36 34,-122 52,-191 l 32,-126 55,191 54,191 63,3 c 57,3 63,1 58,-15 -3,-10 -41,-124 -84,-253 l -79,-235 -69,-3 -69,-3 -78,248 c -43,136 -78,252 -77,256 0,4 28,7 62,5 l 61,-3 19,-65 z m -2832,-89 c 45,-23 76,-69 84,-124 12,-76 10,-77 -125,-77 -76,0 -119,-4 -119,-10 0,-6 12,-22 26,-36 24,-24 30,-26 105,-22 75,3 80,2 85,-19 14,-56 -7,-70 -112,-72 -76,-1 -120,13 -162,52 -67,64 -69,197 -4,271 47,52 158,71 222,37 z m 370,-36 0,-55 -34,0 c -25,0 -40,-7 -55,-26 -18,-23 -21,-41 -21,-130 l 0,-104 -60,0 -60,0 0,180 0,180 50,0 c 47,0 50,-2 50,-25 0,-32 2,-31 38,5 21,20 40,30 61,30 31,0 31,0 31,-55 z m 275,45 c 25,-9 27,-14 20,-48 -4,-20 -8,-38 -8,-39 -1,-1 -21,4 -45,10 -30,8 -48,8 -59,1 -32,-20 -25,-34 32,-59 74,-33 105,-67 105,-115 0,-93 -115,-145 -242,-109 -42,11 -42,10 -28,60 l 10,37 38,-14 c 49,-17 87,-17 102,1 17,20 5,33 -54,59 -29,13 -62,36 -74,51 -42,54 -17,130 52,161 37,16 114,18 151,4 z m 1105,-45 0,-55 -34,0 c -25,0 -40,-7 -55,-26 -18,-23 -21,-41 -21,-130 l 0,-104 -60,0 -60,0 0,180 0,180 50,0 c 47,0 50,-2 50,-25 0,-32 2,-31 38,5 21,20 40,30 61,30 31,0 31,0 31,-55 z m 2300,36 c 45,-23 76,-69 84,-124 12,-76 10,-77 -125,-77 -76,0 -119,-4 -119,-10 0,-6 12,-22 26,-36 24,-24 30,-26 105,-22 75,3 80,2 85,-19 14,-56 -7,-70 -112,-72 -76,-1 -120,13 -162,52 -67,64 -69,197 -4,271 47,52 158,71 222,37 z m -4564,-106 c 18,-60 33,-112 34,-115 1,-3 16,47 34,110 l 32,115 63,3 c 35,2 61,-1 60,-6 -2,-5 -33,-87 -69,-181 l -65,-172 -60,3 -60,3 -62,165 c -34,91 -62,171 -62,178 -1,10 15,12 61,10 l 61,-3 33,-110 z m 1760,0 c 18,-60 33,-112 34,-115 1,-3 16,47 34,110 l 32,115 63,3 c 35,2 61,-1 60,-6 -2,-5 -33,-87 -69,-181 l -65,-172 -60,3 -60,3 -62,165 c -34,91 -62,171 -62,178 -1,10 15,12 61,10 l 61,-3 33,-110 z m 670,70 c 7,-22 24,-76 37,-120 l 23,-80 30,120 30,120 62,3 c 34,2 62,1 62,0 0,-6 -87,-250 -110,-308 -35,-91 -82,-159 -129,-191 -65,-43 -84,-39 -99,17 -7,26 -11,47 -10,48 2,1 20,9 41,19 69,31 69,46 -6,235 -37,92 -67,171 -67,175 0,4 28,7 62,5 l 61,-3 13,-40 z m 1384,-135 0,-180 -60,0 -60,0 0,180 0,180 60,0 60,0 0,-180 z m 1028,-17 c -4,-217 -9,-237 -68,-286 -26,-23 -113,-47 -125,-35 -2,2 -7,22 -10,44 -7,38 -6,40 28,52 50,18 57,47 57,248 l 0,174 61,0 61,0 -4,-197 z m 202,88 c 0,-60 4,-121 9,-134 13,-33 46,-43 76,-23 24,16 25,20 25,141 l 0,125 60,0 60,0 0,-180 0,-180 -50,0 c -43,0 -50,3 -50,20 0,18 -2,18 -36,-5 -66,-45 -157,-27 -191,38 -13,24 -18,65 -21,170 l -4,137 61,0 61,0 0,-109 z m 440,-71 0,-180 -60,0 -60,0 0,180 0,180 60,0 60,0 0,-180 z m -2430,20 0,-40 -100,0 -100,0 0,40 0,40 100,0 100,0 0,-40 z" inkscape:connector-curvature="0" id="path126" />
    <path d="m 11390,15990 c -33,-33 -24,-40 50,-40 39,0 70,3 70,8 0,4 -7,18 -16,30 -20,29 -76,30 -104,2 z" inkscape:connector-curvature="0" id="path128" />
    <path d="m 12953,15880 c -19,-8 -43,-38 -43,-54 0,-12 33,-36 51,-36 29,0 59,36 59,70 0,25 -4,30 -22,29 -13,0 -33,-4 -45,-9 z" inkscape:connector-curvature="0" id="path130" />
    <path d="m 13933,15986 c -25,-22 -28,-31 -28,-86 0,-55 3,-64 28,-86 15,-13 34,-24 42,-24 8,0 27,11 42,24 25,22 28,31 28,86 0,55 -3,64 -28,86 -15,13 -34,24 -42,24 -8,0 -27,-11 -42,-24 z" inkscape:connector-curvature="0" id="path132" />
    <path d="m 15510,15990 c -33,-33 -24,-40 50,-40 39,0 70,3 70,8 0,4 -7,18 -16,30 -20,29 -76,30 -104,2 z" inkscape:connector-curvature="0" id="path134" />
    <path d="m 16730,15990 c -33,-33 -24,-40 50,-40 39,0 70,3 70,8 0,4 -7,18 -16,30 -20,29 -76,30 -104,2 z" inkscape:connector-curvature="0" id="path136" />
    <path d="m 19330,15735 0,-65 145,0 c 80,0 145,-2 145,-4 0,-2 -58,-118 -130,-257 -71,-140 -130,-255 -130,-256 0,-2 37,-3 83,-3 l 82,0 133,275 c 115,240 132,282 132,325 l 0,50 -230,0 -230,0 0,-65 z" inkscape:connector-curvature="0" id="path138" />
    <path d="m 21100,15030 c -33,-33 -24,-40 50,-40 39,0 70,3 70,8 0,4 -7,18 -16,30 -20,29 -76,30 -104,2 z" inkscape:connector-curvature="0" id="path140" />
    <path d="m 25150,15030 c -33,-33 -24,-40 50,-40 39,0 70,3 70,8 0,4 -7,18 -16,30 -20,29 -76,30 -104,2 z" inkscape:connector-curvature="0" id="path142" />
    <path d="m 14410,17535 0,-125 514,0 c 467,0 514,1 520,16 4,9 6,66 5,125 l -1,109 -519,0 -519,0 0,-125 z" inkscape:connector-curvature="0" id="path144" />
    <path d="m 15470,17535 0,-125 24,0 24,0 1,125 0,125 -24,0 -25,0 0,-125 z" inkscape:connector-curvature="0" id="path146" />
    <path d="m 15600,17535 0,-125 24,0 24,0 1,125 0,125 -24,0 -25,0 0,-125 z" inkscape:connector-curvature="0" id="path148" />
    <path d="m 15725,17648 c -2,-7 -3,-62 -2,-123 2,-106 3,-110 25,-113 22,-3 22,-2 22,122 0,120 -1,126 -20,126 -11,0 -23,-6 -25,-12 z" inkscape:connector-curvature="0" id="path150" />
    <path d="m 15851,17535 -1,-125 25,0 25,0 0,125 0,125 -24,0 -24,0 -1,-125 z" inkscape:connector-curvature="0" id="path152" />
    <path d="m 15980,17535 0,-125 25,0 25,0 0,125 0,125 -25,0 -25,0 0,-125 z" inkscape:connector-curvature="0" id="path154" />
    <path d="m 16110,17535 0,-125 25,0 25,0 0,125 0,125 -25,0 -25,0 0,-125 z" inkscape:connector-curvature="0" id="path156" />
    <path d="m 16240,17535 0,-125 25,0 25,0 0,125 0,125 -25,0 -25,0 0,-125 z" inkscape:connector-curvature="0" id="path158" />
    <path d="m 16370,17535 0,-125 25,0 25,0 0,125 0,125 -25,0 -25,0 0,-125 z" inkscape:connector-curvature="0" id="path160" />
    <path d="m 16500,17535 0,-125 25,0 25,0 -1,125 -1,125 -24,0 -24,0 0,-125 z" inkscape:connector-curvature="0" id="path162" />
    <path d="m 16630,17535 c 0,-125 0,-126 23,-123 21,3 22,6 22,123 0,117 -1,120 -22,123 -23,3 -23,2 -23,-123 z" inkscape:connector-curvature="0" id="path164" />
    <path d="m 16751,17535 1,-125 24,0 24,0 0,125 0,125 -25,0 -24,0 0,-125 z" inkscape:connector-curvature="0" id="path166" />
    <path d="m 16883,17538 2,-123 548,-3 547,-2 0,125 0,125 -549,0 -550,0 2,-122 z" inkscape:connector-curvature="0" id="path168" />
    <path d="m 33290,17285 c 0,-52 -2,-95 -5,-95 -4,0 -20,7 -37,16 -67,35 -160,-1 -198,-76 -22,-44 -27,-140 -9,-187 36,-97 153,-131 229,-67 l 30,26 0,-26 c 0,-25 3,-26 50,-26 l 50,0 0,265 0,265 -55,0 -55,0 0,-95 z m -25,-175 c 22,-24 30,-96 16,-133 -6,-15 -22,-32 -35,-38 -61,-28 -112,27 -103,108 6,55 30,83 72,83 19,0 39,-8 50,-20 z" inkscape:connector-curvature="0" id="path170" />
    <path d="m 31945,17209 c -11,-6 -30,-23 -42,-38 l -23,-26 0,33 c 0,32 0,32 -51,32 -48,0 -51,-1 -45,-22 3,-13 6,-94 6,-180 l 0,-158 55,0 55,0 0,110 c 0,127 12,150 75,150 l 35,0 0,55 c 0,50 -2,55 -22,55 -13,0 -32,-5 -43,-11 z" inkscape:connector-curvature="0" id="path172" />
    <path d="m 32603,17209 c -66,-19 -123,-102 -123,-179 0,-124 95,-200 235,-187 90,9 98,13 91,55 -3,19 -7,36 -8,38 -2,1 -24,-2 -50,-7 -57,-13 -121,2 -143,34 -8,12 -15,25 -15,29 0,5 54,8 120,8 l 120,0 0,50 c 0,126 -99,196 -227,159 z m 110,-87 c 35,-31 21,-42 -53,-42 -38,0 -70,3 -70,6 0,16 24,46 43,54 26,10 55,4 80,-18 z" inkscape:connector-curvature="0" id="path174" />
    <path d="m 33593,17209 c -66,-19 -123,-102 -123,-179 0,-124 95,-200 235,-187 90,9 98,13 91,55 -3,19 -7,36 -8,38 -2,1 -24,-2 -50,-7 -57,-13 -121,2 -143,34 -8,12 -15,25 -15,29 0,5 54,8 120,8 l 120,0 0,50 c 0,126 -99,196 -227,159 z m 110,-87 c 35,-31 21,-42 -53,-42 -38,0 -70,3 -70,6 0,16 24,46 43,54 26,10 55,4 80,-18 z" inkscape:connector-curvature="0" id="path176" />
    <path d="m 32070,17074 c 0,-156 11,-193 65,-218 56,-27 114,-18 154,25 l 21,23 0,-27 c 0,-26 2,-27 50,-27 l 50,0 0,180 0,180 -55,0 -55,0 0,-115 c 0,-110 -1,-117 -25,-140 -29,-30 -49,-31 -75,-5 -18,18 -20,33 -20,140 l 0,120 -55,0 -55,0 0,-136 z" inkscape:connector-curvature="0" id="path178" />
    <path d="m 6750,16660 0,-290 -1264,0 c -1062,0 -1265,-2 -1269,-14 -7,-18 -7,-214 0,-232 4,-12 238,-14 1474,-14 l 1469,0 0,-1975 0,-1975 -1469,0 c -1189,0 -1470,-2 -1474,-13 -7,-19 -8,-212 -1,-230 6,-16 100,-17 1218,-17 963,0 1210,-3 1208,-13 -2,-6 -44,-99 -93,-205 -50,-107 -89,-198 -87,-203 2,-5 26,-20 55,-33 l 51,-24 40,86 c 22,48 59,128 82,177 23,50 55,118 71,153 l 29,62 295,1 c 162,1 301,2 308,3 9,1 13,456 15,2234 l 2,2233 -142,-1 c -79,-1 -200,-1 -270,0 l -128,0 0,290 0,290 -60,0 -60,0 0,-290 z" inkscape:connector-curvature="0" id="path180" />
    <path d="m 2000,16315 0,-265 55,0 55,0 0,265 0,265 -55,0 -55,0 0,-265 z" inkscape:connector-curvature="0" id="path182" />
    <path d="m 32680,16215 0,-265 55,0 55,0 0,265 0,265 -55,0 -55,0 0,-265 z" inkscape:connector-curvature="0" id="path184" />
    <path d="m 33326,16454 c -9,-8 -16,-24 -16,-35 0,-25 35,-59 60,-59 25,0 60,34 60,59 0,28 -27,51 -60,51 -16,0 -36,-7 -44,-16 z" inkscape:connector-curvature="0" id="path186" />
    <path d="m 31801,16448 c 0,-7 35,-121 78,-253 l 77,-240 66,-3 66,-3 85,256 86,256 -61,-3 -61,-3 -28,-95 c -16,-52 -41,-141 -55,-198 l -27,-102 -32,127 c -18,71 -42,161 -54,201 l -22,72 -59,0 c -42,0 -60,-4 -59,-12 z" inkscape:connector-curvature="0" id="path188" />
    <path d="m 1704,16406 c -18,-8 -35,-19 -38,-25 -11,-18 -26,-13 -26,9 0,17 -7,20 -51,20 l -51,0 6,-31 c 3,-17 6,-132 6,-255 l 0,-224 55,0 55,0 0,92 c 0,90 0,91 20,73 11,-10 40,-20 67,-22 61,-5 118,26 151,82 19,34 22,51 20,117 -2,59 -8,83 -24,105 -50,67 -121,89 -190,59 z m 76,-96 c 37,-37 39,-122 4,-161 -23,-25 -78,-25 -104,1 -28,28 -28,117 1,154 25,32 70,35 99,6 z" inkscape:connector-curvature="0" id="path190" />
    <path d="m 2255,16407 c -37,-12 -40,-15 -37,-47 3,-43 5,-44 43,-31 49,17 103,14 122,-7 10,-10 17,-21 17,-24 0,-3 -24,-8 -54,-11 -132,-13 -198,-96 -151,-187 30,-59 105,-76 175,-40 34,17 40,18 40,5 0,-11 12,-15 50,-15 l 50,0 0,128 c 0,140 -11,178 -63,216 -34,25 -134,31 -192,13 z m 145,-221 c 0,-57 -76,-91 -100,-46 -22,41 12,78 73,79 24,1 27,-2 27,-33 z" inkscape:connector-curvature="0" id="path192" />
    <path d="m 2697,16405 c -80,-28 -120,-89 -121,-181 0,-72 26,-121 82,-156 30,-19 51,-23 114,-23 42,0 81,5 86,10 5,6 7,26 5,46 l -5,35 -53,-4 c -50,-4 -57,-2 -85,26 -42,43 -42,101 0,144 27,27 36,30 81,26 46,-3 50,-1 55,22 3,14 8,32 10,41 8,30 -101,39 -169,14 z" inkscape:connector-curvature="0" id="path194" />
    <path d="m 3023,16409 c -66,-19 -123,-102 -123,-179 0,-124 95,-200 235,-187 90,9 98,13 91,55 -3,19 -7,36 -8,38 -2,1 -24,-2 -50,-7 -57,-13 -121,2 -143,34 -8,12 -15,25 -15,29 0,5 54,8 120,8 l 120,0 0,50 c 0,126 -99,196 -227,159 z m 110,-87 c 35,-31 21,-42 -53,-42 -38,0 -70,3 -70,6 0,16 24,46 43,54 26,10 55,4 80,-18 z" inkscape:connector-curvature="0" id="path196" />
    <path d="m 32325,16307 c -37,-12 -40,-15 -37,-47 3,-43 5,-44 43,-31 49,17 103,14 122,-7 10,-10 17,-21 17,-24 0,-3 -24,-8 -54,-11 -132,-13 -198,-96 -151,-187 30,-59 105,-76 175,-40 34,17 40,18 40,5 0,-11 12,-15 50,-15 l 50,0 0,128 c 0,140 -11,178 -63,216 -34,25 -134,31 -192,13 z m 145,-221 c 0,-57 -76,-91 -100,-46 -22,41 12,78 73,79 24,1 27,-2 27,-33 z" inkscape:connector-curvature="0" id="path198" />
    <path d="m 32954,16296 c -66,-34 -97,-87 -98,-165 -1,-109 60,-177 168,-188 47,-5 64,-2 109,20 71,35 101,86 101,172 0,108 -62,173 -172,182 -47,4 -65,0 -108,-21 z m 135,-75 c 11,-11 23,-36 27,-55 20,-110 -54,-187 -117,-120 -20,21 -24,36 -24,86 0,53 3,62 28,84 34,29 60,31 86,5 z" inkscape:connector-curvature="0" id="path200" />
    <path d="m 33595,16313 c -53,-15 -95,-66 -95,-117 0,-36 46,-82 105,-104 95,-37 58,-90 -43,-63 -25,6 -46,10 -49,8 -2,-3 -8,-18 -13,-36 -10,-36 2,-46 68,-57 99,-16 185,24 198,92 11,59 -11,92 -85,128 -48,23 -66,37 -66,51 0,17 7,20 45,20 25,-1 51,-3 59,-5 19,-6 39,56 24,71 -12,12 -118,21 -148,12 z" inkscape:connector-curvature="0" id="path202" />
    <path d="m 33320,16130 0,-180 55,0 55,0 0,180 0,180 -55,0 -55,0 0,-180 z" inkscape:connector-curvature="0" id="path204" />
    <path d="m 2100,15415 0,-265 55,0 55,0 0,265 0,265 -55,0 -55,0 0,-265 z" inkscape:connector-curvature="0" id="path206" />
    <path d="m 1392,15651 c -60,-21 -114,-67 -145,-126 -29,-54 -30,-193 -3,-245 49,-94 117,-133 231,-134 44,-1 93,3 109,7 27,8 28,10 22,50 -4,23 -8,42 -9,43 -1,1 -24,-2 -51,-7 -85,-16 -164,20 -192,87 -17,40 -18,112 -3,151 28,74 112,115 193,94 57,-14 53,-15 60,13 3,13 9,31 12,40 4,12 -4,20 -30,31 -48,20 -129,18 -194,-4 z" inkscape:connector-curvature="0" id="path208" />
    <path d="m 2763,15592 c -51,-14 -53,-16 -53,-48 0,-30 -3,-34 -25,-34 -22,0 -25,-4 -25,-40 0,-36 3,-40 25,-40 25,0 25,0 25,-95 0,-60 5,-108 14,-130 17,-39 60,-65 110,-65 56,0 66,8 66,51 0,35 -3,39 -24,39 -46,0 -57,24 -54,114 l 3,81 38,3 c 36,3 37,4 37,43 0,39 0,39 -39,39 l -40,0 -3,48 -3,49 -52,-15 z" inkscape:connector-curvature="0" id="path210" />
    <path d="m 3043,15592 c -51,-14 -53,-16 -53,-48 0,-30 -3,-34 -25,-34 -22,0 -25,-4 -25,-40 0,-36 3,-40 25,-40 25,0 25,0 25,-95 0,-60 5,-108 14,-130 17,-39 60,-65 110,-65 56,0 66,8 66,51 0,35 -3,39 -24,39 -46,0 -57,24 -54,114 l 3,81 38,3 c 36,3 37,4 37,43 0,39 0,39 -39,39 l -40,0 -3,48 -3,49 -52,-15 z" inkscape:connector-curvature="0" id="path212" />
    <path d="m 1744,15496 c -66,-34 -97,-87 -98,-165 -1,-109 60,-177 168,-188 47,-5 64,-2 109,20 71,35 101,86 101,172 0,108 -62,173 -172,182 -47,4 -65,0 -108,-21 z m 135,-75 c 11,-11 23,-36 27,-55 20,-110 -54,-187 -117,-120 -20,21 -24,36 -24,86 0,53 3,62 28,84 34,29 60,31 86,5 z" inkscape:connector-curvature="0" id="path214" />
    <path d="m 2403,15509 c -66,-19 -123,-102 -123,-179 0,-124 95,-200 235,-187 90,9 98,13 91,55 -3,19 -7,36 -8,38 -2,1 -24,-2 -50,-7 -57,-13 -121,2 -143,34 -8,12 -15,25 -15,29 0,5 54,8 120,8 l 120,0 0,50 c 0,126 -99,196 -227,159 z m 110,-87 c 35,-31 21,-42 -53,-42 -38,0 -70,3 -70,6 0,16 24,46 43,54 26,10 55,4 80,-18 z" inkscape:connector-curvature="0" id="path216" />
    <path d="m 3343,15509 c -66,-19 -123,-102 -123,-179 0,-124 95,-200 235,-187 90,9 98,13 91,55 -3,19 -7,36 -8,38 -2,1 -24,-2 -50,-7 -57,-13 -121,2 -143,34 -8,12 -15,25 -15,29 0,5 54,8 120,8 l 120,0 0,50 c 0,126 -99,196 -227,159 z m 110,-87 c 35,-31 21,-42 -53,-42 -38,0 -70,3 -70,6 0,16 24,46 43,54 26,10 55,4 80,-18 z" inkscape:connector-curvature="0" id="path218" />
    <path d="m 32772,15418 c -5,-7 -62,-97 -126,-201 -103,-166 -116,-192 -116,-232 l 0,-45 145,0 145,0 0,-80 0,-80 70,0 69,0 3,78 3,77 38,3 37,3 0,55 0,54 -40,0 -40,0 0,190 0,190 -89,0 c -59,0 -92,-4 -99,-12 z m 50,-238 -3,-130 -70,0 c -38,0 -69,3 -69,6 0,3 22,43 49,88 27,44 58,100 70,124 12,23 22,42 24,42 1,0 1,-58 -1,-130 z" inkscape:connector-curvature="0" id="path220" />
    <path d="m 32235,14559 c -72,-20 -111,-102 -82,-169 17,-41 471,-657 524,-712 67,-71 152,-75 221,-10 49,45 513,674 531,720 30,72 -7,152 -78,172 -45,12 -1073,12 -1116,-1 z m 785,-456 c -121,-164 -224,-299 -228,-300 -6,-1 -410,540 -435,583 -7,12 63,14 437,14 l 446,0 -220,-297 z" inkscape:connector-curvature="0" id="path222" />
    <path d="m 2260,13805 0,-265 55,0 55,0 0,265 0,265 -55,0 -55,0 0,-265 z" inkscape:connector-curvature="0" id="path224" />
    <path d="m 3980,13975 c 0,-52 -2,-95 -5,-95 -4,0 -20,7 -37,16 -67,35 -160,-1 -198,-76 -22,-44 -27,-140 -9,-187 36,-97 153,-131 229,-67 l 30,26 0,-26 c 0,-25 3,-26 50,-26 l 50,0 0,265 0,265 -55,0 -55,0 0,-95 z m -25,-175 c 22,-24 30,-96 16,-133 -6,-15 -22,-32 -35,-38 -61,-28 -112,27 -103,108 6,55 30,83 72,83 19,0 39,-8 50,-20 z" inkscape:connector-curvature="0" id="path226" />
    <path d="m 1974,13896 c -18,-8 -35,-19 -38,-25 -11,-18 -26,-13 -26,9 0,17 -7,20 -51,20 l -51,0 6,-31 c 3,-17 6,-132 6,-255 l 0,-224 55,0 55,0 0,92 c 0,90 0,91 20,73 11,-10 40,-20 67,-22 61,-5 118,26 151,82 19,34 22,51 20,117 -2,59 -8,83 -24,105 -50,67 -121,89 -190,59 z m 76,-96 c 37,-37 39,-122 4,-161 -23,-25 -78,-25 -104,1 -28,28 -28,117 1,154 25,32 70,35 99,6 z" inkscape:connector-curvature="0" id="path228" />
    <path d="m 2515,13897 c -37,-12 -40,-15 -37,-47 3,-43 5,-44 43,-31 49,17 103,14 122,-7 10,-10 17,-21 17,-24 0,-3 -24,-8 -54,-11 -132,-13 -198,-96 -151,-187 30,-59 105,-76 175,-40 34,17 40,18 40,5 0,-11 12,-15 50,-15 l 50,0 0,128 c 0,140 -11,178 -63,216 -34,25 -134,31 -192,13 z m 145,-221 c 0,-57 -76,-91 -100,-46 -22,41 12,78 73,79 24,1 27,-2 27,-33 z" inkscape:connector-curvature="0" id="path230" />
    <path d="m 2967,13895 c -80,-28 -120,-89 -121,-181 0,-72 26,-121 82,-156 30,-19 51,-23 114,-23 42,0 81,5 86,10 5,6 7,26 5,46 l -5,35 -53,-4 c -50,-4 -57,-2 -85,26 -42,43 -42,101 0,144 27,27 36,30 81,26 46,-3 50,-1 55,22 3,14 8,32 10,41 8,30 -101,39 -169,14 z" inkscape:connector-curvature="0" id="path232" />
    <path d="m 3293,13899 c -66,-19 -123,-102 -123,-179 0,-124 95,-200 235,-187 90,9 98,13 91,55 -3,19 -7,36 -8,38 -2,1 -24,-2 -50,-7 -57,-13 -121,2 -143,34 -8,12 -15,25 -15,29 0,5 54,8 120,8 l 120,0 0,50 c 0,126 -99,196 -227,159 z m 110,-87 c 35,-31 21,-42 -53,-42 -38,0 -70,3 -70,6 0,16 24,46 43,54 26,10 55,4 80,-18 z" inkscape:connector-curvature="0" id="path234" />
    <path d="m 4190,13764 c 0,-156 11,-193 65,-218 56,-27 114,-18 154,25 l 21,23 0,-27 c 0,-26 2,-27 50,-27 l 50,0 0,180 0,180 -55,0 -55,0 0,-115 c 0,-110 -1,-117 -25,-140 -29,-30 -49,-31 -75,-5 -18,18 -20,33 -20,140 l 0,120 -55,0 -55,0 0,-136 z" inkscape:connector-curvature="0" id="path236" />
    <path d="m 32260,13360 0,-169 523,-1 c 287,0 528,4 535,8 9,7 12,47 10,168 l -3,159 -532,3 -533,2 0,-170 z" inkscape:connector-curvature="0" id="path238" />
    <path d="m 33450,11260 0,-2270 -6740,0 -6741,0 3,-126 3,-127 303,2 302,2 0,-2761 0,-2761 123,3 122,3 3,2758 2,2757 6435,0 6435,0 0,2395 0,2395 -125,0 -125,0 0,-2270 z" inkscape:connector-curvature="0" id="path240" />
    <path d="m 13140,12720 0,-720 -1745,0 -1745,0 0,-125 0,-125 3925,0 3925,0 0,125 0,125 -26,0 -26,0 3,718 4,717 -2157,3 -2158,2 0,-720 z m 2183,461 1877,-1 0,-590 0,-590 -1905,0 -1905,0 0,593 0,593 28,-2 c 15,-1 872,-3 1905,-3 z" inkscape:connector-curvature="0" id="path242" />
    <path d="m 19010,12595 0,-845 33,0 c 17,0 1950,0 4295,0 l 4262,0 0,-765 0,-765 125,0 125,0 0,70 c 0,39 4,70 9,70 4,0 100,-43 212,-96 112,-53 214,-100 227,-105 20,-8 25,-3 49,46 15,30 25,56 22,58 -2,2 -114,55 -249,117 -135,63 -251,118 -257,123 -10,7 -13,170 -13,753 l 0,744 -1596,0 -1596,0 3,718 4,717 -2827,3 -2828,2 0,-845 z m 5400,-5 0,-590 -2575,0 -2575,0 0,590 0,590 2575,0 2575,0 0,-590 z" inkscape:connector-curvature="0" id="path244" />
    <path d="m 2060,12905 0,-265 55,0 55,0 0,265 0,265 -55,0 -55,0 0,-265 z" inkscape:connector-curvature="0" id="path246" />
    <path d="m 5000,12905 0,-265 55,0 55,0 0,265 0,265 -55,0 -55,0 0,-265 z" inkscape:connector-curvature="0" id="path248" />
    <path d="m 2666,13144 c -9,-8 -16,-24 -16,-35 0,-25 35,-59 60,-59 25,0 60,34 60,59 0,28 -27,51 -60,51 -16,0 -36,-7 -44,-16 z" inkscape:connector-curvature="0" id="path250" />
    <path d="m 1268,13143 -28,-4 0,-250 0,-249 55,0 55,0 0,89 0,88 63,5 c 123,10 187,67 187,166 0,111 -58,155 -210,158 -52,1 -107,0 -122,-3 z m 202,-103 c 28,-28 26,-75 -5,-105 -18,-19 -35,-25 -70,-25 l -45,0 0,75 0,75 50,0 c 37,0 55,-5 70,-20 z" inkscape:connector-curvature="0" id="path252" />
    <path d="m 3368,13143 -28,-4 0,-250 0,-249 55,0 55,0 0,100 0,100 33,0 c 55,0 73,-21 98,-115 l 22,-85 59,0 c 32,0 58,1 58,3 0,1 -11,42 -24,90 -24,88 -48,137 -66,137 -18,0 -10,19 11,25 55,18 79,137 38,189 -36,46 -75,59 -184,62 -55,1 -112,0 -127,-3 z m 204,-103 c 23,-29 23,-62 -1,-91 -14,-18 -29,-23 -67,-23 l -49,-1 -3,64 c -2,44 1,67 10,73 22,15 91,1 110,-22 z" inkscape:connector-curvature="0" id="path254" />
    <path d="m 9860,12585 0,-535 168,2 167,3 3,533 2,532 -170,0 -170,0 0,-535 z" inkscape:connector-curvature="0" id="path256" />
    <path d="m 25890,12596 c 0,-437 2,-525 14,-535 10,-8 61,-11 168,-9 l 153,3 3,533 2,532 -170,0 -170,0 0,-524 z" inkscape:connector-curvature="0" id="path258" />
    <path d="m 32354,13046 c -3,-8 -4,-63 -2,-123 l 3,-108 438,-3 437,-2 0,125 0,125 -435,0 c -365,0 -436,-2 -441,-14 z" inkscape:connector-curvature="0" id="path260" />
    <path d="m 10330,12585 0,-435 125,0 125,0 0,435 0,435 -125,0 -125,0 0,-435 z" inkscape:connector-curvature="0" id="path262" />
    <path d="m 26367,13014 c -3,-4 -6,-199 -7,-435 l 0,-429 130,0 130,0 0,435 -1,435 -123,0 c -67,0 -125,-3 -129,-6 z" inkscape:connector-curvature="0" id="path264" />
    <path d="m 1705,12997 c -37,-12 -40,-15 -37,-47 3,-43 5,-44 43,-31 49,17 103,14 122,-7 10,-10 17,-21 17,-24 0,-3 -24,-8 -54,-11 -132,-13 -198,-96 -151,-187 30,-59 105,-76 175,-40 34,17 40,18 40,5 0,-11 12,-15 50,-15 l 50,0 0,128 c 0,140 -11,178 -63,216 -34,25 -134,31 -192,13 z m 145,-221 c 0,-57 -76,-91 -100,-46 -22,41 12,78 73,79 24,1 27,-2 27,-33 z" inkscape:connector-curvature="0" id="path266" />
    <path d="m 2305,12997 c -37,-12 -40,-15 -37,-47 3,-43 5,-44 43,-31 49,17 103,14 122,-7 10,-10 17,-21 17,-24 0,-3 -24,-8 -54,-11 -132,-13 -198,-96 -151,-187 30,-59 105,-76 175,-40 34,17 40,18 40,5 0,-11 12,-15 50,-15 l 50,0 0,128 c 0,140 -11,178 -63,216 -34,25 -134,31 -192,13 z m 145,-221 c 0,-57 -76,-91 -100,-46 -22,41 12,78 73,79 24,1 27,-2 27,-33 z" inkscape:connector-curvature="0" id="path268" />
    <path d="m 2945,13003 c -53,-15 -95,-66 -95,-117 0,-36 46,-82 105,-104 95,-37 58,-90 -43,-63 -25,6 -46,10 -49,8 -2,-3 -8,-18 -13,-36 -10,-36 2,-46 68,-57 99,-16 185,24 198,92 11,59 -11,92 -85,128 -48,23 -66,37 -66,51 0,17 7,20 45,20 25,-1 51,-3 59,-5 19,-6 39,56 24,71 -12,12 -118,21 -148,12 z" inkscape:connector-curvature="0" id="path270" />
    <path d="m 3864,12986 c -66,-34 -97,-87 -98,-165 -1,-109 60,-177 168,-188 47,-5 64,-2 109,20 71,35 101,86 101,172 0,108 -62,173 -172,182 -47,4 -65,0 -108,-21 z m 135,-75 c 11,-11 23,-36 27,-55 20,-110 -54,-187 -117,-120 -20,21 -24,36 -24,86 0,53 3,62 28,84 34,29 60,31 86,5 z" inkscape:connector-curvature="0" id="path272" />
    <path d="m 4645,12997 c -37,-12 -40,-15 -37,-47 3,-43 5,-44 43,-31 49,17 103,14 122,-7 10,-10 17,-21 17,-24 0,-3 -24,-8 -54,-11 -132,-13 -198,-96 -151,-187 30,-59 105,-76 175,-40 34,17 40,18 40,5 0,-11 12,-15 50,-15 l 50,0 0,128 c 0,140 -11,178 -63,216 -34,25 -134,31 -192,13 z m 145,-221 c 0,-57 -76,-91 -100,-46 -22,41 12,78 73,79 24,1 27,-2 27,-33 z" inkscape:connector-curvature="0" id="path274" />
    <path d="m 2660,12820 0,-180 55,0 55,0 0,180 0,180 -55,0 -55,0 0,-180 z" inkscape:connector-curvature="0" id="path276" />
    <path d="m 4170,12996 c 0,-3 23,-63 51,-133 100,-250 91,-218 67,-248 -12,-15 -36,-33 -53,-41 -32,-13 -32,-13 -22,-59 11,-47 19,-51 61,-35 81,30 136,123 226,378 l 50,142 -60,0 -59,0 -15,-48 c -7,-27 -22,-84 -31,-127 l -18,-79 -36,125 -37,124 -62,3 c -34,2 -62,1 -62,-2 z" inkscape:connector-curvature="0" id="path278" />
    <path d="m 10760,12588 0,-339 83,3 82,3 0,335 0,335 -82,1 -83,0 0,-338 z" inkscape:connector-curvature="0" id="path280" />
    <path d="m 26790,12590 0,-340 85,0 85,0 0,340 0,340 -85,0 -85,0 0,-340 z" inkscape:connector-curvature="0" id="path282" />
    <path d="m 32452,12548 3,-83 338,-3 337,-2 0,85 0,85 -340,0 -341,0 3,-82 z" inkscape:connector-curvature="0" id="path284" />
    <path d="m 3023,12080 c -65,-39 -63,-22 -63,-625 0,-592 0,-590 55,-633 33,-26 92,-29 136,-7 38,20 643,468 687,509 45,41 62,77 62,126 0,48 -17,85 -57,121 -61,57 -680,506 -712,517 -47,17 -71,15 -108,-8 z m 447,-438 c 129,-96 240,-179 246,-185 9,-9 -60,-65 -283,-230 -163,-120 -298,-216 -300,-213 -3,3 -6,837 -3,874 0,4 24,-13 340,-246 z" inkscape:connector-curvature="0" id="path286" />
    <path d="m 17580,11875 0,-125 25,0 25,0 0,125 0,125 -25,0 -25,0 0,-125 z" inkscape:connector-curvature="0" id="path288" />
    <path d="m 17720,11875 0,-125 25,0 25,0 0,125 0,125 -25,0 -25,0 0,-125 z" inkscape:connector-curvature="0" id="path290" />
    <path d="m 17850,11875 0,-125 25,0 25,0 0,125 0,125 -25,0 -25,0 0,-125 z" inkscape:connector-curvature="0" id="path292" />
    <path d="m 17990,11875 0,-125 25,0 25,0 0,125 0,125 -25,0 -25,0 0,-125 z" inkscape:connector-curvature="0" id="path294" />
    <path d="m 18120,11875 0,-125 25,0 25,0 0,125 0,125 -25,0 -25,0 0,-125 z" inkscape:connector-curvature="0" id="path296" />
    <path d="m 18260,11875 0,-125 25,0 25,0 0,125 0,125 -25,0 -25,0 0,-125 z" inkscape:connector-curvature="0" id="path298" />
    <path d="m 18390,11875 0,-125 25,0 25,0 0,125 0,125 -25,0 -25,0 0,-125 z" inkscape:connector-curvature="0" id="path300" />
    <path d="m 18530,11875 0,-125 25,0 25,0 0,125 0,125 -25,0 -25,0 0,-125 z" inkscape:connector-curvature="0" id="path302" />
    <path d="m 18660,11875 0,-125 25,0 25,0 0,125 0,125 -25,0 -25,0 0,-125 z" inkscape:connector-curvature="0" id="path304" />
    <path d="m 18800,11875 0,-125 25,0 25,0 0,125 0,125 -25,0 -25,0 0,-125 z" inkscape:connector-curvature="0" id="path306" />
    <path d="m 18930,11875 0,-125 25,0 25,0 0,125 0,125 -25,0 -25,0 0,-125 z" inkscape:connector-curvature="0" id="path308" />
    <path d="m 29126,11983 c -3,-4 -6,-323 -6,-710 l 0,-703 -355,0 -355,0 0,-65 0,-65 355,0 355,0 0,-110 0,-110 1510,0 1511,0 -2,125 -1,125 -1384,0 -1384,0 0,760 0,760 -119,-1 c -66,0 -122,-3 -125,-6 z" inkscape:connector-curvature="0" id="path310" />
    <path d="m 28120,11795 0,-85 340,0 340,0 0,85 0,85 -340,0 -340,0 0,-85 z" inkscape:connector-curvature="0" id="path312" />
    <path d="m 4290,11265 0,-535 165,0 165,0 0,535 0,535 -165,0 -165,0 0,-535 z" inkscape:connector-curvature="0" id="path314" />
    <path d="m 2405,11724 c -51,-13 -112,-36 -128,-48 -17,-13 -16,-16 3,-62 12,-27 23,-50 24,-52 2,-1 19,7 39,18 86,51 189,28 203,-45 12,-64 -31,-129 -172,-262 -122,-114 -124,-117 -124,-160 l 0,-43 230,0 230,0 0,60 0,60 -121,0 -121,0 89,88 c 110,107 138,159 138,253 0,55 -5,72 -28,107 -36,55 -94,84 -177,88 -36,2 -74,1 -85,-2 z" inkscape:connector-curvature="0" id="path316" />
    <path d="m 4760,11265 0,-435 125,0 125,0 0,435 0,435 -125,0 -125,0 0,-435 z" inkscape:connector-curvature="0" id="path318" />
    <path d="m 30771,11593 c -58,-21 -114,-78 -130,-134 -9,-32 -11,-140 -9,-399 3,-341 4,-357 25,-395 27,-50 57,-79 108,-102 36,-16 82,-18 463,-21 258,-2 449,1 489,7 86,13 150,52 183,111 l 25,45 0,370 c 0,360 -1,371 -22,410 -27,51 -68,90 -115,109 -55,24 -951,22 -1017,-1 z m 698,-57 c 8,-9 11,-65 9,-176 -3,-142 -5,-164 -20,-174 -13,-8 -23,-8 -35,0 -16,10 -18,32 -21,174 -3,168 2,190 38,190 10,0 23,-6 29,-14 z m -329,-176 c 36,-36 26,-62 -57,-144 l -78,-76 354,0 c 390,0 391,0 391,-61 0,-59 3,-59 -386,-59 -195,0 -354,-3 -354,-6 0,-3 34,-37 75,-76 80,-74 92,-103 58,-140 -37,-41 -63,-26 -233,130 l -161,147 108,103 c 149,143 221,202 244,202 10,0 28,-9 39,-20 z m 338,-550 c 3,-188 1,-200 -37,-200 -17,0 -31,6 -35,16 -8,22 -8,329 1,338 4,4 21,6 38,4 l 30,-3 3,-155 z" inkscape:connector-curvature="0" id="path320" />
    <path d="m 5182,11263 3,-338 83,-3 82,-3 0,341 0,340 -85,0 -85,0 2,-337 z" inkscape:connector-curvature="0" id="path322" />
    <path d="m 28020,11409 0,-129 435,0 435,0 0,130 0,131 -435,-1 -435,-1 0,-130 z" inkscape:connector-curvature="0" id="path324" />
    <path d="m 6750,11025 0,-355 60,0 60,0 0,355 0,355 -60,0 -60,0 0,-355 z" inkscape:connector-curvature="0" id="path326" />
    <path d="m 27925,11128 c -3,-13 -4,-88 -3,-168 l 3,-145 533,-3 532,-3 0,171 0,170 -530,0 -530,0 -5,-22 z" inkscape:connector-curvature="0" id="path328" />
    <path d="m 4210,10525 0,-125 1475,0 1475,0 0,-2585 0,-2585 125,0 125,0 0,2660 c 0,2358 -2,2660 -15,2660 -11,0 -15,12 -15,50 l 0,50 -1585,0 -1585,0 0,-125 z" inkscape:connector-curvature="0" id="path330" />
    <path d="m 9890,8635 0,-355 -355,0 -355,0 0,-60 0,-60 355,0 355,0 0,-1465 0,-1465 125,0 125,0 0,1755 0,1755 2525,0 2525,0 2,-2757 3,-2758 123,-3 122,-3 0,2755 c 0,2195 3,2755 13,2758 9,4 12,38 12,129 l 0,124 -2787,3 -2788,2 0,-355 z" inkscape:connector-curvature="0" id="path332" />
    <path d="m 15550,8865 c 0,-69 3,-125 8,-126 4,0 15,-2 25,-4 15,-3 17,8 17,126 l 0,129 -25,0 -25,0 0,-125 z" inkscape:connector-curvature="0" id="path334" />
    <path d="m 15686,8973 c -8,-19 -6,-211 1,-230 3,-7 14,-13 24,-13 18,0 19,9 19,130 0,121 -1,130 -19,130 -10,0 -22,-8 -25,-17 z" inkscape:connector-curvature="0" id="path336" />
    <path d="m 15820,8859 c 0,-130 0,-130 23,-127 21,3 22,7 25,131 l 3,127 -26,0 -25,0 0,-131 z" inkscape:connector-curvature="0" id="path338" />
    <path d="m 15957,8983 c -4,-3 -7,-59 -7,-124 0,-98 3,-118 16,-123 9,-3 20,-4 25,0 5,3 9,61 9,130 0,114 -2,124 -18,124 -10,0 -22,-3 -25,-7 z" inkscape:connector-curvature="0" id="path340" />
    <path d="m 16092,8863 c 3,-120 4,-128 23,-128 19,0 20,8 23,128 l 3,127 -26,0 -26,0 3,-127 z" inkscape:connector-curvature="0" id="path342" />
    <path d="m 16224,8976 c -3,-8 -4,-65 -2,-127 3,-110 4,-114 26,-115 22,-1 22,0 22,127 0,123 -1,129 -20,129 -11,0 -23,-6 -26,-14 z" inkscape:connector-curvature="0" id="path344" />
    <path d="m 16360,8861 c 0,-98 3,-131 13,-131 32,1 35,16 34,135 -2,116 -3,120 -24,123 -23,3 -23,3 -23,-127 z" inkscape:connector-curvature="0" id="path346" />
    <path d="m 16492,8863 c 3,-122 4,-126 26,-129 22,-4 22,-3 22,126 l 0,130 -25,0 -26,0 3,-127 z" inkscape:connector-curvature="0" id="path348" />
    <path d="m 16630,8861 c 0,-122 1,-131 19,-131 26,0 28,10 27,140 -1,111 -2,115 -23,118 -23,3 -23,3 -23,-127 z" inkscape:connector-curvature="0" id="path350" />
    <path d="m 16762,8863 c 3,-125 4,-128 26,-129 22,-1 22,0 22,127 l 0,129 -25,0 -26,0 3,-127 z" inkscape:connector-curvature="0" id="path352" />
    <path d="m 16900,8861 c 0,-123 1,-130 20,-128 25,2 26,5 29,110 3,110 -4,147 -30,147 -18,0 -19,-8 -19,-129 z" inkscape:connector-curvature="0" id="path354" />
    <path d="m 17032,8863 c 3,-124 4,-128 26,-131 22,-3 22,-3 22,127 l 0,131 -25,0 -26,0 3,-127 z" inkscape:connector-curvature="0" id="path356" />
    <path d="m 17210,7605 0,-1385 125,0 125,0 0,1260 0,1261 473,-2 472,-1 0,124 0,123 -597,3 -598,2 0,-1385 z" inkscape:connector-curvature="0" id="path358" />
    <path d="m 18492,8863 c 3,-122 4,-126 26,-129 22,-4 22,-3 22,126 l 0,130 -25,0 -26,0 3,-127 z" inkscape:connector-curvature="0" id="path360" />
    <path d="m 18630,8861 c 0,-122 1,-131 19,-131 26,0 28,10 27,140 -1,111 -2,115 -23,118 -23,3 -23,3 -23,-127 z" inkscape:connector-curvature="0" id="path362" />
    <path d="m 18762,8863 c 3,-125 4,-128 26,-129 22,-1 22,0 22,127 l 0,129 -25,0 -26,0 3,-127 z" inkscape:connector-curvature="0" id="path364" />
    <path d="m 18895,8960 c -6,-29 -5,-195 2,-215 2,-6 12,-11 23,-12 19,-2 20,5 20,128 0,121 -1,129 -19,129 -13,0 -21,-9 -26,-30 z" inkscape:connector-curvature="0" id="path366" />
    <path d="m 19030,8861 c 0,-127 0,-128 23,-127 21,1 22,4 25,129 l 3,127 -26,0 -25,0 0,-129 z" inkscape:connector-curvature="0" id="path368" />
    <path d="m 19165,8980 c -7,-11 -4,-217 3,-237 2,-7 13,-13 23,-13 18,0 19,9 19,130 0,122 -1,130 -19,130 -11,0 -23,-5 -26,-10 z" inkscape:connector-curvature="0" id="path370" />
    <path d="m 19300,8860 c 0,-129 0,-130 23,-126 21,3 22,7 25,129 l 3,127 -26,0 -25,0 0,-130 z" inkscape:connector-curvature="0" id="path372" />
    <path d="m 19435,8980 c -3,-5 -5,-61 -4,-124 1,-115 5,-126 40,-126 5,0 9,58 9,130 0,122 -1,130 -19,130 -11,0 -22,-4 -26,-10 z" inkscape:connector-curvature="0" id="path374" />
    <path d="m 19570,8859 c 0,-130 0,-130 23,-127 21,3 22,7 25,131 l 3,127 -26,0 -25,0 0,-131 z" inkscape:connector-curvature="0" id="path376" />
    <path d="m 19702,8863 c 3,-120 4,-128 23,-128 19,0 20,8 23,128 l 3,127 -26,0 -26,0 3,-127 z" inkscape:connector-curvature="0" id="path378" />
    <path d="m 19840,8866 c 0,-69 4,-127 9,-130 5,-4 16,-3 25,0 14,5 16,23 14,128 -3,117 -4,121 -25,124 -23,3 -23,2 -23,-122 z" inkscape:connector-curvature="0" id="path380" />
    <path d="m 7737,8729 c -81,-19 -147,-76 -167,-146 -8,-26 -10,-187 -8,-513 3,-468 3,-476 25,-516 12,-23 36,-53 52,-67 59,-49 81,-52 441,-52 369,0 400,4 465,58 69,57 75,81 75,345 0,132 4,232 9,232 11,0 62,-23 363,-163 l 97,-45 26,55 c 14,31 24,58 22,59 -2,2 -86,43 -188,90 -101,47 -217,101 -256,119 l -73,34 0,164 c 0,189 -10,230 -68,290 -61,63 -90,67 -456,66 -177,-1 -338,-5 -359,-10 z m 460,-226 c 168,-182 193,-212 193,-238 0,-33 -25,-55 -63,-55 -26,0 -43,13 -104,78 l -72,77 -1,-362 0,-362 -22,-15 c -30,-21 -54,-20 -78,4 -19,19 -20,34 -20,378 l -1,357 -72,-78 c -77,-83 -109,-96 -149,-60 -30,27 -22,59 34,120 119,133 242,263 248,263 4,0 52,-48 107,-107 z m -223,-549 c 18,-17 20,-32 8,-52 -7,-9 -50,-12 -183,-10 l -174,3 -3,24 c -7,44 18,51 184,51 125,0 155,-3 168,-16 z m 570,3 c 11,-8 17,-23 14,-38 l -3,-24 -174,0 c -152,0 -175,2 -184,17 -9,13 -7,22 7,37 18,19 30,21 171,21 109,0 156,-4 169,-13 z" inkscape:connector-curvature="0" id="path382" />
    <path d="m 15910,7205 0,-85 340,0 340,0 0,85 0,85 -340,0 -340,0 0,-85 z" inkscape:connector-curvature="0" id="path384" />
    <path d="m 15814,6937 c -2,-7 -3,-65 -2,-128 l 3,-114 422,-2 c 232,-2 429,0 438,3 22,9 23,239 0,248 -8,3 -204,5 -435,6 -341,0 -421,-2 -426,-13 z" inkscape:connector-curvature="0" id="path386" />
    <path d="m 15714,6547 c -2,-7 -3,-82 -2,-167 l 3,-155 533,-2 532,-2 0,169 0,170 -530,0 c -425,0 -532,-3 -536,-13 z" inkscape:connector-curvature="0" id="path388" />
    <path d="m 8630,6367 c -53,-27 -30,-117 30,-117 59,0 81,72 34,109 -31,24 -31,25 -64,8 z" inkscape:connector-curvature="0" id="path390" />
    <path d="m 8610,6091 c -25,-49 1,-101 52,-101 51,0 78,69 40,103 -26,24 -79,22 -92,-2 z" inkscape:connector-curvature="0" id="path392" />
    <path d="m 8616,5834 c -22,-21 -20,-67 2,-87 40,-36 102,-9 102,45 0,49 -69,78 -104,42 z" inkscape:connector-curvature="0" id="path394" />
    <path d="m 8616,5574 c -9,-8 -16,-28 -16,-44 0,-36 23,-60 59,-60 54,0 82,68 43,103 -23,21 -66,22 -86,1 z" inkscape:connector-curvature="0" id="path396" />
    <path d="m 17210,3505 0,-1855 125,0 125,0 0,1855 0,1855 -125,0 -125,0 0,-1855 z" inkscape:connector-curvature="0" id="path398" />
    <path d="m 18760,4296 0,-1064 23,-6 c 12,-3 68,-6 125,-6 l 102,0 0,1070 0,1070 -125,0 -125,0 0,-1064 z" inkscape:connector-curvature="0" id="path400" />
    <path d="m 8617,5312 c -21,-23 -22,-66 -1,-86 36,-37 104,-7 104,46 0,51 -69,78 -103,40 z" inkscape:connector-curvature="0" id="path402" />
    <path d="m 8841,5216 c -12,-13 -50,-36 -83,-51 -50,-23 -71,-27 -124,-23 -55,3 -72,10 -124,45 -33,23 -60,41 -60,40 0,-1 47,-130 104,-287 58,-157 107,-278 110,-270 44,114 205,564 203,567 -2,1 -14,-8 -26,-21 z" inkscape:connector-curvature="0" id="path404" />
    <path d="m 17779,5113 c -17,-38 -31,-72 -32,-76 -1,-5 74,-44 167,-87 l 169,-79 166,76 c 91,42 168,78 170,80 4,2 -33,88 -65,151 -1,1 -61,-24 -133,-58 -73,-33 -134,-60 -137,-60 -3,0 -64,27 -136,60 -71,33 -132,60 -135,60 -2,0 -17,-30 -34,-67 z" inkscape:connector-curvature="0" id="path406" />
    <path d="m 19477,5153 c -2,-5 -5,-43 -6,-85 l -2,-78 345,0 344,0 -1,83 -2,82 -337,3 c -185,1 -339,-1 -341,-5 z" inkscape:connector-curvature="0" id="path408" />
    <path d="m 16208,5133 c -22,-26 -26,-45 -17,-71 16,-43 85,-48 111,-8 37,55 -51,129 -94,79 z" inkscape:connector-curvature="0" id="path410" />
    <path d="m 16210,4872 c -48,-39 -10,-121 49,-107 51,12 68,68 31,105 -25,25 -51,25 -80,2 z" inkscape:connector-curvature="0" id="path412" />
    <path d="m 17693,4728 c -23,-61 -40,-114 -38,-118 2,-4 99,-42 216,-85 l 211,-78 186,68 c 103,38 202,74 219,82 l 32,13 -30,83 c -17,45 -36,97 -42,115 -6,17 -13,32 -17,32 -4,0 -80,-27 -169,-60 -89,-33 -170,-60 -179,-60 -9,0 -89,27 -177,60 -88,33 -162,60 -165,60 -3,0 -24,-50 -47,-112 z" inkscape:connector-curvature="0" id="path414" />
    <path d="m 19382,4692 3,-127 433,-3 432,-3 0,131 0,130 -435,0 -436,-1 3,-127 z" inkscape:connector-curvature="0" id="path416" />
    <path d="m 16210,4612 c -43,-35 -15,-112 41,-112 27,0 59,35 59,65 0,30 -32,65 -59,65 -10,0 -29,-8 -41,-18 z" inkscape:connector-curvature="0" id="path418" />
    <path d="m 17645,4449 c -15,-41 -94,-303 -92,-305 5,-5 520,-164 531,-164 18,0 520,151 528,159 4,3 -13,73 -37,155 -25,82 -45,151 -45,153 0,9 -43,-2 -226,-57 -109,-33 -207,-60 -218,-60 -14,0 -368,106 -423,127 -7,3 -15,-1 -18,-8 z" inkscape:connector-curvature="0" id="path420" />
    <path d="m 19282,4263 3,-168 530,0 530,0 3,168 2,167 -535,0 -535,0 2,-167 z" inkscape:connector-curvature="0" id="path422" />
    <path d="m 16210,4352 c -43,-35 -15,-112 41,-112 27,0 59,35 59,65 0,30 -32,65 -59,65 -10,0 -29,-8 -41,-18 z" inkscape:connector-curvature="0" id="path424" />
    <path d="m 9730,3995 0,-265 55,0 55,0 0,265 0,265 -55,0 -55,0 0,-265 z" inkscape:connector-curvature="0" id="path426" />
    <path d="m 9940,3995 0,-265 55,0 55,0 0,265 0,265 -55,0 -55,0 0,-265 z" inkscape:connector-curvature="0" id="path428" />
    <path d="m 8820,3985 0,-255 55,0 55,0 0,105 0,105 95,0 95,0 0,-105 0,-105 55,0 55,0 0,255 0,255 -55,0 -55,0 0,-100 0,-100 -95,0 -95,0 0,100 0,100 -55,0 -55,0 0,-255 z" inkscape:connector-curvature="0" id="path430" />
    <path d="m 16210,4092 c -43,-35 -16,-112 41,-112 27,0 59,35 59,64 0,24 -23,56 -40,56 -5,0 -15,2 -23,5 -7,3 -24,-2 -37,-13 z" inkscape:connector-curvature="0" id="path432" />
    <path d="m 7753,4089 c -66,-19 -123,-102 -123,-179 0,-124 95,-200 235,-187 90,9 98,13 91,55 -3,19 -7,36 -8,38 -2,1 -24,-2 -50,-7 -57,-13 -121,2 -143,34 -8,12 -15,25 -15,29 0,5 54,8 120,8 l 120,0 0,50 c 0,126 -99,196 -227,159 z m 110,-87 c 35,-31 21,-42 -53,-42 -38,0 -70,3 -70,6 0,16 24,46 43,54 26,10 55,4 80,-18 z" inkscape:connector-curvature="0" id="path434" />
    <path d="m 8215,4089 c -11,-6 -30,-23 -42,-38 l -23,-26 0,33 c 0,32 0,32 -51,32 -48,0 -51,-1 -45,-22 3,-13 6,-94 6,-180 l 0,-158 55,0 55,0 0,110 c 0,127 12,150 75,150 l 35,0 0,55 c 0,50 -2,55 -22,55 -13,0 -32,-5 -43,-11 z" inkscape:connector-curvature="0" id="path436" />
    <path d="m 8415,4093 c -53,-15 -95,-66 -95,-117 0,-36 46,-82 105,-104 95,-37 58,-90 -43,-63 -25,6 -46,10 -49,8 -2,-3 -8,-18 -13,-36 -10,-36 2,-46 68,-57 99,-16 185,24 198,92 11,59 -11,92 -85,128 -48,23 -66,37 -66,51 0,17 7,20 45,20 25,-1 51,-3 59,-5 19,-6 39,56 24,71 -12,12 -118,21 -148,12 z" inkscape:connector-curvature="0" id="path438" />
    <path d="m 9375,4087 c -37,-12 -40,-15 -37,-47 3,-43 5,-44 43,-31 49,17 103,14 122,-7 10,-10 17,-21 17,-24 0,-3 -24,-8 -54,-11 -132,-13 -198,-96 -151,-187 30,-59 105,-76 175,-40 34,17 40,18 40,5 0,-11 12,-15 50,-15 l 50,0 0,128 c 0,140 -11,178 -63,216 -34,25 -134,31 -192,13 z m 145,-221 c 0,-57 -76,-91 -100,-46 -22,41 12,78 73,79 24,1 27,-2 27,-33 z" inkscape:connector-curvature="0" id="path440" />
    <path d="m 7230,4083 c 0,-5 29,-84 64,-178 l 64,-170 59,0 58,0 66,175 66,175 -54,3 c -31,2 -58,1 -61,-3 -3,-3 -20,-58 -37,-122 -32,-117 -36,-123 -49,-68 -4,17 -19,67 -32,113 l -25,82 -60,0 c -32,0 -59,-3 -59,-7 z" inkscape:connector-curvature="0" id="path442" />
    <path d="m 16042,4000 c 40,-127 203,-559 209,-553 4,5 37,91 74,193 37,102 82,226 100,276 l 33,91 -56,-37 c -121,-81 -234,-76 -331,14 -19,17 -32,24 -29,16 z" inkscape:connector-curvature="0" id="path444" />
    <path d="m 14850,2814 c -105,-28 -180,-72 -265,-158 -121,-121 -175,-250 -175,-412 1,-329 264,-594 590,-594 325,0 590,265 590,590 0,167 -54,295 -175,416 -86,87 -161,131 -270,159 -74,19 -222,18 -295,-1 z m 78,-426 c 29,-101 55,-202 58,-226 4,-23 10,-44 14,-47 3,-2 15,31 25,73 10,42 39,145 65,227 l 48,150 101,3 101,3 0,-38 c 0,-21 7,-150 15,-288 8,-137 15,-271 15,-297 l 0,-48 -69,0 -69,0 -6,63 c -3,34 -9,151 -13,260 l -8,199 -38,-129 c -21,-70 -56,-185 -78,-255 l -40,-128 -59,0 -59,0 -11,43 c -7,23 -27,96 -45,162 -19,66 -43,160 -54,208 -10,49 -21,90 -24,93 -2,2 -7,-80 -11,-183 -3,-104 -9,-221 -13,-260 l -6,-73 -69,0 -70,0 6,48 c 3,26 13,176 23,335 l 17,287 101,0 102,0 51,-182 z" inkscape:connector-curvature="0" id="path446" />
    <path d="m 18225,2816 c -136,-33 -271,-128 -348,-243 -156,-235 -130,-546 63,-743 313,-317 846,-195 986,225 107,323 -84,674 -412,759 -73,19 -217,20 -289,2 z m 63,-428 c 29,-101 55,-202 58,-226 4,-23 10,-44 14,-47 3,-2 15,31 25,73 10,42 39,145 65,227 l 48,150 101,3 101,3 0,-38 c 0,-21 7,-150 15,-288 8,-137 15,-271 15,-297 l 0,-48 -69,0 -69,0 -6,63 c -3,34 -9,151 -13,260 l -8,199 -38,-129 c -21,-70 -56,-185 -78,-255 l -40,-128 -59,0 -59,0 -11,43 c -7,23 -27,96 -45,162 -19,66 -43,160 -54,208 -10,49 -21,90 -24,93 -2,2 -7,-80 -11,-183 -3,-104 -9,-221 -13,-260 l -6,-73 -69,0 -70,0 6,48 c 3,26 13,176 23,335 l 17,287 101,0 102,0 51,-182 z" inkscape:connector-curvature="0" id="path448" />
    <path d="m 16181,2510 c -74,-35 -83,-42 -78,-62 3,-13 9,-39 12,-59 l 7,-37 61,28 62,28 3,-254 2,-254 75,0 75,0 0,325 0,325 -67,0 c -58,-1 -80,-6 -152,-40 z" inkscape:connector-curvature="0" id="path450" />
    <path d="m 19541,2510 c -74,-35 -83,-42 -78,-62 3,-13 9,-39 12,-59 l 7,-37 61,28 62,28 3,-254 2,-254 75,0 75,0 0,325 0,325 -67,0 c -58,-1 -80,-6 -152,-40 z" inkscape:connector-curvature="0" id="path452" />
    <path d="m 13996,1404 c -9,-8 -16,-24 -16,-35 0,-25 35,-59 60,-59 25,0 60,34 60,59 0,28 -27,51 -60,51 -16,0 -36,-7 -44,-16 z" inkscape:connector-curvature="0" id="path454" />
    <path d="m 13491,1398 c 0,-7 35,-121 78,-253 l 77,-240 66,-3 66,-3 85,256 86,256 -61,-3 -61,-3 -28,-95 c -16,-52 -41,-141 -55,-198 l -27,-102 -32,127 c -18,71 -42,161 -54,201 l -22,72 -59,0 c -42,0 -60,-4 -59,-12 z" inkscape:connector-curvature="0" id="path456" />
    <path d="m 19834,1376 c -44,-20 -73,-61 -80,-117 -6,-43 -9,-49 -30,-49 -21,0 -24,-5 -24,-40 0,-36 3,-40 25,-40 l 25,0 0,-140 0,-140 55,0 54,0 3,138 3,137 38,3 c 36,3 37,4 37,43 l 0,39 -41,0 c -41,0 -41,0 -35,32 8,42 23,58 56,58 24,0 29,5 35,36 4,26 2,39 -7,45 -20,13 -79,10 -114,-5 z" inkscape:connector-curvature="0" id="path458" />
    <path d="m 19481,1318 -30,-53 37,-3 c 33,-3 41,1 79,45 24,26 43,51 43,56 0,4 -22,7 -49,7 -49,0 -50,0 -80,-52 z" inkscape:connector-curvature="0" id="path460" />
    <path d="m 17880,1105 0,-255 155,0 155,0 0,45 0,44 -97,3 -98,3 -3,208 -2,207 -55,0 -55,0 0,-255 z" inkscape:connector-curvature="0" id="path462" />
    <path d="m 18853,1353 -33,-4 0,-249 0,-249 36,-7 c 53,-10 202,2 252,20 65,23 95,49 127,108 26,47 30,63 29,138 0,172 -78,241 -279,246 -55,1 -115,0 -132,-3 z m 228,-106 c 51,-34 71,-80 67,-154 -6,-102 -61,-157 -156,-158 l -57,0 -3,155 c -1,85 0,160 2,167 9,23 108,16 147,-10 z" inkscape:connector-curvature="0" id="path464" />
    <path d="m 14344,1256 c -18,-8 -35,-19 -38,-25 -11,-18 -26,-13 -26,9 0,17 -7,20 -51,20 l -51,0 6,-31 c 3,-17 6,-98 6,-180 l 0,-149 55,0 55,0 0,120 c 0,107 2,122 20,140 11,11 29,20 40,20 11,0 29,-9 40,-20 18,-18 20,-33 20,-140 l 0,-120 55,0 55,0 0,139 c 0,127 -2,141 -23,172 -39,57 -97,73 -163,45 z" inkscape:connector-curvature="0" id="path466" />
    <path d="m 14727,1255 c -80,-28 -120,-89 -121,-181 0,-72 26,-121 82,-156 30,-19 51,-23 114,-23 42,0 81,5 86,10 5,6 7,26 5,46 l -5,35 -53,-4 c -50,-4 -57,-2 -85,26 -42,43 -42,101 0,144 27,27 36,30 81,26 46,-3 50,-1 55,22 3,14 8,32 10,41 8,30 -101,39 -169,14 z" inkscape:connector-curvature="0" id="path468" />
    <path d="m 15053,1259 c -66,-19 -123,-102 -123,-179 0,-124 95,-200 235,-187 90,9 98,13 91,55 -3,19 -7,36 -8,38 -2,1 -24,-2 -50,-7 -57,-13 -121,2 -143,34 -8,12 -15,25 -15,29 0,5 54,8 120,8 l 120,0 0,50 c 0,126 -99,196 -227,159 z m 110,-87 c 35,-31 21,-42 -53,-42 -38,0 -70,3 -70,6 0,16 24,46 43,54 26,10 55,4 80,-18 z" inkscape:connector-curvature="0" id="path470" />
    <path d="m 15514,1256 c -18,-8 -35,-19 -38,-25 -11,-18 -26,-13 -26,9 0,17 -7,20 -51,20 l -51,0 6,-31 c 3,-17 6,-98 6,-180 l 0,-149 55,0 55,0 0,120 c 0,107 2,122 20,140 11,11 29,20 40,20 11,0 29,-9 40,-20 18,-18 20,-33 20,-140 l 0,-120 55,0 55,0 0,139 c 0,127 -2,141 -23,172 -39,57 -97,73 -163,45 z" inkscape:connector-curvature="0" id="path472" />
    <path d="m 15954,1256 c -18,-8 -35,-19 -38,-25 -11,-18 -26,-13 -26,9 0,17 -7,20 -51,20 l -51,0 6,-31 c 3,-17 6,-98 6,-180 l 0,-149 55,0 55,0 0,120 c 0,107 2,122 20,140 11,11 29,20 40,20 11,0 29,-9 40,-20 18,-18 20,-33 20,-140 l 0,-120 55,0 55,0 0,139 c 0,127 -2,141 -23,172 -39,57 -97,73 -163,45 z" inkscape:connector-curvature="0" id="path474" />
    <path d="m 16333,1259 c -66,-19 -123,-102 -123,-179 0,-124 95,-200 235,-187 90,9 98,13 91,55 -3,19 -7,36 -8,38 -2,1 -24,-2 -50,-7 -57,-13 -121,2 -143,34 -8,12 -15,25 -15,29 0,5 54,8 120,8 l 120,0 0,50 c 0,126 -99,196 -227,159 z m 110,-87 c 35,-31 21,-42 -53,-42 -38,0 -70,3 -70,6 0,16 24,46 43,54 26,10 55,4 80,-18 z" inkscape:connector-curvature="0" id="path476" />
    <path d="m 16705,1263 c -53,-15 -95,-66 -95,-117 0,-36 46,-82 105,-104 95,-37 58,-90 -43,-63 -25,6 -46,10 -49,8 -2,-3 -8,-18 -13,-36 -10,-36 2,-46 68,-57 99,-16 185,24 198,92 11,59 -11,92 -85,128 -48,23 -66,37 -66,51 0,17 7,20 45,20 25,-1 51,-3 59,-5 19,-6 39,56 24,71 -12,12 -118,21 -148,12 z" inkscape:connector-curvature="0" id="path478" />
    <path d="m 13990,1080 0,-180 55,0 55,0 0,180 0,180 -55,0 -55,0 0,-180 z" inkscape:connector-curvature="0" id="path480" />
    <path d="m 18315,1207 c -37,-12 -40,-15 -37,-47 3,-43 5,-44 43,-31 49,17 103,14 122,-7 10,-10 17,-21 17,-24 0,-3 -24,-8 -54,-11 -132,-13 -198,-96 -151,-187 30,-59 105,-76 175,-40 34,17 40,18 40,5 0,-11 12,-15 50,-15 l 50,0 0,128 c 0,140 -11,178 -63,216 -34,25 -134,31 -192,13 z m 145,-221 c 0,-57 -76,-91 -100,-46 -22,41 12,78 73,79 24,1 27,-2 27,-33 z" inkscape:connector-curvature="0" id="path482" />
    <path d="m 19433,1209 c -66,-19 -123,-102 -123,-179 0,-124 95,-200 235,-187 90,9 98,13 91,55 -3,19 -7,36 -8,38 -2,1 -24,-2 -50,-7 -57,-13 -121,2 -143,34 -8,12 -15,25 -15,29 0,5 54,8 120,8 l 120,0 0,50 c 0,126 -99,196 -227,159 z m 110,-87 c 35,-31 21,-42 -53,-42 -38,0 -70,3 -70,6 0,16 24,46 43,54 26,10 55,4 80,-18 z" inkscape:connector-curvature="0" id="path484" />
    <path d="m 20073,1209 c -66,-19 -123,-102 -123,-179 0,-124 95,-200 235,-187 90,9 98,13 91,55 -3,19 -7,36 -8,38 -2,1 -24,-2 -50,-7 -57,-13 -121,2 -143,34 -8,12 -15,25 -15,29 0,5 54,8 120,8 l 120,0 0,50 c 0,126 -99,196 -227,159 z m 110,-87 c 35,-31 21,-42 -53,-42 -38,0 -70,3 -70,6 0,16 24,46 43,54 26,10 55,4 80,-18 z" inkscape:connector-curvature="0" id="path486" />
    <path d="m 20534,1206 c -18,-8 -35,-19 -38,-25 -11,-18 -26,-13 -26,9 0,17 -7,20 -51,20 l -51,0 6,-31 c 3,-17 6,-98 6,-180 l 0,-149 55,0 55,0 0,120 c 0,107 2,122 20,140 11,11 29,20 40,20 11,0 29,-9 40,-20 18,-18 20,-33 20,-140 l 0,-120 55,0 55,0 0,139 c 0,127 -2,141 -23,172 -39,57 -97,73 -163,45 z" inkscape:connector-curvature="0" id="path488" />
    <path d="m 20895,1213 c -53,-15 -95,-66 -95,-117 0,-36 46,-82 105,-104 95,-37 58,-90 -43,-63 -25,6 -46,10 -49,8 -2,-3 -8,-18 -13,-36 -10,-36 2,-46 68,-57 99,-16 185,24 198,92 11,59 -11,92 -85,128 -48,23 -66,37 -66,51 0,17 7,20 45,20 25,-1 51,-3 59,-5 19,-6 39,56 24,71 -12,12 -118,21 -148,12 z" inkscape:connector-curvature="0" id="path490" />
    <path d="m 21243,1209 c -66,-19 -123,-102 -123,-179 0,-124 95,-200 235,-187 90,9 98,13 91,55 -3,19 -7,36 -8,38 -2,1 -24,-2 -50,-7 -57,-13 -121,2 -143,34 -8,12 -15,25 -15,29 0,5 54,8 120,8 l 120,0 0,50 c 0,126 -99,196 -227,159 z m 110,-87 c 35,-31 21,-42 -53,-42 -38,0 -70,3 -70,6 0,16 24,46 43,54 26,10 55,4 80,-18 z" inkscape:connector-curvature="0" id="path492" />
  </g>
</svg>
