<?xml version="1.0" standalone="no"?>
<!DOCTYPE svg PUBLIC "-//W3C//DTD SVG 20010904//EN"
 "http://www.w3.org/TR/2001/REC-SVG-20010904/DTD/svg10.dtd">
<svg version="1.0" xmlns="http://www.w3.org/2000/svg"
 width="3508.000000pt" height="2480.000000pt" viewBox="0 0 3508.000000 2480.000000"
 preserveAspectRatio="xMidYMid meet">
<metadata>
Created by potrace 1.11, written by Peter Selinger 2001-2013
</metadata>
<g transform="translate(0.000000,2480.000000) scale(0.100000,-0.100000)"
fill="#000000" stroke="none">
<path d="M1563 23612 c-18 -2 -33 -5 -33 -7 0 -2 -7 -39 -15 -82 -19 -99 -20
-95 12 -91 26 3 28 7 42 86 l14 82 42 0 c56 0 74 -20 51 -55 -13 -20 -25 -25
-58 -25 l-41 0 39 -44 c31 -35 46 -44 73 -45 l35 -1 -32 33 c-18 18 -32 36
-32 39 0 3 12 9 28 13 52 13 81 61 50 82 -16 9 -130 19 -175 15z"/>
<path d="M2830 22736 c0 -794 2 -884 16 -890 8 -3 2216 -6 4905 -6 l4889 0 0
890 0 890 -4905 0 -4905 0 0 -884z m4280 -21 l0 -355 -75 0 -75 0 0 355 0 355
75 0 75 0 0 -355z m-2460 270 l-61 -75 -51 0 -50 0 38 68 c20 37 39 70 41 75
2 4 36 7 74 7 l70 0 -61 -75z m-872 -137 c29 -101 55 -202 58 -226 4 -23 10
-44 14 -47 3 -2 15 31 25 73 10 42 39 145 65 227 l48 150 101 3 101 3 0 -38
c0 -21 7 -150 15 -288 8 -137 15 -271 15 -297 l0 -48 -69 0 -69 0 -6 63 c-3
34 -9 151 -13 260 l-8 199 -38 -129 c-21 -70 -56 -185 -78 -255 l-40 -128 -59
0 -59 0 -11 43 c-7 23 -27 96 -45 162 -19 66 -43 160 -54 208 -10 49 -21 90
-24 93 -2 2 -7 -80 -11 -183 -3 -104 -9 -221 -13 -260 l-6 -73 -69 0 -70 0 6
48 c3 26 13 176 23 335 l17 287 101 0 102 0 51 -182z m2924 168 c98 -23 152
-78 164 -168 19 -136 -81 -232 -252 -245 l-74 -6 0 -118 0 -119 -75 0 -75 0 0
329 0 330 53 4 c120 8 205 6 259 -7z m2516 -168 c29 -101 55 -202 58 -226 4
-23 10 -44 14 -47 3 -2 15 31 25 73 10 42 39 145 65 227 l48 150 101 3 101 3
0 -38 c0 -21 7 -150 15 -288 8 -137 15 -271 15 -297 l0 -48 -69 0 -69 0 -6 63
c-3 34 -9 151 -13 260 l-8 199 -38 -129 c-21 -70 -56 -185 -78 -255 l-40 -128
-59 0 -59 0 -11 43 c-7 23 -27 96 -45 162 -19 66 -43 160 -54 208 -10 49 -21
90 -24 93 -2 2 -7 -80 -11 -183 -3 -104 -9 -221 -13 -260 l-6 -73 -69 0 -70 0
6 48 c3 26 13 176 23 335 l17 287 101 0 102 0 51 -182z m-4188 57 l0 -65 55 0
55 0 0 -55 0 -55 -55 0 -55 0 0 -110 c0 -98 2 -112 21 -131 15 -15 30 -20 50
-17 l29 5 0 -58 0 -58 -36 -7 c-47 -9 -118 2 -150 22 -48 32 -58 67 -62 217
l-4 137 -29 0 c-28 0 -29 1 -29 55 0 54 0 55 30 55 29 0 30 2 30 45 l0 44 58
16 c31 9 62 18 67 20 23 8 25 2 25 -60z m-372 -79 c64 -33 101 -100 109 -197
l6 -69 -162 0 c-179 0 -188 -4 -133 -60 35 -35 102 -47 181 -32 31 5 59 7 63
3 4 -3 8 -26 10 -51 l3 -44 -50 -12 c-117 -28 -236 -9 -302 49 -52 46 -73 98
-73 183 0 59 5 81 28 125 30 58 87 105 143 120 45 11 143 3 177 -15z m872 -45
l0 -68 -47 -6 c-37 -4 -54 -12 -75 -36 -28 -31 -28 -32 -28 -171 l0 -140 -75
0 -75 0 0 240 0 240 65 0 65 0 0 -47 0 -48 26 39 c28 40 71 65 117 66 27 0 27
0 27 -69z m425 41 c86 -44 128 -117 128 -223 0 -180 -158 -288 -341 -234 -106
32 -166 117 -165 236 0 115 61 201 163 234 61 20 164 14 215 -13z m1604 -3
c22 -12 49 -39 62 -63 22 -38 24 -55 27 -218 l4 -178 -66 0 c-62 0 -66 1 -72
25 -6 24 -8 24 -23 11 -80 -72 -221 -53 -261 36 -23 51 -25 87 -6 131 27 67
124 117 222 117 50 0 59 9 39 37 -21 30 -79 37 -148 18 -32 -8 -60 -15 -62
-15 -4 0 -25 69 -25 83 0 4 12 12 28 18 89 35 218 34 281 -2z m561 14 c5 -4 3
-31 -3 -58 l-10 -51 -62 4 c-108 7 -162 -42 -152 -141 3 -38 11 -56 36 -80 30
-30 36 -32 106 -32 l75 0 6 -35 c3 -19 8 -42 10 -51 6 -21 -15 -29 -97 -36
-128 -11 -238 46 -275 143 -25 66 -16 180 19 233 58 87 142 124 266 117 40 -3
77 -8 81 -13z m408 -7 c64 -33 101 -100 109 -197 l6 -69 -162 0 c-179 0 -188
-4 -133 -60 35 -35 102 -47 181 -32 31 5 59 7 63 3 4 -3 8 -26 10 -51 l3 -44
-50 -12 c-117 -28 -236 -9 -302 49 -52 46 -73 98 -73 183 0 59 5 81 28 125 30
58 87 105 143 120 45 11 143 3 177 -15z m1607 -4 c86 -44 128 -117 128 -223 0
-180 -158 -288 -341 -234 -106 32 -166 117 -165 236 0 115 61 201 163 234 61
20 164 14 215 -13z m591 7 c33 -15 49 -32 68 -72 25 -49 26 -58 26 -224 l0
-173 -74 0 -75 0 -3 166 c-3 160 -4 166 -27 185 -33 27 -68 24 -102 -10 l-29
-29 0 -156 0 -156 -75 0 -75 0 0 240 0 240 65 0 65 0 0 -37 0 -37 28 27 c60
57 137 71 208 36z m490 2 c23 -11 47 -27 53 -38 9 -15 10 -13 11 15 l0 32 66
0 65 0 -3 -262 c-3 -247 -4 -265 -25 -303 -41 -76 -98 -111 -202 -121 -57 -6
-173 9 -201 26 -11 7 -11 18 -1 64 l12 55 42 -15 c127 -46 227 -2 227 101 l0
37 -30 -26 c-97 -81 -256 -16 -296 120 -59 204 110 393 282 315z m642 -5 c64
-33 101 -100 109 -197 l6 -69 -162 0 c-179 0 -188 -4 -133 -60 35 -35 102 -47
181 -32 31 5 59 7 63 3 4 -3 8 -26 10 -51 l3 -44 -50 -12 c-117 -28 -236 -9
-302 49 -52 46 -73 98 -73 183 0 59 5 81 28 125 30 58 87 105 143 120 45 11
143 3 177 -15z"/>
<path d="M6558 22913 c-16 -4 -18 -17 -18 -99 l0 -94 50 0 c87 0 130 36 130
109 0 57 -89 103 -162 84z"/>
<path d="M4479 22721 c-51 -52 -42 -61 62 -61 l91 0 -6 28 c-16 66 -96 84
-147 33z"/>
<path d="M5777 22720 c-73 -58 -56 -225 27 -254 104 -38 172 146 90 244 -31
36 -78 40 -117 10z"/>
<path d="M7403 22575 c-37 -16 -51 -54 -34 -91 9 -19 18 -24 50 -24 50 0 81
35 81 91 0 37 -1 39 -32 39 -18 -1 -47 -7 -65 -15z"/>
<path d="M8349 22721 c-51 -52 -42 -61 62 -61 l91 0 -6 28 c-16 66 -96 84
-147 33z"/>
<path d="M9957 22720 c-73 -58 -56 -225 27 -254 104 -38 172 146 90 244 -31
36 -78 40 -117 10z"/>
<path d="M11144 22730 c-59 -24 -88 -115 -59 -188 30 -73 96 -93 146 -43 27
27 29 35 29 105 0 64 -3 79 -22 100 -26 29 -63 39 -94 26z"/>
<path d="M11679 22721 c-51 -52 -42 -61 62 -61 l91 0 -6 28 c-16 66 -96 84
-147 33z"/>
<path d="M31735 23610 c-221 -45 -404 -219 -461 -441 -22 -87 -15 -249 16
-336 118 -336 506 -490 830 -331 94 47 206 161 253 258 55 112 71 187 64 300
-9 155 -64 278 -171 386 -136 136 -346 201 -531 164z m216 -240 c29 -6 69 -19
89 -29 101 -52 107 -188 9 -245 l-32 -19 35 -18 c148 -76 118 -285 -46 -334
-66 -20 -204 -30 -289 -21 l-67 8 0 328 0 329 53 4 c112 8 197 7 248 -3z"/>
<path d="M31800 23196 l0 -76 44 0 c84 0 126 28 126 83 0 40 -34 61 -106 65
l-64 4 0 -76z"/>
<path d="M31800 22910 l0 -100 45 0 c86 0 145 42 145 103 0 63 -49 97 -140 97
l-50 0 0 -100z"/>
<path d="M1849 23522 c-75 -85 -97 -123 -41 -69 24 23 37 27 85 27 52 0 59 -3
69 -25 8 -18 19 -25 40 -25 15 0 28 3 28 6 0 12 -92 174 -98 174 -4 -1 -41
-40 -83 -88z m76 -2 l16 -30 -46 0 -46 0 21 30 c12 17 25 30 30 30 5 0 16 -13
25 -30z"/>
<path d="M2088 23603 c63 -5 61 2 27 -150 -5 -20 -1 -23 24 -23 24 0 30 5 35
28 3 15 10 53 16 84 l11 57 52 4 c29 2 -9 3 -83 3 -74 0 -111 -1 -82 -3z"/>
<path d="M2356 23598 c-8 -25 -26 -132 -26 -150 0 -12 7 -18 24 -18 20 0 25 6
31 40 l7 40 67 0 c44 0 74 5 89 16 24 17 29 53 10 72 -17 17 -197 17 -202 0z
m152 -24 c5 -32 -24 -54 -69 -54 -41 0 -46 8 -33 58 6 20 12 23 53 20 38 -2
47 -7 49 -24z"/>
<path d="M1850 23314 c-95 -25 -197 -82 -268 -148 l-66 -63 55 -26 c30 -14 66
-34 81 -44 27 -17 28 -17 55 9 152 141 384 158 560 41 158 -105 235 -304 188
-488 -27 -104 -63 -165 -146 -246 l-78 -77 -16 -83 c-8 -45 -14 -83 -12 -85 7
-7 126 49 175 82 71 50 162 150 201 223 69 131 89 306 51 455 -29 116 -73 190
-165 281 -89 90 -182 143 -295 169 -81 20 -247 19 -320 0z"/>
<path d="M33092 23228 c-5 -7 -46 -73 -91 -147 -69 -113 -81 -140 -81 -177 l0
-44 105 0 105 0 0 -55 0 -55 55 0 55 0 0 55 c0 54 0 55 30 55 29 0 30 2 30 45
0 43 -1 45 -30 45 l-30 0 0 145 0 145 -69 0 c-43 0 -72 -5 -79 -12z m38 -188
l0 -90 -51 0 c-28 0 -49 3 -47 8 8 19 93 172 96 172 1 0 2 -40 2 -90z"/>
<path d="M33352 23193 l3 -48 108 -3 c59 -1 107 -5 107 -9 0 -3 -43 -88 -95
-189 -52 -100 -95 -185 -95 -188 0 -3 27 -6 60 -6 l60 0 100 206 c74 152 100
217 100 245 l0 39 -176 0 -175 0 3 -47z"/>
<path d="M1228 23044 c-47 -14 -48 -16 -48 -55 0 -34 3 -39 18 -35 146 44 268
31 367 -39 130 -92 154 -106 196 -113 24 -4 72 -4 107 1 35 5 65 7 67 5 3 -2
8 -28 12 -58 7 -49 10 -54 43 -65 27 -9 36 -18 40 -41 5 -24 10 -29 35 -29 27
0 30 -4 33 -33 3 -26 10 -35 39 -47 40 -17 41 -8 -11 -142 -65 -168 -95 -399
-65 -505 9 -36 12 -38 49 -38 l39 0 -10 32 c-14 51 -11 221 7 306 14 69 69
242 105 330 18 43 5 63 -51 76 -45 11 -47 13 -66 85 -3 9 -12 11 -28 7 -21 -5
-25 -2 -28 21 -2 20 -12 32 -35 42 -26 12 -33 21 -38 55 -14 89 -15 90 -125
75 -97 -13 -127 -5 -207 58 -142 110 -306 150 -445 107z"/>
<path d="M1388 22873 c-8 -25 -13 -86 -13 -173 0 -162 19 -229 97 -345 101
-152 263 -251 441 -270 75 -8 66 -18 84 97 l10 58 -36 5 c-134 22 -215 62
-294 146 -101 108 -152 281 -117 399 10 33 8 37 -21 62 -28 23 -106 58 -130
58 -4 0 -13 -17 -21 -37z"/>
<path d="M29730 20425 l0 -265 55 0 55 0 0 265 0 265 -55 0 -55 0 0 -265z"/>
<path d="M28769 20644 c-63 -19 -70 -30 -52 -76 l14 -36 47 20 c59 26 110 17
130 -25 24 -50 1 -91 -114 -203 -88 -86 -104 -106 -104 -133 l0 -31 175 0 175
0 0 45 0 45 -92 0 -92 0 66 68 c103 104 127 174 88 260 -33 73 -131 100 -241
66z"/>
<path d="M29434 20516 c-18 -8 -35 -19 -38 -25 -11 -18 -26 -13 -26 9 0 17 -7
20 -51 20 l-51 0 6 -31 c3 -17 6 -132 6 -255 l0 -224 55 0 55 0 0 92 c0 90 0
91 20 73 11 -10 40 -20 67 -22 61 -5 118 26 151 82 19 34 22 51 20 117 -2 59
-8 83 -24 105 -50 67 -121 89 -190 59z m76 -96 c37 -37 39 -122 4 -161 -23
-25 -78 -25 -104 1 -28 28 -28 117 1 154 25 32 70 35 99 6z"/>
<path d="M29975 20517 c-37 -12 -40 -15 -37 -47 3 -43 5 -44 43 -31 49 17 103
14 122 -7 10 -10 17 -21 17 -24 0 -3 -24 -8 -54 -11 -132 -13 -198 -96 -151
-187 30 -59 105 -76 175 -40 34 17 40 18 40 5 0 -11 12 -15 50 -15 l50 0 0
128 c0 140 -11 178 -63 216 -34 25 -134 31 -192 13z m145 -221 c0 -57 -76 -91
-100 -46 -22 41 12 78 73 79 24 1 27 -2 27 -33z"/>
<path d="M30427 20515 c-80 -28 -120 -89 -121 -181 0 -72 26 -121 82 -156 30
-19 51 -23 114 -23 42 0 81 5 86 10 5 6 7 26 5 46 l-5 35 -53 -4 c-50 -4 -57
-2 -85 26 -42 43 -42 101 0 144 27 27 36 30 81 26 46 -3 50 -1 55 22 3 14 8
32 10 41 8 30 -101 39 -169 14z"/>
<path d="M30753 20519 c-66 -19 -123 -102 -123 -179 0 -124 95 -200 235 -187
90 9 98 13 91 55 -3 19 -7 36 -8 38 -2 1 -24 -2 -50 -7 -57 -13 -121 2 -143
34 -8 12 -15 25 -15 29 0 5 54 8 120 8 l120 0 0 50 c0 126 -99 196 -227 159z
m110 -87 c35 -31 21 -42 -53 -42 -38 0 -70 3 -70 6 0 16 24 46 43 54 26 10 55
4 80 -18z"/>
<path d="M28730 19736 c0 -38 -17 -304 -26 -409 l-5 -68 53 3 53 3 10 200 c10
197 10 199 23 140 7 -33 29 -122 49 -197 l37 -138 46 0 46 0 54 183 c29 100
57 189 62 197 4 8 8 -55 8 -141 0 -86 3 -177 6 -203 l7 -46 54 0 c50 0 53 1
49 23 -3 12 -7 85 -11 162 -3 77 -8 182 -11 233 l-7 92 -73 0 -72 0 -26 -77
c-14 -43 -37 -120 -50 -172 -14 -51 -27 -95 -29 -98 -3 -2 -7 16 -11 39 -3 24
-23 103 -44 176 l-37 132 -77 0 -78 0 0 -34z"/>
<path d="M29424 19606 c-66 -34 -97 -87 -98 -165 -1 -109 60 -177 168 -188 47
-5 64 -2 109 20 71 35 101 86 101 172 0 108 -62 173 -172 182 -47 4 -65 0
-108 -21z m135 -75 c11 -11 23 -36 27 -55 20 -110 -54 -187 -117 -120 -20 21
-24 36 -24 86 0 53 3 62 28 84 34 29 60 31 86 5z"/>
<path d="M29934 19616 c-18 -8 -35 -19 -38 -25 -11 -18 -26 -13 -26 9 0 17 -7
20 -51 20 l-51 0 6 -31 c3 -17 6 -98 6 -180 l0 -149 55 0 55 0 0 120 c0 107 2
122 20 140 11 11 29 20 40 20 11 0 29 -9 40 -20 18 -18 20 -33 20 -140 l0
-120 55 0 55 0 0 139 c0 127 -2 141 -23 172 -39 57 -97 73 -163 45z"/>
<path d="M30310 19623 c-68 -26 -110 -94 -110 -180 0 -70 22 -119 69 -150 46
-31 118 -31 156 -1 l28 22 -6 -44 c-4 -29 -14 -51 -27 -62 -25 -20 -93 -24
-136 -8 -33 13 -40 6 -49 -41 l-7 -37 52 -12 c72 -17 164 -7 211 25 58 38 68
78 71 298 l3 187 -47 0 c-41 0 -48 -3 -48 -20 0 -18 -2 -18 -36 5 -35 24 -88
31 -124 18z m124 -105 c24 -34 21 -123 -4 -148 -25 -25 -61 -26 -91 -1 -20 16
-24 29 -24 74 0 40 5 61 19 76 26 29 80 28 100 -1z"/>
<path d="M30753 19619 c-66 -19 -123 -102 -123 -179 0 -124 95 -200 235 -187
90 9 98 13 91 55 -3 19 -7 36 -8 38 -2 1 -24 -2 -50 -7 -57 -13 -121 2 -143
34 -8 12 -15 25 -15 29 0 5 54 8 120 8 l120 0 0 50 c0 126 -99 196 -227 159z
m110 -87 c35 -31 21 -42 -53 -42 -38 0 -70 3 -70 6 0 16 24 46 43 54 26 10 55
4 80 -18z"/>
<path d="M29745 18584 c-51 -13 -112 -36 -128 -48 -17 -13 -16 -16 3 -62 12
-27 23 -50 24 -52 2 -1 19 7 39 18 86 51 189 28 203 -45 12 -64 -31 -129 -172
-262 -122 -114 -124 -117 -124 -160 l0 -43 230 0 230 0 0 60 0 60 -121 0 -121
0 89 88 c110 107 138 159 138 253 0 55 -5 72 -28 107 -36 55 -94 84 -177 88
-36 2 -74 1 -85 -2z"/>
<path d="M8680 18255 c0 -52 -2 -95 -5 -95 -4 0 -20 7 -37 16 -67 35 -160 -1
-198 -76 -22 -44 -27 -140 -9 -187 36 -97 153 -131 229 -67 l30 26 0 -26 c0
-25 3 -26 50 -26 l50 0 0 265 0 265 -55 0 -55 0 0 -95z m-25 -175 c22 -24 30
-96 16 -133 -6 -15 -22 -32 -35 -38 -61 -28 -112 27 -103 108 6 55 30 83 72
83 19 0 39 -8 50 -20z"/>
<path d="M6815 18286 c43 -50 51 -56 86 -56 l39 0 -30 53 -29 52 -57 3 -56 3
47 -55z"/>
<path d="M10605 18286 c43 -50 51 -56 86 -56 l39 0 -30 53 -29 52 -57 3 -56 3
47 -55z"/>
<path d="M6011 18088 c-40 -134 -75 -249 -78 -255 -3 -10 11 -13 55 -13 l60 0
17 65 18 65 73 0 73 0 19 -62 18 -63 63 -3 c49 -2 62 0 59 10 -3 7 -38 122
-79 255 l-74 243 -76 0 -75 0 -73 -242z m173 51 c14 -53 26 -99 26 -103 0 -7
-94 -8 -102 -1 -3 3 6 50 20 105 14 55 27 99 28 97 1 -1 14 -45 28 -98z"/>
<path d="M9440 18075 l0 -255 155 0 155 0 0 45 0 44 -97 3 -98 3 -3 208 -2
207 -55 0 -55 0 0 -255z"/>
<path d="M10313 18262 c-51 -14 -53 -16 -53 -48 0 -30 -3 -34 -25 -34 -22 0
-25 -4 -25 -40 0 -36 3 -40 25 -40 25 0 25 0 25 -95 0 -60 5 -108 14 -130 17
-39 60 -65 110 -65 56 0 66 8 66 51 0 35 -3 39 -24 39 -46 0 -57 24 -54 114
l3 81 38 3 c36 3 37 4 37 43 0 39 0 39 -39 39 l-40 0 -3 48 -3 49 -52 -15z"/>
<path d="M6605 18179 c-11 -6 -30 -23 -42 -38 l-23 -26 0 33 c0 32 0 32 -51
32 -48 0 -51 -1 -45 -22 3 -13 6 -94 6 -180 l0 -158 55 0 55 0 0 110 c0 127
12 150 75 150 l35 0 0 55 c0 50 -2 55 -22 55 -13 0 -32 -5 -43 -11z"/>
<path d="M6823 18179 c-66 -19 -123 -102 -123 -179 0 -124 95 -200 235 -187
90 9 98 13 91 55 -3 19 -7 36 -8 38 -2 1 -24 -2 -50 -7 -57 -13 -121 2 -143
34 -8 12 -15 25 -15 29 0 5 54 8 120 8 l120 0 0 50 c0 126 -99 196 -227 159z
m110 -87 c35 -31 21 -42 -53 -42 -38 0 -70 3 -70 6 0 16 24 46 43 54 26 10 55
4 80 -18z"/>
<path d="M7284 18176 c-18 -8 -35 -19 -38 -25 -11 -18 -26 -13 -26 9 0 17 -7
20 -51 20 l-51 0 6 -31 c3 -17 6 -98 6 -180 l0 -149 55 0 55 0 0 120 c0 107 2
122 20 140 11 11 29 20 40 20 11 0 29 -9 40 -20 18 -18 20 -33 20 -140 l0
-120 55 0 55 0 0 139 c0 127 -2 141 -23 172 -39 57 -97 73 -163 45z"/>
<path d="M7663 18179 c-66 -19 -123 -102 -123 -179 0 -124 95 -200 235 -187
90 9 98 13 91 55 -3 19 -7 36 -8 38 -2 1 -24 -2 -50 -7 -57 -13 -121 2 -143
34 -8 12 -15 25 -15 29 0 5 54 8 120 8 l120 0 0 50 c0 126 -99 196 -227 159z
m110 -87 c35 -31 21 -42 -53 -42 -38 0 -70 3 -70 6 0 16 24 46 43 54 26 10 55
4 80 -18z"/>
<path d="M8035 18183 c-53 -15 -95 -66 -95 -117 0 -36 46 -82 105 -104 95 -37
58 -90 -43 -63 -25 6 -46 10 -49 8 -2 -3 -8 -18 -13 -36 -10 -36 2 -46 68 -57
99 -16 185 24 198 92 11 59 -11 92 -85 128 -48 23 -66 37 -66 51 0 17 7 20 45
20 25 -1 51 -3 59 -5 19 -6 39 56 24 71 -12 12 -118 21 -148 12z"/>
<path d="M8983 18179 c-66 -19 -123 -102 -123 -179 0 -124 95 -200 235 -187
90 9 98 13 91 55 -3 19 -7 36 -8 38 -2 1 -24 -2 -50 -7 -57 -13 -121 2 -143
34 -8 12 -15 25 -15 29 0 5 54 8 120 8 l120 0 0 50 c0 126 -99 196 -227 159z
m110 -87 c35 -31 21 -42 -53 -42 -38 0 -70 3 -70 6 0 16 24 46 43 54 26 10 55
4 80 -18z"/>
<path d="M10613 18179 c-66 -19 -123 -102 -123 -179 0 -124 95 -200 235 -187
90 9 98 13 91 55 -3 19 -7 36 -8 38 -2 1 -24 -2 -50 -7 -57 -13 -121 2 -143
34 -8 12 -15 25 -15 29 0 5 54 8 120 8 l120 0 0 50 c0 126 -99 196 -227 159z
m110 -87 c35 -31 21 -42 -53 -42 -38 0 -70 3 -70 6 0 16 24 46 43 54 26 10 55
4 80 -18z"/>
<path d="M11007 18175 c-80 -28 -120 -89 -121 -181 0 -72 26 -121 82 -156 30
-19 51 -23 114 -23 42 0 81 5 86 10 5 6 7 26 5 46 l-5 35 -53 -4 c-50 -4 -57
-2 -85 26 -42 43 -42 101 0 144 27 27 36 30 81 26 46 -3 50 -1 55 22 3 14 8
32 10 41 8 30 -101 39 -169 14z"/>
<path d="M11333 18179 c-66 -19 -123 -102 -123 -179 0 -124 95 -200 235 -187
90 9 98 13 91 55 -3 19 -7 36 -8 38 -2 1 -24 -2 -50 -7 -57 -13 -121 2 -143
34 -8 12 -15 25 -15 29 0 5 54 8 120 8 l120 0 0 50 c0 126 -99 196 -227 159z
m110 -87 c35 -31 21 -42 -53 -42 -38 0 -70 3 -70 6 0 16 24 46 43 54 26 10 55
4 80 -18z"/>
<path d="M9810 18044 c0 -156 11 -193 65 -218 56 -27 114 -18 154 25 l21 23 0
-27 c0 -26 2 -27 50 -27 l50 0 0 180 0 180 -55 0 -55 0 0 -115 c0 -110 -1
-117 -25 -140 -29 -30 -49 -31 -75 -5 -18 18 -20 33 -20 140 l0 120 -55 0 -55
0 0 -136z"/>
<path d="M29275 17780 c-80 -24 -114 -112 -73 -188 30 -56 478 -660 519 -700
59 -57 137 -66 199 -22 42 30 542 707 554 750 15 57 0 106 -41 137 l-36 28
-546 2 c-300 1 -560 -3 -576 -7z m922 -272 c-306 -414 -359 -483 -365 -485 -6
-2 -411 541 -435 583 -7 12 60 14 437 14 l446 0 -83 -112z"/>
<path d="M7850 17225 c0 -52 -2 -95 -5 -95 -4 0 -20 7 -37 16 -67 35 -160 -1
-198 -76 -22 -44 -27 -140 -9 -187 36 -97 153 -131 229 -67 l30 26 0 -26 c0
-25 3 -26 50 -26 l50 0 0 265 0 265 -55 0 -55 0 0 -95z m-25 -175 c22 -24 30
-96 16 -133 -6 -15 -22 -32 -35 -38 -61 -28 -112 27 -103 108 6 55 30 83 72
83 19 0 39 -8 50 -20z"/>
<path d="M8610 17045 l0 -255 50 0 50 0 0 187 0 187 34 -70 c18 -38 64 -123
100 -187 l68 -117 59 0 59 0 0 255 0 255 -50 0 -50 0 0 -175 0 -175 -64 123
c-35 67 -77 146 -93 174 l-28 53 -67 0 -68 0 0 -255z"/>
<path d="M6505 17149 c-11 -6 -30 -23 -42 -38 l-23 -26 0 33 c0 32 0 32 -51
32 -48 0 -51 -1 -45 -22 3 -13 6 -94 6 -180 l0 -158 55 0 55 0 0 110 c0 127
12 150 75 150 l35 0 0 55 c0 50 -2 55 -22 55 -13 0 -32 -5 -43 -11z"/>
<path d="M7163 17149 c-66 -19 -123 -102 -123 -179 0 -124 95 -200 235 -187
90 9 98 13 91 55 -3 19 -7 36 -8 38 -2 1 -24 -2 -50 -7 -57 -13 -121 2 -143
34 -8 12 -15 25 -15 29 0 5 54 8 120 8 l120 0 0 50 c0 126 -99 196 -227 159z
m110 -87 c35 -31 21 -42 -53 -42 -38 0 -70 3 -70 6 0 16 24 46 43 54 26 10 55
4 80 -18z"/>
<path d="M8153 17149 c-66 -19 -123 -102 -123 -179 0 -124 95 -200 235 -187
90 9 98 13 91 55 -3 19 -7 36 -8 38 -2 1 -24 -2 -50 -7 -57 -13 -121 2 -143
34 -8 12 -15 25 -15 29 0 5 54 8 120 8 l120 0 0 50 c0 126 -99 196 -227 159z
m110 -87 c35 -31 21 -42 -53 -42 -38 0 -70 3 -70 6 0 16 24 46 43 54 26 10 55
4 80 -18z"/>
<path d="M9175 17147 c-37 -12 -40 -15 -37 -47 3 -43 5 -44 43 -31 49 17 103
14 122 -7 10 -10 17 -21 17 -24 0 -3 -24 -8 -54 -11 -132 -13 -198 -96 -151
-187 30 -59 105 -76 175 -40 34 17 40 18 40 5 0 -11 12 -15 50 -15 l50 0 0
128 c0 140 -11 178 -63 216 -34 25 -134 31 -192 13z m145 -221 c0 -57 -76 -91
-100 -46 -22 41 12 78 73 79 24 1 27 -2 27 -33z"/>
<path d="M9945 17147 c-37 -12 -40 -15 -37 -47 3 -43 5 -44 43 -31 49 17 103
14 122 -7 10 -10 17 -21 17 -24 0 -3 -24 -8 -54 -11 -132 -13 -198 -96 -151
-187 30 -59 105 -76 175 -40 34 17 40 18 40 5 0 -11 12 -15 50 -15 l50 0 0
128 c0 140 -11 178 -63 216 -34 25 -134 31 -192 13z m145 -221 c0 -57 -76 -91
-100 -46 -22 41 12 78 73 79 24 1 27 -2 27 -33z"/>
<path d="M10455 17149 c-11 -6 -30 -23 -42 -38 l-23 -26 0 33 c0 32 0 32 -51
32 -48 0 -51 -1 -45 -22 3 -13 6 -94 6 -180 l0 -158 55 0 55 0 0 110 c0 127
12 150 75 150 l35 0 0 55 c0 50 -2 55 -22 55 -13 0 -32 -5 -43 -11z"/>
<path d="M10745 17149 c-11 -6 -30 -23 -42 -38 l-23 -26 0 33 c0 32 0 32 -51
32 -48 0 -51 -1 -45 -22 3 -13 6 -94 6 -180 l0 -158 55 0 55 0 0 110 c0 127
12 150 75 150 l35 0 0 55 c0 50 -2 55 -22 55 -13 0 -32 -5 -43 -11z"/>
<path d="M10953 17149 c-66 -19 -123 -102 -123 -179 0 -124 95 -200 235 -187
90 9 98 13 91 55 -3 19 -7 36 -8 38 -2 1 -24 -2 -50 -7 -57 -13 -121 2 -143
34 -8 12 -15 25 -15 29 0 5 54 8 120 8 l120 0 0 50 c0 126 -99 196 -227 159z
m110 -87 c35 -31 21 -42 -53 -42 -38 0 -70 3 -70 6 0 16 24 46 43 54 26 10 55
4 80 -18z"/>
<path d="M6630 17014 c0 -156 11 -193 65 -218 56 -27 114 -18 154 25 l21 23 0
-27 c0 -26 2 -27 50 -27 l50 0 0 180 0 180 -55 0 -55 0 0 -115 c0 -110 -1
-117 -25 -140 -29 -30 -49 -31 -75 -5 -18 18 -20 33 -20 140 l0 120 -55 0 -55
0 0 -136z"/>
<path d="M9470 17143 c0 -5 29 -84 64 -178 l64 -170 59 0 58 0 66 175 66 175
-54 3 c-31 2 -58 1 -61 -3 -3 -3 -20 -58 -37 -122 -32 -117 -36 -123 -49 -68
-4 17 -19 67 -32 113 l-25 82 -60 0 c-32 0 -59 -3 -59 -7z"/>
<path d="M1300 14490 l0 -2340 1190 0 1190 0 0 125 0 125 -1065 0 -1065 0 0
2085 0 2085 1068 1 c587 0 1083 1 1102 2 l35 2 0 125 0 125 -1227 3 -1228 2 0
-2340z"/>
<path d="M4544 16642 c-17 -9 -180 -127 -362 -262 -359 -266 -382 -288 -382
-370 0 -58 25 -99 92 -150 117 -89 547 -406 604 -445 76 -53 122 -63 172 -38
74 36 72 21 72 631 0 589 0 587 -55 630 -34 27 -97 29 -141 4z m27 -204 c2 -7
2 -205 -1 -440 l-5 -427 -298 221 -298 220 183 135 c101 74 233 173 293 218
61 46 113 84 116 84 4 1 8 -5 10 -11z"/>
<path d="M28970 15646 l0 -1014 -22 -6 c-13 -3 -4436 -6 -9830 -6 l-9808 0 -1
-67 c0 -38 0 -382 1 -765 l1 -698 -1096 0 -1097 0 4 1120 3 1120 -2257 0
-2258 0 0 -125 0 -125 2130 0 2130 0 0 -1122 0 -1123 960 4 c528 2 960 1 960
-1 0 -3 -50 -127 -110 -278 -61 -150 -109 -274 -108 -275 21 -13 114 -44 116
-38 2 4 56 139 121 298 l118 290 316 3 317 2 0 763 0 762 9822 -3 c7285 -2
9830 1 9851 9 l27 11 0 124 c0 117 -1 124 -20 124 -20 0 -20 7 -20 1015 l0
1015 -125 0 -125 0 0 -1014z"/>
<path d="M29300 16495 l0 -165 533 2 532 3 3 163 3 162 -535 0 -536 0 0 -165z"/>
<path d="M30500 12123 c0 -2496 0 -4564 0 -4595 l0 -58 -335 0 -335 0 0 -65 0
-65 335 0 335 0 0 -25 0 -25 830 0 830 0 0 125 0 125 -702 0 -703 0 0 4557 0
4558 -128 3 -127 3 0 -4538z"/>
<path d="M3233 16543 c-9 -3 -12 -135 -13 -534 l-1 -529 171 0 170 0 -2 533
-3 532 -155 2 c-85 0 -160 -1 -167 -4z"/>
<path d="M2840 16015 l0 -435 125 0 125 0 0 435 0 435 -125 0 -125 0 0 -435z"/>
<path d="M2493 16013 l2 -338 83 -3 82 -3 0 341 0 340 -85 0 -84 0 2 -337z"/>
<path d="M4983 16290 c-23 -5 -55 -16 -72 -25 -27 -13 -30 -20 -25 -43 8 -33
22 -72 26 -72 2 0 25 7 52 15 69 21 118 19 150 -6 66 -52 9 -119 -100 -119
l-44 0 0 -55 0 -55 49 0 c60 0 92 -11 120 -41 28 -30 27 -71 -2 -105 -32 -37
-109 -44 -189 -17 l-58 20 -15 -55 c-14 -45 -14 -56 -3 -63 32 -21 100 -33
183 -34 79 0 97 3 148 28 76 38 111 88 111 161 0 66 -30 118 -84 143 -44 20
-49 29 -22 37 10 4 31 20 47 36 22 23 29 42 33 83 6 69 -14 108 -73 142 -50
30 -157 41 -232 25z"/>
<path d="M29392 16065 l1 -125 438 0 439 0 0 125 0 125 -440 0 -439 0 1 -125z"/>
<path d="M29497 15763 c-4 -3 -7 -42 -7 -85 l0 -78 340 0 341 0 -3 83 -3 82
-331 3 c-182 1 -333 -1 -337 -5z"/>
<path d="M2610 14500 l-1 -530 171 0 170 0 0 530 0 530 -169 0 -170 0 -1 -530z"/>
<path d="M3085 14927 c-3 -7 -4 -203 -2 -437 l2 -425 122 -3 c120 -3 123 -2
128 20 3 13 5 210 3 438 l-3 415 -123 2 c-89 2 -124 -1 -127 -10z"/>
<path d="M3510 14500 l0 -340 85 0 85 0 0 340 0 340 -85 0 -85 0 0 -340z"/>
<path d="M29342 14503 c3 -124 4 -128 26 -131 22 -3 22 -3 22 127 l0 131 -25
0 -26 0 3 -127z"/>
<path d="M29480 14500 c0 -131 0 -131 23 -128 21 3 22 6 22 128 0 122 -1 125
-22 128 -23 3 -23 3 -23 -128z"/>
<path d="M29612 14503 c3 -122 4 -126 26 -129 22 -4 22 -3 22 126 l0 130 -25
0 -26 0 3 -127z"/>
<path d="M29750 14500 c0 -72 4 -130 9 -130 39 0 42 10 40 124 -2 126 -4 136
-30 136 -18 0 -19 -9 -19 -130z"/>
<path d="M29882 14503 c3 -125 4 -128 26 -129 22 -1 22 0 22 127 l0 129 -25 0
-26 0 3 -127z"/>
<path d="M30020 14502 c0 -128 0 -129 23 -128 22 1 22 3 22 126 0 122 -1 125
-23 128 -22 3 -22 2 -22 -126z"/>
<path d="M30150 14501 c0 -127 0 -128 23 -127 21 1 22 4 25 129 l3 127 -26 0
-25 0 0 -129z"/>
<path d="M30287 14617 c-2 -7 -5 -62 -6 -123 -2 -114 1 -124 40 -124 5 0 9 58
9 130 0 121 -1 130 -19 130 -10 0 -21 -6 -24 -13z"/>
<path d="M30420 14500 c0 -129 0 -130 23 -126 21 3 22 7 25 129 l3 127 -26 0
-25 0 0 -130z"/>
<path d="M27250 13425 l0 -535 165 0 165 0 -2 533 -3 532 -162 3 -163 2 0
-535z"/>
<path d="M5731 13745 l-2 -165 536 0 535 0 0 165 0 165 -534 0 -533 0 -2 -165z"/>
<path d="M2610 13775 l0 -125 1411 0 1410 0 -2 -1802 -1 -1803 1928 -2 c1061
-2 1935 -3 1942 -3 11 0 13 -148 11 -791 -1 -473 2 -794 8 -800 5 -5 2448 -8
6276 -7 l6267 3 0 -702 0 -703 1385 0 1385 0 0 -2570 0 -2570 3065 0 3065 0 0
1385 0 1385 645 0 645 0 0 125 0 124 -747 3 c-412 2 -759 2 -773 0 l-25 -4 0
-1381 0 -1382 -2807 -3 -2808 -2 -1 1970 c0 1083 -1 1988 -1 2010 0 22 1 42 1
44 1 3 117 -42 259 -100 141 -57 262 -104 267 -104 6 0 20 25 32 55 l21 55
-31 14 c-18 7 -148 59 -289 117 l-258 103 0 488 0 488 -1390 0 -1390 0 -2 703
-3 702 -125 2 c-69 1 -2891 2 -6272 3 l-6148 0 0 800 0 801 -132 -1 c-73 -1
-946 -1 -1940 -1 l-1808 1 0 1800 0 1800 -1535 0 -1535 0 0 -125z"/>
<path d="M11103 13368 l2 -533 165 0 165 0 3 533 2 532 -170 0 -169 0 2 -532z"/>
<path d="M26860 13420 l0 -441 125 2 125 1 0 439 0 439 -125 0 -125 0 0 -440z"/>
<path d="M11576 13795 c-3 -9 -5 -206 -3 -438 l2 -422 125 0 125 0 2 422 c1
233 0 430 -3 438 -9 23 -239 22 -248 0z"/>
<path d="M26520 13420 l0 -341 83 3 82 3 3 338 3 337 -86 0 -85 0 0 -340z"/>
<path d="M12000 13370 l0 -340 85 0 85 0 0 340 0 340 -85 0 -85 0 0 -340z"/>
<path d="M4547 13594 c-39 -21 -645 -470 -685 -508 -45 -41 -62 -77 -62 -126
0 -48 17 -85 57 -121 15 -14 175 -135 355 -267 358 -265 387 -281 453 -249 19
9 44 31 55 49 19 32 20 52 20 581 0 594 0 592 -55 635 -33 26 -96 29 -138 6z
m26 -1073 c-2 -2 -8 1 -15 6 -7 6 -143 106 -301 223 l-288 212 43 31 c24 18
158 117 298 221 l255 189 5 -439 c3 -242 4 -441 3 -443z"/>
<path d="M3225 13490 c-2 -4 -3 -243 -2 -531 l2 -524 168 -3 167 -2 0 529 0
529 -26 6 c-34 9 -303 5 -309 -4z"/>
<path d="M5830 13315 l0 -125 438 2 437 3 3 123 3 122 -441 0 -440 0 0 -125z"/>
<path d="M2842 12963 l3 -438 120 0 120 0 3 438 2 437 -125 0 -125 0 2 -437z"/>
<path d="M2495 13278 c-3 -13 -4 -165 -3 -338 l3 -315 83 -3 82 -3 0 341 0
340 -80 0 c-74 0 -80 -2 -85 -22z"/>
<path d="M4983 13240 c-23 -5 -55 -16 -72 -25 -27 -13 -30 -20 -25 -43 8 -33
22 -72 26 -72 2 0 25 7 52 15 69 21 118 19 150 -6 66 -52 9 -119 -100 -119
l-44 0 0 -55 0 -55 49 0 c60 0 92 -11 120 -41 28 -30 27 -71 -2 -105 -32 -37
-109 -44 -189 -17 l-58 20 -15 -55 c-14 -45 -14 -56 -3 -63 32 -21 100 -33
183 -34 79 0 97 3 148 28 76 38 111 88 111 161 0 66 -30 118 -84 143 -44 20
-49 29 -22 37 10 4 31 20 47 36 22 23 29 42 33 83 6 69 -14 108 -73 142 -50
30 -157 41 -232 25z"/>
<path d="M5930 12935 l0 -85 340 0 340 0 0 85 0 85 -340 0 -340 0 0 -85z"/>
<path d="M10935 12451 c-184 -53 -297 -180 -326 -367 -6 -35 -9 -282 -7 -585
3 -518 4 -525 27 -594 52 -157 140 -250 281 -298 l65 -22 8108 -3 8107 -2 -2
-940 -3 -940 -1830 -3 -1830 -2 -3 -104 c-2 -57 -1 -114 2 -127 l6 -24 1955 0
1955 0 0 1068 0 1069 90 6 c109 8 165 21 247 58 117 52 206 164 233 293 7 36
10 233 8 617 l-3 564 -28 70 c-50 126 -130 211 -244 257 l-58 23 -8345 2
c-7875 1 -8348 1 -8405 -16z m351 -146 c25 -38 11 -68 -67 -137 l-70 -63 146
-5 c139 -5 148 -6 166 -29 24 -30 24 -56 -1 -81 -18 -18 -33 -20 -170 -20
l-150 0 80 -78 c85 -82 96 -106 60 -142 -32 -32 -64 -25 -122 27 -105 93 -268
247 -268 254 0 4 71 73 157 153 136 126 162 146 190 146 24 0 37 -7 49 -25z
m3303 -46 c35 -12 34 -11 21 -60 l-10 -36 -78 4 c-94 5 -133 -14 -162 -80 -38
-82 -13 -186 52 -227 28 -18 45 -21 110 -17 l78 4 6 -34 c9 -45 1 -59 -36 -67
-199 -39 -350 68 -350 248 0 168 107 274 276 276 34 0 75 -5 93 -11z m-1169
-204 l0 -204 98 -3 97 -3 3 -47 3 -48 -160 0 -161 0 0 255 0 255 60 0 60 0 0
-205z m-1040 46 c45 -23 76 -69 84 -124 12 -76 10 -77 -125 -77 -76 0 -119 -4
-119 -10 0 -6 12 -22 26 -36 24 -24 30 -26 105 -22 75 3 80 2 85 -19 14 -56
-7 -70 -112 -72 -76 -1 -120 13 -162 52 -67 64 -69 197 -4 271 47 52 158 71
222 37z m380 -36 l0 -55 -34 0 c-25 0 -40 -7 -55 -26 -18 -23 -21 -41 -21
-130 l0 -104 -60 0 -60 0 0 180 0 180 50 0 c47 0 50 -2 50 -25 0 -32 2 -31 38
5 21 20 40 30 61 30 31 0 31 0 31 -55z m265 45 c25 -9 27 -14 20 -48 -4 -20
-8 -38 -8 -39 -1 -1 -21 4 -45 10 -30 8 -48 8 -59 1 -32 -20 -25 -34 32 -59
74 -33 105 -67 105 -115 0 -93 -115 -145 -242 -109 -42 11 -42 10 -28 60 l10
37 38 -14 c49 -17 87 -17 102 1 17 20 5 33 -54 59 -29 13 -62 36 -74 51 -42
54 -17 130 52 161 37 16 114 18 151 4z m890 -6 c61 -29 69 -53 75 -212 l5
-142 -52 0 c-40 0 -53 4 -53 15 0 12 -7 11 -40 -6 -59 -31 -124 -22 -163 21
-26 29 -29 38 -24 83 3 41 11 56 35 78 33 30 88 49 140 49 40 0 44 25 6 42
-19 9 -39 9 -82 0 -30 -6 -57 -10 -60 -8 -2 3 -5 19 -5 38 -2 29 2 34 33 45
50 17 146 16 185 -3z m1011 -3 c136 -62 137 -274 2 -340 -82 -39 -197 -19
-246 44 -49 62 -53 168 -8 236 48 72 164 100 252 60z m834 -36 l0 -55 -34 0
c-25 0 -40 -7 -55 -26 -18 -23 -21 -41 -21 -130 l0 -104 -60 0 -60 0 0 180 0
180 50 0 c47 0 50 -2 50 -25 0 -32 2 -31 38 5 21 20 40 30 61 30 31 0 31 0 31
-55z m340 39 c53 -32 64 -66 68 -216 l4 -138 -60 0 -60 0 -4 126 c-3 111 -5
127 -22 140 -26 19 -39 18 -70 -7 -25 -20 -26 -23 -26 -140 l0 -119 -60 0 -60
0 0 180 0 180 49 0 c40 0 51 -4 56 -19 6 -19 7 -19 42 5 42 28 102 32 143 8z
m400 -3 c45 -23 76 -69 84 -124 12 -76 10 -77 -125 -77 -76 0 -119 -4 -119
-10 0 -6 12 -22 26 -36 24 -24 30 -26 105 -22 75 3 80 2 85 -19 14 -56 -7 -70
-112 -72 -76 -1 -120 13 -162 52 -67 64 -69 197 -4 271 47 52 158 71 222 37z
m1220 0 c45 -23 76 -69 84 -124 12 -76 10 -77 -125 -77 -76 0 -119 -4 -119
-10 0 -6 12 -22 26 -36 24 -24 30 -26 105 -22 75 3 80 2 85 -19 14 -56 -7 -70
-112 -72 -76 -1 -120 13 -162 52 -67 64 -69 197 -4 271 47 52 158 71 222 37z
m2451 5 c214 -46 390 -218 445 -436 22 -88 15 -252 -14 -334 -63 -173 -206
-315 -371 -367 -256 -81 -537 16 -680 234 -132 204 -131 454 4 655 80 121 198
205 337 242 87 23 189 25 279 6z m-8295 -111 c18 -60 33 -112 34 -115 1 -3 16
47 34 110 l32 115 63 3 c35 2 61 -1 60 -6 -2 -5 -33 -87 -69 -181 l-65 -172
-60 3 -60 3 -62 165 c-34 91 -62 171 -62 178 -1 10 15 12 61 10 l61 -3 33
-110z m3334 6 c0 -60 4 -121 9 -134 13 -33 46 -43 76 -23 24 16 25 20 25 141
l0 125 60 0 60 0 0 -180 0 -180 -50 0 c-43 0 -50 3 -50 20 0 18 -2 18 -36 -5
-66 -45 -157 -27 -191 38 -13 24 -18 65 -21 170 l-4 137 61 0 61 0 0 -109z
m1560 0 c0 -60 4 -121 9 -134 13 -33 46 -43 76 -23 24 16 25 20 25 141 l0 125
60 0 60 0 0 -180 0 -180 -50 0 c-43 0 -50 3 -50 20 0 18 -2 18 -36 -5 -66 -45
-157 -27 -191 38 -13 24 -18 65 -21 170 l-4 137 61 0 61 0 0 -109z m436 -6
c18 -60 33 -112 34 -115 1 -3 16 47 34 110 l32 115 63 3 c35 2 61 -1 60 -6 -2
-5 -33 -87 -69 -181 l-65 -172 -60 3 -60 3 -62 165 c-34 91 -62 171 -62 178
-1 10 15 12 61 10 l61 -3 33 -110z m1292 -327 c29 -101 55 -202 58 -226 4 -23
10 -44 14 -47 3 -2 15 31 25 73 10 42 39 145 65 227 l48 150 101 3 101 3 0
-38 c0 -21 7 -150 15 -288 8 -137 15 -271 15 -297 l0 -48 -69 0 -69 0 -6 63
c-3 34 -9 151 -13 260 l-8 199 -38 -129 c-21 -70 -56 -185 -78 -255 l-40 -128
-59 0 -59 0 -11 43 c-7 23 -27 96 -45 162 -19 66 -43 160 -54 208 -10 49 -21
90 -24 93 -2 2 -7 -80 -11 -183 -3 -104 -9 -221 -13 -260 l-6 -73 -69 0 -70 0
6 48 c3 26 13 176 23 335 l17 287 101 0 102 0 51 -182z m8340 -385 c3 -42 2
-43 -27 -43 -38 0 -61 -23 -61 -61 0 -27 3 -29 35 -29 35 0 35 0 35 -45 0 -45
0 -45 -35 -45 l-35 0 0 -135 0 -135 -60 0 -60 0 0 135 0 135 -25 0 c-23 0 -25
4 -25 45 0 41 2 45 25 45 22 0 25 5 25 33 0 45 29 98 70 125 27 18 45 22 85
20 l50 -3 3 -42z m-1990 9 c43 -56 -37 -123 -90 -75 -44 39 -2 111 57 96 11
-3 26 -12 33 -21z m212 -237 l0 -265 -60 0 -60 0 0 265 0 265 60 0 60 0 0
-265z m210 0 l0 -265 -60 0 -60 0 0 265 0 265 60 0 60 0 0 -265z m608 237 c43
-56 -37 -123 -90 -75 -44 39 -2 111 57 96 11 -3 26 -12 33 -21z m640 0 c43
-56 -37 -123 -90 -75 -44 39 -2 111 57 96 11 -3 26 -12 33 -21z m992 -134
l163 -152 -49 -44 c-27 -25 -99 -91 -160 -148 -91 -85 -117 -104 -142 -104
-38 0 -62 23 -62 58 0 21 18 45 70 97 l71 70 -147 5 c-129 4 -147 7 -160 24
-19 26 -18 65 3 88 14 16 34 18 167 18 l151 1 -78 72 c-66 61 -78 77 -77 104
0 35 29 63 66 63 13 0 79 -54 184 -152z m-4920 -113 l0 -255 -60 0 -60 0 0
255 0 255 60 0 60 0 0 -255z m1802 185 c10 -36 34 -122 52 -191 l32 -126 55
191 54 191 63 3 c57 3 63 1 58 -15 -3 -10 -41 -124 -84 -253 l-79 -235 -69 -3
-69 -3 -78 248 c-43 136 -78 252 -77 256 0 4 28 7 62 5 l61 -3 19 -65z m-2842
-89 c45 -23 76 -69 84 -124 12 -76 10 -77 -125 -77 -76 0 -119 -4 -119 -10 0
-6 12 -22 26 -36 24 -24 30 -26 105 -22 75 3 80 2 85 -19 14 -56 -7 -70 -112
-72 -76 -1 -120 13 -162 52 -67 64 -69 197 -4 271 47 52 158 71 222 37z m380
-36 l0 -55 -34 0 c-25 0 -40 -7 -55 -26 -18 -23 -21 -41 -21 -130 l0 -104 -60
0 -60 0 0 180 0 180 50 0 c47 0 50 -2 50 -25 0 -32 2 -31 38 5 21 20 40 30 61
30 31 0 31 0 31 -55z m265 45 c25 -9 27 -14 20 -48 -4 -20 -8 -38 -8 -39 -1
-1 -21 4 -45 10 -30 8 -48 8 -59 1 -32 -20 -25 -34 32 -59 74 -33 105 -67 105
-115 0 -93 -115 -145 -242 -109 -42 11 -42 10 -28 60 l10 37 38 -14 c49 -17
87 -17 102 1 17 20 5 33 -54 59 -29 13 -62 36 -74 51 -42 54 -17 130 52 161
37 16 114 18 151 4z m1105 -45 l0 -55 -34 0 c-25 0 -40 -7 -55 -26 -18 -23
-21 -41 -21 -130 l0 -104 -60 0 -60 0 0 180 0 180 50 0 c47 0 50 -2 50 -25 0
-32 2 -31 38 5 21 20 40 30 61 30 31 0 31 0 31 -55z m2300 36 c45 -23 76 -69
84 -124 12 -76 10 -77 -125 -77 -76 0 -119 -4 -119 -10 0 -6 12 -22 26 -36 24
-24 30 -26 105 -22 75 3 80 2 85 -19 14 -56 -7 -70 -112 -72 -76 -1 -120 13
-162 52 -67 64 -69 197 -4 271 47 52 158 71 222 37z m-4554 -106 c18 -60 33
-112 34 -115 1 -3 16 47 34 110 l32 115 63 3 c35 2 61 -1 60 -6 -2 -5 -33 -87
-69 -181 l-65 -172 -60 3 -60 3 -62 165 c-34 91 -62 171 -62 178 -1 10 15 12
61 10 l61 -3 33 -110z m1750 0 c18 -60 33 -112 34 -115 1 -3 16 47 34 110 l32
115 63 3 c35 2 61 -1 60 -6 -2 -5 -33 -87 -69 -181 l-65 -172 -60 3 -60 3 -62
165 c-34 91 -62 171 -62 178 -1 10 15 12 61 10 l61 -3 33 -110z m680 70 c7
-22 24 -76 37 -120 l23 -80 30 120 30 120 62 3 c34 2 62 1 62 0 0 -6 -87 -250
-110 -308 -35 -91 -82 -159 -129 -191 -65 -43 -84 -39 -99 17 -7 26 -11 47
-10 48 2 1 20 9 41 19 69 31 69 46 -6 235 -37 92 -67 171 -67 175 0 4 28 7 62
5 l61 -3 13 -40z m1384 -135 l0 -180 -60 0 -60 0 0 180 0 180 60 0 60 0 0
-180z m1028 -17 c-4 -217 -9 -237 -68 -286 -26 -23 -113 -47 -125 -35 -2 2 -7
22 -10 44 -7 38 -6 40 28 52 50 18 57 47 57 248 l0 174 61 0 61 0 -4 -197z
m202 88 c0 -60 4 -121 9 -134 13 -33 46 -43 76 -23 24 16 25 20 25 141 l0 125
60 0 60 0 0 -180 0 -180 -50 0 c-43 0 -50 3 -50 20 0 18 -2 18 -36 -5 -66 -45
-157 -27 -191 38 -13 24 -18 65 -21 170 l-4 137 61 0 61 0 0 -109z m440 -71
l0 -180 -60 0 -60 0 0 180 0 180 60 0 60 0 0 -180z m-2440 20 l0 -40 -100 0
-100 0 0 40 0 40 100 0 100 0 0 -40z"/>
<path d="M12240 12020 c-33 -33 -24 -40 50 -40 39 0 70 3 70 8 0 4 -7 18 -16
30 -20 29 -76 30 -104 2z"/>
<path d="M13813 11910 c-19 -8 -43 -38 -43 -54 0 -12 33 -36 51 -36 29 0 59
36 59 70 0 25 -4 30 -22 29 -13 0 -33 -4 -45 -9z"/>
<path d="M14793 12016 c-25 -22 -28 -31 -28 -86 0 -55 3 -64 28 -86 15 -13 34
-24 42 -24 8 0 27 11 42 24 25 22 28 31 28 86 0 55 -3 64 -28 86 -15 13 -34
24 -42 24 -8 0 -27 -11 -42 -24z"/>
<path d="M16360 12020 c-33 -33 -24 -40 50 -40 39 0 70 3 70 8 0 4 -7 18 -16
30 -20 29 -76 30 -104 2z"/>
<path d="M17580 12020 c-33 -33 -24 -40 50 -40 39 0 70 3 70 8 0 4 -7 18 -16
30 -20 29 -76 30 -104 2z"/>
<path d="M19820 11765 l0 -65 145 0 c80 0 145 -3 145 -6 0 -3 -29 -60 -64
-127 -55 -106 -184 -358 -194 -379 -2 -5 34 -8 81 -8 l84 0 31 68 c17 37 76
160 131 274 88 179 101 213 101 257 l0 51 -230 0 -230 0 0 -65z"/>
<path d="M21410 11060 c-33 -33 -24 -40 50 -40 39 0 70 3 70 8 0 4 -7 18 -16
30 -20 29 -76 30 -104 2z"/>
<path d="M25460 11060 c-33 -33 -24 -40 50 -40 39 0 70 3 70 8 0 4 -7 18 -16
30 -20 29 -76 30 -104 2z"/>
<path d="M8810 11825 l0 -335 -173 0 c-244 0 -306 -22 -354 -126 l-24 -53 3
-363 c3 -352 4 -364 25 -404 12 -23 36 -53 52 -67 61 -51 71 -52 571 -52 l465
0 60 30 c65 32 98 72 116 137 6 25 9 164 7 386 -3 335 -4 348 -25 388 -28 53
-83 100 -130 113 -21 6 -133 11 -250 11 l-213 0 0 335 0 335 -65 0 -65 0 0
-335z m-30 -414 c5 -11 10 -84 10 -166 0 -82 -5 -155 -10 -166 -12 -21 -40
-25 -58 -7 -17 17 -17 344 1 351 26 11 47 6 57 -12z m388 -203 c124 -111 262
-243 262 -249 0 -4 -70 -73 -156 -153 -163 -153 -190 -168 -228 -130 -33 33
-20 66 59 144 l76 75 -363 5 -363 5 -13 27 c-13 29 -4 63 22 80 6 4 171 8 366
8 l355 1 -78 72 c-66 61 -77 77 -77 104 0 34 29 63 62 63 9 0 44 -24 76 -52z
m-384 -374 c3 -9 6 -84 6 -169 0 -164 -5 -180 -52 -173 -23 3 -23 4 -26 168
-1 90 0 170 2 177 8 19 63 16 70 -3z"/>
<path d="M6870 11530 l0 -530 170 0 170 0 0 530 0 530 -170 0 -170 0 0 -530z"/>
<path d="M7347 11964 c-4 -4 -7 -202 -7 -441 l0 -433 125 0 125 0 -2 438 -3
437 -115 3 c-64 2 -119 0 -123 -4z"/>
<path d="M7770 11530 l0 -340 85 0 85 0 0 340 -1 340 -84 0 -85 0 0 -340z"/>
<path d="M11100 9640 l0 -530 170 0 170 0 0 530 0 530 -170 0 -170 0 0 -530z"/>
<path d="M11575 10058 c-3 -13 -4 -210 -3 -438 l3 -415 125 0 125 0 0 435 0
435 -122 3 c-120 3 -123 2 -128 -20z"/>
<path d="M12000 9640 l0 -340 85 0 85 0 0 340 0 340 -85 0 -85 0 0 -340z"/>
<path d="M24250 7860 l1 -530 169 0 170 0 0 530 0 530 -170 0 -170 0 0 -530z"/>
<path d="M23870 7860 l0 -440 109 0 c60 0 116 3 125 6 14 5 16 54 16 440 l0
434 -125 0 -125 0 0 -440z"/>
<path d="M23520 7860 l0 -340 85 0 85 0 0 340 0 340 -85 0 -84 0 -1 -340z"/>
<path d="M28221 7673 c-56 -20 -113 -77 -129 -129 -19 -64 -17 -947 2 -1002
21 -58 51 -95 99 -123 l42 -24 370 0 371 0 49 26 c30 15 62 42 80 68 l30 43 5
397 5 398 269 -109 c149 -59 274 -108 278 -108 12 0 50 91 44 105 -2 7 -109
54 -238 105 -341 137 -358 145 -358 172 0 39 -46 124 -81 150 -62 46 -82 48
-448 47 -285 0 -354 -3 -390 -16z m612 -340 c82 -88 93 -118 60 -155 -34 -37
-66 -24 -147 63 l-76 81 0 -360 c0 -315 -2 -363 -16 -376 -20 -21 -63 -20 -86
1 -17 15 -18 40 -18 372 l0 356 -78 -78 c-83 -82 -107 -92 -142 -57 -39 39
-28 59 131 229 l150 161 72 -77 c40 -43 107 -115 150 -160z m-329 -435 c8 -13
8 -23 0 -35 -10 -16 -32 -18 -174 -21 -167 -3 -190 2 -190 37 0 38 19 42 189
39 143 -3 165 -5 175 -20z m570 0 c8 -13 8 -23 0 -35 -10 -16 -32 -18 -177
-21 -158 -2 -167 -1 -177 18 -8 14 -8 26 0 40 10 19 19 20 177 18 145 -3 167
-5 177 -20z"/>
<path d="M30631 7100 c-23 -71 -59 -188 -81 -258 -22 -70 -40 -135 -40 -143 0
-14 148 -516 156 -530 6 -10 314 85 314 97 0 6 -27 100 -60 210 -33 109 -60
209 -60 221 0 11 29 115 65 229 36 114 64 208 62 209 -4 3 -304 95 -310 95 -3
0 -24 -58 -46 -130z"/>
<path d="M31062 6933 c-40 -109 -75 -207 -78 -219 -7 -26 146 -444 162 -444
14 0 206 71 217 80 4 3 -20 79 -53 169 -33 89 -60 171 -60 181 0 11 27 92 60
181 47 125 58 164 48 170 -15 9 -206 79 -216 79 -4 0 -40 -89 -80 -197z"/>
<path d="M31546 7012 c-8 -16 -44 -92 -80 -171 l-65 -142 76 -167 c42 -92 77
-168 78 -170 1 -1 36 14 78 33 l76 36 -23 52 c-13 29 -41 89 -61 135 l-38 83
58 127 c32 70 60 130 62 134 3 6 -127 78 -141 78 -3 0 -12 -13 -20 -28z"/>
<path d="M26220 6645 l0 -315 -335 0 -336 0 3 -62 3 -63 333 0 332 0 0 -507 0
-508 885 0 885 0 0 295 0 295 -30 0 -30 0 0 295 0 295 30 0 30 0 0 295 0 295
-885 0 -885 0 0 -315z m945 -270 c14 -13 25 -36 25 -50 0 -36 -42 -75 -80 -75
-38 0 -80 39 -80 75 0 36 42 75 80 75 19 0 40 -9 55 -25z m15 -435 l0 -240
-75 0 -75 0 0 240 0 240 75 0 75 0 0 -240z"/>
<path d="M32753 6793 c-17 -10 -180 -128 -361 -263 -232 -172 -338 -257 -356
-285 -34 -51 -35 -118 -3 -166 29 -42 686 -532 746 -555 39 -16 48 -16 84 -3
26 9 50 26 64 48 l23 34 0 554 c0 602 1 587 -56 632 -33 26 -97 28 -141 4z
m27 -205 c0 -7 1 -205 2 -441 2 -235 1 -427 -1 -427 -2 0 -107 77 -235 172
-127 94 -261 193 -298 221 l-68 50 183 134 c100 75 232 173 292 219 61 45 113
83 118 83 4 1 7 -5 7 -11z"/>
<path d="M33325 6402 c-44 -20 -82 -39 -84 -42 -6 -8 9 -99 18 -104 4 -3 31 6
60 20 29 13 55 24 57 24 2 0 4 -115 4 -255 l0 -255 75 0 75 0 0 325 0 325 -62
0 c-52 0 -78 -7 -143 -38z"/>
<path d="M31377 6055 c-76 -23 -140 -45 -142 -47 -2 -2 26 -101 62 -220 l65
-217 -67 -216 c-37 -119 -66 -218 -63 -220 6 -6 290 -95 304 -95 5 0 47 119
92 264 l83 265 -79 263 c-66 218 -83 263 -98 265 -11 1 -81 -18 -157 -42z"/>
<path d="M30955 5961 c-54 -21 -100 -42 -102 -48 -2 -5 24 -85 58 -178 l61
-168 -62 -169 c-35 -96 -59 -173 -54 -178 5 -5 57 -26 116 -48 l107 -39 81
218 80 217 -79 213 c-47 129 -84 215 -92 216 -8 0 -59 -16 -114 -36z"/>
<path d="M30588 5876 c-37 -17 -69 -34 -73 -37 -3 -4 21 -66 54 -138 l60 -132
-59 -131 c-33 -72 -60 -134 -60 -138 0 -12 141 -73 149 -64 13 15 151 318 151
331 0 13 -139 323 -149 334 -3 3 -36 -8 -73 -25z"/>
<path d="M28880 4921 c-48 -4 -65 -10 -66 -21 -1 -8 -2 -277 -3 -597 l-1 -583
-1295 0 -1295 0 0 -125 0 -125 1383 1 c760 0 1400 3 1422 7 l40 7 0 597 0 596
28 -5 27 -5 0 131 c0 130 0 131 -22 127 -13 -1 -23 -8 -23 -14 0 -6 -4 -14 -9
-19 -5 -5 -6 -3 -2 5 4 7 1 14 -6 16 -28 9 -116 12 -178 7z m200 -215 c0 -3
-4 -8 -10 -11 -5 -3 -10 -1 -10 4 0 6 5 11 10 11 6 0 10 -2 10 -4z"/>
<path d="M29210 4798 l0 -128 25 0 26 0 -3 127 c-3 123 -4 126 -25 128 -23 2
-23 0 -23 -127z"/>
<path d="M29346 4923 c-3 -4 -6 -62 -6 -130 l0 -123 25 0 25 0 0 128 c0 118
-1 128 -19 129 -10 1 -22 -1 -25 -4z"/>
<path d="M29480 4798 c0 -128 0 -129 23 -126 21 3 22 8 25 117 4 114 -1 132
-33 137 -13 2 -15 -17 -15 -128z"/>
<path d="M29615 4921 c-3 -2 -5 -60 -5 -128 l0 -123 25 0 25 0 0 129 c0 125
-1 130 -20 128 -12 -1 -23 -3 -25 -6z"/>
<path d="M29750 4800 c0 -131 0 -131 23 -128 21 3 22 6 22 128 0 122 -1 125
-22 128 -23 3 -23 3 -23 -128z"/>
<path d="M29886 4923 c-3 -4 -6 -62 -6 -130 l0 -123 25 0 25 0 0 128 c0 118
-1 128 -19 129 -10 1 -22 -1 -25 -4z"/>
<path d="M30020 4799 c0 -130 0 -130 23 -127 21 3 22 6 22 127 0 121 -1 124
-22 127 -23 4 -23 3 -23 -127z"/>
<path d="M30150 4799 l0 -129 25 0 26 0 -3 128 c-3 124 -4 127 -25 128 -23 1
-23 0 -23 -127z"/>
<path d="M30284 4916 c-3 -7 -4 -65 -2 -127 3 -110 4 -114 26 -117 22 -3 22
-3 22 127 0 125 -1 131 -20 131 -11 0 -23 -6 -26 -14z"/>
<path d="M30420 4800 l0 -130 25 0 26 0 -3 127 c-3 122 -4 126 -25 129 -23 4
-23 3 -23 -126z"/>
<path d="M29300 4325 l0 -165 535 0 535 0 0 165 0 165 -535 0 -535 0 0 -165z"/>
<path d="M32570 4195 l0 -265 55 0 55 0 0 265 0 265 -55 0 -55 0 0 -265z"/>
<path d="M31631 4390 l-63 -30 7 -37 c4 -21 9 -40 11 -42 2 -3 25 5 49 17 l45
22 0 -195 0 -195 55 0 55 0 0 245 0 245 -47 0 c-31 -1 -70 -11 -112 -30z"/>
<path d="M32274 4286 c-18 -8 -35 -19 -38 -25 -11 -18 -26 -13 -26 9 0 17 -7
20 -51 20 l-51 0 6 -31 c3 -17 6 -132 6 -255 l0 -224 55 0 55 0 0 92 c0 90 0
91 20 73 11 -10 40 -20 67 -22 61 -5 118 26 151 82 19 34 22 51 20 117 -2 59
-8 83 -24 105 -50 67 -121 89 -190 59z m76 -96 c37 -37 39 -122 4 -161 -23
-25 -78 -25 -104 1 -28 28 -28 117 1 154 25 32 70 35 99 6z"/>
<path d="M32815 4287 c-37 -12 -40 -15 -37 -47 3 -43 5 -44 43 -31 49 17 103
14 122 -7 10 -10 17 -21 17 -24 0 -3 -24 -8 -54 -11 -132 -13 -198 -96 -151
-187 30 -59 105 -76 175 -40 34 17 40 18 40 5 0 -11 12 -15 50 -15 l50 0 0
128 c0 140 -11 178 -63 216 -34 25 -134 31 -192 13z m145 -221 c0 -57 -76 -91
-100 -46 -22 41 12 78 73 79 24 1 27 -2 27 -33z"/>
<path d="M33267 4285 c-80 -28 -120 -89 -121 -181 0 -72 26 -121 82 -156 30
-19 51 -23 114 -23 42 0 81 5 86 10 5 6 7 26 5 46 l-5 35 -53 -4 c-50 -4 -57
-2 -85 26 -42 43 -42 101 0 144 27 27 36 30 81 26 46 -3 50 -1 55 22 3 14 8
32 10 41 8 30 -101 39 -169 14z"/>
<path d="M33593 4289 c-66 -19 -123 -102 -123 -179 0 -124 95 -200 235 -187
90 9 98 13 91 55 -3 19 -7 36 -8 38 -2 1 -24 -2 -50 -7 -57 -13 -121 2 -143
34 -8 12 -15 25 -15 29 0 5 54 8 120 8 l120 0 0 50 c0 126 -99 196 -227 159z
m110 -87 c35 -31 21 -42 -53 -42 -38 0 -70 3 -70 6 0 16 24 46 43 54 26 10 55
4 80 -18z"/>
<path d="M29392 3898 l3 -123 438 -3 437 -2 0 125 0 125 -441 0 -440 0 3 -122z"/>
<path d="M29490 3515 l0 -85 340 0 340 0 0 85 0 85 -340 0 -340 0 0 -85z"/>
<path d="M31570 3506 c0 -38 -17 -304 -26 -409 l-5 -68 53 3 53 3 10 200 c10
197 10 199 23 140 7 -33 29 -122 49 -197 l37 -138 46 0 46 0 54 183 c29 100
57 189 62 197 4 8 8 -55 8 -141 0 -86 3 -177 6 -203 l7 -46 54 0 c50 0 53 1
49 23 -3 12 -7 85 -11 162 -3 77 -8 182 -11 233 l-7 92 -73 0 -72 0 -26 -77
c-14 -43 -37 -120 -50 -172 -14 -51 -27 -95 -29 -98 -3 -2 -7 16 -11 39 -3 24
-23 103 -44 176 l-37 132 -77 0 -78 0 0 -34z"/>
<path d="M32264 3376 c-66 -34 -97 -87 -98 -165 -1 -109 60 -177 168 -188 47
-5 64 -2 109 20 71 35 101 86 101 172 0 108 -62 173 -172 182 -47 4 -65 0
-108 -21z m135 -75 c11 -11 23 -36 27 -55 20 -110 -54 -187 -117 -120 -20 21
-24 36 -24 86 0 53 3 62 28 84 34 29 60 31 86 5z"/>
<path d="M32774 3386 c-18 -8 -35 -19 -38 -25 -11 -18 -26 -13 -26 9 0 17 -7
20 -51 20 l-51 0 6 -31 c3 -17 6 -98 6 -180 l0 -149 55 0 55 0 0 120 c0 107 2
122 20 140 11 11 29 20 40 20 11 0 29 -9 40 -20 18 -18 20 -33 20 -140 l0
-120 55 0 55 0 0 139 c0 127 -2 141 -23 172 -39 57 -97 73 -163 45z"/>
<path d="M33150 3393 c-68 -26 -110 -94 -110 -180 0 -70 22 -119 69 -150 46
-31 118 -31 156 -1 l28 22 -6 -44 c-4 -29 -14 -51 -27 -62 -25 -20 -93 -24
-136 -8 -33 13 -40 6 -49 -41 l-7 -37 52 -12 c72 -17 164 -7 211 25 58 38 68
78 71 298 l3 187 -47 0 c-41 0 -48 -3 -48 -20 0 -18 -2 -18 -36 5 -35 24 -88
31 -124 18z m124 -105 c24 -34 21 -123 -4 -148 -25 -25 -61 -26 -91 -1 -20 16
-24 29 -24 74 0 40 5 61 19 76 26 29 80 28 100 -1z"/>
<path d="M33593 3389 c-66 -19 -123 -102 -123 -179 0 -124 95 -200 235 -187
90 9 98 13 91 55 -3 19 -7 36 -8 38 -2 1 -24 -2 -50 -7 -57 -13 -121 2 -143
34 -8 12 -15 25 -15 29 0 5 54 8 120 8 l120 0 0 50 c0 126 -99 196 -227 159z
m110 -87 c35 -31 21 -42 -53 -42 -38 0 -70 3 -70 6 0 16 24 46 43 54 26 10 55
4 80 -18z"/>
<path d="M26950 2840 l0 -530 165 0 165 0 0 530 0 530 -165 0 -165 0 0 -530z"/>
<path d="M26562 2843 l3 -438 123 -3 122 -4 0 441 0 441 -125 0 -125 0 2 -437z"/>
<path d="M26220 2840 l0 -340 85 0 85 0 0 340 0 340 -85 0 -85 0 0 -340z"/>
</g>
</svg>
