<?xml version="1.0" encoding="UTF-8" standalone="no"?>
<!-- Created with Inkscape (http://www.inkscape.org/) -->

<svg xmlns:dc="http://purl.org/dc/elements/1.1/" xmlns:cc="http://creativecommons.org/ns#" xmlns:rdf="http://www.w3.org/1999/02/22-rdf-syntax-ns#" xmlns:svg="http://www.w3.org/2000/svg" xmlns="http://www.w3.org/2000/svg" xmlns:inkscape="http://www.inkscape.org/namespaces/inkscape" version="1.0" width="3507pt" height="2480pt" viewBox="0 0 3507 2480" id="svg2">
  <defs id="defs334" />
  <metadata id="metadata4">
Created by potrace 1.11, written by Peter Selinger 2001-2013
<rdf:RDF>
  <cc:Work rdf:about="">
    <dc:format>image/svg+xml</dc:format>
    <dc:type rdf:resource="http://purl.org/dc/dcmitype/StillImage" />
  </cc:Work>
</rdf:RDF>
</metadata>
  <g transform="matrix(0.1,0,0,-0.1,0,2480)" id="g6" style="fill:#000000;stroke:none">
    <path d="m 590,23325 0,-885 4490,0 4490,0 0,885 0,885 -4490,0 -4490,0 0,-885 z m 845,210 c 33,-21 57,-47 79,-85 28,-50 31,-63 31,-145 0,-72 -5,-100 -23,-139 l -22,-49 27,-29 27,-28 -32,-32 -32,-32 -28,27 -29,27 -62,-16 c -182,-46 -321,69 -321,266 0,119 44,200 132,245 46,23 63,26 129,23 63,-2 83,-8 124,-33 z m 1655,-25 0,-50 -55,0 -55,0 0,50 0,50 55,0 55,0 0,-50 z m 1337,27 c 18,-9 40,-28 49,-42 23,-36 20,-111 -6,-147 l -21,-29 30,-35 c 59,-67 34,-179 -49,-221 -40,-21 -58,-23 -197,-23 l -153,0 0,261 0,261 158,-4 c 126,-3 163,-7 189,-21 z m 273,-27 0,-50 -55,0 -55,0 0,50 0,50 55,0 55,0 0,-50 z m 740,-50 0,-100 95,0 95,0 0,100 0,101 58,-3 57,-3 3,-257 2,-258 -60,0 -60,0 0,115 0,116 -92,-3 -93,-3 -3,-112 -3,-113 -54,0 -55,0 0,260 0,260 55,0 55,0 0,-100 z m 910,-33 5,-127 50,59 50,60 69,0 69,1 -19,-22 c -10,-13 -40,-45 -66,-73 l -47,-50 68,-115 69,-115 -55,-3 c -31,-2 -61,-1 -68,2 -7,2 -29,35 -50,73 -47,84 -42,78 -60,63 -10,-9 -15,-31 -15,-76 l 0,-64 -55,0 -55,0 0,253 c 0,140 3,257 7,261 4,4 28,6 53,4 l 45,-3 5,-128 z m 800,83 0,-50 -55,0 -55,0 0,50 0,50 55,0 55,0 0,-50 z m 1170,-215 0,-255 -55,0 -55,0 0,170 0,169 -57,3 -58,3 -3,38 c -3,34 -1,37 23,37 46,0 96,27 108,60 10,27 16,30 54,30 l 43,0 0,-255 z m 480,200 0,-45 -104,0 -104,0 -4,-42 c -3,-24 -4,-44 -3,-46 1,-1 15,2 31,9 65,24 162,-20 190,-87 21,-49 17,-113 -8,-164 -48,-95 -149,-121 -261,-69 -30,13 -61,58 -71,102 -6,27 -6,27 49,27 50,0 56,-2 65,-25 19,-50 96,-49 119,1 37,82 -34,164 -100,115 -28,-21 -83,-27 -107,-13 -10,7 -9,35 4,145 l 17,137 144,0 143,0 0,-45 z m -5940,-20 c 0,-54 0,-55 30,-55 28,0 30,-2 30,-40 0,-38 -2,-40 -30,-40 l -31,0 3,-107 3,-108 28,-3 c 25,-3 27,-7 27,-49 l 0,-45 -60,4 c -45,3 -66,10 -83,26 -20,21 -22,32 -22,152 l 0,130 -27,0 c -26,0 -28,3 -28,40 0,36 3,40 25,40 23,0 25,3 25,48 0,27 3,52 7,55 3,4 28,7 55,7 l 48,0 0,-55 z m 6163,4 c 46,-12 77,-57 77,-111 l 0,-38 -79,0 c -44,0 -82,-4 -86,-10 -7,-12 30,-50 49,-50 7,0 19,7 26,15 16,20 90,21 90,1 0,-8 -16,-28 -35,-45 -41,-35 -96,-42 -145,-16 -45,23 -60,53 -60,118 0,63 11,93 44,117 44,32 63,35 119,19 z m -5585,-67 c 54,-24 92,-96 92,-173 l 0,-39 -131,0 -130,0 7,-22 c 12,-40 35,-58 75,-58 28,0 42,6 51,20 10,16 24,20 65,20 46,0 53,-3 53,-19 0,-25 -44,-77 -81,-96 -16,-9 -55,-15 -90,-15 -115,0 -177,59 -187,176 -14,174 123,276 276,206 z m 3450,0 c 54,-24 92,-96 92,-173 l 0,-39 -131,0 -130,0 7,-22 c 12,-40 35,-58 75,-58 28,0 42,6 51,20 10,16 24,20 65,20 46,0 53,-3 53,-19 0,-25 -44,-77 -81,-96 -16,-9 -55,-15 -90,-15 -115,0 -177,59 -187,176 -14,174 123,276 276,206 z m -5160,-122 c 2,-107 6,-138 19,-152 21,-23 55,-23 84,1 23,18 24,27 29,153 l 5,133 29,3 c 15,2 39,1 52,-2 l 24,-6 0,-190 0,-190 -55,0 c -42,0 -55,4 -55,15 0,12 -6,11 -32,-5 -66,-40 -162,-18 -191,43 -14,28 -17,65 -17,179 0,80 3,148 7,152 4,4 28,6 53,4 l 45,-3 3,-135 z m 586,125 c 57,-24 66,-54 66,-209 0,-79 4,-137 10,-141 25,-15 5,-25 -49,-25 -43,0 -60,4 -65,15 -5,13 -10,12 -38,-5 -59,-36 -161,-20 -188,29 -16,30 -12,114 6,140 21,29 64,47 136,56 60,8 84,24 74,50 -4,10 -19,15 -51,15 -39,0 -47,-3 -55,-25 -8,-22 -15,-25 -61,-25 l -52,0 6,36 c 7,39 38,81 72,94 34,14 150,11 189,-5 z m 244,-13 3,-23 30,26 c 20,16 43,25 65,25 l 34,0 0,-55 0,-55 -37,0 c -71,0 -83,-25 -83,-169 l 0,-111 -55,0 -55,0 0,188 c 0,104 3,192 7,196 4,4 25,6 48,4 33,-2 41,-7 43,-26 z m 530,-169 2,-193 -55,0 -55,0 0,188 c 0,104 3,192 7,196 4,4 28,6 53,4 l 45,-3 3,-192 z m 600,169 3,-23 30,26 c 20,16 43,25 65,25 l 34,0 0,-55 0,-55 -37,0 c -71,0 -83,-25 -83,-169 l 0,-111 -55,0 -55,0 0,188 c 0,104 3,192 7,196 4,4 25,6 48,4 33,-2 41,-7 43,-26 z m 1010,-169 2,-193 -55,0 -55,0 0,188 c 0,104 3,192 7,196 4,4 28,6 53,4 l 45,-3 3,-192 z m 200,169 3,-23 30,26 c 20,16 43,25 65,25 l 34,0 0,-55 0,-55 -37,0 c -71,0 -83,-25 -83,-169 l 0,-111 -55,0 -55,0 0,188 c 0,104 3,192 7,196 4,4 25,6 48,4 33,-2 41,-7 43,-26 z m 1196,13 c 57,-24 66,-54 66,-209 0,-79 4,-137 10,-141 25,-15 5,-25 -49,-25 -43,0 -60,4 -65,15 -5,13 -10,12 -38,-5 -59,-36 -161,-20 -188,29 -16,30 -12,114 6,140 21,29 64,47 136,56 60,8 84,24 74,50 -4,10 -19,15 -51,15 -39,0 -47,-3 -55,-25 -8,-22 -15,-25 -61,-25 l -52,0 6,36 c 7,39 38,81 72,94 34,14 150,11 189,-5 z m 1054,-182 2,-193 -55,0 -55,0 0,188 c 0,104 3,192 7,196 4,4 28,6 53,4 l 45,-3 3,-192 z m 379,173 28,-24 28,24 c 34,29 119,34 155,8 45,-31 52,-63 52,-224 l 0,-150 -55,0 -55,0 0,132 c 0,108 -3,135 -17,150 -21,24 -48,23 -73,-2 -18,-18 -20,-33 -20,-150 l 0,-130 -55,0 -55,0 0,132 c 0,108 -3,135 -17,150 -20,22 -42,23 -71,2 -21,-14 -22,-22 -22,-150 l 0,-134 -55,0 -55,0 0,190 0,190 55,0 c 46,0 55,-3 55,-17 0,-11 3,-14 8,-7 27,41 126,47 169,10 z m -2267,-166 0,-50 -105,0 -105,0 0,50 0,50 105,0 105,0 0,-50 z" inkscape:connector-curvature="0" id="path8" />
    <path d="m 1225,23448 c -38,-30 -55,-76 -55,-150 0,-102 51,-172 125,-172 46,0 55,12 25,34 l -25,19 32,33 32,32 25,-23 25,-24 11,27 c 14,39 12,131 -4,170 -21,50 -60,76 -116,76 -33,0 -55,-6 -75,-22 z" inkscape:connector-curvature="0" id="path10" />
    <path d="m 4190,23410 0,-50 76,0 c 91,0 114,10 114,51 0,38 -27,49 -121,49 l -69,0 0,-50 z" inkscape:connector-curvature="0" id="path12" />
    <path d="m 4190,23200 0,-60 84,0 c 97,0 116,11 116,65 0,46 -20,55 -119,55 l -81,0 0,-60 z" inkscape:connector-curvature="0" id="path14" />
    <path d="m 8952,23408 c -21,-21 -13,-28 28,-28 22,0 40,4 40,8 0,14 -23,32 -40,32 -9,0 -21,-5 -28,-12 z" inkscape:connector-curvature="0" id="path16" />
    <path d="m 3297,23322 c -10,-10 -17,-26 -17,-35 0,-14 11,-17 65,-17 57,0 65,2 65,18 0,46 -81,70 -113,34 z" inkscape:connector-curvature="0" id="path18" />
    <path d="m 6747,23322 c -10,-10 -17,-26 -17,-35 0,-14 11,-17 65,-17 57,0 65,2 65,18 0,46 -81,70 -113,34 z" inkscape:connector-curvature="0" id="path20" />
    <path d="m 2202,23200 c -44,-10 -54,-22 -50,-56 7,-64 118,-26 118,41 0,27 -9,29 -68,15 z" inkscape:connector-curvature="0" id="path22" />
    <path d="m 5982,23200 c -44,-10 -54,-22 -50,-56 7,-64 118,-26 118,41 0,27 -9,29 -68,15 z" inkscape:connector-curvature="0" id="path24" />
    <path d="m 3918,21278 c -47,-13 -113,-70 -140,-122 -27,-52 -37,-194 -18,-262 31,-109 121,-174 242,-174 39,0 85,7 105,15 36,15 37,15 68,-15 l 31,-30 32,33 32,33 -29,28 -29,28 25,55 c 23,50 25,64 21,156 -5,114 -15,142 -74,200 -62,60 -166,82 -266,55 z m 177,-118 c 39,-36 58,-99 53,-175 -5,-82 -18,-98 -53,-65 l -26,24 -32,-33 -32,-32 30,-24 c 36,-29 29,-38 -30,-38 -53,0 -90,23 -120,74 -16,26 -20,52 -20,114 0,92 17,134 68,166 44,28 127,22 162,-11 z" inkscape:connector-curvature="0" id="path26" />
    <path d="m 5220,21230 0,-50 55,0 55,0 0,50 0,50 -55,0 -55,0 0,-50 z" inkscape:connector-curvature="0" id="path28" />
    <path d="m 5900,21185 c 0,-47 -3,-85 -7,-85 -3,0 -15,8 -25,17 -11,10 -41,18 -76,21 -47,3 -63,0 -91,-20 -51,-34 -70,-66 -83,-135 -20,-110 17,-209 93,-248 44,-23 110,-19 153,10 34,23 36,23 36,5 0,-17 7,-20 50,-20 l 50,0 0,270 0,270 -50,0 -50,0 0,-85 z m -57,-147 c 12,-6 27,-18 34,-27 19,-26 26,-96 13,-135 -31,-96 -146,-83 -165,18 -20,104 45,183 118,144 z" inkscape:connector-curvature="0" id="path30" />
    <path d="m 6730,21000 0,-272 163,4 c 182,4 215,13 255,71 17,26 22,47 22,96 0,59 -3,66 -32,95 l -33,31 22,21 c 48,48 37,155 -20,196 -30,22 -43,23 -204,26 l -173,3 0,-271 z m 306,155 c 18,-24 18,-46 0,-71 -12,-16 -29,-20 -105,-22 l -91,-4 0,62 0,62 91,-4 c 75,-3 94,-8 105,-23 z m -2,-206 c 31,-25 33,-57 5,-93 -19,-25 -25,-26 -110,-26 l -89,0 0,70 0,70 84,0 c 69,0 88,-4 110,-21 z" inkscape:connector-curvature="0" id="path32" />
    <path d="m 8430,21000 0,-270 55,0 55,0 0,270 0,270 -55,0 -55,0 0,-270 z" inkscape:connector-curvature="0" id="path34" />
    <path d="m 4861,21122 c -39,-19 -66,-54 -75,-94 -6,-28 -6,-28 48,-28 45,0 54,3 59,20 12,45 95,50 121,7 15,-25 -12,-44 -77,-52 -115,-14 -156,-44 -164,-118 -6,-55 16,-101 59,-123 41,-21 119,-14 158,14 28,21 29,21 35,2 5,-17 15,-20 66,-20 32,0 59,2 59,4 0,2 -7,17 -15,32 -11,22 -15,64 -15,165 0,122 -2,139 -20,162 -37,47 -172,64 -239,29 z m 159,-227 c 0,-55 -39,-95 -93,-95 -45,0 -64,52 -29,83 14,12 68,29 115,36 4,1 7,-10 7,-24 z" inkscape:connector-curvature="0" id="path36" />
    <path d="m 6143,21115 c -58,-35 -83,-90 -83,-185 0,-100 23,-148 89,-184 88,-47 187,-32 249,38 47,54 43,66 -21,66 -41,0 -58,-5 -72,-20 -40,-44 -120,-16 -140,48 l -6,22 140,0 c 160,0 149,-7 131,90 -12,63 -50,117 -96,136 -55,23 -142,18 -191,-11 z m 136,-70 c 28,-14 41,-33 41,-61 0,-11 -17,-14 -75,-14 -86,0 -95,11 -46,61 34,33 41,35 80,14 z" inkscape:connector-curvature="0" id="path38" />
    <path d="m 7415,21128 c -11,-6 -28,-20 -37,-32 l -18,-21 0,28 c 0,26 -2,27 -50,27 l -50,0 0,-200 0,-200 50,0 50,0 0,109 c 0,153 18,191 91,191 l 39,0 0,55 c 0,53 -1,55 -27,55 -16,0 -37,-6 -48,-12 z" inkscape:connector-curvature="0" id="path40" />
    <path d="m 7611,21122 c -39,-19 -66,-54 -75,-94 -6,-28 -6,-28 48,-28 45,0 54,3 59,20 12,45 95,50 121,7 15,-25 -12,-44 -77,-52 -115,-14 -156,-44 -164,-118 -6,-55 16,-101 59,-123 41,-21 119,-14 158,14 28,21 29,21 35,2 5,-17 15,-20 66,-20 32,0 59,2 59,4 0,2 -7,17 -15,32 -11,22 -15,64 -15,165 0,122 -2,139 -20,162 -37,47 -172,64 -239,29 z m 159,-227 c 0,-55 -39,-95 -93,-95 -45,0 -64,52 -29,83 14,12 68,29 115,36 4,1 7,-10 7,-24 z" inkscape:connector-curvature="0" id="path42" />
    <path d="m 8106,21115 c -34,-23 -36,-23 -36,-5 0,17 -7,20 -50,20 l -50,0 0,-200 0,-200 50,0 50,0 0,109 c 0,128 6,163 32,190 24,27 79,28 101,3 14,-15 17,-42 17,-160 l 0,-142 55,0 55,0 0,160 c 0,178 -8,208 -60,235 -46,24 -121,19 -164,-10 z" inkscape:connector-curvature="0" id="path44" />
    <path d="m 4340,20969 c 0,-146 2,-165 21,-195 35,-58 144,-69 204,-22 l 25,19 0,-20 c 0,-19 6,-21 55,-21 l 55,0 0,200 0,200 -55,0 -55,0 0,-125 c 0,-134 -8,-166 -47,-184 -36,-16 -58,-14 -79,10 -16,18 -19,40 -22,160 l -4,139 -49,0 -49,0 0,-161 z" inkscape:connector-curvature="0" id="path46" />
    <path d="m 5220,20930 0,-200 55,0 55,0 0,200 0,200 -55,0 -55,0 0,-200 z" inkscape:connector-curvature="0" id="path48" />
    <path d="m 8600,21126 c 0,-2 32,-96 71,-208 81,-231 82,-251 16,-256 -37,-3 -37,-4 -37,-48 l 0,-44 48,0 c 58,0 91,16 114,56 17,30 178,476 178,495 0,5 -24,9 -54,9 l -55,0 -15,-52 c -8,-29 -25,-90 -37,-135 -12,-46 -25,-83 -28,-83 -3,0 -24,61 -45,135 l -39,135 -58,0 c -33,0 -59,-2 -59,-4 z" inkscape:connector-curvature="0" id="path50" />
    <path d="m 4700,17305 0,-3195 -1860,0 -1860,0 0,-125 0,-125 1992,0 1991,0 -6,188 c -4,103 -7,1597 -7,3320 l 0,3132 -125,0 -125,0 0,-3195 z" inkscape:connector-curvature="0" id="path52" />
    <path d="m 8020,17505 0,-2995 124,0 c 73,0 127,4 131,10 4,7 4155,10 12421,10 l 12414,0 0,125 0,125 -12420,0 -12420,0 0,2860 0,2860 -125,0 -125,0 0,-2995 z" inkscape:connector-curvature="0" id="path54" />
    <path d="m 9103,20195 c -204,-44 -379,-219 -416,-416 -7,-32 -15,-59 -19,-59 -5,0 -8,-25 -8,-55 0,-30 4,-55 9,-55 5,0 11,-22 15,-49 9,-65 73,-193 130,-257 72,-81 149,-122 337,-176 43,-12 89,-8 184,19 216,60 357,211 402,430 15,71 16,91 4,160 -38,228 -192,396 -417,453 -89,23 -134,24 -221,5 z m 279,-74 c 120,-47 233,-159 279,-279 31,-79 38,-227 14,-308 -25,-87 -67,-155 -139,-221 -68,-64 -124,-95 -213,-118 -269,-70 -546,114 -593,395 -40,237 125,492 358,550 66,16 230,6 294,-19 z" inkscape:connector-curvature="0" id="path56" />
    <path d="m 8808,19814 c -5,-4 -8,-83 -8,-176 l 0,-168 35,0 35,0 0,71 0,70 32,-3 c 36,-3 51,-24 68,-95 10,-40 13,-43 45,-43 19,0 35,3 35,8 0,22 -31,116 -44,136 -14,22 -13,25 10,47 34,32 34,96 -2,130 -22,21 -37,24 -112,27 -48,2 -90,0 -94,-4 z m 144,-61 c 40,-36 2,-99 -54,-91 -19,2 -24,10 -26,42 -2,21 -1,44 2,52 7,19 55,18 78,-3 z" inkscape:connector-curvature="0" id="path58" />
    <path d="m 9110,19645 0,-175 105,0 105,0 0,30 0,30 -70,0 -70,0 0,45 0,45 65,0 65,0 0,30 0,30 -65,0 -65,0 0,40 0,40 70,0 70,0 0,30 0,30 -105,0 -105,0 0,-175 z" inkscape:connector-curvature="0" id="path60" />
    <path d="m 9387,19813 c -4,-3 -7,-82 -7,-175 l 0,-169 38,3 37,3 3,68 c 3,62 4,67 26,67 29,0 52,-26 61,-70 12,-58 22,-70 61,-70 29,0 34,3 30,18 -3,9 -10,38 -17,64 -6,26 -19,54 -30,64 -18,16 -17,17 11,44 51,47 38,119 -25,146 -35,14 -176,20 -188,7 z m 153,-63 c 11,-11 20,-25 20,-30 0,-21 -49,-60 -75,-60 -24,0 -25,3 -25,55 0,54 0,55 30,55 17,0 39,-9 50,-20 z" inkscape:connector-curvature="0" id="path62" />
    <path d="m 10035,19516 c -70,-32 -105,-101 -105,-208 1,-111 33,-169 113,-203 106,-44 226,12 252,118 7,27 6,27 -39,27 -25,0 -46,-4 -46,-9 0,-5 -12,-23 -26,-40 -34,-41 -81,-42 -125,-3 -26,23 -33,38 -37,80 -10,112 24,172 98,172 30,0 47,-6 65,-25 14,-13 25,-29 25,-35 0,-5 20,-10 45,-10 37,0 45,3 45,19 0,24 -38,79 -73,105 -35,26 -147,33 -192,12 z" inkscape:connector-curvature="0" id="path64" />
    <path d="m 10360,19310 0,-210 40,0 40,0 0,105 c 0,92 3,108 20,125 11,11 31,20 44,20 41,0 50,-24 54,-141 l 4,-109 40,0 40,0 -4,136 c -3,135 -3,136 -31,160 -33,28 -92,32 -137,9 l -30,-16 0,66 0,65 -40,0 -40,0 0,-210 z" inkscape:connector-curvature="0" id="path66" />
    <path d="m 12600,19455 c 0,-36 -2,-65 -5,-65 -3,0 -17,7 -31,16 -31,21 -106,14 -136,-12 -31,-28 -48,-77 -48,-140 0,-70 22,-117 67,-145 40,-25 102,-22 134,7 17,16 19,16 19,1 0,-13 9,-17 40,-17 l 40,0 0,210 0,210 -40,0 -40,0 0,-65 z m -45,-111 c 21,-8 45,-56 45,-89 0,-88 -88,-127 -125,-55 -19,37 -19,73 0,110 19,37 44,47 80,34 z" inkscape:connector-curvature="0" id="path68" />
    <path d="m 13250,19310 0,-210 45,0 45,0 1,153 1,152 18,-75 c 10,-41 26,-110 35,-152 l 17,-78 43,0 43,0 27,118 c 49,217 50,217 53,40 l 3,-158 39,0 40,0 0,210 0,210 -65,0 c -59,0 -65,-2 -70,-22 -3,-13 -18,-81 -34,-151 -16,-71 -31,-131 -33,-133 -2,-2 -20,65 -39,149 l -35,152 -67,3 -67,3 0,-211 z" inkscape:connector-curvature="0" id="path70" />
    <path d="m 10758,19405 c -31,-17 -48,-44 -48,-74 0,-18 6,-21 40,-21 27,0 40,4 40,13 0,19 40,35 70,27 16,-4 25,-13 25,-25 0,-20 -19,-28 -99,-40 -54,-9 -86,-44 -86,-94 0,-53 7,-69 41,-86 37,-20 67,-19 111,4 30,15 38,16 42,5 3,-9 22,-14 51,-14 42,0 58,11 35,25 -6,4 -10,56 -10,124 0,113 -1,118 -25,141 -21,20 -39,25 -93,27 -46,2 -75,-1 -94,-12 z m 122,-215 c -24,-45 -100,-45 -100,-1 0,25 19,39 66,49 33,7 39,6 42,-9 2,-10 -2,-27 -8,-39 z" inkscape:connector-curvature="0" id="path72" />
    <path d="m 11142,19404 c -12,-8 -22,-10 -22,-5 0,6 -18,11 -40,11 l -40,0 0,-155 0,-155 40,0 40,0 0,109 c 0,116 9,141 50,141 37,0 50,-37 50,-147 l 0,-103 40,0 40,0 0,103 c 0,110 13,147 50,147 41,0 50,-25 50,-141 l 0,-109 40,0 40,0 0,125 c 0,69 -5,135 -11,148 -22,48 -106,63 -152,27 l -26,-21 -21,21 c -25,25 -95,27 -128,4 z" inkscape:connector-curvature="0" id="path74" />
    <path d="m 11663,19400 c -27,-16 -33,-17 -33,-5 0,10 -11,15 -35,15 l -35,0 0,-215 0,-215 40,0 40,0 0,77 c 0,74 1,76 19,59 48,-43 138,-21 175,43 24,41 27,140 7,188 -27,66 -115,92 -178,53 z m 82,-75 c 40,-39 30,-131 -15,-155 -75,-40 -133,97 -69,161 26,26 55,24 84,-6 z" inkscape:connector-curvature="0" id="path76" />
    <path d="m 11958,19404 c -35,-18 -48,-43 -48,-88 0,-43 28,-72 85,-87 89,-23 106,-31 103,-47 -5,-27 -82,-29 -105,-3 -23,28 -93,30 -93,3 0,-88 183,-127 255,-54 22,21 25,33 23,71 -3,38 -8,49 -34,66 -17,12 -57,27 -88,34 -61,14 -74,24 -56,46 18,21 57,18 80,-5 25,-25 90,-28 90,-4 0,26 -19,53 -50,69 -37,19 -127,19 -162,-1 z" inkscape:connector-curvature="0" id="path78" />
    <path d="m 12820,19413 c -57,-21 -101,-119 -86,-194 16,-88 90,-138 180,-125 49,8 106,53 106,84 0,23 -73,21 -98,-2 -25,-22 -58,-20 -82,4 -42,42 -29,50 85,50 l 105,0 0,37 c 0,54 -35,118 -74,137 -33,15 -105,20 -136,9 z m 102,-80 c 34,-31 23,-43 -42,-43 -33,0 -60,3 -60,8 0,4 7,18 16,30 18,26 60,29 86,5 z" inkscape:connector-curvature="0" id="path80" />
    <path d="m 13768,19405 c -31,-17 -48,-44 -48,-74 0,-18 6,-21 40,-21 27,0 40,4 40,13 0,19 40,35 70,27 16,-4 25,-13 25,-25 0,-20 -19,-28 -99,-40 -54,-9 -86,-44 -86,-94 0,-53 7,-69 41,-86 37,-20 67,-19 111,4 30,15 38,16 42,5 3,-9 22,-14 51,-14 42,0 58,11 35,25 -6,4 -10,56 -10,124 0,113 -1,118 -25,141 -21,20 -39,25 -93,27 -46,2 -75,-1 -94,-12 z m 122,-215 c -24,-45 -100,-45 -100,-1 0,25 19,39 66,49 33,7 39,6 42,-9 2,-10 -2,-27 -8,-39 z" inkscape:connector-curvature="0" id="path82" />
    <path d="m 14166,19399 c -21,-17 -26,-18 -26,-5 0,12 -10,16 -40,16 l -40,0 0,-155 0,-155 40,0 40,0 0,95 c 0,88 2,98 25,120 13,14 36,25 50,25 23,0 25,4 25,40 0,35 -3,40 -24,40 -13,0 -35,-9 -50,-21 z" inkscape:connector-curvature="0" id="path84" />
    <path d="m 14318,19404 c -35,-18 -48,-43 -48,-88 0,-43 28,-72 85,-87 89,-23 106,-31 103,-47 -5,-27 -82,-29 -105,-3 -23,28 -93,30 -93,3 0,-88 183,-127 255,-54 22,21 25,33 23,71 -3,38 -8,49 -34,66 -17,12 -57,27 -88,34 -61,14 -74,24 -56,46 18,21 57,18 80,-5 25,-25 90,-28 90,-4 0,26 -19,53 -50,69 -37,19 -127,19 -162,-1 z" inkscape:connector-curvature="0" id="path86" />
    <path d="m 12660,18780 0,-40 40,0 40,0 0,40 0,40 -40,0 -40,0 0,-40 z" inkscape:connector-curvature="0" id="path88" />
    <path d="m 12873,18810 c -27,-11 -43,-40 -43,-79 0,-24 -4,-31 -20,-31 -16,0 -20,-7 -20,-30 0,-23 4,-30 20,-30 19,0 20,-7 20,-125 l 0,-125 40,0 40,0 0,125 0,125 30,0 c 27,0 30,3 30,30 0,25 -4,30 -24,30 -14,0 -27,4 -30,9 -10,16 5,41 25,41 15,0 19,7 19,35 0,33 -2,35 -32,34 -18,0 -43,-4 -55,-9 z" inkscape:connector-curvature="0" id="path90" />
    <path d="m 13063,18810 c -27,-11 -43,-40 -43,-79 0,-24 -4,-31 -20,-31 -16,0 -20,-7 -20,-30 0,-23 4,-30 20,-30 19,0 20,-7 20,-125 l 0,-125 40,0 40,0 0,125 0,125 30,0 c 27,0 30,3 30,30 0,25 -4,30 -24,30 -14,0 -27,4 -30,9 -10,16 5,41 25,41 15,0 19,7 19,35 0,33 -2,35 -32,34 -18,0 -43,-4 -55,-9 z" inkscape:connector-curvature="0" id="path92" />
    <path d="m 10820,18775 0,-34 63,-3 62,-3 3,-172 2,-173 40,0 40,0 2,173 3,172 63,3 62,3 0,34 0,35 -170,0 -170,0 0,-35 z" inkscape:connector-curvature="0" id="path94" />
    <path d="m 12280,18600 0,-210 160,0 160,0 0,40 0,40 -121,0 -120,0 3,53 3,52 103,3 102,3 0,34 0,34 -102,3 -103,3 0,40 0,40 113,3 112,3 0,34 0,35 -155,0 -155,0 0,-210 z" inkscape:connector-curvature="0" id="path96" />
    <path d="m 13530,18600 0,-210 40,0 40,0 0,210 0,210 -40,0 -40,0 0,-210 z" inkscape:connector-curvature="0" id="path98" />
    <path d="m 11211,18684 c -42,-35 -61,-79 -61,-141 0,-56 24,-108 62,-136 40,-29 115,-34 170,-9 95,42 115,189 39,275 -27,29 -34,32 -103,35 -69,4 -76,2 -107,-24 z m 149,-71 c 18,-23 21,-37 17,-77 -7,-79 -69,-113 -114,-63 -27,30 -35,66 -22,110 17,62 81,78 119,30 z" inkscape:connector-curvature="0" id="path100" />
    <path d="m 11986,18689 c -21,-17 -26,-18 -26,-5 0,12 -10,16 -40,16 l -40,0 0,-155 0,-155 40,0 40,0 0,95 c 0,88 2,98 25,120 13,14 36,25 50,25 23,0 25,4 25,40 0,35 -3,40 -24,40 -13,0 -35,-9 -50,-21 z" inkscape:connector-curvature="0" id="path102" />
    <path d="m 13270,18703 c -57,-21 -101,-119 -86,-194 16,-88 90,-138 180,-125 49,8 106,53 106,84 0,23 -73,21 -98,-2 -25,-22 -58,-20 -82,4 -42,42 -29,50 85,50 l 105,0 0,37 c 0,54 -35,118 -74,137 -33,15 -105,20 -136,9 z m 102,-80 c 34,-31 23,-43 -42,-43 -33,0 -60,3 -60,8 0,4 7,18 16,30 18,26 60,29 86,5 z" inkscape:connector-curvature="0" id="path104" />
    <path d="m 11520,18570 c 0,-126 1,-132 25,-155 20,-20 34,-25 78,-25 36,0 59,5 67,15 7,8 16,15 21,15 5,0 9,-7 9,-15 0,-11 11,-15 40,-15 l 40,0 0,155 0,155 -45,0 -45,0 0,-102 c 0,-110 -3,-118 -38,-137 -19,-10 -28,-10 -48,4 -23,15 -24,20 -24,125 l 0,110 -40,0 -40,0 0,-130 z" inkscape:connector-curvature="0" id="path106" />
    <path d="m 12660,18545 0,-155 40,0 40,0 0,155 0,155 -40,0 -40,0 0,-155 z" inkscape:connector-curvature="0" id="path108" />
    <path d="m 2010,17268 c -62,-32 -90,-77 -90,-145 0,-99 30,-128 168,-164 119,-30 141,-39 147,-60 17,-51 -21,-82 -102,-82 -57,0 -88,18 -104,61 -7,19 -16,22 -64,22 -53,0 -55,-1 -55,-26 0,-48 40,-102 94,-129 64,-32 188,-35 251,-6 96,43 132,153 79,238 -20,32 -74,57 -182,83 -51,12 -100,29 -108,37 -18,19 -18,48 2,67 47,48 174,22 174,-36 0,-15 8,-18 61,-18 l 62,0 -6,36 c -8,50 -48,97 -101,123 -64,30 -166,29 -226,-1 z" inkscape:connector-curvature="0" id="path110" />
    <path d="m 2850,17230 0,-50 55,0 55,0 0,50 0,50 -55,0 -55,0 0,-50 z" inkscape:connector-curvature="0" id="path112" />
    <path d="m 2531,17140 c -47,-11 -82,-40 -110,-90 -20,-36 -25,-58 -25,-119 1,-97 21,-143 83,-182 37,-24 56,-29 109,-29 76,0 123,19 158,65 39,51 33,65 -27,65 -36,0 -58,-6 -76,-20 -14,-11 -39,-20 -55,-20 -34,0 -78,39 -78,70 0,19 6,20 135,20 l 135,0 0,38 c 0,97 -56,181 -135,201 -49,12 -65,12 -114,1 z m 106,-112 c 41,-38 31,-48 -52,-48 -41,0 -75,4 -75,9 0,4 9,20 21,35 26,33 73,35 106,4 z" inkscape:connector-curvature="0" id="path114" />
    <path d="m 3224,17139 c -17,-5 -37,-16 -44,-24 -16,-19 -34,-19 -26,0 4,12 -5,15 -49,15 l -55,0 0,-200 0,-200 55,0 55,0 0,135 c 0,131 1,137 25,160 31,32 78,33 99,3 13,-18 16,-52 16,-160 l 0,-138 55,0 55,0 0,169 c 0,166 -1,170 -25,199 -15,18 -41,34 -69,41 -51,12 -50,12 -92,0 z" inkscape:connector-curvature="0" id="path116" />
    <path d="m 3611,17140 c -47,-11 -82,-40 -110,-90 -20,-36 -25,-58 -25,-119 1,-97 21,-143 83,-182 37,-24 56,-29 109,-29 76,0 123,19 158,65 39,51 33,65 -27,65 -36,0 -58,-6 -76,-20 -14,-11 -39,-20 -55,-20 -34,0 -78,39 -78,70 0,19 6,20 135,20 l 135,0 0,38 c 0,97 -56,181 -135,201 -49,12 -65,12 -114,1 z m 106,-112 c 41,-38 31,-48 -52,-48 -41,0 -75,4 -75,9 0,4 9,20 21,35 26,33 73,35 106,4 z" inkscape:connector-curvature="0" id="path118" />
    <path d="m 2850,16936 0,-206 55,0 55,0 -2,203 -3,202 -52,3 -53,3 0,-205 z" inkscape:connector-curvature="0" id="path120" />
    <path d="m 12855,13921 c -74,-18 -140,-76 -171,-149 -25,-59 -29,-168 -10,-236 21,-71 79,-138 141,-162 69,-26 163,-16 219,23 l 44,31 6,-29 c 5,-25 10,-29 41,-29 l 35,0 0,145 0,145 -110,0 -110,0 0,-45 0,-45 61,0 c 58,0 60,-1 54,-22 -29,-94 -159,-122 -227,-51 -37,38 -48,74 -48,146 1,124 59,192 157,184 56,-4 89,-24 104,-64 7,-20 16,-23 64,-23 61,0 65,6 41,63 -38,92 -173,146 -291,118 z" inkscape:connector-curvature="0" id="path122" />
    <path d="m 10400,13640 0,-272 163,4 c 182,4 215,13 255,71 17,26 22,47 22,96 0,59 -3,66 -32,95 l -33,31 22,21 c 48,48 37,155 -20,196 -30,22 -43,23 -204,26 l -173,3 0,-271 z m 306,155 c 18,-24 18,-46 0,-71 -12,-16 -29,-20 -105,-22 l -91,-4 0,62 0,62 91,-4 c 75,-3 94,-8 105,-23 z m -2,-206 c 31,-25 33,-57 5,-93 -19,-25 -25,-26 -110,-26 l -89,0 0,70 0,70 84,0 c 69,0 88,-4 110,-21 z" inkscape:connector-curvature="0" id="path124" />
    <path d="m 11190,13825 c 0,-47 -3,-85 -7,-85 -3,0 -15,8 -25,17 -11,10 -41,18 -76,21 -47,3 -63,0 -91,-20 -51,-34 -70,-66 -83,-135 -20,-110 17,-209 93,-248 44,-23 110,-19 153,10 34,23 36,23 36,5 0,-17 7,-20 50,-20 l 50,0 0,270 0,270 -50,0 -50,0 0,-85 z m -57,-147 c 12,-6 27,-18 34,-27 19,-26 26,-96 13,-135 -31,-96 -146,-83 -165,18 -20,104 45,183 118,144 z" inkscape:connector-curvature="0" id="path126" />
    <path d="m 11860,13825 c 0,-47 -3,-85 -7,-85 -3,0 -15,8 -25,17 -11,10 -41,18 -76,21 -47,3 -63,0 -91,-20 -51,-34 -70,-66 -83,-135 -20,-110 17,-209 93,-248 44,-23 110,-19 153,10 34,23 36,23 36,5 0,-17 7,-20 50,-20 l 50,0 0,270 0,270 -50,0 -50,0 0,-85 z m -57,-147 c 12,-6 27,-18 34,-27 19,-26 26,-96 13,-135 -31,-96 -146,-83 -165,18 -20,104 45,183 118,144 z" inkscape:connector-curvature="0" id="path128" />
    <path d="m 14850,13640 0,-270 55,0 55,0 0,270 0,270 -55,0 -55,0 0,-270 z" inkscape:connector-curvature="0" id="path130" />
    <path d="m 15060,13640 0,-270 55,0 55,0 0,270 0,270 -55,0 -55,0 0,-270 z" inkscape:connector-curvature="0" id="path132" />
    <path d="m 12103,13755 c -58,-35 -83,-90 -83,-185 0,-100 23,-148 89,-184 88,-47 187,-32 249,38 47,54 43,66 -21,66 -41,0 -58,-5 -72,-20 -40,-44 -120,-16 -140,48 l -6,22 140,0 c 160,0 149,-7 131,90 -12,63 -50,117 -96,136 -55,23 -142,18 -191,-11 z m 136,-70 c 28,-14 41,-33 41,-61 0,-11 -17,-14 -75,-14 -86,0 -95,11 -46,61 34,33 41,35 80,14 z" inkscape:connector-curvature="0" id="path134" />
    <path d="m 13415,13768 c -11,-6 -28,-20 -37,-32 l -18,-21 0,28 c 0,26 -2,27 -50,27 l -50,0 0,-200 0,-200 50,0 50,0 0,109 c 0,153 18,191 91,191 l 39,0 0,55 c 0,53 -1,55 -27,55 -16,0 -37,-6 -48,-12 z" inkscape:connector-curvature="0" id="path136" />
    <path d="m 13613,13755 c -58,-35 -83,-90 -83,-185 0,-100 23,-148 89,-184 88,-47 187,-32 249,38 47,54 43,66 -21,66 -41,0 -58,-5 -72,-20 -40,-44 -120,-16 -140,48 l -6,22 140,0 c 160,0 149,-7 131,90 -12,63 -50,117 -96,136 -55,23 -142,18 -191,-11 z m 136,-70 c 28,-14 41,-33 41,-61 0,-11 -17,-14 -75,-14 -86,0 -95,11 -46,61 34,33 41,35 80,14 z" inkscape:connector-curvature="0" id="path138" />
    <path d="m 14106,13755 c -34,-23 -36,-23 -36,-5 0,17 -7,20 -50,20 l -50,0 0,-200 0,-200 50,0 50,0 0,109 c 0,128 6,163 32,190 24,27 79,28 101,3 14,-15 17,-42 17,-160 l 0,-142 55,0 55,0 0,160 c 0,178 -8,208 -60,235 -46,24 -121,19 -164,-10 z" inkscape:connector-curvature="0" id="path140" />
    <path d="m 14483,13755 c -58,-35 -83,-90 -83,-185 0,-100 23,-148 89,-184 88,-47 187,-32 249,38 47,54 43,66 -21,66 -41,0 -58,-5 -72,-20 -40,-44 -120,-16 -140,48 l -6,22 140,0 c 160,0 149,-7 131,90 -12,63 -50,117 -96,136 -55,23 -142,18 -191,-11 z m 136,-70 c 28,-14 41,-33 41,-61 0,-11 -17,-14 -75,-14 -86,0 -95,11 -46,61 34,33 41,35 80,14 z" inkscape:connector-curvature="0" id="path142" />
    <path d="m 15323,13755 c -58,-35 -83,-90 -83,-185 0,-100 23,-148 89,-184 88,-47 187,-32 249,38 47,54 43,66 -21,66 -41,0 -58,-5 -72,-20 -40,-44 -120,-16 -140,48 l -6,22 140,0 c 160,0 149,-7 131,90 -12,63 -50,117 -96,136 -55,23 -142,18 -191,-11 z m 136,-70 c 28,-14 41,-33 41,-61 0,-11 -17,-14 -75,-14 -86,0 -95,11 -46,61 34,33 41,35 80,14 z" inkscape:connector-curvature="0" id="path144" />
    <path d="m 1510,12250 0,-270 55,0 54,0 3,98 3,97 100,5 c 157,8 195,41 195,171 0,81 -21,123 -74,149 -37,17 -62,20 -189,20 l -147,0 0,-270 z m 281,151 c 27,-32 24,-77 -6,-106 -21,-22 -33,-25 -95,-25 l -70,0 0,81 0,81 76,-4 c 65,-3 79,-7 95,-27 z" inkscape:connector-curvature="0" id="path146" />
    <path d="m 3630,12435 c 0,-47 -3,-85 -7,-85 -3,0 -15,8 -25,17 -11,10 -41,18 -76,21 -47,3 -63,0 -91,-20 -51,-34 -70,-66 -83,-135 -20,-110 17,-209 93,-248 44,-23 110,-19 153,10 34,23 36,23 36,5 0,-17 7,-20 50,-20 l 50,0 0,270 0,270 -50,0 -50,0 0,-85 z m -57,-147 c 12,-6 27,-18 34,-27 19,-26 26,-96 13,-135 -31,-96 -146,-83 -165,18 -20,104 45,183 118,144 z" inkscape:connector-curvature="0" id="path148" />
    <path d="m 17792,12480 c -154,-41 -275,-134 -344,-266 -60,-113 -89,-247 -69,-318 51,-179 94,-260 176,-332 64,-57 192,-122 256,-130 27,-4 49,-10 49,-15 0,-5 25,-9 55,-9 30,0 55,3 55,8 0,4 27,12 59,19 200,38 372,212 416,421 19,90 19,125 -5,216 -55,214 -211,367 -423,412 -84,18 -138,16 -225,-6 z m 226,-75 c 183,-43 319,-188 353,-374 40,-228 -122,-467 -352,-520 -206,-48 -431,62 -522,256 -43,92 -50,226 -18,331 45,149 174,269 328,306 76,19 134,19 211,1 z" inkscape:connector-curvature="0" id="path150" />
    <path d="m 17666,12128 c -8,-70 -26,-361 -26,-410 l 0,-38 48,0 49,0 6,107 c 4,58 7,144 7,190 0,45 3,83 8,83 4,0 22,-62 41,-138 18,-75 41,-159 50,-187 16,-49 17,-50 58,-53 l 42,-3 50,158 c 28,87 53,173 57,191 13,67 24,28 24,-90 0,-68 3,-153 7,-190 l 6,-68 54,0 55,0 -6,58 c -3,31 -8,113 -11,182 -3,69 -8,155 -11,193 l -6,67 -74,0 -73,0 -40,-127 c -22,-71 -45,-148 -51,-172 -6,-23 -13,-41 -15,-40 -2,2 -13,42 -25,89 -12,47 -33,122 -46,168 l -25,82 -74,0 -74,0 -5,-52 z" inkscape:connector-curvature="0" id="path152" />
    <path d="m 2920,12435 c 0,-52 -1,-55 -25,-55 -22,0 -25,-4 -25,-40 0,-36 3,-40 25,-40 l 25,0 0,-135 c 0,-131 1,-137 25,-160 20,-21 34,-25 85,-25 l 60,0 0,39 c 0,36 -3,40 -27,43 l -28,3 -3,118 -3,117 31,0 c 28,0 30,2 30,40 0,38 -2,40 -30,40 -30,0 -30,1 -30,55 l 0,55 -55,0 -55,0 0,-55 z" inkscape:connector-curvature="0" id="path154" />
    <path d="m 16160,11935 0,-485 150,0 150,0 0,485 0,485 -150,0 -150,0 0,-485 z" inkscape:connector-curvature="0" id="path156" />
    <path d="m 20547,12413 c -4,-3 -7,-219 -7,-480 l 0,-473 150,0 150,0 0,480 0,480 -143,0 c -79,0 -147,-3 -150,-7 z" inkscape:connector-curvature="0" id="path158" />
    <path d="m 2116,12389 c -90,-22 -140,-97 -140,-209 1,-95 46,-172 117,-199 66,-25 181,-7 231,37 73,65 75,243 3,320 -46,49 -133,71 -211,51 z m 128,-121 c 26,-29 28,-35 24,-96 -4,-56 -8,-68 -32,-88 -34,-30 -88,-32 -115,-5 -39,39 -48,128 -19,184 12,24 67,48 93,41 11,-3 33,-19 49,-36 z" inkscape:connector-curvature="0" id="path160" />
    <path d="m 2596,12365 c -34,-23 -36,-23 -36,-5 0,17 -7,20 -50,20 l -50,0 0,-200 0,-200 50,0 50,0 0,109 c 0,128 6,163 32,190 24,27 79,28 101,3 14,-15 17,-42 17,-160 l 0,-142 55,0 55,0 0,160 c 0,178 -8,208 -60,235 -46,24 -121,19 -164,-10 z" inkscape:connector-curvature="0" id="path162" />
    <path d="m 3883,12365 c -58,-35 -83,-90 -83,-185 0,-100 23,-148 89,-184 88,-47 187,-32 249,38 47,54 43,66 -21,66 -41,0 -58,-5 -72,-20 -40,-44 -120,-16 -140,48 l -6,22 140,0 c 160,0 149,-7 131,90 -12,63 -50,117 -96,136 -55,23 -142,18 -191,-11 z m 136,-70 c 28,-14 41,-33 41,-61 0,-11 -17,-14 -75,-14 -86,0 -95,11 -46,61 34,33 41,35 80,14 z" inkscape:connector-curvature="0" id="path164" />
    <path d="m 15820,11940 0,-390 105,0 105,0 -2,388 -3,387 -102,3 -103,3 0,-391 z" inkscape:connector-curvature="0" id="path166" />
    <path d="m 20977,12323 c -4,-3 -7,-179 -7,-390 l 0,-383 105,0 105,0 0,390 0,390 -98,0 c -54,0 -102,-3 -105,-7 z" inkscape:connector-curvature="0" id="path168" />
    <path d="m 15500,11935 0,-305 75,0 75,0 0,305 0,305 -75,0 -75,0 0,-305 z" inkscape:connector-curvature="0" id="path170" />
    <path d="m 21350,11935 0,-305 75,0 75,0 0,305 0,305 -75,0 -75,0 0,-305 z" inkscape:connector-curvature="0" id="path172" />
    <path d="m 19013,12161 c -128,-44 -203,-154 -203,-300 0,-89 14,-135 56,-181 97,-107 275,-90 344,33 46,81 25,201 -43,249 -42,30 -141,37 -187,13 l -33,-17 20,33 c 25,45 85,77 156,85 l 57,7 0,48 0,49 -57,0 c -32,-1 -81,-9 -110,-19 z m 59,-289 c 27,-23 33,-78 15,-118 -33,-67 -110,-54 -137,24 -13,38 -13,46 0,70 29,50 81,61 122,24 z" inkscape:connector-curvature="0" id="path174" />
    <path d="m 1430,11560 0,-50 55,0 55,0 0,50 0,50 -55,0 -55,0 0,-50 z" inkscape:connector-curvature="0" id="path176" />
    <path d="m 3980,11560 0,-50 55,0 55,0 0,50 0,50 -55,0 -55,0 0,-50 z" inkscape:connector-curvature="0" id="path178" />
    <path d="m 900,11330 0,-272 163,4 c 182,4 215,13 255,71 17,26 22,47 22,96 0,59 -3,66 -32,95 l -33,31 22,21 c 48,48 37,155 -20,196 -30,22 -43,23 -204,26 l -173,3 0,-271 z m 306,155 c 18,-24 18,-46 0,-71 -12,-16 -29,-20 -105,-22 l -91,-4 0,62 0,62 91,-4 c 75,-3 94,-8 105,-23 z m -2,-206 c 31,-25 33,-57 5,-93 -19,-25 -25,-26 -110,-26 l -89,0 0,70 0,70 84,0 c 69,0 88,-4 110,-21 z" inkscape:connector-curvature="0" id="path180" />
    <path d="m 2190,11330 0,-270 55,0 55,0 0,120 0,120 105,0 105,0 0,-120 0,-120 55,0 55,0 0,270 0,270 -55,0 -55,0 0,-100 0,-100 -105,0 -105,0 0,100 0,100 -55,0 -55,0 0,-270 z" inkscape:connector-curvature="0" id="path182" />
    <path d="m 3140,11330 0,-270 50,0 50,0 0,63 c 0,51 4,68 20,82 24,22 23,23 74,-67 l 42,-73 62,-3 c 34,-2 62,1 62,6 0,5 -31,60 -68,123 l -69,115 70,77 69,77 -68,0 -69,0 -60,-71 -60,-71 -3,141 -3,141 -49,0 -50,0 0,-270 z" inkscape:connector-curvature="0" id="path184" />
    <path d="m 1795,11458 c -11,-6 -28,-20 -37,-32 l -18,-21 0,28 c 0,26 -2,27 -50,27 l -50,0 0,-200 0,-200 50,0 50,0 0,109 c 0,153 18,191 91,191 l 39,0 0,55 c 0,53 -1,55 -27,55 -16,0 -37,-6 -48,-12 z" inkscape:connector-curvature="0" id="path186" />
    <path d="m 2791,11452 c -39,-19 -66,-54 -75,-94 -6,-28 -6,-28 48,-28 45,0 54,3 59,20 12,45 95,50 121,7 15,-25 -12,-44 -77,-52 -115,-14 -156,-44 -164,-118 -6,-55 16,-101 59,-123 41,-21 119,-14 158,14 28,21 29,21 35,2 5,-17 15,-20 66,-20 32,0 59,2 59,4 0,2 -7,17 -15,32 -11,22 -15,64 -15,165 0,122 -2,139 -20,162 -37,47 -172,64 -239,29 z m 159,-227 c 0,-55 -39,-95 -93,-95 -45,0 -64,52 -29,83 14,12 68,29 115,36 4,1 7,-10 7,-24 z" inkscape:connector-curvature="0" id="path188" />
    <path d="m 3613,11445 c -58,-35 -83,-90 -83,-185 0,-100 23,-148 89,-184 88,-47 187,-32 249,38 47,54 43,66 -21,66 -41,0 -58,-5 -72,-20 -40,-44 -120,-16 -140,48 l -6,22 140,0 c 160,0 149,-7 131,90 -12,63 -50,117 -96,136 -55,23 -142,18 -191,-11 z m 136,-70 c 28,-14 41,-33 41,-61 0,-11 -17,-14 -75,-14 -86,0 -95,11 -46,61 34,33 41,35 80,14 z" inkscape:connector-curvature="0" id="path190" />
    <path d="m 4311,11444 c -30,-25 -31,-25 -31,-5 0,19 -6,21 -50,21 l -50,0 0,-200 0,-200 50,0 50,0 0,131 c 0,159 11,189 72,189 49,0 58,-28 58,-182 l 0,-138 55,0 55,0 0,140 c 0,127 2,142 20,160 25,25 62,26 83,2 14,-15 17,-42 17,-160 l 0,-142 55,0 55,0 0,155 c 0,175 -9,214 -59,239 -42,22 -109,20 -148,-4 -18,-11 -33,-25 -33,-32 0,-7 -8,-3 -18,8 -42,52 -130,61 -181,18 z" inkscape:connector-curvature="0" id="path192" />
    <path d="m 1430,11260 0,-200 55,0 55,0 0,200 0,200 -55,0 -55,0 0,-200 z" inkscape:connector-curvature="0" id="path194" />
    <path d="m 3980,11260 0,-200 55,0 55,0 0,200 0,200 -55,0 -55,0 0,-200 z" inkscape:connector-curvature="0" id="path196" />
    <path d="m 1900,11270 0,-50 105,0 105,0 0,50 0,50 -105,0 -105,0 0,-50 z" inkscape:connector-curvature="0" id="path198" />
    <path d="m 26565,10361 c -74,-18 -140,-76 -171,-149 -25,-59 -29,-168 -10,-236 21,-71 79,-138 141,-162 69,-26 163,-16 219,23 l 44,31 6,-29 c 5,-25 10,-29 41,-29 l 35,0 0,145 0,145 -110,0 -110,0 0,-45 0,-45 61,0 c 58,0 60,-1 54,-22 -29,-94 -159,-122 -227,-51 -37,38 -48,74 -48,146 1,124 59,192 157,184 56,-4 89,-24 104,-64 7,-20 16,-23 64,-23 61,0 65,6 41,63 -38,92 -173,146 -291,118 z" inkscape:connector-curvature="0" id="path200" />
    <path d="m 24100,10080 0,-272 163,4 c 182,4 215,13 255,71 17,26 22,47 22,96 0,59 -3,66 -32,95 l -33,31 22,21 c 48,48 37,155 -20,196 -30,22 -43,23 -204,26 l -173,3 0,-271 z m 306,155 c 18,-24 18,-46 0,-71 -12,-16 -29,-20 -105,-22 l -91,-4 0,62 0,62 91,-4 c 75,-3 94,-8 105,-23 z m -2,-206 c 31,-25 33,-57 5,-93 -19,-25 -25,-26 -110,-26 l -89,0 0,70 0,70 84,0 c 69,0 88,-4 110,-21 z" inkscape:connector-curvature="0" id="path202" />
    <path d="m 24900,10265 c 0,-47 -3,-85 -7,-85 -3,0 -15,8 -25,17 -11,10 -41,18 -76,21 -47,3 -63,0 -91,-20 -51,-34 -70,-66 -83,-135 -20,-110 17,-209 93,-248 44,-23 110,-19 153,10 34,23 36,23 36,5 0,-17 7,-20 50,-20 l 50,0 0,270 0,270 -50,0 -50,0 0,-85 z m -57,-147 c 12,-6 27,-18 34,-27 19,-26 26,-96 13,-135 -31,-96 -146,-83 -165,18 -20,104 45,183 118,144 z" inkscape:connector-curvature="0" id="path204" />
    <path d="m 25560,10265 c 0,-47 -3,-85 -7,-85 -3,0 -15,8 -25,17 -11,10 -41,18 -76,21 -47,3 -63,0 -91,-20 -51,-34 -70,-66 -83,-135 -20,-110 17,-209 93,-248 44,-23 110,-19 153,10 34,23 36,23 36,5 0,-17 7,-20 50,-20 l 50,0 0,270 0,270 -50,0 -50,0 0,-85 z m -57,-147 c 12,-6 27,-18 34,-27 19,-26 26,-96 13,-135 -31,-96 -146,-83 -165,18 -20,104 45,183 118,144 z" inkscape:connector-curvature="0" id="path206" />
    <path d="m 28560,10080 0,-270 55,0 55,0 0,270 0,270 -55,0 -55,0 0,-270 z" inkscape:connector-curvature="0" id="path208" />
    <path d="m 28760,10080 0,-270 55,0 55,0 0,270 0,270 -55,0 -55,0 0,-270 z" inkscape:connector-curvature="0" id="path210" />
    <path d="m 25813,10195 c -58,-35 -83,-90 -83,-185 0,-100 23,-148 89,-184 88,-47 187,-32 249,38 47,54 43,66 -21,66 -41,0 -58,-5 -72,-20 -40,-44 -120,-16 -140,48 l -6,22 140,0 c 160,0 149,-7 131,90 -12,63 -50,117 -96,136 -55,23 -142,18 -191,-11 z m 136,-70 c 28,-14 41,-33 41,-61 0,-11 -17,-14 -75,-14 -86,0 -95,11 -46,61 34,33 41,35 80,14 z" inkscape:connector-curvature="0" id="path212" />
    <path d="m 27125,10208 c -11,-6 -28,-20 -37,-32 l -18,-21 0,28 c 0,26 -2,27 -50,27 l -50,0 0,-200 0,-200 50,0 50,0 0,109 c 0,153 18,191 91,191 l 39,0 0,55 c 0,53 -1,55 -27,55 -16,0 -37,-6 -48,-12 z" inkscape:connector-curvature="0" id="path214" />
    <path d="m 27313,10195 c -58,-35 -83,-90 -83,-185 0,-100 23,-148 89,-184 88,-47 187,-32 249,38 47,54 43,66 -21,66 -41,0 -58,-5 -72,-20 -40,-44 -120,-16 -140,48 l -6,22 140,0 c 160,0 149,-7 131,90 -12,63 -50,117 -96,136 -55,23 -142,18 -191,-11 z m 136,-70 c 28,-14 41,-33 41,-61 0,-11 -17,-14 -75,-14 -86,0 -95,11 -46,61 34,33 41,35 80,14 z" inkscape:connector-curvature="0" id="path216" />
    <path d="m 27816,10195 c -34,-23 -36,-23 -36,-5 0,17 -7,20 -50,20 l -50,0 0,-200 0,-200 50,0 50,0 0,109 c 0,128 6,163 32,190 24,27 79,28 101,3 14,-15 17,-42 17,-160 l 0,-142 55,0 55,0 0,160 c 0,178 -8,208 -60,235 -46,24 -121,19 -164,-10 z" inkscape:connector-curvature="0" id="path218" />
    <path d="m 28193,10195 c -58,-35 -83,-90 -83,-185 0,-100 23,-148 89,-184 88,-47 187,-32 249,38 47,54 43,66 -21,66 -41,0 -58,-5 -72,-20 -40,-44 -120,-16 -140,48 l -6,22 140,0 c 160,0 149,-7 131,90 -12,63 -50,117 -96,136 -55,23 -142,18 -191,-11 z m 136,-70 c 28,-14 41,-33 41,-61 0,-11 -17,-14 -75,-14 -86,0 -95,11 -46,61 34,33 41,35 80,14 z" inkscape:connector-curvature="0" id="path220" />
    <path d="m 29023,10195 c -58,-35 -83,-90 -83,-185 0,-100 23,-148 89,-184 88,-47 187,-32 249,38 47,54 43,66 -21,66 -41,0 -58,-5 -72,-20 -40,-44 -120,-16 -140,48 l -6,22 140,0 c 160,0 149,-7 131,90 -12,63 -50,117 -96,136 -55,23 -142,18 -191,-11 z m 136,-70 c 28,-14 41,-33 41,-61 0,-11 -17,-14 -75,-14 -86,0 -95,11 -46,61 34,33 41,35 80,14 z" inkscape:connector-curvature="0" id="path222" />
    <path d="m 980,9775 0,-125 1860,0 1860,0 0,-3470 0,-3470 125,0 125,0 0,3408 c 0,1874 3,3491 7,3595 l 6,187 -1991,0 -1992,0 0,-125 z" inkscape:connector-curvature="0" id="path224" />
    <path d="m 8043,9223 -23,-4 0,-3255 0,-3254 125,0 125,0 0,3135 0,3135 4230,0 4230,0 0,-3135 0,-3135 125,0 124,0 3,3253 c 2,1788 2,3255 0,3260 -3,7 -8899,8 -8939,0 z" inkscape:connector-curvature="0" id="path226" />
    <path d="m 20150,5970 0,-3260 125,0 125,0 0,3135 0,3135 6370,0 6370,0 0,125 0,125 -6495,0 -6495,0 0,-3260 z" inkscape:connector-curvature="0" id="path228" />
    <path d="m 13428,8524 c -5,-4 -8,-101 -8,-216 l 0,-208 50,0 50,0 0,80 0,80 58,0 c 31,0 63,-4 71,-9 9,-6 16,-35 20,-78 l 6,-68 54,-3 c 48,-3 53,-1 46,15 -5,10 -11,48 -14,85 -4,42 -12,74 -22,84 -15,14 -15,18 7,39 46,46 26,156 -33,185 -31,15 -273,27 -285,14 z m 216,-84 c 34,-12 44,-54 21,-80 -14,-16 -31,-20 -82,-20 l -63,0 0,55 0,55 49,0 c 27,0 61,-4 75,-10 z" inkscape:connector-curvature="0" id="path230" />
    <path d="m 20717,8523 c -4,-3 -7,-100 -7,-215 l 0,-208 50,0 50,0 0,74 0,73 78,5 c 121,7 159,45 150,153 -5,65 -32,100 -87,115 -40,11 -224,14 -234,3 z m 219,-98 c 36,-49 -1,-95 -76,-95 l -50,0 0,61 0,61 56,-4 c 40,-3 61,-10 70,-23 z" inkscape:connector-curvature="0" id="path232" />
    <path d="m 23180,8490 0,-40 43,0 43,0 -4,40 c -4,39 -5,40 -43,40 -39,0 -39,0 -39,-40 z" inkscape:connector-curvature="0" id="path234" />
    <path d="m 21100,8310 0,-210 40,0 40,0 0,99 c 0,84 3,102 21,125 22,27 57,34 77,14 8,-8 12,-50 12,-125 l 0,-113 45,0 45,0 0,131 0,131 -29,29 c -25,24 -38,29 -78,29 -28,0 -58,-7 -71,-16 l -22,-15 0,65 0,66 -40,0 -40,0 0,-210 z" inkscape:connector-curvature="0" id="path236" />
    <path d="m 14498,8458 c -2,-36 -7,-44 -25,-46 -18,-3 -23,-10 -23,-33 0,-24 4,-29 25,-29 l 25,0 0,-114 c 0,-137 3,-141 105,-137 26,1 30,5 30,31 0,20 -5,30 -16,30 -30,0 -39,23 -39,107 0,81 1,83 24,83 19,0 25,6 28,30 4,25 1,29 -21,32 -23,3 -26,8 -27,43 0,40 -1,40 -41,43 l -42,3 -3,-43 z" inkscape:connector-curvature="0" id="path238" />
    <path d="m 16278,8458 c -2,-36 -7,-44 -25,-46 -18,-3 -23,-10 -23,-33 0,-24 4,-29 25,-29 l 25,0 0,-114 c 0,-137 3,-141 105,-137 26,1 30,5 30,31 0,20 -5,30 -15,30 -31,0 -40,23 -40,107 0,81 1,83 24,83 19,0 25,6 28,30 4,25 1,29 -21,32 -23,3 -26,8 -27,43 0,40 -1,40 -41,43 l -42,3 -3,-43 z" inkscape:connector-curvature="0" id="path240" />
    <path d="m 13925,8421 c -49,-12 -82,-39 -99,-82 -33,-82 -13,-179 46,-222 36,-27 114,-33 161,-14 32,14 77,66 77,90 0,16 -83,6 -107,-13 -32,-25 -44,-25 -77,1 -51,40 -36,49 79,49 l 105,0 0,43 c 0,100 -89,171 -185,148 z m 75,-91 c 32,-32 24,-40 -40,-40 -33,0 -60,4 -60,10 0,17 39,50 60,50 11,0 29,-9 40,-20 z" inkscape:connector-curvature="0" id="path242" />
    <path d="m 14223,8419 c -46,-14 -73,-53 -73,-105 0,-51 17,-67 100,-91 80,-23 94,-31 79,-49 -20,-24 -76,-18 -95,11 -13,20 -25,25 -55,25 -36,0 -39,-2 -39,-28 0,-55 56,-92 141,-92 72,0 117,22 135,65 30,72 -7,120 -113,145 -63,14 -84,34 -54,49 29,16 46,14 66,-9 13,-14 31,-20 62,-20 23,0 43,3 43,6 0,22 -35,73 -57,83 -37,17 -103,22 -140,10 z" inkscape:connector-curvature="0" id="path244" />
    <path d="m 23425,8421 c -49,-12 -82,-39 -99,-82 -33,-82 -13,-179 46,-222 36,-27 114,-33 161,-14 32,14 77,66 77,90 0,16 -83,6 -107,-13 -32,-25 -44,-25 -77,1 -51,40 -36,49 79,49 l 105,0 0,43 c 0,100 -89,171 -185,148 z m 75,-91 c 32,-32 24,-40 -40,-40 -33,0 -60,4 -60,10 0,17 39,50 60,50 11,0 29,-9 40,-20 z" inkscape:connector-curvature="0" id="path246" />
    <path d="m 14701,8393 c -16,-16 -32,-40 -35,-55 -6,-27 -5,-28 36,-28 32,0 46,5 56,20 14,23 64,27 81,6 17,-20 -3,-32 -74,-45 -80,-15 -110,-44 -110,-107 0,-38 5,-50 29,-71 25,-21 37,-24 78,-21 27,3 57,13 68,23 18,16 20,16 20,2 0,-14 10,-17 51,-17 45,0 50,2 43,18 -5,9 -10,64 -11,122 -2,58 -6,115 -8,127 -8,34 -55,53 -129,53 -58,0 -69,-3 -95,-27 z m 143,-180 c -8,-35 -30,-53 -65,-53 -51,0 -48,54 5,69 57,17 67,14 60,-16 z" inkscape:connector-curvature="0" id="path248" />
    <path d="m 15004,8405 c -4,-8 -5,-69 -3,-134 4,-110 6,-121 28,-145 32,-34 82,-43 132,-23 21,8 39,11 39,6 0,-5 20,-9 45,-9 l 45,0 0,161 0,160 -42,-3 -43,-3 -5,-106 c -6,-117 -15,-139 -61,-139 -41,0 -49,24 -49,144 l 0,106 -40,0 c -27,0 -43,-5 -46,-15 z" inkscape:connector-curvature="0" id="path250" />
    <path d="m 15357,8413 c -4,-3 -7,-75 -7,-160 l 0,-153 45,0 45,0 0,88 c 0,109 12,136 63,140 37,3 37,4 37,48 0,42 -1,44 -30,44 -17,0 -39,-9 -50,-20 l -20,-20 0,20 c 0,17 -7,20 -38,20 -21,0 -42,-3 -45,-7 z" inkscape:connector-curvature="0" id="path252" />
    <path d="m 15611,8393 c -16,-16 -32,-40 -35,-55 -6,-27 -5,-28 36,-28 32,0 46,5 56,20 14,23 64,27 81,6 17,-20 -3,-32 -74,-45 -80,-15 -110,-44 -110,-107 0,-38 5,-50 29,-71 25,-21 37,-24 78,-21 27,3 57,13 68,23 18,16 20,16 20,2 0,-14 10,-17 51,-17 45,0 50,2 43,18 -5,9 -10,64 -11,122 -2,58 -6,115 -8,127 -8,34 -55,53 -129,53 -58,0 -69,-3 -95,-27 z m 143,-180 c -8,-35 -30,-53 -65,-53 -51,0 -48,54 5,69 57,17 67,14 60,-16 z" inkscape:connector-curvature="0" id="path254" />
    <path d="m 15910,8260 0,-160 40,0 40,0 0,89 c 0,107 13,149 48,158 50,12 57,-3 60,-131 l 3,-116 44,0 45,0 0,129 c 0,71 -3,137 -6,146 -16,41 -127,61 -171,30 -19,-13 -22,-13 -27,0 -3,9 -19,15 -41,15 l -35,0 0,-160 z" inkscape:connector-curvature="0" id="path256" />
    <path d="m 21481,8393 c -16,-16 -32,-40 -35,-55 -6,-27 -5,-28 36,-28 32,0 46,5 56,20 14,23 64,27 81,6 17,-20 -3,-32 -74,-45 -80,-15 -110,-44 -110,-107 0,-38 5,-50 29,-71 25,-21 37,-24 78,-21 27,3 57,13 68,23 18,16 20,16 20,2 0,-14 10,-17 51,-17 45,0 50,2 43,18 -5,9 -10,64 -11,122 -2,58 -6,115 -8,127 -8,34 -55,53 -129,53 -58,0 -69,-3 -95,-27 z m 143,-180 c -8,-35 -30,-53 -65,-53 -51,0 -48,54 5,69 57,17 67,14 60,-16 z" inkscape:connector-curvature="0" id="path258" />
    <path d="m 21777,8413 c -4,-3 -7,-75 -7,-160 l 0,-153 45,0 45,0 0,88 c 0,109 12,136 63,140 37,3 37,4 37,48 0,42 -1,44 -30,44 -17,0 -39,-9 -50,-20 l -20,-20 0,20 c 0,17 -7,20 -38,20 -21,0 -42,-3 -45,-7 z" inkscape:connector-curvature="0" id="path260" />
    <path d="m 22007,8413 c -4,-3 -7,-75 -7,-160 l 0,-153 45,0 45,0 0,99 c 0,55 3,107 6,115 10,26 41,38 64,26 18,-10 20,-21 20,-125 l 0,-115 45,0 45,0 0,94 c 0,107 9,141 41,151 42,14 54,-15 57,-135 l 4,-110 39,0 39,0 0,135 c 0,131 -1,137 -25,160 -17,18 -35,25 -64,25 -43,0 -91,-17 -91,-32 0,-5 -12,0 -26,11 -32,25 -99,28 -131,6 -19,-13 -22,-13 -27,0 -5,15 -66,21 -79,8 z" inkscape:connector-curvature="0" id="path262" />
    <path d="m 22551,8393 c -16,-16 -32,-40 -35,-55 -6,-27 -5,-28 36,-28 32,0 46,5 56,20 14,23 64,27 81,6 17,-20 -3,-32 -74,-45 -80,-15 -110,-44 -110,-107 0,-38 5,-50 29,-71 25,-21 37,-24 78,-21 27,3 57,13 68,23 18,16 20,16 20,2 0,-14 10,-17 51,-17 45,0 50,2 43,18 -5,9 -10,64 -11,122 -2,58 -6,115 -8,127 -8,34 -55,53 -129,53 -58,0 -69,-3 -95,-27 z m 143,-180 c -8,-35 -30,-53 -65,-53 -51,0 -48,54 5,69 57,17 67,14 60,-16 z" inkscape:connector-curvature="0" id="path264" />
    <path d="m 22892,8400 c -42,-26 -62,-73 -62,-145 0,-109 49,-165 145,-165 62,0 106,25 128,73 25,51 22,57 -27,57 -36,0 -46,-4 -51,-20 -9,-29 -40,-43 -65,-30 -27,14 -40,42 -40,84 0,82 53,122 96,73 18,-21 32,-27 64,-27 29,0 40,4 40,15 0,29 -30,75 -60,90 -42,22 -128,19 -168,-5 z" inkscape:connector-curvature="0" id="path266" />
    <path d="m 23180,8260 0,-160 40,0 40,0 0,160 0,160 -40,0 -40,0 0,-160 z" inkscape:connector-curvature="0" id="path268" />
    <path d="m 2010,6848 c -62,-32 -90,-77 -90,-145 0,-99 30,-128 168,-164 119,-30 141,-39 147,-60 17,-51 -21,-82 -102,-82 -57,0 -88,18 -104,61 -7,19 -16,22 -64,22 -53,0 -55,-1 -55,-26 0,-48 40,-102 94,-129 64,-32 188,-35 251,-6 96,43 132,153 79,238 -20,32 -74,57 -182,83 -51,12 -100,29 -108,37 -18,19 -18,48 2,67 47,48 174,22 174,-36 0,-15 8,-18 61,-18 l 62,0 -6,36 c -8,50 -48,97 -101,123 -64,30 -166,29 -226,-1 z" inkscape:connector-curvature="0" id="path270" />
    <path d="m 2850,6810 0,-50 55,0 55,0 0,50 0,50 -55,0 -55,0 0,-50 z" inkscape:connector-curvature="0" id="path272" />
    <path d="m 2531,6720 c -47,-11 -82,-40 -110,-90 -20,-36 -25,-58 -25,-119 1,-97 21,-143 83,-182 37,-24 56,-29 109,-29 76,0 123,19 158,65 39,51 33,65 -27,65 -36,0 -58,-6 -76,-20 -14,-11 -39,-20 -55,-20 -34,0 -78,39 -78,70 0,19 6,20 135,20 l 135,0 0,38 c 0,97 -56,181 -135,201 -49,12 -65,12 -114,1 z m 106,-112 c 41,-38 31,-48 -52,-48 -41,0 -75,4 -75,9 0,4 9,20 21,35 26,33 73,35 106,4 z" inkscape:connector-curvature="0" id="path274" />
    <path d="m 3224,6719 c -17,-5 -37,-16 -44,-24 -16,-19 -34,-19 -26,0 4,12 -5,15 -49,15 l -55,0 0,-200 0,-200 55,0 55,0 0,135 c 0,131 1,137 25,160 31,32 78,33 99,3 13,-18 16,-52 16,-160 l 0,-138 55,0 55,0 0,169 c 0,166 -1,170 -25,199 -15,18 -41,34 -69,41 -51,12 -50,12 -92,0 z" inkscape:connector-curvature="0" id="path276" />
    <path d="m 3611,6720 c -47,-11 -82,-40 -110,-90 -20,-36 -25,-58 -25,-119 1,-97 21,-143 83,-182 37,-24 56,-29 109,-29 76,0 123,19 158,65 39,51 33,65 -27,65 -36,0 -58,-6 -76,-20 -14,-11 -39,-20 -55,-20 -34,0 -78,39 -78,70 0,19 6,20 135,20 l 135,0 0,38 c 0,97 -56,181 -135,201 -49,12 -65,12 -114,1 z m 106,-112 c 41,-38 31,-48 -52,-48 -41,0 -75,4 -75,9 0,4 9,20 21,35 26,33 73,35 106,4 z" inkscape:connector-curvature="0" id="path278" />
    <path d="m 2850,6516 0,-206 55,0 55,0 -2,203 -3,202 -52,3 -53,3 0,-205 z" inkscape:connector-curvature="0" id="path280" />
    <path d="m 3588,2318 c -47,-13 -113,-70 -140,-122 -27,-52 -37,-194 -18,-262 31,-109 121,-174 242,-174 39,0 85,7 105,15 36,15 37,15 68,-15 l 31,-30 32,33 32,33 -29,28 -29,28 25,55 c 23,50 25,64 21,156 -5,114 -15,142 -74,200 -62,60 -166,82 -266,55 z m 177,-118 c 39,-36 58,-99 53,-175 -5,-82 -18,-98 -53,-65 l -26,24 -32,-33 -32,-32 30,-24 c 36,-29 29,-38 -30,-38 -53,0 -90,23 -120,74 -16,26 -20,52 -20,114 0,92 17,134 68,166 44,28 127,22 162,-11 z" inkscape:connector-curvature="0" id="path282" />
    <path d="m 6565,2321 c -74,-18 -140,-76 -171,-149 -25,-59 -29,-168 -10,-236 21,-71 79,-138 141,-162 69,-26 163,-16 219,23 l 44,31 6,-29 c 5,-25 10,-29 41,-29 l 35,0 0,145 0,145 -110,0 -110,0 0,-45 0,-45 61,0 c 58,0 60,-1 54,-22 -29,-94 -159,-122 -227,-51 -37,38 -48,74 -48,146 1,124 59,192 157,184 56,-4 89,-24 104,-64 7,-20 16,-23 64,-23 61,0 65,6 41,63 -38,92 -173,146 -291,118 z" inkscape:connector-curvature="0" id="path284" />
    <path d="m 4890,2270 0,-50 55,0 55,0 0,50 0,50 -55,0 -55,0 0,-50 z" inkscape:connector-curvature="0" id="path286" />
    <path d="m 5560,2225 c 0,-47 -3,-85 -7,-85 -3,0 -15,8 -25,17 -11,10 -41,18 -76,21 -47,3 -63,0 -91,-20 -51,-34 -70,-66 -83,-135 -20,-110 17,-209 93,-248 44,-23 110,-19 153,10 34,23 36,23 36,5 0,-17 7,-20 50,-20 l 50,0 0,270 0,270 -50,0 -50,0 0,-85 z m -57,-147 c 12,-6 27,-18 34,-27 19,-26 26,-96 13,-135 -31,-96 -146,-83 -165,18 -20,104 45,183 118,144 z" inkscape:connector-curvature="0" id="path288" />
    <path d="m 8550,2040 0,-270 55,0 55,0 0,270 0,270 -55,0 -55,0 0,-270 z" inkscape:connector-curvature="0" id="path290" />
    <path d="m 8760,2040 0,-270 55,0 55,0 0,270 0,270 -55,0 -55,0 0,-270 z" inkscape:connector-curvature="0" id="path292" />
    <path d="m 16420,2041 0,-271 55,0 55,0 0,105 0,105 83,0 c 102,0 117,-11 117,-86 0,-27 3,-66 6,-86 l 7,-38 64,0 c 58,0 64,2 57,18 -4,9 -11,57 -14,107 -7,79 -11,91 -34,112 l -27,23 32,28 c 27,24 33,37 37,84 5,61 -9,97 -53,138 -26,24 -30,25 -206,28 l -179,3 0,-270 z m 290,166 c 32,-16 47,-58 32,-91 -14,-31 -71,-48 -150,-44 l -57,3 -3,73 -3,72 78,0 c 43,0 89,-6 103,-13 z" inkscape:connector-curvature="0" id="path294" />
    <path d="m 18030,2040 0,-270 55,0 55,0 2,187 3,188 106,-185 107,-185 56,-3 56,-3 0,271 0,270 -50,0 -50,0 -2,-182 -3,-183 -104,183 -103,182 -64,0 -64,0 0,-270 z" inkscape:connector-curvature="0" id="path296" />
    <path d="m 18990,2040 0,-270 55,0 55,0 0,270 0,270 -55,0 -55,0 0,-270 z" inkscape:connector-curvature="0" id="path298" />
    <path d="m 19630,2225 c 0,-52 -1,-55 -25,-55 -22,0 -25,-4 -25,-40 0,-36 3,-40 25,-40 l 25,0 0,-135 c 0,-131 1,-137 25,-160 20,-21 34,-25 85,-25 l 60,0 0,39 c 0,36 -3,40 -27,43 l -28,3 -3,118 -3,117 31,0 c 28,0 30,2 30,40 0,38 -2,40 -30,40 -30,0 -30,1 -30,55 l 0,55 -55,0 -55,0 0,-55 z" inkscape:connector-curvature="0" id="path300" />
    <path d="m 19986,2179 c -90,-22 -140,-97 -140,-209 1,-95 46,-172 117,-199 66,-25 181,-7 231,37 73,65 75,243 3,320 -46,49 -133,71 -211,51 z m 128,-121 c 26,-29 28,-35 24,-96 -4,-56 -8,-68 -32,-88 -34,-30 -88,-32 -115,-5 -39,39 -48,128 -19,184 12,24 67,48 93,41 11,-3 33,-19 49,-36 z" inkscape:connector-curvature="0" id="path302" />
    <path d="m 4531,2162 c -39,-19 -66,-54 -75,-94 -6,-28 -6,-28 48,-28 45,0 54,3 59,20 12,45 95,50 121,7 15,-25 -12,-44 -77,-52 -115,-14 -156,-44 -164,-118 -6,-55 16,-101 59,-123 41,-21 119,-14 158,14 28,21 29,21 35,2 5,-17 15,-20 66,-20 32,0 59,2 59,4 0,2 -7,17 -15,32 -11,22 -15,64 -15,165 0,122 -2,139 -20,162 -37,47 -172,64 -239,29 z m 159,-227 c 0,-55 -39,-95 -93,-95 -45,0 -64,52 -29,83 14,12 68,29 115,36 4,1 7,-10 7,-24 z" inkscape:connector-curvature="0" id="path304" />
    <path d="m 5813,2155 c -58,-35 -83,-90 -83,-185 0,-100 23,-148 89,-184 88,-47 187,-32 249,38 47,54 43,66 -21,66 -41,0 -58,-5 -72,-20 -40,-44 -120,-16 -140,48 l -6,22 140,0 c 160,0 149,-7 131,90 -12,63 -50,117 -96,136 -55,23 -142,18 -191,-11 z m 136,-70 c 28,-14 41,-33 41,-61 0,-11 -17,-14 -75,-14 -86,0 -95,11 -46,61 34,33 41,35 80,14 z" inkscape:connector-curvature="0" id="path306" />
    <path d="m 7125,2168 c -11,-6 -28,-20 -37,-32 l -18,-21 0,28 c 0,26 -2,27 -50,27 l -50,0 0,-200 0,-200 50,0 50,0 0,109 c 0,153 18,191 91,191 l 39,0 0,55 c 0,53 -1,55 -27,55 -16,0 -37,-6 -48,-12 z" inkscape:connector-curvature="0" id="path308" />
    <path d="m 7313,2155 c -58,-35 -83,-90 -83,-185 0,-100 23,-148 89,-184 88,-47 187,-32 249,38 47,54 43,66 -21,66 -41,0 -58,-5 -72,-20 -40,-44 -120,-16 -140,48 l -6,22 140,0 c 160,0 149,-7 131,90 -12,63 -50,117 -96,136 -55,23 -142,18 -191,-11 z m 136,-70 c 28,-14 41,-33 41,-61 0,-11 -17,-14 -75,-14 -86,0 -95,11 -46,61 34,33 41,35 80,14 z" inkscape:connector-curvature="0" id="path310" />
    <path d="m 7816,2155 c -34,-23 -36,-23 -36,-5 0,17 -7,20 -50,20 l -50,0 0,-200 0,-200 50,0 50,0 0,109 c 0,128 6,163 32,190 24,27 79,28 101,3 14,-15 17,-42 17,-160 l 0,-142 55,0 55,0 0,160 c 0,178 -8,208 -60,235 -46,24 -121,19 -164,-10 z" inkscape:connector-curvature="0" id="path312" />
    <path d="m 8193,2155 c -58,-35 -83,-90 -83,-185 0,-100 23,-148 89,-184 88,-47 187,-32 249,38 47,54 43,66 -21,66 -41,0 -58,-5 -72,-20 -40,-44 -120,-16 -140,48 l -6,22 140,0 c 160,0 149,-7 131,90 -12,63 -50,117 -96,136 -55,23 -142,18 -191,-11 z m 136,-70 c 28,-14 41,-33 41,-61 0,-11 -17,-14 -75,-14 -86,0 -95,11 -46,61 34,33 41,35 80,14 z" inkscape:connector-curvature="0" id="path314" />
    <path d="m 9023,2155 c -58,-35 -83,-90 -83,-185 0,-100 23,-148 89,-184 88,-47 187,-32 249,38 47,54 43,66 -21,66 -41,0 -58,-5 -72,-20 -40,-44 -120,-16 -140,48 l -6,22 140,0 c 160,0 149,-7 131,90 -12,63 -50,117 -96,136 -55,23 -142,18 -191,-11 z m 136,-70 c 28,-14 41,-33 41,-61 0,-11 -17,-14 -75,-14 -86,0 -95,11 -46,61 34,33 41,35 80,14 z" inkscape:connector-curvature="0" id="path316" />
    <path d="m 17463,2155 c -58,-35 -83,-90 -83,-185 0,-100 23,-148 89,-184 88,-47 187,-32 249,38 47,54 43,66 -21,66 -41,0 -58,-5 -72,-20 -40,-44 -120,-16 -140,48 l -6,22 140,0 c 160,0 149,-7 131,90 -12,63 -50,117 -96,136 -55,23 -142,18 -191,-11 z m 136,-70 c 28,-14 41,-33 41,-61 0,-11 -17,-14 -75,-14 -86,0 -95,11 -46,61 34,33 41,35 80,14 z" inkscape:connector-curvature="0" id="path318" />
    <path d="m 18623,2155 c -58,-35 -83,-90 -83,-185 0,-100 23,-148 89,-184 88,-47 187,-32 249,38 47,54 43,66 -21,66 -41,0 -58,-5 -72,-20 -40,-44 -120,-16 -140,48 l -6,22 140,0 c 160,0 149,-7 131,90 -12,63 -50,117 -96,136 -55,23 -142,18 -191,-11 z m 136,-70 c 28,-14 41,-33 41,-61 0,-11 -17,-14 -75,-14 -86,0 -95,11 -46,61 34,33 41,35 80,14 z" inkscape:connector-curvature="0" id="path320" />
    <path d="m 19261,2162 c -39,-19 -66,-54 -75,-94 -6,-28 -6,-28 48,-28 45,0 54,3 59,20 12,45 95,50 121,7 15,-25 -12,-44 -77,-52 -115,-14 -156,-44 -164,-118 -6,-55 16,-101 59,-123 41,-21 119,-14 158,14 28,21 29,21 35,2 5,-17 15,-20 66,-20 32,0 59,2 59,4 0,2 -7,17 -15,32 -11,22 -15,64 -15,165 0,122 -2,139 -20,162 -37,47 -172,64 -239,29 z m 159,-227 c 0,-55 -39,-95 -93,-95 -45,0 -64,52 -29,83 14,12 68,29 115,36 4,1 7,-10 7,-24 z" inkscape:connector-curvature="0" id="path322" />
    <path d="m 20466,2155 c -34,-23 -36,-23 -36,-5 0,17 -7,20 -50,20 l -50,0 0,-200 0,-200 50,0 50,0 0,109 c 0,128 6,163 32,190 24,27 79,28 101,3 14,-15 17,-42 17,-160 l 0,-142 55,0 55,0 0,160 c 0,178 -8,208 -60,235 -46,24 -121,19 -164,-10 z" inkscape:connector-curvature="0" id="path324" />
    <path d="m 4010,2009 c 0,-146 2,-165 21,-195 35,-58 144,-69 204,-22 l 25,19 0,-20 c 0,-19 6,-21 55,-21 l 55,0 0,200 0,200 -55,0 -55,0 0,-125 c 0,-134 -8,-166 -47,-184 -36,-16 -58,-14 -79,10 -16,18 -19,40 -22,160 l -4,139 -49,0 -49,0 0,-161 z" inkscape:connector-curvature="0" id="path326" />
    <path d="m 4890,1970 0,-200 55,0 55,0 0,200 0,200 -55,0 -55,0 0,-200 z" inkscape:connector-curvature="0" id="path328" />
    <path d="m 16950,2009 c 0,-146 2,-165 21,-195 35,-58 144,-69 204,-22 l 25,19 0,-20 c 0,-19 6,-21 55,-21 l 55,0 0,200 0,200 -55,0 -55,0 0,-125 c 0,-134 -8,-166 -47,-184 -36,-16 -58,-14 -79,10 -16,18 -19,40 -22,160 l -4,139 -49,0 -49,0 0,-161 z" inkscape:connector-curvature="0" id="path330" />
  </g>
</svg>
