<?xml version="1.0" standalone="no"?>
<!DOCTYPE svg PUBLIC "-//W3C//DTD SVG 20010904//EN"
 "http://www.w3.org/TR/2001/REC-SVG-20010904/DTD/svg10.dtd">
<svg version="1.0" xmlns="http://www.w3.org/2000/svg"
 width="3508.000000pt" height="2480.000000pt" viewBox="0 0 3508.000000 2480.000000"
 preserveAspectRatio="xMidYMid meet">
<metadata>
Created by potrace 1.11, written by Peter Selinger 2001-2013
</metadata>
<g transform="translate(0.000000,2480.000000) scale(0.100000,-0.100000)"
fill="#000000" stroke="none">
<path d="M1563 23612 c-18 -2 -33 -5 -33 -7 0 -2 -7 -39 -15 -82 -19 -99 -20
-95 12 -91 26 3 28 7 42 86 l14 82 42 0 c56 0 74 -20 51 -55 -13 -20 -25 -25
-58 -25 l-41 0 39 -44 c31 -35 46 -44 73 -45 l35 -1 -32 33 c-18 18 -32 36
-32 39 0 3 12 9 28 13 52 13 81 61 50 82 -16 9 -130 19 -175 15z"/>
<path d="M2830 22736 c0 -794 2 -884 16 -890 8 -3 1683 -5 3722 -3 l3707 2 3
888 2 887 -3725 0 -3725 0 0 -884z m1820 249 l-61 -75 -51 0 -50 0 38 68 c20
37 39 70 41 75 2 4 36 7 74 7 l70 0 -61 -75z m3985 50 c14 -13 25 -36 25 -50
0 -36 -42 -75 -80 -75 -38 0 -80 39 -80 75 0 36 42 75 80 75 19 0 40 -9 55
-25z m-1824 -5 c29 -6 57 -14 62 -19 11 -11 -20 -124 -33 -116 -4 3 -32 10
-62 15 -147 28 -267 -64 -268 -205 0 -146 77 -225 219 -225 38 0 81 4 94 9 29
11 32 7 42 -63 7 -43 6 -46 -20 -56 -89 -34 -256 -19 -343 31 -210 120 -197
478 22 591 84 44 186 57 287 38z m-3033 -182 c29 -101 55 -202 58 -226 4 -23
10 -44 14 -47 3 -2 15 31 25 73 10 42 39 145 65 227 l48 150 101 3 101 3 0
-38 c0 -21 7 -150 15 -288 8 -137 15 -271 15 -297 l0 -48 -69 0 -69 0 -6 63
c-3 34 -9 151 -13 260 l-8 199 -38 -129 c-21 -70 -56 -185 -78 -255 l-40 -128
-59 0 -59 0 -11 43 c-7 23 -27 96 -45 162 -19 66 -43 160 -54 208 -10 49 -21
90 -24 93 -2 2 -7 -80 -11 -183 -3 -104 -9 -221 -13 -260 l-6 -73 -69 0 -70 0
6 48 c3 26 13 176 23 335 l17 287 101 0 102 0 51 -182z m1252 57 l0 -65 55 0
55 0 0 -55 0 -55 -55 0 -55 0 0 -110 c0 -98 2 -112 21 -131 15 -15 30 -20 50
-17 l29 5 0 -58 0 -58 -36 -7 c-47 -9 -118 2 -150 22 -48 32 -58 67 -62 217
l-4 137 -29 0 c-28 0 -29 1 -29 55 0 54 0 55 30 55 29 0 30 2 30 45 l0 44 58
16 c31 9 62 18 67 20 23 8 25 2 25 -60z m-372 -79 c64 -33 101 -100 109 -197
l6 -69 -162 0 c-179 0 -188 -4 -133 -60 35 -35 102 -47 181 -32 31 5 59 7 63
3 4 -3 8 -26 10 -51 l3 -44 -50 -12 c-117 -28 -236 -9 -302 49 -52 46 -73 98
-73 183 0 59 5 81 28 125 30 58 87 105 143 120 45 11 143 3 177 -15z m872 -45
l0 -68 -47 -6 c-37 -4 -54 -12 -75 -36 -28 -31 -28 -32 -28 -171 l0 -140 -75
0 -75 0 0 240 0 240 65 0 65 0 0 -47 0 -48 26 39 c28 40 71 65 117 66 27 0 27
0 27 -69z m425 41 c86 -44 128 -117 128 -223 0 -180 -158 -288 -341 -234 -106
32 -166 117 -165 236 0 115 61 201 163 234 61 20 164 14 215 -13z m1333 4 c64
-33 101 -100 109 -197 l6 -69 -162 0 c-179 0 -188 -4 -133 -60 35 -35 102 -47
181 -32 31 5 59 7 63 3 4 -3 8 -26 10 -51 l3 -44 -50 -12 c-117 -28 -236 -9
-302 49 -52 46 -73 98 -73 183 0 59 5 81 28 125 30 58 87 105 143 120 45 11
143 3 177 -15z m558 3 c33 -15 49 -32 68 -72 25 -49 26 -58 26 -224 l0 -173
-74 0 -75 0 -3 166 c-3 160 -4 166 -27 185 -33 27 -68 24 -102 -10 l-29 -29 0
-156 0 -156 -75 0 -75 0 0 240 0 240 65 0 65 0 0 -37 0 -37 28 27 c60 57 137
71 208 36z m516 2 c26 -10 26 -10 14 -58 -7 -26 -14 -47 -17 -47 -109 29 -163
22 -157 -18 3 -23 9 -26 110 -73 64 -29 89 -61 95 -119 12 -120 -142 -198
-300 -152 -62 18 -65 23 -47 88 l11 37 41 -15 c60 -21 135 -19 147 4 11 21
-11 62 -33 62 -31 0 -137 63 -151 90 -43 84 4 178 105 209 39 12 142 7 182 -8z
m746 -5 c64 -33 101 -100 109 -197 l6 -69 -162 0 c-179 0 -188 -4 -133 -60 35
-35 102 -47 181 -32 31 5 59 7 63 3 4 -3 8 -26 10 -51 l3 -44 -50 -12 c-117
-28 -236 -9 -302 49 -52 46 -73 98 -73 183 0 59 5 81 28 125 30 58 87 105 143
120 45 11 143 3 177 -15z m502 -45 l0 -68 -47 -6 c-37 -4 -54 -12 -75 -36 -28
-31 -28 -32 -28 -171 l0 -140 -75 0 -75 0 0 240 0 240 65 0 65 0 0 -47 0 -48
26 39 c28 40 71 65 117 66 27 0 27 0 27 -69z m-960 -181 l0 -240 -75 0 -75 0
0 240 0 240 75 0 75 0 0 -240z"/>
<path d="M4479 22721 c-51 -52 -42 -61 62 -61 l91 0 -6 28 c-16 66 -96 84
-147 33z"/>
<path d="M5777 22720 c-73 -58 -56 -225 27 -254 104 -38 172 146 90 244 -31
36 -78 40 -117 10z"/>
<path d="M7109 22721 c-51 -52 -42 -61 62 -61 l91 0 -6 28 c-16 66 -96 84
-147 33z"/>
<path d="M8929 22721 c-51 -52 -42 -61 62 -61 l91 0 -6 28 c-16 66 -96 84
-147 33z"/>
<path d="M31915 23610 c-175 -38 -326 -152 -408 -307 -46 -87 -67 -175 -67
-278 0 -164 54 -291 174 -411 123 -122 246 -174 416 -174 170 0 292 52 415
175 185 186 228 436 114 672 -95 200 -281 321 -504 329 -55 2 -118 -1 -140 -6z
m216 -240 c29 -6 69 -19 89 -29 101 -52 107 -188 9 -245 l-32 -19 35 -18 c148
-76 118 -285 -46 -334 -66 -20 -204 -30 -289 -21 l-67 8 0 328 0 329 53 4
c112 8 197 7 248 -3z"/>
<path d="M31980 23196 l0 -76 44 0 c84 0 126 28 126 83 0 40 -34 61 -106 65
l-64 4 0 -76z"/>
<path d="M31980 22910 l0 -100 45 0 c86 0 145 42 145 103 0 63 -49 97 -140 97
l-50 0 0 -100z"/>
<path d="M1849 23522 c-75 -85 -97 -123 -41 -69 24 23 37 27 85 27 52 0 59 -3
69 -25 8 -18 19 -25 40 -25 15 0 28 3 28 6 0 12 -92 174 -98 174 -4 -1 -41
-40 -83 -88z m76 -2 l16 -30 -46 0 -46 0 21 30 c12 17 25 30 30 30 5 0 16 -13
25 -30z"/>
<path d="M2088 23603 c63 -5 61 2 27 -150 -5 -20 -1 -23 24 -23 24 0 30 5 35
28 3 15 10 53 16 84 l11 57 52 4 c29 2 -9 3 -83 3 -74 0 -111 -1 -82 -3z"/>
<path d="M2356 23598 c-8 -25 -26 -132 -26 -150 0 -12 7 -18 24 -18 20 0 25 6
31 40 l7 40 67 0 c44 0 74 5 89 16 24 17 29 53 10 72 -17 17 -197 17 -202 0z
m152 -24 c5 -32 -24 -54 -69 -54 -41 0 -46 8 -33 58 6 20 12 23 53 20 38 -2
47 -7 49 -24z"/>
<path d="M1850 23314 c-95 -25 -197 -82 -268 -148 l-66 -63 55 -26 c30 -14 66
-34 81 -44 27 -17 28 -17 55 9 152 141 384 158 560 41 158 -105 235 -304 188
-488 -27 -104 -63 -165 -146 -246 l-78 -77 -16 -83 c-8 -45 -14 -83 -12 -85 7
-7 126 49 175 82 71 50 162 150 201 223 69 131 89 306 51 455 -29 116 -73 190
-165 281 -89 90 -182 143 -295 169 -81 20 -247 19 -320 0z"/>
<path d="M33202 23228 c-5 -7 -46 -73 -91 -147 -69 -113 -81 -140 -81 -177 l0
-44 105 0 105 0 0 -55 0 -55 55 0 55 0 0 55 c0 54 0 55 30 55 29 0 30 2 30 45
0 43 -1 45 -30 45 l-30 0 0 145 0 145 -69 0 c-43 0 -72 -5 -79 -12z m38 -188
l0 -90 -51 0 c-28 0 -49 3 -47 8 8 19 93 172 96 172 1 0 2 -40 2 -90z"/>
<path d="M33462 23193 l3 -48 108 -3 c59 -1 107 -5 107 -9 0 -3 -43 -88 -95
-189 -52 -100 -95 -185 -95 -188 0 -3 27 -6 60 -6 l60 0 100 206 c74 152 100
217 100 245 l0 39 -176 0 -175 0 3 -47z"/>
<path d="M1228 23044 c-47 -14 -48 -16 -48 -55 0 -34 3 -39 18 -35 146 44 268
31 367 -39 130 -92 154 -106 196 -113 24 -4 72 -4 107 1 35 5 65 7 67 5 3 -2
8 -28 12 -58 7 -49 10 -54 43 -65 27 -9 36 -18 40 -41 5 -24 10 -29 35 -29 27
0 30 -4 33 -33 3 -26 10 -35 39 -47 40 -17 41 -8 -11 -142 -65 -168 -95 -399
-65 -505 9 -36 12 -38 49 -38 l39 0 -10 32 c-14 51 -11 221 7 306 14 69 69
242 105 330 18 43 5 63 -51 76 -45 11 -47 13 -66 85 -3 9 -12 11 -28 7 -21 -5
-25 -2 -28 21 -2 20 -12 32 -35 42 -26 12 -33 21 -38 55 -14 89 -15 90 -125
75 -97 -13 -127 -5 -207 58 -142 110 -306 150 -445 107z"/>
<path d="M1388 22873 c-8 -25 -13 -86 -13 -173 0 -162 19 -229 97 -345 101
-152 263 -251 441 -270 75 -8 66 -18 84 97 l10 58 -36 5 c-134 22 -215 62
-294 146 -101 108 -152 281 -117 399 10 33 8 37 -21 62 -28 23 -106 58 -130
58 -4 0 -13 -17 -21 -37z"/>
<path d="M7320 20550 l0 -710 -710 0 -710 0 0 -747 c0 -410 -2 -748 -3 -750
-2 -2 -38 -12 -79 -22 -153 -39 -246 -108 -303 -224 -53 -110 -57 -153 -53
-738 4 -474 6 -529 22 -579 61 -184 175 -289 349 -321 l67 -12 0 -794 0 -793
710 0 710 0 0 -710 0 -710 4105 0 4105 0 0 -3250 0 -3250 -1000 0 -1000 0 0
380 0 380 -1840 0 -1840 0 0 -125 0 -125 1715 0 1715 0 0 -380 0 -380 1265 0
1265 0 0 125 c0 104 -2 125 -15 125 -13 0 -15 382 -15 3375 l0 3375 -4102 2
-4103 3 0 708 0 707 -707 0 -708 0 -2 660 c-2 363 -1 665 0 670 3 7 1796 10
5338 10 l5334 0 0 -670 0 -670 -3985 0 -3985 0 0 -125 0 -125 4110 0 4110 0 0
2490 0 2490 -4110 0 -4110 0 0 -125 0 -125 3985 0 3985 0 0 -625 0 -625 -5335
0 c-5328 0 -5335 0 -5335 20 0 11 0 281 0 600 0 319 0 591 0 605 l0 25 708 0
708 0 0 708 -1 707 7333 3 7332 2 0 -720 0 -720 3340 0 3340 0 0 -615 0 -615
-5335 0 -5335 0 0 615 0 615 1290 0 1291 0 -3 123 -3 122 -1412 3 -1413 2 0
-67 c0 -86 0 -4768 0 -4845 l0 -58 1415 0 1416 0 -3 123 -3 122 -1287 3 -1288
2 0 675 0 675 5335 0 5335 0 0 -675 0 -675 -3340 0 -3340 0 0 -705 0 -705
-1545 0 -1546 0 3 -122 3 -123 3863 -3 3862 -2 0 -4635 0 -4635 -2540 0 -2540
0 0 335 0 335 -65 0 -66 0 3 -335 3 -335 -1150 0 -1151 0 4 -770 4 -770 -1801
0 -1801 0 0 635 c0 417 3 635 10 635 6 0 10 48 10 125 l0 125 -1135 0 c-750 0
-1135 3 -1135 10 0 6 -48 10 -125 10 l-125 0 0 -380 0 -380 -1709 0 c-1415 0
-1710 -2 -1714 -13 -3 -8 -5 -64 -6 -125 l0 -112 1717 -2 c1804 -2 1801 -2
1900 0 l62 2 0 370 0 370 1000 0 1000 0 0 -762 0 -763 2047 2 2048 2 3 770 2
771 3750 0 3750 0 0 4885 0 4885 -2320 0 -2320 0 0 580 0 580 3343 0 3342 0
-3 803 -4 803 58 18 c187 58 295 177 323 356 7 38 11 267 11 558 0 410 -3 506
-16 570 -40 198 -154 325 -327 365 l-49 12 4 743 3 742 -3342 0 -3343 0 -2
718 -3 717 -7582 3 -7583 2 0 -710z m-775 -2295 c14 -13 25 -32 25 -41 0 -9
-35 -52 -77 -95 l-76 -79 146 0 c145 0 146 0 166 -26 27 -34 26 -50 -4 -79
-23 -24 -29 -25 -167 -25 l-143 0 72 -71 c40 -39 75 -80 78 -90 8 -24 -17 -65
-44 -74 -31 -9 -54 7 -219 159 l-153 141 54 50 c30 28 105 96 166 153 66 61
119 102 131 102 12 0 32 -11 45 -25z m3304 -56 c35 -12 34 -11 21 -60 l-10
-36 -78 4 c-94 5 -133 -14 -162 -80 -38 -82 -13 -186 52 -227 28 -18 45 -21
110 -17 l78 4 6 -34 c9 -45 1 -59 -36 -67 -199 -39 -350 68 -350 248 0 168
107 274 276 276 34 0 75 -5 93 -11z m-1159 -204 l0 -204 98 -3 97 -3 3 -47 3
-48 -160 0 -161 0 0 255 0 255 60 0 60 0 0 -205z m-1040 46 c45 -23 76 -69 84
-124 12 -76 10 -77 -125 -77 -76 0 -119 -4 -119 -10 0 -6 12 -22 26 -36 24
-24 30 -26 105 -22 75 3 80 2 85 -19 14 -56 -7 -70 -112 -72 -76 -1 -120 13
-162 52 -67 64 -69 197 -4 271 47 52 158 71 222 37z m380 -36 l0 -55 -34 0
c-25 0 -40 -7 -55 -26 -18 -23 -21 -41 -21 -130 l0 -104 -60 0 -60 0 0 180 0
180 50 0 c47 0 50 -2 50 -25 0 -32 2 -31 38 5 21 20 40 30 61 30 31 0 31 0 31
-55z m265 45 c25 -9 27 -14 20 -48 -4 -20 -8 -38 -8 -39 -1 -1 -21 4 -45 10
-30 8 -48 8 -59 1 -32 -20 -25 -34 32 -59 74 -33 105 -67 105 -115 0 -93 -115
-145 -242 -109 -42 11 -42 10 -28 60 l10 37 38 -14 c49 -17 87 -17 102 1 17
20 5 33 -54 59 -29 13 -62 36 -74 51 -42 54 -17 130 52 161 37 16 114 18 151
4z m890 -6 c61 -29 69 -53 75 -212 l5 -142 -52 0 c-40 0 -53 4 -53 15 0 12 -7
11 -40 -6 -59 -31 -124 -22 -163 21 -26 29 -29 38 -24 83 3 41 11 56 35 78 33
30 88 49 140 49 40 0 44 25 6 42 -19 9 -39 9 -82 0 -30 -6 -57 -10 -60 -8 -2
3 -5 19 -5 38 -2 29 2 34 33 45 50 17 146 16 185 -3z m1011 -3 c136 -62 137
-274 2 -340 -82 -39 -197 -19 -246 44 -49 62 -53 168 -8 236 48 72 164 100
252 60z m834 -36 l0 -55 -34 0 c-25 0 -40 -7 -55 -26 -18 -23 -21 -41 -21
-130 l0 -104 -60 0 -60 0 0 180 0 180 50 0 c47 0 50 -2 50 -25 0 -32 2 -31 38
5 21 20 40 30 61 30 31 0 31 0 31 -55z m340 39 c53 -32 64 -66 68 -216 l4
-138 -60 0 -60 0 -4 126 c-3 111 -5 127 -22 140 -26 19 -39 18 -70 -7 -25 -20
-26 -23 -26 -140 l0 -119 -60 0 -60 0 0 180 0 180 49 0 c40 0 51 -4 56 -19 6
-19 7 -19 42 5 42 28 102 32 143 8z m400 -3 c45 -23 76 -69 84 -124 12 -76 10
-77 -125 -77 -76 0 -119 -4 -119 -10 0 -6 12 -22 26 -36 24 -24 30 -26 105
-22 75 3 80 2 85 -19 14 -56 -7 -70 -112 -72 -76 -1 -120 13 -162 52 -67 64
-69 197 -4 271 47 52 158 71 222 37z m1220 0 c45 -23 76 -69 84 -124 12 -76
10 -77 -125 -77 -76 0 -119 -4 -119 -10 0 -6 12 -22 26 -36 24 -24 30 -26 105
-22 75 3 80 2 85 -19 14 -56 -7 -70 -112 -72 -76 -1 -120 13 -162 52 -67 64
-69 197 -4 271 47 52 158 71 222 37z m7540 4 c101 -27 180 -74 261 -154 218
-218 237 -539 47 -788 -67 -88 -181 -163 -303 -199 -73 -21 -217 -24 -295 -5
-207 50 -381 221 -434 427 -20 78 -20 210 -1 293 47 197 218 372 416 425 71
19 239 20 309 1z m-13384 -110 c18 -60 33 -112 34 -115 1 -3 16 47 34 110 l32
115 63 3 c35 2 61 -1 60 -6 -2 -5 -33 -87 -69 -181 l-65 -172 -60 3 -60 3 -62
165 c-34 91 -62 171 -62 178 -1 10 15 12 61 10 l61 -3 33 -110z m3334 6 c0
-60 4 -121 9 -134 13 -33 46 -43 76 -23 24 16 25 20 25 141 l0 125 60 0 60 0
0 -180 0 -180 -50 0 c-43 0 -50 3 -50 20 0 18 -2 18 -36 -5 -66 -45 -157 -27
-191 38 -13 24 -18 65 -21 170 l-4 137 61 0 61 0 0 -109z m1560 0 c0 -60 4
-121 9 -134 13 -33 46 -43 76 -23 24 16 25 20 25 141 l0 125 60 0 60 0 0 -180
0 -180 -50 0 c-43 0 -50 3 -50 20 0 18 -2 18 -36 -5 -66 -45 -157 -27 -191 38
-13 24 -18 65 -21 170 l-4 137 61 0 61 0 0 -109z m436 -6 c18 -60 33 -112 34
-115 1 -3 16 47 34 110 l32 115 63 3 c35 2 61 -1 60 -6 -2 -5 -33 -87 -69
-181 l-65 -172 -60 3 -60 3 -62 165 c-34 91 -62 171 -62 178 -1 10 15 12 61
10 l61 -3 33 -110z m6362 -317 c29 -101 55 -202 58 -226 4 -23 10 -44 14 -47
3 -2 15 31 25 73 10 42 39 145 65 227 l48 150 101 3 101 3 0 -38 c0 -21 7
-150 15 -288 8 -137 15 -271 15 -297 l0 -48 -69 0 -69 0 -6 63 c-3 34 -9 151
-13 260 l-8 199 -38 -129 c-21 -70 -56 -185 -78 -255 l-40 -128 -59 0 -59 0
-11 43 c-7 23 -27 96 -45 162 -19 66 -43 160 -54 208 -10 49 -21 90 -24 93 -2
2 -7 -80 -11 -183 -3 -104 -9 -221 -13 -260 l-6 -73 -69 0 -70 0 6 48 c3 26
13 176 23 335 l17 287 101 0 102 0 51 -182z m9200 -395 c3 -42 2 -43 -27 -43
-38 0 -61 -23 -61 -61 0 -27 3 -29 35 -29 35 0 35 0 35 -45 0 -45 0 -45 -35
-45 l-35 0 0 -135 0 -135 -60 0 -60 0 0 135 0 135 -25 0 c-23 0 -25 4 -25 45
0 41 2 45 25 45 22 0 25 5 25 33 0 45 29 98 70 125 27 18 45 22 85 20 l50 -3
3 -42z m-2000 9 c43 -56 -37 -123 -90 -75 -44 39 -2 111 57 96 11 -3 26 -12
33 -21z m222 -237 l0 -265 -60 0 -60 0 0 265 0 265 60 0 60 0 0 -265z m200 0
l0 -265 -60 0 -60 0 0 265 0 265 60 0 60 0 0 -265z m618 237 c43 -56 -37 -123
-90 -75 -44 39 -2 111 57 96 11 -3 26 -12 33 -21z m630 0 c43 -56 -37 -123
-90 -75 -44 39 -2 111 57 96 11 -3 26 -12 33 -21z m997 -128 c85 -80 155 -149
155 -154 0 -12 -309 -295 -326 -298 -31 -7 -62 8 -74 37 -16 39 -7 54 82 135
l72 66 -151 0 c-122 0 -155 3 -167 15 -36 37 -27 88 20 105 14 6 85 10 157 10
l132 1 -74 68 c-62 57 -74 74 -74 99 0 42 19 62 59 62 29 0 53 -18 189 -146z
m-4915 -119 l0 -255 -60 0 -60 0 0 255 0 255 60 0 60 0 0 -255z m1802 185 c10
-36 34 -122 52 -191 l32 -126 55 191 54 191 63 3 c57 3 63 1 58 -15 -3 -10
-41 -124 -84 -253 l-79 -235 -69 -3 -69 -3 -78 248 c-43 136 -78 252 -77 256
0 4 28 7 62 5 l61 -3 19 -65z m-2842 -89 c45 -23 76 -69 84 -124 12 -76 10
-77 -125 -77 -76 0 -119 -4 -119 -10 0 -6 12 -22 26 -36 24 -24 30 -26 105
-22 75 3 80 2 85 -19 14 -56 -7 -70 -112 -72 -76 -1 -120 13 -162 52 -67 64
-69 197 -4 271 47 52 158 71 222 37z m380 -36 l0 -55 -34 0 c-25 0 -40 -7 -55
-26 -18 -23 -21 -41 -21 -130 l0 -104 -60 0 -60 0 0 180 0 180 50 0 c47 0 50
-2 50 -25 0 -32 2 -31 38 5 21 20 40 30 61 30 31 0 31 0 31 -55z m265 45 c25
-9 27 -14 20 -48 -4 -20 -8 -38 -8 -39 -1 -1 -21 4 -45 10 -30 8 -48 8 -59 1
-32 -20 -25 -34 32 -59 74 -33 105 -67 105 -115 0 -93 -115 -145 -242 -109
-42 11 -42 10 -28 60 l10 37 38 -14 c49 -17 87 -17 102 1 17 20 5 33 -54 59
-29 13 -62 36 -74 51 -42 54 -17 130 52 161 37 16 114 18 151 4z m1105 -45 l0
-55 -34 0 c-25 0 -40 -7 -55 -26 -18 -23 -21 -41 -21 -130 l0 -104 -60 0 -60
0 0 180 0 180 50 0 c47 0 50 -2 50 -25 0 -32 2 -31 38 5 21 20 40 30 61 30 31
0 31 0 31 -55z m2300 36 c45 -23 76 -69 84 -124 12 -76 10 -77 -125 -77 -76 0
-119 -4 -119 -10 0 -6 12 -22 26 -36 24 -24 30 -26 105 -22 75 3 80 2 85 -19
14 -56 -7 -70 -112 -72 -76 -1 -120 13 -162 52 -67 64 -69 197 -4 271 47 52
158 71 222 37z m-4564 -106 c18 -60 33 -112 34 -115 1 -3 16 47 34 110 l32
115 63 3 c35 2 61 -1 60 -6 -2 -5 -33 -87 -69 -181 l-65 -172 -60 3 -60 3 -62
165 c-34 91 -62 171 -62 178 -1 10 15 12 61 10 l61 -3 33 -110z m1760 0 c18
-60 33 -112 34 -115 1 -3 16 47 34 110 l32 115 63 3 c35 2 61 -1 60 -6 -2 -5
-33 -87 -69 -181 l-65 -172 -60 3 -60 3 -62 165 c-34 91 -62 171 -62 178 -1
10 15 12 61 10 l61 -3 33 -110z m680 70 c7 -22 24 -76 37 -120 l23 -80 30 120
30 120 62 3 c34 2 62 1 62 0 0 -6 -87 -250 -110 -308 -35 -91 -82 -159 -129
-191 -65 -43 -84 -39 -99 17 -7 26 -11 47 -10 48 2 1 20 9 41 19 69 31 69 46
-6 235 -37 92 -67 171 -67 175 0 4 28 7 62 5 l61 -3 13 -40z m1374 -135 l0
-180 -60 0 -60 0 0 180 0 180 60 0 60 0 0 -180z m1038 -17 c-4 -217 -9 -237
-68 -286 -26 -23 -113 -47 -125 -35 -2 2 -7 22 -10 44 -7 38 -6 40 28 52 50
18 57 47 57 248 l0 174 61 0 61 0 -4 -197z m202 88 c0 -60 4 -121 9 -134 13
-33 46 -43 76 -23 24 16 25 20 25 141 l0 125 60 0 60 0 0 -180 0 -180 -50 0
c-43 0 -50 3 -50 20 0 18 -2 18 -36 -5 -66 -45 -157 -27 -191 38 -13 24 -18
65 -21 170 l-4 137 61 0 61 0 0 -109z m430 -71 l0 -180 -60 0 -60 0 0 180 0
180 60 0 60 0 0 -180z m-2430 20 l0 -40 -100 0 -100 0 0 40 0 40 100 0 100 0
0 -40z"/>
<path d="M7510 17960 c-33 -33 -24 -40 50 -40 39 0 70 3 70 8 0 4 -7 18 -16
30 -20 29 -76 30 -104 2z"/>
<path d="M9083 17850 c-19 -8 -43 -38 -43 -54 0 -12 33 -36 51 -36 29 0 59 36
59 70 0 25 -4 30 -22 29 -13 0 -33 -4 -45 -9z"/>
<path d="M10063 17956 c-25 -22 -28 -31 -28 -86 0 -55 3 -64 28 -86 15 -13 34
-24 42 -24 8 0 27 11 42 24 25 22 28 31 28 86 0 55 -3 64 -28 86 -15 13 -34
24 -42 24 -8 0 -27 -11 -42 -24z"/>
<path d="M11630 17960 c-33 -33 -24 -40 50 -40 39 0 70 3 70 8 0 4 -7 18 -16
30 -20 29 -76 30 -104 2z"/>
<path d="M12850 17960 c-33 -33 -24 -40 50 -40 39 0 70 3 70 8 0 4 -7 18 -16
30 -20 29 -76 30 -104 2z"/>
<path d="M20150 17715 l0 -65 145 0 c80 0 145 -2 145 -4 0 -2 -59 -119 -131
-260 l-130 -256 83 0 83 0 133 275 c115 240 132 281 132 325 l0 50 -230 0
-230 0 0 -65z"/>
<path d="M22610 17000 c-33 -33 -24 -40 50 -40 39 0 70 3 70 8 0 4 -7 18 -16
30 -20 29 -76 30 -104 2z"/>
<path d="M26660 17000 c-33 -33 -24 -40 50 -40 39 0 70 3 70 8 0 4 -7 18 -16
30 -20 29 -76 30 -104 2z"/>
<path d="M9600 20425 l0 -535 165 0 165 0 0 535 0 535 -165 0 -165 0 0 -535z"/>
<path d="M19380 20425 l0 -535 165 0 165 0 0 535 0 535 -165 0 -165 0 0 -535z"/>
<path d="M9210 20425 l0 -435 125 0 125 0 0 435 0 435 -125 0 -125 0 0 -435z"/>
<path d="M19850 20425 l0 -435 125 0 125 0 0 435 0 435 -125 0 -125 0 0 -435z"/>
<path d="M8870 20430 l0 -340 85 0 85 0 -2 338 -3 337 -82 3 -83 3 0 -341z"/>
<path d="M20275 20762 c-3 -3 -5 -155 -5 -339 l0 -333 85 0 85 0 0 340 0 341
-80 -2 c-43 -1 -82 -4 -85 -7z"/>
<path d="M9600 14265 l0 -535 165 0 165 0 0 535 0 535 -165 0 -165 0 0 -535z"/>
<path d="M19380 14265 l0 -535 165 0 165 0 0 535 0 535 -165 0 -165 0 0 -535z"/>
<path d="M9210 14265 l0 -435 125 0 125 0 0 435 0 435 -125 0 -125 0 0 -435z"/>
<path d="M19850 14265 l0 -435 125 0 125 0 0 435 0 435 -125 0 -125 0 0 -435z"/>
<path d="M8870 14265 l0 -347 83 4 82 3 0 340 0 340 -82 3 -83 3 0 -346z"/>
<path d="M20275 14602 c-3 -3 -5 -155 -5 -338 0 -264 3 -333 13 -337 7 -3 46
-5 85 -5 l72 0 0 344 0 345 -80 -2 c-43 -1 -82 -4 -85 -7z"/>
<path d="M20140 12825 l0 -535 165 0 165 0 0 535 0 535 -165 0 -165 0 0 -535z"/>
<path d="M19750 12825 l0 -435 125 0 125 0 0 435 0 435 -125 0 -125 0 0 -435z"/>
<path d="M19406 13163 c-3 -4 -6 -157 -6 -340 2 -380 -9 -345 104 -341 l66 2
0 342 0 342 -78 1 c-43 1 -82 -2 -86 -6z"/>
<path d="M17050 9460 l0 -2770 1140 0 1140 0 0 30 0 30 295 0 295 0 0 -30 0
-30 2890 0 2890 0 0 2770 0 2770 -4325 0 -4325 0 0 -2770z m8390 0 l0 -2520
-2465 0 -2465 0 0 760 0 760 -885 0 -885 0 0 -760 0 -760 -720 0 -720 0 0
2520 0 2520 4070 0 4070 0 0 -2520z m-5755 -1585 c14 -13 25 -36 25 -50 0 -36
-42 -75 -80 -75 -38 0 -80 39 -80 75 0 36 42 75 80 75 19 0 40 -9 55 -25z m15
-435 l0 -240 -75 0 -75 0 0 240 0 240 75 0 75 0 0 -240z"/>
<path d="M16150 10594 c-18 -41 -30 -77 -27 -80 7 -7 293 -141 318 -149 12 -4
75 19 177 66 86 39 161 75 166 80 11 9 -53 149 -68 148 -6 0 -67 -26 -136 -58
l-124 -58 -76 35 c-41 19 -103 47 -137 62 l-61 28 -32 -74z"/>
<path d="M25967 10594 c-4 -4 -7 -43 -7 -86 l0 -78 340 0 341 0 -3 83 -3 82
-330 3 c-182 2 -334 0 -338 -4z"/>
<path d="M16105 10320 c-8 -13 -84 -224 -82 -226 9 -9 416 -156 432 -156 16 0
423 147 432 156 3 3 -72 210 -81 225 -3 5 -84 -20 -179 -56 l-173 -64 -172 64
c-95 36 -174 61 -177 57z"/>
<path d="M25860 10125 l0 -125 434 0 c386 0 435 2 440 16 3 9 6 65 6 125 l0
109 -440 0 -440 0 0 -125z"/>
<path d="M15995 9866 c-13 -44 -36 -116 -49 -159 -17 -55 -21 -80 -13 -82 7
-3 127 -40 267 -84 l255 -80 264 80 c146 43 266 81 268 83 4 4 -84 306 -91
313 -2 2 -102 -26 -222 -62 l-219 -65 -217 69 -218 68 -25 -81z"/>
<path d="M25772 9861 c-10 -6 -12 -44 -10 -167 l3 -159 533 -3 532 -2 0 170 0
170 -522 0 c-288 0 -529 -4 -536 -9z"/>
<path d="M8758 7422 c-59 -36 -58 -30 -58 -626 0 -590 0 -596 53 -631 39 -25
90 -29 128 -11 52 25 710 517 732 547 28 39 34 111 12 160 -16 35 -67 76 -361
294 -189 140 -356 261 -373 269 -39 21 -99 20 -133 -2z m414 -409 c161 -119
294 -217 296 -218 4 -4 -589 -440 -594 -437 -3 1 -7 749 -4 867 0 3 2 5 5 5 3
0 136 -97 297 -217z"/>
<path d="M10010 6794 l0 -534 165 0 165 0 0 535 0 536 -165 -2 -165 -2 0 -533z"/>
<path d="M10480 6790 l0 -440 125 0 125 0 0 440 0 440 -125 0 -125 0 0 -440z"/>
<path d="M10902 6793 l3 -338 83 -3 82 -3 0 341 0 340 -85 0 -85 0 2 -337z"/>
<path d="M8175 7032 c-44 -20 -82 -39 -84 -42 -6 -8 9 -99 18 -104 4 -3 31 6
60 20 29 13 55 24 57 24 2 0 4 -115 4 -255 l0 -255 75 0 75 0 0 325 0 325 -62
0 c-52 0 -78 -7 -143 -38z"/>
<path d="M4410 6945 c0 -52 -2 -95 -5 -95 -4 0 -20 7 -37 16 -67 35 -160 -1
-198 -76 -22 -44 -27 -140 -9 -187 36 -97 153 -131 229 -67 l30 26 0 -26 c0
-25 3 -26 50 -26 l50 0 0 265 0 265 -55 0 -55 0 0 -95z m-25 -175 c22 -24 30
-96 16 -133 -6 -15 -22 -32 -35 -38 -61 -28 -112 27 -103 108 6 55 30 83 72
83 19 0 39 -8 50 -20z"/>
<path d="M5322 7011 c-60 -21 -114 -67 -145 -126 -29 -54 -30 -193 -3 -245 49
-94 117 -133 231 -134 44 -1 93 3 109 7 27 8 28 10 22 50 -4 23 -8 42 -9 43
-1 1 -24 -2 -51 -7 -85 -16 -164 20 -192 87 -17 40 -18 112 -3 151 28 74 112
115 193 94 57 -14 53 -15 60 13 3 13 9 31 12 40 4 12 -4 20 -30 31 -48 20
-129 18 -194 -4z"/>
<path d="M6766 7014 c-9 -8 -16 -24 -16 -35 0 -25 35 -59 60 -59 25 0 60 34
60 59 0 28 -27 51 -60 51 -16 0 -36 -7 -44 -16z"/>
<path d="M15890 6815 l0 -125 25 0 25 0 0 125 0 125 -25 0 -25 0 0 -125z"/>
<path d="M16030 6815 l0 -125 25 0 25 0 0 125 0 125 -25 0 -25 0 0 -125z"/>
<path d="M16160 6815 l0 -125 25 0 25 0 0 125 0 125 -25 0 -25 0 0 -125z"/>
<path d="M16300 6815 l0 -125 25 0 25 0 0 125 0 125 -25 0 -25 0 0 -125z"/>
<path d="M16430 6815 l0 -125 25 0 25 0 0 125 0 125 -25 0 -25 0 0 -125z"/>
<path d="M16570 6815 c0 -125 0 -125 24 -125 24 0 24 0 24 125 l1 125 -24 0
-25 0 0 -125z"/>
<path d="M16700 6815 l0 -125 25 0 25 0 0 125 0 125 -25 0 -25 0 0 -125z"/>
<path d="M16840 6815 l0 -125 24 0 24 0 1 125 0 125 -24 0 -25 0 0 -125z"/>
<path d="M16970 6815 l0 -125 25 0 25 0 0 125 0 125 -25 0 -25 0 0 -125z"/>
<path d="M3065 6869 c-11 -6 -30 -23 -42 -38 l-23 -26 0 33 c0 32 0 32 -51 32
-48 0 -51 -1 -45 -22 3 -13 6 -94 6 -180 l0 -158 55 0 55 0 0 110 c0 127 12
150 75 150 l35 0 0 55 c0 50 -2 55 -22 55 -13 0 -32 -5 -43 -11z"/>
<path d="M3723 6869 c-66 -19 -123 -102 -123 -179 0 -124 95 -200 235 -187 90
9 98 13 91 55 -3 19 -7 36 -8 38 -2 1 -24 -2 -50 -7 -57 -13 -121 2 -143 34
-8 12 -15 25 -15 29 0 5 54 8 120 8 l120 0 0 50 c0 126 -99 196 -227 159z
m110 -87 c35 -31 21 -42 -53 -42 -38 0 -70 3 -70 6 0 16 24 46 43 54 26 10 55
4 80 -18z"/>
<path d="M4713 6869 c-66 -19 -123 -102 -123 -179 0 -124 95 -200 235 -187 90
9 98 13 91 55 -3 19 -7 36 -8 38 -2 1 -24 -2 -50 -7 -57 -13 -121 2 -143 34
-8 12 -15 25 -15 29 0 5 54 8 120 8 l120 0 0 50 c0 126 -99 196 -227 159z
m110 -87 c35 -31 21 -42 -53 -42 -38 0 -70 3 -70 6 0 16 24 46 43 54 26 10 55
4 80 -18z"/>
<path d="M5693 6869 c-66 -19 -123 -102 -123 -179 0 -124 95 -200 235 -187 90
9 98 13 91 55 -3 19 -7 36 -8 38 -2 1 -24 -2 -50 -7 -57 -13 -121 2 -143 34
-8 12 -15 25 -15 29 0 5 54 8 120 8 l120 0 0 50 c0 126 -99 196 -227 159z
m110 -87 c35 -31 21 -42 -53 -42 -38 0 -70 3 -70 6 0 16 24 46 43 54 26 10 55
4 80 -18z"/>
<path d="M6154 6866 c-18 -8 -35 -19 -38 -25 -11 -18 -26 -13 -26 9 0 17 -7
20 -51 20 l-51 0 6 -31 c3 -17 6 -98 6 -180 l0 -149 55 0 55 0 0 120 c0 107 2
122 20 140 11 11 29 20 40 20 11 0 29 -9 40 -20 18 -18 20 -33 20 -140 l0
-120 55 0 55 0 0 139 c0 127 -2 141 -23 172 -39 57 -97 73 -163 45z"/>
<path d="M6515 6873 c-53 -15 -95 -66 -95 -117 0 -36 46 -82 105 -104 95 -37
58 -90 -43 -63 -25 6 -46 10 -49 8 -2 -3 -8 -18 -13 -36 -10 -36 2 -46 68 -57
99 -16 185 24 198 92 11 59 -11 92 -85 128 -48 23 -66 37 -66 51 0 17 7 20 45
20 25 -1 51 -3 59 -5 19 -6 39 56 24 71 -12 12 -118 21 -148 12z"/>
<path d="M7063 6869 c-66 -19 -123 -102 -123 -179 0 -124 95 -200 235 -187 90
9 98 13 91 55 -3 19 -7 36 -8 38 -2 1 -24 -2 -50 -7 -57 -13 -121 2 -143 34
-8 12 -15 25 -15 29 0 5 54 8 120 8 l120 0 0 50 c0 126 -99 196 -227 159z
m110 -87 c35 -31 21 -42 -53 -42 -38 0 -70 3 -70 6 0 16 24 46 43 54 26 10 55
4 80 -18z"/>
<path d="M7515 6869 c-11 -6 -30 -23 -42 -38 l-23 -26 0 33 c0 32 0 32 -51 32
-48 0 -51 -1 -45 -22 3 -13 6 -94 6 -180 l0 -158 55 0 55 0 0 110 c0 127 12
150 75 150 l35 0 0 55 c0 50 -2 55 -22 55 -13 0 -32 -5 -43 -11z"/>
<path d="M3190 6734 c0 -156 11 -193 65 -218 56 -27 114 -18 154 25 l21 23 0
-27 c0 -26 2 -27 50 -27 l50 0 0 180 0 180 -55 0 -55 0 0 -115 c0 -110 -1
-117 -25 -140 -29 -30 -49 -31 -75 -5 -18 18 -20 33 -20 140 l0 120 -55 0 -55
0 0 -136z"/>
<path d="M6760 6690 l0 -180 55 0 55 0 0 180 0 180 -55 0 -55 0 0 -180z"/>
<path d="M21131 6570 c-67 -14 -127 -54 -158 -108 l-28 -47 0 -370 c0 -360 1
-371 22 -410 27 -51 68 -90 115 -109 31 -13 85 -16 298 -16 163 0 260 -4 260
-10 0 -5 -30 -74 -66 -152 -37 -79 -79 -170 -94 -203 -15 -33 -44 -94 -63
-135 l-35 -75 55 -28 c30 -16 56 -27 58 -25 3 3 94 198 175 373 15 33 48 104
73 158 l46 97 129 0 c152 0 207 15 262 70 59 59 61 81 58 480 -3 341 -4 357
-25 395 -27 50 -57 79 -108 102 -36 16 -80 18 -485 20 -245 1 -465 -3 -489 -7z
m333 -76 c3 -9 6 -87 6 -174 0 -149 -1 -160 -20 -170 -14 -8 -26 -8 -40 0 -19
10 -20 21 -20 170 0 87 3 165 6 174 4 9 18 16 34 16 16 0 30 -7 34 -16z m469
-277 c72 -68 145 -135 160 -149 l29 -25 -163 -152 c-171 -159 -190 -170 -229
-131 -35 35 -25 59 57 142 l78 78 -354 0 c-390 0 -391 0 -391 61 0 59 -3 59
386 59 195 0 354 3 354 6 0 3 -34 37 -75 76 -80 74 -92 103 -58 140 36 40 65
25 206 -105z m-474 -291 c8 -9 11 -65 9 -176 -3 -142 -5 -164 -20 -174 -13 -8
-23 -8 -35 0 -16 10 -18 32 -21 174 -3 168 2 190 38 190 10 0 23 -6 29 -14z"/>
<path d="M9855 6167 c-4 -13 -5 -70 -3 -128 l3 -104 707 0 708 0 0 -457 0
-458 -707 -2 -708 -3 -2 -122 -2 -123 714 -2 c393 -2 770 -3 837 -3 l122 0 -1
710 0 710 -831 2 -832 3 -5 -23z"/>
<path d="M23508 5954 c-4 -4 -8 -245 -8 -535 l0 -529 170 0 170 0 -2 533 -3
532 -160 3 c-88 2 -163 0 -167 -4z"/>
<path d="M23977 5853 c-10 -9 -8 -845 1 -860 11 -18 239 -15 246 3 3 8 4 204
3 437 l-2 422 -121 3 c-66 1 -123 -1 -127 -5z"/>
<path d="M24400 5420 l0 -340 85 0 85 0 0 340 0 340 -85 0 -85 0 0 -340z"/>
<path d="M8795 4722 c-10 -2 -30 -11 -43 -20 -51 -34 -52 -40 -52 -628 0 -478
2 -550 16 -579 29 -61 96 -86 160 -60 45 19 694 500 728 540 40 48 48 128 17
179 -15 23 -138 121 -367 291 -191 141 -356 260 -368 264 -35 13 -70 18 -91
13z m392 -437 c151 -112 273 -207 272 -212 -2 -7 -589 -446 -589 -440 0 1 -1
201 -3 444 l-2 442 24 -16 c13 -8 147 -107 298 -218z"/>
<path d="M9990 4075 l0 -535 165 0 165 0 0 535 0 535 -165 0 -165 0 0 -535z"/>
<path d="M10460 4075 l0 -435 125 0 125 0 0 435 0 435 -125 0 -125 0 0 -435z"/>
<path d="M10880 4076 c0 -382 -11 -343 103 -345 l67 -2 0 341 0 340 -85 0 -85
0 0 -334z"/>
<path d="M8195 4354 c-51 -13 -112 -36 -128 -48 -17 -13 -16 -16 3 -62 12 -27
23 -50 24 -52 2 -1 19 7 39 18 86 51 189 28 203 -45 12 -64 -31 -129 -172
-262 -122 -114 -124 -117 -124 -160 l0 -43 230 0 230 0 0 60 0 60 -121 0 -121
0 89 88 c110 107 138 159 138 253 0 55 -5 72 -28 107 -36 55 -94 84 -177 88
-36 2 -74 1 -85 -2z"/>
<path d="M4710 4225 c0 -52 -2 -95 -5 -95 -4 0 -20 7 -37 16 -67 35 -160 -1
-198 -76 -22 -44 -27 -140 -9 -187 36 -97 153 -131 229 -67 l30 26 0 -26 c0
-25 3 -26 50 -26 l50 0 0 265 0 265 -55 0 -55 0 0 -95z m-25 -175 c22 -24 30
-96 16 -133 -6 -15 -22 -32 -35 -38 -61 -28 -112 27 -103 108 6 55 30 83 72
83 19 0 39 -8 50 -20z"/>
<path d="M6600 4078 c0 -134 -3 -253 -6 -265 -6 -22 -3 -23 45 -23 48 0 51 1
51 26 l0 27 26 -26 c66 -66 193 -35 234 56 28 61 27 160 -3 211 -43 75 -140
97 -208 47 l-29 -22 0 106 0 105 -55 0 -55 0 0 -242z m236 -29 c14 -16 19 -36
19 -81 0 -51 -4 -63 -24 -79 -31 -25 -69 -24 -98 3 -32 30 -33 123 -3 156 27
29 80 29 106 1z"/>
<path d="M7440 4055 l0 -265 55 0 55 0 0 265 0 265 -55 0 -55 0 0 -265z"/>
<path d="M6116 4294 c-9 -8 -16 -24 -16 -35 0 -25 35 -59 60 -59 25 0 60 34
60 59 0 28 -27 51 -60 51 -16 0 -36 -7 -44 -16z"/>
<path d="M5490 4266 c0 -38 -17 -304 -26 -409 l-5 -68 53 3 53 3 10 200 c10
197 10 199 23 140 7 -33 29 -122 49 -197 l37 -138 46 0 46 0 54 183 c29 100
57 189 62 197 4 8 8 -55 8 -141 0 -86 3 -177 6 -203 l7 -46 54 0 c50 0 53 1
49 23 -3 12 -7 85 -11 162 -3 77 -8 182 -11 233 l-7 92 -73 0 -72 0 -26 -77
c-14 -43 -37 -120 -50 -172 -14 -51 -27 -95 -29 -98 -3 -2 -7 16 -11 39 -3 24
-23 103 -44 176 l-37 132 -77 0 -78 0 0 -34z"/>
<path d="M3365 4149 c-11 -6 -30 -23 -42 -38 l-23 -26 0 33 c0 32 0 32 -51 32
-48 0 -51 -1 -45 -22 3 -13 6 -94 6 -180 l0 -158 55 0 55 0 0 110 c0 127 12
150 75 150 l35 0 0 55 c0 50 -2 55 -22 55 -13 0 -32 -5 -43 -11z"/>
<path d="M4023 4149 c-66 -19 -123 -102 -123 -179 0 -124 95 -200 235 -187 90
9 98 13 91 55 -3 19 -7 36 -8 38 -2 1 -24 -2 -50 -7 -57 -13 -121 2 -143 34
-8 12 -15 25 -15 29 0 5 54 8 120 8 l120 0 0 50 c0 126 -99 196 -227 159z
m110 -87 c35 -31 21 -42 -53 -42 -38 0 -70 3 -70 6 0 16 24 46 43 54 26 10 55
4 80 -18z"/>
<path d="M5013 4149 c-66 -19 -123 -102 -123 -179 0 -124 95 -200 235 -187 90
9 98 13 91 55 -3 19 -7 36 -8 38 -2 1 -24 -2 -50 -7 -57 -13 -121 2 -143 34
-8 12 -15 25 -15 29 0 5 54 8 120 8 l120 0 0 50 c0 126 -99 196 -227 159z
m110 -87 c35 -31 21 -42 -53 -42 -38 0 -70 3 -70 6 0 16 24 46 43 54 26 10 55
4 80 -18z"/>
<path d="M6465 4149 c-11 -6 -30 -23 -42 -38 l-23 -26 0 33 c0 32 0 32 -51 32
-48 0 -51 -1 -45 -22 3 -13 6 -94 6 -180 l0 -158 55 0 55 0 0 110 c0 127 12
150 75 150 l35 0 0 55 c0 50 -2 55 -22 55 -13 0 -32 -5 -43 -11z"/>
<path d="M7143 4149 c-66 -19 -123 -102 -123 -179 0 -124 95 -200 235 -187 90
9 98 13 91 55 -3 19 -7 36 -8 38 -2 1 -24 -2 -50 -7 -57 -13 -121 2 -143 34
-8 12 -15 25 -15 29 0 5 54 8 120 8 l120 0 0 50 c0 126 -99 196 -227 159z
m110 -87 c35 -31 21 -42 -53 -42 -38 0 -70 3 -70 6 0 16 24 46 43 54 26 10 55
4 80 -18z"/>
<path d="M3490 4014 c0 -156 11 -193 65 -218 56 -27 114 -18 154 25 l21 23 0
-27 c0 -26 2 -27 50 -27 l50 0 0 180 0 180 -55 0 -55 0 0 -115 c0 -110 -1
-117 -25 -140 -29 -30 -49 -31 -75 -5 -18 18 -20 33 -20 140 l0 120 -55 0 -55
0 0 -136z"/>
<path d="M6110 3970 l0 -180 55 0 55 0 0 180 0 180 -55 0 -55 0 0 -180z"/>
<path d="M15880 4026 l0 -126 24 0 24 0 -1 123 c-2 118 -3 122 -24 125 -23 3
-23 2 -23 -122z"/>
<path d="M16000 4025 l0 -125 25 0 25 0 0 125 0 125 -25 0 -25 0 0 -125z"/>
<path d="M16130 4025 l0 -125 25 0 26 0 -2 125 c-1 125 -1 125 -25 125 l-24 0
0 -125z"/>
<path d="M16250 4025 l0 -125 25 0 25 0 0 125 0 125 -25 0 -25 0 0 -125z"/>
<path d="M16380 4026 c0 -119 1 -126 20 -126 27 0 32 28 28 146 -3 94 -4 99
-25 102 -23 3 -23 2 -23 -122z"/>
<path d="M16500 4025 l0 -125 25 0 25 0 0 125 0 125 -25 0 -25 0 0 -125z"/>
<path d="M16630 4024 c0 -124 0 -125 23 -122 21 3 22 7 25 126 l3 122 -26 0
-25 0 0 -126z"/>
<path d="M16750 4025 l0 -125 25 0 25 0 0 125 0 125 -25 0 -25 0 0 -125z"/>
<path d="M16880 4025 l0 -125 25 0 26 0 -2 125 c-2 124 -2 125 -26 125 -23 0
-23 0 -23 -125z"/>
<path d="M17000 4025 l0 -125 515 0 515 0 0 125 0 125 -515 0 -515 0 0 -125z"/>
</g>
</svg>
