<?xml version="1.0" standalone="no"?>
<!DOCTYPE svg PUBLIC "-//W3C//DTD SVG 20010904//EN"
 "http://www.w3.org/TR/2001/REC-SVG-20010904/DTD/svg10.dtd">
<svg version="1.0" xmlns="http://www.w3.org/2000/svg"
 width="3508.000000pt" height="2480.000000pt" viewBox="0 0 3508.000000 2480.000000"
 preserveAspectRatio="xMidYMid meet">
<metadata>
Created by potrace 1.11, written by Peter Selinger 2001-2013
</metadata>
<g transform="translate(0.000000,2480.000000) scale(0.100000,-0.100000)"
fill="#000000" stroke="none">
<path d="M1563 23612 c-18 -2 -33 -5 -33 -7 0 -2 -7 -39 -15 -82 -19 -99 -20
-95 12 -91 26 3 28 7 42 86 l14 82 42 0 c56 0 74 -20 51 -55 -13 -20 -25 -25
-58 -25 l-41 0 39 -44 c31 -35 46 -44 73 -45 l35 -1 -32 33 c-18 18 -32 36
-32 39 0 3 12 9 28 13 52 13 81 61 50 82 -16 9 -130 19 -175 15z"/>
<path d="M2830 22736 c0 -797 2 -884 16 -890 9 -3 1657 -5 3662 -4 l3647 3 3
888 2 887 -3665 0 -3665 0 0 -884z m1820 249 l-61 -75 -51 0 -50 0 38 68 c20
37 39 70 41 75 2 4 36 7 74 7 l70 0 -61 -75z m3885 50 c14 -13 25 -36 25 -50
0 -36 -42 -75 -80 -75 -38 0 -80 39 -80 75 0 36 42 75 80 75 19 0 40 -9 55
-25z m-1813 -6 c29 -6 57 -15 61 -19 5 -4 1 -33 -8 -64 -14 -46 -20 -56 -33
-51 -37 14 -125 26 -153 20 -26 -6 -69 -46 -69 -66 0 -23 53 -63 120 -90 96
-39 138 -71 162 -127 42 -94 2 -199 -94 -246 -87 -43 -235 -44 -323 -4 -22 10
-22 11 -7 70 13 53 17 59 36 53 78 -25 136 -34 170 -29 41 7 86 42 86 68 0 29
-50 73 -108 94 -162 60 -226 161 -173 278 45 99 181 145 333 113z m-2944 -181
c29 -101 55 -202 58 -226 4 -23 10 -44 14 -47 3 -2 15 31 25 73 10 42 39 145
65 227 l48 150 101 3 101 3 0 -38 c0 -21 7 -150 15 -288 8 -137 15 -271 15
-297 l0 -48 -69 0 -69 0 -6 63 c-3 34 -9 151 -13 260 l-8 199 -38 -129 c-21
-70 -56 -185 -78 -255 l-40 -128 -59 0 -59 0 -11 43 c-7 23 -27 96 -45 162
-19 66 -43 160 -54 208 -10 49 -21 90 -24 93 -2 2 -7 -80 -11 -183 -3 -104 -9
-221 -13 -260 l-6 -73 -69 0 -70 0 6 48 c3 26 13 176 23 335 l17 287 101 0
102 0 51 -182z m1252 57 l0 -65 55 0 55 0 0 -55 0 -55 -55 0 -55 0 0 -110 c0
-98 2 -112 21 -131 15 -15 30 -20 50 -17 l29 5 0 -58 0 -58 -36 -7 c-47 -9
-118 2 -150 22 -48 32 -58 67 -62 217 l-4 137 -29 0 c-28 0 -29 1 -29 55 0 54
0 55 30 55 29 0 30 2 30 45 l0 44 58 16 c31 9 62 18 67 20 23 8 25 2 25 -60z
m3180 0 l0 -65 55 0 55 0 0 -55 0 -55 -55 0 -55 0 0 -110 c0 -98 2 -112 21
-131 15 -15 30 -20 50 -17 l29 5 0 -58 0 -58 -36 -7 c-47 -9 -118 2 -150 22
-48 32 -58 67 -62 217 l-4 137 -29 0 c-28 0 -29 1 -29 55 0 54 0 55 30 55 29
0 30 2 30 45 l0 44 58 16 c31 9 62 18 67 20 23 8 25 2 25 -60z m-3552 -79 c64
-33 101 -100 109 -197 l6 -69 -162 0 c-179 0 -188 -4 -133 -60 35 -35 102 -47
181 -32 31 5 59 7 63 3 4 -3 8 -26 10 -51 l3 -44 -50 -12 c-117 -28 -236 -9
-302 49 -52 46 -73 98 -73 183 0 59 5 81 28 125 30 58 87 105 143 120 45 11
143 3 177 -15z m872 -45 l0 -68 -47 -6 c-37 -4 -54 -12 -75 -36 -28 -31 -28
-32 -28 -171 l0 -140 -75 0 -75 0 0 240 0 240 65 0 65 0 0 -47 0 -48 26 39
c28 40 71 65 117 66 27 0 27 0 27 -69z m425 41 c86 -44 128 -117 128 -223 0
-180 -158 -288 -341 -234 -106 32 -166 117 -165 236 0 115 61 201 163 234 61
20 164 14 215 -13z m1303 4 c64 -33 101 -100 109 -197 l6 -69 -162 0 c-179 0
-188 -4 -133 -60 35 -35 102 -47 181 -32 31 5 59 7 63 3 4 -3 8 -26 10 -51 l3
-44 -50 -12 c-117 -28 -236 -9 -302 49 -52 46 -73 98 -73 183 0 59 5 81 28
125 30 58 87 105 143 120 45 11 143 3 177 -15z m568 3 c33 -15 49 -32 68 -72
25 -49 26 -58 26 -224 l0 -173 -74 0 -75 0 -3 166 c-3 160 -4 166 -27 185 -33
27 -68 24 -102 -10 l-29 -29 0 -156 0 -156 -75 0 -75 0 0 240 0 240 65 0 65 0
0 -37 0 -37 28 27 c60 57 137 71 208 36z m1182 -3 c64 -33 101 -100 109 -197
l6 -69 -162 0 c-179 0 -188 -4 -133 -60 35 -35 102 -47 181 -32 31 5 59 7 63
3 4 -3 8 -26 10 -51 l3 -44 -50 -12 c-117 -28 -236 -9 -302 49 -52 46 -73 98
-73 183 0 59 5 81 28 125 30 58 87 105 143 120 45 11 143 3 177 -15z m492 -45
l0 -68 -47 -6 c-37 -4 -54 -12 -75 -36 -28 -31 -28 -32 -28 -171 l0 -140 -75
0 -75 0 0 240 0 240 65 0 65 0 0 -47 0 -48 26 39 c28 40 71 65 117 66 27 0 27
0 27 -69z m-950 -181 l0 -240 -75 0 -75 0 0 240 0 240 75 0 75 0 0 -240z"/>
<path d="M4479 22721 c-51 -52 -42 -61 62 -61 l91 0 -6 28 c-16 66 -96 84
-147 33z"/>
<path d="M5777 22720 c-73 -58 -56 -225 27 -254 104 -38 172 146 90 244 -31
36 -78 40 -117 10z"/>
<path d="M7079 22721 c-51 -52 -42 -61 62 -61 l91 0 -6 28 c-16 66 -96 84
-147 33z"/>
<path d="M8829 22721 c-51 -52 -42 -61 62 -61 l91 0 -6 28 c-16 66 -96 84
-147 33z"/>
<path d="M30439 23605 c-261 -64 -442 -284 -453 -553 -8 -171 48 -317 169
-437 118 -118 254 -175 420 -175 105 0 187 20 275 66 283 148 397 503 253 789
-122 240 -405 373 -664 310z m232 -235 c29 -6 69 -19 89 -29 101 -52 107 -188
9 -245 l-32 -19 35 -18 c148 -76 118 -285 -46 -334 -66 -20 -204 -30 -289 -21
l-67 8 0 328 0 329 53 4 c112 8 197 7 248 -3z"/>
<path d="M30520 23196 l0 -76 44 0 c84 0 126 28 126 83 0 40 -34 61 -106 65
l-64 4 0 -76z"/>
<path d="M30520 22910 l0 -100 45 0 c86 0 145 42 145 103 0 63 -49 97 -140 97
l-50 0 0 -100z"/>
<path d="M1849 23522 c-75 -85 -97 -123 -41 -69 24 23 37 27 85 27 52 0 59 -3
69 -25 8 -18 19 -25 40 -25 15 0 28 3 28 6 0 12 -92 174 -98 174 -4 -1 -41
-40 -83 -88z m76 -2 l16 -30 -46 0 -46 0 21 30 c12 17 25 30 30 30 5 0 16 -13
25 -30z"/>
<path d="M2088 23603 c63 -5 61 2 27 -150 -5 -20 -1 -23 24 -23 24 0 30 5 35
28 3 15 10 53 16 84 l11 57 52 4 c29 2 -9 3 -83 3 -74 0 -111 -1 -82 -3z"/>
<path d="M2356 23598 c-8 -25 -26 -132 -26 -150 0 -12 7 -18 24 -18 20 0 25 6
31 40 l7 40 67 0 c44 0 74 5 89 16 24 17 29 53 10 72 -17 17 -197 17 -202 0z
m152 -24 c5 -32 -24 -54 -69 -54 -41 0 -46 8 -33 58 6 20 12 23 53 20 38 -2
47 -7 49 -24z"/>
<path d="M1850 23314 c-95 -25 -197 -82 -268 -148 l-66 -63 55 -26 c30 -14 66
-34 81 -44 27 -17 28 -17 55 9 152 141 384 158 560 41 158 -105 235 -304 188
-488 -27 -104 -63 -165 -146 -246 l-78 -77 -16 -83 c-8 -45 -14 -83 -12 -85 7
-7 126 49 175 82 71 50 162 150 201 223 69 131 89 306 51 455 -29 116 -73 190
-165 281 -89 90 -182 143 -295 169 -81 20 -247 19 -320 0z"/>
<path d="M31678 23228 c-27 -11 -48 -25 -48 -30 0 -12 28 -78 33 -78 3 0 18 7
33 15 41 21 107 19 127 -3 21 -23 22 -64 3 -100 -8 -15 -57 -69 -110 -121 -84
-82 -96 -98 -96 -127 l0 -34 175 0 175 0 0 50 0 50 -85 0 -86 0 59 58 c73 71
102 125 102 190 0 60 -30 109 -80 134 -49 25 -142 23 -202 -4z"/>
<path d="M32130 23228 c-79 -52 -118 -202 -86 -327 30 -117 87 -166 186 -159
70 5 110 32 142 96 20 41 23 62 23 157 0 95 -3 116 -23 157 -33 66 -72 91
-147 96 -50 3 -66 0 -95 -20z m127 -95 c15 -22 18 -49 18 -138 0 -89 -3 -116
-18 -138 -37 -57 -83 -23 -99 76 -25 151 42 287 99 200z"/>
<path d="M1228 23044 c-47 -14 -48 -16 -48 -55 0 -34 3 -39 18 -35 146 44 268
31 367 -39 130 -92 154 -106 196 -113 24 -4 72 -4 107 1 35 5 65 7 67 5 3 -2
8 -28 12 -58 7 -49 10 -54 43 -65 27 -9 36 -18 40 -41 5 -24 10 -29 35 -29 27
0 30 -4 33 -33 3 -26 10 -35 39 -47 40 -17 41 -8 -11 -142 -65 -168 -95 -399
-65 -505 9 -36 12 -38 49 -38 l39 0 -10 32 c-14 51 -11 221 7 306 14 69 69
242 105 330 18 43 5 63 -51 76 -45 11 -47 13 -66 85 -3 9 -12 11 -28 7 -21 -5
-25 -2 -28 21 -2 20 -12 32 -35 42 -26 12 -33 21 -38 55 -14 89 -15 90 -125
75 -97 -13 -127 -5 -207 58 -142 110 -306 150 -445 107z"/>
<path d="M1388 22873 c-8 -25 -13 -86 -13 -173 0 -162 19 -229 97 -345 101
-152 263 -251 441 -270 75 -8 66 -18 84 97 l10 58 -36 5 c-134 22 -215 62
-294 146 -101 108 -152 281 -117 399 10 33 8 37 -21 62 -28 23 -106 58 -130
58 -4 0 -13 -17 -21 -37z"/>
<path d="M7440 17103 c0 -38 0 -1561 0 -3385 l0 -3318 -795 0 -795 0 0 -125 0
-125 920 0 920 0 0 130 c0 72 3 130 6 130 3 0 111 -43 240 -95 130 -52 239
-95 243 -95 11 0 50 103 42 112 -3 4 -123 54 -266 112 l-260 105 -3 3183 -2
3183 10272 -3 c5649 -1 10273 -4 10275 -5 1 -2 3 -362 3 -800 l0 -797 1440 0
1440 0 0 125 0 125 -1310 0 c-1041 0 -1310 3 -1310 13 0 6 -1 368 -2 802 l-3
790 -10527 3 -10528 2 0 -67z"/>
<path d="M10500 15965 l0 -534 165 0 165 0 0 535 0 534 -165 0 -165 0 0 -535z"/>
<path d="M26560 15970 l0 -530 165 0 165 0 0 530 0 530 -165 0 -165 0 0 -530z"/>
<path d="M10977 16403 c-4 -3 -7 -201 -7 -440 l0 -433 125 0 125 0 0 440 0
440 -118 0 c-65 0 -122 -3 -125 -7z"/>
<path d="M26172 15973 l3 -438 99 -3 c55 -2 110 -1 123 3 l23 5 0 435 0 435
-125 0 -125 0 2 -437z"/>
<path d="M11396 16302 c-3 -5 -5 -158 -5 -340 l-1 -332 85 0 85 0 0 340 0 340
-79 0 c-44 0 -82 -4 -85 -8z"/>
<path d="M25830 15970 l0 -340 85 0 85 0 0 340 0 340 -85 0 -85 0 0 -340z"/>
<path d="M28385 15166 c-58 -27 -88 -57 -110 -108 -13 -31 -15 -95 -15 -396
l0 -358 28 -55 c17 -35 42 -64 70 -84 43 -30 45 -30 203 -33 l159 -4 0 -309 0
-309 65 0 65 0 0 310 0 310 256 0 c288 0 313 4 379 62 72 64 75 81 75 464 0
313 -1 337 -21 389 -24 66 -74 117 -128 133 -27 8 -180 12 -507 12 l-469 0
-50 -24z m713 -48 c8 -8 12 -61 12 -175 0 -152 -1 -163 -20 -173 -14 -8 -26
-8 -40 0 -19 10 -20 21 -20 179 0 92 3 171 7 174 11 11 48 8 61 -5z m-328
-178 c36 -36 26 -60 -61 -142 l-81 -78 358 0 c319 0 359 -2 376 -17 22 -20 23
-61 1 -85 -15 -17 -40 -18 -374 -18 l-359 0 80 -76 c86 -82 96 -108 60 -144
-36 -36 -63 -26 -153 58 -45 42 -118 110 -161 150 -77 72 -79 74 -60 91 309
291 330 305 374 261z m329 -394 c8 -9 11 -65 9 -176 -3 -142 -5 -164 -20 -174
-13 -8 -23 -8 -35 0 -16 10 -18 32 -21 174 -3 168 2 190 38 190 10 0 23 -6 29
-14z"/>
<path d="M10460 15019 c-120 -17 -251 -85 -310 -159 -43 -54 -77 -134 -90
-210 -7 -44 -10 -239 -8 -600 l3 -535 26 -70 c59 -162 151 -251 302 -291 44
-12 1245 -14 8101 -14 7284 0 8054 1 8109 16 132 34 249 119 295 216 50 104
52 126 52 698 0 579 -1 589 -56 709 -51 112 -130 181 -254 224 l-65 22 -8025
1 c-4414 1 -8050 -2 -8080 -7z m3980 -404 l0 -265 -60 0 -60 0 0 265 0 265 60
0 60 0 0 -265z m210 0 l0 -265 -60 0 -60 0 0 265 0 265 60 0 60 0 0 -265z
m628 237 c43 -56 -37 -123 -90 -75 -44 39 -2 111 57 96 11 -3 26 -12 33 -21z
m-4530 -8 c14 -10 22 -25 22 -46 0 -25 -14 -43 -77 -104 l-78 -73 149 -1 c164
0 186 -7 186 -59 -1 -60 -30 -71 -193 -71 l-135 0 74 -72 c53 -51 74 -78 74
-96 0 -36 -27 -62 -64 -62 -26 1 -57 25 -186 145 -85 79 -155 148 -155 152 0
5 71 75 158 156 163 152 180 162 225 131z m2152 -189 l0 -204 98 -3 97 -3 3
-47 3 -48 -160 0 -161 0 0 255 0 255 60 0 60 0 0 -205z m-1040 46 c45 -23 76
-69 84 -124 12 -76 10 -77 -125 -77 -76 0 -119 -4 -119 -10 0 -6 12 -22 26
-36 24 -24 30 -26 105 -22 75 3 80 2 85 -19 14 -56 -7 -70 -112 -72 -76 -1
-120 13 -162 52 -67 64 -69 197 -4 271 47 52 158 71 222 37z m370 -36 l0 -55
-34 0 c-25 0 -40 -7 -55 -26 -18 -23 -21 -41 -21 -130 l0 -104 -60 0 -60 0 0
180 0 180 50 0 c47 0 50 -2 50 -25 0 -32 2 -31 38 5 21 20 40 30 61 30 31 0
31 0 31 -55z m275 45 c25 -9 27 -14 20 -48 -4 -20 -8 -38 -8 -39 -1 -1 -21 4
-45 10 -30 8 -48 8 -59 1 -32 -20 -25 -34 32 -59 74 -33 105 -67 105 -115 0
-93 -115 -145 -242 -109 -42 11 -42 10 -28 60 l10 37 38 -14 c49 -17 87 -17
102 1 17 20 5 33 -54 59 -29 13 -62 36 -74 51 -42 54 -17 130 52 161 37 16
114 18 151 4z m885 -9 c45 -23 76 -69 84 -124 12 -76 10 -77 -125 -77 -76 0
-119 -4 -119 -10 0 -6 12 -22 26 -36 24 -24 30 -26 105 -22 75 3 80 2 85 -19
14 -56 -7 -70 -112 -72 -76 -1 -120 13 -162 52 -67 64 -69 197 -4 271 47 52
158 71 222 37z m775 3 c61 -29 69 -53 75 -212 l5 -142 -52 0 c-40 0 -53 4 -53
15 0 12 -7 11 -40 -6 -59 -31 -124 -22 -163 21 -26 29 -29 38 -24 83 3 41 11
56 35 78 33 30 88 49 140 49 40 0 44 25 6 42 -19 9 -39 9 -82 0 -30 -6 -57
-10 -60 -8 -2 3 -5 19 -5 38 -2 29 2 34 33 45 50 17 146 16 185 -3z m831 -3
c136 -62 137 -274 2 -340 -82 -39 -197 -19 -246 44 -49 62 -53 168 -8 236 48
72 164 100 252 60z m589 9 c25 -9 27 -14 20 -48 -4 -20 -8 -38 -8 -39 -1 -1
-21 4 -45 10 -30 8 -48 8 -59 1 -32 -20 -25 -34 32 -59 74 -33 105 -67 105
-115 0 -93 -115 -145 -242 -109 -42 11 -42 10 -28 60 l10 37 38 -14 c49 -17
87 -17 102 1 17 20 5 33 -54 59 -29 13 -62 36 -74 51 -42 54 -17 130 52 161
37 16 114 18 151 4z m-4239 -115 c18 -60 33 -112 34 -115 1 -3 16 47 34 110
l32 115 63 3 c35 2 61 -1 60 -6 -2 -5 -33 -87 -69 -181 l-65 -172 -60 3 -60 3
-62 165 c-34 91 -62 171 -62 178 -1 10 15 12 61 10 l61 -3 33 -110z m2310 0
c18 -60 33 -112 34 -115 1 -3 16 47 34 110 l32 115 63 3 c35 2 61 -1 60 -6 -2
-5 -33 -87 -69 -181 l-65 -172 -60 3 -60 3 -62 165 c-34 91 -62 171 -62 178
-1 10 15 12 61 10 l61 -3 33 -110z m1634 -65 l0 -180 -60 0 -60 0 0 180 0 180
60 0 60 0 0 -180z m2478 -332 c29 -101 55 -202 58 -226 4 -23 10 -44 14 -47 3
-2 15 31 25 73 10 42 39 145 65 227 l48 150 101 3 101 3 0 -38 c0 -21 7 -150
15 -288 8 -137 15 -271 15 -297 l0 -48 -69 0 -69 0 -6 63 c-3 34 -9 151 -13
260 l-8 199 -38 -129 c-21 -70 -56 -185 -78 -255 l-40 -128 -59 0 -59 0 -11
43 c-7 23 -27 96 -45 162 -19 66 -43 160 -54 208 -10 49 -21 90 -24 93 -2 2
-7 -80 -11 -183 -3 -104 -9 -221 -13 -260 l-6 -73 -69 0 -70 0 6 48 c3 26 13
176 23 335 l17 287 101 0 102 0 51 -182z m1641 154 c53 -20 99 -75 108 -125 7
-46 -25 -114 -67 -142 -31 -20 -39 -35 -19 -35 43 0 109 -92 109 -152 -1 -116
-112 -198 -268 -198 -73 0 -181 26 -189 45 -8 22 23 110 38 108 8 -1 39 -9 69
-18 97 -28 174 -3 186 60 11 61 -53 105 -153 105 l-43 0 0 55 0 55 45 0 c95 0
156 52 121 104 -22 34 -74 43 -140 24 -28 -8 -57 -17 -65 -19 -11 -3 -19 12
-29 49 -8 29 -12 55 -9 59 4 3 30 14 59 24 68 24 187 24 247 1z m4881 -757 l0
-265 -60 0 -60 0 0 265 0 265 60 0 60 0 0 -265z m210 0 l0 -265 -60 0 -60 0 0
265 0 265 60 0 60 0 0 -265z m188 237 c43 -56 -37 -123 -90 -75 -44 39 -2 111
57 96 11 -3 26 -12 33 -21z m1050 0 c43 -56 -37 -123 -90 -75 -44 39 -2 111
57 96 11 -3 26 -12 33 -21z m-2105 7 c40 -11 45 -24 26 -77 -9 -28 -13 -30
-35 -21 -41 15 -136 11 -174 -9 -64 -32 -96 -131 -69 -213 24 -72 101 -119
170 -104 28 6 29 9 29 61 l0 54 -40 0 -40 0 0 45 0 45 95 0 95 0 0 -135 0
-135 -27 -11 c-52 -21 -184 -23 -246 -5 -161 47 -221 258 -116 410 59 86 209
129 332 95z m2693 -21 c51 -39 305 -281 302 -288 -2 -3 -74 -72 -161 -153
-167 -156 -187 -167 -227 -127 -38 38 -26 66 58 146 l77 73 -147 1 c-134 0
-150 2 -168 20 -26 26 -25 58 2 87 21 22 28 23 167 23 l146 0 -77 73 c-88 82
-98 110 -52 146 34 26 44 26 80 -1z m-3976 -137 c45 -23 76 -69 84 -124 12
-76 10 -77 -125 -77 -76 0 -119 -4 -119 -10 0 -6 12 -22 26 -36 24 -24 30 -26
105 -22 75 3 80 2 85 -19 14 -56 -7 -70 -112 -72 -76 -1 -120 13 -162 52 -67
64 -69 197 -4 271 47 52 158 71 222 37z m380 -36 l0 -55 -34 0 c-25 0 -40 -7
-55 -26 -18 -23 -21 -41 -21 -130 l0 -104 -60 0 -60 0 0 180 0 180 50 0 c47 0
50 -2 50 -25 0 -32 2 -31 38 5 21 20 40 30 61 30 31 0 31 0 31 -55z m265 45
c25 -9 27 -14 20 -48 -4 -20 -8 -38 -8 -39 -1 -1 -21 4 -45 10 -30 8 -48 8
-59 1 -32 -20 -25 -34 32 -59 74 -33 105 -67 105 -115 0 -93 -115 -145 -242
-109 -42 11 -42 10 -28 60 l10 37 38 -14 c49 -17 87 -17 102 1 17 20 5 33 -54
59 -29 13 -62 36 -74 51 -42 54 -17 130 52 161 37 16 114 18 151 4z m1020 -6
c61 -29 69 -53 75 -212 l5 -142 -52 0 c-40 0 -53 4 -53 15 0 12 -7 11 -40 -6
-59 -31 -124 -22 -163 21 -26 29 -29 38 -24 83 3 41 11 56 35 78 33 30 88 49
140 49 40 0 44 25 6 42 -19 9 -39 9 -82 0 -30 -6 -57 -10 -60 -8 -2 3 -5 19
-5 38 -2 29 2 34 33 45 50 17 146 16 185 -3z m1025 -3 c45 -23 76 -69 84 -124
12 -76 10 -77 -125 -77 -76 0 -119 -4 -119 -10 0 -6 12 -22 26 -36 24 -24 30
-26 105 -22 75 3 80 2 85 -19 14 -56 -7 -70 -112 -72 -76 -1 -120 13 -162 52
-67 64 -69 197 -4 271 47 52 158 71 222 37z m440 3 c53 -32 64 -66 68 -216 l4
-138 -60 0 -60 0 -4 126 c-3 111 -5 127 -22 140 -26 19 -39 18 -70 -7 -25 -20
-26 -23 -26 -140 l0 -119 -60 0 -60 0 0 180 0 180 49 0 c40 0 51 -4 56 -19 6
-19 7 -19 42 5 42 28 102 32 143 8z m-3644 -109 c18 -60 33 -112 34 -115 1 -3
16 47 34 110 l32 115 63 3 c35 2 61 -1 60 -6 -2 -5 -33 -87 -69 -181 l-65
-172 -60 3 -60 3 -62 165 c-34 91 -62 171 -62 178 -1 10 15 12 61 10 l61 -3
33 -110z m2864 -65 l0 -180 -60 0 -60 0 0 180 0 180 60 0 60 0 0 -180z m1050
0 l0 -180 -60 0 -60 0 0 180 0 180 60 0 60 0 0 -180z"/>
<path d="M11720 14620 c-33 -33 -24 -40 50 -40 39 0 70 3 70 8 0 4 -7 18 -16
30 -20 29 -76 30 -104 2z"/>
<path d="M13250 14620 c-33 -33 -24 -40 50 -40 39 0 70 3 70 8 0 4 -7 18 -16
30 -20 29 -76 30 -104 2z"/>
<path d="M14063 14510 c-19 -8 -43 -38 -43 -54 0 -12 33 -36 51 -36 29 0 59
36 59 70 0 25 -4 30 -22 29 -13 0 -33 -4 -45 -9z"/>
<path d="M14863 14616 c-25 -22 -28 -31 -28 -86 0 -55 3 -64 28 -86 15 -13 34
-24 42 -24 8 0 27 11 42 24 25 22 28 31 28 86 0 55 -3 64 -28 86 -15 13 -34
24 -42 24 -8 0 -27 -11 -42 -24z"/>
<path d="M22210 13600 c-33 -33 -24 -40 50 -40 39 0 70 3 70 8 0 4 -7 18 -16
30 -20 29 -76 30 -104 2z"/>
<path d="M23913 13490 c-19 -8 -43 -38 -43 -54 0 -12 33 -36 51 -36 29 0 59
36 59 70 0 25 -4 30 -22 29 -13 0 -33 -4 -45 -9z"/>
<path d="M24900 13600 c-33 -33 -24 -40 50 -40 39 0 70 3 70 8 0 4 -7 18 -16
30 -20 29 -76 30 -104 2z"/>
<path d="M32167 14707 c-20 -7 -193 -127 -385 -269 -270 -200 -353 -266 -370
-297 -29 -52 -29 -117 1 -162 20 -29 649 -506 717 -543 68 -37 145 -21 180 36
20 32 20 45 18 600 l-3 566 -25 27 c-20 22 -80 57 -92 54 -2 0 -20 -6 -41 -12z
m-4 -650 c1 -240 -1 -436 -4 -435 -4 2 -140 102 -302 222 l-296 219 222 165
c122 90 254 188 292 217 39 30 73 53 78 52 4 -1 8 -199 10 -440z"/>
<path d="M30700 14065 l0 -535 165 0 165 0 0 535 0 535 -165 0 -165 0 0 -535z"/>
<path d="M30310 14065 l0 -435 125 0 125 0 0 435 0 435 -125 0 -125 0 0 -435z"/>
<path d="M29972 14068 l3 -343 70 -1 c38 -1 75 1 82 3 11 4 13 75 11 342 l-3
336 -83 3 -82 3 2 -343z"/>
<path d="M32725 14344 c-51 -13 -112 -36 -128 -48 -17 -13 -16 -16 3 -62 12
-27 23 -50 24 -52 2 -1 19 7 39 18 86 51 189 28 203 -45 12 -64 -31 -129 -172
-262 -122 -114 -124 -117 -124 -160 l0 -43 230 0 230 0 0 60 0 60 -121 0 -121
0 89 88 c110 107 138 159 138 253 0 55 -5 72 -28 107 -36 55 -94 84 -177 88
-36 2 -74 1 -85 -2z"/>
<path d="M28859 13143 l-116 -288 -252 -3 -252 -2 1 -138 c1 -75 1 -435 0
-799 l0 -663 -8995 0 -8995 0 0 -1575 0 -1575 -170 0 -170 0 0 -30 0 -30 -294
0 -295 0 -3 33 -3 32 -1725 -4 c-1270 -2 -1727 -6 -1733 -15 -4 -6 -6 -60 -5
-121 l3 -110 1438 -3 1437 -2 0 -760 0 -760 885 0 885 0 0 2335 0 2335 8998 2
8997 3 3 785 c1 432 2 791 2 797 0 10 264 13 1268 15 l1267 3 2 109 c0 60 -1
115 -4 123 -4 11 -188 13 -1080 13 -877 0 -1074 2 -1070 13 3 7 51 127 106
266 56 139 101 254 99 256 -2 1 -23 10 -48 19 -25 10 -50 20 -55 22 -6 3 -63
-125 -126 -283z m-19184 -5628 c14 -13 25 -36 25 -50 0 -36 -42 -75 -80 -75
-38 0 -80 39 -80 75 0 36 42 75 80 75 19 0 40 -9 55 -25z m15 -435 l0 -240
-75 0 -75 0 0 240 0 240 75 0 75 0 0 -240z"/>
<path d="M10500 12195 l0 -535 165 0 165 0 0 534 0 535 -165 0 -165 0 0 -534z"/>
<path d="M26560 12195 l0 -535 165 0 165 0 0 535 0 535 -165 0 -165 0 0 -535z"/>
<path d="M10972 12193 l3 -438 123 -3 122 -3 0 441 0 440 -125 0 -125 0 2
-437z"/>
<path d="M26172 12193 l3 -438 123 -2 122 -2 0 440 0 439 -125 0 -125 0 2
-437z"/>
<path d="M11392 12193 l3 -338 83 -3 82 -3 0 341 0 340 -85 0 -86 0 3 -337z"/>
<path d="M25830 12190 l0 -340 85 0 85 0 0 340 0 340 -85 0 -85 0 0 -340z"/>
<path d="M30870 12065 c0 -52 -2 -95 -5 -95 -4 0 -20 7 -37 16 -67 35 -160 -1
-198 -76 -22 -44 -27 -140 -9 -187 36 -97 153 -131 229 -67 l30 26 0 -26 c0
-25 3 -26 50 -26 l50 0 0 265 0 265 -55 0 -55 0 0 -95z m-25 -175 c22 -24 30
-96 16 -133 -6 -15 -22 -32 -35 -38 -61 -28 -112 27 -103 108 6 55 30 83 72
83 19 0 39 -8 50 -20z"/>
<path d="M33036 12134 c-9 -8 -16 -24 -16 -35 0 -25 35 -59 60 -59 25 0 60 34
60 59 0 28 -27 51 -60 51 -16 0 -36 -7 -44 -16z"/>
<path d="M31978 12133 l-28 -4 0 -250 0 -249 55 0 55 0 0 89 0 88 63 5 c123
10 187 67 187 166 0 111 -58 155 -210 158 -52 1 -107 0 -122 -3z m202 -103
c28 -28 26 -75 -5 -105 -18 -19 -35 -25 -70 -25 l-45 0 0 75 0 75 50 0 c37 0
55 -5 70 -20z"/>
<path d="M32823 12072 c-51 -14 -53 -16 -53 -48 0 -30 -3 -34 -25 -34 -22 0
-25 -4 -25 -40 0 -36 3 -40 25 -40 25 0 25 0 25 -95 0 -60 5 -108 14 -130 17
-39 60 -65 110 -65 56 0 66 8 66 51 0 35 -3 39 -24 39 -46 0 -57 24 -54 114
l3 81 38 3 c36 3 37 4 37 43 0 39 0 39 -39 39 l-40 0 -3 48 -3 49 -52 -15z"/>
<path d="M33303 12072 c-51 -14 -53 -16 -53 -48 0 -30 -3 -34 -25 -34 -22 0
-25 -4 -25 -40 0 -36 3 -40 25 -40 25 0 25 0 25 -95 0 -60 5 -108 14 -130 17
-39 60 -65 110 -65 56 0 66 8 66 51 0 35 -3 39 -24 39 -46 0 -57 24 -54 114
l3 81 38 3 c36 3 37 4 37 43 0 39 0 39 -39 39 l-40 0 -3 48 -3 49 -52 -15z"/>
<path d="M29515 11989 c-11 -6 -30 -23 -42 -38 l-23 -26 0 33 c0 32 0 32 -51
32 -48 0 -51 -1 -45 -22 3 -13 6 -94 6 -180 l0 -158 55 0 55 0 0 110 c0 127
12 150 75 150 l35 0 0 55 c0 50 -2 55 -22 55 -13 0 -32 -5 -43 -11z"/>
<path d="M30173 11989 c-66 -19 -123 -102 -123 -179 0 -124 95 -200 235 -187
90 9 98 13 91 55 -3 19 -7 36 -8 38 -2 1 -24 -2 -50 -7 -57 -13 -121 2 -143
34 -8 12 -15 25 -15 29 0 5 54 8 120 8 l120 0 0 50 c0 126 -99 196 -227 159z
m110 -87 c35 -31 21 -42 -53 -42 -38 0 -70 3 -70 6 0 16 24 46 43 54 26 10 55
4 80 -18z"/>
<path d="M31163 11989 c-66 -19 -123 -102 -123 -179 0 -124 95 -200 235 -187
90 9 98 13 91 55 -3 19 -7 36 -8 38 -2 1 -24 -2 -50 -7 -57 -13 -121 2 -143
34 -8 12 -15 25 -15 29 0 5 54 8 120 8 l120 0 0 50 c0 126 -99 196 -227 159z
m110 -87 c35 -31 21 -42 -53 -42 -38 0 -70 3 -70 6 0 16 24 46 43 54 26 10 55
4 80 -18z"/>
<path d="M31545 11993 c-53 -15 -95 -66 -95 -117 0 -36 46 -82 105 -104 95
-37 58 -90 -43 -63 -25 6 -46 10 -49 8 -2 -3 -8 -18 -13 -36 -10 -36 2 -46 68
-57 99 -16 185 24 198 92 11 59 -11 92 -85 128 -48 23 -66 37 -66 51 0 17 7
20 45 20 25 -1 51 -3 59 -5 19 -6 39 56 24 71 -12 12 -118 21 -148 12z"/>
<path d="M32453 11989 c-66 -19 -123 -102 -123 -179 0 -124 95 -200 235 -187
90 9 98 13 91 55 -3 19 -7 36 -8 38 -2 1 -24 -2 -50 -7 -57 -13 -121 2 -143
34 -8 12 -15 25 -15 29 0 5 54 8 120 8 l120 0 0 50 c0 126 -99 196 -227 159z
m110 -87 c35 -31 21 -42 -53 -42 -38 0 -70 3 -70 6 0 16 24 46 43 54 26 10 55
4 80 -18z"/>
<path d="M33595 11993 c-53 -15 -95 -66 -95 -117 0 -36 46 -82 105 -104 95
-37 58 -90 -43 -63 -25 6 -46 10 -49 8 -2 -3 -8 -18 -13 -36 -10 -36 2 -46 68
-57 99 -16 185 24 198 92 11 59 -11 92 -85 128 -48 23 -66 37 -66 51 0 17 7
20 45 20 25 -1 51 -3 59 -5 19 -6 39 56 24 71 -12 12 -118 21 -148 12z"/>
<path d="M29640 11854 c0 -156 11 -193 65 -218 56 -27 114 -18 154 25 l21 23
0 -27 c0 -26 2 -27 50 -27 l50 0 0 180 0 180 -55 0 -55 0 0 -115 c0 -110 -1
-117 -25 -140 -29 -30 -49 -31 -75 -5 -18 18 -20 33 -20 140 l0 120 -55 0 -55
0 0 -136z"/>
<path d="M33030 11810 l0 -180 55 0 55 0 0 180 0 180 -55 0 -55 0 0 -180z"/>
<path d="M4320 11485 c0 -52 -2 -95 -5 -95 -4 0 -20 7 -37 16 -67 35 -160 -1
-198 -76 -22 -44 -27 -140 -9 -187 36 -97 153 -131 229 -67 l30 26 0 -26 c0
-25 3 -26 50 -26 l50 0 0 265 0 265 -55 0 -55 0 0 -95z m-25 -175 c22 -24 30
-96 16 -133 -6 -15 -22 -32 -35 -38 -61 -28 -112 27 -103 108 6 55 30 83 72
83 19 0 39 -8 50 -20z"/>
<path d="M2965 11409 c-11 -6 -30 -23 -42 -38 l-23 -26 0 33 c0 32 0 32 -51
32 -48 0 -51 -1 -45 -22 3 -13 6 -94 6 -180 l0 -158 55 0 55 0 0 110 c0 127
12 150 75 150 l35 0 0 55 c0 50 -2 55 -22 55 -13 0 -32 -5 -43 -11z"/>
<path d="M3623 11409 c-66 -19 -123 -102 -123 -179 0 -124 95 -200 235 -187
90 9 98 13 91 55 -3 19 -7 36 -8 38 -2 1 -24 -2 -50 -7 -57 -13 -121 2 -143
34 -8 12 -15 25 -15 29 0 5 54 8 120 8 l120 0 0 50 c0 126 -99 196 -227 159z
m110 -87 c35 -31 21 -42 -53 -42 -38 0 -70 3 -70 6 0 16 24 46 43 54 26 10 55
4 80 -18z"/>
<path d="M3090 11274 c0 -156 11 -193 65 -218 56 -27 114 -18 154 25 l21 23 0
-27 c0 -26 2 -27 50 -27 l50 0 0 180 0 180 -55 0 -55 0 0 -115 c0 -110 -1
-117 -25 -140 -29 -30 -49 -31 -75 -5 -18 18 -20 33 -20 140 l0 120 -55 0 -55
0 0 -136z"/>
<path d="M4520 11274 c0 -156 11 -193 65 -218 56 -27 114 -18 154 25 l21 23 0
-27 c0 -26 2 -27 50 -27 l50 0 0 180 0 180 -55 0 -55 0 0 -115 c0 -110 -1
-117 -25 -140 -29 -30 -49 -31 -75 -5 -18 18 -20 33 -20 140 l0 120 -55 0 -55
0 0 -136z"/>
<path d="M9145 11241 c-55 -14 -106 -43 -131 -77 -47 -62 -54 -107 -54 -371
l0 -243 -325 0 -326 0 3 -62 3 -63 321 -3 322 -2 4 -148 c4 -168 18 -214 80
-268 65 -57 80 -59 459 -59 l345 0 59 30 c63 32 98 73 115 134 6 22 10 214 10
482 0 513 -1 524 -75 595 -32 31 -56 45 -95 53 -57 12 -665 14 -715 2z m503
-277 c77 -83 143 -161 147 -173 11 -35 -19 -71 -59 -71 -30 0 -44 10 -105 77
l-71 77 0 -357 c0 -344 -1 -358 -20 -377 -24 -24 -48 -25 -78 -4 l-22 15 0
362 0 362 -78 -78 c-62 -62 -83 -77 -108 -77 -38 0 -54 16 -54 56 0 26 22 55
146 188 80 86 150 156 154 154 5 -2 71 -71 148 -154z m-274 -497 c11 -8 17
-23 14 -38 l-3 -24 -175 0 -175 0 -3 24 c-7 44 18 51 178 51 105 0 151 -4 164
-13z m580 -3 c18 -17 20 -32 8 -52 -7 -9 -50 -12 -183 -10 l-174 3 -3 24 c-7
44 18 51 184 51 125 0 155 -3 168 -16z"/>
<path d="M30242 11231 c-60 -21 -114 -67 -145 -126 -29 -54 -30 -193 -3 -245
49 -94 117 -133 231 -134 44 -1 93 3 109 7 27 8 28 10 22 50 -4 23 -8 42 -9
43 -1 1 -24 -2 -51 -7 -85 -16 -164 20 -192 87 -17 40 -18 112 -3 151 28 74
112 115 193 94 57 -14 53 -15 60 13 3 13 9 31 12 40 4 12 -4 20 -30 31 -48 20
-129 18 -194 -4z"/>
<path d="M30575 11087 c-37 -12 -40 -15 -37 -47 3 -43 5 -44 43 -31 49 17 103
14 122 -7 10 -10 17 -21 17 -24 0 -3 -24 -8 -54 -11 -132 -13 -198 -96 -151
-187 30 -59 105 -76 175 -40 34 17 40 18 40 5 0 -11 12 -15 50 -15 l50 0 0
128 c0 140 -11 178 -63 216 -34 25 -134 31 -192 13z m145 -221 c0 -57 -76 -91
-100 -46 -22 41 12 78 73 79 24 1 27 -2 27 -33z"/>
<path d="M31085 11089 c-11 -6 -30 -23 -42 -38 l-23 -26 0 33 c0 32 0 32 -51
32 -48 0 -51 -1 -45 -22 3 -13 6 -94 6 -180 l0 -158 55 0 55 0 0 110 c0 127
12 150 75 150 l35 0 0 55 c0 50 -2 55 -22 55 -13 0 -32 -5 -43 -11z"/>
<path d="M31365 11089 c-11 -6 -30 -23 -42 -38 l-23 -26 0 33 c0 32 0 32 -51
32 -48 0 -51 -1 -45 -22 3 -13 6 -94 6 -180 l0 -158 55 0 55 0 0 110 c0 127
12 150 75 150 l35 0 0 55 c0 50 -2 55 -22 55 -13 0 -32 -5 -43 -11z"/>
<path d="M31583 11089 c-66 -19 -123 -102 -123 -179 0 -124 95 -200 235 -187
90 9 98 13 91 55 -3 19 -7 36 -8 38 -2 1 -24 -2 -50 -7 -57 -13 -121 2 -143
34 -8 12 -15 25 -15 29 0 5 54 8 120 8 l120 0 0 50 c0 126 -99 196 -227 159z
m110 -87 c35 -31 21 -42 -53 -42 -38 0 -70 3 -70 6 0 16 24 46 43 54 26 10 55
4 80 -18z"/>
<path d="M31935 11087 c-37 -12 -40 -15 -37 -47 3 -43 5 -44 43 -31 49 17 103
14 122 -7 10 -10 17 -21 17 -24 0 -3 -24 -8 -54 -11 -132 -13 -198 -96 -151
-187 30 -59 105 -76 175 -40 34 17 40 18 40 5 0 -11 12 -15 50 -15 l50 0 0
128 c0 140 -11 178 -63 216 -34 25 -134 31 -192 13z m145 -221 c0 -57 -76 -91
-100 -46 -22 41 12 78 73 79 24 1 27 -2 27 -33z"/>
<path d="M32280 10954 c0 -156 11 -193 65 -218 56 -27 114 -18 154 25 l21 23
0 -27 c0 -26 2 -27 50 -27 l50 0 0 180 0 180 -55 0 -55 0 0 -115 c0 -110 -1
-117 -25 -140 -29 -30 -49 -31 -75 -5 -18 18 -20 33 -20 140 l0 120 -55 0 -55
0 0 -136z"/>
<path d="M32680 11086 c0 -3 25 -40 55 -82 30 -42 55 -81 55 -86 0 -5 -27 -49
-60 -98 l-61 -90 64 0 63 0 30 62 31 62 31 -54 c18 -30 33 -59 35 -63 1 -4 31
-7 65 -5 l63 3 -60 95 -60 95 23 30 c13 17 40 54 60 83 l38 52 -61 0 -61 0
-31 -56 -32 -55 -31 53 -32 53 -62 3 c-34 2 -62 1 -62 -2z"/>
<path d="M2780 10659 c-54 -17 -87 -46 -105 -93 -33 -85 18 -165 126 -201 78
-26 110 -73 74 -108 -29 -29 -104 -30 -178 -2 -12 5 -18 -3 -27 -34 -6 -23 -8
-46 -5 -51 9 -15 117 -33 171 -27 89 9 146 50 165 119 22 82 -27 155 -130 194
-73 27 -92 43 -89 73 5 41 49 57 117 43 61 -13 63 -12 79 36 11 31 10 33 -16
43 -39 16 -141 20 -182 8z"/>
<path d="M4206 10654 c-9 -8 -16 -24 -16 -35 0 -25 35 -59 60 -59 25 0 60 34
60 59 0 28 -27 51 -60 51 -16 0 -36 -7 -44 -16z"/>
<path d="M3983 10592 c-51 -14 -53 -16 -53 -48 0 -30 -3 -34 -25 -34 -22 0
-25 -4 -25 -40 0 -36 3 -40 25 -40 25 0 25 0 25 -95 0 -60 5 -108 14 -130 17
-39 60 -65 110 -65 56 0 66 8 66 51 0 35 -3 39 -24 39 -46 0 -57 24 -54 114
l3 81 38 3 c36 3 37 4 37 43 0 39 0 39 -39 39 l-40 0 -3 48 -3 49 -52 -15z"/>
<path d="M3183 10509 c-66 -19 -123 -102 -123 -179 0 -124 95 -200 235 -187
90 9 98 13 91 55 -3 19 -7 36 -8 38 -2 1 -24 -2 -50 -7 -57 -13 -121 2 -143
34 -8 12 -15 25 -15 29 0 5 54 8 120 8 l120 0 0 50 c0 126 -99 196 -227 159z
m110 -87 c35 -31 21 -42 -53 -42 -38 0 -70 3 -70 6 0 16 24 46 43 54 26 10 55
4 80 -18z"/>
<path d="M3644 10506 c-18 -8 -35 -19 -38 -25 -11 -18 -26 -13 -26 9 0 17 -7
20 -51 20 l-51 0 6 -31 c3 -17 6 -98 6 -180 l0 -149 55 0 55 0 0 120 c0 107 2
122 20 140 11 11 29 20 40 20 11 0 29 -9 40 -20 18 -18 20 -33 20 -140 l0
-120 55 0 55 0 0 139 c0 127 -2 141 -23 172 -39 57 -97 73 -163 45z"/>
<path d="M4503 10509 c-66 -19 -123 -102 -123 -179 0 -124 95 -200 235 -187
90 9 98 13 91 55 -3 19 -7 36 -8 38 -2 1 -24 -2 -50 -7 -57 -13 -121 2 -143
34 -8 12 -15 25 -15 29 0 5 54 8 120 8 l120 0 0 50 c0 126 -99 196 -227 159z
m110 -87 c35 -31 21 -42 -53 -42 -38 0 -70 3 -70 6 0 16 24 46 43 54 26 10 55
4 80 -18z"/>
<path d="M4955 10509 c-11 -6 -30 -23 -42 -38 l-23 -26 0 33 c0 32 0 32 -51
32 -48 0 -51 -1 -45 -22 3 -13 6 -94 6 -180 l0 -158 55 0 55 0 0 110 c0 127
12 150 75 150 l35 0 0 55 c0 50 -2 55 -22 55 -13 0 -32 -5 -43 -11z"/>
<path d="M4200 10330 l0 -180 55 0 55 0 0 180 0 180 -55 0 -55 0 0 -180z"/>
<path d="M4735 9650 c-11 -4 -31 -20 -45 -35 l-25 -27 -3 -561 c-2 -407 1
-569 9 -590 19 -45 65 -77 110 -77 22 0 50 5 62 11 23 12 366 263 581 426 72
54 139 110 149 125 11 14 22 49 25 76 5 55 -10 92 -55 133 -52 48 -647 483
-692 506 -46 24 -81 28 -116 13z m264 -322 c314 -232 416 -309 419 -317 3 -8
-579 -443 -585 -438 -4 5 -9 877 -4 877 2 0 78 -55 170 -122z"/>
<path d="M5860 9006 l0 -534 165 -1 165 -2 0 536 0 535 -165 0 -165 0 0 -534z"/>
<path d="M6330 9009 l0 -439 125 0 125 0 -2 438 -3 437 -122 2 -123 1 0 -439z"/>
<path d="M6750 9010 l0 -340 85 0 85 0 0 340 0 340 -85 0 -85 0 0 -340z"/>
<path d="M4095 9242 c-44 -20 -82 -39 -84 -42 -6 -8 9 -99 18 -104 4 -3 31 6
60 20 29 13 55 24 57 24 2 0 4 -115 4 -255 l0 -255 75 0 75 0 0 325 0 325 -62
0 c-52 0 -78 -7 -143 -38z"/>
</g>
</svg>
