<?xml version="1.0" standalone="no"?>
<!DOCTYPE svg PUBLIC "-//W3C//DTD SVG 20010904//EN"
 "http://www.w3.org/TR/2001/REC-SVG-20010904/DTD/svg10.dtd">
<svg version="1.0" xmlns="http://www.w3.org/2000/svg"
 width="3508.000000pt" height="2480.000000pt" viewBox="0 0 3508.000000 2480.000000"
 preserveAspectRatio="xMidYMid meet">
<metadata>
Created by potrace 1.11, written by Peter Selinger 2001-2013
</metadata>
<g transform="translate(0.000000,2480.000000) scale(0.100000,-0.100000)"
fill="#000000" stroke="none">
<path d="M1240 22755 l0 -955 8490 0 8490 0 0 955 0 955 -8490 0 -8490 0 0
-955z m7790 -15 l0 -380 -69 0 c-72 0 -81 6 -81 52 0 18 -3 17 -34 -10 -124
-109 -311 -36 -347 136 -31 149 31 288 146 332 65 25 181 6 207 -34 4 -6 8 55
8 137 l0 147 85 0 85 0 0 -380z m3180 0 l0 -380 -80 0 -80 0 0 380 0 380 80 0
80 0 0 -380z m-7343 355 c44 -31 37 -111 -13 -134 -62 -28 -124 5 -124 67 0
69 78 108 137 67z m5868 -10 c51 -50 22 -122 -52 -132 -35 -5 -45 -2 -67 20
-53 53 -17 137 59 137 25 0 44 -8 60 -25z m1752 10 c11 -8 24 -27 27 -41 21
-81 -81 -138 -139 -79 -51 50 -17 135 54 135 20 0 46 -7 58 -15z m2653 -10
c69 -74 -33 -178 -113 -115 -33 26 -41 63 -22 99 17 34 27 39 76 40 26 1 42
-6 59 -24z m-12736 -24 c67 -29 129 -92 162 -164 27 -57 29 -71 29 -178 0
-113 -1 -118 -35 -185 -24 -47 -48 -78 -77 -99 -23 -16 -42 -33 -42 -36 -1 -3
35 -13 79 -23 44 -9 80 -21 80 -26 0 -5 -9 -34 -20 -64 l-21 -54 -37 10 c-20
5 -86 29 -147 53 -60 23 -132 46 -160 50 -116 15 -207 81 -257 184 -31 62 -33
72 -33 176 0 91 4 120 23 166 26 64 85 137 139 170 82 51 227 60 317 20z
m7931 -3 c22 -7 58 -31 81 -53 34 -32 44 -49 49 -88 12 -82 -22 -160 -86 -192
l-29 -16 33 -33 c34 -33 41 -52 90 -228 l24 -88 -83 0 -82 0 -16 48 c-8 26
-22 75 -30 110 -23 102 -53 132 -132 132 l-34 0 0 -145 0 -145 -80 0 -80 0 0
354 0 355 53 4 c91 8 280 -1 322 -15z m3430 7 c69 -18 120 -55 153 -111 19
-33 22 -51 20 -111 -3 -60 -8 -78 -33 -115 -45 -64 -124 -100 -231 -106 l-84
-5 0 -128 0 -129 -80 0 -80 0 2 353 3 352 50 6 c99 12 221 9 280 -6z m2545
-355 l0 -350 -80 0 -80 0 0 275 0 275 -61 -31 c-34 -16 -63 -28 -66 -25 -3 3
-11 30 -18 60 l-13 54 92 45 c79 40 100 46 159 46 l67 1 0 -350z m-11788 238
l3 -73 58 -3 58 -3 -3 -57 -3 -57 -57 -3 -58 -3 0 -98 c0 -126 11 -158 55
-167 19 -3 38 -3 43 0 13 8 22 -18 22 -62 0 -61 -9 -67 -99 -67 -90 0 -120 15
-156 76 -17 29 -20 57 -24 176 l-3 142 -32 3 c-30 3 -31 4 -34 61 l-3 57 36 0
35 0 0 58 0 59 63 15 c101 25 96 28 99 -54z m-851 -86 c36 -14 86 -75 98 -119
6 -21 11 -116 13 -211 l3 -172 -72 0 c-64 0 -73 2 -73 18 0 30 -10 32 -47 6
-64 -43 -157 -44 -216 -2 -42 30 -71 100 -63 152 15 93 90 149 225 168 45 6
81 15 81 20 0 4 -9 17 -20 28 -16 16 -33 20 -82 20 -35 -1 -80 -7 -100 -14
l-37 -13 -16 45 c-8 25 -12 49 -8 53 12 10 104 38 138 41 41 4 145 -8 176 -20z
m549 -58 l0 -74 -45 0 c-35 0 -52 -6 -77 -29 l-33 -29 -3 -156 -4 -156 -79 0
-79 0 0 255 0 255 70 0 70 0 0 -47 0 -48 21 32 c11 17 32 39 47 49 27 18 90
34 105 27 4 -2 7 -38 7 -79z m1170 48 c66 -34 121 -163 108 -253 l-3 -24 -167
-3 c-157 -2 -168 -4 -168 -21 0 -27 53 -69 96 -77 38 -7 147 0 176 11 13 5 18
-4 27 -45 6 -28 11 -53 11 -55 0 -11 -76 -27 -150 -32 -115 -8 -184 12 -244
70 -118 114 -92 340 48 422 79 46 184 49 266 7z m518 -46 l-3 -71 -54 -5 c-42
-5 -58 -12 -77 -33 -23 -27 -24 -34 -24 -183 l0 -154 -85 0 -85 0 0 255 0 255
70 0 70 0 1 -47 0 -48 17 25 c31 45 63 69 106 78 64 13 67 9 64 -72z m464 47
c35 -37 33 -107 -5 -139 -38 -32 -86 -32 -126 2 -56 47 -37 144 32 162 44 11
71 4 99 -25z m658 -49 l0 -74 -40 0 c-55 0 -95 -23 -109 -61 -6 -18 -11 -94
-11 -170 l0 -139 -80 0 -80 0 0 255 0 255 70 0 70 0 0 -47 0 -48 18 30 c24 39
44 55 88 70 65 22 74 13 74 -71z m1084 39 c59 -42 90 -108 90 -197 l1 -71
-167 -3 c-182 -3 -187 -5 -147 -55 11 -15 39 -32 62 -38 41 -11 154 -7 189 6
17 7 21 -2 32 -66 6 -35 5 -38 -26 -49 -18 -6 -67 -14 -108 -17 -186 -14 -294
56 -322 206 -29 155 65 298 209 320 69 10 141 -4 187 -36z m6796 -39 l0 -73
-34 1 c-19 1 -48 -5 -66 -12 -52 -21 -60 -51 -60 -215 l0 -145 -80 0 -79 0 -3
255 -3 255 73 0 c39 0 71 -3 71 -7 -1 -5 -1 -26 0 -48 l1 -40 18 30 c24 39 44
55 88 70 65 22 74 13 74 -71z m688 62 c25 -8 27 -23 11 -79 -10 -36 -12 -38
-37 -31 -51 15 -134 11 -145 -8 -16 -25 13 -51 83 -77 76 -28 117 -62 131
-111 18 -58 4 -109 -41 -151 -60 -57 -181 -75 -288 -44 -57 17 -58 21 -41 91
9 36 15 44 28 38 9 -4 42 -14 73 -22 48 -12 63 -12 88 -2 25 10 30 18 28 39
-3 22 -14 30 -73 53 -47 19 -83 42 -109 69 -36 39 -38 43 -34 93 7 86 61 139
158 156 36 6 129 -2 168 -14z m1329 -9 c68 -36 105 -104 111 -209 l5 -78 -172
0 c-186 0 -191 -2 -151 -53 34 -43 131 -59 225 -37 22 5 43 6 47 2 4 -4 8 -29
10 -57 l3 -49 -50 -12 c-65 -16 -161 -17 -224 -3 -114 24 -184 121 -184 253 0
104 38 180 118 232 63 41 193 46 262 11z m523 -53 l0 -73 -34 1 c-19 1 -48 -5
-66 -12 -52 -21 -60 -51 -60 -215 l0 -145 -80 0 -79 0 -3 255 -3 255 73 0 c39
0 71 -3 71 -7 -1 -5 -1 -26 0 -48 l1 -40 18 30 c24 39 44 55 88 70 65 22 74
13 74 -71z m-7952 61 c70 -30 116 -90 132 -176 6 -29 7 -68 4 -86 l-6 -33
-169 0 c-97 0 -169 -4 -169 -9 0 -21 53 -70 87 -82 35 -11 140 -8 189 7 20 5
23 1 29 -46 4 -29 3 -56 -2 -61 -13 -13 -108 -29 -173 -29 -127 0 -232 63
-264 157 -35 102 -13 227 52 297 64 68 202 97 290 61z m2336 -19 c148 -87 168
-312 38 -426 -100 -88 -274 -93 -374 -10 -119 99 -118 317 3 413 58 45 103 58
200 54 72 -2 93 -7 133 -31z m2512 15 c54 -25 92 -75 104 -141 5 -29 10 -122
10 -207 l0 -154 -72 3 c-67 3 -73 5 -76 25 l-3 22 -41 -27 c-55 -36 -160 -39
-205 -6 -47 35 -73 82 -73 131 0 113 82 180 243 198 60 7 68 16 40 47 -21 23
-127 25 -180 3 -19 -8 -37 -15 -38 -15 -7 0 -26 90 -21 99 25 39 240 55 312
22z m-11476 -128 c1 -158 10 -210 42 -236 29 -24 86 -17 111 14 15 18 17 44
17 190 l0 169 85 0 85 0 0 -255 0 -255 -70 0 -70 0 0 35 c0 19 -3 35 -6 35 -3
0 -19 -13 -35 -30 -81 -81 -233 -60 -289 40 -24 43 -25 54 -28 238 l-4 192 81
0 81 0 0 -137z m2020 -118 l0 -255 -80 0 -80 0 0 255 0 255 80 0 80 0 0 -255z
m2392 84 l3 -171 28 -24 c38 -32 72 -31 108 5 l29 29 0 166 0 166 80 0 80 0 1
-222 c0 -123 1 -238 2 -256 l2 -33 -70 3 -70 3 -5 34 -5 33 -20 -22 c-47 -53
-150 -75 -218 -46 -42 17 -83 66 -97 114 -5 20 -10 117 -10 215 l0 177 79 0
80 0 3 -171z m3468 -84 l0 -255 -80 0 -80 0 0 255 0 255 80 0 80 0 0 -255z
m301 85 c26 -91 49 -167 49 -170 1 -3 23 72 49 165 l48 170 86 3 86 3 -25 -68
c-14 -37 -57 -152 -96 -255 l-72 -188 -81 0 -82 0 -78 213 c-43 116 -86 231
-96 255 l-18 43 91 -3 91 -3 48 -165z m1459 -85 l0 -255 -80 0 -80 0 0 255 0
255 80 0 80 0 0 -255z m2650 0 l0 -255 -85 0 -85 0 0 255 0 255 85 0 85 0 0
-255z m-2052 23 l-3 -53 -137 -3 -138 -3 0 56 0 55 141 0 140 0 -3 -52z
m-6745 -118 c49 -39 41 -131 -12 -160 -93 -49 -191 81 -116 155 31 32 91 34
128 5z"/>
<path d="M8700 22733 c-87 -78 -41 -253 66 -253 26 0 43 8 65 29 27 28 29 34
29 111 0 77 -2 83 -29 111 -39 39 -89 40 -131 2z"/>
<path d="M2194 22942 c-73 -46 -109 -138 -102 -256 8 -112 57 -189 135 -206
74 -17 135 17 179 100 30 55 27 219 -4 282 -13 27 -37 58 -54 70 -43 30 -114
35 -154 10z"/>
<path d="M10127 22953 c-4 -3 -7 -46 -7 -95 l0 -88 55 0 c88 0 135 33 135 95
0 39 -18 65 -55 81 -35 14 -116 19 -128 7z"/>
<path d="M13613 22953 c-22 -4 -23 -9 -23 -104 0 -116 2 -119 89 -101 38 8 63
20 79 37 38 45 25 127 -26 154 -23 12 -91 20 -119 14z"/>
<path d="M3575 22605 c-5 -2 -22 -6 -38 -9 -36 -8 -67 -40 -67 -69 0 -56 81
-79 126 -36 19 18 24 33 24 71 0 48 -8 55 -45 43z"/>
<path d="M5214 22771 c-26 -12 -54 -49 -54 -73 0 -16 11 -18 96 -18 l96 0 -7
28 c-3 15 -14 35 -24 45 -20 21 -77 30 -107 18z"/>
<path d="M7925 22766 c-27 -12 -55 -51 -55 -76 0 -6 42 -10 96 -10 l96 0 -7
28 c-14 57 -73 84 -130 58z"/>
<path d="M16754 22765 c-28 -15 -54 -51 -54 -75 0 -6 41 -10 95 -10 87 0 95 2
95 19 0 29 -41 70 -75 76 -17 3 -43 -1 -61 -10z"/>
<path d="M9355 22771 c-26 -11 -51 -40 -59 -68 -7 -23 -6 -23 87 -23 51 0 96
3 100 6 12 12 -17 65 -44 79 -31 17 -54 18 -84 6z"/>
<path d="M11632 22754 c-35 -24 -52 -68 -52 -134 0 -94 37 -150 100 -150 86 0
131 97 99 214 -21 74 -92 109 -147 70z"/>
<path d="M14222 22600 c-51 -12 -73 -38 -70 -79 4 -49 41 -68 92 -47 42 18 58
45 54 94 -3 41 -17 47 -76 32z"/>
<path d="M29730 21265 l0 -25 -545 0 c-538 0 -545 0 -545 20 0 19 -7 20 -150
20 -143 0 -150 -1 -150 -20 0 -16 -7 -20 -30 -20 l-30 0 0 -545 0 -545 -1260
0 -1260 0 0 -855 0 -855 -1010 0 -1010 0 0 -295 0 -295 1010 0 1010 0 0 -185
0 -185 -1395 0 -1395 0 0 -295 0 -295 1395 0 1395 0 0 -150 0 -150 190 0 190
0 0 -3015 0 -3015 -155 0 -155 0 0 -1705 0 -1705 1805 0 1805 0 0 350 0 350
2815 0 2815 0 0 810 0 810 -440 0 -440 0 0 1075 0 1075 -535 0 -535 0 0 30 0
30 -1840 0 -1840 0 0 1705 0 1705 1254 0 1254 0 1 886 c0 488 2 889 5 891 2 3
266 5 585 6 l581 2 0 173 0 172 205 0 205 0 0 744 0 744 -1605 -3 -1605 -3 2
792 3 791 55 6 c74 8 148 43 188 90 28 33 40 39 73 39 70 0 161 31 228 79 114
81 109 79 158 63 24 -8 43 -19 43 -24 0 -5 5 -6 10 -3 6 3 10 2 10 -4 0 -24
273 -75 369 -69 22 1 45 -3 53 -9 25 -21 123 -53 164 -53 33 0 46 -6 75 -36
18 -20 61 -49 93 -66 58 -29 61 -30 132 -19 71 10 192 59 215 87 6 8 18 14 26
14 19 0 132 56 164 81 23 18 31 19 68 9 54 -14 181 2 226 30 30 19 35 19 68 5
41 -17 276 -40 313 -31 14 4 42 -1 67 -13 23 -10 53 -22 67 -26 14 -4 35 -13
48 -21 12 -8 22 -10 22 -4 0 5 16 10 36 10 30 0 46 -9 93 -52 32 -29 102 -78
157 -108 83 -46 109 -55 161 -58 49 -3 66 -9 84 -28 21 -22 30 -24 126 -24
l103 0 0 545 0 545 -380 0 -380 0 0 25 c0 24 -2 25 -70 25 -68 0 -70 -1 -70
-25 l0 -25 -445 0 -445 0 0 25 0 25 -1250 0 -1250 0 0 -25z m-50 -1151 c105
-27 199 -82 280 -163 132 -131 190 -271 190 -451 0 -113 -19 -198 -61 -283
-172 -340 -583 -458 -910 -261 -126 76 -245 238 -284 389 -17 69 -20 210 -4
287 16 78 92 226 149 290 96 108 242 185 392 208 64 10 173 3 248 -16z m-617
-1417 c6 10 259 9 275 -1 6 -3 13 -2 16 3 5 8 389 9 406 1 3 -1 10 -1 15 0 27
6 126 6 130 0 4 -6 40 -6 55 0 8 3 355 -1 358 -5 3 -3 5 -785 3 -1442 l-1
-381 -662 3 c-365 1 -840 3 -1055 4 l-393 1 0 38 c-1 55 -48 152 -97 196 -34
30 -43 45 -43 71 0 50 -24 95 -75 145 -80 77 -265 303 -265 324 0 4 -20 37
-45 75 -25 38 -70 122 -101 187 -31 66 -64 136 -74 158 l-19 38 27 41 c23 35
27 50 26 117 0 42 -4 81 -8 88 -4 7 -7 85 -7 174 l0 163 753 5 c414 3 758 1
765 -3 6 -4 14 -4 16 0z m1847 -862 l0 -435 -100 0 -100 0 0 339 0 340 -77
-35 c-42 -19 -82 -33 -89 -30 -15 6 -42 148 -28 153 5 2 54 25 109 52 97 48
103 49 193 50 l92 1 0 -435z m740 0 l0 -435 -100 0 -100 0 0 339 0 340 -77
-35 c-42 -19 -82 -33 -89 -30 -15 6 -42 148 -28 153 5 2 54 25 109 52 97 48
103 49 193 50 l92 1 0 -435z m900 5 l0 -410 -95 0 -95 0 0 320 0 320 -70 -35
c-38 -19 -73 -35 -78 -35 -7 0 -46 140 -40 145 2 2 50 26 108 53 99 48 110 51
188 51 l82 1 0 -410z m788 168 l2 -237 48 -3 47 -3 0 -70 0 -70 -50 -3 -50 -3
3 -94 3 -95 -95 0 -96 0 0 95 0 95 -180 0 -180 0 0 66 0 66 146 236 c81 130
151 243 157 250 7 9 41 12 126 10 l116 -3 3 -237z m-2048 -1540 c173 -41 340
-181 422 -354 209 -443 -180 -957 -667 -883 -202 31 -382 165 -474 352 -46 96
-63 171 -63 277 2 182 73 337 214 464 152 138 366 192 568 144z m-1625 -3
c173 -44 337 -178 413 -336 48 -101 62 -162 62 -274 0 -112 -14 -173 -62 -274
-69 -145 -219 -275 -375 -325 -121 -40 -279 -36 -398 9 -187 70 -320 209 -385
403 -112 335 92 701 445 797 68 19 227 18 300 0z m4485 -5149 c0 -2 -8 -10
-17 -17 -16 -13 -17 -12 -4 4 13 16 21 21 21 13z m-5395 -301 l120 -55 165 5
c220 6 207 6 278 -1 51 -5 73 -2 117 16 l53 22 47 -21 c69 -31 140 -28 221 9
l66 29 51 -26 c48 -25 64 -28 188 -31 125 -4 140 -2 179 18 l43 22 51 -22 c28
-13 67 -31 87 -41 l37 -19 83 44 c46 25 103 52 127 62 l43 17 82 -39 82 -39
150 1 c83 1 159 2 170 2 11 1 49 -1 84 -4 45 -4 75 -1 105 10 38 15 46 15 79
1 46 -19 140 -19 177 0 25 13 33 13 63 0 55 -23 329 -19 377 5 34 17 36 17 70
-1 20 -10 56 -18 84 -19 31 0 61 -7 82 -21 l34 -21 0 -1307 0 -1308 -37 -12
c-29 -9 -252 -11 -933 -7 -492 2 -906 4 -920 4 -14 0 -430 -2 -925 -4 l-900
-4 -150 74 -150 75 -164 165 -164 164 92 89 c50 49 91 92 91 95 0 3 16 29 35
57 19 29 81 147 139 264 99 202 104 216 109 289 3 45 1 80 -4 84 -5 3 -21 23
-34 44 l-25 39 19 33 c11 18 23 54 26 80 7 45 3 55 -90 243 -88 178 -105 204
-174 277 -101 107 -143 138 -193 138 -39 0 -39 0 -75 78 -24 52 -53 95 -91
135 -54 55 -58 57 -108 57 -68 0 -74 14 -74 180 l0 130 493 0 493 0 119 -55z
m4918 -486 c85 -23 146 -111 147 -209 0 -86 -35 -148 -143 -254 l-92 -91 116
3 c137 4 141 2 137 -85 l-3 -58 -252 -3 -253 -2 0 54 0 54 80 71 c103 91 192
187 215 231 27 53 23 109 -9 137 -38 33 -116 32 -180 -2 -26 -14 -49 -25 -51
-25 -4 0 -45 107 -45 118 0 11 40 33 95 53 57 21 178 25 238 8z m-423 -54 c0
-49 -10 -76 -98 -257 -54 -112 -118 -245 -142 -295 l-44 -93 -94 0 c-52 0 -92
4 -90 8 2 4 65 128 141 274 75 147 137 269 137 272 0 3 -70 6 -155 6 l-155 0
0 70 0 70 250 0 250 0 0 -55z m-97 -1208 c104 -61 118 -212 26 -279 l-28 -21
32 -21 c69 -46 99 -126 78 -205 -16 -61 -49 -101 -104 -129 -111 -55 -265 -47
-358 19 -63 44 -88 151 -53 225 16 33 60 78 86 86 8 3 -1 18 -23 40 -71 71
-70 177 1 248 53 53 107 70 211 67 72 -3 93 -7 132 -30z m655 -49 l-3 -73
-137 -3 -138 -3 0 -28 c0 -16 -2 -36 -5 -44 -5 -10 1 -13 25 -9 46 7 154 -26
201 -60 91 -66 107 -215 32 -316 -52 -70 -196 -121 -301 -107 -75 10 -152 35
-152 48 1 7 7 37 14 67 9 38 18 54 27 51 139 -39 205 -37 251 9 36 37 39 96 6
128 -36 33 -73 42 -174 42 l-96 0 6 28 c3 15 12 92 21 172 9 80 18 151 20 158
3 9 53 12 205 12 l201 0 -3 -72z m1232 -211 c0 -2 -19 -21 -42 -42 l-43 -40
40 43 c36 39 45 47 45 39z m-150 -150 c0 -2 -19 -21 -42 -42 l-43 -40 40 43
c36 39 45 47 45 39z m-150 -150 c0 -2 -19 -21 -42 -42 l-43 -40 40 43 c36 39
45 47 45 39z m-150 -150 c0 -2 -19 -21 -42 -42 l-43 -40 40 43 c36 39 45 47
45 39z m-220 -177 c-19 -11 -39 -19 -45 -19 -5 0 6 8 25 19 19 11 40 19 45 19
6 0 -6 -8 -25 -19z"/>
<path d="M29136 19708 c-4 -73 -11 -182 -16 -243 -5 -60 -12 -174 -16 -253
l-7 -143 79 3 79 3 7 140 c3 77 9 209 13 293 4 84 9 152 10 150 2 -2 31 -111
65 -243 34 -132 68 -260 74 -285 l12 -45 68 0 69 0 58 185 c32 102 70 228 85
280 14 52 29 102 32 110 3 8 9 -84 13 -205 5 -121 11 -257 14 -302 l7 -83 79
0 79 0 0 35 c0 45 -29 585 -35 650 -2 28 -4 58 -5 68 0 15 -12 17 -112 17
l-113 0 -53 -168 c-29 -92 -62 -209 -75 -259 -12 -51 -24 -93 -27 -93 -3 0
-18 51 -33 113 -15 61 -46 178 -68 260 l-41 147 -118 0 -117 0 -7 -132z"/>
<path d="M29210 18183 l0 -88 195 3 c107 2 195 0 195 -3 0 -4 -79 -159 -175
-344 -96 -186 -175 -341 -175 -345 0 -4 50 -5 110 -4 l110 3 177 360 c176 360
177 360 177 430 l1 70 -307 3 -308 2 0 -87z"/>
<path d="M33112 18003 c-18 -38 -55 -106 -83 -149 l-50 -79 82 -3 c45 -2 83
-1 86 1 2 2 2 71 1 152 l-3 148 -33 -70z"/>
<path d="M30991 16158 c-12 -40 -40 -131 -63 -203 -22 -71 -66 -218 -98 -326
-32 -108 -63 -206 -69 -218 -12 -21 -11 -21 86 -21 l99 0 18 71 c10 38 22 86
27 105 l10 34 127 0 128 0 29 -105 30 -105 97 0 c54 0 98 4 98 8 0 5 -16 56
-35 113 -19 57 -59 185 -89 284 -30 99 -72 236 -93 305 l-39 125 -121 3 -121
3 -21 -73z m173 -197 c15 -65 36 -141 45 -169 10 -29 16 -54 13 -57 -7 -6
-177 -7 -184 0 -2 3 12 71 33 152 21 82 38 158 39 171 0 12 6 22 13 22 7 0 23
-46 41 -119z"/>
<path d="M29073 16043 l-43 -4 0 -210 0 -209 45 0 45 0 0 85 0 85 29 0 c42 0
56 -19 76 -100 l17 -70 44 0 c24 0 44 5 44 10 0 31 -43 157 -58 173 -18 18
-18 19 15 52 44 44 46 100 6 145 -28 30 -102 53 -157 48 -11 -1 -40 -3 -63 -5z
m139 -80 c43 -39 10 -103 -54 -103 l-38 0 0 60 0 60 37 0 c20 0 45 -7 55 -17z"/>
<path d="M29390 15835 l0 -215 129 0 129 0 4 35 4 34 -86 3 -85 3 -3 53 -3 52
75 0 76 0 0 30 c0 17 -1 33 -2 36 -2 4 -34 7 -73 8 l-70 1 -3 48 -3 47 80 0
81 0 0 40 0 40 -125 0 -125 0 0 -215z"/>
<path d="M29768 16043 l-48 -4 0 -210 0 -209 45 0 45 0 0 85 0 85 35 0 c25 0
38 -6 49 -22 14 -23 16 -29 36 -105 11 -43 11 -43 56 -43 45 0 46 1 39 28 -21
86 -39 136 -57 154 -19 19 -19 19 10 46 64 60 53 140 -23 180 -26 13 -123 21
-187 15z m144 -80 c25 -23 23 -68 -4 -87 -12 -9 -39 -16 -60 -16 l-38 0 0 53
c0 30 3 57 7 60 13 13 77 7 95 -10z"/>
<path d="M29104 10531 c-43 -11 -124 -51 -124 -62 0 -12 41 -119 45 -119 2 0
20 9 40 21 50 30 103 40 146 29 49 -13 72 -41 72 -88 0 -73 -57 -150 -214
-287 l-99 -87 0 -54 0 -54 250 0 250 0 0 70 0 70 -125 0 -125 0 88 88 c124
122 169 223 143 318 -17 65 -51 106 -110 137 -46 23 -66 27 -130 26 -42 -1
-90 -4 -107 -8z"/>
<path d="M31595 10519 c-58 -29 -90 -64 -121 -132 -96 -214 -18 -511 145 -557
146 -40 274 30 318 175 30 97 36 162 23 258 -19 135 -68 218 -155 258 -55 26
-157 25 -210 -2z m145 -119 c32 -17 53 -92 54 -198 1 -126 -9 -185 -40 -222
-52 -61 -124 -21 -141 78 -11 67 -8 219 6 270 20 72 68 100 121 72z"/>
<path d="M29691 10489 c-47 -22 -86 -41 -88 -43 -5 -5 18 -110 27 -119 4 -5
35 5 69 22 l61 31 0 -275 0 -275 85 0 85 0 0 350 0 350 -77 -1 c-69 0 -87 -5
-162 -40z"/>
<path d="M30870 10460 l0 -70 156 0 156 0 -141 -274 c-78 -151 -141 -277 -141
-280 0 -3 40 -6 88 -6 l88 0 142 295 c130 270 142 299 142 350 l0 55 -245 0
-245 0 0 -70z"/>
<path d="M28980 9220 l0 -70 155 0 c85 0 155 -4 155 -8 0 -8 -55 -117 -197
-390 l-84 -163 92 3 91 3 144 298 c126 260 144 304 144 347 l0 50 -250 0 -250
0 0 -70z"/>
<path d="M29671 9078 c-128 -208 -131 -214 -131 -270 l0 -58 155 0 155 0 0
-80 0 -80 80 0 80 0 0 80 0 80 40 0 40 0 0 65 0 65 -40 0 -40 0 0 205 0 205
-104 0 -104 0 -131 -212z m179 -63 l0 -135 -75 0 c-41 0 -75 2 -75 4 0 3 25
44 54 92 30 47 63 106 73 130 10 24 19 44 21 44 1 0 2 -61 2 -135z"/>
<path d="M30870 9220 l0 -70 155 0 c85 0 155 -2 155 -4 0 -1 -63 -126 -140
-277 -77 -151 -140 -275 -140 -276 0 -2 40 -3 88 -3 l88 0 142 295 c130 269
142 299 142 350 l0 55 -245 0 -245 0 0 -70z"/>
<path d="M31525 9278 c-2 -7 -11 -76 -20 -153 -8 -77 -18 -153 -21 -170 l-5
-30 98 -1 c105 -1 148 -14 177 -56 41 -58 -1 -139 -80 -154 -35 -6 -122 4
-180 21 -19 6 -22 0 -34 -55 -15 -72 -14 -73 63 -90 69 -14 175 -12 233 5 112
33 184 125 184 234 -1 136 -100 221 -257 221 l-54 0 6 38 c4 20 8 42 10 49 3
9 43 13 137 15 l133 3 0 65 0 65 -193 3 c-149 2 -193 0 -197 -10z"/>
<path d="M32954 9172 c-15 -10 -34 -47 -34 -66 0 -23 51 -74 80 -81 58 -14 98
87 54 136 -17 19 -78 26 -100 11z"/>
<path d="M32964 8879 c-56 -20 -73 -111 -29 -154 30 -31 92 -34 126 -6 33 26
33 90 0 125 -29 31 -69 46 -97 35z"/>
<path d="M32813 19873 c37 -2 96 -2 130 0 34 2 4 3 -68 3 -71 0 -99 -1 -62 -3z"/>
<path d="M31090 19859 c-8 -5 -59 -30 -114 -55 -88 -40 -97 -47 -92 -67 3 -12
11 -48 17 -79 6 -32 16 -58 21 -58 4 0 40 16 78 35 38 19 72 35 75 35 3 0 5
-153 5 -340 l0 -340 105 0 105 0 0 440 0 440 -92 -1 c-51 0 -100 -4 -108 -10z"/>
<path d="M32786 19645 c-9 -26 -7 -32 5 -12 6 10 9 21 6 23 -2 3 -7 -2 -11
-11z"/>
<path d="M33113 19285 c0 -44 2 -61 4 -37 2 23 2 59 0 80 -2 20 -4 1 -4 -43z"/>
<path d="M32413 19280 c0 -41 2 -58 4 -37 2 20 2 54 0 75 -2 20 -4 3 -4 -38z"/>
<path d="M32858 18983 c29 -2 74 -2 100 0 26 2 2 3 -53 3 -55 0 -76 -1 -47 -3z"/>
<path d="M3740 18145 l0 -295 610 0 610 0 0 295 0 295 -610 0 -610 0 0 -295z"/>
<path d="M2410 18060 l0 -210 570 0 570 0 0 210 0 210 -570 0 -570 0 0 -210z"/>
<path d="M1440 17185 l0 -295 1120 0 1120 0 0 -80 0 -80 1105 0 1105 0 0 290
0 290 -1105 0 -1105 0 0 85 0 85 -1120 0 -1120 0 0 -295z"/>
<path d="M2440 12960 l0 -3490 -1220 0 -1220 0 0 -2845 0 -2845 7360 0 7360 0
0 -170 0 -170 1740 0 1740 0 0 -215 0 -215 100 0 100 0 0 -330 0 -330 900 0
900 0 0 -625 0 -625 765 0 765 0 0 625 0 625 315 0 315 0 0 -530 0 -530 950 0
950 0 0 530 0 530 700 0 700 0 0 860 0 860 -1790 0 -1790 0 0 1160 0 1160
-1840 0 -1840 0 0 730 0 730 3630 0 3630 0 0 1355 0 1355 -700 0 -700 0 0
2945 0 2945 -140 0 -140 0 0 -3490 0 -3490 -1375 0 -1375 0 0 450 0 450 -3145
0 -3145 0 0 -451 0 -451 -1617 2 c-890 1 -1768 2 -1950 1 l-333 -1 0 -670 0
-670 -1840 0 -1840 0 0 695 0 695 450 0 450 0 0 1200 0 1200 -450 0 -450 0 0
555 0 555 -1235 0 -1235 0 0 1710 0 1710 -145 0 -145 0 0 -3490 0 -3490 -935
0 -935 0 0 3490 0 3490 -145 0 -145 0 0 -3490z m5670 -2240 l0 -1060 -475 0
-475 0 0 -28 c0 -19 -12 -40 -40 -67 l-40 -39 0 -328 0 -328 -395 0 -395 0 0
326 0 326 -33 39 c-26 30 -33 45 -29 69 l4 30 -478 2 -479 3 -3 1058 -2 1057
1420 0 1420 0 0 -1060z m9163 -1235 c120 -25 211 -77 307 -174 134 -134 190
-269 190 -450 -1 -145 -40 -267 -124 -377 -125 -167 -309 -258 -516 -258 -242
1 -459 137 -563 354 -56 119 -71 181 -70 295 2 172 72 324 206 451 157 148
359 204 570 159z m-6233 -2385 l0 -750 -1840 0 -1840 0 0 -50 0 -50 -1840 0
-1840 0 0 415 0 415 1840 0 1840 0 0 385 0 385 1840 0 1840 0 0 -750z m10067
-4615 c141 -33 281 -122 359 -227 172 -231 186 -498 39 -734 -116 -186 -314
-295 -535 -296 -256 0 -465 132 -584 369 -55 109 -73 293 -41 418 48 188 203
367 377 436 129 51 264 63 385 34z"/>
<path d="M6012 11178 l3 -273 60 0 60 0 3 108 3 107 94 0 95 0 0 50 0 50 -95
0 -95 0 0 65 0 64 103 3 102 3 3 48 3 47 -171 0 -170 0 2 -272z"/>
<path d="M7233 11387 c-42 -10 -43 -10 -43 -53 0 -40 -2 -44 -25 -44 -23 0
-25 -4 -25 -45 0 -41 2 -45 24 -45 24 0 24 -1 27 -114 4 -97 7 -119 25 -143
28 -37 87 -57 139 -46 40 8 40 9 40 53 0 43 -2 45 -30 48 -45 5 -55 26 -55
119 l0 83 45 0 45 0 0 45 0 45 -45 0 -45 0 0 55 c0 61 0 61 -77 42z"/>
<path d="M6455 11287 c-43 -14 -51 -29 -36 -69 10 -25 11 -26 48 -12 51 18 94
17 121 -2 38 -26 27 -41 -36 -47 -112 -10 -172 -61 -172 -146 0 -102 140 -155
223 -83 15 14 17 13 17 -1 0 -19 34 -30 80 -25 l32 3 -1 140 c-2 154 -12 191
-64 229 -34 25 -151 32 -212 13z m155 -236 c0 -43 -26 -71 -65 -71 -65 0 -56
87 10 103 50 12 55 9 55 -32z"/>
<path d="M6915 11293 c-55 -14 -95 -66 -95 -126 0 -42 45 -87 113 -112 53 -20
66 -37 47 -60 -16 -19 -71 -19 -115 -1 l-35 15 -10 -40 c-6 -22 -8 -44 -5 -49
3 -5 30 -14 60 -20 62 -13 141 -1 183 26 37 24 55 77 42 124 -12 44 -40 68
-112 95 -53 20 -65 37 -41 61 16 16 42 15 99 -1 17 -5 23 -1 28 18 3 14 8 32
12 40 10 28 -101 47 -171 30z"/>
<path d="M7420 10407 l0 -105 -37 19 c-45 23 -72 24 -121 4 -79 -34 -114 -92
-115 -195 0 -122 61 -195 164 -195 45 0 62 5 92 28 l37 28 0 -25 c0 -25 3 -26
55 -26 l55 0 -2 283 -3 282 -62 3 -63 3 0 -104z m-20 -187 c16 -16 20 -33 20
-85 0 -77 -19 -105 -74 -105 -54 0 -79 39 -74 112 3 37 11 64 23 78 24 26 78
27 105 0z"/>
<path d="M5840 10215 l0 -275 60 0 60 0 0 105 0 104 98 3 97 3 0 50 0 50 -98
3 -98 3 3 62 3 62 103 0 102 0 0 53 0 52 -165 0 -165 0 0 -275z"/>
<path d="M6370 10331 c-94 -19 -148 -81 -157 -180 -5 -52 -2 -68 21 -115 22
-46 35 -59 78 -80 149 -74 308 18 308 179 0 98 -58 173 -150 194 -50 12 -50
12 -100 2z m89 -100 c43 -43 46 -147 5 -192 -43 -47 -114 -11 -128 66 -19 101
64 185 123 126z"/>
<path d="M6838 10331 c-184 -36 -215 -304 -43 -382 74 -34 176 -19 234 34 83
76 79 236 -7 309 -26 22 -114 51 -140 47 -4 -1 -24 -5 -44 -8z m89 -96 c28
-19 46 -84 37 -130 -12 -67 -56 -99 -109 -79 -41 16 -60 126 -30 184 22 42 63
52 102 25z"/>
<path d="M16741 9028 c-7 -117 -14 -222 -16 -233 -1 -11 -6 -89 -10 -173 l-8
-153 79 3 79 3 11 235 c7 129 13 264 14 300 2 78 -5 98 87 -257 l68 -263 70 0
70 0 49 158 c27 86 65 211 83 277 19 66 37 127 41 135 3 8 9 -79 13 -195 4
-115 11 -252 14 -302 l7 -93 79 0 79 0 0 35 c0 41 -29 578 -35 650 -2 28 -4
58 -4 68 -1 15 -13 17 -113 17 l-113 0 -53 -168 c-29 -92 -63 -209 -75 -259
-12 -51 -25 -93 -28 -93 -3 0 -13 35 -23 78 -9 42 -39 159 -67 260 l-51 182
-118 0 -117 0 -12 -212z"/>
<path d="M20589 2168 c0 -18 -10 -188 -23 -378 -12 -190 -21 -348 -19 -352 2
-5 37 -8 78 -8 l73 0 6 48 c3 26 8 124 11 217 3 94 8 208 12 255 l6 85 32
-135 c17 -74 51 -206 75 -292 l44 -156 64 -4 c35 -2 67 2 72 7 13 17 170 535
170 564 1 14 2 14 9 1 5 -8 11 -141 15 -294 4 -153 9 -283 12 -287 9 -15 164
-11 164 4 0 6 -9 176 -20 377 -11 201 -20 368 -20 373 0 4 -51 7 -113 7 l-113
0 -47 -142 c-25 -79 -58 -192 -73 -253 -30 -119 -40 -141 -48 -104 -19 93 -81
329 -105 404 l-29 90 -116 3 -116 3 -1 -33z"/>
<path d="M25830 4665 l0 -2315 155 0 155 0 0 -505 0 -505 1610 0 1610 0 0
1050 0 1050 40 0 40 0 0 170 0 170 1840 0 1840 0 0 -190 0 -190 -1760 0 -1760
0 0 -488 c0 -269 3 -537 7 -595 l6 -107 2594 0 2593 0 0 70 0 70 142 0 141 0
-6 818 c-4 449 -7 1327 -7 1950 l0 1132 -2815 0 -2815 0 0 365 0 365 -1805 0
-1805 0 0 -2315z"/>
</g>
</svg>
