<?xml version="1.0" standalone="no"?>
<!DOCTYPE svg PUBLIC "-//W3C//DTD SVG 20010904//EN"
 "http://www.w3.org/TR/2001/REC-SVG-20010904/DTD/svg10.dtd">
<svg version="1.0" xmlns="http://www.w3.org/2000/svg"
 width="3508.000000pt" height="2480.000000pt" viewBox="0 0 3508.000000 2480.000000"
 preserveAspectRatio="xMidYMid meet">
<metadata>
Created by potrace 1.11, written by Peter Selinger 2001-2013
</metadata>
<g transform="translate(0.000000,2480.000000) scale(0.100000,-0.100000)"
fill="#000000" stroke="none">
<path d="M1563 23572 c-18 -2 -33 -5 -33 -7 0 -2 -7 -39 -15 -82 -19 -99 -20
-95 12 -91 26 3 28 7 42 86 l14 82 42 0 c56 0 74 -20 51 -55 -13 -20 -25 -25
-58 -25 l-41 0 39 -44 c31 -35 46 -44 73 -45 l35 -1 -32 33 c-18 18 -32 36
-32 39 0 3 12 9 28 13 52 13 81 61 50 82 -16 9 -130 19 -175 15z"/>
<path d="M2832 22693 l3 -888 3425 0 3425 0 3 888 2 887 -3430 0 -3430 0 2
-887z m1818 252 l-61 -75 -51 0 -50 0 38 68 c20 37 39 70 41 75 2 4 36 7 74 7
l70 0 -61 -75z m-872 -137 c29 -101 55 -202 58 -226 4 -23 10 -44 14 -47 3 -2
15 31 25 73 10 42 39 145 65 227 l48 150 101 3 101 3 0 -38 c0 -21 7 -150 15
-288 8 -137 15 -271 15 -297 l0 -48 -69 0 -69 0 -6 63 c-3 34 -9 151 -13 260
l-8 199 -38 -129 c-21 -70 -56 -185 -78 -255 l-40 -128 -59 0 -59 0 -11 43
c-7 23 -27 96 -45 162 -19 66 -43 160 -54 208 -10 49 -21 90 -24 93 -2 2 -7
-80 -11 -183 -3 -104 -9 -221 -13 -260 l-6 -73 -69 0 -70 0 6 48 c3 26 13 176
23 335 l17 287 101 0 102 0 51 -182z m3003 153 c75 -29 140 -87 170 -153 19
-44 23 -70 23 -148 0 -81 -4 -103 -25 -150 -37 -78 -71 -115 -142 -149 -92
-45 -240 -63 -371 -45 l-46 7 0 328 0 328 53 4 c120 10 280 -1 338 -22z
m-1751 -96 l0 -65 55 0 55 0 0 -55 0 -55 -55 0 -55 0 0 -110 c0 -98 2 -112 21
-131 15 -15 30 -20 50 -17 l29 5 0 -58 0 -58 -36 -7 c-47 -9 -118 2 -150 22
-48 32 -58 67 -62 217 l-4 137 -29 0 c-28 0 -29 1 -29 55 0 54 0 55 30 55 29
0 30 2 30 45 l0 44 58 16 c31 9 62 18 67 20 23 8 25 2 25 -60z m-372 -79 c64
-33 101 -100 109 -197 l6 -69 -162 0 c-179 0 -188 -4 -133 -60 35 -35 102 -47
181 -32 31 5 59 7 63 3 4 -3 8 -26 10 -51 l3 -44 -50 -12 c-117 -28 -236 -9
-302 49 -52 46 -73 98 -73 183 0 59 5 81 28 125 30 58 87 105 143 120 45 11
143 3 177 -15z m872 -45 l0 -68 -47 -6 c-37 -4 -54 -12 -75 -36 -28 -31 -28
-32 -28 -171 l0 -140 -75 0 -75 0 0 240 0 240 65 0 65 0 0 -47 0 -48 26 39
c28 40 71 65 117 66 27 0 27 0 27 -69z m425 41 c86 -44 128 -117 128 -223 0
-180 -158 -288 -341 -234 -106 32 -166 117 -165 236 0 115 61 201 163 234 61
20 164 14 215 -13z m2005 -41 l0 -68 -47 -6 c-37 -4 -54 -12 -75 -36 -28 -31
-28 -32 -28 -171 l0 -140 -75 0 -75 0 0 240 0 240 65 0 65 0 0 -47 0 -48 26
39 c28 40 71 65 117 66 27 0 27 0 27 -69z m435 41 c86 -44 128 -117 128 -223
0 -180 -158 -288 -341 -234 -106 32 -166 117 -165 236 0 115 61 201 163 234
61 20 164 14 215 -13z m585 11 c5 -4 3 -31 -3 -58 l-10 -51 -62 4 c-108 7
-162 -42 -152 -141 3 -38 11 -56 36 -80 30 -30 36 -32 106 -32 l75 0 6 -35 c3
-19 8 -42 10 -51 6 -21 -15 -29 -97 -36 -128 -11 -238 46 -275 143 -25 66 -16
180 19 233 58 87 142 124 266 117 40 -3 77 -8 81 -13z m-1750 -143 c0 -113 4
-158 15 -179 25 -49 68 -54 114 -15 l31 26 0 159 0 159 75 0 75 0 0 -240 0
-240 -65 0 -65 0 0 37 0 37 -27 -27 c-85 -80 -218 -71 -274 19 -23 37 -24 49
-27 227 l-4 187 76 0 76 0 0 -150z"/>
<path d="M6540 22650 l0 -220 54 0 c96 0 162 34 199 103 17 34 22 59 22 128 0
77 -3 90 -28 128 -37 56 -91 80 -179 81 l-68 0 0 -220z"/>
<path d="M4479 22681 c-51 -52 -42 -61 62 -61 l91 0 -6 28 c-16 66 -96 84
-147 33z"/>
<path d="M5777 22680 c-73 -58 -56 -225 27 -254 104 -38 172 146 90 244 -31
36 -78 40 -117 10z"/>
<path d="M8217 22680 c-73 -58 -56 -225 27 -254 104 -38 172 146 90 244 -31
36 -78 40 -117 10z"/>
<path d="M1849 23482 c-75 -85 -97 -123 -41 -69 24 23 37 27 85 27 52 0 59 -3
69 -25 8 -18 19 -25 40 -25 15 0 28 3 28 6 0 12 -92 174 -98 174 -4 -1 -41
-40 -83 -88z m76 -2 l16 -30 -46 0 -46 0 21 30 c12 17 25 30 30 30 5 0 16 -13
25 -30z"/>
<path d="M2088 23563 c63 -5 61 2 27 -150 -5 -20 -1 -23 24 -23 24 0 30 5 35
28 3 15 10 53 16 84 l11 57 52 4 c29 2 -9 3 -83 3 -74 0 -111 -1 -82 -3z"/>
<path d="M2356 23558 c-8 -25 -26 -132 -26 -150 0 -12 7 -18 24 -18 20 0 25 6
31 40 l7 40 67 0 c44 0 74 5 89 16 24 17 29 53 10 72 -17 17 -197 17 -202 0z
m152 -24 c5 -32 -24 -54 -69 -54 -41 0 -46 8 -33 58 6 20 12 23 53 20 38 -2
47 -7 49 -24z"/>
<path d="M30070 23374 c-43 -15 -90 -38 -90 -46 0 -5 7 -24 15 -44 14 -34 15
-35 42 -21 60 30 124 28 145 -6 31 -49 -13 -128 -131 -235 -71 -65 -81 -77
-81 -108 l0 -34 175 0 175 0 0 50 0 50 -87 0 -86 0 60 58 c33 33 69 79 81 104
61 125 -10 239 -148 237 -30 0 -62 -3 -70 -5z"/>
<path d="M30485 23366 c-50 -22 -77 -60 -83 -114 -4 -44 -1 -53 26 -84 l31
-35 -34 -32 c-40 -37 -52 -84 -36 -134 21 -63 84 -97 179 -97 106 0 182 62
182 150 0 42 -31 96 -63 111 l-23 11 33 33 c26 26 33 41 33 72 0 49 -29 95
-73 116 -42 20 -130 22 -172 3z m119 -82 c20 -20 20 -53 0 -82 -19 -27 -34
-28 -68 -1 -44 35 -26 99 29 99 13 0 31 -7 39 -16z m-15 -209 c47 -24 57 -83
19 -109 -32 -22 -55 -20 -83 9 -30 30 -31 54 -4 89 24 30 30 31 68 11z"/>
<path d="M32880 23358 c-79 -52 -118 -202 -86 -327 30 -117 87 -166 186 -159
70 5 110 32 142 96 20 41 23 62 23 157 0 95 -3 116 -23 157 -33 66 -72 91
-147 96 -50 3 -66 0 -95 -20z m127 -95 c15 -22 18 -49 18 -138 0 -89 -3 -116
-18 -138 -37 -57 -83 -23 -99 76 -25 151 42 287 99 200z"/>
<path d="M32370 23320 l0 -50 110 0 c61 0 110 -2 110 -4 0 -2 -43 -86 -95
-188 -52 -102 -95 -188 -95 -192 0 -3 27 -6 61 -6 l60 0 100 206 c73 153 99
216 99 245 l0 39 -175 0 -175 0 0 -50z"/>
<path d="M28797 23334 c-207 -50 -389 -235 -437 -443 -18 -78 -15 -214 8 -292
51 -182 198 -337 375 -399 88 -31 250 -38 337 -15 153 40 307 159 378 292 182
344 -4 762 -383 858 -73 18 -200 18 -278 -1z m234 -234 c29 -6 69 -19 89 -29
101 -52 107 -188 9 -245 l-32 -19 35 -18 c148 -76 118 -285 -46 -334 -66 -20
-204 -30 -289 -21 l-67 8 0 328 0 329 53 4 c112 8 197 7 248 -3z"/>
<path d="M28880 22926 l0 -76 44 0 c84 0 126 28 126 83 0 40 -34 61 -106 65
l-64 4 0 -76z"/>
<path d="M28880 22640 l0 -100 45 0 c86 0 145 42 145 103 0 63 -49 97 -140 97
l-50 0 0 -100z"/>
<path d="M1850 23274 c-95 -25 -197 -82 -268 -148 l-66 -63 55 -26 c30 -14 66
-34 81 -43 26 -17 27 -17 62 14 219 192 559 131 699 -126 103 -190 64 -409
-104 -573 l-78 -77 -16 -83 c-8 -45 -14 -83 -12 -85 7 -7 118 45 170 80 73 49
165 149 206 225 69 131 89 306 51 455 -29 116 -73 190 -165 281 -89 90 -182
143 -295 169 -81 20 -247 19 -320 0z"/>
<path d="M25020 23134 c-213 -44 -399 -226 -451 -444 -7 -30 -13 -95 -12 -145
5 -320 261 -576 578 -578 174 -2 306 52 426 172 238 238 237 595 -1 833 -148
148 -333 204 -540 162z m48 -436 c29 -101 55 -202 58 -226 4 -23 10 -44 14
-47 3 -2 15 31 25 73 10 42 39 145 65 227 l48 150 101 3 101 3 0 -38 c0 -21 7
-150 15 -288 8 -137 15 -271 15 -297 l0 -48 -69 0 -69 0 -6 63 c-3 34 -9 151
-13 260 l-8 199 -38 -129 c-21 -70 -56 -185 -78 -255 l-40 -128 -59 0 -59 0
-11 43 c-7 23 -27 96 -45 162 -19 66 -43 160 -54 208 -10 49 -21 90 -24 93 -2
2 -7 -80 -11 -183 -3 -104 -9 -221 -13 -260 l-6 -73 -69 0 -70 0 6 48 c3 26
13 176 23 335 l17 287 101 0 102 0 51 -182z"/>
<path d="M1228 23004 c-47 -14 -48 -16 -48 -55 0 -34 3 -39 18 -35 146 44 268
31 367 -39 130 -92 154 -106 196 -113 24 -4 72 -4 107 1 35 5 65 7 67 5 3 -2
8 -28 12 -58 7 -49 10 -54 43 -65 27 -9 36 -18 40 -41 5 -24 10 -29 35 -29 27
0 30 -4 33 -33 3 -26 10 -35 38 -47 19 -8 34 -17 34 -21 0 -4 -16 -48 -36 -98
-72 -182 -105 -416 -73 -528 9 -36 12 -38 49 -38 l39 0 -10 32 c-14 51 -11
221 7 306 14 69 69 242 105 330 18 43 5 63 -51 76 -45 11 -47 13 -66 85 -3 9
-12 11 -28 7 -21 -5 -25 -2 -28 21 -2 20 -12 32 -35 42 -26 12 -33 21 -38 55
-14 89 -15 90 -125 75 -97 -13 -127 -5 -207 58 -142 110 -306 150 -445 107z"/>
<path d="M1388 22833 c-8 -25 -13 -86 -13 -173 0 -162 19 -229 97 -345 101
-152 263 -251 441 -270 75 -8 66 -18 84 97 l10 58 -36 5 c-134 22 -215 62
-294 146 -101 108 -152 281 -117 399 10 33 8 37 -21 62 -28 23 -106 58 -130
58 -4 0 -13 -17 -21 -37z"/>
<path d="M31070 22230 l0 -350 470 0 470 0 0 350 0 350 -470 0 -470 0 0 -350z
m357 203 c78 -37 96 -139 35 -194 l-29 -26 28 -17 c81 -48 77 -168 -6 -225
-54 -37 -164 -41 -224 -9 -88 47 -104 138 -37 207 l35 36 -30 33 c-60 67 -17
181 76 205 44 11 119 6 152 -10z m493 -31 c0 -29 -27 -94 -100 -245 l-100
-207 -60 0 c-33 0 -60 3 -60 6 0 3 43 88 95 188 52 101 95 186 95 189 0 4 -48
8 -107 9 l-108 3 -3 48 -3 47 175 0 176 0 0 -38z"/>
<path d="M31296 22354 c-24 -23 -19 -60 10 -83 34 -27 49 -26 68 1 32 45 10
98 -39 98 -13 0 -31 -7 -39 -16z"/>
<path d="M31291 22134 c-27 -35 -27 -65 2 -92 55 -52 128 1 101 73 -6 15 -54
45 -73 45 -5 0 -19 -12 -30 -26z"/>
<path d="M30065 22436 c-49 -21 -85 -71 -85 -117 0 -46 13 -77 43 -100 20 -16
20 -17 -7 -34 -56 -37 -72 -114 -36 -172 59 -98 269 -98 330 -1 17 26 20 45
17 87 -3 48 -8 59 -39 86 l-36 30 29 33 c55 62 32 155 -47 188 -42 18 -129 17
-169 0z m117 -83 c24 -21 23 -58 -2 -83 -29 -29 -90 0 -90 43 0 48 56 73 92
40z m-3 -219 c19 -16 31 -35 31 -50 0 -29 -33 -64 -60 -64 -27 0 -70 43 -70
70 0 21 41 70 59 70 5 0 23 -12 40 -26z"/>
<path d="M30448 22428 c-27 -11 -48 -25 -48 -30 0 -12 28 -78 33 -78 3 0 18 7
33 15 41 21 107 19 127 -3 21 -23 22 -64 3 -100 -8 -15 -57 -69 -110 -121 -84
-82 -96 -98 -96 -127 l0 -34 175 0 175 0 0 50 0 50 -85 0 -86 0 59 58 c73 71
102 125 102 190 0 60 -30 109 -80 134 -49 25 -142 23 -202 -4z"/>
<path d="M32455 22436 c-50 -22 -77 -60 -83 -114 -4 -44 -1 -53 26 -84 l31
-35 -34 -32 c-40 -37 -52 -84 -36 -134 21 -63 84 -97 179 -97 106 0 182 62
182 150 0 42 -31 96 -63 111 l-23 11 33 33 c26 26 33 41 33 72 0 49 -29 95
-73 116 -42 20 -130 22 -172 3z m119 -82 c20 -20 20 -53 0 -82 -19 -27 -34
-28 -68 -1 -44 35 -26 99 29 99 13 0 31 -7 39 -16z m-15 -209 c47 -24 57 -83
19 -109 -32 -22 -55 -20 -83 9 -30 30 -31 54 -4 89 24 30 30 31 68 11z"/>
<path d="M32875 22434 c-126 -65 -144 -226 -33 -294 39 -24 111 -26 150 -6 24
13 26 12 21 -2 -22 -60 -89 -102 -161 -102 l-42 0 0 -45 0 -45 48 0 c169 0
282 116 282 289 0 143 -66 221 -187 221 -26 0 -61 -7 -78 -16z m111 -82 c19
-13 34 -50 34 -86 0 -59 -68 -88 -110 -46 -24 24 -27 86 -4 118 15 22 57 30
80 14z"/>
<path d="M33655 22436 c-123 -55 -142 -229 -33 -296 40 -24 124 -27 156 -5 20
15 21 15 15 -2 -22 -61 -89 -103 -161 -103 l-42 0 0 -46 0 -47 73 5 c122 8
210 74 241 179 42 139 2 277 -91 315 -41 18 -119 17 -158 0z m111 -84 c34 -23
46 -110 18 -133 -24 -20 -84 -16 -100 6 -19 25 -18 85 2 113 15 22 57 30 80
14z"/>
<path d="M34038 22428 c-27 -11 -48 -25 -48 -30 0 -17 29 -78 37 -78 4 0 17 7
27 15 27 20 110 20 130 -1 22 -22 20 -73 -5 -114 -12 -19 -62 -73 -110 -119
-77 -73 -89 -89 -89 -118 l0 -33 175 0 175 0 0 50 0 50 -87 0 -86 0 62 61 c72
70 100 124 101 190 0 56 -30 106 -80 131 -49 25 -142 23 -202 -4z"/>
<path d="M25272 21541 c-29 -10 -55 -21 -59 -24 -3 -4 1 -30 9 -59 10 -37 18
-52 29 -49 8 2 37 11 65 19 66 19 118 10 140 -24 35 -52 -26 -104 -121 -104
l-45 0 0 -55 0 -55 50 0 c97 0 159 -47 145 -110 -14 -63 -98 -85 -203 -52 -34
11 -64 17 -66 13 -13 -25 -27 -104 -20 -111 19 -18 121 -40 184 -40 158 0 269
81 270 198 0 60 -66 152 -109 152 -20 0 -12 15 19 35 45 29 73 95 65 146 -9
52 -64 110 -121 127 -60 18 -170 14 -232 -7z"/>
<path d="M24752 21510 c-67 -32 -82 -43 -78 -57 3 -10 8 -35 12 -55 3 -21 10
-38 15 -38 6 0 32 11 59 25 27 14 52 25 55 25 3 0 5 -115 5 -255 l0 -255 75 0
75 0 0 325 0 325 -67 -1 c-57 0 -81 -6 -151 -39z"/>
<path d="M25140 20289 c0 -3 -45 -128 -100 -279 -55 -151 -100 -278 -100 -282
0 -4 21 8 46 27 110 84 223 82 335 -6 l36 -28 -101 279 c-88 240 -116 311
-116 289z"/>
<path d="M25101 19723 c-24 -30 -20 -58 11 -85 26 -23 40 -23 72 3 31 25 34
61 6 89 -28 28 -64 25 -89 -7z"/>
<path d="M23980 15636 l0 -3916 -9935 0 -9935 0 0 -1067 0 -1068 -42 -8 c-170
-29 -244 -62 -324 -142 -58 -58 -94 -125 -113 -213 -7 -36 -11 -226 -11 -581
0 -493 1 -533 20 -605 46 -180 149 -287 317 -331 31 -8 79 -15 105 -15 l48 0
0 -1070 0 -1070 10963 -1 c6029 0 11037 -3 11130 -5 l167 -5 0 3361 0 3360
735 0 735 0 0 -765 0 -765 885 0 885 0 0 890 0 890 -295 0 -295 0 0 -35 0 -35
-292 2 -293 3 -3 33 -3 32 -1152 -2 -1152 -3 -3 -3352 -2 -3353 -10878 0
-10877 0 3 945 2 945 7033 0 c6196 0 7040 2 7095 15 177 42 290 145 340 309
13 42 16 136 19 563 5 569 0 629 -56 748 -54 116 -124 181 -246 227 l-60 23
-7062 3 -7063 2 0 945 0 945 9930 -2 9930 -3 -2 4040 -3 4040 -122 3 -123 3 0
-3915z m4805 -3711 c14 -13 25 -36 25 -50 0 -36 -42 -75 -80 -75 -38 0 -80 39
-80 75 0 36 42 75 80 75 19 0 40 -9 55 -25z m15 -435 l0 -240 -75 0 -75 0 0
240 0 240 75 0 75 0 0 -240z m-20970 -2305 l0 -265 -60 0 -60 0 0 265 0 265
60 0 60 0 0 -265z m-1153 222 c18 -10 40 -29 49 -43 33 -50 12 -144 -36 -159
-17 -5 -13 -12 25 -49 40 -38 45 -47 45 -88 0 -57 -30 -104 -85 -132 -34 -18
-58 -21 -160 -21 l-120 0 -3 252 c-2 233 -1 252 15 257 10 2 68 4 128 2 82 -1
118 -6 142 -19z m-2392 -17 c32 -12 49 -53 34 -82 -6 -11 -41 -48 -77 -84
l-67 -63 141 -1 c120 0 145 -3 162 -17 31 -28 35 -56 11 -86 l-20 -27 -148 0
-147 0 78 -78 c43 -43 78 -86 78 -96 0 -24 -45 -66 -70 -66 -19 0 -68 42 -297
255 l-54 50 152 140 c125 116 180 162 196 165 1 0 13 -4 28 -10z m1185 -119
c45 -23 76 -69 84 -124 12 -76 10 -77 -125 -77 -76 0 -119 -4 -119 -10 0 -6
12 -22 26 -36 24 -24 30 -26 105 -22 75 3 80 2 85 -19 14 -56 -7 -70 -112 -72
-76 -1 -120 13 -162 52 -67 64 -69 197 -4 271 47 52 158 71 222 37z m380 -36
l0 -55 -34 0 c-25 0 -40 -7 -55 -26 -18 -23 -21 -41 -21 -130 l0 -104 -60 0
-60 0 0 180 0 180 50 0 c47 0 50 -2 50 -25 0 -32 2 -31 38 5 21 20 40 30 61
30 31 0 31 0 31 -55z m265 45 c25 -9 27 -14 20 -48 -4 -20 -8 -38 -8 -39 -1
-1 -21 4 -45 10 -30 8 -48 8 -59 1 -32 -20 -25 -34 32 -59 74 -33 105 -67 105
-115 0 -93 -115 -145 -242 -109 -42 11 -42 10 -28 60 l10 37 38 -14 c49 -17
87 -17 102 1 17 20 5 33 -54 59 -29 13 -62 36 -74 51 -42 54 -17 130 52 161
37 16 114 18 151 4z m991 -9 c136 -62 137 -274 2 -340 -82 -39 -197 -19 -246
44 -49 62 -53 168 -8 236 48 72 164 100 252 60z m1070 0 c136 -62 137 -274 2
-340 -82 -39 -197 -19 -246 44 -49 62 -53 168 -8 236 48 72 164 100 252 60z
m398 -2 c23 -18 27 -18 32 -5 4 12 20 16 55 16 l49 0 0 -152 c0 -247 -19 -310
-104 -349 -46 -21 -139 -25 -200 -8 -38 11 -38 11 -32 52 4 23 9 43 11 46 3 2
22 -1 44 -7 95 -29 161 4 161 80 0 20 -1 20 -27 2 -17 -11 -47 -18 -76 -18
-135 0 -201 183 -110 302 47 62 145 82 197 41z m506 5 c53 -32 64 -66 68 -216
l4 -138 -60 0 -60 0 -4 126 c-3 111 -5 127 -22 140 -26 19 -39 18 -70 -7 -25
-20 -26 -23 -26 -140 l0 -119 -60 0 -60 0 0 180 0 180 49 0 c40 0 51 -4 56
-19 6 -19 7 -19 42 5 42 28 102 32 143 8z m400 -3 c45 -23 76 -69 84 -124 12
-76 10 -77 -125 -77 -76 0 -119 -4 -119 -10 0 -6 12 -22 26 -36 24 -24 30 -26
105 -22 75 3 80 2 85 -19 14 -56 -7 -70 -112 -72 -76 -1 -120 13 -162 52 -67
64 -69 197 -4 271 47 52 158 71 222 37z m-4524 -106 c18 -60 33 -112 34 -115
1 -3 16 47 34 110 l32 115 63 3 c35 2 61 -1 60 -6 -2 -5 -33 -87 -69 -181
l-65 -172 -60 3 -60 3 -62 165 c-34 91 -62 171 -62 178 -1 10 15 12 61 10 l61
-3 33 -110z m2434 6 c0 -60 4 -121 9 -134 13 -33 46 -43 76 -23 24 16 25 20
25 141 l0 125 60 0 60 0 0 -180 0 -180 -50 0 c-43 0 -50 3 -50 20 0 18 -2 18
-36 -5 -66 -45 -157 -27 -191 38 -13 24 -18 65 -21 170 l-4 137 61 0 61 0 0
-109z m4610 -5 c270 -57 462 -295 463 -571 0 -167 -54 -298 -172 -416 -381
-381 -1031 -91 -998 446 22 361 355 616 707 541z m-1522 -428 c29 -101 55
-202 58 -226 4 -23 10 -44 14 -47 3 -2 15 31 25 73 10 42 39 145 65 227 l48
150 101 3 101 3 0 -38 c0 -21 7 -150 15 -288 8 -137 15 -271 15 -297 l0 -48
-69 0 -69 0 -6 63 c-3 34 -9 151 -13 260 l-8 199 -38 -129 c-21 -70 -56 -185
-78 -255 l-40 -128 -59 0 -59 0 -11 43 c-7 23 -27 96 -45 162 -19 66 -43 160
-54 208 -10 49 -21 90 -24 93 -2 2 -7 -80 -11 -183 -3 -104 -9 -221 -13 -260
l-6 -73 -69 0 -70 0 6 48 c3 26 13 176 23 335 l17 287 101 0 102 0 51 -182z
m6412 -603 l0 -265 -60 0 -60 0 0 265 0 265 60 0 60 0 0 -265z m198 237 c43
-56 -37 -123 -90 -75 -44 39 -2 111 57 96 11 -3 26 -12 33 -21z m-2158 -229
c40 -131 75 -246 78 -256 4 -16 -2 -18 -59 -15 l-63 3 -19 63 -19 62 -74 0
c-55 0 -74 -3 -74 -13 0 -7 -7 -37 -15 -65 l-16 -52 -60 0 c-53 0 -60 2 -55
18 36 115 146 484 146 487 0 3 35 5 78 5 l78 0 74 -237z m3432 115 c67 -62
140 -130 162 -151 l41 -37 -52 -48 c-28 -26 -101 -93 -162 -149 -116 -109
-144 -122 -183 -86 -35 32 -23 63 59 145 l78 78 -149 0 c-125 0 -152 3 -168
17 -22 20 -23 61 -1 85 14 16 34 18 167 18 l151 0 -78 78 c-81 82 -92 108 -60
144 36 40 66 25 195 -94z m-2412 22 l0 -50 46 0 45 0 -3 -42 c-3 -43 -3 -43
-45 -46 l-43 -3 0 -75 c0 -62 3 -77 21 -95 13 -13 29 -19 40 -16 18 5 20 1 17
-41 l-3 -47 -62 0 c-55 0 -66 4 -90 28 -27 26 -28 33 -31 137 -4 109 -4 110
-28 110 -22 0 -24 4 -24 45 0 41 2 45 25 45 22 0 25 4 25 34 0 33 3 36 48 49
26 8 50 15 55 16 4 1 7 -21 7 -49z m1360 0 l0 -50 46 0 45 0 -3 -42 c-3 -43
-3 -43 -45 -46 l-43 -3 0 -75 c0 -62 3 -77 21 -95 13 -13 29 -19 40 -16 18 5
20 1 17 -41 l-3 -47 -62 0 c-55 0 -66 4 -90 28 -27 26 -28 33 -31 137 -4 109
-4 110 -28 110 -22 0 -24 4 -24 45 0 41 2 45 25 45 22 0 25 4 25 34 0 33 3 36
48 49 26 8 50 15 55 16 4 1 7 -21 7 -49z m-3640 -59 c45 -23 76 -69 84 -124
12 -76 10 -77 -125 -77 -76 0 -119 -4 -119 -10 0 -6 12 -22 26 -36 24 -24 30
-26 105 -22 75 3 80 2 85 -19 14 -56 -7 -70 -112 -72 -76 -1 -120 13 -162 52
-67 64 -69 197 -4 271 47 52 158 71 222 37z m380 -36 l0 -55 -34 0 c-25 0 -40
-7 -55 -26 -18 -23 -21 -41 -21 -130 l0 -104 -60 0 -60 0 0 180 0 180 50 0
c47 0 50 -2 50 -25 0 -32 2 -31 38 5 21 20 40 30 61 30 31 0 31 0 31 -55z
m265 45 c25 -9 27 -14 20 -48 -4 -20 -8 -38 -8 -39 -1 -1 -21 4 -45 10 -30 8
-48 8 -59 1 -32 -20 -25 -34 32 -59 74 -33 105 -67 105 -115 0 -93 -115 -145
-242 -109 -42 11 -42 10 -28 60 l10 37 38 -14 c49 -17 87 -17 102 1 17 20 5
33 -54 59 -29 13 -62 36 -74 51 -42 54 -17 130 52 161 37 16 114 18 151 4z
m1400 0 c25 -9 27 -14 20 -48 -4 -20 -8 -38 -8 -39 -1 -1 -21 4 -45 10 -30 8
-48 8 -59 1 -32 -20 -25 -34 32 -59 74 -33 105 -67 105 -115 0 -93 -115 -145
-242 -109 -42 11 -42 10 -28 60 l10 37 38 -14 c49 -17 87 -17 102 1 17 20 5
33 -54 59 -29 13 -62 36 -74 51 -42 54 -17 130 52 161 37 16 114 18 151 4z
m625 -9 c45 -23 76 -69 84 -124 12 -76 10 -77 -125 -77 -76 0 -119 -4 -119
-10 0 -6 12 -22 26 -36 24 -24 30 -26 105 -22 75 3 80 2 85 -19 14 -56 -7 -70
-112 -72 -76 -1 -120 13 -162 52 -67 64 -69 197 -4 271 47 52 158 71 222 37z
m380 -36 l0 -55 -34 0 c-25 0 -40 -7 -55 -26 -18 -23 -21 -41 -21 -130 l0
-104 -60 0 -60 0 0 180 0 180 50 0 c47 0 50 -2 50 -25 0 -32 2 -31 38 5 21 20
40 30 61 30 31 0 31 0 31 -55z m-3564 -70 c18 -60 33 -112 34 -115 1 -3 16 47
34 110 l32 115 63 3 c35 2 61 -1 60 -6 -2 -5 -33 -87 -69 -181 l-65 -172 -60
3 -60 3 -62 165 c-34 91 -62 171 -62 178 -1 10 15 12 61 10 l61 -3 33 -110z
m2024 6 c0 -60 4 -121 9 -134 13 -33 46 -43 76 -23 24 16 25 20 25 141 l0 125
60 0 60 0 0 -180 0 -180 -50 0 c-43 0 -50 3 -50 20 0 18 -2 18 -36 -5 -66 -45
-157 -27 -191 38 -13 24 -18 65 -21 170 l-4 137 61 0 61 0 0 -109z m1920 -71
l0 -180 -60 0 -60 0 0 180 0 180 60 0 60 0 0 -180z m650 142 c0 -32 -11 -51
-80 -135 l-80 -97 85 0 85 0 0 -45 0 -45 -160 0 -160 0 0 35 c0 28 14 51 85
135 l85 100 -80 0 -80 0 0 45 0 45 150 0 150 0 0 -38z"/>
<path d="M6510 9279 l0 -62 43 7 c102 16 101 116 -1 116 l-42 0 0 -61z"/>
<path d="M6510 9071 l0 -71 43 0 c33 0 49 6 65 23 46 49 15 106 -61 114 l-47
6 0 -72z"/>
<path d="M5330 9190 c-33 -33 -24 -40 50 -40 39 0 70 3 70 8 0 4 -7 18 -16 30
-20 29 -76 30 -104 2z"/>
<path d="M6973 9186 c-25 -22 -28 -31 -28 -86 0 -55 3 -64 28 -86 15 -13 34
-24 42 -24 8 0 27 11 42 24 25 22 28 31 28 86 0 55 -3 64 -28 86 -15 13 -34
24 -42 24 -8 0 -27 -11 -42 -24z"/>
<path d="M8043 9186 c-25 -22 -28 -31 -28 -86 0 -55 3 -64 28 -86 15 -13 34
-24 42 -24 8 0 27 11 42 24 25 22 28 31 28 86 0 55 -3 64 -28 86 -15 13 -34
24 -42 24 -8 0 -27 -11 -42 -24z"/>
<path d="M8492 9193 c-7 -3 -19 -18 -27 -33 -47 -92 38 -197 105 -130 25 25
28 114 4 148 -14 21 -50 28 -82 15z"/>
<path d="M9340 9190 c-33 -33 -24 -40 50 -40 39 0 70 3 70 8 0 4 -7 18 -16 30
-20 29 -76 30 -104 2z"/>
<path d="M12054 8891 c-92 -42 -144 -155 -144 -316 0 -217 86 -334 248 -335
137 0 218 88 242 264 26 180 -37 346 -147 392 -47 20 -150 17 -199 -5z m135
-111 c36 -19 54 -87 54 -205 1 -132 -22 -199 -69 -211 -64 -16 -98 45 -102
186 -4 114 6 173 39 214 21 27 48 33 78 16z"/>
<path d="M11485 8865 c-38 -19 -74 -36 -79 -38 -9 -3 12 -127 21 -127 2 0 30
14 63 30 l60 30 0 -255 0 -255 75 0 75 0 0 325 0 325 -72 -1 c-61 -1 -84 -6
-143 -34z"/>
<path d="M14752 8195 c-12 -47 -22 -90 -22 -95 0 -6 23 -10 51 -10 38 0 50 3
46 13 -3 7 -15 49 -27 92 -12 44 -23 81 -24 83 -2 1 -12 -36 -24 -83z"/>
<path d="M13530 8140 c-33 -33 -24 -40 50 -40 39 0 70 3 70 8 0 4 -7 18 -16
30 -20 29 -76 30 -104 2z"/>
<path d="M16200 8140 c-33 -33 -24 -40 50 -40 39 0 70 3 70 8 0 4 -7 18 -16
30 -20 29 -76 30 -104 2z"/>
<path d="M26120 17240 l0 -2311 138 1 c75 1 305 1 510 0 l372 0 0 -325 0 -326
63 3 62 3 0 322 0 323 318 0 317 0 0 130 0 130 -765 0 -765 0 0 2178 0 2179
-125 2 -125 2 0 -2311z"/>
<path d="M25105 19465 c-14 -13 -25 -31 -25 -40 0 -20 44 -65 63 -65 25 0 67
41 67 64 0 26 -38 66 -64 66 -9 0 -28 -11 -41 -25z"/>
<path d="M25105 19205 c-14 -13 -25 -31 -25 -40 0 -22 45 -65 68 -65 26 0 62
37 62 65 0 24 -41 65 -67 65 -8 0 -25 -11 -38 -25z"/>
<path d="M25122 18959 c-12 -5 -27 -20 -34 -34 -10 -22 -8 -30 9 -53 25 -34
65 -40 92 -13 48 48 -3 124 -67 100z"/>
<path d="M25117 18699 c-39 -23 -41 -86 -3 -111 34 -23 96 11 96 52 0 23 -42
70 -62 70 -7 0 -21 -5 -31 -11z"/>
<path d="M24810 17624 l0 -84 339 0 339 0 1 79 c1 63 -2 80 -14 85 -9 3 -162
5 -340 5 l-325 0 0 -85z"/>
<path d="M24710 17235 l0 -125 435 0 435 0 0 125 0 125 -435 0 -435 0 0 -125z"/>
<path d="M24617 16973 c-4 -3 -7 -80 -7 -170 l0 -163 535 0 535 0 0 164 c0
140 -2 165 -16 170 -21 8 -1039 8 -1047 -1z"/>
<path d="M30190 14335 l0 -265 55 0 55 0 0 120 c0 107 2 122 20 140 11 11 29
20 40 20 11 0 29 -9 40 -20 18 -18 20 -33 20 -140 l0 -120 55 0 55 0 0 139 c0
127 -2 141 -23 172 -42 63 -109 76 -171 34 l-36 -24 0 104 0 105 -55 0 -55 0
0 -265z"/>
<path d="M31020 14335 l0 -265 55 0 55 0 0 265 0 265 -55 0 -55 0 0 -265z"/>
<path d="M31230 14335 l0 -265 55 0 55 0 0 265 0 265 -55 0 -55 0 0 -265z"/>
<path d="M26383 14529 c44 -58 67 -119 67 -182 0 -67 -16 -110 -59 -159 -17
-20 -31 -38 -31 -40 0 -5 557 196 565 204 3 2 -118 49 -268 103 -149 54 -278
101 -286 103 -9 3 -3 -9 12 -29z"/>
<path d="M29123 14429 c-66 -19 -123 -102 -123 -179 0 -124 95 -200 235 -187
90 9 98 13 91 55 -3 19 -7 36 -8 38 -2 1 -24 -2 -50 -7 -57 -13 -121 2 -143
34 -8 12 -15 25 -15 29 0 5 54 8 120 8 l120 0 0 50 c0 126 -99 196 -227 159z
m110 -87 c35 -31 21 -42 -53 -42 -38 0 -70 3 -70 6 0 16 24 46 43 54 26 10 55
4 80 -18z"/>
<path d="M29575 14429 c-11 -6 -30 -23 -42 -38 l-23 -26 0 33 c0 32 0 32 -51
32 -48 0 -51 -1 -45 -22 3 -13 6 -94 6 -180 l0 -158 55 0 55 0 0 110 c0 127
12 150 75 150 l35 0 0 55 c0 50 -2 55 -22 55 -13 0 -32 -5 -43 -11z"/>
<path d="M29785 14433 c-53 -15 -95 -66 -95 -117 0 -36 46 -82 105 -104 95
-37 58 -90 -43 -63 -25 6 -46 10 -49 8 -2 -3 -8 -18 -13 -36 -10 -36 2 -46 68
-57 99 -16 185 24 198 92 11 59 -11 92 -85 128 -48 23 -66 37 -66 51 0 17 7
20 45 20 25 -1 51 -3 59 -5 19 -6 39 56 24 71 -12 12 -118 21 -148 12z"/>
<path d="M30665 14427 c-37 -12 -40 -15 -37 -47 3 -43 5 -44 43 -31 49 17 103
14 122 -7 10 -10 17 -21 17 -24 0 -3 -24 -8 -54 -11 -132 -13 -198 -96 -151
-187 30 -59 105 -76 175 -40 34 17 40 18 40 5 0 -11 12 -15 50 -15 l50 0 0
128 c0 140 -11 178 -63 216 -34 25 -134 31 -192 13z m145 -221 c0 -57 -76 -91
-100 -46 -22 41 12 78 73 79 24 1 27 -2 27 -33z"/>
<path d="M28600 14423 c0 -5 29 -84 64 -178 l64 -170 59 0 58 0 66 175 66 175
-54 3 c-31 2 -58 1 -61 -3 -3 -3 -20 -58 -37 -122 -32 -117 -36 -123 -49 -68
-4 17 -19 67 -32 113 l-25 82 -60 0 c-32 0 -59 -3 -59 -7z"/>
<path d="M25550 14413 c-28 -11 -50 -36 -50 -60 0 -30 33 -63 63 -63 54 0 80
78 37 112 -23 19 -26 20 -50 11z"/>
<path d="M25791 14407 c-31 -16 -42 -48 -28 -77 17 -32 40 -44 71 -36 53 13
60 92 11 114 -31 14 -25 14 -54 -1z"/>
<path d="M26036 14399 c-31 -25 -34 -61 -6 -89 25 -25 62 -26 84 -1 27 30 28
60 1 87 -29 29 -45 30 -79 3z"/>
<path d="M26313 14412 c-67 -11 -55 -122 14 -122 44 0 79 60 55 96 -11 17 -45
30 -69 26z"/>
<path d="M27402 14153 c-92 -199 -113 -244 -176 -378 l-66 -140 -107 -6 c-143
-7 -199 -35 -246 -124 -21 -39 -22 -51 -22 -395 0 -273 3 -364 14 -393 17 -50
64 -103 115 -130 40 -22 47 -22 501 -22 528 0 530 0 606 74 66 65 70 91 68
460 -1 337 -8 389 -58 451 -60 75 -59 74 -413 80 l-318 5 96 205 c53 113 111
238 130 278 l33 73 -55 25 c-30 13 -56 24 -58 24 -2 0 -21 -39 -44 -87z m228
-602 c5 -11 10 -85 10 -170 0 -123 -3 -152 -16 -165 -19 -19 -36 -20 -52 -4
-17 17 -17 344 1 351 26 11 47 6 57 -12z m-331 -177 c12 -15 21 -34 21 -43 0
-9 -37 -51 -82 -93 l-81 -78 356 0 c344 0 358 -1 377 -20 24 -24 26 -57 3 -82
-15 -17 -40 -18 -377 -18 l-361 -1 79 -73 c68 -63 79 -78 79 -106 0 -20 -7
-38 -18 -46 -43 -31 -65 -18 -225 130 -85 80 -155 149 -155 154 0 6 71 76 158
156 170 157 189 167 226 120z m329 -396 c8 -8 12 -60 12 -169 0 -168 -5 -184
-52 -177 -23 3 -23 4 -26 168 -1 90 0 170 2 177 7 16 48 17 64 1z"/>
<path d="M18170 10524 l0 -534 165 0 165 0 0 535 0 536 -165 -1 -165 -2 0
-534z"/>
<path d="M23305 11013 c-82 -25 -152 -47 -154 -49 -2 -1 26 -101 63 -221 l66
-218 -69 -218 c-45 -143 -65 -220 -57 -222 163 -53 302 -93 307 -87 7 9 160
501 162 522 1 20 -155 540 -162 539 -4 0 -73 -21 -156 -46z"/>
<path d="M17780 10520 l0 -440 125 0 125 0 0 440 0 440 -125 0 -125 0 0 -440z"/>
<path d="M22875 10916 c-76 -30 -109 -47 -107 -57 2 -8 30 -87 62 -176 l59
-161 -63 -172 -64 -172 36 -15 c67 -28 195 -74 198 -71 3 4 153 407 156 423 4
13 -154 445 -162 444 -3 -1 -54 -20 -115 -43z"/>
<path d="M17440 10520 l0 -341 83 3 82 3 2 338 2 337 -84 0 -85 0 0 -340z"/>
<path d="M22498 10828 c-38 -17 -68 -36 -68 -42 0 -6 26 -67 58 -136 l59 -125
-63 -135 c-34 -74 -60 -136 -59 -138 1 -2 35 -18 74 -37 51 -25 73 -31 78 -22
12 19 142 297 148 317 6 18 -141 351 -154 349 -3 0 -36 -14 -73 -31z"/>
<path d="M20090 8631 l0 -1479 63 1 62 2 0 1475 0 1475 -62 3 -63 3 0 -1480z"/>
<path d="M20625 10100 c-3 -6 -5 -44 -3 -85 l2 -75 338 0 338 0 0 85 0 85
-334 0 c-213 0 -337 -4 -341 -10z"/>
<path d="M21630 8630 l0 -1480 63 3 62 2 3 708 2 707 1110 0 1110 0 0 65 0 65
-1107 0 c-608 0 -1108 2 -1110 4 -2 2 -3 319 -3 705 l0 701 -65 0 -65 0 0
-1480z"/>
<path d="M20530 9640 l0 -129 435 -1 435 0 0 130 0 130 -435 0 -435 -1 0 -129z"/>
<path d="M20437 9373 c-4 -3 -7 -80 -7 -170 l0 -163 535 0 535 0 -2 168 -3
167 -526 3 c-289 1 -529 -1 -532 -5z"/>
<path d="M20410 8080 l0 -170 530 0 530 0 0 170 0 170 -530 0 -530 0 0 -170z"/>
<path d="M20504 7766 c-3 -7 -4 -64 -2 -127 l3 -114 435 0 435 0 3 119 c2 89
-1 122 -10 128 -7 4 -203 8 -436 8 -340 -1 -424 -3 -428 -14z"/>
<path d="M20600 7265 l0 -85 340 0 340 0 0 85 0 85 -340 0 -340 0 0 -85z"/>
<path d="M18170 6744 l0 -534 165 0 165 0 0 535 0 535 -165 -1 -165 0 0 -535z"/>
<path d="M23297 7274 c-3 -3 -6 -244 -7 -535 l-1 -529 171 0 170 0 0 529 c0
473 -2 530 -16 535 -20 8 -309 8 -317 0z"/>
<path d="M17780 6745 l0 -435 125 0 125 0 0 435 0 435 -125 0 -125 0 0 -435z"/>
<path d="M22910 6745 l0 -435 125 0 125 0 0 435 0 435 -125 0 -125 0 0 -435z"/>
<path d="M17440 6740 l0 -341 83 3 82 3 2 338 3 337 -85 0 -85 0 0 -340z"/>
<path d="M22564 7066 c-3 -7 -4 -159 -2 -337 l3 -324 83 -3 82 -3 0 341 0 340
-80 0 c-59 0 -82 -4 -86 -14z"/>
<path d="M1388 3483 c-32 -5 -34 -13 -13 -53 l16 -30 -156 0 -155 0 0 -40 0
-40 195 0 195 0 0 35 c0 29 -44 139 -53 134 -1 -1 -14 -4 -29 -6z"/>
<path d="M1100 3179 c-18 -32 -23 -111 -11 -156 13 -49 60 -93 100 -93 33 0
77 31 87 62 6 21 7 21 20 -4 17 -33 71 -52 108 -39 33 13 66 67 66 109 0 18
-5 54 -11 79 -11 43 -13 45 -42 39 -17 -3 -32 -7 -33 -9 -1 -1 3 -21 9 -44 13
-50 -2 -93 -32 -93 -25 0 -51 36 -51 72 0 24 -4 28 -30 28 -28 0 -30 -3 -30
-35 0 -37 -28 -75 -55 -75 -25 0 -48 47 -42 88 3 20 8 44 12 53 4 12 -2 19
-24 27 -27 9 -32 8 -41 -9z"/>
<path d="M1060 2850 c0 -33 -31 -20 284 -114 65 -20 122 -36 127 -36 5 0 9 12
9 28 0 26 -3 28 -163 75 -89 26 -183 54 -209 62 l-48 14 0 -29z"/>
<path d="M1190 2669 c-80 -25 -120 -86 -106 -162 8 -44 62 -93 113 -104 70
-15 159 -7 202 18 95 53 93 182 -3 231 -48 24 -153 33 -206 17z m180 -92 c16
-8 26 -23 28 -40 3 -23 -2 -30 -32 -42 -19 -8 -60 -15 -91 -15 -31 0 -72 7
-91 15 -30 12 -35 19 -32 42 4 38 39 53 123 53 39 0 81 -6 95 -13z"/>
<path d="M1268 2344 c-49 -26 -72 -99 -47 -146 17 -31 4 -32 -31 -1 -25 22
-33 39 -37 76 -5 46 -6 47 -41 47 l-35 0 6 -49 c13 -112 82 -178 195 -188 142
-13 236 100 172 205 -39 64 -121 90 -182 56z m125 -95 c19 -27 11 -54 -19 -68
-71 -32 -134 19 -87 71 23 26 87 24 106 -3z"/>
<path d="M1060 2010 c0 -33 -31 -20 284 -114 65 -20 122 -36 127 -36 5 0 9 12
9 28 0 26 -3 28 -163 75 -89 26 -183 54 -209 62 l-48 14 0 -29z"/>
<path d="M1388 1803 c-32 -5 -34 -13 -13 -53 l16 -30 -156 0 -155 0 0 -40 0
-40 195 0 195 0 0 35 c0 29 -44 139 -53 134 -1 -1 -14 -4 -29 -6z"/>
<path d="M32274 1686 c-58 -49 -20 -146 57 -146 39 0 89 48 89 85 0 37 -50 85
-89 85 -17 0 -42 -10 -57 -24z m86 -30 c28 -35 -11 -93 -47 -70 -36 22 -23 84
17 84 10 0 23 -7 30 -14z"/>
<path d="M32659 1675 c-42 -22 -45 -26 -41 -54 5 -35 11 -37 52 -16 l30 16 0
-156 0 -155 40 0 40 0 0 195 0 195 -37 0 c-21 -1 -59 -12 -84 -25z"/>
<path d="M32979 1691 c-14 -5 -35 -13 -47 -20 -19 -10 -20 -15 -10 -39 7 -15
13 -28 14 -30 0 -1 14 4 30 13 67 35 122 5 110 -60 -5 -27 -26 -55 -87 -114
-60 -59 -79 -84 -79 -104 l0 -27 130 0 130 0 0 35 0 35 -66 0 -66 0 56 60 c59
64 82 118 70 167 -17 71 -100 109 -185 84z"/>
<path d="M31920 1455 l0 -145 45 0 45 0 0 93 c0 78 3 97 18 110 23 21 46 22
66 1 12 -12 16 -37 16 -110 l0 -94 45 0 45 0 0 88 c0 48 -5 104 -10 124 -20
72 -92 98 -157 58 -33 -20 -33 -20 -33 0 0 17 -7 20 -40 20 l-40 0 0 -145z"/>
<path d="M1190 1509 c-80 -25 -120 -86 -106 -162 8 -44 62 -93 113 -104 70
-15 159 -7 202 18 95 53 93 182 -3 231 -48 24 -153 33 -206 17z m180 -92 c16
-8 26 -23 28 -40 3 -23 -2 -30 -32 -42 -19 -8 -60 -15 -91 -15 -31 0 -72 7
-91 15 -30 12 -35 19 -32 42 4 38 39 53 123 53 39 0 81 -6 95 -13z"/>
</g>
</svg>
