<?xml version="1.0" encoding="UTF-8" standalone="no"?>
<!-- Created with Inkscape (http://www.inkscape.org/) -->

<svg xmlns:dc="http://purl.org/dc/elements/1.1/" xmlns:cc="http://creativecommons.org/ns#" xmlns:rdf="http://www.w3.org/1999/02/22-rdf-syntax-ns#" xmlns:svg="http://www.w3.org/2000/svg" xmlns="http://www.w3.org/2000/svg" xmlns:inkscape="http://www.inkscape.org/namespaces/inkscape" version="1.0" width="3507pt" height="2480pt" viewBox="0 0 3507 2480" id="svg2">
  <defs id="defs472" />
  <metadata id="metadata4">
Created by potrace 1.11, written by Peter Selinger 2001-2013
<rdf:RDF>
  <cc:Work rdf:about="">
    <dc:format>image/svg+xml</dc:format>
    <dc:type rdf:resource="http://purl.org/dc/dcmitype/StillImage" />
  </cc:Work>
</rdf:RDF>
</metadata>
  <g transform="matrix(0.1,0,0,-0.1,0,2480)" id="g6" style="fill:#000000;stroke:none">
    <path d="m 360,23505 0,-895 4145,0 4145,0 0,895 0,895 -4145,0 -4145,0 0,-895 z m 1015,220 c 33,-21 57,-47 79,-85 28,-50 31,-63 31,-145 0,-72 -5,-100 -23,-139 l -22,-49 27,-29 27,-28 -32,-32 -32,-32 -28,27 -29,27 -62,-16 c -182,-46 -321,69 -321,266 0,119 44,200 132,245 46,23 63,26 129,23 63,-2 83,-8 124,-33 z m 1665,-25 0,-50 -55,0 -55,0 0,50 0,50 55,0 55,0 0,-50 z m 1320,25 c 46,-27 70,-76 70,-145 0,-116 -51,-162 -192,-168 l -88,-4 0,-89 0,-89 -60,0 -60,0 0,261 0,261 148,-4 c 126,-3 152,-6 182,-23 z m 2740,-240 0,-255 -55,0 -55,0 0,170 0,169 -57,3 -58,3 -3,38 c -3,34 -1,37 23,37 46,0 96,27 108,60 10,27 16,30 54,30 l 43,0 0,-255 z m 448,93 3,-158 29,0 c 28,0 30,-2 30,-40 0,-38 -2,-40 -30,-40 -30,0 -30,-1 -30,-55 l 0,-55 -55,0 -55,0 0,55 0,55 -100,0 -100,0 0,41 c 0,34 16,68 96,200 l 96,160 56,-3 57,-3 3,-157 z m -4748,87 c 0,-54 0,-55 30,-55 28,0 30,-2 30,-40 0,-38 -2,-40 -30,-40 l -31,0 3,-107 3,-108 28,-3 c 25,-3 27,-7 27,-49 l 0,-45 -60,4 c -45,3 -66,10 -83,26 -20,21 -22,32 -22,152 l 0,130 -27,0 c -26,0 -28,3 -28,40 0,36 3,40 25,40 23,0 25,3 25,48 0,27 3,52 7,55 3,4 28,7 55,7 l 48,0 0,-55 z m 3340,0 c 0,-54 0,-55 30,-55 28,0 30,-2 30,-40 0,-38 -2,-40 -30,-40 l -31,0 3,-107 3,-108 28,-3 c 25,-3 27,-7 27,-49 l 0,-45 -60,4 c -45,3 -66,10 -83,26 -20,21 -22,32 -22,152 l 0,130 -27,0 c -26,0 -28,3 -28,40 0,36 3,40 25,40 23,0 25,3 25,48 0,27 3,52 7,55 3,4 28,7 55,7 l 48,0 0,-55 z m -2762,-63 c 54,-24 92,-96 92,-173 l 0,-39 -131,0 -130,0 7,-22 c 12,-40 35,-58 75,-58 28,0 42,6 51,20 10,16 24,20 65,20 46,0 53,-3 53,-19 0,-25 -44,-77 -81,-96 -16,-9 -55,-15 -90,-15 -115,0 -177,59 -187,176 -14,174 123,276 276,206 z m 1370,0 c 54,-24 92,-96 92,-173 l 0,-39 -131,0 -130,0 7,-22 c 12,-40 35,-58 75,-58 28,0 42,6 51,20 10,16 24,20 65,20 46,0 53,-3 53,-19 0,-25 -44,-77 -81,-96 -16,-9 -55,-15 -90,-15 -115,0 -177,59 -187,176 -14,174 123,276 276,206 z m 1120,0 c 54,-24 92,-96 92,-173 l 0,-39 -131,0 -130,0 7,-22 c 12,-40 35,-58 75,-58 28,0 42,6 51,20 10,16 24,20 65,20 46,0 53,-3 53,-19 0,-25 -44,-77 -81,-96 -16,-9 -55,-15 -90,-15 -115,0 -177,59 -187,176 -14,174 123,276 276,206 z m 2050,0 c 54,-24 92,-96 92,-173 l 0,-39 -131,0 -130,0 7,-22 c 12,-40 35,-58 75,-58 28,0 42,6 51,20 10,16 24,20 65,20 46,0 53,-3 53,-19 0,-25 -44,-77 -81,-96 -16,-9 -55,-15 -90,-15 -115,0 -177,59 -187,176 -14,174 123,276 276,206 z m -6250,-122 c 2,-107 6,-138 19,-152 21,-23 55,-23 84,1 23,18 24,27 29,153 l 5,133 29,3 c 15,2 39,1 52,-2 l 24,-6 0,-190 0,-190 -55,0 c -42,0 -55,4 -55,15 0,12 -6,11 -32,-5 -66,-40 -162,-18 -191,43 -14,28 -17,65 -17,179 0,80 3,148 7,152 4,4 28,6 53,4 l 45,-3 3,-135 z m 586,125 c 57,-24 66,-54 66,-209 0,-79 4,-137 10,-141 25,-15 5,-25 -49,-25 -43,0 -60,4 -65,15 -5,13 -10,12 -38,-5 -59,-36 -161,-20 -188,29 -16,30 -12,114 6,140 21,29 64,47 136,56 60,8 84,24 74,50 -4,10 -19,15 -51,15 -39,0 -47,-3 -55,-25 -8,-22 -15,-25 -61,-25 l -52,0 6,36 c 7,39 38,81 72,94 34,14 150,11 189,-5 z m 244,-13 3,-23 30,26 c 20,16 43,25 65,25 l 34,0 0,-55 0,-55 -37,0 c -71,0 -83,-25 -83,-169 l 0,-111 -55,0 -55,0 0,188 c 0,104 3,192 7,196 4,4 25,6 48,4 33,-2 41,-7 43,-26 z m 540,-169 2,-193 -55,0 -55,0 0,188 c 0,104 3,192 7,196 4,4 28,6 53,4 l 45,-3 3,-192 z m 590,169 3,-23 30,26 c 20,16 43,25 65,25 l 34,0 0,-55 0,-55 -37,0 c -71,0 -83,-25 -83,-169 l 0,-111 -55,0 -55,0 0,188 c 0,104 3,192 7,196 4,4 25,6 48,4 33,-2 41,-7 43,-26 z m 1370,0 3,-23 30,26 c 20,16 43,25 65,25 l 34,0 0,-55 0,-55 -37,0 c -71,0 -83,-25 -83,-169 l 0,-111 -55,0 -55,0 0,188 c 0,104 3,192 7,196 4,4 25,6 48,4 33,-2 41,-7 43,-26 z m 503,-10 29,-32 0,-160 0,-160 -55,0 -55,0 0,134 c 0,109 -3,138 -16,150 -24,25 -69,20 -93,-10 -19,-24 -21,-40 -21,-150 l 0,-124 -55,0 -55,0 0,190 0,190 55,0 c 43,0 55,-3 55,-16 0,-13 5,-11 28,6 23,19 37,21 91,18 57,-4 67,-8 92,-36 z m 837,26 c 6,-7 26,-67 45,-133 19,-66 37,-113 41,-105 3,8 17,58 31,110 38,141 37,140 87,140 24,0 48,-4 54,-8 7,-5 -11,-70 -57,-202 -119,-338 -114,-330 -204,-330 l -55,0 0,45 c 0,43 1,45 30,45 60,0 58,25 -19,240 -38,107 -67,198 -64,203 7,12 100,8 111,-5 z" inkscape:connector-curvature="0" id="path8" />
    <path d="m 1165,23638 c -38,-30 -55,-76 -55,-150 0,-102 51,-172 125,-172 46,0 55,12 25,34 l -25,19 32,33 32,32 25,-23 25,-24 11,27 c 14,39 12,131 -4,170 -21,50 -60,76 -116,76 -33,0 -55,-6 -75,-22 z" inkscape:connector-curvature="0" id="path10" />
    <path d="m 4150,23580 0,-70 63,0 c 74,0 100,19 100,72 0,47 -32,68 -104,68 l -59,0 0,-70 z" inkscape:connector-curvature="0" id="path12" />
    <path d="m 7383,23513 -51,-88 50,-3 c 28,-2 52,-1 55,1 2,3 3,44 1,92 l -3,87 -52,-89 z" inkscape:connector-curvature="0" id="path14" />
    <path d="m 3237,23512 c -10,-10 -17,-26 -17,-35 0,-14 11,-17 65,-17 57,0 65,2 65,18 0,46 -81,70 -113,34 z" inkscape:connector-curvature="0" id="path16" />
    <path d="m 4607,23512 c -10,-10 -17,-26 -17,-35 0,-14 11,-17 65,-17 57,0 65,2 65,18 0,46 -81,70 -113,34 z" inkscape:connector-curvature="0" id="path18" />
    <path d="m 5727,23512 c -10,-10 -17,-26 -17,-35 0,-14 11,-17 65,-17 57,0 65,2 65,18 0,46 -81,70 -113,34 z" inkscape:connector-curvature="0" id="path20" />
    <path d="m 7777,23512 c -10,-10 -17,-26 -17,-35 0,-14 11,-17 65,-17 57,0 65,2 65,18 0,46 -81,70 -113,34 z" inkscape:connector-curvature="0" id="path22" />
    <path d="m 2142,23390 c -44,-10 -54,-22 -50,-56 7,-64 118,-26 118,41 0,27 -9,29 -68,15 z" inkscape:connector-curvature="0" id="path24" />
    <path d="m 8317,21373 c -9,-8 -9,-2036 -1,-2057 6,-15 274,-16 2937,-16 l 2930,0 -6,188 c -4,103 -7,566 -7,1030 l 0,842 -125,0 -125,0 0,-905 0,-905 -2680,0 -2680,0 0,915 0,915 -118,0 c -65,0 -122,-3 -125,-7 z" inkscape:connector-curvature="0" id="path26" />
    <path d="m 16148,20343 c -2,-571 -2,-1040 0,-1043 1,-2 4136,-6 9187,-8 l 9185,-4 0,126 0,126 -6997,0 c -3849,0 -7926,3 -9060,7 l -2063,6 -2,911 -3,911 -122,3 -121,3 -4,-1038 z" inkscape:connector-curvature="0" id="path28" />
    <path d="m 6090,20455 0,-905 -2865,0 -2865,0 0,-125 0,-125 2990,0 2990,0 0,1030 0,1030 -125,0 -125,0 0,-905 z" inkscape:connector-curvature="0" id="path30" />
    <path d="m 9523,18382 c -183,-92 -333,-169 -333,-172 0,-3 155,-83 345,-178 l 345,-172 -87,175 -88,175 83,165 c 45,91 82,167 82,170 0,11 -25,-1 -347,-163 z" inkscape:connector-curvature="0" id="path32" />
    <path d="m 22258,18531 c -76,-25 -136,-88 -157,-166 -16,-60 -13,-184 6,-240 20,-61 87,-130 139,-144 50,-14 148,-14 197,0 48,13 102,60 129,113 26,49 37,207 19,272 -16,58 -64,120 -113,145 -47,25 -171,35 -220,20 z m 160,-111 c 96,-59 96,-264 0,-334 -37,-26 -110,-26 -146,1 -50,37 -67,80 -67,168 0,58 5,89 18,113 37,68 128,92 195,52 z" inkscape:connector-curvature="0" id="path34" />
    <path d="m 20890,18435 c 0,-47 -3,-85 -7,-85 -3,0 -15,8 -25,17 -11,10 -41,18 -76,21 -47,3 -63,0 -91,-20 -51,-34 -70,-66 -83,-135 -20,-110 17,-209 93,-248 44,-23 110,-19 153,10 34,23 36,23 36,5 0,-17 7,-20 50,-20 l 50,0 0,270 0,270 -50,0 -50,0 0,-85 z m -57,-147 c 12,-6 27,-18 34,-27 19,-26 26,-96 13,-135 -31,-96 -146,-83 -165,18 -20,104 45,183 118,144 z" inkscape:connector-curvature="0" id="path36" />
    <path d="m 21720,18250 0,-270 55,0 55,0 0,270 0,270 -55,0 -55,0 0,-270 z" inkscape:connector-curvature="0" id="path38" />
    <path d="m 21920,18493 c 0,-16 3,-65 7,-110 l 6,-83 33,0 32,0 7,88 c 3,48 8,97 11,110 4,20 1,22 -46,22 -48,0 -50,-1 -50,-27 z" inkscape:connector-curvature="0" id="path40" />
    <path d="m 23990,18435 c 0,-52 -1,-55 -25,-55 -22,0 -25,-4 -25,-40 0,-36 3,-40 25,-40 l 25,0 0,-135 c 0,-131 1,-137 25,-160 20,-21 34,-25 85,-25 l 60,0 0,39 c 0,36 -3,40 -27,43 l -28,3 -3,118 -3,117 31,0 c 28,0 30,2 30,40 0,38 -2,40 -30,40 -30,0 -30,1 -30,55 l 0,55 -55,0 -55,0 0,-55 z" inkscape:connector-curvature="0" id="path42" />
    <path d="m 19415,18378 c -11,-6 -28,-20 -37,-32 l -18,-21 0,28 c 0,26 -2,27 -50,27 l -50,0 0,-200 0,-200 50,0 50,0 0,109 c 0,153 18,191 91,191 l 39,0 0,55 c 0,53 -1,55 -27,55 -16,0 -37,-6 -48,-12 z" inkscape:connector-curvature="0" id="path44" />
    <path d="m 20063,18365 c -58,-35 -83,-90 -83,-185 0,-100 23,-148 89,-184 88,-47 187,-32 249,38 47,54 43,66 -21,66 -41,0 -58,-5 -72,-20 -40,-44 -120,-16 -140,48 l -6,22 140,0 c 160,0 149,-7 131,90 -12,63 -50,117 -96,136 -55,23 -142,18 -191,-11 z m 136,-70 c 28,-14 41,-33 41,-61 0,-11 -17,-14 -75,-14 -86,0 -95,11 -46,61 34,33 41,35 80,14 z" inkscape:connector-curvature="0" id="path46" />
    <path d="m 21143,18365 c -58,-35 -83,-90 -83,-185 0,-100 23,-148 89,-184 88,-47 187,-32 249,38 47,54 43,66 -21,66 -41,0 -58,-5 -72,-20 -40,-44 -120,-16 -140,48 l -6,22 140,0 c 160,0 149,-7 131,90 -12,63 -50,117 -96,136 -55,23 -142,18 -191,-11 z m 136,-70 c 28,-14 41,-33 41,-61 0,-11 -17,-14 -75,-14 -86,0 -95,11 -46,61 34,33 41,35 80,14 z" inkscape:connector-curvature="0" id="path48" />
    <path d="m 23203,18365 c -58,-35 -83,-90 -83,-185 0,-100 23,-148 89,-184 88,-47 187,-32 249,38 47,54 43,66 -21,66 -41,0 -58,-5 -72,-20 -40,-44 -120,-16 -140,48 l -6,22 140,0 c 160,0 149,-7 131,90 -12,63 -50,117 -96,136 -55,23 -142,18 -191,-11 z m 136,-70 c 28,-14 41,-33 41,-61 0,-11 -17,-14 -75,-14 -86,0 -95,11 -46,61 34,33 41,35 80,14 z" inkscape:connector-curvature="0" id="path50" />
    <path d="m 23614,18371 c -47,-29 -64,-59 -64,-114 0,-59 27,-88 98,-107 95,-25 126,-37 136,-54 9,-13 7,-20 -8,-32 -38,-27 -119,-10 -129,27 -4,16 -15,19 -62,19 l -57,0 7,-27 c 18,-75 61,-104 161,-111 127,-8 204,39 204,125 0,72 -36,104 -153,134 -81,21 -107,40 -87,63 26,32 120,12 120,-25 0,-5 25,-9 55,-9 55,0 55,0 49,28 -17,73 -65,102 -171,102 -49,0 -77,-5 -99,-19 z" inkscape:connector-curvature="0" id="path52" />
    <path d="m 19550,18219 c 0,-146 2,-165 21,-195 35,-58 144,-69 204,-22 l 25,19 0,-20 c 0,-19 6,-21 55,-21 l 55,0 0,200 0,200 -55,0 -55,0 0,-125 c 0,-134 -8,-166 -47,-184 -36,-16 -58,-14 -79,10 -16,18 -19,40 -22,160 l -4,139 -49,0 -49,0 0,-161 z" inkscape:connector-curvature="0" id="path54" />
    <path d="m 22690,18219 c 0,-146 2,-165 21,-195 35,-58 144,-69 204,-22 l 25,19 0,-20 c 0,-19 6,-21 55,-21 l 55,0 0,200 0,200 -55,0 -55,0 0,-125 c 0,-134 -8,-166 -47,-184 -36,-16 -58,-14 -79,10 -16,18 -19,40 -22,160 l -4,139 -49,0 -49,0 0,-161 z" inkscape:connector-curvature="0" id="path56" />
    <path d="m 10065,18265 c -46,-45 -21,-129 40,-135 63,-7 95,20 95,79 0,73 -84,108 -135,56 z" inkscape:connector-curvature="0" id="path58" />
    <path d="m 10565,18265 c -58,-58 -10,-142 78,-136 57,4 79,102 31,140 -36,28 -79,27 -109,-4 z" inkscape:connector-curvature="0" id="path60" />
    <path d="m 11065,18265 c -58,-58 -10,-142 78,-136 57,4 79,102 31,140 -36,28 -79,27 -109,-4 z" inkscape:connector-curvature="0" id="path62" />
    <path d="m 11565,18265 c -58,-58 -10,-142 78,-136 57,4 79,102 31,140 -36,28 -79,27 -109,-4 z" inkscape:connector-curvature="0" id="path64" />
    <path d="m 12065,18265 c -32,-31 -32,-76 -2,-109 39,-44 110,-36 131,15 17,40 9,75 -22,99 -34,27 -77,25 -107,-5 z" inkscape:connector-curvature="0" id="path66" />
    <path d="m 12565,18265 c -32,-31 -32,-76 -2,-109 39,-44 110,-36 131,15 17,40 9,75 -22,99 -34,27 -77,25 -107,-5 z" inkscape:connector-curvature="0" id="path68" />
    <path d="m 13065,18265 c -30,-30 -32,-73 -5,-107 38,-49 118,-37 138,21 29,83 -72,148 -133,86 z" inkscape:connector-curvature="0" id="path70" />
    <path d="m 13565,18265 c -30,-30 -32,-73 -5,-107 38,-49 118,-37 138,21 29,83 -72,148 -133,86 z" inkscape:connector-curvature="0" id="path72" />
    <path d="m 8006,17695 c -20,-30 -35,-55 -34,-56 2,0 20,-1 41,-2 34,-2 44,4 94,56 l 57,57 -60,0 -61,0 -37,-55 z" inkscape:connector-curvature="0" id="path74" />
    <path d="m 15290,17460 0,-270 55,0 54,0 3,98 3,97 100,5 c 157,8 195,41 195,171 0,81 -21,123 -74,149 -37,17 -62,20 -189,20 l -147,0 0,-270 z m 281,151 c 27,-32 24,-77 -6,-106 -21,-22 -33,-25 -95,-25 l -70,0 0,81 0,81 76,-4 c 65,-3 79,-7 95,-27 z" inkscape:connector-curvature="0" id="path76" />
    <path d="m 27920,17680 0,-50 55,0 55,0 0,50 0,50 -55,0 -55,0 0,-50 z" inkscape:connector-curvature="0" id="path78" />
    <path d="m 3710,17635 c 0,-47 -3,-85 -7,-85 -3,0 -15,8 -25,17 -11,10 -41,18 -76,21 -47,3 -63,0 -91,-20 -51,-34 -70,-66 -83,-135 -20,-110 17,-209 93,-248 44,-23 110,-19 153,10 34,23 36,23 36,5 0,-17 7,-20 50,-20 l 50,0 0,270 0,270 -50,0 -50,0 0,-85 z m -57,-147 c 12,-6 27,-18 34,-27 19,-26 26,-96 13,-135 -31,-96 -146,-83 -165,18 -20,104 45,183 118,144 z" inkscape:connector-curvature="0" id="path80" />
    <path d="m 4540,17450 0,-270 55,0 54,0 3,98 3,97 100,5 c 157,8 195,41 195,171 0,81 -21,123 -74,149 -37,17 -62,20 -189,20 l -147,0 0,-270 z m 281,151 c 27,-32 24,-77 -6,-106 -21,-22 -33,-25 -95,-25 l -70,0 0,81 0,81 76,-4 c 65,-3 79,-7 95,-27 z" inkscape:connector-curvature="0" id="path82" />
    <path d="m 27380,17450 0,-270 55,0 55,0 2,187 3,188 106,-185 107,-185 56,-3 56,-3 0,271 0,270 -50,0 -50,0 -2,-182 -3,-183 -104,183 -103,182 -64,0 -64,0 0,-270 z" inkscape:connector-curvature="0" id="path84" />
    <path d="m 17380,17645 c 0,-52 -1,-55 -25,-55 -22,0 -25,-4 -25,-40 0,-36 3,-40 25,-40 l 25,0 0,-135 c 0,-131 1,-137 25,-160 20,-21 34,-25 85,-25 l 60,0 0,39 c 0,36 -3,40 -27,43 l -28,3 -3,118 -3,117 31,0 c 28,0 30,2 30,40 0,38 -2,40 -30,40 -30,0 -30,1 -30,55 l 0,55 -55,0 -55,0 0,-55 z" inkscape:connector-curvature="0" id="path86" />
    <path d="m 14065,17588 c -11,-6 -28,-20 -37,-32 l -18,-21 0,28 c 0,26 -2,27 -50,27 l -50,0 0,-200 0,-200 50,0 50,0 0,109 c 0,153 18,191 91,191 l 39,0 0,55 c 0,53 -1,55 -27,55 -16,0 -37,-6 -48,-12 z" inkscape:connector-curvature="0" id="path88" />
    <path d="m 14713,17575 c -58,-35 -83,-90 -83,-185 0,-100 23,-148 89,-184 88,-47 187,-32 249,38 47,54 43,66 -21,66 -41,0 -58,-5 -72,-20 -40,-44 -120,-16 -140,48 l -6,22 140,0 c 160,0 149,-7 131,90 -12,63 -50,117 -96,136 -55,23 -142,18 -191,-11 z m 136,-70 c 28,-14 41,-33 41,-61 0,-11 -17,-14 -75,-14 -86,0 -95,11 -46,61 34,33 41,35 80,14 z" inkscape:connector-curvature="0" id="path90" />
    <path d="m 15833,17575 c -58,-35 -83,-90 -83,-185 0,-100 23,-148 89,-184 88,-47 187,-32 249,38 47,54 43,66 -21,66 -41,0 -58,-5 -72,-20 -40,-44 -120,-16 -140,48 l -6,22 140,0 c 160,0 149,-7 131,90 -12,63 -50,117 -96,136 -55,23 -142,18 -191,-11 z m 136,-70 c 28,-14 41,-33 41,-61 0,-11 -17,-14 -75,-14 -86,0 -95,11 -46,61 34,33 41,35 80,14 z" inkscape:connector-curvature="0" id="path92" />
    <path d="m 16355,17588 c -11,-6 -28,-20 -37,-32 l -18,-21 0,28 c 0,26 -2,27 -50,27 l -50,0 0,-200 0,-200 50,0 50,0 0,109 c 0,153 18,191 91,191 l 39,0 0,55 c 0,53 -1,55 -27,55 -16,0 -37,-6 -48,-12 z" inkscape:connector-curvature="0" id="path94" />
    <path d="m 16626,17575 c -34,-23 -36,-23 -36,-5 0,17 -7,20 -50,20 l -50,0 0,-200 0,-200 50,0 50,0 0,109 c 0,128 6,163 32,190 24,27 79,28 101,3 14,-15 17,-42 17,-160 l 0,-142 55,0 55,0 0,160 c 0,178 -8,208 -60,235 -46,24 -121,19 -164,-10 z" inkscape:connector-curvature="0" id="path96" />
    <path d="m 17003,17575 c -58,-35 -83,-90 -83,-185 0,-100 23,-148 89,-184 88,-47 187,-32 249,38 47,54 43,66 -21,66 -41,0 -58,-5 -72,-20 -40,-44 -120,-16 -140,48 l -6,22 140,0 c 160,0 149,-7 131,90 -12,63 -50,117 -96,136 -55,23 -142,18 -191,-11 z m 136,-70 c 28,-14 41,-33 41,-61 0,-11 -17,-14 -75,-14 -86,0 -95,11 -46,61 34,33 41,35 80,14 z" inkscape:connector-curvature="0" id="path98" />
    <path d="m 2225,17578 c -11,-6 -28,-20 -37,-32 l -18,-21 0,28 c 0,26 -2,27 -50,27 l -50,0 0,-200 0,-200 50,0 50,0 0,109 c 0,153 18,191 91,191 l 39,0 0,55 c 0,53 -1,55 -27,55 -16,0 -37,-6 -48,-12 z" inkscape:connector-curvature="0" id="path100" />
    <path d="m 2873,17565 c -58,-35 -83,-90 -83,-185 0,-100 23,-148 89,-184 88,-47 187,-32 249,38 47,54 43,66 -21,66 -41,0 -58,-5 -72,-20 -40,-44 -120,-16 -140,48 l -6,22 140,0 c 160,0 149,-7 131,90 -12,63 -50,117 -96,136 -55,23 -142,18 -191,-11 z m 136,-70 c 28,-14 41,-33 41,-61 0,-11 -17,-14 -75,-14 -86,0 -95,11 -46,61 34,33 41,35 80,14 z" inkscape:connector-curvature="0" id="path102" />
    <path d="m 3963,17565 c -58,-35 -83,-90 -83,-185 0,-100 23,-148 89,-184 88,-47 187,-32 249,38 47,54 43,66 -21,66 -41,0 -58,-5 -72,-20 -40,-44 -120,-16 -140,48 l -6,22 140,0 c 160,0 149,-7 131,90 -12,63 -50,117 -96,136 -55,23 -142,18 -191,-11 z m 136,-70 c 28,-14 41,-33 41,-61 0,-11 -17,-14 -75,-14 -86,0 -95,11 -46,61 34,33 41,35 80,14 z" inkscape:connector-curvature="0" id="path104" />
    <path d="m 5185,17578 c -11,-6 -28,-20 -37,-32 l -18,-21 0,28 c 0,26 -2,27 -50,27 l -50,0 0,-200 0,-200 50,0 50,0 0,109 c 0,153 18,191 91,191 l 39,0 0,55 c 0,53 -1,55 -27,55 -16,0 -37,-6 -48,-12 z" inkscape:connector-curvature="0" id="path106" />
    <path d="m 5383,17565 c -58,-35 -83,-90 -83,-185 0,-100 23,-148 89,-184 88,-47 187,-32 249,38 47,54 43,66 -21,66 -41,0 -58,-5 -72,-20 -40,-44 -120,-16 -140,48 l -6,22 140,0 c 160,0 149,-7 131,90 -12,63 -50,117 -96,136 -55,23 -142,18 -191,-11 z m 136,-70 c 28,-14 41,-33 41,-61 0,-11 -17,-14 -75,-14 -86,0 -95,11 -46,61 34,33 41,35 80,14 z" inkscape:connector-curvature="0" id="path108" />
    <path d="m 5794,17571 c -47,-29 -64,-59 -64,-114 0,-59 27,-88 98,-107 95,-25 126,-37 136,-54 9,-13 7,-20 -8,-32 -38,-27 -119,-10 -129,27 -4,16 -15,19 -62,19 l -57,0 7,-27 c 18,-75 61,-104 161,-111 127,-8 204,39 204,125 0,72 -36,104 -153,134 -81,21 -107,40 -87,63 26,32 120,12 120,-25 0,-5 25,-9 55,-9 55,0 55,0 49,28 -17,73 -65,102 -171,102 -49,0 -77,-5 -99,-19 z" inkscape:connector-curvature="0" id="path110" />
    <path d="m 6214,17571 c -47,-29 -64,-59 -64,-114 0,-59 27,-88 98,-107 95,-25 126,-37 136,-54 9,-13 7,-20 -8,-32 -38,-27 -119,-10 -129,27 -4,16 -15,19 -62,19 l -57,0 7,-27 c 18,-75 61,-104 161,-111 127,-8 204,39 204,125 0,72 -36,104 -153,134 -81,21 -107,40 -87,63 26,32 120,12 120,-25 0,-5 25,-9 55,-9 55,0 55,0 49,28 -17,73 -65,102 -171,102 -49,0 -77,-5 -99,-19 z" inkscape:connector-curvature="0" id="path112" />
    <path d="m 6633,17565 c -58,-35 -83,-90 -83,-185 0,-100 23,-148 89,-184 88,-47 187,-32 249,38 47,54 43,66 -21,66 -41,0 -58,-5 -72,-20 -40,-44 -120,-16 -140,48 l -6,22 140,0 c 160,0 149,-7 131,90 -12,63 -50,117 -96,136 -55,23 -142,18 -191,-11 z m 136,-70 c 28,-14 41,-33 41,-61 0,-11 -17,-14 -75,-14 -86,0 -95,11 -46,61 34,33 41,35 80,14 z" inkscape:connector-curvature="0" id="path114" />
    <path d="m 7126,17565 c -34,-23 -36,-23 -36,-5 0,17 -7,20 -50,20 l -50,0 0,-200 0,-200 50,0 50,0 0,109 c 0,128 6,163 32,190 24,27 79,28 101,3 14,-15 17,-42 17,-160 l 0,-142 55,0 55,0 0,160 c 0,178 -8,208 -60,235 -46,24 -121,19 -164,-10 z" inkscape:connector-curvature="0" id="path116" />
    <path d="m 7504,17571 c -47,-29 -64,-59 -64,-114 0,-59 27,-88 98,-107 95,-25 126,-37 136,-54 9,-13 7,-20 -8,-32 -38,-27 -119,-10 -129,27 -4,16 -15,19 -62,19 l -57,0 7,-27 c 18,-75 61,-104 161,-111 127,-8 204,39 204,125 0,72 -36,104 -153,134 -81,21 -107,40 -87,63 26,32 120,12 120,-25 0,-5 25,-9 55,-9 55,0 55,0 49,28 -17,73 -65,102 -171,102 -49,0 -77,-5 -99,-19 z" inkscape:connector-curvature="0" id="path118" />
    <path d="m 7923,17565 c -58,-35 -83,-90 -83,-185 0,-100 23,-148 89,-184 88,-47 187,-32 249,38 47,54 43,66 -21,66 -41,0 -58,-5 -72,-20 -40,-44 -120,-16 -140,48 l -6,22 140,0 c 160,0 149,-7 131,90 -12,63 -50,117 -96,136 -55,23 -142,18 -191,-11 z m 136,-70 c 28,-14 41,-33 41,-61 0,-11 -17,-14 -75,-14 -86,0 -95,11 -46,61 34,33 41,35 80,14 z" inkscape:connector-curvature="0" id="path120" />
    <path d="m 14200,17429 c 0,-146 2,-165 21,-195 35,-58 144,-69 204,-22 l 25,19 0,-20 c 0,-19 6,-21 55,-21 l 55,0 0,200 0,200 -55,0 -55,0 0,-125 c 0,-134 -8,-166 -47,-184 -36,-16 -58,-14 -79,10 -16,18 -19,40 -22,160 l -4,139 -49,0 -49,0 0,-161 z" inkscape:connector-curvature="0" id="path122" />
    <path d="m 17580,17586 c 0,-2 32,-96 71,-208 81,-231 82,-251 16,-256 -37,-3 -37,-4 -37,-48 l 0,-44 48,0 c 58,0 91,16 114,56 17,30 178,476 178,495 0,5 -24,9 -54,9 l -55,0 -15,-52 c -8,-29 -25,-90 -37,-135 -12,-46 -25,-83 -28,-83 -3,0 -24,61 -45,135 l -39,135 -58,0 c -33,0 -59,-2 -59,-4 z" inkscape:connector-curvature="0" id="path124" />
    <path d="m 26155,17578 c -11,-6 -28,-20 -37,-32 l -18,-21 0,28 c 0,26 -2,27 -50,27 l -50,0 0,-200 0,-200 50,0 50,0 0,109 c 0,153 18,191 91,191 l 39,0 0,55 c 0,53 -1,55 -27,55 -16,0 -37,-6 -48,-12 z" inkscape:connector-curvature="0" id="path126" />
    <path d="m 26813,17565 c -58,-35 -83,-90 -83,-185 0,-100 23,-148 89,-184 88,-47 187,-32 249,38 47,54 43,66 -21,66 -41,0 -58,-5 -72,-20 -40,-44 -120,-16 -140,48 l -6,22 140,0 c 160,0 149,-7 131,90 -12,63 -50,117 -96,136 -55,23 -142,18 -191,-11 z m 136,-70 c 28,-14 41,-33 41,-61 0,-11 -17,-14 -75,-14 -86,0 -95,11 -46,61 34,33 41,35 80,14 z" inkscape:connector-curvature="0" id="path128" />
    <path d="m 28183,17565 c -58,-35 -83,-90 -83,-185 0,-100 23,-148 89,-184 88,-47 187,-32 249,38 47,54 43,66 -21,66 -41,0 -58,-5 -72,-20 -40,-44 -120,-16 -140,48 l -6,22 140,0 c 160,0 149,-7 131,90 -12,63 -50,117 -96,136 -55,23 -142,18 -191,-11 z m 136,-70 c 28,-14 41,-33 41,-61 0,-11 -17,-14 -75,-14 -86,0 -95,11 -46,61 34,33 41,35 80,14 z" inkscape:connector-curvature="0" id="path130" />
    <path d="m 28710,17583 c -8,-3 -25,-15 -37,-26 l -23,-20 0,21 c 0,20 -5,22 -50,22 l -50,0 0,-277 0,-278 47,1 48,1 3,96 3,96 36,-25 c 45,-30 95,-31 153,-1 61,31 84,79 88,182 3,68 0,87 -20,125 -31,60 -78,90 -137,89 -25,0 -53,-3 -61,-6 z m 77,-107 c 26,-22 28,-30 28,-96 0,-66 -2,-74 -28,-96 -38,-32 -72,-31 -108,5 -26,26 -29,36 -29,91 0,55 3,65 29,91 36,36 70,37 108,5 z" inkscape:connector-curvature="0" id="path132" />
    <path d="m 29100,17583 c -75,-28 -110,-94 -110,-208 0,-89 21,-140 73,-179 41,-30 173,-30 214,0 37,28 73,81 73,110 0,22 -4,24 -55,24 -47,0 -55,-3 -55,-18 0,-53 -84,-70 -120,-24 -19,23 -21,37 -18,101 3,62 7,76 27,92 13,10 36,19 51,19 27,0 60,-26 60,-48 0,-8 21,-12 59,-12 l 59,0 -10,37 c -15,55 -35,80 -79,97 -38,15 -138,20 -169,9 z" inkscape:connector-curvature="0" id="path134" />
    <path d="m 29473,17565 c -58,-35 -83,-90 -83,-185 0,-100 23,-148 89,-184 88,-47 187,-32 249,38 47,54 43,66 -21,66 -41,0 -58,-5 -72,-20 -40,-44 -120,-16 -140,48 l -6,22 140,0 c 160,0 149,-7 131,90 -12,63 -50,117 -96,136 -55,23 -142,18 -191,-11 z m 136,-70 c 28,-14 41,-33 41,-61 0,-11 -17,-14 -75,-14 -86,0 -95,11 -46,61 34,33 41,35 80,14 z" inkscape:connector-curvature="0" id="path136" />
    <path d="m 2370,17419 c 0,-146 2,-165 21,-195 35,-58 144,-69 204,-22 l 25,19 0,-20 c 0,-19 6,-21 55,-21 l 55,0 0,200 0,200 -55,0 -55,0 0,-125 c 0,-134 -8,-166 -47,-184 -36,-16 -58,-14 -79,10 -16,18 -19,40 -22,160 l -4,139 -49,0 -49,0 0,-161 z" inkscape:connector-curvature="0" id="path138" />
    <path d="m 26300,17419 c 0,-146 2,-165 21,-195 35,-58 144,-69 204,-22 l 25,19 0,-20 c 0,-19 6,-21 55,-21 l 55,0 0,200 0,200 -55,0 -55,0 0,-125 c 0,-134 -8,-166 -47,-184 -36,-16 -58,-14 -79,10 -16,18 -19,40 -22,160 l -4,139 -49,0 -49,0 0,-161 z" inkscape:connector-curvature="0" id="path140" />
    <path d="m 27920,17380 0,-200 55,0 55,0 0,200 0,200 -55,0 -55,0 0,-200 z" inkscape:connector-curvature="0" id="path142" />
    <path d="m 368,16824 c -5,-4 -8,-61 -8,-126 l 0,-118 583,0 c 321,0 1165,-3 1875,-7 l 1292,-6 0,-2319 0,-2318 -1882,-2 -1883,-3 -3,-122 -3,-123 2011,0 c 1907,0 2010,1 2010,18 5,197 -3,5109 -8,5113 -10,10 -3975,23 -3984,13 z" inkscape:connector-curvature="0" id="path144" />
    <path d="m 5764,16801 c -2,-2 -4,-1158 -4,-2568 l 0,-2563 4760,0 4760,0 0,2568 0,2567 -4756,0 c -2616,0 -4758,-2 -4760,-4 z m 9264,-2563 -3,-2313 -3027,-3 -3028,-2 0,705 0,705 -1190,0 -1190,0 0,-705 0,-705 -287,2 -288,3 -3,2313 -2,2312 4510,0 4510,0 -2,-2312 z m -6268,-1718 0,-600 -977,2 -978,3 -3,598 -2,597 980,0 980,0 0,-600 z" inkscape:connector-curvature="0" id="path146" />
    <path d="m 9566,16145 c -20,-30 -35,-55 -34,-56 2,0 20,-1 41,-2 34,-2 44,4 94,56 l 57,57 -60,0 -61,0 -37,-55 z" inkscape:connector-curvature="0" id="path148" />
    <path d="m 8810,15900 0,-270 55,0 55,0 0,207 c 0,113 2,204 5,201 3,-2 23,-85 45,-184 22,-98 42,-189 45,-202 5,-21 10,-23 62,-20 l 57,3 45,205 46,205 3,-207 2,-208 55,0 55,0 0,270 0,270 -85,0 c -47,0 -85,-3 -85,-6 0,-15 -83,-370 -89,-382 -4,-7 -27,76 -52,185 l -46,198 -86,3 -87,3 0,-271 z" inkscape:connector-curvature="0" id="path150" />
    <path d="m 11070,15900 0,-270 55,0 54,0 3,98 3,97 100,5 c 157,8 195,41 195,171 0,81 -21,123 -74,149 -37,17 -62,20 -189,20 l -147,0 0,-270 z m 281,151 c 27,-32 24,-77 -6,-106 -21,-22 -33,-25 -95,-25 l -70,0 0,81 0,81 76,-4 c 65,-3 79,-7 95,-27 z" inkscape:connector-curvature="0" id="path152" />
    <path d="m 9860,16085 c 0,-52 -1,-55 -25,-55 -22,0 -25,-4 -25,-40 0,-36 3,-40 25,-40 l 25,0 0,-135 c 0,-131 1,-137 25,-160 20,-21 34,-25 85,-25 l 60,0 0,39 c 0,36 -3,40 -27,43 l -28,3 -3,118 -3,117 31,0 c 28,0 30,2 30,40 0,38 -2,40 -30,40 -30,0 -30,1 -30,55 l 0,55 -55,0 -55,0 0,-55 z" inkscape:connector-curvature="0" id="path154" />
    <path d="m 13150,16085 c 0,-52 -1,-55 -25,-55 -22,0 -25,-4 -25,-40 0,-36 3,-40 25,-40 l 25,0 0,-135 c 0,-131 1,-137 25,-160 20,-21 34,-25 85,-25 l 60,0 0,39 c 0,36 -3,40 -27,43 l -28,3 -3,118 -3,117 31,0 c 28,0 30,2 30,40 0,38 -2,40 -30,40 -30,0 -30,1 -30,55 l 0,55 -55,0 -55,0 0,-55 z" inkscape:connector-curvature="0" id="path156" />
    <path d="m 10506,16039 c -90,-22 -140,-97 -140,-209 1,-95 46,-172 117,-199 66,-25 181,-7 231,37 73,65 75,243 3,320 -46,49 -133,71 -211,51 z m 128,-121 c 26,-29 28,-35 24,-96 -4,-56 -8,-68 -32,-88 -34,-30 -88,-32 -115,-5 -39,39 -48,128 -19,184 12,24 67,48 93,41 11,-3 33,-19 49,-36 z" inkscape:connector-curvature="0" id="path158" />
    <path d="m 9483,16015 c -58,-35 -83,-90 -83,-185 0,-100 23,-148 89,-184 88,-47 187,-32 249,38 47,54 43,66 -21,66 -41,0 -58,-5 -72,-20 -40,-44 -120,-16 -140,48 l -6,22 140,0 c 160,0 149,-7 131,90 -12,63 -50,117 -96,136 -55,23 -142,18 -191,-11 z m 136,-70 c 28,-14 41,-33 41,-61 0,-11 -17,-14 -75,-14 -86,0 -95,11 -46,61 34,33 41,35 80,14 z" inkscape:connector-curvature="0" id="path160" />
    <path d="m 10255,16028 c -11,-6 -28,-20 -37,-32 l -18,-21 0,28 c 0,26 -2,27 -50,27 l -50,0 0,-200 0,-200 50,0 50,0 0,109 c 0,153 18,191 91,191 l 39,0 0,55 c 0,53 -1,55 -27,55 -16,0 -37,-6 -48,-12 z" inkscape:connector-curvature="0" id="path162" />
    <path d="m 11613,16015 c -58,-35 -83,-90 -83,-185 0,-100 23,-148 89,-184 88,-47 187,-32 249,38 47,54 43,66 -21,66 -41,0 -58,-5 -72,-20 -40,-44 -120,-16 -140,48 l -6,22 140,0 c 160,0 149,-7 131,90 -12,63 -50,117 -96,136 -55,23 -142,18 -191,-11 z m 136,-70 c 28,-14 41,-33 41,-61 0,-11 -17,-14 -75,-14 -86,0 -95,11 -46,61 34,33 41,35 80,14 z" inkscape:connector-curvature="0" id="path164" />
    <path d="m 12125,16028 c -11,-6 -28,-20 -37,-32 l -18,-21 0,28 c 0,26 -2,27 -50,27 l -50,0 0,-200 0,-200 50,0 50,0 0,109 c 0,153 18,191 91,191 l 39,0 0,55 c 0,53 -1,55 -27,55 -16,0 -37,-6 -48,-12 z" inkscape:connector-curvature="0" id="path166" />
    <path d="m 12406,16015 c -34,-23 -36,-23 -36,-5 0,17 -7,20 -50,20 l -50,0 0,-200 0,-200 50,0 50,0 0,109 c 0,128 6,163 32,190 24,27 79,28 101,3 14,-15 17,-42 17,-160 l 0,-142 55,0 55,0 0,160 c 0,178 -8,208 -60,235 -46,24 -121,19 -164,-10 z" inkscape:connector-curvature="0" id="path168" />
    <path d="m 12773,16015 c -58,-35 -83,-90 -83,-185 0,-100 23,-148 89,-184 88,-47 187,-32 249,38 47,54 43,66 -21,66 -41,0 -58,-5 -72,-20 -40,-44 -120,-16 -140,48 l -6,22 140,0 c 160,0 149,-7 131,90 -12,63 -50,117 -96,136 -55,23 -142,18 -191,-11 z m 136,-70 c 28,-14 41,-33 41,-61 0,-11 -17,-14 -75,-14 -86,0 -95,11 -46,61 34,33 41,35 80,14 z" inkscape:connector-curvature="0" id="path170" />
    <path d="m 13350,16026 c 0,-2 32,-96 71,-208 81,-231 82,-251 16,-256 -37,-3 -37,-4 -37,-48 l 0,-44 48,0 c 58,0 91,16 114,56 17,30 178,476 178,495 0,5 -24,9 -54,9 l -55,0 -15,-52 c -8,-29 -25,-90 -37,-135 -12,-46 -25,-83 -28,-83 -3,0 -24,61 -45,135 l -39,135 -58,0 c -33,0 -59,-2 -59,-4 z" inkscape:connector-curvature="0" id="path172" />
    <path d="m 10175,15368 c -22,-5 -67,-16 -100,-23 -297,-66 -540,-301 -624,-605 -12,-41 -21,-88 -21,-105 0,-17 -5,-36 -11,-42 -25,-25 12,-255 61,-381 82,-213 269,-398 491,-485 113,-45 329,-79 373,-59 11,5 50,14 86,20 146,22 324,116 438,230 159,159 255,386 256,607 1,165 -82,394 -194,532 -111,138 -303,257 -465,289 -44,8 -94,20 -111,25 -37,11 -125,10 -179,-3 z m 272,-144 c 32,-8 100,-35 152,-60 78,-38 109,-61 181,-134 73,-72 96,-103 134,-181 61,-125 79,-200 79,-329 1,-270 -151,-521 -385,-637 -116,-58 -184,-76 -306,-81 -140,-6 -218,11 -352,75 -81,39 -108,59 -186,137 -78,78 -98,105 -137,186 -64,134 -81,212 -75,352 5,122 23,190 81,306 99,199 305,344 542,383 64,10 199,2 272,-17 z" inkscape:connector-curvature="0" id="path174" />
    <path d="m 9876,14838 c -5,-37 -18,-237 -43,-670 l -6,-98 81,0 c 44,0 83,3 85,8 3,4 11,143 18,310 7,166 16,299 19,295 3,-5 16,-53 28,-109 12,-55 46,-188 75,-295 l 53,-194 74,0 73,0 64,205 c 35,113 73,243 84,290 12,47 25,91 29,99 4,7 10,-88 14,-210 3,-123 9,-263 13,-311 l 6,-88 89,0 89,0 -5,68 c -3,37 -8,112 -11,167 -3,55 -8,145 -11,200 -3,55 -9,161 -12,235 l -7,135 -120,0 -119,0 -47,-147 c -26,-80 -62,-203 -80,-273 -18,-69 -35,-122 -39,-118 -3,4 -12,37 -18,73 -7,36 -38,156 -70,268 l -57,202 -122,0 -122,0 -5,-42 z" inkscape:connector-curvature="0" id="path176" />
    <path d="m 12345,14943 c -16,-3 -34,-8 -40,-13 -5,-4 -23,-10 -39,-14 -52,-13 -58,-27 -42,-97 19,-80 28,-88 68,-64 47,28 180,34 224,10 39,-21 52,-61 32,-101 -20,-42 -67,-63 -150,-66 l -73,-3 -3,-71 -3,-71 84,-5 c 58,-4 93,-11 113,-24 54,-35 64,-51 64,-102 0,-51 -11,-67 -69,-97 -32,-16 -156,-21 -165,-6 -3,5 -26,12 -51,15 -25,4 -45,11 -45,17 0,5 -6,9 -13,9 -19,0 -61,-138 -48,-158 14,-22 178,-62 256,-62 96,0 225,43 278,93 117,108 89,315 -49,373 -36,15 -53,34 -31,34 8,0 36,20 61,44 38,36 48,52 57,99 12,59 1,133 -24,163 -65,79 -107,96 -247,99 -63,2 -128,1 -145,-2 z" inkscape:connector-curvature="0" id="path178" />
    <path d="m 11665,14910 c -33,-16 -66,-30 -72,-30 -7,0 -13,-4 -13,-9 0,-5 -12,-12 -27,-16 -46,-10 -66,-30 -54,-52 5,-11 13,-43 17,-71 7,-57 17,-62 62,-38 15,8 47,24 72,35 l 45,21 3,-345 2,-345 100,0 100,0 0,440 0,440 -87,-1 c -76,0 -96,-4 -148,-29 z" inkscape:connector-curvature="0" id="path180" />
    <path d="m 13400,13575 -285,-285 65,-65 c 35,-36 69,-65 75,-65 5,0 136,126 290,280 l 280,280 -70,70 -70,70 -285,-285 z" inkscape:connector-curvature="0" id="path182" />
    <path d="m 13697,13282 c -196,-196 -357,-361 -357,-367 0,-16 173,-185 190,-185 8,0 175,160 370,355 l 355,355 -100,100 -100,100 -358,-358 z" inkscape:connector-curvature="0" id="path184" />
    <path d="m 14010,12955 -445,-445 135,-135 c 74,-74 139,-135 145,-135 13,0 885,872 885,885 0,10 -260,275 -270,275 -3,0 -205,-200 -450,-445 z" inkscape:connector-curvature="0" id="path186" />
    <path d="m 7442,12729 c -118,-20 -275,-88 -369,-161 -79,-60 -143,-119 -143,-129 0,-12 100,-57 192,-88 76,-25 96,-23 151,20 45,36 48,27 5,-18 -29,-30 -30,-33 -12,-40 10,-4 100,-8 199,-8 261,1 420,34 668,140 l 101,43 56,-44 c 31,-24 100,-88 153,-142 l 97,-99 5,31 c 2,17 9,126 15,241 6,116 13,218 16,227 11,37 -8,40 -45,6 -76,-72 -254,-188 -288,-188 -7,0 -36,14 -65,31 -159,94 -306,154 -442,178 -69,13 -218,13 -294,0 z m -32,-28 c 0,-5 -9,-11 -20,-14 -11,-3 -20,-1 -20,3 0,5 8,11 18,13 9,3 18,5 20,6 1,0 2,-3 2,-8 z m 5,-31 c -3,-5 -13,-10 -21,-10 -8,0 -12,5 -9,10 3,6 13,10 21,10 8,0 12,-4 9,-10 z m 25,-29 c 0,-9 -24,-21 -41,-21 -5,0 -9,7 -9,15 0,9 9,15 25,15 14,0 25,-4 25,-9 z m 0,-41 c 0,-5 -11,-10 -25,-10 -14,0 -25,5 -25,10 0,6 11,10 25,10 14,0 25,-4 25,-10 z m 3,-27 c 4,-3 -1,-12 -11,-19 -16,-13 -16,-13 1,-14 9,0 17,-5 17,-11 0,-6 -10,-9 -22,-7 -29,4 -38,58 -10,58 10,0 22,-3 25,-7 z m -233,-53 c 36,-36 20,-80 -30,-80 -48,0 -67,45 -33,82 21,23 38,23 63,-2 z m 245,-52 c -1,-36 -4,-43 -23,-46 -19,-3 -22,1 -22,27 0,18 5,31 13,32 10,0 10,2 0,6 -21,8 -15,23 10,23 20,0 23,-5 22,-42 z m 0,-67 c 7,-12 -31,-25 -45,-16 -6,4 -8,11 -5,16 8,12 42,12 50,0 z m -15,-41 c 0,-5 -9,-10 -20,-10 -11,0 -20,5 -20,10 0,6 9,10 20,10 11,0 20,-4 20,-10 z m -5,-35 c 0,-5 -10,-11 -22,-13 -16,-2 -23,2 -23,13 0,11 7,15 23,13 12,-2 22,-7 22,-13 z" inkscape:connector-curvature="0" id="path188" />
    <path d="m 7153,12504 c -3,-8 1,-22 9,-30 12,-12 17,-12 33,0 16,12 17,16 6,30 -17,20 -40,21 -48,0 z" inkscape:connector-curvature="0" id="path190" />
    <path d="m 17264,16801 c -6,-7 -4,-5084 2,-5108 l 6,-23 4729,0 4729,0 0,2568 0,2567 -4731,0 c -2602,0 -4733,-2 -4735,-4 z m 9216,-2566 0,-2315 -3400,0 -3400,0 0,975 0,975 -1082,2 -1083,3 -3,1338 -2,1337 4485,0 4485,0 0,-2315 z m -7012,-1443 2,-872 -977,2 -978,3 -3,860 c -1,473 0,866 3,873 3,10 204,12 977,10 l 973,-3 3,-873 z" inkscape:connector-curvature="0" id="path192" />
    <path d="m 22090,14079 c -14,-4 -56,-15 -95,-24 -268,-62 -490,-250 -594,-503 -35,-84 -71,-249 -71,-323 0,-70 33,-228 65,-310 84,-214 267,-398 477,-479 139,-54 333,-83 408,-62 19,6 64,17 100,25 314,72 560,317 631,629 12,51 25,101 30,110 5,10 9,49 9,88 0,39 -4,78 -9,88 -5,9 -18,59 -30,110 -70,310 -324,560 -636,627 -44,9 -88,21 -97,26 -22,11 -154,10 -188,-2 z m 282,-103 c 242,-61 430,-224 528,-454 40,-96 54,-172 54,-297 -1,-138 -21,-222 -81,-345 -40,-81 -61,-109 -142,-190 -104,-103 -182,-153 -311,-198 -68,-24 -89,-26 -230,-26 -144,-1 -161,1 -235,27 -133,46 -220,100 -317,197 -74,75 -93,102 -137,191 -27,57 -58,133 -67,169 -23,86 -23,261 0,355 22,93 93,236 153,310 187,230 498,334 785,261 z" inkscape:connector-curvature="0" id="path194" />
    <path d="m 22660,13461 c -47,-10 -73,-25 -104,-61 -73,-87 -20,-198 113,-241 69,-22 101,-67 77,-104 -22,-33 -73,-41 -147,-23 l -59,15 -12,-39 c -14,-48 -9,-52 77,-67 158,-28 276,47 262,165 -7,67 -29,91 -120,133 -93,43 -112,60 -103,95 9,36 56,52 118,38 27,-7 53,-12 57,-12 9,0 35,80 28,86 -6,6 -108,24 -131,23 -11,-1 -37,-4 -56,-8 z" inkscape:connector-curvature="0" id="path196" />
    <path d="m 21527,13453 c -4,-3 -7,-118 -7,-255 0,-227 1,-249 18,-256 27,-11 203,-7 250,7 63,18 112,66 119,117 7,55 -19,109 -65,133 l -34,18 28,22 c 79,62 70,157 -19,200 -37,18 -62,21 -163,21 -67,0 -124,-3 -127,-7 z m 233,-93 c 27,-27 25,-56 -5,-86 -21,-21 -33,-25 -73,-22 l -47,3 -3,49 c -5,70 0,76 58,76 37,0 55,-5 70,-20 z m -11,-205 c 48,-24 56,-78 17,-114 -19,-18 -37,-23 -78,-25 l -53,-1 -3,64 c -2,35 -1,70 2,77 7,19 79,18 115,-1 z" inkscape:connector-curvature="0" id="path198" />
    <path d="m 22001,13273 c 0,-119 5,-200 13,-221 26,-72 105,-122 194,-122 50,0 127,29 154,57 51,54 58,86 58,288 l 0,185 -55,0 -55,0 0,-175 c 0,-227 -14,-265 -100,-265 -86,0 -100,38 -100,265 l 0,175 -55,0 -55,0 1,-187 z" inkscape:connector-curvature="0" id="path200" />
    <path d="m 23290,13210 0,-630 855,0 855,0 0,630 0,630 -855,0 -855,0 0,-630 z m 1342,331 c 111,-48 164,-156 124,-252 -8,-19 -31,-52 -52,-73 -35,-37 -37,-40 -20,-50 41,-24 86,-69 92,-92 3,-13 10,-24 15,-24 18,0 10,-129 -10,-169 -21,-40 -95,-111 -116,-111 -8,0 -15,-4 -17,-10 -1,-5 -30,-14 -63,-19 -33,-6 -73,-13 -88,-17 -16,-4 -38,-2 -50,4 -12,6 -44,13 -72,16 -27,4 -51,11 -53,16 -2,6 -10,10 -18,10 -24,0 -101,84 -114,125 -22,66 -1,163 45,211 5,5 24,19 42,29 l 32,19 -40,43 c -22,24 -44,55 -49,69 -15,38 -12,122 5,158 28,59 106,115 190,137 49,13 166,2 217,-20 z m -584,-68 3,-83 -155,0 -154,0 -5,-37 c -3,-21 -7,-47 -9,-58 -3,-18 4,-20 87,-26 70,-5 99,-11 131,-30 88,-52 113,-84 134,-171 15,-66 4,-126 -37,-193 -43,-69 -150,-133 -225,-134 -20,-1 -49,-6 -63,-13 -18,-8 -31,-8 -48,0 -12,6 -49,13 -82,15 -85,7 -115,23 -115,61 0,30 17,89 33,113 6,9 13,10 25,3 9,-6 48,-16 85,-23 71,-14 137,-6 185,24 28,18 45,79 31,115 -25,66 -75,86 -224,90 -98,3 -100,3 -97,26 1,13 7,67 12,120 5,54 14,117 20,140 5,24 10,64 10,90 0,27 5,48 13,51 6,3 109,5 227,4 l 215,-2 3,-82 z" inkscape:connector-curvature="0" id="path202" />
    <path d="m 24455,13417 c -38,-13 -54,-34 -55,-72 0,-33 40,-85 65,-85 8,0 15,-4 15,-10 0,-20 37,-9 63,18 21,22 27,38 27,73 0,68 -47,98 -115,76 z" inkscape:connector-curvature="0" id="path204" />
    <path d="m 24428,13062 c -50,-30 -50,-130 0,-167 38,-28 105,-26 137,5 30,29 35,101 8,128 -51,53 -98,64 -145,34 z" inkscape:connector-curvature="0" id="path206" />
    <path d="m 17860,12730 0,-272 163,4 c 182,4 215,13 255,71 17,26 22,47 22,96 0,59 -3,66 -32,95 l -33,31 22,21 c 48,48 37,155 -20,196 -30,22 -43,23 -204,26 l -173,3 0,-271 z m 306,155 c 18,-24 18,-46 0,-71 -12,-16 -29,-20 -105,-22 l -91,-4 0,62 0,62 91,-4 c 75,-3 94,-8 105,-23 z m -2,-206 c 31,-25 33,-57 5,-93 -19,-25 -25,-26 -110,-26 l -89,0 0,70 0,70 84,0 c 69,0 88,-4 110,-21 z" inkscape:connector-curvature="0" id="path208" />
    <path d="m 18451,12852 c -39,-19 -66,-54 -75,-94 -6,-28 -6,-28 48,-28 45,0 54,3 59,20 12,45 95,50 121,7 15,-25 -12,-44 -77,-52 -115,-14 -156,-44 -164,-118 -6,-55 16,-101 59,-123 41,-21 119,-14 158,14 28,21 29,21 35,2 5,-17 15,-20 66,-20 32,0 59,2 59,4 0,2 -7,17 -15,32 -11,22 -15,64 -15,165 0,122 -2,139 -20,162 -37,47 -172,64 -239,29 z m 159,-227 c 0,-55 -39,-95 -93,-95 -45,0 -64,52 -29,83 14,12 68,29 115,36 4,1 7,-10 7,-24 z" inkscape:connector-curvature="0" id="path210" />
    <path d="m 18965,12858 c -11,-6 -28,-20 -37,-32 l -18,-21 0,28 c 0,26 -2,27 -50,27 l -50,0 0,-200 0,-200 50,0 50,0 0,109 c 0,153 18,191 91,191 l 39,0 0,55 c 0,53 -1,55 -27,55 -16,0 -37,-6 -48,-12 z" inkscape:connector-curvature="0" id="path212" />
    <path d="m 28530,14259 c 0,-2043 2,-2543 13,-2553 10,-10 622,-14 3110,-18 l 3097,-6 0,122 0,123 -1157,6 c -636,4 -1979,7 -2985,7 l -1828,0 0,2305 0,2305 2890,0 2890,0 0,125 0,125 -3015,0 -3015,0 0,-2541 z" inkscape:connector-curvature="0" id="path214" />
    <path d="m 29885,15370 c -16,-4 -64,-16 -106,-25 -161,-34 -348,-152 -459,-287 -62,-77 -144,-239 -164,-328 -35,-155 -38,-181 -33,-236 41,-428 315,-738 722,-815 91,-17 185,-22 209,-11 12,5 52,15 90,22 323,54 612,343 666,666 7,38 17,78 22,90 18,39 -4,212 -44,334 -111,344 -425,578 -798,595 -41,2 -88,0 -105,-5 z m 270,-144 c 212,-59 375,-191 469,-378 25,-51 54,-122 63,-158 21,-84 21,-243 -1,-333 -50,-210 -197,-393 -391,-487 -107,-52 -198,-73 -320,-73 -124,0 -200,18 -324,79 -161,79 -304,243 -360,410 -86,258 -28,529 156,724 114,121 240,194 392,226 78,16 241,11 316,-10 z" inkscape:connector-curvature="0" id="path216" />
    <path d="m 29586,14838 c -3,-24 -8,-90 -11,-148 -3,-58 -8,-134 -11,-170 -13,-178 -24,-360 -24,-402 l 0,-48 74,0 c 41,0 77,4 80,8 2,4 10,102 16,217 23,449 23,446 55,280 16,-80 68,-284 111,-431 l 15,-54 73,0 72,0 78,258 c 43,141 82,273 88,292 6,19 14,39 18,43 4,4 10,-92 14,-215 3,-123 9,-262 13,-310 l 6,-88 83,0 84,0 0,35 c 0,45 -28,594 -35,665 -2,30 -4,68 -5,83 l 0,28 -117,-3 -118,-3 -46,-136 c -26,-74 -61,-193 -79,-265 -35,-137 -46,-162 -54,-123 -19,93 -82,332 -109,419 l -33,105 -116,3 -117,3 -5,-43 z" inkscape:connector-curvature="0" id="path218" />
    <path d="m 32060,14944 c -14,-3 -34,-9 -45,-14 -11,-5 -33,-13 -49,-17 -43,-13 -52,-33 -37,-85 24,-81 30,-91 49,-83 63,27 95,34 160,35 69,0 75,-2 104,-30 24,-25 29,-36 24,-60 -11,-59 -50,-81 -156,-89 l -75,-6 -3,-71 -3,-71 85,-6 c 121,-9 175,-47 176,-124 0,-75 -67,-118 -172,-110 -70,5 -149,25 -159,40 -15,21 -37,-4 -48,-55 -7,-29 -14,-63 -18,-75 -4,-18 2,-25 33,-38 52,-21 169,-45 226,-45 96,0 222,41 279,92 60,53 90,153 70,234 -13,51 -80,131 -117,140 -29,7 -54,34 -32,34 18,0 79,55 103,93 12,19 18,49 19,95 0,94 -32,144 -125,196 -27,15 -58,20 -149,22 -63,1 -126,0 -140,-2 z" inkscape:connector-curvature="0" id="path220" />
    <path d="m 31415,14931 c -3,-5 -19,-12 -35,-16 -17,-4 -30,-11 -30,-16 0,-5 -5,-9 -11,-9 -6,0 -40,-14 -75,-31 -61,-30 -63,-32 -57,-63 3,-17 10,-39 14,-48 5,-9 9,-28 9,-42 0,-33 15,-33 77,-2 27,14 61,29 76,35 l 27,11 0,-345 0,-345 100,0 100,0 0,440 0,440 -94,0 c -52,0 -97,-4 -101,-9 z" inkscape:connector-curvature="0" id="path222" />
    <path d="m 30336,13325 c -3,-8 -18,-15 -33,-15 -16,0 -37,-6 -48,-14 -11,-7 -33,-16 -50,-19 -88,-17 -120,-26 -123,-36 -2,-6 -19,-11 -38,-11 -37,0 -41,-10 -25,-64 5,-17 18,-58 27,-91 10,-33 22,-64 26,-69 4,-6 8,-25 8,-42 0,-18 4,-35 9,-39 6,-3 13,-26 17,-50 3,-25 10,-45 15,-45 5,0 9,-9 9,-21 0,-11 7,-43 16,-71 16,-47 16,-54 0,-102 -9,-29 -16,-60 -16,-69 0,-10 -3,-17 -8,-17 -8,0 -29,-69 -39,-128 -3,-18 -9,-35 -14,-38 -5,-3 -9,-13 -9,-22 0,-9 -7,-30 -15,-46 -8,-15 -15,-44 -15,-62 0,-19 -4,-34 -10,-34 -5,0 -10,-16 -10,-35 0,-30 4,-35 28,-41 15,-3 37,-10 50,-15 13,-5 33,-9 46,-9 13,0 29,-7 36,-15 7,-8 28,-15 46,-15 19,0 34,-4 34,-10 0,-5 18,-10 40,-10 29,0 40,-4 40,-15 0,-9 9,-15 25,-15 18,0 25,5 25,19 0,10 7,24 15,31 8,7 15,25 15,41 0,15 5,31 10,34 6,3 10,21 10,39 0,19 7,39 15,46 8,7 15,22 15,33 0,25 17,82 36,120 8,16 14,39 14,52 0,13 5,27 10,30 6,3 10,21 10,39 0,19 7,39 15,46 8,7 15,28 15,46 0,24 5,34 15,34 10,0 15,10 15,34 0,21 -6,36 -15,40 -9,3 -15,18 -15,40 0,19 -5,36 -11,38 -10,3 -23,49 -36,125 -3,18 -11,38 -19,44 -8,6 -14,26 -14,45 0,18 -4,36 -10,39 -5,3 -10,21 -10,39 0,19 -6,39 -14,45 -8,6 -16,26 -19,44 -18,108 -39,157 -68,157 -9,0 -19,-7 -23,-15 z" inkscape:connector-curvature="0" id="path224" />
    <path d="m 29770,13195 c -7,-8 -25,-15 -41,-15 -16,0 -29,-4 -29,-10 0,-5 -16,-12 -35,-16 -19,-3 -38,-10 -41,-15 -3,-5 -15,-9 -28,-9 -12,0 -27,-5 -34,-12 -17,-17 -15,-73 3,-88 8,-7 15,-23 15,-36 0,-12 5,-26 10,-29 6,-3 10,-19 10,-34 0,-16 7,-34 15,-41 8,-7 15,-23 15,-36 0,-13 5,-24 10,-24 6,0 10,-13 10,-29 0,-16 7,-37 16,-46 22,-22 22,-118 0,-141 -9,-8 -16,-26 -16,-39 0,-13 -4,-27 -10,-30 -5,-3 -10,-17 -10,-30 0,-13 -6,-30 -13,-37 -13,-13 -21,-36 -34,-100 -3,-15 -11,-33 -19,-39 -8,-6 -14,-29 -14,-50 0,-30 4,-39 18,-39 9,0 30,-7 46,-15 15,-8 37,-15 47,-15 11,0 19,-4 19,-9 0,-5 18,-11 40,-15 22,-3 40,-11 40,-16 0,-6 16,-10 35,-10 31,0 35,3 35,25 0,14 5,25 10,25 6,0 10,9 10,21 0,11 6,33 14,47 17,35 46,116 60,170 6,23 14,42 18,42 5,0 8,8 8,18 0,10 7,27 15,38 8,10 15,31 15,47 0,15 4,27 9,27 17,0 21,61 6,97 -8,19 -15,44 -15,54 0,11 -4,19 -9,19 -5,0 -13,14 -16,32 -4,18 -11,39 -15,48 -11,22 -31,81 -37,108 -3,12 -9,22 -14,22 -5,0 -9,7 -9,16 0,20 -33,117 -41,124 -4,3 -9,16 -10,30 -5,30 -39,39 -59,15 z" inkscape:connector-curvature="0" id="path226" />
    <path d="m 29250,13072 c 0,-5 -19,-16 -42,-26 -92,-38 -104,-48 -73,-60 8,-3 15,-12 15,-20 0,-17 32,-79 43,-84 4,-2 7,-15 7,-28 0,-13 4,-24 9,-24 5,0 12,-13 16,-30 4,-16 11,-30 16,-30 5,0 9,-9 9,-19 0,-11 5,-23 10,-26 6,-3 10,-21 10,-40 0,-19 -4,-37 -10,-40 -5,-3 -10,-15 -10,-26 0,-10 -4,-19 -10,-19 -5,0 -10,-5 -10,-10 0,-6 -18,-48 -40,-94 -22,-46 -40,-88 -40,-95 0,-6 -7,-11 -15,-11 -8,0 -15,-8 -15,-17 1,-18 62,-53 93,-53 9,0 17,-4 17,-8 0,-11 59,-32 73,-26 13,5 47,73 47,92 0,7 4,12 9,12 5,0 12,14 16,30 4,17 11,30 16,30 5,0 9,11 9,25 0,14 4,25 8,25 9,0 42,69 42,87 0,6 7,16 15,23 8,7 15,22 15,34 0,12 6,28 13,35 10,11 10,14 0,18 -7,3 -13,15 -13,28 0,13 -4,27 -10,30 -5,3 -17,23 -25,43 -59,136 -79,176 -87,180 -5,2 -8,15 -8,28 0,13 -4,24 -10,24 -5,0 -12,11 -16,25 -5,21 -12,25 -40,25 -19,0 -34,-4 -34,-8 z" inkscape:connector-curvature="0" id="path228" />
    <path d="m 12585,11318 c -16,-6 -39,-18 -49,-27 -25,-21 -56,-89 -56,-123 0,-27 2,-28 48,-28 48,0 49,0 61,40 28,95 155,64 137,-33 -6,-34 -39,-70 -129,-142 -87,-68 -107,-97 -121,-177 l -7,-38 186,0 185,0 0,50 0,49 -117,3 -116,3 63,45 c 90,64 129,99 145,129 53,104 5,223 -100,250 -53,13 -90,13 -130,-1 z" inkscape:connector-curvature="0" id="path230" />
    <path d="m 14510,11061 0,-271 55,0 55,0 0,105 0,105 83,0 c 102,0 117,-11 117,-86 0,-27 3,-66 6,-86 l 7,-38 64,0 c 58,0 64,2 57,18 -4,9 -11,57 -14,107 -7,79 -11,91 -34,112 l -27,23 32,28 c 27,24 33,37 37,84 5,61 -9,97 -53,138 -26,24 -30,25 -206,28 l -179,3 0,-270 z m 290,166 c 32,-16 47,-58 32,-91 -14,-31 -71,-48 -150,-44 l -57,3 -3,73 -3,72 78,0 c 43,0 89,-6 103,-13 z" inkscape:connector-curvature="0" id="path232" />
    <path d="m 17720,11245 c 0,-47 -3,-85 -7,-85 -3,0 -15,8 -25,17 -11,10 -41,18 -76,21 -47,3 -63,0 -91,-20 -51,-34 -70,-66 -83,-135 -20,-110 17,-209 93,-248 44,-23 110,-19 153,10 34,23 36,23 36,5 0,-17 7,-20 50,-20 l 50,0 0,270 0,270 -50,0 -50,0 0,-85 z m -57,-147 c 12,-6 27,-18 34,-27 19,-26 26,-96 13,-135 -31,-96 -146,-83 -165,18 -20,104 45,183 118,144 z" inkscape:connector-curvature="0" id="path234" />
    <path d="m 29158,11310 c -51,-27 -85,-89 -99,-180 -21,-138 6,-259 70,-313 41,-34 67,-41 137,-35 67,6 101,29 132,89 30,56 28,153 -4,196 -49,66 -132,91 -195,59 -18,-9 -34,-14 -37,-12 -2,3 -1,22 2,42 8,42 46,84 76,84 30,0 60,-18 60,-35 0,-11 13,-15 55,-15 31,0 55,4 55,10 0,28 -31,79 -60,100 -46,32 -142,38 -192,10 z m 131,-286 c 21,-26 28,-84 15,-119 -4,-8 -19,-22 -35,-31 -26,-13 -32,-13 -59,1 -36,19 -50,43 -50,90 0,75 86,114 129,59 z" inkscape:connector-curvature="0" id="path236" />
    <path d="m 31090,11061 0,-271 55,0 55,0 0,105 0,105 83,0 c 102,0 117,-11 117,-86 0,-27 3,-66 6,-86 l 7,-38 64,0 c 58,0 64,2 57,18 -4,9 -11,57 -14,107 -7,79 -11,91 -34,112 l -27,23 32,28 c 27,24 33,37 37,84 5,61 -9,97 -53,138 -26,24 -30,25 -206,28 l -179,3 0,-270 z m 290,166 c 32,-16 47,-58 32,-91 -14,-31 -71,-48 -150,-44 l -57,3 -3,73 -3,72 78,0 c 43,0 89,-6 103,-13 z" inkscape:connector-curvature="0" id="path238" />
    <path d="m 34300,11245 c 0,-47 -3,-85 -7,-85 -3,0 -15,8 -25,17 -11,10 -41,18 -76,21 -47,3 -63,0 -91,-20 -51,-34 -70,-66 -83,-135 -20,-110 17,-209 93,-248 44,-23 110,-19 153,10 34,23 36,23 36,5 0,-17 7,-20 50,-20 l 50,0 0,270 0,270 -50,0 -50,0 0,-85 z m -57,-147 c 12,-6 27,-18 34,-27 19,-26 26,-96 13,-135 -31,-96 -146,-83 -165,18 -20,104 45,183 118,144 z" inkscape:connector-curvature="0" id="path240" />
    <path d="m 12050,11270 0,-49 125,-3 125,-3 -36,-50 c -72,-101 -123,-222 -138,-332 l -6,-43 53,0 53,0 22,98 c 25,110 71,210 137,294 36,47 45,66 45,98 l 0,40 -190,0 -190,0 0,-50 z" inkscape:connector-curvature="0" id="path242" />
    <path d="m 28671,11233 c -6,-49 -14,-116 -17,-150 l -7,-63 51,0 c 28,0 54,5 57,11 12,19 54,29 80,19 27,-10 55,-57 55,-92 0,-13 -9,-37 -19,-54 -32,-53 -97,-50 -126,5 -14,28 -20,31 -65,31 -44,0 -50,-3 -50,-20 0,-43 38,-97 83,-119 50,-24 131,-28 180,-7 94,39 138,195 79,276 -38,51 -82,72 -142,68 -30,-2 -63,-8 -74,-13 -15,-6 -17,-5 -13,11 3,10 8,36 12,57 l 6,37 109,0 110,0 0,45 0,45 -149,0 -148,0 -12,-87 z" inkscape:connector-curvature="0" id="path244" />
    <path d="m 16656,11199 c -90,-22 -140,-97 -140,-209 1,-95 46,-172 117,-199 66,-25 181,-7 231,37 73,65 75,243 3,320 -46,49 -133,71 -211,51 z m 128,-121 c 26,-29 28,-35 24,-96 -4,-56 -8,-68 -32,-88 -34,-30 -88,-32 -115,-5 -39,39 -48,128 -19,184 12,24 67,48 93,41 11,-3 33,-19 49,-36 z" inkscape:connector-curvature="0" id="path246" />
    <path d="m 33246,11199 c -90,-22 -140,-97 -140,-209 1,-95 46,-172 117,-199 66,-25 181,-7 231,37 73,65 75,243 3,320 -46,49 -133,71 -211,51 z m 128,-121 c 26,-29 28,-35 24,-96 -4,-56 -8,-68 -32,-88 -34,-30 -88,-32 -115,-5 -39,39 -48,128 -19,184 12,24 67,48 93,41 11,-3 33,-19 49,-36 z" inkscape:connector-curvature="0" id="path248" />
    <path d="m 13275,11188 c -11,-6 -28,-20 -37,-32 l -18,-21 0,28 c 0,26 -2,27 -50,27 l -50,0 0,-200 0,-200 50,0 50,0 0,109 c 0,153 18,191 91,191 l 39,0 0,55 c 0,53 -1,55 -27,55 -16,0 -37,-6 -48,-12 z" inkscape:connector-curvature="0" id="path250" />
    <path d="m 13923,11175 c -58,-35 -83,-90 -83,-185 0,-100 23,-148 89,-184 88,-47 187,-32 249,38 47,54 43,66 -21,66 -41,0 -58,-5 -72,-20 -40,-44 -120,-16 -140,48 l -6,22 140,0 c 160,0 149,-7 131,90 -12,63 -50,117 -96,136 -55,23 -142,18 -191,-11 z m 136,-70 c 28,-14 41,-33 41,-61 0,-11 -17,-14 -75,-14 -86,0 -95,11 -46,61 34,33 41,35 80,14 z" inkscape:connector-curvature="0" id="path252" />
    <path d="m 15101,11182 c -39,-19 -66,-54 -75,-94 -6,-28 -6,-28 48,-28 45,0 54,3 59,20 12,45 95,50 121,7 15,-25 -12,-44 -77,-52 -115,-14 -156,-44 -164,-118 -6,-55 16,-101 59,-123 41,-21 119,-14 158,14 28,21 29,21 35,2 5,-17 15,-20 66,-20 32,0 59,2 59,4 0,2 -7,17 -15,32 -11,22 -15,64 -15,165 0,122 -2,139 -20,162 -37,47 -172,64 -239,29 z m 159,-227 c 0,-55 -39,-95 -93,-95 -45,0 -64,52 -29,83 14,12 68,29 115,36 4,1 7,-10 7,-24 z" inkscape:connector-curvature="0" id="path254" />
    <path d="m 16011,11174 c -30,-25 -31,-25 -31,-5 0,19 -6,21 -50,21 l -50,0 0,-200 0,-200 50,0 50,0 0,131 c 0,159 11,189 72,189 49,0 58,-28 58,-182 l 0,-138 55,0 55,0 0,140 c 0,127 2,142 20,160 25,25 62,26 83,2 14,-15 17,-42 17,-160 l 0,-142 55,0 55,0 0,155 c 0,175 -9,214 -59,239 -42,22 -109,20 -148,-4 -18,-11 -33,-25 -33,-32 0,-7 -8,-3 -18,8 -42,52 -130,61 -181,18 z" inkscape:connector-curvature="0" id="path256" />
    <path d="m 17136,11175 c -34,-23 -36,-23 -36,-5 0,17 -7,20 -50,20 l -50,0 0,-200 0,-200 50,0 50,0 0,109 c 0,128 6,163 32,190 24,27 79,28 101,3 14,-15 17,-42 17,-160 l 0,-142 55,0 55,0 0,160 c 0,178 -8,208 -60,235 -46,24 -121,19 -164,-10 z" inkscape:connector-curvature="0" id="path258" />
    <path d="m 29865,11188 c -11,-6 -28,-20 -37,-32 l -18,-21 0,28 c 0,26 -2,27 -50,27 l -50,0 0,-200 0,-200 50,0 50,0 0,109 c 0,153 18,191 91,191 l 39,0 0,55 c 0,53 -1,55 -27,55 -16,0 -37,-6 -48,-12 z" inkscape:connector-curvature="0" id="path260" />
    <path d="m 30513,11175 c -58,-35 -83,-90 -83,-185 0,-100 23,-148 89,-184 88,-47 187,-32 249,38 47,54 43,66 -21,66 -41,0 -58,-5 -72,-20 -40,-44 -120,-16 -140,48 l -6,22 140,0 c 160,0 149,-7 131,90 -12,63 -50,117 -96,136 -55,23 -142,18 -191,-11 z m 136,-70 c 28,-14 41,-33 41,-61 0,-11 -17,-14 -75,-14 -86,0 -95,11 -46,61 34,33 41,35 80,14 z" inkscape:connector-curvature="0" id="path262" />
    <path d="m 31681,11182 c -39,-19 -66,-54 -75,-94 -6,-28 -6,-28 48,-28 45,0 54,3 59,20 12,45 95,50 121,7 15,-25 -12,-44 -77,-52 -115,-14 -156,-44 -164,-118 -6,-55 16,-101 59,-123 41,-21 119,-14 158,14 28,21 29,21 35,2 5,-17 15,-20 66,-20 32,0 59,2 59,4 0,2 -7,17 -15,32 -11,22 -15,64 -15,165 0,122 -2,139 -20,162 -37,47 -172,64 -239,29 z m 159,-227 c 0,-55 -39,-95 -93,-95 -45,0 -64,52 -29,83 14,12 68,29 115,36 4,1 7,-10 7,-24 z" inkscape:connector-curvature="0" id="path264" />
    <path d="m 32591,11174 c -30,-25 -31,-25 -31,-5 0,19 -6,21 -50,21 l -50,0 0,-200 0,-200 50,0 50,0 0,131 c 0,159 11,189 72,189 49,0 58,-28 58,-182 l 0,-138 55,0 55,0 0,140 c 0,127 2,142 20,160 25,25 62,26 83,2 14,-15 17,-42 17,-160 l 0,-142 55,0 55,0 0,155 c 0,175 -9,214 -59,239 -42,22 -109,20 -148,-4 -18,-11 -33,-25 -33,-32 0,-7 -8,-3 -18,8 -42,52 -130,61 -181,18 z" inkscape:connector-curvature="0" id="path266" />
    <path d="m 33716,11175 c -34,-23 -36,-23 -36,-5 0,17 -7,20 -50,20 l -50,0 0,-200 0,-200 50,0 50,0 0,109 c 0,128 6,163 32,190 24,27 79,28 101,3 14,-15 17,-42 17,-160 l 0,-142 55,0 55,0 0,160 c 0,178 -8,208 -60,235 -46,24 -121,19 -164,-10 z" inkscape:connector-curvature="0" id="path268" />
    <path d="m 13420,11029 c 0,-146 2,-165 21,-195 35,-58 144,-69 204,-22 l 25,19 0,-20 c 0,-19 6,-21 55,-21 l 55,0 0,200 0,200 -55,0 -55,0 0,-125 c 0,-134 -8,-166 -47,-184 -36,-16 -58,-14 -79,10 -16,18 -19,40 -22,160 l -4,139 -49,0 -49,0 0,-161 z" inkscape:connector-curvature="0" id="path270" />
    <path d="m 15420,11186 c 0,-2 32,-96 71,-208 81,-231 82,-251 16,-256 -37,-3 -37,-4 -37,-48 l 0,-44 48,0 c 58,0 91,16 114,56 17,30 178,476 178,495 0,5 -24,9 -54,9 l -55,0 -15,-52 c -8,-29 -25,-90 -37,-135 -12,-46 -25,-83 -28,-83 -3,0 -24,61 -45,135 l -39,135 -58,0 c -33,0 -59,-2 -59,-4 z" inkscape:connector-curvature="0" id="path272" />
    <path d="m 30000,11029 c 0,-146 2,-165 21,-195 35,-58 144,-69 204,-22 l 25,19 0,-20 c 0,-19 6,-21 55,-21 l 55,0 0,200 0,200 -55,0 -55,0 0,-125 c 0,-134 -8,-166 -47,-184 -36,-16 -58,-14 -79,10 -16,18 -19,40 -22,160 l -4,139 -49,0 -49,0 0,-161 z" inkscape:connector-curvature="0" id="path274" />
    <path d="m 32000,11186 c 0,-2 32,-96 71,-208 81,-231 82,-251 16,-256 -37,-3 -37,-4 -37,-48 l 0,-44 48,0 c 58,0 91,16 114,56 17,30 178,476 178,495 0,5 -24,9 -54,9 l -55,0 -15,-52 c -8,-29 -25,-90 -37,-135 -12,-46 -25,-83 -28,-83 -3,0 -24,61 -45,135 l -39,135 -58,0 c -33,0 -59,-2 -59,-4 z" inkscape:connector-curvature="0" id="path276" />
    <path d="m 13110,10140 0,-270 190,0 190,0 0,50 0,50 -135,0 -135,0 0,220 0,220 -55,0 -55,0 0,-270 z" inkscape:connector-curvature="0" id="path278" />
    <path d="m 16700,10325 c 0,-47 -3,-85 -7,-85 -3,0 -15,8 -25,17 -11,10 -41,18 -76,21 -47,3 -63,0 -91,-20 -51,-34 -70,-66 -83,-135 -20,-110 17,-209 93,-248 44,-23 110,-19 153,10 34,23 36,23 36,5 0,-17 7,-20 50,-20 l 50,0 0,270 0,270 -50,0 -50,0 0,-85 z m -57,-147 c 12,-6 27,-18 34,-27 19,-26 26,-96 13,-135 -31,-96 -146,-83 -165,18 -20,104 45,183 118,144 z" inkscape:connector-curvature="0" id="path280" />
    <path d="m 29700,10140 0,-270 190,0 190,0 0,50 0,50 -135,0 -135,0 0,220 0,220 -55,0 -55,0 0,-270 z" inkscape:connector-curvature="0" id="path282" />
    <path d="m 33280,10325 c 0,-47 -3,-85 -7,-85 -3,0 -15,8 -25,17 -11,10 -41,18 -76,21 -47,3 -63,0 -91,-20 -51,-34 -70,-66 -83,-135 -20,-110 17,-209 93,-248 44,-23 110,-19 153,10 34,23 36,23 36,5 0,-17 7,-20 50,-20 l 50,0 0,270 0,270 -50,0 -50,0 0,-85 z m -57,-147 c 12,-6 27,-18 34,-27 19,-26 26,-96 13,-135 -31,-96 -146,-83 -165,18 -20,104 45,183 118,144 z" inkscape:connector-curvature="0" id="path284" />
    <path d="m 13676,10279 c -90,-22 -140,-97 -140,-209 1,-95 46,-172 117,-199 66,-25 181,-7 231,37 73,65 75,243 3,320 -46,49 -133,71 -211,51 z m 128,-121 c 26,-29 28,-35 24,-96 -4,-56 -8,-68 -32,-88 -34,-30 -88,-32 -115,-5 -39,39 -48,128 -19,184 12,24 67,48 93,41 11,-3 33,-19 49,-36 z" inkscape:connector-curvature="0" id="path286" />
    <path d="m 30256,10279 c -90,-22 -140,-97 -140,-209 1,-95 46,-172 117,-199 66,-25 181,-7 231,37 73,65 75,243 3,320 -46,49 -133,71 -211,51 z m 128,-121 c 26,-29 28,-35 24,-96 -4,-56 -8,-68 -32,-88 -34,-30 -88,-32 -115,-5 -39,39 -48,128 -19,184 12,24 67,48 93,41 11,-3 33,-19 49,-36 z" inkscape:connector-curvature="0" id="path288" />
    <path d="m 14074,10261 c -47,-29 -64,-59 -64,-114 0,-59 27,-88 98,-107 95,-25 126,-37 136,-54 9,-13 7,-20 -8,-32 -38,-27 -119,-10 -129,27 -4,16 -15,19 -62,19 l -57,0 7,-27 c 18,-75 61,-104 161,-111 127,-8 204,39 204,125 0,72 -36,104 -153,134 -81,21 -107,40 -87,63 26,32 120,12 120,-25 0,-5 25,-9 55,-9 55,0 55,0 49,28 -17,73 -65,102 -171,102 -49,0 -77,-5 -99,-19 z" inkscape:connector-curvature="0" id="path290" />
    <path d="m 14484,10261 c -47,-29 -64,-59 -64,-114 0,-59 27,-88 98,-107 95,-25 126,-37 136,-54 9,-13 7,-20 -8,-32 -38,-27 -119,-10 -129,27 -4,16 -15,19 -62,19 l -57,0 7,-27 c 18,-75 61,-104 161,-111 127,-8 204,39 204,125 0,72 -36,104 -153,134 -81,21 -107,40 -87,63 26,32 120,12 120,-25 0,-5 25,-9 55,-9 55,0 55,0 49,28 -17,73 -65,102 -171,102 -49,0 -77,-5 -99,-19 z" inkscape:connector-curvature="0" id="path292" />
    <path d="m 14903,10255 c -58,-35 -83,-90 -83,-185 0,-100 23,-148 89,-184 88,-47 187,-32 249,38 47,54 43,66 -21,66 -41,0 -58,-5 -72,-20 -40,-44 -120,-16 -140,48 l -6,22 140,0 c 160,0 149,-7 131,90 -12,63 -50,117 -96,136 -55,23 -142,18 -191,-11 z m 136,-70 c 28,-14 41,-33 41,-61 0,-11 -17,-14 -75,-14 -86,0 -95,11 -46,61 34,33 41,35 80,14 z" inkscape:connector-curvature="0" id="path294" />
    <path d="m 15425,10268 c -11,-6 -28,-20 -37,-32 l -18,-21 0,28 c 0,26 -2,27 -50,27 l -50,0 0,-200 0,-200 50,0 50,0 0,109 c 0,153 18,191 91,191 l 39,0 0,55 c 0,53 -1,55 -27,55 -16,0 -37,-6 -48,-12 z" inkscape:connector-curvature="0" id="path296" />
    <path d="m 15621,10262 c -39,-19 -66,-54 -75,-94 -6,-28 -6,-28 48,-28 45,0 54,3 59,20 12,45 95,50 121,7 15,-25 -12,-44 -77,-52 -115,-14 -156,-44 -164,-118 -6,-55 16,-101 59,-123 41,-21 119,-14 158,14 28,21 29,21 35,2 5,-17 15,-20 66,-20 32,0 59,2 59,4 0,2 -7,17 -15,32 -11,22 -15,64 -15,165 0,122 -2,139 -20,162 -37,47 -172,64 -239,29 z m 159,-227 c 0,-55 -39,-95 -93,-95 -45,0 -64,52 -29,83 14,12 68,29 115,36 4,1 7,-10 7,-24 z" inkscape:connector-curvature="0" id="path298" />
    <path d="m 16116,10255 c -34,-23 -36,-23 -36,-5 0,17 -7,20 -50,20 l -50,0 0,-200 0,-200 50,0 50,0 0,109 c 0,128 6,163 32,190 24,27 79,28 101,3 14,-15 17,-42 17,-160 l 0,-142 55,0 55,0 0,160 c 0,178 -8,208 -60,235 -46,24 -121,19 -164,-10 z" inkscape:connector-curvature="0" id="path300" />
    <path d="m 30654,10261 c -47,-29 -64,-59 -64,-114 0,-59 27,-88 98,-107 95,-25 126,-37 136,-54 9,-13 7,-20 -8,-32 -38,-27 -119,-10 -129,27 -4,16 -15,19 -62,19 l -57,0 7,-27 c 18,-75 61,-104 161,-111 127,-8 204,39 204,125 0,72 -36,104 -153,134 -81,21 -107,40 -87,63 26,32 120,12 120,-25 0,-5 25,-9 55,-9 55,0 55,0 49,28 -17,73 -65,102 -171,102 -49,0 -77,-5 -99,-19 z" inkscape:connector-curvature="0" id="path302" />
    <path d="m 31074,10261 c -47,-29 -64,-59 -64,-114 0,-59 27,-88 98,-107 95,-25 126,-37 136,-54 9,-13 7,-20 -8,-32 -38,-27 -119,-10 -129,27 -4,16 -15,19 -62,19 l -57,0 7,-27 c 18,-75 61,-104 161,-111 127,-8 204,39 204,125 0,72 -36,104 -153,134 -81,21 -107,40 -87,63 26,32 120,12 120,-25 0,-5 25,-9 55,-9 55,0 55,0 49,28 -17,73 -65,102 -171,102 -49,0 -77,-5 -99,-19 z" inkscape:connector-curvature="0" id="path304" />
    <path d="m 31493,10255 c -58,-35 -83,-90 -83,-185 0,-100 23,-148 89,-184 88,-47 187,-32 249,38 47,54 43,66 -21,66 -41,0 -58,-5 -72,-20 -40,-44 -120,-16 -140,48 l -6,22 140,0 c 160,0 149,-7 131,90 -12,63 -50,117 -96,136 -55,23 -142,18 -191,-11 z m 136,-70 c 28,-14 41,-33 41,-61 0,-11 -17,-14 -75,-14 -86,0 -95,11 -46,61 34,33 41,35 80,14 z" inkscape:connector-curvature="0" id="path306" />
    <path d="m 32005,10268 c -11,-6 -28,-20 -37,-32 l -18,-21 0,28 c 0,26 -2,27 -50,27 l -50,0 0,-200 0,-200 50,0 50,0 0,109 c 0,153 18,191 91,191 l 39,0 0,55 c 0,53 -1,55 -27,55 -16,0 -37,-6 -48,-12 z" inkscape:connector-curvature="0" id="path308" />
    <path d="m 32201,10262 c -39,-19 -66,-54 -75,-94 -6,-28 -6,-28 48,-28 45,0 54,3 59,20 12,45 95,50 121,7 15,-25 -12,-44 -77,-52 -115,-14 -156,-44 -164,-118 -6,-55 16,-101 59,-123 41,-21 119,-14 158,14 28,21 29,21 35,2 5,-17 15,-20 66,-20 32,0 59,2 59,4 0,2 -7,17 -15,32 -11,22 -15,64 -15,165 0,122 -2,139 -20,162 -37,47 -172,64 -239,29 z m 159,-227 c 0,-55 -39,-95 -93,-95 -45,0 -64,52 -29,83 14,12 68,29 115,36 4,1 7,-10 7,-24 z" inkscape:connector-curvature="0" id="path310" />
    <path d="m 32696,10255 c -34,-23 -36,-23 -36,-5 0,17 -7,20 -50,20 l -50,0 0,-200 0,-200 50,0 50,0 0,109 c 0,128 6,163 32,190 24,27 79,28 101,3 14,-15 17,-42 17,-160 l 0,-142 55,0 55,0 0,160 c 0,178 -8,208 -60,235 -46,24 -121,19 -164,-10 z" inkscape:connector-curvature="0" id="path312" />
    <path d="m 21790,8835 c 0,-3 37,-79 82,-170 l 83,-165 -88,-175 -87,-175 345,172 c 190,95 345,175 345,178 0,5 -665,340 -675,340 -3,0 -5,-2 -5,-5 z" inkscape:connector-curvature="0" id="path314" />
    <path d="m 17988,8566 c -29,-21 -41,-65 -27,-98 33,-80 159,-54 159,32 0,62 -83,104 -132,66 z" inkscape:connector-curvature="0" id="path316" />
    <path d="m 18483,8558 c -29,-32 -34,-53 -22,-88 29,-82 159,-57 159,30 0,69 -92,107 -137,58 z" inkscape:connector-curvature="0" id="path318" />
    <path d="m 18983,8558 c -29,-32 -34,-53 -22,-88 29,-82 159,-57 159,30 0,69 -92,107 -137,58 z" inkscape:connector-curvature="0" id="path320" />
    <path d="m 19483,8558 c -28,-32 -34,-54 -22,-85 13,-36 38,-52 77,-53 43,0 82,38 82,80 0,69 -92,107 -137,58 z" inkscape:connector-curvature="0" id="path322" />
    <path d="m 19983,8558 c -28,-32 -34,-54 -22,-85 13,-36 38,-52 77,-53 43,0 82,38 82,80 0,69 -92,107 -137,58 z" inkscape:connector-curvature="0" id="path324" />
    <path d="m 20480,8555 c -72,-77 41,-185 115,-110 16,15 25,36 25,55 0,71 -91,107 -140,55 z" inkscape:connector-curvature="0" id="path326" />
    <path d="m 20980,8555 c -72,-77 41,-185 115,-110 16,15 25,36 25,55 0,71 -91,107 -140,55 z" inkscape:connector-curvature="0" id="path328" />
    <path d="m 21482,8557 c -30,-32 -29,-87 1,-115 50,-47 137,-10 137,58 0,69 -91,107 -138,57 z" inkscape:connector-curvature="0" id="path330" />
    <path d="m 5806,8485 c -20,-30 -35,-55 -34,-56 2,0 20,-1 41,-2 34,-2 44,4 94,56 l 57,57 -60,0 -61,0 -37,-55 z" inkscape:connector-curvature="0" id="path332" />
    <path d="m 6500,8470 0,-50 55,0 55,0 0,50 0,50 -55,0 -55,0 0,-50 z" inkscape:connector-curvature="0" id="path334" />
    <path d="m 4540,8425 c 0,-47 -3,-85 -7,-85 -3,0 -15,8 -25,17 -11,10 -41,18 -76,21 -47,3 -63,0 -91,-20 -51,-34 -70,-66 -83,-135 -20,-110 17,-209 93,-248 44,-23 110,-19 153,10 34,23 36,23 36,5 0,-17 7,-20 50,-20 l 50,0 0,270 0,270 -50,0 -50,0 0,-85 z m -57,-147 c 12,-6 27,-18 34,-27 19,-26 26,-96 13,-135 -31,-96 -146,-83 -165,18 -20,104 45,183 118,144 z" inkscape:connector-curvature="0" id="path336" />
    <path d="m 4730,8483 c 0,-16 3,-65 7,-110 l 6,-83 33,0 32,0 7,88 c 3,48 8,97 11,110 4,20 1,22 -46,22 -48,0 -50,-1 -50,-27 z" inkscape:connector-curvature="0" id="path338" />
    <path d="m 5075,8498 c -23,-62 -174,-488 -179,-505 -7,-22 -5,-23 53,-23 l 60,0 17,55 18,56 100,-3 99,-3 17,-50 17,-50 61,-3 c 34,-2 62,1 62,5 -1,4 -43,125 -93,268 l -93,260 -67,3 c -48,2 -69,-1 -72,-10 z m 108,-235 25,-83 -65,0 c -48,0 -64,3 -61,13 3,6 18,50 33,96 31,94 31,94 68,-26 z" inkscape:connector-curvature="0" id="path340" />
    <path d="m 5460,8240 0,-270 55,0 55,0 0,270 0,270 -55,0 -55,0 0,-270 z" inkscape:connector-curvature="0" id="path342" />
    <path d="m 33480,8440 0,-50 55,0 55,0 0,50 0,50 -55,0 -55,0 0,-50 z" inkscape:connector-curvature="0" id="path344" />
    <path d="m 31570,8395 c 0,-47 -3,-85 -7,-85 -3,0 -15,8 -25,17 -11,10 -41,18 -76,21 -47,3 -63,0 -91,-20 -51,-34 -70,-66 -83,-135 -20,-110 17,-209 93,-248 44,-23 110,-19 153,10 34,23 36,23 36,5 0,-17 7,-20 50,-20 l 50,0 0,270 0,270 -50,0 -50,0 0,-85 z m -57,-147 c 12,-6 27,-18 34,-27 19,-26 26,-96 13,-135 -31,-96 -146,-83 -165,18 -20,104 45,183 118,144 z" inkscape:connector-curvature="0" id="path346" />
    <path d="m 32430,8210 0,-270 55,0 55,0 0,207 c 0,113 2,204 5,201 3,-2 23,-85 45,-184 22,-98 42,-189 45,-202 5,-21 10,-23 62,-20 l 57,3 45,205 46,205 3,-207 2,-208 55,0 55,0 0,270 0,270 -85,0 c -47,0 -85,-3 -85,-6 0,-15 -83,-370 -89,-382 -4,-7 -27,76 -52,185 l -46,198 -86,3 -87,3 0,-271 z" inkscape:connector-curvature="0" id="path348" />
    <path d="m 1623,8355 c -58,-35 -83,-90 -83,-185 0,-100 23,-148 89,-184 88,-47 187,-32 249,38 47,54 43,66 -21,66 -41,0 -58,-5 -72,-20 -40,-44 -120,-16 -140,48 l -6,22 140,0 c 160,0 149,-7 131,90 -12,63 -50,117 -96,136 -55,23 -142,18 -191,-11 z m 136,-70 c 28,-14 41,-33 41,-61 0,-11 -17,-14 -75,-14 -86,0 -95,11 -46,61 34,33 41,35 80,14 z" inkscape:connector-curvature="0" id="path350" />
    <path d="m 2135,8368 c -11,-6 -28,-20 -37,-32 l -18,-21 0,28 c 0,26 -2,27 -50,27 l -50,0 0,-200 0,-200 50,0 50,0 0,109 c 0,153 18,191 91,191 l 39,0 0,55 c 0,53 -1,55 -27,55 -16,0 -37,-6 -48,-12 z" inkscape:connector-curvature="0" id="path352" />
    <path d="m 2334,8361 c -47,-29 -64,-59 -64,-114 0,-59 27,-88 98,-107 95,-25 126,-37 136,-54 9,-13 7,-20 -8,-32 -38,-27 -119,-10 -129,27 -4,16 -15,19 -62,19 l -57,0 7,-27 c 18,-75 61,-104 161,-111 127,-8 204,39 204,125 0,72 -36,104 -153,134 -81,21 -107,40 -87,63 26,32 120,12 120,-25 0,-5 25,-9 55,-9 55,0 55,0 49,28 -17,73 -65,102 -171,102 -49,0 -77,-5 -99,-19 z" inkscape:connector-curvature="0" id="path354" />
    <path d="m 3055,8368 c -11,-6 -28,-20 -37,-32 l -18,-21 0,28 c 0,26 -2,27 -50,27 l -50,0 0,-200 0,-200 50,0 50,0 0,109 c 0,153 18,191 91,191 l 39,0 0,55 c 0,53 -1,55 -27,55 -16,0 -37,-6 -48,-12 z" inkscape:connector-curvature="0" id="path356" />
    <path d="m 3703,8355 c -58,-35 -83,-90 -83,-185 0,-100 23,-148 89,-184 88,-47 187,-32 249,38 47,54 43,66 -21,66 -41,0 -58,-5 -72,-20 -40,-44 -120,-16 -140,48 l -6,22 140,0 c 160,0 149,-7 131,90 -12,63 -50,117 -96,136 -55,23 -142,18 -191,-11 z m 136,-70 c 28,-14 41,-33 41,-61 0,-11 -17,-14 -75,-14 -86,0 -95,11 -46,61 34,33 41,35 80,14 z" inkscape:connector-curvature="0" id="path358" />
    <path d="m 5723,8355 c -58,-35 -83,-90 -83,-185 0,-100 23,-148 89,-184 88,-47 187,-32 249,38 47,54 43,66 -21,66 -41,0 -58,-5 -72,-20 -40,-44 -120,-16 -140,48 l -6,22 140,0 c 160,0 149,-7 131,90 -12,63 -50,117 -96,136 -55,23 -142,18 -191,-11 z m 136,-70 c 28,-14 41,-33 41,-61 0,-11 -17,-14 -75,-14 -86,0 -95,11 -46,61 34,33 41,35 80,14 z" inkscape:connector-curvature="0" id="path360" />
    <path d="m 6134,8361 c -47,-29 -64,-59 -64,-114 0,-59 27,-88 98,-107 95,-25 126,-37 136,-54 9,-13 7,-20 -8,-32 -38,-27 -119,-10 -129,27 -4,16 -15,19 -62,19 l -57,0 7,-27 c 18,-75 61,-104 161,-111 127,-8 204,39 204,125 0,72 -36,104 -153,134 -81,21 -107,40 -87,63 26,32 120,12 120,-25 0,-5 25,-9 55,-9 55,0 55,0 49,28 -17,73 -65,102 -171,102 -49,0 -77,-5 -99,-19 z" inkscape:connector-curvature="0" id="path362" />
    <path d="m 6771,8362 c -39,-19 -66,-54 -75,-94 -6,-28 -6,-28 48,-28 45,0 54,3 59,20 12,45 95,50 121,7 15,-25 -12,-44 -77,-52 -115,-14 -156,-44 -164,-118 -6,-55 16,-101 59,-123 41,-21 119,-14 158,14 28,21 29,21 35,2 5,-17 15,-20 66,-20 32,0 59,2 59,4 0,2 -7,17 -15,32 -11,22 -15,64 -15,165 0,122 -2,139 -20,162 -37,47 -172,64 -239,29 z m 159,-227 c 0,-55 -39,-95 -93,-95 -45,0 -64,52 -29,83 14,12 68,29 115,36 4,1 7,-10 7,-24 z" inkscape:connector-curvature="0" id="path364" />
    <path d="m 1113,8358 c 2,-7 35,-97 72,-200 l 67,-188 57,0 56,0 38,108 c 21,59 53,149 72,200 l 33,92 -57,0 -58,0 -39,-135 c -21,-74 -41,-135 -44,-135 -3,0 -15,37 -28,83 -13,45 -30,106 -38,135 l -15,52 -61,0 c -44,0 -59,-3 -55,-12 z" inkscape:connector-curvature="0" id="path366" />
    <path d="m 3190,8209 c 0,-146 2,-165 21,-195 35,-58 144,-69 204,-22 l 25,19 0,-20 c 0,-19 6,-21 55,-21 l 55,0 0,200 0,200 -55,0 -55,0 0,-125 c 0,-134 -8,-166 -47,-184 -36,-16 -58,-14 -79,10 -16,18 -19,40 -22,160 l -4,139 -49,0 -49,0 0,-161 z" inkscape:connector-curvature="0" id="path368" />
    <path d="m 6500,8170 0,-200 55,0 55,0 0,200 0,200 -55,0 -55,0 0,-200 z" inkscape:connector-curvature="0" id="path370" />
    <path d="m 28833,8325 c -58,-35 -83,-90 -83,-185 0,-100 23,-148 89,-184 88,-47 187,-32 249,38 47,54 43,66 -21,66 -41,0 -58,-5 -72,-20 -40,-44 -120,-16 -140,48 l -6,22 140,0 c 160,0 149,-7 131,90 -12,63 -50,117 -96,136 -55,23 -142,18 -191,-11 z m 136,-70 c 28,-14 41,-33 41,-61 0,-11 -17,-14 -75,-14 -86,0 -95,11 -46,61 34,33 41,35 80,14 z" inkscape:connector-curvature="0" id="path372" />
    <path d="m 29355,8338 c -11,-6 -28,-20 -37,-32 l -18,-21 0,28 c 0,26 -2,27 -50,27 l -50,0 0,-200 0,-200 50,0 50,0 0,109 c 0,153 18,191 91,191 l 39,0 0,55 c 0,53 -1,55 -27,55 -16,0 -37,-6 -48,-12 z" inkscape:connector-curvature="0" id="path374" />
    <path d="m 29544,8331 c -47,-29 -64,-59 -64,-114 0,-59 27,-88 98,-107 95,-25 126,-37 136,-54 9,-13 7,-20 -8,-32 -38,-27 -119,-10 -129,27 -4,16 -15,19 -62,19 l -57,0 7,-27 c 18,-75 61,-104 161,-111 127,-8 204,39 204,125 0,72 -36,104 -153,134 -81,21 -107,40 -87,63 26,32 120,12 120,-25 0,-5 25,-9 55,-9 55,0 55,0 49,28 -17,73 -65,102 -171,102 -49,0 -77,-5 -99,-19 z" inkscape:connector-curvature="0" id="path376" />
    <path d="m 30171,8332 c -39,-19 -66,-54 -75,-94 -6,-28 -6,-28 48,-28 45,0 54,3 59,20 12,45 95,50 121,7 15,-25 -12,-44 -77,-52 -115,-14 -156,-44 -164,-118 -6,-55 16,-101 59,-123 41,-21 119,-14 158,14 28,21 29,21 35,2 5,-17 15,-20 66,-20 32,0 59,2 59,4 0,2 -7,17 -15,32 -11,22 -15,64 -15,165 0,122 -2,139 -20,162 -37,47 -172,64 -239,29 z m 159,-227 c 0,-55 -39,-95 -93,-95 -45,0 -64,52 -29,83 14,12 68,29 115,36 4,1 7,-10 7,-24 z" inkscape:connector-curvature="0" id="path378" />
    <path d="m 33121,8332 c -39,-19 -66,-54 -75,-94 -6,-28 -6,-28 48,-28 45,0 54,3 59,20 12,45 95,50 121,7 15,-25 -12,-44 -77,-52 -115,-14 -156,-44 -164,-118 -6,-55 16,-101 59,-123 41,-21 119,-14 158,14 28,21 29,21 35,2 5,-17 15,-20 66,-20 32,0 59,2 59,4 0,2 -7,17 -15,32 -11,22 -15,64 -15,165 0,122 -2,139 -20,162 -37,47 -172,64 -239,29 z m 159,-227 c 0,-55 -39,-95 -93,-95 -45,0 -64,52 -29,83 14,12 68,29 115,36 4,1 7,-10 7,-24 z" inkscape:connector-curvature="0" id="path380" />
    <path d="m 33816,8325 c -34,-23 -36,-23 -36,-5 0,17 -7,20 -50,20 l -50,0 0,-200 0,-200 50,0 50,0 0,109 c 0,128 6,163 32,190 24,27 79,28 101,3 14,-15 17,-42 17,-160 l 0,-142 55,0 55,0 0,160 c 0,178 -8,208 -60,235 -46,24 -121,19 -164,-10 z" inkscape:connector-curvature="0" id="path382" />
    <path d="m 34193,8325 c -58,-35 -83,-90 -83,-185 0,-100 23,-148 89,-184 88,-47 187,-32 249,38 47,54 43,66 -21,66 -41,0 -58,-5 -72,-20 -40,-44 -120,-16 -140,48 l -6,22 140,0 c 160,0 149,-7 131,90 -12,63 -50,117 -96,136 -55,23 -142,18 -191,-11 z m 136,-70 c 28,-14 41,-33 41,-61 0,-11 -17,-14 -75,-14 -86,0 -95,11 -46,61 34,33 41,35 80,14 z" inkscape:connector-curvature="0" id="path384" />
    <path d="m 28323,8328 c 2,-7 35,-97 72,-200 l 67,-188 57,0 56,0 38,108 c 21,59 53,149 72,200 l 33,92 -57,0 -58,0 -39,-135 c -21,-74 -41,-135 -44,-135 -3,0 -15,37 -28,83 -13,45 -30,106 -38,135 l -15,52 -61,0 c -44,0 -59,-3 -55,-12 z" inkscape:connector-curvature="0" id="path386" />
    <path d="m 30493,8328 c 2,-7 35,-97 72,-200 l 67,-188 57,0 56,0 38,108 c 21,59 53,149 72,200 l 33,92 -57,0 -58,0 -39,-135 c -21,-74 -41,-135 -44,-135 -3,0 -15,37 -28,83 -13,45 -30,106 -38,135 l -15,52 -61,0 c -44,0 -59,-3 -55,-12 z" inkscape:connector-curvature="0" id="path388" />
    <path d="m 31770,8179 c 0,-146 2,-165 21,-195 35,-58 144,-69 204,-22 l 25,19 0,-20 c 0,-19 6,-21 55,-21 l 55,0 0,200 0,200 -55,0 -55,0 0,-125 c 0,-134 -8,-166 -47,-184 -36,-16 -58,-14 -79,10 -16,18 -19,40 -22,160 l -4,139 -49,0 -49,0 0,-161 z" inkscape:connector-curvature="0" id="path390" />
    <path d="m 33480,8140 0,-200 55,0 55,0 0,200 0,200 -55,0 -55,0 0,-200 z" inkscape:connector-curvature="0" id="path392" />
    <path d="m 30890,7995 0,-55 55,0 55,0 0,55 0,55 -55,0 -55,0 0,-55 z" inkscape:connector-curvature="0" id="path394" />
    <path d="m 377,7433 c -4,-3 -7,-60 -7,-125 l 0,-118 7328,-2 7327,-3 3,-2107 2,-2108 125,0 125,0 0,2229 0,2229 -31,6 c -42,8 -14864,8 -14872,-1 z" inkscape:connector-curvature="0" id="path396" />
    <path d="m 17260,5200 0,-2240 125,0 125,0 2,2113 3,2112 2948,3 2947,2 0,-2115 0,-2115 125,0 125,0 -2,2238 -3,2237 -3197,3 -3198,2 0,-2240 z" inkscape:connector-curvature="0" id="path398" />
    <path d="m 24980,5195 0,-2235 125,0 125,0 0,2110 0,2110 4655,0 4655,0 0,125 0,125 -4780,0 -4780,0 0,-2235 z" inkscape:connector-curvature="0" id="path400" />
    <path d="m 24046,2745 c -20,-30 -35,-55 -34,-56 2,0 20,-1 41,-2 34,-2 44,4 94,56 l 57,57 -60,0 -61,0 -37,-55 z" inkscape:connector-curvature="0" id="path402" />
    <path d="m 15710,2500 0,-270 55,0 54,0 3,98 3,97 100,5 c 157,8 195,41 195,171 0,81 -21,123 -74,149 -37,17 -62,20 -189,20 l -147,0 0,-270 z m 281,151 c 27,-32 24,-77 -6,-106 -21,-22 -33,-25 -95,-25 l -70,0 0,81 0,81 76,-4 c 65,-3 79,-7 95,-27 z" inkscape:connector-curvature="0" id="path404" />
    <path d="m 23490,2500 0,-270 55,0 55,0 0,270 0,270 -55,0 -55,0 0,-270 z" inkscape:connector-curvature="0" id="path406" />
    <path d="m 23700,2500 0,-270 55,0 55,0 0,270 0,270 -55,0 -55,0 0,-270 z" inkscape:connector-curvature="0" id="path408" />
    <path d="m 25210,2685 c 0,-47 -3,-85 -7,-85 -3,0 -15,8 -25,17 -11,10 -41,18 -76,21 -47,3 -63,0 -91,-20 -51,-34 -70,-66 -83,-135 -20,-110 17,-209 93,-248 44,-23 110,-19 153,10 34,23 36,23 36,5 0,-17 7,-20 50,-20 l 50,0 0,270 0,270 -50,0 -50,0 0,-85 z m -57,-147 c 12,-6 27,-18 34,-27 19,-26 26,-96 13,-135 -31,-96 -146,-83 -165,18 -20,104 45,183 118,144 z" inkscape:connector-curvature="0" id="path410" />
    <path d="m 17800,2685 c 0,-52 -1,-55 -25,-55 -22,0 -25,-4 -25,-40 0,-36 3,-40 25,-40 l 25,0 0,-135 c 0,-131 1,-137 25,-160 20,-21 34,-25 85,-25 l 60,0 0,39 c 0,36 -3,40 -27,43 l -28,3 -3,118 -3,117 31,0 c 28,0 30,2 30,40 0,38 -2,40 -30,40 -30,0 -30,1 -30,55 l 0,55 -55,0 -55,0 0,-55 z" inkscape:connector-curvature="0" id="path412" />
    <path d="m 14475,2628 c -11,-6 -28,-20 -37,-32 l -18,-21 0,28 c 0,26 -2,27 -50,27 l -50,0 0,-200 0,-200 50,0 50,0 0,109 c 0,153 18,191 91,191 l 39,0 0,55 c 0,53 -1,55 -27,55 -16,0 -37,-6 -48,-12 z" inkscape:connector-curvature="0" id="path414" />
    <path d="m 15123,2615 c -58,-35 -83,-90 -83,-185 0,-100 23,-148 89,-184 88,-47 187,-32 249,38 47,54 43,66 -21,66 -41,0 -58,-5 -72,-20 -40,-44 -120,-16 -140,48 l -6,22 140,0 c 160,0 149,-7 131,90 -12,63 -50,117 -96,136 -55,23 -142,18 -191,-11 z m 136,-70 c 28,-14 41,-33 41,-61 0,-11 -17,-14 -75,-14 -86,0 -95,11 -46,61 34,33 41,35 80,14 z" inkscape:connector-curvature="0" id="path416" />
    <path d="m 16253,2615 c -58,-35 -83,-90 -83,-185 0,-100 23,-148 89,-184 88,-47 187,-32 249,38 47,54 43,66 -21,66 -41,0 -58,-5 -72,-20 -40,-44 -120,-16 -140,48 l -6,22 140,0 c 160,0 149,-7 131,90 -12,63 -50,117 -96,136 -55,23 -142,18 -191,-11 z m 136,-70 c 28,-14 41,-33 41,-61 0,-11 -17,-14 -75,-14 -86,0 -95,11 -46,61 34,33 41,35 80,14 z" inkscape:connector-curvature="0" id="path418" />
    <path d="m 16775,2628 c -11,-6 -28,-20 -37,-32 l -18,-21 0,28 c 0,26 -2,27 -50,27 l -50,0 0,-200 0,-200 50,0 50,0 0,109 c 0,153 18,191 91,191 l 39,0 0,55 c 0,53 -1,55 -27,55 -16,0 -37,-6 -48,-12 z" inkscape:connector-curvature="0" id="path420" />
    <path d="m 17046,2615 c -34,-23 -36,-23 -36,-5 0,17 -7,20 -50,20 l -50,0 0,-200 0,-200 50,0 50,0 0,109 c 0,128 6,163 32,190 24,27 79,28 101,3 14,-15 17,-42 17,-160 l 0,-142 55,0 55,0 0,160 c 0,178 -8,208 -60,235 -46,24 -121,19 -164,-10 z" inkscape:connector-curvature="0" id="path422" />
    <path d="m 17423,2615 c -58,-35 -83,-90 -83,-185 0,-100 23,-148 89,-184 88,-47 187,-32 249,38 47,54 43,66 -21,66 -41,0 -58,-5 -72,-20 -40,-44 -120,-16 -140,48 l -6,22 140,0 c 160,0 149,-7 131,90 -12,63 -50,117 -96,136 -55,23 -142,18 -191,-11 z m 136,-70 c 28,-14 41,-33 41,-61 0,-11 -17,-14 -75,-14 -86,0 -95,11 -46,61 34,33 41,35 80,14 z" inkscape:connector-curvature="0" id="path424" />
    <path d="m 23141,2622 c -39,-19 -66,-54 -75,-94 -6,-28 -6,-28 48,-28 45,0 54,3 59,20 12,45 95,50 121,7 15,-25 -12,-44 -77,-52 -115,-14 -156,-44 -164,-118 -6,-55 16,-101 59,-123 41,-21 119,-14 158,14 28,21 29,21 35,2 5,-17 15,-20 66,-20 32,0 59,2 59,4 0,2 -7,17 -15,32 -11,22 -15,64 -15,165 0,122 -2,139 -20,162 -37,47 -172,64 -239,29 z m 159,-227 c 0,-55 -39,-95 -93,-95 -45,0 -64,52 -29,83 14,12 68,29 115,36 4,1 7,-10 7,-24 z" inkscape:connector-curvature="0" id="path426" />
    <path d="m 23963,2615 c -58,-35 -83,-90 -83,-185 0,-100 23,-148 89,-184 88,-47 187,-32 249,38 47,54 43,66 -21,66 -41,0 -58,-5 -72,-20 -40,-44 -120,-16 -140,48 l -6,22 140,0 c 160,0 149,-7 131,90 -12,63 -50,117 -96,136 -55,23 -142,18 -191,-11 z m 136,-70 c 28,-14 41,-33 41,-61 0,-11 -17,-14 -75,-14 -86,0 -95,11 -46,61 34,33 41,35 80,14 z" inkscape:connector-curvature="0" id="path428" />
    <path d="m 24383,2615 c -58,-35 -83,-90 -83,-185 0,-100 23,-148 89,-184 88,-47 187,-32 249,38 47,54 43,66 -21,66 -41,0 -58,-5 -72,-20 -40,-44 -120,-16 -140,48 l -6,22 140,0 c 160,0 149,-7 131,90 -12,63 -50,117 -96,136 -55,23 -142,18 -191,-11 z m 136,-70 c 28,-14 41,-33 41,-61 0,-11 -17,-14 -75,-14 -86,0 -95,11 -46,61 34,33 41,35 80,14 z" inkscape:connector-curvature="0" id="path430" />
    <path d="m 14620,2469 c 0,-146 2,-165 21,-195 35,-58 144,-69 204,-22 l 25,19 0,-20 c 0,-19 6,-21 55,-21 l 55,0 0,200 0,200 -55,0 -55,0 0,-125 c 0,-134 -8,-166 -47,-184 -36,-16 -58,-14 -79,10 -16,18 -19,40 -22,160 l -4,139 -49,0 -49,0 0,-161 z" inkscape:connector-curvature="0" id="path432" />
    <path d="m 17990,2626 c 0,-2 32,-96 71,-208 81,-231 82,-251 16,-256 -37,-3 -37,-4 -37,-48 l 0,-44 48,0 c 58,0 91,16 114,56 17,30 178,476 178,495 0,5 -24,9 -54,9 l -55,0 -15,-52 c -8,-29 -25,-90 -37,-135 -12,-46 -25,-83 -28,-83 -3,0 -24,61 -45,135 l -39,135 -58,0 c -33,0 -59,-2 -59,-4 z" inkscape:connector-curvature="0" id="path434" />
    <path d="m 25410,2469 c 0,-146 2,-165 21,-195 35,-58 144,-69 204,-22 l 25,19 0,-20 c 0,-19 6,-21 55,-21 l 55,0 0,200 0,200 -55,0 -55,0 0,-125 c 0,-134 -8,-166 -47,-184 -36,-16 -58,-14 -79,10 -16,18 -19,40 -22,160 l -4,139 -49,0 -49,0 0,-161 z" inkscape:connector-curvature="0" id="path436" />
    <path d="m 22622,1826 c -23,-30 -42,-56 -42,-58 0,-2 19,-2 42,-2 32,1 47,7 66,29 l 24,28 22,-28 c 18,-22 31,-28 64,-29 23,0 42,1 42,3 0,2 -19,28 -41,58 -40,51 -44,53 -88,53 -44,0 -48,-2 -89,-54 z" inkscape:connector-curvature="0" id="path438" />
    <path d="m 26350,1810 0,-50 55,0 55,0 0,50 0,50 -55,0 -55,0 0,-50 z" inkscape:connector-curvature="0" id="path440" />
    <path d="m 22100,1580 0,-270 49,0 49,0 4,134 c 3,126 5,137 28,160 28,31 79,35 103,8 14,-15 17,-42 17,-160 l 0,-142 55,0 55,0 0,155 c 0,177 -9,214 -61,240 -41,22 -140,17 -167,-8 -10,-9 -22,-17 -25,-17 -4,0 -7,38 -7,85 l 0,85 -50,0 -50,0 0,-270 z" inkscape:connector-curvature="0" id="path442" />
    <path d="m 22980,1765 c 0,-52 -1,-55 -25,-55 -22,0 -25,-4 -25,-40 0,-36 3,-40 25,-40 l 25,0 0,-135 c 0,-131 1,-137 25,-160 20,-21 34,-25 85,-25 l 60,0 0,39 c 0,36 -3,40 -27,43 l -28,3 -3,118 -3,117 31,0 c 28,0 30,2 30,40 0,38 -2,40 -30,40 -30,0 -30,1 -30,55 l 0,55 -55,0 -55,0 0,-55 z" inkscape:connector-curvature="0" id="path444" />
    <path d="m 24836,1719 c -90,-22 -140,-97 -140,-209 1,-95 46,-172 117,-199 66,-25 181,-7 231,37 73,65 75,243 3,320 -46,49 -133,71 -211,51 z m 128,-121 c 26,-29 28,-35 24,-96 -4,-56 -8,-68 -32,-88 -34,-30 -88,-32 -115,-5 -39,39 -48,128 -19,184 12,24 67,48 93,41 11,-3 33,-19 49,-36 z" inkscape:connector-curvature="0" id="path446" />
    <path d="m 21770,1713 c -75,-28 -110,-94 -110,-208 0,-89 21,-140 73,-179 41,-30 173,-30 214,0 37,28 73,81 73,110 0,22 -4,24 -55,24 -47,0 -55,-3 -55,-18 0,-53 -84,-70 -120,-24 -19,23 -21,37 -18,101 3,62 7,76 27,92 13,10 36,19 51,19 27,0 60,-26 60,-48 0,-8 21,-12 59,-12 l 59,0 -10,37 c -15,55 -35,80 -79,97 -38,15 -138,20 -169,9 z" inkscape:connector-curvature="0" id="path448" />
    <path d="m 22611,1702 c -39,-19 -66,-54 -75,-94 -6,-28 -6,-28 48,-28 45,0 54,3 59,20 12,45 95,50 121,7 15,-25 -12,-44 -77,-52 -115,-14 -156,-44 -164,-118 -6,-55 16,-101 59,-123 41,-21 119,-14 158,14 28,21 29,21 35,2 5,-17 15,-20 66,-20 32,0 59,2 59,4 0,2 -7,17 -15,32 -11,22 -15,64 -15,165 0,122 -2,139 -20,162 -37,47 -172,64 -239,29 z m 159,-227 c 0,-55 -39,-95 -93,-95 -45,0 -64,52 -29,83 14,12 68,29 115,36 4,1 7,-10 7,-24 z" inkscape:connector-curvature="0" id="path450" />
    <path d="m 23273,1695 c -58,-35 -83,-90 -83,-185 0,-100 23,-148 89,-184 88,-47 187,-32 249,38 47,54 43,66 -21,66 -41,0 -58,-5 -72,-20 -40,-44 -120,-16 -140,48 l -6,22 140,0 c 160,0 149,-7 131,90 -12,63 -50,117 -96,136 -55,23 -142,18 -191,-11 z m 136,-70 c 28,-14 41,-33 41,-61 0,-11 -17,-14 -75,-14 -86,0 -95,11 -46,61 34,33 41,35 80,14 z" inkscape:connector-curvature="0" id="path452" />
    <path d="m 23701,1702 c -39,-19 -66,-54 -75,-94 -6,-28 -6,-28 48,-28 45,0 54,3 59,20 12,45 95,50 121,7 15,-25 -12,-44 -77,-52 -115,-14 -156,-44 -164,-118 -6,-55 16,-101 59,-123 41,-21 119,-14 158,14 28,21 29,21 35,2 5,-17 15,-20 66,-20 32,0 59,2 59,4 0,2 -7,17 -15,32 -11,22 -15,64 -15,165 0,122 -2,139 -20,162 -37,47 -172,64 -239,29 z m 159,-227 c 0,-55 -39,-95 -93,-95 -45,0 -64,52 -29,83 14,12 68,29 115,36 4,1 7,-10 7,-24 z" inkscape:connector-curvature="0" id="path454" />
    <path d="m 26215,1708 c -11,-6 -28,-20 -37,-32 l -18,-21 0,28 c 0,26 -2,27 -50,27 l -50,0 0,-200 0,-200 50,0 50,0 0,109 c 0,153 18,191 91,191 l 39,0 0,55 c 0,53 -1,55 -27,55 -16,0 -37,-6 -48,-12 z" inkscape:connector-curvature="0" id="path456" />
    <path d="m 26613,1695 c -58,-35 -83,-90 -83,-185 0,-100 23,-148 89,-184 88,-47 187,-32 249,38 47,54 43,66 -21,66 -41,0 -58,-5 -72,-20 -40,-44 -120,-16 -140,48 l -6,22 140,0 c 160,0 149,-7 131,90 -12,63 -50,117 -96,136 -55,23 -142,18 -191,-11 z m 136,-70 c 28,-14 41,-33 41,-61 0,-11 -17,-14 -75,-14 -86,0 -95,11 -46,61 34,33 41,35 80,14 z" inkscape:connector-curvature="0" id="path458" />
    <path d="m 27125,1708 c -11,-6 -28,-20 -37,-32 l -18,-21 0,28 c 0,26 -2,27 -50,27 l -50,0 0,-200 0,-200 50,0 50,0 0,109 c 0,153 18,191 91,191 l 39,0 0,55 c 0,53 -1,55 -27,55 -16,0 -37,-6 -48,-12 z" inkscape:connector-curvature="0" id="path460" />
    <path d="m 24060,1549 c 0,-146 2,-165 21,-195 35,-58 144,-69 204,-22 l 25,19 0,-20 c 0,-19 6,-21 55,-21 l 55,0 0,200 0,200 -55,0 -55,0 0,-125 c 0,-134 -8,-166 -47,-184 -36,-16 -58,-14 -79,10 -16,18 -19,40 -22,160 l -4,139 -49,0 -49,0 0,-161 z" inkscape:connector-curvature="0" id="path462" />
    <path d="m 25180,1549 c 0,-146 2,-165 21,-195 35,-58 144,-69 204,-22 l 25,19 0,-20 c 0,-19 6,-21 55,-21 l 55,0 0,200 0,200 -55,0 -55,0 0,-125 c 0,-134 -8,-166 -47,-184 -36,-16 -58,-14 -79,10 -16,18 -19,40 -22,160 l -4,139 -49,0 -49,0 0,-161 z" inkscape:connector-curvature="0" id="path464" />
    <path d="m 25603,1698 c 2,-7 35,-97 72,-200 l 67,-188 57,0 56,0 38,108 c 21,59 53,149 72,200 l 33,92 -57,0 -58,0 -39,-135 c -21,-74 -41,-135 -44,-135 -3,0 -15,37 -28,83 -13,45 -30,106 -38,135 l -15,52 -61,0 c -44,0 -59,-3 -55,-12 z" inkscape:connector-curvature="0" id="path466" />
    <path d="m 26350,1510 0,-200 55,0 55,0 0,200 0,200 -55,0 -55,0 0,-200 z" inkscape:connector-curvature="0" id="path468" />
  </g>
</svg>
