<?xml version="1.0" encoding="UTF-8" standalone="no"?>
<!-- Created with Inkscape (http://www.inkscape.org/) -->

<svg xmlns:dc="http://purl.org/dc/elements/1.1/" xmlns:cc="http://creativecommons.org/ns#" xmlns:rdf="http://www.w3.org/1999/02/22-rdf-syntax-ns#" xmlns:svg="http://www.w3.org/2000/svg" xmlns="http://www.w3.org/2000/svg" xmlns:inkscape="http://www.inkscape.org/namespaces/inkscape" version="1.0" width="3507pt" height="2480pt" viewBox="0 0 3507 2480" id="svg2">
  <defs id="defs196" />
  <metadata id="metadata4">
Created by potrace 1.11, written by Peter Selinger 2001-2013
<rdf:RDF>
  <cc:Work rdf:about="">
    <dc:format>image/svg+xml</dc:format>
    <dc:type rdf:resource="http://purl.org/dc/dcmitype/StillImage" />
  </cc:Work>
</rdf:RDF>
</metadata>
  <g transform="matrix(0.1,0,0,-0.1,0,2480)" id="g6" style="fill:#000000;stroke:none">
    <path d="m 360,23505 0,-895 4145,0 4145,0 0,895 0,895 -4145,0 -4145,0 0,-895 z m 1950,257 c 0,-4 -22,-29 -49,-56 -44,-43 -52,-47 -90,-44 l -41,3 32,53 33,52 57,0 c 32,0 58,-4 58,-8 z m -702,-44 c 5,-18 24,-99 43,-180 18,-82 36,-148 39,-148 3,0 24,80 46,178 l 40,177 82,3 82,3 0,-261 0,-260 -55,0 -55,0 -1,183 -1,182 -41,-182 -41,-183 -57,0 -57,0 -22,98 c -12,53 -30,131 -40,172 l -18,75 -1,-172 -1,-173 -55,0 -55,0 0,260 0,260 80,0 79,0 9,-32 z m 2332,7 c 46,-27 70,-76 70,-145 0,-116 -51,-162 -192,-168 l -88,-4 0,-89 0,-89 -60,0 -60,0 0,261 0,261 148,-4 c 126,-3 152,-6 182,-23 z m 2740,-240 0,-255 -55,0 -55,0 0,170 0,169 -57,3 -58,3 -3,38 c -3,34 -1,37 23,37 46,0 96,27 108,60 10,27 16,30 54,30 l 43,0 0,-255 z m 448,93 3,-158 29,0 c 28,0 30,-2 30,-40 0,-38 -2,-40 -30,-40 -30,0 -30,-1 -30,-55 l 0,-55 -55,0 -55,0 0,55 0,55 -100,0 -100,0 0,41 c 0,34 16,68 96,200 l 96,160 56,-3 57,-3 3,-157 z m -4578,87 c 0,-54 0,-55 30,-55 28,0 30,-2 30,-40 0,-38 -2,-40 -30,-40 l -31,0 3,-107 3,-108 28,-3 c 25,-3 27,-7 27,-49 l 0,-45 -60,4 c -45,3 -66,10 -83,26 -20,21 -22,32 -22,152 l 0,130 -27,0 c -26,0 -28,3 -28,40 0,36 3,40 25,40 23,0 25,3 25,48 0,27 3,52 7,55 3,4 28,7 55,7 l 48,0 0,-55 z m 3170,0 c 0,-54 0,-55 30,-55 28,0 30,-2 30,-40 0,-38 -2,-40 -30,-40 l -31,0 3,-107 3,-108 28,-3 c 25,-3 27,-7 27,-49 l 0,-45 -60,4 c -45,3 -66,10 -83,26 -20,21 -22,32 -22,152 l 0,130 -27,0 c -26,0 -28,3 -28,40 0,36 3,40 25,40 23,0 25,3 25,48 0,27 3,52 7,55 3,4 28,7 55,7 l 48,0 0,-55 z m -3442,-63 c 54,-24 92,-96 92,-173 l 0,-39 -131,0 -130,0 7,-22 c 12,-40 35,-58 75,-58 28,0 42,6 51,20 10,16 24,20 65,20 46,0 53,-3 53,-19 0,-25 -44,-77 -81,-96 -16,-9 -55,-15 -90,-15 -115,0 -177,59 -187,176 -14,174 123,276 276,206 z m 963,-7 c 101,-66 106,-276 9,-345 -67,-47 -199,-43 -253,8 -70,65 -87,178 -42,269 28,55 52,75 106,92 51,16 138,4 180,-24 z m 1087,7 c 54,-24 92,-96 92,-173 l 0,-39 -131,0 -130,0 7,-22 c 12,-40 35,-58 75,-58 28,0 42,6 51,20 10,16 24,20 65,20 46,0 53,-3 53,-19 0,-25 -44,-77 -81,-96 -16,-9 -55,-15 -90,-15 -115,0 -177,59 -187,176 -14,174 123,276 276,206 z m 1120,0 c 54,-24 92,-96 92,-173 l 0,-39 -131,0 -130,0 7,-22 c 12,-40 35,-58 75,-58 28,0 42,6 51,20 10,16 24,20 65,20 46,0 53,-3 53,-19 0,-25 -44,-77 -81,-96 -16,-9 -55,-15 -90,-15 -115,0 -177,59 -187,176 -14,174 123,276 276,206 z m 2050,0 c 54,-24 92,-96 92,-173 l 0,-39 -131,0 -130,0 7,-22 c 12,-40 35,-58 75,-58 28,0 42,6 51,20 10,16 24,20 65,20 46,0 53,-3 53,-19 0,-25 -44,-77 -81,-96 -16,-9 -55,-15 -90,-15 -115,0 -177,59 -187,176 -14,174 123,276 276,206 z m -4730,-10 3,-23 30,26 c 20,16 43,25 65,25 l 34,0 0,-55 0,-55 -37,0 c -71,0 -83,-25 -83,-169 l 0,-111 -55,0 -55,0 0,188 c 0,104 3,192 7,196 4,4 25,6 48,4 33,-2 41,-7 43,-26 z m 1810,0 3,-23 30,26 c 20,16 43,25 65,25 l 34,0 0,-55 0,-55 -37,0 c -71,0 -83,-25 -83,-169 l 0,-111 -55,0 -55,0 0,188 c 0,104 3,192 7,196 4,4 25,6 48,4 33,-2 41,-7 43,-26 z m 503,-10 29,-32 0,-160 0,-160 -55,0 -55,0 0,134 c 0,109 -3,138 -16,150 -24,25 -69,20 -93,-10 -19,-24 -21,-40 -21,-150 l 0,-124 -55,0 -55,0 0,190 0,190 55,0 c 43,0 55,-3 55,-16 0,-13 5,-11 28,6 23,19 37,21 91,18 57,-4 67,-8 92,-36 z m 837,26 c 6,-7 26,-67 45,-133 19,-66 37,-113 41,-105 3,8 17,58 31,110 38,141 37,140 87,140 24,0 48,-4 54,-8 7,-5 -11,-70 -57,-202 -119,-338 -114,-330 -204,-330 l -55,0 0,45 c 0,43 1,45 30,45 60,0 58,25 -19,240 -38,107 -67,198 -64,203 7,12 100,8 111,-5 z" inkscape:connector-curvature="0" id="path8" />
    <path d="m 3730,23580 0,-70 63,0 c 74,0 100,19 100,72 0,47 -32,68 -104,68 l -59,0 0,-70 z" inkscape:connector-curvature="0" id="path10" />
    <path d="m 6963,23513 -51,-88 50,-3 c 28,-2 52,-1 55,1 2,3 3,44 1,92 l -3,87 -52,-89 z" inkscape:connector-curvature="0" id="path12" />
    <path d="m 2137,23512 c -10,-10 -17,-26 -17,-35 0,-14 11,-17 65,-17 57,0 65,2 65,18 0,46 -81,70 -113,34 z" inkscape:connector-curvature="0" id="path14" />
    <path d="m 3082,23523 c -52,-21 -54,-175 -2,-203 21,-11 61,-13 85,-4 58,23 58,185 0,208 -19,7 -64,7 -83,-1 z" inkscape:connector-curvature="0" id="path16" />
    <path d="m 4187,23512 c -10,-10 -17,-26 -17,-35 0,-14 11,-17 65,-17 57,0 65,2 65,18 0,46 -81,70 -113,34 z" inkscape:connector-curvature="0" id="path18" />
    <path d="m 5307,23512 c -10,-10 -17,-26 -17,-35 0,-14 11,-17 65,-17 57,0 65,2 65,18 0,46 -81,70 -113,34 z" inkscape:connector-curvature="0" id="path20" />
    <path d="m 7357,23512 c -10,-10 -17,-26 -17,-35 0,-14 11,-17 65,-17 57,0 65,2 65,18 0,46 -81,70 -113,34 z" inkscape:connector-curvature="0" id="path22" />
    <path d="m 10125,16023 0,-2958 -2457,-3 -2458,-2 0,-125 0,-125 2111,0 2110,0 -6,-22 c -4,-13 -18,-46 -31,-75 -13,-28 -24,-59 -24,-67 0,-8 -4,-17 -9,-21 -5,-3 -12,-19 -16,-35 -4,-17 -11,-30 -16,-30 -5,0 -9,-11 -9,-24 0,-14 -4,-28 -10,-31 -5,-3 -10,-15 -10,-25 0,-10 -7,-25 -15,-34 -8,-8 -15,-23 -15,-33 0,-10 -7,-27 -15,-37 -8,-11 -15,-30 -15,-43 0,-13 -4,-23 -10,-23 -5,0 -10,-9 -10,-21 0,-11 -7,-27 -15,-35 -8,-9 -15,-26 -15,-40 0,-15 -6,-24 -15,-24 -38,0 -2,-59 36,-60 9,0 30,-7 45,-15 52,-27 66,-17 89,63 3,12 11,22 16,22 5,0 9,14 9,30 0,17 4,30 9,30 5,0 12,16 15,35 4,19 11,35 16,35 6,0 10,10 10,23 0,13 5,28 12,35 14,14 38,80 38,105 0,9 4,17 8,17 11,0 42,72 42,99 0,12 7,24 15,27 8,4 15,14 15,24 0,15 17,59 41,102 5,10 9,24 9,33 0,13 51,15 388,17 l 387,3 3,2958 2,2957 1820,0 1820,0 0,-1375 c 0,-910 -3,-1375 -10,-1375 -6,0 -10,-48 -10,-125 l 0,-125 7375,0 7375,0 2,-332 3,-333 78,-3 77,-3 0,336 0,335 1025,0 1025,0 0,125 0,125 -8345,0 -8345,0 0,1500 0,1500 -2072,0 -2073,0 0,-2957 z" inkscape:connector-curvature="0" id="path24" />
    <path d="m 11700,18020 0,-570 200,0 200,0 0,570 0,570 -200,0 -200,0 0,-570 z" inkscape:connector-curvature="0" id="path26" />
    <path d="m 12275,18468 c -3,-7 -4,-213 -3,-458 l 3,-445 135,0 135,0 0,455 0,455 -133,3 c -100,2 -134,-1 -137,-10 z" inkscape:connector-curvature="0" id="path28" />
    <path d="m 12765,18367 c -3,-6 -4,-167 -3,-357 l 3,-345 98,-3 97,-3 0,361 0,360 -95,0 c -68,0 -97,-4 -100,-13 z" inkscape:connector-curvature="0" id="path30" />
    <path d="m 3455,18208 c -16,-6 -39,-18 -49,-27 -25,-21 -56,-89 -56,-123 0,-27 2,-28 48,-28 48,0 49,0 61,40 28,95 155,64 137,-33 -6,-34 -39,-70 -129,-142 -87,-68 -107,-97 -121,-177 l -7,-38 186,0 185,0 0,50 0,49 -117,3 -116,3 63,45 c 90,64 129,99 145,129 53,104 5,223 -100,250 -53,13 -90,13 -130,-1 z" inkscape:connector-curvature="0" id="path32" />
    <path d="m 5380,17951 0,-271 55,0 55,0 0,105 0,105 83,0 c 102,0 117,-11 117,-86 0,-27 3,-66 6,-86 l 7,-38 64,0 c 58,0 64,2 57,18 -4,9 -11,57 -14,107 -7,79 -11,91 -34,112 l -27,23 32,28 c 27,24 33,37 37,84 5,61 -9,97 -53,138 -26,24 -30,25 -206,28 l -179,3 0,-270 z m 290,166 c 32,-16 47,-58 32,-91 -14,-31 -71,-48 -150,-44 l -57,3 -3,73 -3,72 78,0 c 43,0 89,-6 103,-13 z" inkscape:connector-curvature="0" id="path34" />
    <path d="m 8590,18135 c 0,-47 -3,-85 -7,-85 -3,0 -15,8 -25,17 -11,10 -41,18 -76,21 -47,3 -63,0 -91,-20 -51,-34 -70,-66 -83,-135 -20,-110 17,-209 93,-248 44,-23 110,-19 153,10 34,23 36,23 36,5 0,-17 7,-20 50,-20 l 50,0 0,270 0,270 -50,0 -50,0 0,-85 z m -57,-147 c 12,-6 27,-18 34,-27 19,-26 26,-96 13,-135 -31,-96 -146,-83 -165,18 -20,104 45,183 118,144 z" inkscape:connector-curvature="0" id="path36" />
    <path d="m 2930,18160 0,-49 125,-3 125,-3 -36,-50 c -72,-101 -123,-222 -138,-332 l -6,-43 53,0 53,0 22,98 c 25,110 71,210 137,294 36,47 45,66 45,98 l 0,40 -190,0 -190,0 0,-50 z" inkscape:connector-curvature="0" id="path38" />
    <path d="m 28658,18110 c -51,-27 -85,-89 -99,-180 -21,-138 6,-259 70,-313 41,-34 67,-41 137,-35 67,6 101,29 132,89 30,56 28,153 -4,196 -49,66 -132,91 -195,59 -18,-9 -34,-14 -37,-12 -2,3 -1,22 2,42 8,42 46,84 76,84 30,0 60,-18 60,-35 0,-11 13,-15 55,-15 31,0 55,4 55,10 0,28 -31,79 -60,100 -46,32 -142,38 -192,10 z m 131,-286 c 21,-26 28,-84 15,-119 -4,-8 -19,-22 -35,-31 -26,-13 -32,-13 -59,1 -36,19 -50,43 -50,90 0,75 86,114 129,59 z" inkscape:connector-curvature="0" id="path40" />
    <path d="m 30590,17861 0,-271 55,0 55,0 0,105 0,105 83,0 c 102,0 117,-11 117,-86 0,-27 3,-66 6,-86 l 7,-38 64,0 c 58,0 64,2 57,18 -4,9 -11,57 -14,107 -7,79 -11,91 -34,112 l -27,23 32,28 c 27,24 33,37 37,84 5,61 -9,97 -53,138 -26,24 -30,25 -206,28 l -179,3 0,-270 z m 290,166 c 32,-16 47,-58 32,-91 -14,-31 -71,-48 -150,-44 l -57,3 -3,73 -3,72 78,0 c 43,0 89,-6 103,-13 z" inkscape:connector-curvature="0" id="path42" />
    <path d="m 33800,18045 c 0,-47 -3,-85 -7,-85 -3,0 -15,8 -25,17 -11,10 -41,18 -76,21 -47,3 -63,0 -91,-20 -51,-34 -70,-66 -83,-135 -20,-110 17,-209 93,-248 44,-23 110,-19 153,10 34,23 36,23 36,5 0,-17 7,-20 50,-20 l 50,0 0,270 0,270 -50,0 -50,0 0,-85 z m -57,-147 c 12,-6 27,-18 34,-27 19,-26 26,-96 13,-135 -31,-96 -146,-83 -165,18 -20,104 45,183 118,144 z" inkscape:connector-curvature="0" id="path44" />
    <path d="m 28171,18033 c -6,-49 -14,-116 -17,-150 l -7,-63 51,0 c 28,0 54,5 57,11 12,19 54,29 80,19 27,-10 55,-57 55,-92 0,-13 -9,-37 -19,-54 -32,-53 -97,-50 -126,5 -14,28 -20,31 -65,31 -44,0 -50,-3 -50,-20 0,-43 38,-97 83,-119 50,-24 131,-28 180,-7 94,39 138,195 79,276 -38,51 -82,72 -142,68 -30,-2 -63,-8 -74,-13 -15,-6 -17,-5 -13,11 3,10 8,36 12,57 l 6,37 109,0 110,0 0,45 0,45 -149,0 -148,0 -12,-87 z" inkscape:connector-curvature="0" id="path46" />
    <path d="m 7536,18089 c -90,-22 -140,-97 -140,-209 1,-95 46,-172 117,-199 66,-25 181,-7 231,37 73,65 75,243 3,320 -46,49 -133,71 -211,51 z m 128,-121 c 26,-29 28,-35 24,-96 -4,-56 -8,-68 -32,-88 -34,-30 -88,-32 -115,-5 -39,39 -48,128 -19,184 12,24 67,48 93,41 11,-3 33,-19 49,-36 z" inkscape:connector-curvature="0" id="path48" />
    <path d="m 4155,18078 c -11,-6 -28,-20 -37,-32 l -18,-21 0,28 c 0,26 -2,27 -50,27 l -50,0 0,-200 0,-200 50,0 50,0 0,109 c 0,153 18,191 91,191 l 39,0 0,55 c 0,53 -1,55 -27,55 -16,0 -37,-6 -48,-12 z" inkscape:connector-curvature="0" id="path50" />
    <path d="m 4803,18065 c -58,-35 -83,-90 -83,-185 0,-100 23,-148 89,-184 88,-47 187,-32 249,38 47,54 43,66 -21,66 -41,0 -58,-5 -72,-20 -40,-44 -120,-16 -140,48 l -6,22 140,0 c 160,0 149,-7 131,90 -12,63 -50,117 -96,136 -55,23 -142,18 -191,-11 z m 136,-70 c 28,-14 41,-33 41,-61 0,-11 -17,-14 -75,-14 -86,0 -95,11 -46,61 34,33 41,35 80,14 z" inkscape:connector-curvature="0" id="path52" />
    <path d="m 5981,18072 c -39,-19 -66,-54 -75,-94 -6,-28 -6,-28 48,-28 45,0 54,3 59,20 12,45 95,50 121,7 15,-25 -12,-44 -77,-52 -115,-14 -156,-44 -164,-118 -6,-55 16,-101 59,-123 41,-21 119,-14 158,14 28,21 29,21 35,2 5,-17 15,-20 66,-20 32,0 59,2 59,4 0,2 -7,17 -15,32 -11,22 -15,64 -15,165 0,122 -2,139 -20,162 -37,47 -172,64 -239,29 z m 159,-227 c 0,-55 -39,-95 -93,-95 -45,0 -64,52 -29,83 14,12 68,29 115,36 4,1 7,-10 7,-24 z" inkscape:connector-curvature="0" id="path54" />
    <path d="m 6881,18064 c -30,-25 -31,-25 -31,-5 0,19 -6,21 -50,21 l -50,0 0,-200 0,-200 50,0 50,0 0,131 c 0,159 11,189 72,189 49,0 58,-28 58,-182 l 0,-138 55,0 55,0 0,140 c 0,127 2,142 20,160 25,25 62,26 83,2 14,-15 17,-42 17,-160 l 0,-142 55,0 55,0 0,155 c 0,175 -9,214 -59,239 -42,22 -109,20 -148,-4 -18,-11 -33,-25 -33,-32 0,-7 -8,-3 -18,8 -42,52 -130,61 -181,18 z" inkscape:connector-curvature="0" id="path56" />
    <path d="m 8016,18065 c -34,-23 -36,-23 -36,-5 0,17 -7,20 -50,20 l -50,0 0,-200 0,-200 50,0 50,0 0,109 c 0,128 6,163 32,190 24,27 79,28 101,3 14,-15 17,-42 17,-160 l 0,-142 55,0 55,0 0,160 c 0,178 -8,208 -60,235 -46,24 -121,19 -164,-10 z" inkscape:connector-curvature="0" id="path58" />
    <path d="m 4290,17919 c 0,-146 2,-165 21,-195 35,-58 144,-69 204,-22 l 25,19 0,-20 c 0,-19 6,-21 55,-21 l 55,0 0,200 0,200 -55,0 -55,0 0,-125 c 0,-134 -8,-166 -47,-184 -36,-16 -58,-14 -79,10 -16,18 -19,40 -22,160 l -4,139 -49,0 -49,0 0,-161 z" inkscape:connector-curvature="0" id="path60" />
    <path d="m 6290,18076 c 0,-2 32,-96 71,-208 81,-231 82,-251 16,-256 -37,-3 -37,-4 -37,-48 l 0,-44 48,0 c 58,0 91,16 114,56 17,30 178,476 178,495 0,5 -24,9 -54,9 l -55,0 -15,-52 c -8,-29 -25,-90 -37,-135 -12,-46 -25,-83 -28,-83 -3,0 -24,61 -45,135 l -39,135 -58,0 c -33,0 -59,-2 -59,-4 z" inkscape:connector-curvature="0" id="path62" />
    <path d="m 32746,17999 c -90,-22 -140,-97 -140,-209 1,-95 46,-172 117,-199 66,-25 181,-7 231,37 73,65 75,243 3,320 -46,49 -133,71 -211,51 z m 128,-121 c 26,-29 28,-35 24,-96 -4,-56 -8,-68 -32,-88 -34,-30 -88,-32 -115,-5 -39,39 -48,128 -19,184 12,24 67,48 93,41 11,-3 33,-19 49,-36 z" inkscape:connector-curvature="0" id="path64" />
    <path d="m 29365,17988 c -11,-6 -28,-20 -37,-32 l -18,-21 0,28 c 0,26 -2,27 -50,27 l -50,0 0,-200 0,-200 50,0 50,0 0,109 c 0,153 18,191 91,191 l 39,0 0,55 c 0,53 -1,55 -27,55 -16,0 -37,-6 -48,-12 z" inkscape:connector-curvature="0" id="path66" />
    <path d="m 30013,17975 c -58,-35 -83,-90 -83,-185 0,-100 23,-148 89,-184 88,-47 187,-32 249,38 47,54 43,66 -21,66 -41,0 -58,-5 -72,-20 -40,-44 -120,-16 -140,48 l -6,22 140,0 c 160,0 149,-7 131,90 -12,63 -50,117 -96,136 -55,23 -142,18 -191,-11 z m 136,-70 c 28,-14 41,-33 41,-61 0,-11 -17,-14 -75,-14 -86,0 -95,11 -46,61 34,33 41,35 80,14 z" inkscape:connector-curvature="0" id="path68" />
    <path d="m 31181,17982 c -39,-19 -66,-54 -75,-94 -6,-28 -6,-28 48,-28 45,0 54,3 59,20 12,45 95,50 121,7 15,-25 -12,-44 -77,-52 -115,-14 -156,-44 -164,-118 -6,-55 16,-101 59,-123 41,-21 119,-14 158,14 28,21 29,21 35,2 5,-17 15,-20 66,-20 32,0 59,2 59,4 0,2 -7,17 -15,32 -11,22 -15,64 -15,165 0,122 -2,139 -20,162 -37,47 -172,64 -239,29 z m 159,-227 c 0,-55 -39,-95 -93,-95 -45,0 -64,52 -29,83 14,12 68,29 115,36 4,1 7,-10 7,-24 z" inkscape:connector-curvature="0" id="path70" />
    <path d="m 32091,17974 c -30,-25 -31,-25 -31,-5 0,19 -6,21 -50,21 l -50,0 0,-200 0,-200 50,0 50,0 0,131 c 0,159 11,189 72,189 49,0 58,-28 58,-182 l 0,-138 55,0 55,0 0,140 c 0,127 2,142 20,160 25,25 62,26 83,2 14,-15 17,-42 17,-160 l 0,-142 55,0 55,0 0,155 c 0,175 -9,214 -59,239 -42,22 -109,20 -148,-4 -18,-11 -33,-25 -33,-32 0,-7 -8,-3 -18,8 -42,52 -130,61 -181,18 z" inkscape:connector-curvature="0" id="path72" />
    <path d="m 33216,17975 c -34,-23 -36,-23 -36,-5 0,17 -7,20 -50,20 l -50,0 0,-200 0,-200 50,0 50,0 0,109 c 0,128 6,163 32,190 24,27 79,28 101,3 14,-15 17,-42 17,-160 l 0,-142 55,0 55,0 0,160 c 0,178 -8,208 -60,235 -46,24 -121,19 -164,-10 z" inkscape:connector-curvature="0" id="path74" />
    <path d="m 29500,17829 c 0,-146 2,-165 21,-195 35,-58 144,-69 204,-22 l 25,19 0,-20 c 0,-19 6,-21 55,-21 l 55,0 0,200 0,200 -55,0 -55,0 0,-125 c 0,-134 -8,-166 -47,-184 -36,-16 -58,-14 -79,10 -16,18 -19,40 -22,160 l -4,139 -49,0 -49,0 0,-161 z" inkscape:connector-curvature="0" id="path76" />
    <path d="m 31500,17986 c 0,-2 32,-96 71,-208 81,-231 82,-251 16,-256 -37,-3 -37,-4 -37,-48 l 0,-44 48,0 c 58,0 91,16 114,56 17,30 178,476 178,495 0,5 -24,9 -54,9 l -55,0 -15,-52 c -8,-29 -25,-90 -37,-135 -12,-46 -25,-83 -28,-83 -3,0 -24,61 -45,135 l -39,135 -58,0 c -33,0 -59,-2 -59,-4 z" inkscape:connector-curvature="0" id="path78" />
    <path d="m 3990,17030 0,-270 190,0 190,0 0,50 0,50 -135,0 -135,0 0,220 0,220 -55,0 -55,0 0,-270 z" inkscape:connector-curvature="0" id="path80" />
    <path d="m 7570,17215 c 0,-47 -3,-85 -7,-85 -3,0 -15,8 -25,17 -11,10 -41,18 -76,21 -47,3 -63,0 -91,-20 -51,-34 -70,-66 -83,-135 -20,-110 17,-209 93,-248 44,-23 110,-19 153,10 34,23 36,23 36,5 0,-17 7,-20 50,-20 l 50,0 0,270 0,270 -50,0 -50,0 0,-85 z m -57,-147 c 12,-6 27,-18 34,-27 19,-26 26,-96 13,-135 -31,-96 -146,-83 -165,18 -20,104 45,183 118,144 z" inkscape:connector-curvature="0" id="path82" />
    <path d="m 29200,16950 0,-270 190,0 190,0 0,50 0,50 -135,0 -135,0 0,220 0,220 -55,0 -55,0 0,-270 z" inkscape:connector-curvature="0" id="path84" />
    <path d="m 32780,17135 c 0,-47 -3,-85 -7,-85 -3,0 -15,8 -25,17 -11,10 -41,18 -76,21 -47,3 -63,0 -91,-20 -51,-34 -70,-66 -83,-135 -20,-110 17,-209 93,-248 44,-23 110,-19 153,10 34,23 36,23 36,5 0,-17 7,-20 50,-20 l 50,0 0,270 0,270 -50,0 -50,0 0,-85 z m -57,-147 c 12,-6 27,-18 34,-27 19,-26 26,-96 13,-135 -31,-96 -146,-83 -165,18 -20,104 45,183 118,144 z" inkscape:connector-curvature="0" id="path86" />
    <path d="m 4546,17169 c -90,-22 -140,-97 -140,-209 1,-95 46,-172 117,-199 66,-25 181,-7 231,37 73,65 75,243 3,320 -46,49 -133,71 -211,51 z m 128,-121 c 26,-29 28,-35 24,-96 -4,-56 -8,-68 -32,-88 -34,-30 -88,-32 -115,-5 -39,39 -48,128 -19,184 12,24 67,48 93,41 11,-3 33,-19 49,-36 z" inkscape:connector-curvature="0" id="path88" />
    <path d="m 4944,17151 c -47,-29 -64,-59 -64,-114 0,-59 27,-88 98,-107 95,-25 126,-37 136,-54 9,-13 7,-20 -8,-32 -38,-27 -119,-10 -129,27 -4,16 -15,19 -62,19 l -57,0 7,-27 c 18,-75 61,-104 161,-111 127,-8 204,39 204,125 0,72 -36,104 -153,134 -81,21 -107,40 -87,63 26,32 120,12 120,-25 0,-5 25,-9 55,-9 55,0 55,0 49,28 -17,73 -65,102 -171,102 -49,0 -77,-5 -99,-19 z" inkscape:connector-curvature="0" id="path90" />
    <path d="m 5364,17151 c -47,-29 -64,-59 -64,-114 0,-59 27,-88 98,-107 95,-25 126,-37 136,-54 9,-13 7,-20 -8,-32 -38,-27 -119,-10 -129,27 -4,16 -15,19 -62,19 l -57,0 7,-27 c 18,-75 61,-104 161,-111 127,-8 204,39 204,125 0,72 -36,104 -153,134 -81,21 -107,40 -87,63 26,32 120,12 120,-25 0,-5 25,-9 55,-9 55,0 55,0 49,28 -17,73 -65,102 -171,102 -49,0 -77,-5 -99,-19 z" inkscape:connector-curvature="0" id="path92" />
    <path d="m 5783,17145 c -58,-35 -83,-90 -83,-185 0,-100 23,-148 89,-184 88,-47 187,-32 249,38 47,54 43,66 -21,66 -41,0 -58,-5 -72,-20 -40,-44 -120,-16 -140,48 l -6,22 140,0 c 160,0 149,-7 131,90 -12,63 -50,117 -96,136 -55,23 -142,18 -191,-11 z m 136,-70 c 28,-14 41,-33 41,-61 0,-11 -17,-14 -75,-14 -86,0 -95,11 -46,61 34,33 41,35 80,14 z" inkscape:connector-curvature="0" id="path94" />
    <path d="m 6295,17158 c -11,-6 -28,-20 -37,-32 l -18,-21 0,28 c 0,26 -2,27 -50,27 l -50,0 0,-200 0,-200 50,0 50,0 0,109 c 0,153 18,191 91,191 l 39,0 0,55 c 0,53 -1,55 -27,55 -16,0 -37,-6 -48,-12 z" inkscape:connector-curvature="0" id="path96" />
    <path d="m 6501,17152 c -39,-19 -66,-54 -75,-94 -6,-28 -6,-28 48,-28 45,0 54,3 59,20 12,45 95,50 121,7 15,-25 -12,-44 -77,-52 -115,-14 -156,-44 -164,-118 -6,-55 16,-101 59,-123 41,-21 119,-14 158,14 28,21 29,21 35,2 5,-17 15,-20 66,-20 32,0 59,2 59,4 0,2 -7,17 -15,32 -11,22 -15,64 -15,165 0,122 -2,139 -20,162 -37,47 -172,64 -239,29 z m 159,-227 c 0,-55 -39,-95 -93,-95 -45,0 -64,52 -29,83 14,12 68,29 115,36 4,1 7,-10 7,-24 z" inkscape:connector-curvature="0" id="path98" />
    <path d="m 6986,17145 c -34,-23 -36,-23 -36,-5 0,17 -7,20 -50,20 l -50,0 0,-200 0,-200 50,0 50,0 0,109 c 0,128 6,163 32,190 24,27 79,28 101,3 14,-15 17,-42 17,-160 l 0,-142 55,0 55,0 0,160 c 0,178 -8,208 -60,235 -46,24 -121,19 -164,-10 z" inkscape:connector-curvature="0" id="path100" />
    <path d="m 29756,17089 c -90,-22 -140,-97 -140,-209 1,-95 46,-172 117,-199 66,-25 181,-7 231,37 73,65 75,243 3,320 -46,49 -133,71 -211,51 z m 128,-121 c 26,-29 28,-35 24,-96 -4,-56 -8,-68 -32,-88 -34,-30 -88,-32 -115,-5 -39,39 -48,128 -19,184 12,24 67,48 93,41 11,-3 33,-19 49,-36 z" inkscape:connector-curvature="0" id="path102" />
    <path d="m 30154,17071 c -47,-29 -64,-59 -64,-114 0,-59 27,-88 98,-107 95,-25 126,-37 136,-54 9,-13 7,-20 -8,-32 -38,-27 -119,-10 -129,27 -4,16 -15,19 -62,19 l -57,0 7,-27 c 18,-75 61,-104 161,-111 127,-8 204,39 204,125 0,72 -36,104 -153,134 -81,21 -107,40 -87,63 26,32 120,12 120,-25 0,-5 25,-9 55,-9 55,0 55,0 49,28 -17,73 -65,102 -171,102 -49,0 -77,-5 -99,-19 z" inkscape:connector-curvature="0" id="path104" />
    <path d="m 30574,17071 c -47,-29 -64,-59 -64,-114 0,-59 27,-88 98,-107 95,-25 126,-37 136,-54 9,-13 7,-20 -8,-32 -38,-27 -119,-10 -129,27 -4,16 -15,19 -62,19 l -57,0 7,-27 c 18,-75 61,-104 161,-111 127,-8 204,39 204,125 0,72 -36,104 -153,134 -81,21 -107,40 -87,63 26,32 120,12 120,-25 0,-5 25,-9 55,-9 55,0 55,0 49,28 -17,73 -65,102 -171,102 -49,0 -77,-5 -99,-19 z" inkscape:connector-curvature="0" id="path106" />
    <path d="m 30993,17065 c -58,-35 -83,-90 -83,-185 0,-100 23,-148 89,-184 88,-47 187,-32 249,38 47,54 43,66 -21,66 -41,0 -58,-5 -72,-20 -40,-44 -120,-16 -140,48 l -6,22 140,0 c 160,0 149,-7 131,90 -12,63 -50,117 -96,136 -55,23 -142,18 -191,-11 z m 136,-70 c 28,-14 41,-33 41,-61 0,-11 -17,-14 -75,-14 -86,0 -95,11 -46,61 34,33 41,35 80,14 z" inkscape:connector-curvature="0" id="path108" />
    <path d="m 31505,17078 c -11,-6 -28,-20 -37,-32 l -18,-21 0,28 c 0,26 -2,27 -50,27 l -50,0 0,-200 0,-200 50,0 50,0 0,109 c 0,153 18,191 91,191 l 39,0 0,55 c 0,53 -1,55 -27,55 -16,0 -37,-6 -48,-12 z" inkscape:connector-curvature="0" id="path110" />
    <path d="m 31701,17072 c -39,-19 -66,-54 -75,-94 -6,-28 -6,-28 48,-28 45,0 54,3 59,20 12,45 95,50 121,7 15,-25 -12,-44 -77,-52 -115,-14 -156,-44 -164,-118 -6,-55 16,-101 59,-123 41,-21 119,-14 158,14 28,21 29,21 35,2 5,-17 15,-20 66,-20 32,0 59,2 59,4 0,2 -7,17 -15,32 -11,22 -15,64 -15,165 0,122 -2,139 -20,162 -37,47 -172,64 -239,29 z m 159,-227 c 0,-55 -39,-95 -93,-95 -45,0 -64,52 -29,83 14,12 68,29 115,36 4,1 7,-10 7,-24 z" inkscape:connector-curvature="0" id="path112" />
    <path d="m 32196,17065 c -34,-23 -36,-23 -36,-5 0,17 -7,20 -50,20 l -50,0 0,-200 0,-200 50,0 50,0 0,109 c 0,128 6,163 32,190 24,27 79,28 101,3 14,-15 17,-42 17,-160 l 0,-142 55,0 55,0 0,160 c 0,178 -8,208 -60,235 -46,24 -121,19 -164,-10 z" inkscape:connector-curvature="0" id="path114" />
    <path d="m 12280,11294 0,-5757 92,7 c 50,3 772,6 1605,6 l 1513,0 0,65 0,65 -1540,0 -1540,0 0,2687 0,2688 34,-51 c 79,-118 231,-219 372,-249 60,-13 1059,-15 7704,-15 6813,0 7642,2 7700,16 190,44 360,189 436,372 l 23,57 1,-1477 0,-1478 -7274,0 c -4839,0 -7277,-3 -7281,-10 -3,-6 -35,-10 -71,-10 l -64,0 0,-552 c 0,-304 3,-563 6,-575 l 6,-23 1364,0 1364,0 0,-1435 0,-1435 -3165,0 -3165,0 0,2875 0,2875 -635,0 c -417,0 -635,3 -635,10 0,6 -97,10 -270,10 l -270,0 0,-30 0,-30 -272,2 -273,3 -3,28 -3,27 -270,0 c -173,0 -269,-4 -269,-10 0,-7 -653,-10 -1940,-10 l -1940,0 0,2664 0,2665 53,10 c 28,6 732,130 1562,276 831,146 1515,267 1521,269 7,3 4,41 -11,123 l -21,118 -31,-2 c -30,-3 -3243,-567 -3291,-578 -21,-5 -23,-10 -17,-45 4,-26 3,-40 -4,-40 -8,0 -11,-805 -11,-2855 l 0,-2855 2065,0 2065,0 0,-680 0,-680 815,0 815,0 0,680 0,680 510,0 510,0 0,-2750 c 0,-1827 -3,-2750 -10,-2750 -6,0 -10,-48 -10,-125 l 0,-125 3425,0 3425,0 0,1615 c 0,1070 -3,1615 -10,1615 -6,0 -10,30 -10,70 l 0,70 -1360,0 -1360,0 0,335 0,335 7274,0 c 4839,0 7277,3 7281,10 3,6 35,10 71,10 l 64,0 0,2990 0,2990 1010,0 1010,0 0,125 0,125 -1020,0 -1020,0 0,24 c 0,14 7,31 15,40 8,8 15,24 15,35 0,12 5,21 10,21 6,0 10,13 10,29 0,16 7,34 15,41 8,7 15,23 15,36 0,13 4,24 9,24 5,0 12,13 16,30 4,16 11,32 16,35 5,4 9,14 9,24 0,10 11,39 25,65 14,26 25,56 25,66 0,10 4,21 9,25 5,3 12,19 16,35 4,17 11,30 16,30 5,0 9,10 9,23 0,13 6,32 14,43 13,17 12,21 -1,37 -9,9 -25,17 -35,17 -11,0 -26,7 -34,15 -35,34 -94,0 -94,-53 0,-11 -7,-25 -15,-32 -8,-7 -15,-23 -15,-36 0,-13 -4,-24 -10,-24 -5,0 -10,-11 -10,-24 0,-14 -7,-31 -15,-40 -8,-8 -15,-24 -15,-35 0,-12 -4,-21 -10,-21 -5,0 -10,-8 -10,-17 0,-10 -7,-31 -15,-47 -8,-15 -15,-36 -15,-46 0,-10 -3,-20 -7,-22 -12,-5 -43,-68 -43,-87 0,-10 -11,-39 -25,-65 -14,-26 -25,-52 -25,-58 0,-6 -8,-29 -17,-50 -13,-30 -22,-38 -42,-38 l -26,0 3,-882 2,-883 -41,85 c -33,67 -59,102 -123,165 -93,92 -167,136 -282,165 -77,20 -141,20 -7718,20 -6818,0 -7648,-2 -7706,-16 -140,-32 -294,-137 -369,-251 l -31,-46 0,2231 0,2232 -65,0 -65,0 0,-5756 z m 9978,1367 c 9,-6 38,-13 64,-16 26,-3 50,-10 53,-16 4,-5 14,-9 23,-9 9,-1 35,-9 57,-20 22,-11 44,-19 48,-20 4,0 13,-5 20,-11 7,-5 39,-27 72,-49 57,-37 155,-121 155,-133 0,-4 11,-19 25,-34 69,-76 136,-211 163,-328 31,-138 18,-367 -29,-481 -30,-74 -81,-166 -124,-222 -23,-31 -112,-120 -143,-142 -18,-14 -43,-33 -54,-42 -12,-10 -27,-18 -35,-18 -7,0 -13,-4 -13,-9 0,-5 -10,-13 -22,-17 -13,-4 -25,-10 -28,-13 -6,-9 -114,-45 -196,-65 -81,-21 -253,-21 -336,0 -82,20 -192,56 -198,65 -3,3 -15,9 -27,13 -13,4 -23,12 -23,17 0,5 -6,9 -13,9 -8,0 -23,8 -35,18 -11,9 -36,28 -54,42 -31,22 -120,111 -143,142 -43,56 -94,148 -124,222 -47,114 -60,343 -29,481 27,117 94,252 163,328 14,15 25,30 25,34 0,12 98,96 155,133 33,22 65,44 72,49 7,6 16,11 20,11 4,1 26,9 48,20 22,11 48,19 57,20 9,0 19,4 23,10 3,5 32,12 65,16 33,4 60,11 60,15 0,12 236,11 258,0 z m -8965,-107 c 8,-47 -2,-94 -19,-94 -8,0 -19,-11 -24,-25 -5,-14 -16,-25 -25,-25 -8,0 -15,-7 -15,-15 0,-8 -5,-15 -11,-15 -16,0 -79,-62 -79,-77 0,-7 -7,-13 -15,-13 -9,0 -19,-8 -22,-17 -4,-10 -12,-22 -20,-26 -34,-21 -4,-27 135,-27 81,0 164,-3 185,-6 l 37,-7 0,-57 0,-57 -39,-11 c -21,-7 -103,-12 -185,-12 -94,0 -146,-4 -146,-10 0,-6 6,-13 14,-16 8,-3 16,-14 19,-25 3,-10 12,-19 20,-19 9,0 19,-9 22,-20 3,-11 12,-20 20,-20 7,0 15,-9 18,-21 3,-11 15,-23 26,-26 12,-3 21,-12 21,-19 0,-8 7,-14 15,-14 8,0 19,-9 25,-20 6,-11 17,-20 24,-20 16,0 27,-57 19,-105 l -6,-35 -78,0 c -73,0 -79,2 -79,20 0,11 -14,33 -31,48 -17,15 -40,37 -52,50 -11,12 -27,22 -34,22 -7,0 -13,6 -13,14 0,8 -9,18 -20,21 -11,3 -20,12 -20,20 0,8 -9,16 -19,20 -11,3 -23,15 -26,26 -4,10 -12,19 -20,19 -8,0 -17,9 -20,20 -3,11 -15,20 -26,20 -11,0 -19,7 -19,16 0,9 -9,18 -20,21 -11,3 -20,12 -20,20 0,8 -9,17 -20,20 -11,3 -20,14 -20,24 0,14 -7,19 -25,19 -20,0 -25,5 -25,25 0,20 5,25 25,25 18,0 25,5 25,20 0,12 7,20 16,20 9,0 18,9 21,19 3,11 13,21 24,24 10,3 19,12 19,21 0,9 8,16 20,16 11,0 20,4 20,9 0,5 16,25 36,45 20,20 40,36 45,36 5,0 9,6 9,14 0,8 9,18 20,21 11,3 20,13 20,21 0,8 8,17 18,21 9,3 24,12 32,20 8,7 30,27 48,43 17,17 32,39 32,50 0,18 7,20 79,20 l 78,0 6,-36 z m 7250,-11 c 208,-73 362,-217 442,-415 44,-109 59,-199 52,-318 -12,-216 -124,-418 -302,-545 -129,-93 -262,-135 -421,-135 -127,0 -206,19 -324,77 -80,40 -109,61 -186,137 -76,77 -97,106 -137,186 -58,119 -77,197 -77,325 0,128 19,206 77,325 40,80 61,109 137,185 72,72 109,99 176,133 132,67 202,83 350,79 109,-3 136,-7 213,-34 z m -6486,-114 c 53,-26 99,-84 109,-136 l 7,-33 -67,0 c -51,0 -66,3 -66,14 0,8 -11,28 -24,43 -21,24 -31,28 -79,28 -64,0 -99,-24 -118,-83 -16,-48 -13,-152 5,-195 33,-80 133,-100 189,-37 15,16 27,37 27,45 0,12 14,15 65,15 l 65,0 -6,-27 c -10,-45 -57,-116 -93,-140 -101,-68 -249,-49 -329,41 -80,91 -84,301 -7,402 71,93 208,119 322,63 z m 291,-72 3,-87 21,20 c 27,25 97,35 142,20 19,-6 47,-25 61,-41 25,-30 25,-33 25,-200 l 0,-169 -54,0 -55,0 -3,146 c -3,131 -5,147 -22,160 -27,19 -59,18 -87,-5 -23,-18 -24,-26 -27,-160 l -4,-141 -59,0 -59,0 0,268 c 0,148 3,272 7,276 4,4 30,6 58,4 l 50,-3 3,-88 z m 1132,38 0,-56 -57,3 -58,3 -3,53 -3,52 60,0 61,0 0,-55 z m 210,-220 0,-275 -55,0 -55,0 0,275 0,275 55,0 55,0 0,-275 z m 200,0 0,-275 -55,0 -55,0 0,275 0,275 55,0 55,0 0,-275 z m -652,183 3,-58 34,0 c 34,0 35,-1 35,-40 0,-39 -1,-40 -35,-40 l -36,0 3,-117 3,-118 33,-3 c 32,-3 33,-4 30,-45 -3,-40 -5,-42 -37,-45 -51,-5 -99,6 -122,29 -17,17 -19,34 -19,159 l 0,140 -30,0 c -28,0 -30,2 -30,40 0,38 2,40 30,40 30,0 30,1 30,53 0,30 3,57 7,61 4,4 28,6 53,4 l 45,-3 3,-57 z m -299,-54 c 82,-24 91,-46 91,-226 0,-92 4,-148 10,-148 6,0 10,-7 10,-15 0,-12 -14,-15 -65,-15 -53,0 -65,3 -65,16 0,13 -6,12 -36,-6 -68,-43 -176,-23 -203,37 -17,38 -13,105 9,140 14,24 32,36 71,47 29,9 66,16 81,16 39,0 68,17 68,39 0,21 -19,31 -60,31 -28,0 -60,-22 -60,-41 0,-5 -25,-9 -55,-9 -49,0 -55,2 -55,20 0,25 23,72 44,89 48,40 133,50 215,25 z m 1318,1 c 48,-20 71,-41 95,-88 57,-112 17,-261 -82,-312 -68,-35 -171,-27 -234,18 -40,28 -76,110 -76,173 0,61 22,129 53,163 52,56 167,78 244,46 z m 488,-5 c 62,-30 69,-51 73,-237 l 4,-163 -61,0 -61,0 0,140 c 0,127 -2,142 -20,160 -25,25 -61,26 -91,1 -23,-18 -24,-26 -27,-160 l -4,-141 -59,0 -59,0 2,203 3,202 53,3 c 47,3 54,1 59,-18 5,-19 7,-19 22,-6 43,39 106,45 166,16 z m -1265,-195 0,-205 -60,0 -60,0 0,198 c 0,109 3,202 7,205 3,4 30,7 60,7 l 53,0 0,-205 z m 12640,-325 c 0,-11 14,-33 31,-48 17,-15 40,-37 52,-49 11,-13 27,-23 34,-23 7,0 13,-6 13,-14 0,-8 9,-18 20,-21 11,-3 20,-12 20,-20 0,-8 9,-16 19,-20 11,-3 23,-15 26,-26 4,-10 12,-19 20,-19 8,0 17,-9 20,-20 3,-11 15,-20 25,-20 9,0 20,-9 23,-20 3,-11 12,-20 20,-20 8,0 17,-9 20,-20 3,-11 12,-20 21,-20 9,0 16,-8 16,-20 0,-15 7,-20 25,-20 20,0 25,-5 25,-25 0,-20 -5,-25 -25,-25 -18,0 -25,-5 -25,-20 0,-12 -7,-20 -16,-20 -9,0 -18,-9 -21,-20 -3,-11 -12,-20 -20,-20 -8,0 -17,-9 -20,-20 -3,-11 -14,-20 -24,-20 -11,0 -19,-4 -19,-9 0,-12 -69,-81 -81,-81 -5,0 -9,-6 -9,-14 0,-8 -9,-18 -20,-21 -11,-3 -20,-13 -20,-21 0,-8 -8,-17 -17,-21 -10,-3 -25,-12 -33,-20 -8,-7 -30,-27 -47,-43 -18,-17 -33,-39 -33,-50 0,-18 -7,-20 -79,-20 l -78,0 -6,36 c -8,47 2,94 19,94 8,0 19,11 24,25 5,14 16,25 25,25 8,0 15,7 15,15 0,8 5,15 11,15 15,0 79,62 79,76 0,7 9,14 20,17 11,3 20,12 20,20 0,8 7,17 15,21 8,3 15,10 15,16 0,6 -53,10 -147,10 -82,0 -165,3 -185,6 l -38,7 0,57 0,57 39,11 c 21,7 103,12 185,12 137,0 167,6 133,27 -8,4 -16,16 -20,26 -3,9 -13,17 -21,17 -8,0 -18,9 -21,20 -3,11 -12,20 -20,20 -7,0 -15,9 -18,21 -3,11 -15,23 -26,26 -12,3 -21,12 -21,19 0,8 -7,14 -15,14 -8,0 -19,9 -25,20 -6,11 -17,20 -24,20 -16,0 -27,57 -19,105 l 6,35 78,0 c 73,0 79,-2 79,-20 z m -1765,-115 c 19,-30 35,-57 35,-60 0,-3 -19,-5 -43,-5 -39,0 -48,5 -102,60 l -59,60 67,0 67,0 35,-55 z m -1473,-130 c 31,-88 74,-211 97,-272 l 40,-113 -69,0 -69,0 -16,55 -16,56 -96,-3 -96,-3 -17,-50 -17,-50 -66,-3 -66,-3 13,38 c 8,21 48,133 89,248 41,116 80,223 86,238 11,27 13,28 78,25 l 68,-3 57,-160 z m 1178,110 0,-56 -57,3 -58,3 -3,53 -3,52 60,0 61,0 0,-55 z m -729,-99 c 39,-19 74,-70 68,-101 -3,-16 -14,-21 -48,-23 -38,-3 -48,1 -72,27 -29,32 -57,38 -90,21 -35,-19 -22,-39 39,-55 153,-42 182,-66 182,-145 0,-54 -23,-91 -73,-117 -45,-23 -170,-23 -219,1 -43,21 -81,75 -76,108 3,20 10,23 55,26 48,3 52,1 65,-25 11,-24 20,-28 64,-31 37,-2 54,1 64,13 19,23 6,32 -96,60 -114,33 -149,65 -141,131 6,58 30,92 80,115 51,24 144,22 198,-5 z m 454,4 c 62,-30 69,-51 73,-237 l 4,-163 -61,0 -61,0 0,140 c 0,127 -2,142 -20,160 -25,25 -61,26 -91,1 -23,-18 -24,-26 -27,-160 l -4,-141 -59,0 -59,0 2,203 3,202 53,3 c 47,3 54,1 59,-18 5,-19 7,-19 22,-6 43,39 106,45 166,16 z m 597,9 c 75,-20 128,-103 128,-198 l 0,-41 -135,0 c -129,0 -135,-1 -135,-20 0,-12 11,-32 25,-45 32,-33 78,-33 109,0 19,20 33,25 73,25 27,0 52,-3 56,-6 3,-3 1,-19 -5,-35 -25,-72 -139,-123 -224,-100 -92,25 -141,82 -151,174 -18,177 101,290 259,246 z m 428,-49 0,-60 -35,0 c -25,0 -44,-8 -60,-25 -24,-23 -25,-30 -25,-150 l 0,-125 -60,0 -60,0 0,205 0,205 55,0 c 53,0 55,-1 55,-27 l 0,-26 23,20 c 31,29 58,42 85,43 20,0 22,-4 22,-60 z m 282,49 c 75,-20 128,-103 128,-198 l 0,-41 -135,0 c -129,0 -135,-1 -135,-20 0,-12 11,-32 25,-45 32,-33 78,-33 109,0 19,20 33,25 73,25 27,0 52,-3 56,-6 3,-3 1,-19 -5,-35 -25,-72 -139,-123 -224,-100 -92,25 -141,82 -151,174 -18,177 101,290 259,246 z m 459,-13 c 39,-19 74,-70 68,-101 -3,-16 -14,-21 -48,-23 -38,-3 -48,1 -72,27 -29,32 -57,38 -90,21 -35,-19 -22,-39 39,-55 153,-42 182,-66 182,-145 0,-54 -23,-91 -73,-117 -45,-23 -170,-23 -219,1 -43,21 -81,75 -76,108 3,20 10,23 55,26 48,3 52,1 65,-25 11,-24 20,-28 64,-31 37,-2 54,1 64,13 19,23 6,32 -96,60 -114,33 -149,65 -141,131 6,58 30,92 80,115 51,24 144,22 198,-5 z m -1491,-191 0,-205 -60,0 -60,0 0,198 c 0,109 3,202 7,205 3,4 30,7 60,7 l 53,0 0,-205 z M 8376,9396 c 12,-40 -2,-72 -38,-87 -58,-24 -110,22 -94,84 15,61 113,63 132,3 z m 12,-373 2,-213 -23,-5 c -13,-4 -46,-5 -73,-3 l -49,3 -3,218 -2,218 72,-3 73,-3 3,-212 z" inkscape:connector-curvature="0" id="path116" />
    <path d="m 22345,12239 c -61,-15 -115,-41 -115,-56 0,-26 33,-133 41,-133 5,0 31,9 59,20 64,25 160,27 201,3 53,-32 45,-113 -15,-142 -16,-7 -61,-16 -100,-20 l -71,-6 0,-70 c 0,-63 2,-70 20,-72 11,-1 51,-5 88,-8 57,-6 74,-12 103,-37 30,-27 34,-36 34,-79 0,-46 -3,-51 -42,-79 -35,-25 -50,-30 -100,-30 -60,0 -162,23 -186,43 -19,15 -28,0 -44,-76 -15,-66 -15,-68 6,-82 11,-8 28,-15 36,-15 9,0 22,-6 28,-12 17,-17 302,-18 323,-2 8,6 25,15 38,19 43,13 108,75 135,128 22,43 27,168 7,175 -6,2 -11,9 -11,15 -1,20 -58,76 -101,99 l -41,21 34,21 c 41,26 78,65 78,82 0,7 5,14 11,16 6,2 11,30 12,63 2,92 -33,149 -123,200 -28,16 -57,20 -150,22 -63,1 -133,-2 -155,-8 z" inkscape:connector-curvature="0" id="path118" />
    <path d="m 21725,12227 c -11,-7 -55,-29 -98,-47 -43,-19 -82,-39 -87,-45 -12,-14 19,-145 34,-145 6,0 38,14 71,30 33,16 66,30 73,30 9,0 12,-74 12,-335 l 0,-336 98,3 97,3 0,425 0,425 -90,3 c -63,2 -96,-1 -110,-11 z" inkscape:connector-curvature="0" id="path120" />
    <path d="m 19916,12130 c -14,-183 -46,-686 -46,-707 0,-22 4,-23 80,-23 l 79,0 5,33 c 5,29 26,494 26,560 0,57 16,23 39,-80 13,-60 46,-193 75,-298 l 52,-190 74,0 74,0 57,185 c 32,102 73,236 90,298 18,61 35,112 39,112 4,0 10,-123 14,-272 4,-150 9,-290 13,-310 l 6,-38 83,0 c 73,0 84,2 84,18 0,9 -9,181 -20,382 -11,201 -20,375 -20,388 0,22 -1,23 -122,20 l -123,-3 -48,-155 c -26,-85 -61,-206 -77,-269 -16,-62 -31,-116 -34,-119 -7,-6 -4,-16 -55,193 -23,94 -54,211 -69,260 l -28,90 -121,5 -121,5 -6,-85 z" inkscape:connector-curvature="0" id="path122" />
    <path d="m 14843,12068 c -46,-10 -68,-36 -58,-68 12,-38 83,-36 110,3 18,26 20,77 3,76 -7,-1 -32,-5 -55,-11 z" inkscape:connector-curvature="0" id="path124" />
    <path d="m 16114,12197 c -23,-20 -28,-34 -31,-83 -4,-69 10,-103 51,-122 78,-38 145,51 116,157 -19,70 -83,93 -136,48 z" inkscape:connector-curvature="0" id="path126" />
    <path d="m 24722,11450 -31,-90 60,0 c 32,0 59,3 59,6 0,10 -52,174 -55,174 -2,0 -17,-40 -33,-90 z" inkscape:connector-curvature="0" id="path128" />
    <path d="m 26273,11455 c -11,-8 -23,-24 -26,-35 -5,-19 -1,-20 69,-20 41,0 74,4 74,9 0,4 -9,20 -21,35 -23,30 -63,34 -96,11 z" inkscape:connector-curvature="0" id="path130" />
    <path d="m 26983,11455 c -11,-8 -23,-24 -26,-35 -5,-19 -1,-20 69,-20 41,0 74,4 74,9 0,4 -9,20 -21,35 -23,30 -63,34 -96,11 z" inkscape:connector-curvature="0" id="path132" />
    <path d="m 10790,16860 0,-100 358,2 357,3 3,98 3,97 -361,0 -360,0 0,-100 z" inkscape:connector-curvature="0" id="path134" />
    <path d="m 12630,16765 0,-195 560,0 560,0 0,195 0,195 -560,0 -560,0 0,-195 z" inkscape:connector-curvature="0" id="path136" />
    <path d="m 10697,16543 c -4,-3 -7,-66 -7,-140 l 0,-133 455,0 456,0 -3,138 -3,137 -446,3 c -245,1 -449,-1 -452,-5 z" inkscape:connector-curvature="0" id="path138" />
    <path d="m 12734,16387 c -2,-7 -3,-69 -2,-138 l 3,-124 453,-3 452,-2 0,140 0,140 -450,0 c -362,0 -452,-3 -456,-13 z" inkscape:connector-curvature="0" id="path140" />
    <path d="m 10580,15900 0,-200 565,0 565,0 0,200 0,200 -565,0 -565,0 0,-200 z" inkscape:connector-curvature="0" id="path142" />
    <path d="m 12830,15805 0,-95 360,0 360,0 0,95 0,95 -360,0 -360,0 0,-95 z" inkscape:connector-curvature="0" id="path144" />
    <path d="m 31330,15702 c 0,-4 -10,-12 -22,-17 -13,-6 -27,-20 -33,-32 -5,-13 -13,-23 -17,-23 -5,0 -8,-241 -8,-535 l 0,-535 26,-40 c 15,-22 33,-40 40,-40 8,0 14,-7 14,-15 0,-11 12,-15 45,-15 25,0 45,4 45,10 0,5 15,17 33,26 17,9 39,25 48,35 9,11 21,19 26,19 6,0 24,14 41,30 18,17 36,30 40,30 5,0 17,8 28,18 10,10 35,29 54,42 19,13 44,32 54,42 11,10 26,18 33,18 7,0 13,4 13,8 0,4 12,15 28,24 15,9 38,26 52,37 14,11 78,58 142,106 74,54 121,97 130,115 7,17 16,30 20,30 5,0 8,20 8,45 0,25 -4,45 -10,45 -5,0 -10,7 -10,15 0,18 -30,50 -80,85 -19,13 -37,27 -40,30 -3,3 -21,17 -40,30 -19,14 -44,32 -54,42 -11,10 -25,18 -31,18 -6,0 -17,9 -25,20 -8,11 -20,20 -27,20 -7,0 -13,5 -13,10 0,6 -7,10 -15,10 -8,0 -15,4 -15,8 0,4 -13,16 -30,25 -16,10 -35,23 -42,30 -7,7 -29,24 -48,37 -19,13 -37,27 -40,30 -3,3 -21,17 -40,30 -19,14 -44,32 -54,42 -11,10 -24,18 -28,18 -5,0 -18,9 -30,20 -12,11 -34,26 -50,32 -15,7 -28,16 -28,20 0,5 -20,8 -45,8 -25,0 -45,-3 -45,-8 z m 112,-204 c 12,-7 35,-25 51,-40 17,-16 34,-28 39,-28 4,0 22,-13 40,-30 17,-16 37,-30 44,-30 8,0 14,-4 14,-8 0,-4 13,-16 30,-25 16,-10 35,-23 42,-30 7,-7 29,-24 48,-37 19,-13 37,-27 40,-30 3,-3 21,-17 40,-30 19,-13 41,-30 48,-37 7,-7 17,-13 22,-13 5,0 20,-11 34,-25 14,-14 30,-25 36,-25 23,0 21,-30 -4,-55 -14,-14 -29,-25 -33,-25 -4,0 -19,-9 -33,-20 -14,-11 -86,-65 -160,-120 -74,-55 -148,-110 -164,-122 -16,-13 -40,-29 -55,-37 -14,-8 -28,-17 -31,-20 -8,-10 -67,-51 -74,-51 -3,0 -6,191 -6,425 0,234 2,425 5,425 3,0 15,-6 27,-12 z" inkscape:connector-curvature="0" id="path146" />
    <path d="m 30666,15655 c -3,-9 -19,-15 -41,-15 -19,0 -35,-4 -35,-8 0,-9 -73,-31 -132,-39 -21,-3 -38,-9 -38,-13 0,-5 -18,-11 -40,-15 -45,-8 -50,-23 -25,-71 8,-16 15,-39 15,-51 0,-12 5,-25 10,-28 6,-3 10,-22 10,-41 0,-19 5,-34 10,-34 6,0 10,-6 10,-14 0,-7 7,-38 16,-67 8,-30 23,-79 32,-109 9,-30 20,-59 24,-64 11,-13 10,-113 -1,-120 -4,-3 -11,-24 -15,-46 -3,-22 -11,-40 -16,-40 -6,0 -10,-15 -10,-34 0,-19 -4,-38 -10,-41 -5,-3 -10,-16 -10,-28 0,-12 -7,-35 -15,-51 -8,-15 -15,-39 -15,-52 0,-12 -4,-25 -9,-28 -5,-3 -12,-26 -15,-51 -4,-25 -11,-45 -17,-45 -5,0 -9,-15 -9,-33 0,-30 3,-33 48,-45 26,-7 61,-17 77,-22 17,-5 51,-15 78,-21 26,-7 47,-16 47,-21 0,-4 16,-8 35,-8 22,0 38,-6 41,-15 4,-8 17,-15 30,-15 19,0 24,5 24,24 0,14 5,28 10,31 6,3 10,19 10,35 0,16 4,31 9,34 4,3 11,24 15,46 3,22 11,40 16,40 6,0 10,15 10,34 0,19 5,38 10,41 6,3 10,16 10,28 0,12 7,35 15,51 8,15 15,39 15,52 0,12 4,25 9,28 5,3 12,26 15,51 4,25 11,45 17,45 5,0 9,16 9,35 0,24 5,35 15,35 11,0 15,11 15,40 0,29 -4,40 -15,40 -10,0 -15,10 -15,34 0,19 -4,37 -9,40 -5,4 -12,24 -16,46 -4,22 -11,42 -16,46 -5,3 -9,14 -9,26 0,21 -26,109 -41,140 -5,10 -9,29 -9,42 0,13 -7,37 -15,52 -8,16 -15,39 -15,51 0,12 -4,25 -10,28 -5,3 -10,22 -10,41 0,19 -4,34 -10,34 -5,0 -10,7 -10,15 0,9 -9,15 -24,15 -13,0 -26,-7 -30,-15 z" inkscape:connector-curvature="0" id="path148" />
    <path d="m 21036,15535 c -3,-8 -16,-15 -30,-15 -88,0 -276,-188 -276,-276 0,-14 -7,-27 -15,-30 -12,-5 -15,-25 -15,-89 0,-64 3,-84 15,-89 8,-3 15,-16 15,-30 0,-40 41,-107 105,-171 64,-64 131,-105 171,-105 14,0 27,-7 30,-15 5,-12 25,-15 89,-15 64,0 84,3 89,15 3,8 16,15 30,15 88,0 276,188 276,276 0,14 7,27 15,30 12,5 15,25 15,89 0,64 -3,84 -15,89 -8,3 -15,16 -15,30 0,88 -188,276 -276,276 -14,0 -27,7 -30,15 -5,12 -25,15 -89,15 -64,0 -84,-3 -89,-15 z m 181,-93 c 137,-45 242,-182 242,-317 0,-168 -166,-334 -334,-334 -168,0 -334,166 -334,334 0,168 166,334 334,334 22,0 63,-8 92,-17 z" inkscape:connector-curvature="0" id="path150" />
    <path d="m 21071,15239 c -102,-41 -88,-210 19,-234 99,-22 174,50 156,149 -14,76 -97,116 -175,85 z" inkscape:connector-curvature="0" id="path152" />
    <path d="m 30065,15516 c -27,-13 -76,-32 -108,-42 -32,-10 -63,-24 -68,-31 -12,-13 -1,-83 12,-83 5,0 9,-8 9,-17 0,-20 32,-108 43,-119 4,-4 7,-20 7,-36 0,-15 4,-28 9,-28 5,0 13,-15 16,-32 4,-18 12,-36 18,-39 12,-8 13,-111 1,-130 -13,-21 -43,-112 -44,-131 0,-10 -3,-18 -8,-18 -9,0 -42,-90 -42,-114 0,-9 -4,-16 -9,-16 -12,0 -23,-63 -15,-84 4,-10 18,-16 35,-16 17,0 32,-6 35,-15 4,-8 17,-15 29,-15 13,0 27,-4 30,-10 3,-5 20,-10 36,-10 17,0 37,-7 45,-15 24,-23 64,-19 64,6 0,11 7,27 15,35 8,9 15,29 15,45 0,16 5,29 10,29 6,0 10,10 10,23 0,12 7,31 15,41 8,11 15,30 15,43 0,13 5,23 10,23 6,0 10,13 10,29 0,16 7,34 15,41 8,7 15,23 15,36 0,12 5,26 10,29 6,3 10,17 10,31 0,14 7,32 15,40 8,9 15,33 15,53 0,22 -6,44 -15,51 -8,7 -15,25 -15,41 0,16 -4,29 -10,29 -5,0 -10,11 -10,24 0,14 -7,31 -15,40 -8,8 -15,28 -15,45 0,16 -4,33 -10,36 -5,3 -10,17 -10,30 0,12 -7,25 -15,29 -9,3 -15,18 -15,36 0,16 -4,30 -10,30 -5,0 -10,13 -10,29 0,16 -7,34 -15,41 -8,7 -15,23 -15,36 0,31 -27,31 -95,0 z" inkscape:connector-curvature="0" id="path154" />
    <path d="m 29580,15400 c 0,-5 -6,-10 -13,-10 -7,0 -30,-9 -52,-20 -22,-11 -45,-20 -52,-20 -7,0 -13,-7 -13,-15 0,-8 6,-15 13,-15 7,0 21,-19 31,-42 10,-24 29,-65 42,-91 13,-27 24,-55 24,-63 0,-8 4,-14 9,-14 5,0 12,-13 16,-30 4,-16 11,-32 16,-35 5,-4 9,-15 9,-25 0,-20 -30,-83 -42,-88 -5,-2 -8,-14 -8,-27 0,-13 -3,-25 -7,-27 -8,-3 -30,-45 -59,-115 -10,-24 -24,-43 -31,-43 -7,0 -13,-9 -13,-20 0,-12 7,-20 17,-20 22,0 93,-32 93,-42 0,-4 11,-8 24,-8 13,0 26,-5 28,-11 7,-22 48,9 48,36 0,14 4,25 9,25 5,0 12,11 15,25 4,14 11,25 16,25 6,0 10,11 10,25 0,14 4,25 9,25 5,0 12,13 16,30 4,16 11,32 16,35 5,4 9,15 9,26 0,10 4,19 8,19 4,0 14,15 21,33 34,82 40,102 31,111 -6,6 -10,20 -10,33 0,13 -4,23 -8,23 -10,0 -42,71 -42,92 0,9 -7,21 -15,28 -8,7 -15,21 -15,31 0,11 -4,19 -10,19 -5,0 -10,11 -10,25 0,14 -4,25 -9,25 -5,0 -12,11 -15,25 -4,14 -11,25 -16,25 -6,0 -10,11 -10,25 0,23 -4,25 -40,25 -22,0 -40,-4 -40,-10 z" inkscape:connector-curvature="0" id="path156" />
    <path d="m 7742,15360 c -25,-10 -77,-63 -282,-278 -74,-79 -179,-188 -233,-243 -123,-127 -130,-137 -131,-208 -1,-60 12,-85 66,-126 21,-16 164,-85 176,-85 6,0 12,-3 14,-7 4,-9 122,-68 156,-78 12,-3 22,-11 22,-16 0,-5 6,-9 13,-9 6,0 24,-6 39,-14 287,-150 331,-169 384,-170 44,0 56,4 81,29 16,17 33,45 36,64 10,49 -168,1058 -191,1086 -34,39 -41,45 -67,55 -31,12 -52,12 -83,0 z m 33,-232 c 56,-300 141,-805 138,-811 -3,-4 -10,-4 -16,1 -7,5 -24,12 -39,16 -16,3 -28,11 -28,16 0,6 -5,10 -12,10 -15,0 -162,73 -166,83 -2,4 -11,7 -20,7 -9,0 -30,9 -47,20 -16,11 -37,20 -47,20 -9,0 -18,3 -20,8 -4,9 -150,82 -165,82 -6,0 -13,3 -15,8 -1,4 -16,14 -33,22 -16,9 -30,21 -30,28 0,19 34,59 165,194 69,70 168,173 220,228 52,55 98,100 102,100 4,0 10,-15 13,-32 z" inkscape:connector-curvature="0" id="path158" />
    <path d="m 32755,15328 c -16,-6 -39,-18 -49,-27 -25,-21 -56,-89 -56,-123 0,-27 2,-28 48,-28 48,0 49,0 61,40 28,95 155,64 137,-33 -6,-34 -39,-70 -129,-142 -87,-68 -107,-97 -121,-177 l -7,-38 186,0 185,0 0,50 0,49 -117,3 -116,3 63,45 c 90,64 129,99 145,129 53,104 5,223 -100,250 -53,13 -90,13 -130,-1 z" inkscape:connector-curvature="0" id="path160" />
    <path d="m 8635,15133 c -15,-36 -36,-50 -94,-59 -38,-6 -41,-9 -41,-40 l 0,-33 63,-3 62,-3 3,-182 2,-183 50,0 50,0 0,268 0,267 -41,0 c -36,0 -42,-3 -54,-32 z" inkscape:connector-curvature="0" id="path162" />
    <path d="m 6167,15005 c -98,-18 -179,-34 -181,-36 -3,-4 185,-1090 190,-1097 1,-2 88,11 193,30 149,26 191,36 191,48 0,14 -173,1002 -186,1063 -3,15 -11,26 -17,26 -7,-1 -92,-16 -190,-34 z" inkscape:connector-curvature="0" id="path164" />
    <path d="m 5666,14809 c -54,-10 -101,-21 -104,-24 -6,-6 136,-834 149,-871 l 7,-21 128,23 c 70,13 130,27 135,31 4,4 -27,204 -70,443 l -77,435 -34,2 c -19,1 -80,-7 -134,-18 z" inkscape:connector-curvature="0" id="path166" />
    <path d="m 5232,14635 c -34,-7 -64,-14 -66,-16 -7,-6 115,-683 124,-692 9,-10 159,11 176,24 7,6 -9,117 -50,354 l -61,345 -30,-1 c -16,-1 -58,-7 -93,-14 z" inkscape:connector-curvature="0" id="path168" />
    <path d="m 5200,11435 0,-565 200,0 200,0 0,565 0,565 -200,0 -200,0 0,-565 z" inkscape:connector-curvature="0" id="path170" />
    <path d="m 9430,11575 0,-405 -217,0 c -185,0 -225,-3 -265,-18 -60,-23 -130,-86 -146,-133 -15,-45 -18,-754 -2,-764 6,-3 10,-16 10,-28 0,-32 72,-104 126,-127 43,-19 70,-20 512,-20 430,1 471,2 521,19 57,20 130,83 131,113 0,9 5,20 10,23 6,4 10,143 10,385 0,242 -4,381 -10,385 -5,3 -10,15 -10,26 0,29 -67,97 -118,119 -39,17 -68,20 -223,20 l -179,0 0,405 0,405 -75,0 -75,0 0,-405 z m -100,-651 c 0,-139 -3,-178 -14,-190 -20,-20 -35,-18 -57,9 -16,19 -18,40 -19,175 0,169 4,181 58,182 l 32,0 0,-176 z m 375,-24 c 16,-16 32,-30 37,-30 4,0 47,-39 96,-87 48,-49 99,-97 112,-108 53,-43 54,-50 14,-86 -20,-19 -77,-73 -126,-121 -48,-49 -92,-88 -96,-88 -5,0 -21,-13 -37,-30 -55,-58 -138,-25 -120,47 6,26 109,133 127,133 4,0 8,5 8,10 0,6 -122,10 -346,10 -334,0 -347,1 -375,21 -22,15 -29,28 -29,54 0,26 7,39 29,54 28,20 41,21 375,21 224,0 346,4 346,10 0,6 -4,10 -9,10 -17,0 -121,111 -127,136 -4,15 0,34 10,49 24,36 73,34 111,-5 z m -389,-384 c 11,-12 14,-51 14,-190 l 0,-176 -31,0 c -55,0 -59,13 -59,180 0,128 3,155 18,175 20,28 37,31 58,11 z" inkscape:connector-curvature="0" id="path172" />
    <path d="m 5770,11435 0,-456 138,3 137,3 3,453 2,452 -140,0 -140,0 0,-455 z" inkscape:connector-curvature="0" id="path174" />
    <path d="m 6265,11787 c -3,-6 -4,-167 -3,-357 l 3,-345 98,-3 97,-3 0,361 0,360 -95,0 c -68,0 -97,-4 -100,-13 z" inkscape:connector-curvature="0" id="path176" />
    <path d="m 21032,9115 c -7,-8 -22,-15 -34,-15 -21,0 -100,-39 -106,-52 -2,-5 -8,-8 -14,-8 -30,0 -148,-168 -148,-211 0,-11 -7,-22 -15,-25 -12,-5 -15,-25 -15,-94 0,-69 3,-89 15,-94 9,-3 15,-18 15,-36 0,-16 5,-30 10,-30 6,0 10,-7 10,-15 0,-40 116,-163 182,-192 21,-9 38,-20 38,-25 0,-4 13,-8 29,-8 17,0 33,-4 36,-10 3,-5 44,-10 90,-10 46,0 87,5 90,10 3,6 19,10 36,10 16,0 29,4 29,8 0,5 18,17 40,27 67,30 180,150 180,190 0,8 5,15 10,15 6,0 10,14 10,30 0,18 6,33 15,36 12,5 15,25 15,94 0,69 -3,89 -15,94 -8,3 -15,14 -15,25 0,43 -118,211 -148,211 -6,0 -12,3 -14,8 -6,13 -85,52 -106,52 -11,0 -27,7 -36,15 -20,21 -165,21 -184,0 z m 176,-83 c 113,-55 182,-104 182,-131 0,-6 3,-11 8,-11 22,0 66,-152 59,-205 -8,-56 -30,-125 -39,-125 -5,0 -8,-7 -8,-15 0,-8 -4,-15 -10,-15 -5,0 -10,-6 -10,-13 0,-7 -16,-26 -36,-42 -19,-17 -41,-34 -47,-40 -7,-5 -25,-16 -42,-24 -16,-7 -38,-17 -47,-22 -23,-12 -175,-12 -182,0 -3,4 -18,11 -33,14 -16,3 -39,15 -53,26 -77,64 -90,77 -90,88 0,7 -4,13 -10,13 -5,0 -10,7 -10,15 0,8 -3,15 -8,15 -9,0 -31,69 -39,125 -7,53 37,205 59,205 5,0 8,5 8,11 0,19 53,64 111,94 30,16 61,32 69,36 20,11 146,11 168,1 z" inkscape:connector-curvature="0" id="path178" />
    <path d="m 21075,8822 c -53,-27 -75,-61 -75,-114 0,-63 63,-128 125,-128 62,0 125,65 125,128 0,54 -22,87 -79,115 -40,20 -56,20 -96,-1 z" inkscape:connector-curvature="0" id="path180" />
    <path d="m 14980,6440 0,-560 195,0 195,0 0,560 0,560 -195,0 -195,0 0,-560 z" inkscape:connector-curvature="0" id="path182" />
    <path d="m 14540,6435 0,-456 138,3 137,3 3,453 2,452 -140,0 -140,0 0,-455 z" inkscape:connector-curvature="0" id="path184" />
    <path d="m 14130,6440 0,-360 95,0 95,0 0,360 0,360 -95,0 -95,0 0,-360 z" inkscape:connector-curvature="0" id="path186" />
    <path d="m 14120,4935 0,-565 200,0 200,0 0,565 0,565 -200,0 -200,0 0,-565 z" inkscape:connector-curvature="0" id="path188" />
    <path d="m 14682,4938 3,-453 138,-3 137,-3 0,456 0,455 -140,0 -140,0 2,-452 z" inkscape:connector-curvature="0" id="path190" />
    <path d="m 15180,4940 0,-360 100,0 100,0 0,360 0,360 -100,0 -100,0 0,-360 z" inkscape:connector-curvature="0" id="path192" />
  </g>
</svg>
