<?xml version="1.0" encoding="UTF-8" standalone="no"?>
<!-- Created with Inkscape (http://www.inkscape.org/) -->

<svg xmlns:dc="http://purl.org/dc/elements/1.1/" xmlns:cc="http://creativecommons.org/ns#" xmlns:rdf="http://www.w3.org/1999/02/22-rdf-syntax-ns#" xmlns:svg="http://www.w3.org/2000/svg" xmlns="http://www.w3.org/2000/svg" xmlns:inkscape="http://www.inkscape.org/namespaces/inkscape" version="1.1" width="100%" height="100%" id="svg2">
  <metadata id="metadata63">
    <rdf:RDF>
      <cc:Work rdf:about="">
        <dc:format>image/svg+xml</dc:format>
        <dc:type rdf:resource="http://purl.org/dc/dcmitype/StillImage" />
      </cc:Work>
    </rdf:RDF>
  </metadata>
  <defs id="defs61" />
  <g id="tool_closepath">
    <svg version="1.1" width="100%" height="100%" viewBox="0 0 300 300" id="svg5">
      <g id="g7">
        <title id="title9">Layer 1</title>
        <path d="m 121.5,40 -84,106 27,115 166,2 29,-111" inkscape:connector-curvature="0" id="path11" style="fill:#ffc8c8;stroke:#000000;stroke-width:15" />
        <line x1="240" y1="136" x2="169.5" y2="74" stroke="#A00" stroke-width="25" fill="none" id="line13" style="fill:none;stroke:#aa0000;stroke-width:25" />
        <path d="m 158,65 31,74 -3,-50 51,-3 z" inkscape:connector-curvature="0" id="path15" style="fill:#aa0000;stroke:none" />
        <g id="g17" style="fill:#00ffff;stroke:#0000ff;stroke-width:15">
          <circle cx="123" cy="41" r="30" id="circle19" />
          <circle cx="40" cy="146" r="30" id="circle21" />
          <circle cx="69" cy="260" r="30" id="circle23" />
          <circle cx="228" cy="260" r="30" id="circle25" />
          <circle cx="260" cy="148" r="30" id="circle27" />
        </g>
      </g>
    </svg>
  </g>
  <g id="tool_openpath">
    <svg version="1.1" width="100%" height="100%" viewBox="0 0 300 300" id="svg30">
      <g id="g32">
        <title id="title34">Layer 1</title>
        <path d="m 123.5,38 -84,106 27,115 166,2 29,-111" inkscape:connector-curvature="0" id="path36" style="fill:#ffc8c8;stroke:#000000;stroke-width:15" />
        <line x1="276.5" y1="153" x2="108.5" y2="24" stroke="#000" stroke-width="10" fill="none" id="line38" style="fill:none;stroke:#000000;stroke-width:10" />
        <g id="g40" style="fill:#00ffff;stroke:#0000ff;stroke-width:15">
          <circle cx="123" cy="41" r="30" id="circle42" />
          <circle cx="40" cy="146" r="30" id="circle44" />
          <circle cx="69" cy="260" r="30" id="circle46" />
          <circle cx="228" cy="260" r="30" id="circle48" />
          <circle cx="260" cy="148" r="30" id="circle50" />
        </g>
        <g id="g52" style="fill:none;stroke:#aa0000;stroke-width:15">
          <line x1="168" y1="24" x2="210" y2="150" id="line54" />
          <line x1="210" y1="24" x2="168" y2="150" id="line56" />
        </g>
      </g>
    </svg>
  </g>
  <g id="svg_eof" />
</svg>
