<?xml version="1.0" encoding="UTF-8" standalone="no"?>
<!-- Created with Inkscape (http://www.inkscape.org/) -->

<svg xmlns:dc="http://purl.org/dc/elements/1.1/" xmlns:cc="http://creativecommons.org/ns#" xmlns:rdf="http://www.w3.org/1999/02/22-rdf-syntax-ns#" xmlns:svg="http://www.w3.org/2000/svg" xmlns="http://www.w3.org/2000/svg" xmlns:inkscape="http://www.inkscape.org/namespaces/inkscape" version="1.0" width="3508pt" height="2480pt" viewBox="0 0 3508 2480" id="svg2">
  <defs id="defs170" />
  <metadata id="metadata4">
Created by potrace 1.11, written by Peter Selinger 2001-2013
<rdf:RDF>
  <cc:Work rdf:about="">
    <dc:format>image/svg+xml</dc:format>
    <dc:type rdf:resource="http://purl.org/dc/dcmitype/StillImage" />
  </cc:Work>
</rdf:RDF>
</metadata>
  <g transform="matrix(0.1,0,0,-0.1,0,2480)" id="g6" style="fill:#000000;stroke:none">
    <path d="m 1010,22945 0,-955 8870,0 8870,0 0,955 0,955 -8870,0 -8870,0 0,-955 z m 3645,330 c 51,-50 22,-122 -52,-132 -35,-5 -45,-2 -67,20 -53,53 -17,137 59,137 25,0 44,-8 60,-25 z m 4638,-36 c -26,-33 -55,-69 -63,-80 -13,-17 -26,-20 -72,-17 l -56,3 46,78 45,77 74,0 74,0 -48,-61 z m 5836,51 c 30,-15 46,-65 32,-99 -34,-80 -161,-59 -161,27 0,65 69,104 129,72 z m -12962,-30 c 153,-46 249,-239 214,-429 -16,-86 -53,-153 -116,-207 -30,-26 -43,-44 -34,-44 9,0 49,-7 88,-16 80,-18 78,-14 41,-101 l -19,-42 -83,28 c -46,16 -108,39 -138,51 -30,12 -86,29 -124,36 -94,18 -147,47 -200,105 -157,174 -106,497 93,599 81,41 184,48 278,20 z m 6544,-22 c 61,-28 90,-61 109,-125 11,-34 11,-51 1,-84 -13,-44 -71,-114 -102,-124 -19,-6 -18,-8 6,-27 36,-28 58,-77 89,-193 15,-55 29,-108 32,-117 5,-16 -3,-18 -75,-18 -93,0 -88,-6 -120,120 -12,47 -27,98 -33,113 -14,35 -55,57 -108,57 l -40,0 0,-145 0,-145 -80,0 -80,0 2,353 3,352 50,7 c 28,3 104,5 171,4 104,-2 127,-6 175,-28 z m 5116,-4 c 80,-41 117,-101 117,-187 -1,-143 -96,-225 -271,-235 l -83,-5 0,-128 0,-129 -80,0 -80,0 2,353 3,352 50,7 c 28,3 103,5 168,3 107,-2 123,-5 174,-31 z m 2433,15 c 56,-12 117,-53 136,-91 21,-41 20,-111 -3,-150 -10,-18 -36,-44 -56,-57 l -37,-24 49,-28 c 82,-47 112,-138 72,-224 -23,-51 -53,-78 -116,-107 -67,-30 -223,-32 -303,-4 -59,20 -57,11 -31,108 l 9,36 55,-19 c 140,-49 263,4 229,99 -16,44 -57,66 -134,70 l -70,4 0,59 0,59 50,0 c 92,0 149,41 136,96 -10,38 -59,58 -125,50 -30,-4 -69,-13 -85,-21 -16,-8 -30,-15 -32,-15 -4,0 -34,100 -34,111 0,10 79,40 130,49 65,11 109,11 160,-1 z m -11961,-111 -2,-73 57,-3 57,-3 -3,-57 -3,-57 -53,0 -52,0 0,-122 c 0,-119 1,-123 24,-139 14,-8 38,-14 53,-12 28,3 28,2 31,-59 l 3,-62 -46,-7 c -64,-9 -131,2 -167,27 -49,35 -61,78 -66,234 l -4,140 -30,0 c -30,0 -30,1 -32,58 l -1,57 32,0 c 32,0 32,0 35,58 l 3,57 65,17 c 105,27 102,29 99,-54 z m -918,-68 c 71,-14 122,-49 147,-102 18,-37 21,-68 24,-231 l 4,-188 -71,3 c -64,3 -70,5 -73,26 -4,27 -14,28 -37,2 -10,-11 -34,-24 -54,-30 -126,-35 -233,33 -233,149 0,110 84,179 241,197 66,7 77,21 39,48 -28,20 -122,21 -176,2 l -40,-14 -13,46 c -7,26 -13,49 -13,51 -1,7 76,32 124,41 64,11 71,11 131,0 z m 617,1 c 9,-5 12,-28 10,-76 l -3,-69 -43,-2 c -50,-3 -89,-25 -102,-60 -6,-14 -10,-90 -10,-170 l 0,-144 -85,0 -85,0 0,255 0,255 70,0 70,0 0,-40 c 0,-45 11,-51 29,-17 21,38 67,65 131,76 3,0 11,-3 18,-8 z m 1176,-38 c 59,-42 90,-108 90,-197 l 1,-71 -167,-3 c -182,-3 -187,-5 -147,-55 11,-15 39,-32 62,-38 41,-11 154,-7 189,6 17,7 22,-2 33,-66 6,-34 5,-37 -27,-48 -53,-19 -177,-25 -241,-12 -176,37 -252,250 -147,414 69,110 248,145 354,70 z m 500,41 c 13,-5 16,-22 16,-78 l 0,-73 -44,0 c -100,-2 -116,-34 -116,-228 l 0,-145 -80,0 -80,0 0,209 c 0,114 -3,229 -6,255 l -7,46 70,0 c 76,0 82,-5 83,-70 0,-25 0,-25 19,5 25,42 50,62 91,73 19,6 36,11 37,11 1,1 8,-2 17,-5 z m 472,-37 c 52,-62 8,-157 -72,-157 -105,0 -130,161 -29,188 44,12 72,3 101,-31 z m 652,-39 3,-76 -34,1 c -18,0 -47,-5 -63,-11 -52,-22 -59,-43 -62,-209 l -4,-153 -79,0 -79,0 0,255 0,255 70,0 70,0 0,-47 0,-46 30,41 c 17,23 31,42 33,42 1,0 20,7 42,15 65,24 70,20 73,-67 z m 1097,35 c 59,-41 90,-110 90,-198 l 0,-70 -167,-3 c -182,-3 -187,-5 -147,-55 11,-15 39,-32 62,-38 41,-11 154,-7 189,6 17,7 22,-2 33,-66 6,-34 5,-37 -27,-48 -51,-19 -176,-25 -240,-12 -103,22 -164,87 -189,200 -23,106 27,231 112,284 85,52 209,52 284,0 z m 1372,20 c 51,-17 105,-77 121,-132 7,-21 12,-66 12,-100 l 0,-61 -170,0 c -93,0 -170,-2 -170,-5 0,-4 7,-19 15,-34 26,-52 129,-75 230,-51 22,5 44,5 48,1 5,-5 9,-30 10,-57 l 2,-48 -50,-12 c -130,-31 -259,-9 -330,57 -106,98 -101,300 10,397 76,67 168,83 272,45 z m 558,-2 c 55,-24 91,-70 104,-131 6,-28 11,-123 11,-210 l 0,-160 -70,0 c -65,0 -70,2 -76,24 l -6,24 -35,-24 c -117,-79 -268,-18 -280,113 -11,115 72,189 235,208 65,7 76,19 46,49 -20,21 -132,21 -181,1 -20,-8 -37,-14 -38,-13 -9,15 -25,91 -20,98 6,10 90,36 140,43 48,7 127,-3 170,-22 z m 1247,3 c 15,-8 35,-26 44,-40 l 17,-25 26,24 c 42,40 92,60 147,60 72,0 112,-25 147,-92 27,-54 27,-57 27,-243 l 0,-188 -80,0 -80,0 0,166 c 0,200 -8,224 -76,224 -18,0 -42,-9 -55,-19 -23,-19 -24,-24 -27,-195 l -3,-176 -79,0 -79,0 -3,181 c -3,165 -5,182 -22,195 -33,23 -82,18 -105,-12 -19,-25 -21,-40 -21,-195 l 0,-169 -80,0 -80,0 0,255 0,255 65,0 c 65,0 66,0 72,-31 l 6,-30 27,26 c 54,51 145,64 212,29 z m 1476,-58 c 3,-75 2,-78 -18,-73 -30,8 -84,-10 -106,-34 -16,-18 -20,-42 -24,-178 l -5,-156 -82,-3 -83,-3 0,256 0,255 70,0 70,0 0,-47 0,-48 21,32 c 22,34 58,61 98,74 51,15 56,10 59,-75 z m 1797,55 c 55,-24 91,-70 104,-131 6,-28 11,-123 11,-210 l 0,-160 -70,0 c -65,0 -70,2 -76,24 l -6,24 -35,-24 c -42,-28 -90,-38 -145,-31 -148,20 -187,218 -60,302 36,24 148,54 200,55 26,0 29,22 6,44 -20,20 -123,21 -177,2 -37,-14 -39,-13 -48,10 -24,66 -23,73 15,89 87,37 205,39 281,6 z m 563,-52 3,-76 -38,0 c -54,0 -99,-26 -112,-64 -6,-18 -11,-94 -11,-170 l 0,-139 -80,0 -80,0 0,255 0,255 70,0 70,0 0,-47 0,-48 18,30 c 24,39 43,54 89,71 63,22 68,18 71,-67 z m 675,60 c 41,-11 44,-20 26,-82 -8,-30 -14,-37 -27,-32 -9,4 -45,9 -78,12 -56,5 -63,4 -74,-17 -16,-30 6,-52 80,-79 76,-28 117,-62 131,-111 28,-93 -31,-178 -138,-200 -61,-13 -158,-8 -213,11 -30,11 -31,14 -25,46 3,19 10,46 15,59 9,22 11,23 42,10 51,-21 111,-28 142,-17 22,9 27,16 24,38 -2,23 -13,32 -64,53 -80,33 -111,55 -134,93 -52,85 5,190 120,221 54,15 99,14 173,-5 z m 1329,-10 c 72,-37 118,-126 118,-229 l 0,-60 -170,0 c -149,0 -170,-2 -170,-16 0,-29 58,-72 106,-80 45,-6 137,0 168,12 17,6 27,-20 29,-78 2,-31 0,-33 -48,-44 -63,-15 -167,-17 -224,-3 -114,26 -185,123 -184,253 1,108 41,186 120,232 70,42 189,48 255,13 z M 2660,22906 c 0,-168 9,-212 47,-227 41,-15 63,-10 94,20 l 29,29 0,166 0,166 80,0 80,0 0,-255 0,-256 -67,3 -68,3 -5,34 -5,33 -20,-22 c -63,-71 -196,-79 -264,-17 -53,49 -61,86 -61,290 l 0,187 80,0 80,0 0,-154 z m 2010,-101 0,-255 -80,0 -80,0 0,255 0,255 80,0 80,0 0,-255 z m 2382,84 3,-171 28,-24 c 38,-32 72,-31 108,5 l 29,29 0,166 0,166 80,0 80,0 0,-209 c 0,-114 3,-229 6,-255 l 7,-47 -74,3 -74,3 -5,34 -5,33 -20,-22 c -47,-53 -150,-75 -218,-46 -42,17 -83,66 -97,114 -5,20 -10,117 -10,215 l 0,177 79,0 80,0 3,-171 z m 3170,0 3,-171 28,-24 c 38,-32 72,-31 108,5 l 29,29 0,166 0,166 80,0 80,0 0,-209 c 0,-114 3,-229 6,-255 l 7,-47 -74,3 -74,3 -5,34 -5,33 -20,-22 c -47,-53 -150,-75 -218,-46 -42,17 -83,66 -97,114 -5,20 -10,117 -10,215 l 0,177 79,0 80,0 3,-171 z m 1549,8 c 4,-178 14,-210 64,-223 31,-8 82,12 95,37 6,10 10,92 10,183 l 0,166 85,0 85,0 0,-255 0,-255 -69,0 -69,0 -6,35 -7,36 -29,-28 c -88,-83 -234,-64 -290,37 -24,43 -25,54 -28,238 l -4,192 80,0 80,0 3,-163 z m 3389,-92 0,-255 -80,0 -80,0 0,255 0,255 80,0 80,0 0,-255 z m -2060,25 0,-50 -140,0 -140,0 0,50 0,50 140,0 140,0 0,-50 z m -6955,-132 c 23,-27 26,-39 22,-72 -7,-52 -44,-86 -93,-86 -81,0 -125,104 -69,164 19,21 33,26 69,26 38,0 48,-5 71,-32 z" inkscape:connector-curvature="0" id="path8" />
    <path d="m 1985,23136 c -69,-30 -109,-115 -109,-233 0,-71 4,-89 30,-139 36,-71 77,-98 145,-97 64,1 104,31 138,102 21,46 26,70 26,136 -1,44 -7,97 -14,118 -34,101 -130,151 -216,113 z" inkscape:connector-curvature="0" id="path10" />
    <path d="m 8478,23144 c -5,-4 -8,-48 -8,-97 l 0,-89 70,4 c 60,3 74,8 97,31 36,36 37,88 1,123 -20,21 -38,27 -89,31 -35,3 -67,2 -71,-3 z" inkscape:connector-curvature="0" id="path12" />
    <path d="m 13613,23143 c -22,-4 -23,-9 -23,-103 0,-90 2,-99 20,-105 34,-11 110,6 139,31 52,43 46,130 -9,159 -32,16 -94,25 -127,18 z" inkscape:connector-curvature="0" id="path14" />
    <path d="m 3322,22790 c -47,-11 -72,-37 -72,-75 0,-41 16,-55 62,-55 58,0 95,48 86,111 -3,27 -24,32 -76,19 z" inkscape:connector-curvature="0" id="path16" />
    <path d="m 4981,22957 c -24,-14 -50,-52 -51,-74 0,-10 25,-13 95,-13 87,0 95,2 95,19 0,55 -88,97 -139,68 z" inkscape:connector-curvature="0" id="path18" />
    <path d="m 7705,22956 c -27,-12 -55,-51 -55,-76 0,-6 41,-10 95,-10 90,0 95,1 95,21 0,28 -53,79 -82,79 -13,-1 -37,-7 -53,-14 z" inkscape:connector-curvature="0" id="path20" />
    <path d="m 9125,22961 c -26,-11 -51,-40 -59,-68 -7,-23 -6,-23 88,-23 93,0 96,1 96,23 -1,55 -68,91 -125,68 z" inkscape:connector-curvature="0" id="path22" />
    <path d="m 9700,22790 c -91,-22 -95,-132 -5,-132 54,0 85,36 85,98 0,49 -6,51 -80,34 z" inkscape:connector-curvature="0" id="path24" />
    <path d="m 14220,22790 c -91,-22 -95,-132 -5,-132 54,0 85,36 85,98 0,49 -6,51 -80,34 z" inkscape:connector-curvature="0" id="path26" />
    <path d="m 16744,22954 c -28,-14 -54,-49 -54,-74 0,-6 41,-10 95,-10 90,0 95,1 95,21 0,28 -53,79 -82,79 -13,0 -37,-7 -54,-16 z" inkscape:connector-curvature="0" id="path28" />
    <path d="m 3680,19735 0,-1185 -640,0 -640,0 0,-435 0,-435 -1005,0 -1005,0 0,-450 0,-450 345,0 345,0 0,-565 0,-565 1300,0 1300,0 0,-1055 0,-1055 -1300,0 -1300,0 0,-160 0,-160 -535,0 -535,0 0,-1460 0,-1460 3185,0 3185,0 0,130 0,130 490,0 490,0 0,1330 0,1330 -500,0 -500,0 0,2230 0,2230 465,0 465,0 0,1330 0,1330 155,0 155,0 0,-1330 0,-1330 290,0 290,0 0,-2230 0,-2230 -310,0 -310,0 0,-1330 0,-1330 310,0 310,0 0,-130 0,-130 1230,0 1230,0 0,130 0,130 150,0 150,0 0,1330 0,1330 -150,0 -150,0 0,1780 0,1780 180,0 180,0 0,450 0,450 30,0 30,0 0,-450 0,-450 525,0 525,0 0,-1780 0,-1780 -490,0 -490,0 0,-1330 0,-1330 485,0 485,0 0,-130 0,-130 6320,0 6320,0 0,130 0,130 890,0 890,0 0,-130 0,-130 1310,0 1310,0 0,130 0,130 580,0 580,0 0,-130 0,-130 2290,0 2290,0 0,130 0,130 70,0 70,0 0,1330 0,1330 30,0 30,0 0,135 0,135 -235,0 -235,0 0,-135 0,-135 -850,0 -850,0 0,1730 0,1730 -1735,0 -1735,0 0,100 0,100 1775,0 1775,0 0,295 0,295 -1775,0 -1775,0 0,185 0,185 1835,0 1835,0 0,295 0,295 -1835,0 -1835,0 0,450 0,450 -1840,0 -1840,0 0,75 0,75 -1840,0 -1840,0 0,-615 0,-615 -3680,0 -3680,0 0,310 0,310 -1840,0 -1840,0 0,1025 0,1025 -3680,0 -3680,0 0,-1185 z m 618,-505 c 62,-34 82,-40 133,-40 32,0 59,4 59,9 0,5 14,2 31,-6 50,-25 154,-13 228,26 l 61,31 68,-35 c 59,-30 127,-95 589,-557 347,-348 528,-537 542,-565 21,-42 21,-48 17,-635 -4,-706 -4,-509 0,-1221 4,-591 4,-598 -17,-640 -14,-27 -162,-183 -432,-454 l -412,-413 -71,0 c -106,0 -321,-41 -358,-68 -6,-5 -42,-21 -81,-37 -38,-16 -153,-71 -254,-122 -148,-75 -193,-93 -228,-93 l -43,0 0,1226 0,1226 -27,35 c -16,19 -51,59 -79,90 l -50,55 37,72 c 20,39 49,116 64,171 15,55 32,109 37,121 5,12 9,30 7,40 -1,10 2,28 7,39 12,26 12,444 0,470 -5,11 -8,30 -7,42 1,11 -3,24 -9,28 -8,5 -8,11 1,21 6,8 9,17 6,21 -4,3 -3,11 2,17 25,31 31,152 31,658 l 0,528 38,0 c 24,0 62,-14 110,-40 z m -874,-790 c 207,-53 387,-201 481,-395 57,-118 78,-207 78,-325 -1,-317 -206,-604 -503,-704 -482,-161 -979,193 -983,699 0,65 6,125 17,170 25,98 95,238 157,313 92,111 240,205 383,242 100,26 268,26 370,0 z m 18656,-620 0,-140 355,0 355,0 0,-2230 0,-2230 -250,0 -250,0 0,-334 0,-334 -127,-251 -126,-252 -141,6 c -78,3 -1788,8 -3801,11 l -3660,4 -210,105 -210,105 -73,142 -72,143 0,2264 0,2264 60,112 60,112 222,112 223,111 143,0 142,0 0,210 0,210 3680,0 3680,0 0,-140 z m 4450,-2370 0,-2230 -895,0 -895,0 0,2230 0,2230 895,0 895,0 0,-2230 z m 2585,1085 c 162,-34 320,-146 410,-289 67,-108 87,-172 92,-301 6,-136 -11,-215 -69,-329 -52,-99 -164,-216 -253,-263 -208,-109 -445,-104 -640,12 -33,20 -84,60 -113,88 -250,246 -261,632 -26,887 157,169 379,241 599,195 z m -26160,-16 c 83,-23 135,-84 137,-162 1,-57 -23,-101 -73,-134 l -39,-26 38,-17 c 102,-46 131,-174 61,-270 -62,-86 -223,-123 -369,-86 -88,23 -93,29 -75,95 7,29 16,55 19,58 2,3 29,-3 58,-13 70,-24 155,-24 190,0 33,22 42,47 33,93 -5,28 -14,38 -48,54 -25,11 -65,19 -99,19 l -58,0 0,59 0,58 59,6 c 74,6 113,25 125,59 29,81 -94,111 -225,54 -12,-5 -19,5 -32,47 -21,67 -21,64 5,78 67,36 213,50 293,28 z m 673,-19 c 107,-60 122,-197 31,-274 -31,-26 -32,-29 -13,-39 40,-22 83,-75 94,-117 39,-143 -80,-260 -265,-260 -156,0 -265,81 -265,198 0,52 35,116 80,147 l 38,27 -38,38 c -42,42 -56,87 -47,146 10,60 43,100 110,134 58,29 68,31 147,28 67,-3 94,-9 128,-28 z m 27080,-245 c 104,-57 144,-134 122,-233 -9,-40 -22,-64 -51,-93 -22,-22 -50,-44 -62,-48 -21,-8 -20,-9 13,-23 45,-19 99,-72 116,-115 20,-46 17,-140 -5,-188 -28,-63 -102,-122 -183,-146 -59,-18 -87,-21 -181,-17 -110,5 -197,25 -225,52 -11,10 -9,26 7,86 11,40 23,75 25,77 3,3 31,-5 63,-17 69,-26 182,-32 231,-11 56,24 77,88 46,141 -24,39 -74,60 -165,67 l -79,6 0,72 0,72 73,5 c 84,6 141,31 157,68 14,33 0,74 -31,91 -36,19 -147,14 -209,-10 -30,-11 -57,-17 -61,-13 -7,7 -39,121 -39,140 0,10 88,49 143,63 18,4 79,7 137,6 95,-2 110,-5 158,-32 z m 1202,-415 0,-440 -100,0 -100,0 0,340 c 0,226 -3,340 -10,340 -6,0 -42,-16 -81,-36 -40,-19 -75,-32 -79,-27 -9,10 -30,107 -30,139 0,13 6,24 13,24 6,1 57,23 112,50 95,46 104,48 188,49 l 87,1 0,-440 z m 738,-3 2,-438 -100,3 -101,3 1,338 c 0,229 -3,337 -10,337 -6,0 -42,-16 -81,-36 -40,-19 -75,-32 -80,-27 -9,9 -35,151 -28,156 2,1 54,26 114,54 107,51 112,52 195,50 l 85,-2 3,-438 z m -2427,-724 c 13,-16 12,-17 -3,-4 -17,13 -22,21 -14,21 2,0 10,-8 17,-17 z m 160,-150 c 13,-16 12,-17 -3,-4 -17,13 -22,21 -14,21 2,0 10,-8 17,-17 z m -359,-340 3,-268 28,-3 c 18,-2 42,-18 64,-43 l 35,-39 164,0 164,0 0,-36 c 0,-23 15,-67 40,-116 60,-120 63,-118 -173,-118 l -193,0 -39,-40 c -29,-30 -47,-40 -65,-38 l -25,3 -3,-267 -2,-268 -1005,0 -1005,0 0,750 0,750 1005,0 1005,0 2,-267 z M 5389,13654 c 196,-65 363,-243 417,-444 21,-79 24,-224 5,-300 -42,-179 -180,-350 -342,-429 -112,-54 -209,-75 -314,-68 -164,12 -307,76 -420,191 -251,253 -248,642 5,897 87,87 197,148 315,174 97,21 235,12 334,-21 z m 351,-1393 45,-1 77,-152 c 43,-84 84,-178 92,-208 25,-88 46,-227 46,-296 0,-34 5,-66 10,-69 6,-3 10,-31 10,-61 0,-30 -4,-54 -10,-54 -6,0 -10,-26 -10,-57 0,-136 -47,-331 -109,-458 -39,-80 -40,-80 -116,-118 -42,-21 -111,-49 -153,-63 -42,-14 -84,-28 -92,-31 -8,-4 -21,-5 -28,-4 -8,1 -19,-2 -26,-8 -47,-39 -535,-39 -582,0 -7,5 -16,9 -20,8 -5,-1 -16,0 -24,4 -8,3 -46,15 -85,27 -75,23 -248,100 -253,113 -2,4 -8,5 -13,1 -5,-3 -9,0 -9,6 0,6 -4,8 -10,5 -5,-3 -10,-2 -10,3 0,4 -34,23 -75,41 l -75,33 0,63 c 0,35 -9,101 -19,147 -26,111 -43,269 -40,387 2,97 -6,151 -22,151 -5,0 -6,7 -3,15 4,8 1,15 -6,15 -6,0 -8,5 -5,10 4,6 2,16 -3,23 -16,20 -42,130 -48,209 l -6,73 85,83 c 46,46 92,101 102,123 l 18,39 361,-2 c 199,-2 469,-1 601,2 225,5 293,5 405,1 z" inkscape:connector-curvature="0" id="path30" />
    <path d="m 4653,16306 c -126,-201 -133,-216 -133,-265 l 0,-51 155,0 155,0 0,-85 0,-85 80,0 80,0 0,85 0,85 40,0 40,0 0,60 0,60 -40,0 -40,0 0,205 0,205 -102,0 -103,0 -132,-214 z m 177,-61 0,-135 -75,0 c -41,0 -75,2 -75,5 0,3 21,40 48,83 26,42 58,101 71,130 14,28 26,52 28,52 2,0 3,-61 3,-135 z" inkscape:connector-curvature="0" id="path32" />
    <path d="m 5152,16453 3,-68 156,-5 155,-5 -138,-270 c -76,-148 -138,-274 -138,-278 0,-4 38,-6 86,-5 l 85,3 145,298 c 125,260 144,305 144,348 l 0,49 -250,0 -251,0 3,-67 z" inkscape:connector-curvature="0" id="path34" />
    <path d="m 3645,17931 c -50,-23 -70,-46 -83,-93 -22,-81 13,-130 131,-188 65,-31 72,-38 75,-67 6,-58 -66,-80 -156,-49 l -42,15 -10,-41 c -7,-22 -8,-44 -3,-49 16,-16 117,-30 168,-23 84,11 137,50 155,114 22,76 -30,151 -130,190 -88,35 -111,68 -72,103 21,19 95,23 136,7 23,-9 26,-7 36,28 14,51 14,50 -27,61 -57,16 -133,13 -178,-8 z" inkscape:connector-curvature="0" id="path36" />
    <path d="m 2638,17933 -28,-4 0,-244 0,-244 46,-7 c 61,-9 185,2 227,20 111,48 128,186 28,243 l -28,17 30,20 c 87,59 54,170 -59,196 -39,9 -164,11 -216,3 z m 202,-93 c 11,-11 20,-25 20,-31 0,-37 -51,-69 -111,-69 -29,0 -29,1 -29,60 l 0,60 50,0 c 37,0 55,-5 70,-20 z m -21,-185 c 32,-16 41,-33 41,-75 0,-40 -41,-70 -96,-70 l -44,0 0,80 0,80 35,0 c 20,0 49,-7 64,-15 z" inkscape:connector-curvature="0" id="path38" />
    <path d="m 3062,17757 c 3,-172 4,-185 28,-231 29,-57 72,-84 147,-93 60,-7 140,17 170,50 52,56 57,81 61,275 l 4,182 -56,0 -56,0 0,-165 c 0,-218 -15,-255 -103,-255 -23,0 -41,8 -58,26 -23,25 -24,31 -27,210 l -3,184 -55,0 -56,0 4,-183 z" inkscape:connector-curvature="0" id="path40" />
    <path d="m 14641,16612 c -5,-2 -7,-12 -4,-22 3,-11 1,-20 -5,-20 -7,0 -11,-424 -12,-1315 l -1,-1315 530,0 531,0 2,673 3,672 266,-4 c 147,-2 276,0 288,4 l 21,6 0,660 c -1,616 -2,659 -18,661 -31,3 -1592,3 -1601,0 z m 1599,-32 c 0,-5 -2,-10 -4,-10 -3,0 -8,5 -11,10 -3,6 -1,10 4,10 6,0 11,-4 11,-10 z" inkscape:connector-curvature="0" id="path42" />
    <path d="m 16437,16608 c -9,-6 -8,-10 2,-17 7,-5 9,-11 4,-14 -6,-4 -8,-249 -5,-649 l 4,-643 264,-3 c 232,-2 264,-1 264,13 0,16 15,20 24,6 4,-5 0,-12 -6,-14 -7,-3 -3,-6 10,-6 l 22,-1 0,-670 0,-670 520,0 520,0 0,1335 c 0,734 -3,1335 -7,1336 -48,5 -1608,2 -1616,-3 z m 613,-1308 c 0,-5 -4,-10 -10,-10 -5,0 -10,5 -10,10 0,6 5,10 10,10 6,0 10,-4 10,-10 z" inkscape:connector-curvature="0" id="path44" />
    <path d="m 18230,15278 0,-1338 515,0 515,0 0,670 c 0,631 1,670 18,671 9,0 53,0 97,0 44,0 304,0 578,-1 443,0 497,-2 497,-16 0,-8 5,-12 10,-9 7,4 10,-217 10,-654 l 0,-661 514,0 514,0 3,43 c 2,24 1,615 -2,1313 -4,889 -2,1275 5,1288 8,13 8,20 0,22 -5,3 -744,5 -1642,7 l -1632,2 0,-1337 z m 70,1308 c 0,-9 -30,-14 -35,-6 -4,6 3,10 14,10 12,0 21,-2 21,-4 z m 910,-2616 c 0,-11 -4,-20 -10,-20 -5,0 -10,9 -10,20 0,11 5,20 10,20 6,0 10,-9 10,-20 z m 1327,-12 c -3,-7 -5,-2 -5,12 0,14 2,19 5,13 2,-7 2,-19 0,-25 z" inkscape:connector-curvature="0" id="path46" />
    <path d="m 20455,14680 c 0,-278 1,-391 2,-252 2,138 2,366 0,505 -1,138 -2,25 -2,-253 z" inkscape:connector-curvature="0" id="path48" />
    <path d="m 16290,14939 c -14,-4 -38,-11 -53,-14 -18,-4 -27,-11 -24,-19 4,-9 -2,-12 -19,-8 -13,2 -24,0 -24,-6 0,-6 -8,-13 -17,-15 -17,-4 -17,-5 0,-6 9,0 17,-8 17,-17 0,-13 -7,-15 -35,-10 -28,6 -35,4 -35,-9 0,-9 -7,-18 -15,-21 -17,-7 -21,-34 -4,-34 5,0 7,-5 4,-11 -5,-6 -12,-4 -20,8 -12,16 -14,14 -21,-22 -4,-22 -11,-43 -16,-46 -5,-3 -13,-34 -18,-68 -8,-56 -6,-71 17,-135 15,-39 30,-72 35,-74 4,-2 8,-15 8,-28 0,-14 4,-23 8,-20 5,3 15,-3 24,-12 8,-9 25,-24 38,-32 12,-8 28,-20 34,-26 7,-7 36,-15 64,-19 29,-4 52,-11 52,-16 0,-13 108,-11 112,2 2,5 22,13 45,16 28,4 52,15 70,34 15,16 35,29 44,29 15,0 25,12 30,38 1,4 12,16 25,27 15,13 24,32 24,50 0,17 7,39 15,49 21,28 21,154 0,162 -9,4 -15,20 -15,43 0,35 -11,64 -24,62 -20,-3 -25,2 -28,26 -2,18 -10,29 -22,31 -10,2 -29,15 -41,28 -12,13 -27,24 -34,24 -6,0 -11,4 -11,9 0,5 -25,13 -55,16 -30,4 -55,11 -55,16 0,11 -46,10 -80,-2 z m 61,-28 c -8,-5 -20,-7 -28,-4 -21,8 -15,13 15,13 20,0 23,-3 13,-9 z m -231,-461 c 0,-5 -4,-10 -10,-10 -5,0 -10,5 -10,10 0,6 5,10 10,10 6,0 10,-4 10,-10 z m 440,-40 c 0,-11 -4,-20 -10,-20 -5,0 -10,9 -10,20 0,11 5,20 10,20 6,0 10,-9 10,-20 z m -63,-52 c -3,-8 -6,-5 -6,6 -1,11 2,17 5,13 3,-3 4,-12 1,-19 z m -317,2 c 0,-5 -4,-10 -10,-10 -5,0 -10,5 -10,10 0,6 5,10 10,10 6,0 10,-4 10,-10 z" inkscape:connector-curvature="0" id="path50" />
    <path d="m 16706,13620 c -17,-18 -17,-20 -2,-26 13,-5 16,-20 16,-75 l 0,-69 -42,-1 c -24,-1 -53,-4 -64,-7 -35,-11 -84,-53 -84,-73 0,-10 -4,-21 -10,-24 -12,-8 -13,-85 -1,-85 5,0 12,-11 15,-25 4,-15 16,-27 31,-31 14,-3 25,-10 25,-15 0,-12 67,-11 75,1 3,6 17,10 31,10 13,0 24,-4 24,-10 0,-15 42,-11 64,5 16,12 17,15 4,15 -31,0 -32,14 -25,333 2,91 1,97 -18,96 -11,0 -29,-9 -39,-19 z m -1,-214 c 21,-20 21,-161 1,-182 -23,-22 -85,-18 -107,8 -11,11 -19,27 -19,35 0,7 -4,13 -10,13 -5,0 -10,20 -10,45 0,25 5,45 10,45 6,0 10,5 10,11 0,6 10,19 23,30 25,22 78,20 102,-5 z" inkscape:connector-curvature="0" id="path52" />
    <path d="m 20653,13603 c -7,-2 -13,-13 -13,-24 0,-14 7,-19 26,-19 20,0 25,4 22,22 -3,23 -15,30 -35,21 z" inkscape:connector-curvature="0" id="path54" />
    <path d="m 15900,13568 c -19,-29 -31,-68 -21,-68 13,0 47,34 54,53 3,9 12,17 19,17 9,0 8,3 -2,10 -23,15 -34,12 -50,-12 z" inkscape:connector-curvature="0" id="path56" />
    <path d="m 20217,13570 c -9,-11 -19,-31 -23,-45 -5,-20 -3,-24 10,-19 9,3 16,10 16,15 0,5 7,9 16,9 8,0 13,4 10,9 -3,5 1,14 9,21 8,7 15,16 15,21 0,17 -35,9 -53,-11 z" inkscape:connector-curvature="0" id="path58" />
    <path d="m 19152,13453 c -22,-25 -31,-59 -12,-48 6,4 10,-29 10,-93 0,-83 3,-102 18,-115 20,-18 72,-23 72,-8 0,5 8,12 18,14 9,3 3,5 -14,6 -41,1 -54,31 -54,120 0,72 6,82 54,85 34,2 31,26 -3,26 -17,0 -39,8 -49,18 -18,18 -19,18 -40,-5 z" inkscape:connector-curvature="0" id="path60" />
    <path d="m 18220,13463 c 0,-7 -11,-15 -24,-19 -17,-4 -22,-11 -19,-25 3,-10 9,-19 14,-19 5,0 9,-45 9,-100 0,-82 3,-100 15,-100 8,0 15,-4 15,-10 0,-16 50,-12 66,5 14,13 12,15 -15,15 -26,0 -31,4 -31,25 0,14 -4,25 -10,25 -6,0 -10,30 -10,69 0,72 4,78 55,88 38,7 36,20 -6,26 -23,3 -46,11 -50,19 -6,9 -9,10 -9,1 z" inkscape:connector-curvature="0" id="path62" />
    <path d="m 20420,13461 c 0,-5 -9,-11 -20,-14 -15,-4 -18,-10 -13,-28 6,-24 10,-77 12,-171 1,-41 4,-48 21,-48 11,0 20,-4 20,-10 0,-16 50,-12 66,5 14,13 12,15 -19,15 -27,0 -36,5 -41,23 -8,31 -7,160 2,172 4,6 21,12 37,13 49,6 54,22 7,22 -29,0 -45,5 -48,15 -7,16 -24,21 -24,6 z" inkscape:connector-curvature="0" id="path64" />
    <path d="m 14623,13442 c -23,-3 -34,-42 -13,-42 6,0 10,-38 10,-94 0,-82 -2,-95 -17,-99 -10,-3 7,-5 37,-5 30,0 47,2 38,5 -15,4 -18,17 -19,76 -1,40 -1,79 0,87 3,23 40,50 68,50 45,0 58,-25 61,-121 4,-78 2,-88 -15,-92 -10,-3 5,-5 32,-5 28,0 44,2 38,5 -9,3 -13,28 -13,76 0,85 7,117 26,117 8,0 14,5 14,10 0,14 43,12 64,-3 15,-11 17,-26 14,-110 l -3,-97 30,0 30,0 -3,107 c -3,81 -7,112 -19,125 -20,22 -77,23 -117,3 -35,-19 -44,-19 -62,0 -21,21 -90,20 -102,-2 -9,-15 -12,-15 -33,-2 -13,8 -34,13 -46,11 z" inkscape:connector-curvature="0" id="path66" />
    <path d="m 15158,13443 c -18,-5 -26,-43 -9,-43 5,0 11,-43 13,-95 2,-80 6,-96 23,-109 26,-20 65,-20 101,-1 26,13 30,13 41,-1 11,-15 15,-15 50,-1 21,9 30,16 21,16 -16,1 -18,13 -18,115 0,121 -4,131 -49,119 -22,-6 -28,-27 -11,-38 6,-3 10,-44 10,-91 0,-68 -3,-84 -15,-84 -8,0 -15,-4 -15,-10 0,-5 -18,-10 -40,-10 -33,0 -40,3 -40,20 0,11 -4,20 -10,20 -5,0 -11,43 -12,97 -3,96 -7,105 -40,96 z" inkscape:connector-curvature="0" id="path68" />
    <path d="m 15531,13421 c -18,-17 -31,-39 -31,-53 0,-18 2,-20 10,-8 8,13 10,12 10,-2 0,-10 4,-18 9,-18 5,0 12,-9 16,-19 3,-10 18,-24 33,-30 15,-6 33,-21 40,-31 10,-17 9,-24 -7,-41 -26,-28 -91,-20 -91,11 0,11 -4,20 -10,20 -22,0 -10,-47 15,-58 31,-14 85,-16 85,-3 0,5 11,12 25,15 37,10 35,65 -5,106 -16,16 -34,30 -39,30 -18,0 -41,31 -41,55 0,47 54,50 87,6 10,-14 12,-14 18,1 10,25 -18,48 -58,48 -25,0 -44,-9 -66,-29 z" inkscape:connector-curvature="0" id="path70" />
    <path d="m 15838,13443 c -10,-2 -18,-9 -18,-14 0,-5 -5,-9 -11,-9 -16,0 -38,-31 -39,-52 0,-10 -4,-18 -10,-18 -5,0 -10,-20 -10,-45 0,-25 5,-45 10,-45 6,0 10,-7 10,-15 0,-8 5,-15 10,-15 6,0 10,-7 10,-15 0,-8 7,-15 15,-15 8,0 24,-5 34,-12 26,-16 101,8 100,31 0,10 -2,12 -6,4 -2,-7 -22,-13 -43,-13 -30,0 -40,5 -45,19 -3,11 -14,23 -24,26 -19,6 -37,66 -26,85 3,6 42,10 86,10 l 79,0 0,33 c 0,50 -56,77 -122,60 z m 73,-31 c 23,-27 1,-42 -61,-42 -57,0 -66,15 -22,42 36,22 64,22 83,0 z" inkscape:connector-curvature="0" id="path72" />
    <path d="m 16102,13422 c -18,-16 -32,-39 -32,-50 0,-12 -4,-22 -10,-22 -5,0 -10,-20 -10,-45 0,-25 5,-45 10,-45 6,0 10,-7 10,-15 0,-8 5,-15 10,-15 6,0 10,-7 10,-15 0,-8 9,-15 20,-15 11,0 20,-4 20,-10 0,-5 13,-10 28,-10 36,0 109,35 93,44 -6,4 -11,2 -11,-3 0,-6 -18,-11 -40,-11 -54,0 -100,44 -103,98 l -2,37 83,3 82,3 0,32 c 0,66 -100,90 -158,39 z m 109,-11 c 22,-23 1,-41 -46,-41 -48,0 -67,18 -44,41 31,31 59,31 90,0 z" inkscape:connector-curvature="0" id="path74" />
    <path d="m 16960,13443 c -21,-8 -60,-55 -54,-65 3,-4 0,-8 -5,-8 -17,0 -13,-107 4,-140 9,-18 24,-30 35,-30 10,0 22,-4 25,-10 3,-5 24,-10 46,-10 21,0 39,5 39,10 0,6 7,10 15,10 8,0 15,8 14,18 0,10 -3,12 -6,5 -5,-14 -93,-18 -93,-5 0,5 -14,24 -30,42 -21,23 -30,43 -28,60 3,24 6,25 85,28 74,3 83,5 89,24 4,13 2,24 -5,26 -6,2 -11,10 -11,17 0,28 -74,45 -120,28 z m 74,-19 c 9,-3 16,-17 16,-30 0,-22 -4,-24 -55,-24 -59,0 -68,10 -38,42 16,18 48,23 77,12 z" inkscape:connector-curvature="0" id="path76" />
    <path d="m 17240,13443 c -42,-17 -67,-87 -35,-99 8,-4 15,-12 15,-20 0,-8 4,-14 8,-14 5,0 23,-13 40,-28 39,-35 42,-69 8,-78 -35,-8 -66,4 -66,27 0,12 -7,19 -20,19 -31,0 -24,-33 11,-52 33,-19 79,-24 79,-9 0,5 10,11 23,13 18,2 23,10 25,45 2,33 -2,46 -22,66 -14,14 -34,28 -45,32 -25,8 -35,38 -21,65 13,24 45,26 68,4 17,-18 28,-5 18,21 -5,15 -56,19 -86,8 z" inkscape:connector-curvature="0" id="path78" />
    <path d="m 17665,13440 c -21,-9 -21,-9 12,-16 27,-5 63,-38 63,-59 0,-19 -31,-55 -47,-55 -7,0 -13,-4 -13,-10 0,-5 9,-10 19,-10 21,0 29,-21 23,-57 -3,-18 -11,-23 -34,-23 -27,0 -58,19 -58,36 0,3 10,15 22,25 l 21,19 -22,0 c -12,0 -24,-7 -27,-15 -4,-8 -10,-12 -15,-9 -17,10 -9,-59 9,-72 20,-16 62,-18 62,-4 0,6 18,10 40,10 22,0 40,-4 40,-10 0,-16 47,-12 54,5 4,11 -1,15 -19,15 -25,0 -25,0 -25,104 0,82 -3,108 -16,120 -17,17 -57,20 -89,6 z" inkscape:connector-curvature="0" id="path80" />
    <path d="m 17941,13441 c -10,-6 -14,-39 -15,-125 l -1,-116 45,1 c 25,1 37,3 27,6 -16,4 -17,15 -15,96 l 3,92 43,3 c 37,3 42,6 42,28 0,19 -5,24 -25,24 -13,0 -29,-8 -35,-17 -10,-17 -10,-17 -20,0 -12,19 -28,21 -49,8 z" inkscape:connector-curvature="0" id="path82" />
    <path d="m 18460,13443 c -49,-20 -55,-80 -11,-124 16,-16 33,-29 38,-29 11,0 43,-37 43,-50 0,-6 -4,-10 -10,-10 -5,0 -10,-7 -10,-15 0,-10 -10,-15 -27,-15 -33,0 -46,8 -61,35 -11,19 -11,19 -12,-4 0,-13 8,-30 18,-37 19,-15 82,-19 82,-5 0,5 10,11 23,13 18,2 23,10 25,41 3,32 -2,43 -27,68 -17,16 -35,29 -41,29 -19,0 -32,44 -21,73 13,32 20,33 49,7 28,-26 44,-25 40,3 -2,18 -10,22 -43,24 -22,1 -47,-1 -55,-4 z" inkscape:connector-curvature="0" id="path84" />
    <path d="m 18903,13443 c -23,-5 -49,-30 -40,-39 3,-3 16,1 29,10 30,21 60,20 79,-2 13,-15 13,-20 3,-30 -18,-17 -82,-15 -100,3 -18,18 -44,9 -44,-16 0,-10 -4,-19 -10,-19 -5,0 -10,-21 -10,-46 0,-27 4,-43 10,-39 6,3 10,-1 10,-9 0,-20 30,-56 47,-56 7,0 13,-4 13,-10 0,-5 18,-10 40,-10 22,0 40,4 40,9 0,5 10,11 22,13 12,2 23,9 24,16 1,7 0,8 -3,2 -2,-5 -22,-10 -43,-10 -57,0 -110,50 -110,102 l 0,38 79,0 c 70,0 80,2 86,20 6,20 -9,59 -29,72 -11,8 -55,8 -93,1 z" inkscape:connector-curvature="0" id="path86" />
    <path d="m 19553,13443 c -15,-6 -17,-43 -3,-43 15,0 13,-187 -2,-193 -7,-3 7,-5 32,-5 25,0 39,2 33,5 -9,3 -13,33 -13,97 0,90 1,93 25,104 37,17 62,15 85,-8 17,-17 20,-33 20,-104 0,-58 -4,-86 -12,-89 -7,-3 6,-6 30,-6 41,-1 42,0 27,16 -26,26 -15,161 15,185 26,21 40,22 74,7 30,-14 36,-34 36,-126 0,-60 -3,-72 -17,-76 -10,-3 4,-5 30,-6 44,-1 47,0 37,18 -5,11 -10,54 -10,96 0,73 -10,111 -34,127 -21,14 -86,9 -92,-7 -4,-8 -17,-15 -31,-15 -13,0 -31,7 -39,15 -9,8 -33,15 -55,15 -26,0 -42,-5 -45,-15 -4,-8 -15,-15 -25,-15 -10,0 -19,7 -19,15 0,15 -22,19 -47,8 z" inkscape:connector-curvature="0" id="path88" />
    <path d="m 20144,13435 c -4,-8 -14,-15 -24,-15 -17,0 -29,-17 -36,-49 -1,-7 -7,-18 -13,-24 -15,-15 -14,-54 3,-85 8,-15 17,-35 20,-44 3,-10 14,-18 25,-18 11,0 23,-4 26,-10 3,-5 22,-10 41,-10 19,0 34,5 34,10 0,6 9,10 19,10 22,0 37,17 26,28 -4,4 -10,1 -12,-5 -3,-7 -20,-13 -39,-13 -40,0 -82,36 -104,89 -18,44 -6,51 93,51 74,0 77,1 77,23 0,33 -40,77 -70,77 l -25,0 29,-27 c 17,-16 24,-29 18,-31 -7,-2 -10,-8 -6,-13 3,-5 -19,-9 -50,-9 -63,0 -70,10 -31,46 27,25 31,34 15,34 -6,0 -13,-7 -16,-15 z" inkscape:connector-curvature="0" id="path90" />
    <path d="m 20651,13441 c -10,-6 -14,-39 -15,-125 l -1,-116 40,1 c 22,0 34,3 28,6 -10,3 -13,38 -13,124 0,121 -4,132 -39,110 z" inkscape:connector-curvature="0" id="path92" />
    <path d="m 20910,13443 c -29,-6 -57,-35 -76,-80 -15,-35 -19,-103 -6,-103 4,0 13,-13 19,-30 6,-16 18,-30 27,-30 9,0 16,-4 16,-10 0,-15 53,-12 94,5 33,14 49,35 26,35 -5,0 -10,-4 -10,-10 0,-5 -16,-10 -35,-10 -19,0 -35,5 -35,10 0,6 -9,10 -20,10 -13,0 -22,9 -26,25 -3,14 -10,25 -14,25 -13,0 -18,48 -7,59 6,6 46,11 88,11 68,0 78,2 84,20 4,13 -3,29 -21,50 -27,30 -45,34 -104,23 z m 61,-24 c 28,-32 14,-49 -42,-49 -42,0 -49,3 -49,20 0,11 12,26 28,34 36,20 42,20 63,-5 z" inkscape:connector-curvature="0" id="path94" />
    <path d="m 21153,13435 c -3,-9 -6,-65 -7,-125 l -1,-110 33,0 c 29,0 32,2 22,19 -13,26 -13,133 1,163 9,20 16,23 50,20 36,-4 39,-2 39,22 0,21 -5,26 -25,26 -13,0 -28,-8 -33,-17 -9,-16 -11,-16 -27,0 -21,21 -44,22 -52,2 z" inkscape:connector-curvature="0" id="path96" />
    <path d="m 21412,13434 c -31,-22 -30,-82 3,-118 13,-14 31,-26 39,-26 36,0 48,-82 13,-88 -34,-7 -67,7 -67,28 0,11 -7,20 -15,20 -9,0 -15,-9 -15,-25 0,-16 6,-25 15,-25 8,0 15,-4 15,-10 0,-5 18,-10 40,-10 22,0 40,4 40,9 0,5 11,12 25,15 21,5 25,12 25,46 0,22 -4,40 -10,40 -5,0 -10,6 -10,14 0,8 -18,22 -40,32 -43,19 -53,34 -44,69 8,31 41,39 57,14 15,-25 47,-25 47,0 0,33 -77,44 -118,15 z" inkscape:connector-curvature="0" id="path98" />
    <path d="m 17618,13406 c -20,-15 -24,-36 -7,-36 6,0 17,6 25,14 29,29 14,47 -18,22 z" inkscape:connector-curvature="0" id="path100" />
    <path d="m 28610,16228 c 0,-13 -9,-162 -20,-333 -11,-170 -20,-334 -20,-362 l 0,-53 74,0 74,0 6,38 c 3,20 8,128 12,239 4,111 10,228 13,260 l 7,58 13,-60 c 7,-33 40,-163 75,-290 l 62,-230 68,0 68,0 64,205 c 35,113 74,242 86,288 13,45 26,82 30,82 5,0 8,-58 8,-128 0,-71 3,-204 7,-295 l 6,-167 84,0 c 60,0 83,3 83,13 0,6 -9,176 -20,377 -11,201 -20,368 -20,373 0,4 -51,7 -113,7 l -113,0 -52,-162 c -29,-90 -62,-207 -75,-260 -22,-98 -33,-117 -41,-75 -17,78 -81,327 -104,402 l -28,90 -117,3 c -116,3 -117,2 -117,-20 z" inkscape:connector-curvature="0" id="path102" />
    <path d="m 3443,16410 c -49,-20 -57,-83 -15,-122 49,-48 92,-44 121,11 15,27 7,83 -13,100 -19,16 -68,22 -93,11 z" inkscape:connector-curvature="0" id="path104" />
    <path d="m 3433,16108 c -29,-14 -56,-73 -48,-105 10,-43 49,-73 94,-73 103,0 129,115 38,170 -36,22 -52,24 -84,8 z" inkscape:connector-curvature="0" id="path106" />
    <path d="m 29267,14399 c -43,-23 -76,-82 -77,-136 0,-28 -4,-33 -25,-33 -23,0 -25,-4 -25,-44 0,-39 3,-45 23,-48 22,-3 22,-6 25,-150 l 3,-148 59,0 59,0 3,148 3,147 38,3 c 37,3 37,4 37,48 l 0,44 -40,0 c -35,0 -40,3 -40,23 0,39 27,67 66,67 34,0 34,1 34,44 0,31 -5,46 -16,50 -31,12 -90,5 -127,-15 z" inkscape:connector-curvature="0" id="path108" />
    <path d="m 28475,14391 c -59,-17 -86,-31 -130,-72 -103,-95 -116,-291 -25,-401 54,-66 165,-98 282,-84 77,10 81,14 68,68 l -12,45 -45,-9 c -94,-21 -179,15 -209,89 -18,42 -18,134 0,177 29,69 112,105 201,88 27,-6 53,-7 57,-4 4,4 10,25 14,48 5,34 3,42 -12,48 -29,12 -156,16 -189,7 z" inkscape:connector-curvature="0" id="path110" />
    <path d="m 29586,14343 -35,-58 42,-3 c 38,-3 45,0 80,40 66,75 66,78 3,78 l -54,0 -36,-57 z" inkscape:connector-curvature="0" id="path112" />
    <path d="m 28807,14226 c -60,-17 -62,-19 -50,-58 7,-25 14,-32 29,-29 10,2 46,6 78,8 50,4 62,2 73,-13 20,-27 16,-34 -20,-34 -62,0 -133,-28 -166,-65 -54,-61 -37,-156 33,-189 45,-21 83,-20 131,4 34,17 40,18 48,5 5,-10 24,-15 60,-15 l 52,0 -5,147 c -6,164 -15,192 -67,224 -42,26 -132,33 -196,15 z m 143,-238 c 0,-39 -25,-68 -60,-68 -32,0 -50,17 -50,46 0,29 36,54 77,54 30,0 33,-3 33,-32 z" inkscape:connector-curvature="0" id="path114" />
    <path d="m 29548,14231 c -101,-33 -156,-124 -142,-231 17,-122 102,-179 250,-166 101,8 107,11 99,55 -4,20 -8,39 -10,42 -2,3 -26,1 -52,-4 -27,-6 -66,-7 -87,-3 -37,7 -86,44 -86,66 0,6 46,10 130,10 l 130,0 0,52 c 0,66 -31,131 -75,158 -38,23 -116,34 -157,21 z m 106,-103 c 27,-39 20,-43 -59,-40 -41,2 -75,6 -75,10 0,3 10,16 22,29 29,32 91,32 112,1 z" inkscape:connector-curvature="0" id="path116" />
    <path d="m 4810,13376 c 0,-35 -40,-676 -44,-713 l -6,-43 79,0 79,0 6,48 c 3,26 8,124 11,217 3,94 8,206 11,250 l 6,79 44,-169 c 23,-94 58,-224 76,-290 l 33,-120 67,-3 67,-3 36,118 c 21,65 59,188 85,273 26,85 50,164 52,175 6,27 16,-139 24,-377 l 7,-198 83,0 c 61,0 84,3 84,13 0,6 -9,174 -20,372 -11,198 -20,366 -20,373 0,9 -29,12 -113,12 l -113,0 -52,-162 c -28,-90 -61,-203 -73,-253 -24,-99 -35,-120 -43,-84 -29,127 -72,294 -100,384 l -34,110 -116,3 c -95,2 -116,0 -116,-12 z" inkscape:connector-curvature="0" id="path118" />
    <path d="m 5243,11843 c 37,-2 96,-2 130,0 34,2 4,3 -68,3 -71,0 -99,-1 -62,-3 z" inkscape:connector-curvature="0" id="path120" />
    <path d="m 5216,11613 c -6,-14 -5,-15 5,-6 7,7 10,15 7,18 -3,3 -9,-2 -12,-12 z" inkscape:connector-curvature="0" id="path122" />
    <path d="m 5103,11343 c 26,-2 67,-2 90,0 23,2 2,3 -48,3 -49,0 -68,-1 -42,-3 z" inkscape:connector-curvature="0" id="path124" />
    <path d="m 5463,11343 c 15,-2 37,-2 50,0 12,2 0,4 -28,4 -27,0 -38,-2 -22,-4 z" inkscape:connector-curvature="0" id="path126" />
    <path d="m 5543,11260 c 0,-41 2,-58 4,-37 2,20 2,54 0,75 -2,20 -4,3 -4,-38 z" inkscape:connector-curvature="0" id="path128" />
    <path d="m 4843,11250 c 0,-41 2,-58 4,-37 2,20 2,54 0,75 -2,20 -4,3 -4,-38 z" inkscape:connector-curvature="0" id="path130" />
    <path d="m 10,8485 0,-295 3180,0 3180,0 0,210 0,210 -1345,0 -1345,0 0,85 0,85 -1835,0 -1835,0 0,-295 z" inkscape:connector-curvature="0" id="path132" />
    <path d="m 30300,8185 0,-295 2290,0 2290,0 0,210 0,210 -880,0 -880,0 0,85 0,85 -1410,0 -1410,0 0,-295 z" inkscape:connector-curvature="0" id="path134" />
    <path d="m 22080,7720 0,-600 1165,0 1165,0 0,600 0,600 -1165,0 -1165,0 0,-600 z" inkscape:connector-curvature="0" id="path136" />
    <path d="m 22080,6843 0,-136 -4990,6 -4990,5 0,-309 0,-309 -485,0 -485,0 0,-1330 0,-1330 490,0 490,0 0,-450 0,-450 690,0 c 607,0 690,-2 690,-15 0,-13 100,-15 840,-15 740,0 840,2 840,15 0,13 56,15 443,15 l 442,1 -50,45 c -27,25 -84,61 -125,80 -100,47 -110,57 -110,113 0,43 -4,51 -52,98 -35,34 -79,64 -131,87 -43,20 -91,46 -107,59 -15,13 -115,67 -222,119 -179,88 -196,95 -241,90 -27,-2 -67,-15 -90,-28 l -41,-23 -82,45 c -110,60 -138,59 -258,-5 -80,-44 -94,-48 -114,-37 l -23,12 1,711 0,712 -37,30 c -21,17 -62,58 -91,91 l -54,60 37,85 c 20,47 46,125 57,173 11,48 25,97 30,109 6,12 8,28 5,36 -3,8 0,20 6,26 16,16 17,453 1,458 -6,2 -9,16 -6,32 2,16 -1,32 -7,35 -14,9 -14,63 0,72 6,3 9,15 6,25 -3,10 0,20 5,21 6,2 11,46 12,103 l 1,100 39,18 c 35,16 102,17 923,17 l 885,0 312,-155 312,-155 138,-140 137,-139 -1,-68 c -1,-37 0,-75 3,-83 3,-8 10,-48 17,-89 19,-113 51,-199 152,-397 87,-173 91,-183 79,-212 -7,-17 -21,-38 -32,-48 -10,-9 -19,-29 -19,-43 0,-14 -16,-55 -35,-91 l -35,-64 0,-187 c 0,-103 3,-189 8,-191 4,-1 36,-64 72,-138 35,-74 69,-138 75,-142 6,-5 6,-8 0,-8 -7,0 -7,-3 0,-8 6,-4 18,-24 27,-44 l 17,-38 -61,-117 c -34,-65 -79,-142 -101,-172 -21,-29 -53,-83 -71,-120 l -31,-66 -3,-327 -3,-328 610,0 611,0 0,60 0,60 1840,0 1840,0 0,-60 c 0,-33 4,-60 10,-60 7,0 10,-275 10,-805 l 0,-805 1550,0 1550,0 0,805 0,805 925,0 925,0 0,-725 0,-725 1195,0 1195,0 0,-80 0,-80 1440,0 1440,0 0,805 0,805 -545,0 -545,0 0,1780 0,1780 945,0 945,0 0,160 0,160 880,0 880,0 0,145 0,145 -1965,0 -1965,0 0,-2085 0,-2085 -1085,0 -1085,0 0,1675 0,1675 -1510,0 -1510,0 0,105 0,105 -675,0 -675,0 0,440 0,440 -1165,0 -1165,0 0,-137 z m -8442,-658 c 149,-31 260,-92 373,-205 86,-86 145,-182 186,-305 23,-70 27,-97 27,-210 1,-110 -3,-142 -22,-205 -43,-136 -97,-226 -197,-326 -76,-76 -105,-97 -185,-137 -129,-63 -201,-80 -335,-80 -136,0 -209,17 -333,79 -175,88 -308,242 -373,432 -30,89 -33,108 -33,222 -1,149 14,214 78,345 96,195 285,343 498,389 85,19 231,19 316,1 z m 5264,4 c 29,-6 95,-31 145,-55 208,-100 339,-299 350,-534 10,-194 -47,-342 -186,-481 -86,-85 -139,-120 -244,-157 -62,-22 -90,-25 -197,-26 -103,-1 -137,3 -195,21 -237,75 -414,287 -444,532 -30,234 77,469 272,603 66,45 107,64 192,89 70,20 226,25 307,8 z m 1517,-255 c 85,-25 151,-95 166,-175 14,-75 -41,-175 -116,-211 l -31,-15 33,-12 c 95,-33 144,-111 137,-221 -6,-114 -71,-186 -208,-230 -61,-20 -85,-22 -178,-18 -109,6 -218,36 -229,64 -5,13 34,154 43,154 2,0 33,-9 67,-21 80,-27 192,-29 235,-3 51,30 65,81 36,135 -20,40 -70,60 -167,67 l -78,5 3,76 3,76 82,6 c 88,7 126,23 145,63 16,37 -9,78 -57,95 -46,15 -154,3 -207,-25 -17,-9 -34,-12 -38,-7 -8,8 -40,121 -40,142 0,6 13,17 30,26 83,43 272,58 369,29 z m 1219,-431 -3,-438 -100,0 -100,0 -3,338 -2,338 -23,-7 c -12,-3 -48,-19 -79,-35 -31,-16 -59,-25 -62,-21 -4,7 -31,130 -31,145 0,5 50,33 110,62 108,52 112,53 203,54 l 92,1 -2,-437 z m 750,0 -3,-438 -100,0 -100,0 -3,338 -2,338 -23,-7 c -12,-3 -48,-19 -79,-35 -31,-16 -59,-25 -62,-21 -4,7 -31,130 -31,145 0,5 50,33 110,62 108,52 112,53 203,54 l 92,1 -2,-437 z M 13295,4284 c 22,-11 53,-37 69,-58 56,-68 35,-180 -41,-227 l -33,-21 47,-31 c 25,-18 55,-48 65,-67 21,-41 23,-108 5,-153 -21,-48 -88,-104 -148,-121 -67,-20 -191,-20 -255,-1 -80,24 -81,25 -63,92 10,39 20,57 30,56 8,-2 42,-10 76,-19 102,-27 183,-3 198,59 16,64 -53,116 -152,117 l -53,0 0,60 0,60 43,0 c 100,0 162,43 138,96 -6,14 -28,32 -48,40 -33,14 -42,14 -97,0 -34,-9 -70,-19 -82,-22 -17,-5 -22,1 -32,46 -16,67 -16,67 11,82 76,41 253,48 322,12 z m 638,-8 c 104,-60 117,-211 26,-278 l -28,-21 39,-28 c 75,-55 100,-150 61,-235 -36,-80 -127,-124 -256,-124 -157,0 -254,73 -257,193 -1,61 27,115 77,146 l 42,27 -37,35 c -72,69 -72,177 0,249 53,53 107,70 206,67 67,-3 89,-8 127,-31 z" inkscape:connector-curvature="0" id="path138" />
    <path d="m 13934,5681 c -82,-21 -124,-71 -124,-146 0,-65 28,-100 109,-138 84,-38 101,-53 101,-89 0,-54 -86,-69 -182,-33 -13,5 -19,-2 -27,-32 -15,-52 -16,-51 27,-62 66,-19 163,-14 212,12 61,31 84,65 84,127 0,70 -23,97 -123,145 -46,23 -87,49 -93,58 -27,50 40,87 119,67 53,-13 61,-8 69,42 5,31 3,36 -17,41 -48,12 -125,16 -155,8 z" inkscape:connector-curvature="0" id="path140" />
    <path d="m 12910,5671 -55,-6 0,-245 0,-245 120,0 c 132,0 180,14 218,66 45,62 25,154 -42,190 l -32,17 30,18 c 42,25 64,74 50,111 -14,38 -38,63 -74,78 -38,17 -144,24 -215,16 z m 172,-98 c 24,-21 23,-42 -4,-70 -17,-18 -32,-23 -70,-23 l -48,0 0,53 c 0,30 3,57 8,61 12,12 94,-3 114,-21 z m -8,-194 c 33,-26 36,-79 5,-108 -22,-21 -91,-37 -109,-26 -5,3 -10,40 -10,81 l 0,74 44,0 c 29,0 52,-7 70,-21 z" inkscape:connector-curvature="0" id="path142" />
    <path d="m 13304,5665 c -3,-8 -4,-92 -2,-187 3,-144 7,-179 22,-208 40,-76 83,-100 181,-100 86,0 141,30 175,95 24,47 25,60 28,233 l 4,183 -54,-3 -53,-3 -5,-180 c -3,-99 -9,-188 -14,-198 -9,-20 -56,-47 -81,-47 -32,0 -73,30 -84,61 -6,19 -11,103 -11,200 l 0,169 -50,0 c -36,0 -52,-4 -56,-15 z" inkscape:connector-curvature="0" id="path144" />
    <path d="m 18380,5868 c 0,-24 -3,-65 -5,-93 -8,-81 -35,-532 -35,-586 l 0,-49 74,0 75,0 5,43 c 4,36 26,468 27,537 0,14 22,-58 48,-160 26,-102 61,-233 76,-292 l 29,-108 71,0 71,0 13,49 c 7,26 41,140 77,252 35,112 67,221 71,242 13,85 20,21 27,-254 3,-161 9,-296 12,-300 3,-5 41,-9 86,-9 l 80,0 -6,108 c -8,143 -36,645 -36,655 0,4 -51,7 -113,7 l -113,0 -52,-162 c -29,-90 -62,-207 -75,-260 -12,-54 -25,-98 -28,-98 -4,0 -16,42 -28,93 -11,50 -42,167 -68,260 l -47,167 -118,0 -118,0 0,-42 z" inkscape:connector-curvature="0" id="path146" />
    <path d="m 13721,4164 c -29,-37 -26,-61 13,-100 41,-41 74,-43 106,-9 29,31 31,87 4,116 -27,30 -97,26 -123,-7 z" inkscape:connector-curvature="0" id="path148" />
    <path d="m 13738,3884 c -35,-18 -48,-43 -48,-89 0,-53 36,-85 95,-85 115,0 128,130 18,176 -38,16 -32,17 -65,-2 z" inkscape:connector-curvature="0" id="path150" />
    <path d="m 8180,4780 0,-1960 1195,0 1195,0 0,310 0,310 185,0 185,0 0,1330 0,1330 -185,0 -185,0 0,320 0,320 -1195,0 -1195,0 0,-1960 z m 1397,1051 c 79,-29 144,-86 180,-159 25,-51 28,-68 28,-157 0,-91 -3,-106 -31,-166 -63,-133 -193,-200 -397,-203 l -92,-1 -5,-190 -5,-190 -122,-3 -123,-3 0,541 0,540 23,5 c 56,12 84,13 277,11 184,-2 211,-5 267,-25 z" inkscape:connector-curvature="0" id="path152" />
    <path d="m 9272,5662 c -9,-7 -12,-46 -10,-163 l 3,-154 53,-3 c 114,-7 204,52 217,142 17,114 -60,186 -200,186 -27,0 -56,-4 -63,-8 z" inkscape:connector-curvature="0" id="path154" />
    <path d="m 0,6565 0,-145 1840,0 1840,0 0,-160 0,-160 1200,0 1200,0 0,-1670 0,-1670 140,0 140,0 0,1518 c 0,834 3,1723 7,1975 l 6,457 -3186,0 -3187,0 0,-145 z" inkscape:connector-curvature="0" id="path156" />
    <path d="m 14894,5502 c -58,-20 -104,-48 -104,-61 0,-9 38,-103 44,-109 2,-1 27,9 57,23 127,59 229,4 199,-107 -13,-47 -99,-147 -213,-248 l -96,-85 -1,-52 0,-53 250,0 250,0 0,70 0,70 -124,0 -125,0 88,88 c 110,108 142,162 148,245 4,54 1,69 -24,117 -43,82 -98,113 -211,117 -66,3 -100,-1 -138,-15 z" inkscape:connector-curvature="0" id="path158" />
    <path d="m 15535,5501 c -52,-23 -115,-95 -139,-157 -12,-32 -20,-86 -23,-154 -9,-172 34,-290 126,-355 38,-27 52,-30 124,-33 74,-2 87,0 132,25 59,33 108,100 131,181 12,42 15,84 12,176 -5,130 -20,182 -75,254 -56,74 -197,105 -288,63 z m 134,-121 c 66,-35 82,-340 22,-420 -14,-19 -27,-25 -57,-25 -37,0 -40,3 -64,50 -19,39 -25,69 -28,140 -8,187 47,298 127,255 z" inkscape:connector-curvature="0" id="path160" />
    <path d="m 15012,4273 c -10,-15 -72,-113 -136,-216 -114,-184 -117,-189 -114,-240 l 3,-52 153,-3 152,-3 0,-79 0,-80 80,0 80,0 0,79 0,80 38,3 37,3 3,63 3,62 -40,0 -41,0 -2,203 -3,202 -97,3 c -95,3 -96,2 -116,-25 z m 60,-248 -3,-135 -75,0 c -40,0 -74,2 -74,4 0,3 25,44 54,92 30,47 63,106 73,130 10,24 20,44 23,44 3,0 4,-61 2,-135 z" inkscape:connector-curvature="0" id="path162" />
    <path d="m 15390,4230 0,-70 159,-2 159,-3 -143,-278 -143,-278 90,3 91,3 144,300 c 129,268 144,305 141,345 l -3,45 -247,3 -248,2 0,-70 z" inkscape:connector-curvature="0" id="path164" />
    <path d="m 19740,1385 0,-295 1105,0 1105,0 0,295 0,295 -1105,0 -1105,0 0,-295 z" inkscape:connector-curvature="0" id="path166" />
  </g>
</svg>
