<?xml version="1.0" encoding="UTF-8" standalone="no"?>
<!-- Created with Inkscape (http://www.inkscape.org/) -->

<svg xmlns:dc="http://purl.org/dc/elements/1.1/" xmlns:cc="http://creativecommons.org/ns#" xmlns:rdf="http://www.w3.org/1999/02/22-rdf-syntax-ns#" xmlns:svg="http://www.w3.org/2000/svg" xmlns="http://www.w3.org/2000/svg" xmlns:inkscape="http://www.inkscape.org/namespaces/inkscape" version="1.0" width="3508pt" height="2480pt" viewBox="0 0 3508 2480" id="svg2">
  <defs id="defs176" />
  <metadata id="metadata4">
Created by potrace 1.11, written by Peter Selinger 2001-2013
<rdf:RDF>
  <cc:Work rdf:about="">
    <dc:format>image/svg+xml</dc:format>
    <dc:type rdf:resource="http://purl.org/dc/dcmitype/StillImage" />
  </cc:Work>
</rdf:RDF>
</metadata>
  <g transform="matrix(0.1,0,0,-0.1,0,2480)" id="g6" style="fill:#000000;stroke:none">
    <path d="m 1563,23572 c -18,-2 -33,-5 -33,-7 0,-2 -7,-39 -15,-82 -19,-99 -20,-95 12,-91 26,3 28,7 42,86 l 14,82 42,0 c 56,0 74,-20 51,-55 -13,-20 -25,-25 -58,-25 l -41,0 39,-44 c 31,-35 46,-44 73,-45 l 35,-1 -32,33 c -18,18 -32,36 -32,39 0,3 12,9 28,13 52,13 81,61 50,82 -16,9 -130,19 -175,15 z" inkscape:connector-curvature="0" id="path8" />
    <path d="m 2832,22693 3,-888 3425,0 3425,0 3,888 2,887 -3430,0 -3430,0 2,-887 z m 1818,252 -61,-75 -51,0 -50,0 38,68 c 20,37 39,70 41,75 2,4 36,7 74,7 l 70,0 -61,-75 z m -872,-137 c 29,-101 55,-202 58,-226 4,-23 10,-44 14,-47 3,-2 15,31 25,73 10,42 39,145 65,227 l 48,150 101,3 101,3 0,-38 c 0,-21 7,-150 15,-288 8,-137 15,-271 15,-297 l 0,-48 -69,0 -69,0 -6,63 c -3,34 -9,151 -13,260 l -8,199 -38,-129 c -21,-70 -56,-185 -78,-255 l -40,-128 -59,0 -59,0 -11,43 c -7,23 -27,96 -45,162 -19,66 -43,160 -54,208 -10,49 -21,90 -24,93 -2,2 -7,-80 -11,-183 -3,-104 -9,-221 -13,-260 l -6,-73 -69,0 -70,0 6,48 c 3,26 13,176 23,335 l 17,287 101,0 102,0 51,-182 z m 3003,153 c 75,-29 140,-87 170,-153 19,-44 23,-70 23,-148 0,-81 -4,-103 -25,-150 -37,-78 -71,-115 -142,-149 -92,-45 -240,-63 -371,-45 l -46,7 0,328 0,328 53,4 c 120,10 280,-1 338,-22 z m -1751,-96 0,-65 55,0 55,0 0,-55 0,-55 -55,0 -55,0 0,-110 c 0,-98 2,-112 21,-131 15,-15 30,-20 50,-17 l 29,5 0,-58 0,-58 -36,-7 c -47,-9 -118,2 -150,22 -48,32 -58,67 -62,217 l -4,137 -29,0 c -28,0 -29,1 -29,55 0,54 0,55 30,55 29,0 30,2 30,45 l 0,44 58,16 c 31,9 62,18 67,20 23,8 25,2 25,-60 z m -372,-79 c 64,-33 101,-100 109,-197 l 6,-69 -162,0 c -179,0 -188,-4 -133,-60 35,-35 102,-47 181,-32 31,5 59,7 63,3 4,-3 8,-26 10,-51 l 3,-44 -50,-12 c -117,-28 -236,-9 -302,49 -52,46 -73,98 -73,183 0,59 5,81 28,125 30,58 87,105 143,120 45,11 143,3 177,-15 z m 872,-45 0,-68 -47,-6 c -37,-4 -54,-12 -75,-36 -28,-31 -28,-32 -28,-171 l 0,-140 -75,0 -75,0 0,240 0,240 65,0 65,0 0,-47 0,-48 26,39 c 28,40 71,65 117,66 27,0 27,0 27,-69 z m 425,41 c 86,-44 128,-117 128,-223 0,-180 -158,-288 -341,-234 -106,32 -166,117 -165,236 0,115 61,201 163,234 61,20 164,14 215,-13 z m 2005,-41 0,-68 -47,-6 c -37,-4 -54,-12 -75,-36 -28,-31 -28,-32 -28,-171 l 0,-140 -75,0 -75,0 0,240 0,240 65,0 65,0 0,-47 0,-48 26,39 c 28,40 71,65 117,66 27,0 27,0 27,-69 z m 435,41 c 86,-44 128,-117 128,-223 0,-180 -158,-288 -341,-234 -106,32 -166,117 -165,236 0,115 61,201 163,234 61,20 164,14 215,-13 z m 585,11 c 5,-4 3,-31 -3,-58 l -10,-51 -62,4 c -108,7 -162,-42 -152,-141 3,-38 11,-56 36,-80 30,-30 36,-32 106,-32 l 75,0 6,-35 c 3,-19 8,-42 10,-51 6,-21 -15,-29 -97,-36 -128,-11 -238,46 -275,143 -25,66 -16,180 19,233 58,87 142,124 266,117 40,-3 77,-8 81,-13 z m -1750,-143 c 0,-113 4,-158 15,-179 25,-49 68,-54 114,-15 l 31,26 0,159 0,159 75,0 75,0 0,-240 0,-240 -65,0 -65,0 0,37 0,37 -27,-27 c -85,-80 -218,-71 -274,19 -23,37 -24,49 -27,227 l -4,187 76,0 76,0 0,-150 z" inkscape:connector-curvature="0" id="path10" />
    <path d="m 6540,22650 0,-220 54,0 c 96,0 162,34 199,103 17,34 22,59 22,128 0,77 -3,90 -28,128 -37,56 -91,80 -179,81 l -68,0 0,-220 z" inkscape:connector-curvature="0" id="path12" />
    <path d="m 4479,22681 c -51,-52 -42,-61 62,-61 l 91,0 -6,28 c -16,66 -96,84 -147,33 z" inkscape:connector-curvature="0" id="path14" />
    <path d="m 5777,22680 c -73,-58 -56,-225 27,-254 104,-38 172,146 90,244 -31,36 -78,40 -117,10 z" inkscape:connector-curvature="0" id="path16" />
    <path d="m 8217,22680 c -73,-58 -56,-225 27,-254 104,-38 172,146 90,244 -31,36 -78,40 -117,10 z" inkscape:connector-curvature="0" id="path18" />
    <path d="m 1849,23482 c -75,-85 -97,-123 -41,-69 24,23 37,27 85,27 52,0 59,-3 69,-25 8,-18 19,-25 40,-25 15,0 28,3 28,6 0,12 -92,174 -98,174 -4,-1 -41,-40 -83,-88 z m 76,-2 16,-30 -46,0 -46,0 21,30 c 12,17 25,30 30,30 5,0 16,-13 25,-30 z" inkscape:connector-curvature="0" id="path20" />
    <path d="m 2088,23563 c 63,-5 61,2 27,-150 -5,-20 -1,-23 24,-23 24,0 30,5 35,28 3,15 10,53 16,84 l 11,57 52,4 c 29,2 -9,3 -83,3 -74,0 -111,-1 -82,-3 z" inkscape:connector-curvature="0" id="path22" />
    <path d="m 2356,23558 c -8,-25 -26,-132 -26,-150 0,-12 7,-18 24,-18 20,0 25,6 31,40 l 7,40 67,0 c 44,0 74,5 89,16 24,17 29,53 10,72 -17,17 -197,17 -202,0 z m 152,-24 c 5,-32 -24,-54 -69,-54 -41,0 -46,8 -33,58 6,20 12,23 53,20 38,-2 47,-7 49,-24 z" inkscape:connector-curvature="0" id="path24" />
    <path d="m 29600,23434 c -43,-15 -90,-38 -90,-46 0,-5 7,-24 15,-44 14,-34 15,-35 42,-21 60,30 124,28 145,-6 31,-49 -13,-128 -131,-235 -71,-65 -81,-77 -81,-108 l 0,-34 175,0 175,0 0,50 0,50 -87,0 -86,0 60,58 c 33,33 69,79 81,104 61,125 -10,239 -148,237 -30,0 -62,-3 -70,-5 z" inkscape:connector-curvature="0" id="path26" />
    <path d="m 30015,23426 c -50,-22 -77,-60 -83,-114 -4,-44 -1,-53 26,-84 l 31,-35 -34,-32 c -40,-37 -52,-84 -36,-134 21,-63 84,-97 179,-97 106,0 182,62 182,150 0,42 -31,96 -63,111 l -23,11 33,33 c 26,26 33,41 33,72 0,49 -29,95 -73,116 -42,20 -130,22 -172,3 z m 119,-82 c 20,-20 20,-53 0,-82 -19,-27 -34,-28 -68,-1 -44,35 -26,99 29,99 13,0 31,-7 39,-16 z m -15,-209 c 47,-24 57,-83 19,-109 -32,-22 -55,-20 -83,9 -30,30 -31,54 -4,89 24,30 30,31 68,11 z" inkscape:connector-curvature="0" id="path28" />
    <path d="m 32410,23418 c -79,-52 -118,-202 -86,-327 30,-117 87,-166 186,-159 70,5 110,32 142,96 20,41 23,62 23,157 0,95 -3,116 -23,157 -33,66 -72,91 -147,96 -50,3 -66,0 -95,-20 z m 127,-95 c 15,-22 18,-49 18,-138 0,-89 -3,-116 -18,-138 -37,-57 -83,-23 -99,76 -25,151 42,287 99,200 z" inkscape:connector-curvature="0" id="path30" />
    <path d="m 31900,23380 0,-50 110,0 c 61,0 110,-2 110,-4 0,-2 -43,-86 -95,-188 -52,-102 -95,-188 -95,-192 0,-3 27,-6 61,-6 l 60,0 100,206 c 73,153 99,216 99,245 l 0,39 -175,0 -175,0 0,-50 z" inkscape:connector-curvature="0" id="path32" />
    <path d="m 28363,23409 c -118,-19 -255,-97 -337,-191 -56,-64 -110,-165 -131,-244 -20,-76 -19,-220 1,-298 49,-191 197,-348 389,-412 100,-33 245,-37 340,-10 442,128 581,674 254,996 -62,61 -160,118 -249,144 -65,20 -194,27 -267,15 z m 208,-239 c 29,-6 69,-19 89,-29 101,-52 107,-188 9,-245 l -32,-19 35,-18 c 148,-76 118,-285 -46,-334 -66,-20 -204,-30 -289,-21 l -67,8 0,328 0,329 53,4 c 112,8 197,7 248,-3 z" inkscape:connector-curvature="0" id="path34" />
    <path d="m 28420,22996 0,-76 44,0 c 84,0 126,28 126,83 0,40 -34,61 -106,65 l -64,4 0,-76 z" inkscape:connector-curvature="0" id="path36" />
    <path d="m 28420,22710 0,-100 45,0 c 86,0 145,42 145,103 0,63 -49,97 -140,97 l -50,0 0,-100 z" inkscape:connector-curvature="0" id="path38" />
    <path d="m 1850,23274 c -95,-25 -197,-82 -268,-148 l -66,-63 55,-26 c 30,-14 66,-34 81,-43 26,-17 27,-17 62,14 219,192 559,131 699,-126 103,-190 64,-409 -104,-573 l -78,-77 -16,-83 c -8,-45 -14,-83 -12,-85 7,-7 118,45 170,80 73,49 165,149 206,225 69,131 89,306 51,455 -29,116 -73,190 -165,281 -89,90 -182,143 -295,169 -81,20 -247,19 -320,0 z" inkscape:connector-curvature="0" id="path40" />
    <path d="m 1228,23004 c -47,-14 -48,-16 -48,-55 0,-34 3,-39 18,-35 146,44 268,31 367,-39 130,-92 154,-106 196,-113 24,-4 72,-4 107,1 35,5 65,7 67,5 3,-2 8,-28 12,-58 7,-49 10,-54 43,-65 27,-9 36,-18 40,-41 5,-24 10,-29 35,-29 27,0 30,-4 33,-33 3,-26 10,-35 38,-47 19,-8 34,-17 34,-21 0,-4 -16,-48 -36,-98 -72,-182 -105,-416 -73,-528 9,-36 12,-38 49,-38 l 39,0 -10,32 c -14,51 -11,221 7,306 14,69 69,242 105,330 18,43 5,63 -51,76 -45,11 -47,13 -66,85 -3,9 -12,11 -28,7 -21,-5 -25,-2 -28,21 -2,20 -12,32 -35,42 -26,12 -33,21 -38,55 -14,89 -15,90 -125,75 -97,-13 -127,-5 -207,58 -142,110 -306,150 -445,107 z" inkscape:connector-curvature="0" id="path42" />
    <path d="m 1388,22833 c -8,-25 -13,-86 -13,-173 0,-162 19,-229 97,-345 101,-152 263,-251 441,-270 75,-8 66,-18 84,97 l 10,58 -36,5 c -134,22 -215,62 -294,146 -101,108 -152,281 -117,399 10,33 8,37 -21,62 -28,23 -106,58 -130,58 -4,0 -13,-17 -21,-37 z" inkscape:connector-curvature="0" id="path44" />
    <path d="m 30610,22295 0,-355 470,0 470,0 0,355 0,355 -470,0 -470,0 0,-355 z m 347,198 c 78,-37 96,-139 35,-194 l -29,-26 28,-17 c 81,-48 77,-168 -6,-225 -54,-37 -164,-41 -224,-9 -88,47 -104,138 -37,207 l 35,36 -30,33 c -60,67 -17,181 76,205 44,11 119,6 152,-10 z m 503,-31 c 0,-29 -27,-94 -100,-245 l -100,-207 -60,0 c -33,0 -60,3 -60,6 0,3 43,88 95,188 52,101 95,186 95,189 0,4 -48,8 -107,9 l -108,3 -3,48 -3,47 175,0 176,0 0,-38 z" inkscape:connector-curvature="0" id="path46" />
    <path d="m 30826,22414 c -24,-23 -19,-60 10,-83 34,-27 49,-26 68,1 32,45 10,98 -39,98 -13,0 -31,-7 -39,-16 z" inkscape:connector-curvature="0" id="path48" />
    <path d="m 30821,22194 c -27,-35 -27,-65 2,-92 55,-52 128,1 101,73 -6,15 -54,45 -73,45 -5,0 -19,-12 -30,-26 z" inkscape:connector-curvature="0" id="path50" />
    <path d="m 29595,22496 c -49,-21 -85,-71 -85,-117 0,-46 13,-77 43,-100 20,-16 20,-17 -7,-34 -56,-37 -72,-114 -36,-172 59,-98 269,-98 330,-1 17,26 20,45 17,87 -3,48 -8,59 -39,86 l -36,30 29,33 c 55,62 32,155 -47,188 -42,18 -129,17 -169,0 z m 117,-83 c 24,-21 23,-58 -2,-83 -29,-29 -90,0 -90,43 0,48 56,73 92,40 z m -3,-219 c 19,-16 31,-35 31,-50 0,-29 -33,-64 -60,-64 -27,0 -70,43 -70,70 0,21 41,70 59,70 5,0 23,-12 40,-26 z" inkscape:connector-curvature="0" id="path52" />
    <path d="m 29978,22488 c -27,-11 -48,-25 -48,-30 0,-12 28,-78 33,-78 3,0 18,7 33,15 41,21 107,19 127,-3 21,-23 22,-64 3,-100 -8,-15 -57,-69 -110,-121 -84,-82 -96,-98 -96,-127 l 0,-34 175,0 175,0 0,50 0,50 -85,0 -86,0 59,58 c 73,71 102,125 102,190 0,60 -30,109 -80,134 -49,25 -142,23 -202,-4 z" inkscape:connector-curvature="0" id="path54" />
    <path d="m 31985,22496 c -50,-22 -77,-60 -83,-114 -4,-44 -1,-53 26,-84 l 31,-35 -34,-32 c -40,-37 -52,-84 -36,-134 21,-63 84,-97 179,-97 106,0 182,62 182,150 0,42 -31,96 -63,111 l -23,11 33,33 c 26,26 33,41 33,72 0,49 -29,95 -73,116 -42,20 -130,22 -172,3 z m 119,-82 c 20,-20 20,-53 0,-82 -19,-27 -34,-28 -68,-1 -44,35 -26,99 29,99 13,0 31,-7 39,-16 z m -15,-209 c 47,-24 57,-83 19,-109 -32,-22 -55,-20 -83,9 -30,30 -31,54 -4,89 24,30 30,31 68,11 z" inkscape:connector-curvature="0" id="path56" />
    <path d="m 32405,22494 c -126,-65 -144,-226 -33,-294 39,-24 111,-26 150,-6 24,13 26,12 21,-2 -22,-60 -89,-102 -161,-102 l -42,0 0,-45 0,-45 48,0 c 169,0 282,116 282,289 0,143 -66,221 -187,221 -26,0 -61,-7 -78,-16 z m 111,-82 c 19,-13 34,-50 34,-86 0,-59 -68,-88 -110,-46 -24,24 -27,86 -4,118 15,22 57,30 80,14 z" inkscape:connector-curvature="0" id="path58" />
    <path d="m 33185,22496 c -123,-55 -142,-229 -33,-296 40,-24 124,-27 156,-5 20,15 21,15 15,-2 -22,-61 -89,-103 -161,-103 l -42,0 0,-46 0,-47 73,5 c 122,8 210,74 241,179 42,139 2,277 -91,315 -41,18 -119,17 -158,0 z m 111,-84 c 34,-23 46,-110 18,-133 -24,-20 -84,-16 -100,6 -19,25 -18,85 2,113 15,22 57,30 80,14 z" inkscape:connector-curvature="0" id="path60" />
    <path d="m 33568,22488 c -27,-11 -48,-25 -48,-30 0,-17 29,-78 37,-78 4,0 17,7 27,15 27,20 110,20 130,-1 22,-22 20,-73 -5,-114 -12,-19 -62,-73 -110,-119 -77,-73 -89,-89 -89,-118 l 0,-33 175,0 175,0 0,50 0,50 -87,0 -86,0 62,61 c 72,70 100,124 101,190 0,56 -30,106 -80,131 -49,25 -142,23 -202,-4 z" inkscape:connector-curvature="0" id="path62" />
    <path d="m 25490,17535 0,-295 30,0 30,0 0,-295 0,-295 -30,0 -29,0 -3,-247 c -2,-137 -2,-661 0,-1165 l 3,-918 3435,0 3434,0 2,-1767 3,-1768 120,0 120,0 3,1893 2,1892 -3435,0 -3435,0 0,680 0,680 760,0 760,0 0,950 0,950 -885,0 -885,0 0,-295 z m 945,-290 c 14,-13 25,-36 25,-50 0,-36 -42,-75 -80,-75 -38,0 -80,39 -80,75 0,36 42,75 80,75 19,0 40,-9 55,-25 z m 15,-435 0,-240 -75,0 -75,0 0,240 0,240 75,0 75,0 0,-240 z" inkscape:connector-curvature="0" id="path64" />
    <path d="m 24565,16280 c -89,-18 -146,-59 -176,-125 -17,-36 -19,-71 -19,-347 0,-170 -2,-308 -5,-308 -2,0 -120,54 -262,120 -142,67 -267,123 -279,126 -16,4 -24,-4 -44,-46 -14,-30 -20,-54 -14,-59 5,-5 142,-70 305,-146 l 297,-138 4,-111 c 4,-122 14,-150 69,-204 58,-57 96,-62 454,-62 358,0 396,5 462,63 74,65 73,55 72,582 0,367 -3,478 -13,508 -21,58 -64,107 -115,131 -44,20 -62,21 -371,23 -179,0 -343,-3 -365,-7 z m 375,-190 c 19,-19 20,-34 20,-377 l 1,-358 72,78 c 77,83 109,96 149,60 42,-38 38,-44 -235,-337 l -47,-51 -76,80 c -186,196 -224,242 -224,268 0,34 25,57 62,57 25,0 43,-14 104,-77 l 73,-78 1,362 0,362 22,15 c 30,21 54,20 78,-4 z m -146,-282 c 8,-13 6,-22 -8,-37 -18,-19 -30,-21 -168,-21 -84,0 -158,5 -169,10 -18,10 -26,50 -12,64 4,3 83,5 176,4 147,-3 171,-5 181,-20 z m 574,-7 c 7,-44 -18,-51 -184,-51 -125,0 -155,3 -168,16 -18,17 -19,24 -10,48 6,14 28,16 183,14 l 176,-3 3,-24 z" inkscape:connector-curvature="0" id="path66" />
    <path d="m 22810,15305 0,-735 -10015,0 -10015,0 0,-1081 c 0,-594 -2,-1084 -5,-1089 -3,-4 -17,-11 -32,-15 -71,-17 -182,-114 -222,-194 -49,-96 -51,-119 -51,-696 0,-451 3,-551 15,-600 37,-145 120,-255 232,-308 40,-18 63,-35 63,-45 0,-10 0,-495 0,-1079 l 0,-1063 8882,0 8883,0 -3,1890 -3,1890 5185,0 5186,0 2,-697 3,-698 125,0 125,0 3,823 2,822 -5440,0 -5440,0 0,-1890 0,-1890 -8625,0 -8625,0 0,25 c 0,14 0,432 0,930 0,498 0,912 0,920 0,13 850,15 7593,15 6692,0 7599,2 7655,15 99,24 171,62 238,129 64,64 95,127 115,230 5,27 9,279 9,560 0,559 -3,593 -58,711 -50,105 -126,175 -240,218 l -57,22 -7627,3 -7628,2 0,945 0,945 10013,2 10012,3 0,505 0,505 325,5 325,5 0,55 0,55 -325,5 -325,5 -3,288 -2,287 -125,0 -125,0 0,-735 z M 6858,12252 c 43,-56 -37,-123 -90,-75 -44,39 -2,111 57,96 11,-3 26,-12 33,-21 z m 265,-9 c 53,-84 53,-83 5,-83 -40,1 -46,5 -85,54 -24,29 -43,56 -43,60 0,3 22,6 50,6 47,0 51,-2 73,-37 z m -3703,7 c 36,-36 26,-61 -59,-143 l -79,-77 149,0 c 136,0 151,-2 169,-20 27,-27 25,-56 -5,-85 -23,-24 -29,-25 -166,-25 l -143,0 77,-72 c 47,-45 77,-81 77,-93 0,-36 -28,-65 -63,-65 -28,0 -55,20 -190,146 -86,80 -157,149 -157,154 0,4 22,28 49,52 27,23 99,89 160,146 118,109 143,120 181,82 z m 2420,-227 c 40,-131 75,-246 78,-256 4,-16 -2,-18 -59,-15 l -63,3 -19,63 -19,62 -74,0 c -55,0 -74,-3 -74,-13 0,-7 -7,-37 -15,-65 l -16,-52 -60,0 c -53,0 -60,2 -55,18 36,115 146,484 146,487 0,3 35,5 78,5 l 78,0 74,-237 z m -1260,78 c 45,-23 76,-69 84,-124 12,-76 10,-77 -125,-77 -76,0 -119,-4 -119,-10 0,-6 12,-22 26,-36 24,-24 30,-26 105,-22 75,3 80,2 85,-19 14,-56 -7,-70 -112,-72 -76,-1 -120,13 -162,52 -67,64 -69,197 -4,271 47,52 158,71 222,37 z m 380,-36 0,-55 -34,0 c -25,0 -40,-7 -55,-26 -18,-23 -21,-41 -21,-130 l 0,-104 -60,0 -60,0 0,180 0,180 50,0 c 47,0 50,-2 50,-25 0,-32 2,-31 38,5 21,20 40,30 61,30 31,0 31,0 31,-55 z m 265,45 c 25,-9 27,-14 20,-48 -4,-20 -8,-38 -8,-39 -1,-1 -21,4 -45,10 -30,8 -48,8 -59,1 -32,-20 -25,-34 32,-59 74,-33 105,-67 105,-115 0,-93 -115,-145 -242,-109 -42,11 -42,10 -28,60 l 10,37 38,-14 c 49,-17 87,-17 102,1 17,20 5,33 -54,59 -29,13 -62,36 -74,51 -42,54 -17,130 52,161 37,16 114,18 151,4 z m 970,0 c 25,-9 27,-14 20,-48 -4,-20 -8,-38 -8,-39 -1,-1 -21,4 -45,10 -30,8 -48,8 -59,1 -32,-20 -25,-34 32,-59 74,-33 105,-67 105,-115 0,-93 -115,-145 -242,-109 -42,11 -42,10 -28,60 l 10,37 38,-14 c 49,-17 87,-17 102,1 17,20 5,33 -54,59 -29,13 -62,36 -74,51 -42,54 -17,130 52,161 37,16 114,18 151,4 z m 405,-6 c 53,-32 64,-66 68,-216 l 4,-138 -60,0 -60,0 -4,126 c -3,111 -5,127 -22,140 -26,19 -39,18 -70,-7 -25,-20 -26,-23 -26,-140 l 0,-119 -60,0 -60,0 0,180 0,180 49,0 c 40,0 51,-4 56,-19 6,-19 7,-19 42,5 42,28 102,32 143,8 z m 600,-3 c 45,-23 76,-69 84,-124 12,-76 10,-77 -125,-77 -76,0 -119,-4 -119,-10 0,-6 12,-22 26,-36 24,-24 30,-26 105,-22 75,3 80,2 85,-19 14,-56 -7,-70 -112,-72 -76,-1 -120,13 -162,52 -67,64 -69,197 -4,271 47,52 158,71 222,37 z m 380,-36 0,-55 -34,0 c -25,0 -40,-7 -55,-26 -18,-23 -21,-41 -21,-130 l 0,-104 -60,0 -60,0 0,180 0,180 50,0 c 47,0 50,-2 50,-25 0,-32 2,-31 38,5 21,20 40,30 61,30 31,0 31,0 31,-55 z m 300,36 c 45,-23 76,-69 84,-124 12,-76 10,-77 -125,-77 -76,0 -119,-4 -119,-10 0,-6 12,-22 26,-36 24,-24 30,-26 105,-22 75,3 80,2 85,-19 14,-56 -7,-70 -112,-72 -76,-1 -120,13 -162,52 -67,64 -69,197 -4,271 47,52 158,71 222,37 z m 355,9 c 25,-9 27,-14 20,-48 -4,-20 -8,-38 -8,-39 -1,-1 -21,4 -45,10 -30,8 -48,8 -59,1 -32,-20 -25,-34 32,-59 74,-33 105,-67 105,-115 0,-93 -115,-145 -242,-109 -42,11 -42,10 -28,60 l 10,37 38,-14 c 49,-17 87,-17 102,1 17,20 5,33 -54,59 -29,13 -62,36 -74,51 -42,54 -17,130 52,161 37,16 114,18 151,4 z m -4159,-115 c 18,-60 33,-112 34,-115 1,-3 16,47 34,110 l 32,115 63,3 c 35,2 61,-1 60,-6 -2,-5 -33,-87 -69,-181 l -65,-172 -60,3 -60,3 -62,165 c -34,91 -62,171 -62,178 -1,10 15,12 61,10 l 61,-3 33,-110 z m 2794,-65 0,-180 -60,0 -60,0 0,180 0,180 60,0 60,0 0,-180 z m 4532,95 c 129,-44 233,-125 307,-238 61,-93 82,-164 88,-287 7,-131 -6,-196 -59,-302 -73,-146 -216,-262 -374,-303 -93,-24 -237,-20 -332,10 -182,58 -327,204 -385,390 -28,91 -29,242 -3,330 69,229 256,393 491,429 62,9 201,-5 267,-29 z m -1564,-417 c 29,-101 55,-202 58,-226 4,-23 10,-44 14,-47 3,-2 15,31 25,73 10,42 39,145 65,227 l 48,150 101,3 101,3 0,-38 c 0,-21 7,-150 15,-288 8,-137 15,-271 15,-297 l 0,-48 -69,0 -69,0 -6,63 c -3,34 -9,151 -13,260 l -8,199 -38,-129 c -21,-70 -56,-185 -78,-255 l -40,-128 -59,0 -59,0 -11,43 c -7,23 -27,96 -45,162 -19,66 -43,160 -54,208 -10,49 -21,90 -24,93 -2,2 -7,-80 -11,-183 -3,-104 -9,-221 -13,-260 l -6,-73 -69,0 -70,0 6,48 c 3,26 13,176 23,335 l 17,287 101,0 102,0 51,-182 z m 5032,-444 c 0,-98 1,-104 17,-89 34,35 100,45 148,23 54,-24 68,-68 73,-220 l 5,-138 -61,0 -60,0 -4,125 c -2,68 -7,128 -13,133 -23,22 -52,22 -78,1 -27,-20 -27,-23 -27,-140 l 0,-119 -60,0 -60,0 0,265 0,265 60,0 60,0 0,-106 z m 550,46 41,-60 -40,0 c -35,0 -43,4 -56,30 -9,17 -18,30 -20,30 -2,0 -11,-13 -20,-30 -13,-26 -21,-30 -55,-30 l -40,0 26,43 c 41,66 54,77 90,77 29,0 38,-7 74,-60 z m 538,32 c 43,-56 -37,-123 -90,-75 -44,39 -2,111 57,96 11,-3 26,-12 33,-21 z m 222,-237 0,-265 -60,0 -60,0 0,265 0,265 60,0 60,0 0,-265 z m 200,0 0,-265 -60,0 -60,0 0,265 0,265 60,0 60,0 0,-265 z m -1721,244 c 35,-12 34,-11 21,-60 l -10,-36 -78,4 c -94,5 -133,-14 -162,-80 -38,-82 -13,-186 52,-227 28,-18 45,-21 110,-17 l 78,4 6,-34 c 9,-45 1,-59 -36,-67 -199,-39 -350,68 -350,248 0,168 107,274 276,276 34,0 75,-5 93,-11 z m 3178,-68 c 43,-38 118,-107 167,-153 l 89,-83 -139,-130 c -202,-190 -213,-196 -254,-155 -39,39 -27,69 57,147 l 78,72 -147,1 c -134,0 -150,2 -168,20 -11,11 -20,31 -20,45 0,14 9,34 20,45 18,18 33,20 167,20 l 147,0 -77,71 c -59,54 -77,77 -77,97 0,32 8,45 35,60 33,19 42,15 122,-57 z m -2127,-31 0,-50 46,0 45,0 -3,-42 c -3,-43 -3,-43 -45,-46 l -43,-3 0,-75 c 0,-62 3,-77 21,-95 13,-13 29,-19 40,-16 18,5 20,1 17,-41 l -3,-47 -62,0 c -55,0 -66,4 -90,28 -27,26 -28,33 -31,137 -4,109 -4,110 -28,110 -22,0 -24,4 -24,45 0,41 2,45 25,45 22,0 25,4 25,34 0,33 3,36 48,49 26,8 50,15 55,16 4,1 7,-21 7,-49 z m -2320,-59 c 45,-23 76,-69 84,-124 12,-76 10,-77 -125,-77 -76,0 -119,-4 -119,-10 0,-6 12,-22 26,-36 24,-24 30,-26 105,-22 75,3 80,2 85,-19 14,-56 -7,-70 -112,-72 -76,-1 -120,13 -162,52 -67,64 -69,197 -4,271 47,52 158,71 222,37 z m 380,-36 0,-55 -34,0 c -25,0 -40,-7 -55,-26 -18,-23 -21,-41 -21,-130 l 0,-104 -60,0 -60,0 0,180 0,180 50,0 c 47,0 50,-2 50,-25 0,-32 2,-31 38,5 21,20 40,30 61,30 31,0 31,0 31,-55 z m 265,45 c 25,-9 27,-14 20,-48 -4,-20 -8,-38 -8,-39 -1,-1 -21,4 -45,10 -30,8 -48,8 -59,1 -32,-20 -25,-34 32,-59 74,-33 105,-67 105,-115 0,-93 -115,-145 -242,-109 -42,11 -42,10 -28,60 l 10,37 38,-14 c 49,-17 87,-17 102,1 17,20 5,33 -54,59 -29,13 -62,36 -74,51 -42,54 -17,130 52,161 37,16 114,18 151,4 z m 1390,-6 c 61,-29 69,-53 75,-212 l 5,-142 -52,0 c -40,0 -53,4 -53,15 0,12 -7,11 -40,-6 -59,-31 -124,-22 -163,21 -26,29 -29,38 -24,83 3,41 11,56 35,78 33,30 88,49 140,49 40,0 44,25 6,42 -19,9 -39,9 -82,0 -30,-6 -57,-10 -60,-8 -2,3 -5,19 -5,38 -2,29 2,34 33,45 50,17 146,16 185,-3 z m 1311,-3 c 136,-62 137,-274 2,-340 -82,-39 -197,-19 -246,44 -49,62 -53,168 -8,236 48,72 164,100 252,60 z m 454,3 c 53,-32 64,-66 68,-216 l 4,-138 -60,0 -60,0 -4,126 c -3,111 -5,127 -22,140 -26,19 -39,18 -70,-7 -25,-20 -26,-23 -26,-140 l 0,-119 -60,0 -60,0 0,180 0,180 49,0 c 40,0 51,-4 56,-19 6,-19 7,-19 42,5 42,28 102,32 143,8 z m -4304,-109 c 18,-60 33,-112 34,-115 1,-3 16,47 34,110 l 32,115 63,3 c 35,2 61,-1 60,-6 -2,-5 -33,-87 -69,-181 l -65,-172 -60,3 -60,3 -62,165 c -34,91 -62,171 -62,178 -1,10 15,12 61,10 l 61,-3 33,-110 z m 3084,-65 0,-180 -60,0 -60,0 0,180 0,180 60,0 60,0 0,-180 z" inkscape:connector-curvature="0" id="path68" />
    <path d="m 5662,12075 c -12,-47 -22,-90 -22,-95 0,-6 23,-10 51,-10 38,0 50,3 46,13 -3,7 -15,49 -27,92 -12,44 -23,81 -24,83 -2,1 -12,-36 -24,-83 z" inkscape:connector-curvature="0" id="path70" />
    <path d="m 4440,12020 c -33,-33 -24,-40 50,-40 39,0 70,3 70,8 0,4 -7,18 -16,30 -20,29 -76,30 -104,2 z" inkscape:connector-curvature="0" id="path72" />
    <path d="m 7060,12020 c -33,-33 -24,-40 50,-40 39,0 70,3 70,8 0,4 -7,18 -16,30 -20,29 -76,30 -104,2 z" inkscape:connector-curvature="0" id="path74" />
    <path d="m 7740,12020 c -33,-33 -24,-40 50,-40 39,0 70,3 70,8 0,4 -7,18 -16,30 -20,29 -76,30 -104,2 z" inkscape:connector-curvature="0" id="path76" />
    <path d="m 11375,11774 c -11,-3 -40,-12 -63,-21 -43,-15 -44,-16 -37,-50 3,-19 10,-45 15,-58 l 9,-22 53,18 c 85,29 145,22 168,-22 27,-50 -34,-99 -125,-99 l -45,0 0,-55 0,-55 50,0 c 97,0 159,-47 145,-110 -14,-63 -98,-85 -203,-52 -34,11 -64,17 -66,13 -13,-25 -27,-104 -20,-111 19,-18 121,-40 184,-40 160,0 269,82 270,200 0,49 -38,111 -83,135 -20,11 -37,22 -37,25 0,3 13,14 29,24 69,46 87,145 38,209 -39,51 -88,71 -182,74 -44,1 -89,-1 -100,-3 z" inkscape:connector-curvature="0" id="path78" />
    <path d="m 10822,11730 c -67,-32 -82,-43 -78,-57 3,-10 8,-35 12,-55 3,-21 10,-38 15,-38 6,0 32,11 59,25 27,14 52,25 55,25 3,0 5,-115 5,-255 l 0,-255 75,0 75,0 0,325 0,325 -67,-1 c -57,0 -81,-6 -151,-39 z" inkscape:connector-curvature="0" id="path80" />
    <path d="m 13250,11010 c -33,-33 -24,-40 50,-40 39,0 70,3 70,8 0,4 -7,18 -16,30 -20,29 -76,30 -104,2 z" inkscape:connector-curvature="0" id="path82" />
    <path d="m 15323,10900 c -19,-8 -43,-38 -43,-54 0,-12 33,-36 51,-36 29,0 59,36 59,70 0,25 -4,30 -22,29 -13,0 -33,-4 -45,-9 z" inkscape:connector-curvature="0" id="path84" />
    <path d="m 16603,11006 c -25,-22 -28,-31 -28,-86 0,-55 3,-64 28,-86 15,-13 34,-24 42,-24 8,0 27,11 42,24 25,22 28,31 28,86 0,55 -3,64 -28,86 -15,13 -34,24 -42,24 -8,0 -27,-11 -42,-24 z" inkscape:connector-curvature="0" id="path86" />
    <path d="m 23611,14852 c -55,-154 -101,-282 -101,-286 0,-4 15,4 33,18 114,87 243,87 345,2 17,-15 32,-24 32,-20 0,8 -199,556 -204,561 -2,2 -49,-122 -105,-275 z" inkscape:connector-curvature="0" id="path88" />
    <path d="m 23670,14570 c -25,-25 -25,-51 -2,-79 26,-33 60,-34 89,-5 19,19 23,31 18,51 -13,52 -69,69 -105,33 z" inkscape:connector-curvature="0" id="path90" />
    <path d="m 23692,14329 c -53,-20 -51,-101 3,-115 59,-15 104,41 72,90 -18,28 -44,36 -75,25 z" inkscape:connector-curvature="0" id="path92" />
    <path d="m 23670,14058 c -22,-24 -25,-40 -10,-68 24,-45 86,-45 110,0 33,62 -52,120 -100,68 z" inkscape:connector-curvature="0" id="path94" />
    <path d="m 18080,13375 0,-535 165,0 165,0 0,535 0,535 -165,0 -165,0 0,-535 z" inkscape:connector-curvature="0" id="path96" />
    <path d="m 21020,13375 0,-535 170,0 170,0 -3,533 -2,532 -167,3 -168,2 0,-535 z" inkscape:connector-curvature="0" id="path98" />
    <path d="m 23664,13794 c -35,-53 21,-113 80,-86 58,26 36,112 -29,112 -26,0 -39,-6 -51,-26 z" inkscape:connector-curvature="0" id="path100" />
    <path d="m 17690,13375 0,-435 125,0 125,0 0,435 0,435 -125,0 -125,0 0,-435 z" inkscape:connector-curvature="0" id="path102" />
    <path d="m 20630,13375 0,-435 130,0 130,0 0,435 0,435 -130,0 -130,0 0,-435 z" inkscape:connector-curvature="0" id="path104" />
    <path d="m 17352,13373 3,-338 80,0 80,0 3,338 2,337 -85,0 -85,0 2,-337 z" inkscape:connector-curvature="0" id="path106" />
    <path d="m 20292,13373 3,-338 83,-2 82,-2 0,340 0,339 -85,0 -85,0 2,-337 z" inkscape:connector-curvature="0" id="path108" />
    <path d="m 23930,13355 0,-265 55,0 55,0 0,120 c 0,107 2,122 20,140 11,11 29,20 40,20 11,0 29,-9 40,-20 18,-18 20,-33 20,-140 l 0,-120 55,0 55,0 0,139 c 0,127 -2,141 -23,172 -42,63 -109,76 -171,34 l -36,-24 0,104 0,105 -55,0 -55,0 0,-265 z" inkscape:connector-curvature="0" id="path110" />
    <path d="m 24760,13355 0,-265 55,0 55,0 0,265 0,265 -55,0 -55,0 0,-265 z" inkscape:connector-curvature="0" id="path112" />
    <path d="m 24970,13355 0,-265 55,0 55,0 0,265 0,265 -55,0 -55,0 0,-265 z" inkscape:connector-curvature="0" id="path114" />
    <path d="m 22863,13449 c -66,-19 -123,-102 -123,-179 0,-124 95,-200 235,-187 90,9 98,13 91,55 -3,19 -7,36 -8,38 -2,1 -24,-2 -50,-7 -57,-13 -121,2 -143,34 -8,12 -15,25 -15,29 0,5 54,8 120,8 l 120,0 0,50 c 0,126 -99,196 -227,159 z m 110,-87 c 35,-31 21,-42 -53,-42 -38,0 -70,3 -70,6 0,16 24,46 43,54 26,10 55,4 80,-18 z" inkscape:connector-curvature="0" id="path116" />
    <path d="m 23315,13449 c -11,-6 -30,-23 -42,-38 l -23,-26 0,33 c 0,32 0,32 -51,32 -48,0 -51,-1 -45,-22 3,-13 6,-94 6,-180 l 0,-158 55,0 55,0 0,110 c 0,127 12,150 75,150 l 35,0 0,55 c 0,50 -2,55 -22,55 -13,0 -32,-5 -43,-11 z" inkscape:connector-curvature="0" id="path118" />
    <path d="m 23525,13453 c -53,-15 -95,-66 -95,-117 0,-36 46,-82 105,-104 95,-37 58,-90 -43,-63 -25,6 -46,10 -49,8 -2,-3 -8,-18 -13,-36 -10,-36 2,-46 68,-57 99,-16 185,24 198,92 11,59 -11,92 -85,128 -48,23 -66,37 -66,51 0,17 7,20 45,20 25,-1 51,-3 59,-5 19,-6 39,56 24,71 -12,12 -118,21 -148,12 z" inkscape:connector-curvature="0" id="path120" />
    <path d="m 24415,13447 c -37,-12 -40,-15 -37,-47 3,-43 5,-44 43,-31 49,17 103,14 122,-7 10,-10 17,-21 17,-24 0,-3 -24,-8 -54,-11 -132,-13 -198,-96 -151,-187 30,-59 105,-76 175,-40 34,17 40,18 40,5 0,-11 12,-15 50,-15 l 50,0 0,128 c 0,140 -11,178 -63,216 -34,25 -134,31 -192,13 z m 145,-221 c 0,-57 -76,-91 -100,-46 -22,41 12,78 73,79 24,1 27,-2 27,-33 z" inkscape:connector-curvature="0" id="path122" />
    <path d="m 22340,13443 c 0,-5 29,-84 64,-178 l 64,-170 59,0 58,0 66,175 66,175 -54,3 c -31,2 -58,1 -61,-3 -3,-3 -20,-58 -37,-122 -32,-117 -36,-123 -49,-68 -4,17 -19,67 -32,113 l -25,82 -60,0 c -32,0 -59,-3 -59,-7 z" inkscape:connector-curvature="0" id="path124" />
    <path d="m 31720,12160 c -36,-36 -21,-89 31,-105 25,-8 69,19 70,43 5,71 -55,108 -101,62 z" inkscape:connector-curvature="0" id="path126" />
    <path d="m 31720,11900 c -54,-54 20,-143 77,-93 35,30 38,59 9,88 -30,30 -59,32 -86,5 z" inkscape:connector-curvature="0" id="path128" />
    <path d="m 31720,11640 c -11,-11 -20,-31 -20,-45 0,-30 32,-65 60,-65 12,0 31,11 44,23 28,28 25,70 -7,92 -29,20 -53,19 -77,-5 z" inkscape:connector-curvature="0" id="path130" />
    <path d="m 31735,11388 c -41,-23 -47,-66 -15,-98 26,-26 56,-25 84,3 28,28 25,70 -7,92 -25,18 -35,18 -62,3 z" inkscape:connector-curvature="0" id="path132" />
    <path d="m 31727,11119 c -32,-25 -35,-61 -7,-89 28,-28 64,-25 89,7 46,58 -24,128 -82,82 z" inkscape:connector-curvature="0" id="path134" />
    <path d="m 31584,10948 c 19,-51 64,-176 101,-278 37,-102 70,-189 75,-193 5,-6 210,534 210,557 0,3 -20,-10 -45,-29 -47,-35 -127,-65 -176,-65 -43,0 -109,28 -155,66 l -43,35 33,-93 z" inkscape:connector-curvature="0" id="path136" />
    <path d="m 18080,9595 0,-535 165,0 165,0 0,535 0,535 -165,0 -165,0 0,-535 z" inkscape:connector-curvature="0" id="path138" />
    <path d="m 31640,10114 c -265,-57 -460,-302 -460,-580 0,-294 218,-541 514,-583 117,-17 222,2 343,61 196,95 323,301 323,522 0,167 -57,303 -175,421 -144,145 -343,203 -545,159 z m 58,-436 c 29,-101 55,-202 58,-226 4,-23 10,-44 14,-47 3,-2 15,31 25,73 10,42 39,145 65,227 l 48,150 101,3 101,3 0,-38 c 0,-21 7,-150 15,-288 8,-137 15,-271 15,-297 l 0,-48 -69,0 -69,0 -6,63 c -3,34 -9,151 -13,260 l -8,199 -38,-129 c -21,-70 -56,-185 -78,-255 l -40,-128 -59,0 -59,0 -11,43 c -7,23 -27,96 -45,162 -19,66 -43,160 -54,208 -10,49 -21,90 -24,93 -2,2 -7,-80 -11,-183 -3,-104 -9,-221 -13,-260 l -6,-73 -69,0 -70,0 6,48 c 3,26 13,176 23,335 l 17,287 101,0 102,0 51,-182 z" inkscape:connector-curvature="0" id="path140" />
    <path d="m 17690,9595 0,-435 125,0 125,0 0,435 0,435 -125,0 -125,0 0,-435 z" inkscape:connector-curvature="0" id="path142" />
    <path d="m 17350,9595 0,-345 83,2 82,3 3,334 c 2,261 -1,336 -10,343 -7,4 -46,8 -85,8 l -73,0 0,-345 z" inkscape:connector-curvature="0" id="path144" />
    <path d="m 31944,8471 c -92,-42 -144,-155 -144,-316 0,-217 86,-334 248,-335 137,0 218,88 242,264 26,180 -37,346 -147,392 -47,20 -150,17 -199,-5 z m 135,-111 c 36,-19 54,-87 54,-205 1,-132 -22,-199 -69,-211 -64,-16 -98,45 -102,186 -4,114 6,173 39,214 21,27 48,33 78,16 z" inkscape:connector-curvature="0" id="path146" />
    <path d="m 31385,8445 c -38,-19 -74,-36 -79,-38 -9,-3 12,-127 21,-127 2,0 30,14 63,30 l 60,30 0,-255 0,-255 75,0 75,0 0,325 0,325 -72,-1 c -61,-1 -84,-6 -143,-34 z" inkscape:connector-curvature="0" id="path148" />
    <path d="m 1388,3483 c -32,-5 -34,-13 -13,-53 l 16,-30 -156,0 -155,0 0,-40 0,-40 195,0 195,0 0,35 c 0,29 -44,139 -53,134 -1,-1 -14,-4 -29,-6 z" inkscape:connector-curvature="0" id="path150" />
    <path d="m 1100,3179 c -18,-32 -23,-111 -11,-156 13,-49 60,-93 100,-93 33,0 77,31 87,62 6,21 7,21 20,-4 17,-33 71,-52 108,-39 33,13 66,67 66,109 0,18 -5,54 -11,79 -11,43 -13,45 -42,39 -17,-3 -32,-7 -33,-9 -1,-1 3,-21 9,-44 13,-50 -2,-93 -32,-93 -25,0 -51,36 -51,72 0,24 -4,28 -30,28 -28,0 -30,-3 -30,-35 0,-37 -28,-75 -55,-75 -25,0 -48,47 -42,88 3,20 8,44 12,53 4,12 -2,19 -24,27 -27,9 -32,8 -41,-9 z" inkscape:connector-curvature="0" id="path152" />
    <path d="m 1060,2850 c 0,-33 -31,-20 284,-114 65,-20 122,-36 127,-36 5,0 9,12 9,28 0,26 -3,28 -163,75 -89,26 -183,54 -209,62 l -48,14 0,-29 z" inkscape:connector-curvature="0" id="path154" />
    <path d="m 1190,2669 c -80,-25 -120,-86 -106,-162 8,-44 62,-93 113,-104 70,-15 159,-7 202,18 95,53 93,182 -3,231 -48,24 -153,33 -206,17 z m 180,-92 c 16,-8 26,-23 28,-40 3,-23 -2,-30 -32,-42 -19,-8 -60,-15 -91,-15 -31,0 -72,7 -91,15 -30,12 -35,19 -32,42 4,38 39,53 123,53 39,0 81,-6 95,-13 z" inkscape:connector-curvature="0" id="path156" />
    <path d="m 1268,2344 c -49,-26 -72,-99 -47,-146 17,-31 4,-32 -31,-1 -25,22 -33,39 -37,76 -5,46 -6,47 -41,47 l -35,0 6,-49 c 13,-112 82,-178 195,-188 142,-13 236,100 172,205 -39,64 -121,90 -182,56 z m 125,-95 c 19,-27 11,-54 -19,-68 -71,-32 -134,19 -87,71 23,26 87,24 106,-3 z" inkscape:connector-curvature="0" id="path158" />
    <path d="m 1060,2010 c 0,-33 -31,-20 284,-114 65,-20 122,-36 127,-36 5,0 9,12 9,28 0,26 -3,28 -163,75 -89,26 -183,54 -209,62 l -48,14 0,-29 z" inkscape:connector-curvature="0" id="path160" />
    <path d="m 1388,1803 c -32,-5 -34,-13 -13,-53 l 16,-30 -156,0 -155,0 0,-40 0,-40 195,0 195,0 0,35 c 0,29 -44,139 -53,134 -1,-1 -14,-4 -29,-6 z" inkscape:connector-curvature="0" id="path162" />
    <path d="m 32274,1686 c -58,-49 -20,-146 57,-146 39,0 89,48 89,85 0,37 -50,85 -89,85 -17,0 -42,-10 -57,-24 z m 86,-30 c 28,-35 -11,-93 -47,-70 -36,22 -23,84 17,84 10,0 23,-7 30,-14 z" inkscape:connector-curvature="0" id="path164" />
    <path d="m 32659,1675 c -42,-22 -45,-26 -41,-54 5,-35 11,-37 52,-16 l 30,16 0,-156 0,-155 40,0 40,0 0,195 0,195 -37,0 c -21,-1 -59,-12 -84,-25 z" inkscape:connector-curvature="0" id="path166" />
    <path d="m 32956,1688 c -36,-10 -38,-12 -32,-41 3,-17 7,-32 9,-33 1,-1 21,3 44,9 50,13 93,-2 93,-32 0,-25 -36,-51 -72,-51 -24,0 -28,-4 -28,-30 0,-28 3,-30 35,-30 37,0 75,-28 75,-55 0,-25 -47,-48 -88,-42 -20,3 -44,8 -53,12 -12,4 -19,-2 -27,-24 -9,-27 -8,-32 9,-41 32,-18 111,-23 156,-11 49,13 93,60 93,100 0,33 -31,77 -62,87 -21,6 -21,7 4,20 33,17 52,71 39,108 -22,56 -101,78 -195,54 z" inkscape:connector-curvature="0" id="path168" />
    <path d="m 31920,1455 0,-145 45,0 45,0 0,93 c 0,78 3,97 18,110 23,21 46,22 66,1 12,-12 16,-37 16,-110 l 0,-94 45,0 45,0 0,88 c 0,48 -5,104 -10,124 -20,72 -92,98 -157,58 -33,-20 -33,-20 -33,0 0,17 -7,20 -40,20 l -40,0 0,-145 z" inkscape:connector-curvature="0" id="path170" />
    <path d="m 1190,1509 c -80,-25 -120,-86 -106,-162 8,-44 62,-93 113,-104 70,-15 159,-7 202,18 95,53 93,182 -3,231 -48,24 -153,33 -206,17 z m 180,-92 c 16,-8 26,-23 28,-40 3,-23 -2,-30 -32,-42 -19,-8 -60,-15 -91,-15 -31,0 -72,7 -91,15 -30,12 -35,19 -32,42 4,38 39,53 123,53 39,0 81,-6 95,-13 z" inkscape:connector-curvature="0" id="path172" />
  </g>
</svg>
