<?xml version="1.0" encoding="UTF-8" standalone="no"?>
<!-- Created with Inkscape (http://www.inkscape.org/) -->

<svg xmlns:dc="http://purl.org/dc/elements/1.1/" xmlns:cc="http://creativecommons.org/ns#" xmlns:rdf="http://www.w3.org/1999/02/22-rdf-syntax-ns#" xmlns:svg="http://www.w3.org/2000/svg" xmlns="http://www.w3.org/2000/svg" xmlns:inkscape="http://www.inkscape.org/namespaces/inkscape" version="1.0" width="3508pt" height="2480pt" viewBox="0 0 3508 2480" id="svg2">
  <defs id="defs314" />
  <metadata id="metadata4">
Created by potrace 1.11, written by Peter Selinger 2001-2013
<rdf:RDF>
  <cc:Work rdf:about="">
    <dc:format>image/svg+xml</dc:format>
    <dc:type rdf:resource="http://purl.org/dc/dcmitype/StillImage" />
  </cc:Work>
</rdf:RDF>
</metadata>
  <g transform="matrix(0.1,0,0,-0.1,0,2480)" id="g6" style="fill:#000000;stroke:none">
    <path d="m 1563,23572 c -18,-2 -33,-5 -33,-7 0,-2 -7,-39 -15,-82 -19,-99 -20,-95 12,-91 26,3 28,7 42,86 l 14,82 42,0 c 56,0 74,-20 51,-55 -13,-20 -25,-25 -58,-25 l -41,0 39,-44 c 31,-35 46,-44 73,-45 l 35,-1 -32,33 c -18,18 -32,36 -32,39 0,3 12,9 28,13 52,13 81,61 50,82 -16,9 -130,19 -175,15 z" inkscape:connector-curvature="0" id="path8" />
    <path d="m 2832,22693 3,-888 3425,0 3425,0 3,888 2,887 -3430,0 -3430,0 2,-887 z m 1818,252 -61,-75 -51,0 -50,0 38,68 c 20,37 39,70 41,75 2,4 36,7 74,7 l 70,0 -61,-75 z m -872,-137 c 29,-101 55,-202 58,-226 4,-23 10,-44 14,-47 3,-2 15,31 25,73 10,42 39,145 65,227 l 48,150 101,3 101,3 0,-38 c 0,-21 7,-150 15,-288 8,-137 15,-271 15,-297 l 0,-48 -69,0 -69,0 -6,63 c -3,34 -9,151 -13,260 l -8,199 -38,-129 c -21,-70 -56,-185 -78,-255 l -40,-128 -59,0 -59,0 -11,43 c -7,23 -27,96 -45,162 -19,66 -43,160 -54,208 -10,49 -21,90 -24,93 -2,2 -7,-80 -11,-183 -3,-104 -9,-221 -13,-260 l -6,-73 -69,0 -70,0 6,48 c 3,26 13,176 23,335 l 17,287 101,0 102,0 51,-182 z m 3003,153 c 75,-29 140,-87 170,-153 19,-44 23,-70 23,-148 0,-81 -4,-103 -25,-150 -37,-78 -71,-115 -142,-149 -92,-45 -240,-63 -371,-45 l -46,7 0,328 0,328 53,4 c 120,10 280,-1 338,-22 z m -1751,-96 0,-65 55,0 55,0 0,-55 0,-55 -55,0 -55,0 0,-110 c 0,-98 2,-112 21,-131 15,-15 30,-20 50,-17 l 29,5 0,-58 0,-58 -36,-7 c -47,-9 -118,2 -150,22 -48,32 -58,67 -62,217 l -4,137 -29,0 c -28,0 -29,1 -29,55 0,54 0,55 30,55 29,0 30,2 30,45 l 0,44 58,16 c 31,9 62,18 67,20 23,8 25,2 25,-60 z m -372,-79 c 64,-33 101,-100 109,-197 l 6,-69 -162,0 c -179,0 -188,-4 -133,-60 35,-35 102,-47 181,-32 31,5 59,7 63,3 4,-3 8,-26 10,-51 l 3,-44 -50,-12 c -117,-28 -236,-9 -302,49 -52,46 -73,98 -73,183 0,59 5,81 28,125 30,58 87,105 143,120 45,11 143,3 177,-15 z m 872,-45 0,-68 -47,-6 c -37,-4 -54,-12 -75,-36 -28,-31 -28,-32 -28,-171 l 0,-140 -75,0 -75,0 0,240 0,240 65,0 65,0 0,-47 0,-48 26,39 c 28,40 71,65 117,66 27,0 27,0 27,-69 z m 425,41 c 86,-44 128,-117 128,-223 0,-180 -158,-288 -341,-234 -106,32 -166,117 -165,236 0,115 61,201 163,234 61,20 164,14 215,-13 z m 2005,-41 0,-68 -47,-6 c -37,-4 -54,-12 -75,-36 -28,-31 -28,-32 -28,-171 l 0,-140 -75,0 -75,0 0,240 0,240 65,0 65,0 0,-47 0,-48 26,39 c 28,40 71,65 117,66 27,0 27,0 27,-69 z m 435,41 c 86,-44 128,-117 128,-223 0,-180 -158,-288 -341,-234 -106,32 -166,117 -165,236 0,115 61,201 163,234 61,20 164,14 215,-13 z m 585,11 c 5,-4 3,-31 -3,-58 l -10,-51 -62,4 c -108,7 -162,-42 -152,-141 3,-38 11,-56 36,-80 30,-30 36,-32 106,-32 l 75,0 6,-35 c 3,-19 8,-42 10,-51 6,-21 -15,-29 -97,-36 -128,-11 -238,46 -275,143 -25,66 -16,180 19,233 58,87 142,124 266,117 40,-3 77,-8 81,-13 z m -1750,-143 c 0,-113 4,-158 15,-179 25,-49 68,-54 114,-15 l 31,26 0,159 0,159 75,0 75,0 0,-240 0,-240 -65,0 -65,0 0,37 0,37 -27,-27 c -85,-80 -218,-71 -274,19 -23,37 -24,49 -27,227 l -4,187 76,0 76,0 0,-150 z" inkscape:connector-curvature="0" id="path10" />
    <path d="m 6540,22650 0,-220 54,0 c 96,0 162,34 199,103 17,34 22,59 22,128 0,77 -3,90 -28,128 -37,56 -91,80 -179,81 l -68,0 0,-220 z" inkscape:connector-curvature="0" id="path12" />
    <path d="m 4479,22681 c -51,-52 -42,-61 62,-61 l 91,0 -6,28 c -16,66 -96,84 -147,33 z" inkscape:connector-curvature="0" id="path14" />
    <path d="m 5777,22680 c -73,-58 -56,-225 27,-254 104,-38 172,146 90,244 -31,36 -78,40 -117,10 z" inkscape:connector-curvature="0" id="path16" />
    <path d="m 8217,22680 c -73,-58 -56,-225 27,-254 104,-38 172,146 90,244 -31,36 -78,40 -117,10 z" inkscape:connector-curvature="0" id="path18" />
    <path d="m 1849,23482 c -75,-85 -97,-123 -41,-69 24,23 37,27 85,27 52,0 59,-3 69,-25 8,-18 19,-25 40,-25 15,0 28,3 28,6 0,12 -92,174 -98,174 -4,-1 -41,-40 -83,-88 z m 76,-2 16,-30 -46,0 -46,0 21,30 c 12,17 25,30 30,30 5,0 16,-13 25,-30 z" inkscape:connector-curvature="0" id="path20" />
    <path d="m 2088,23563 c 63,-5 61,2 27,-150 -5,-20 -1,-23 24,-23 24,0 30,5 35,28 3,15 10,53 16,84 l 11,57 52,4 c 29,2 -9,3 -83,3 -74,0 -111,-1 -82,-3 z" inkscape:connector-curvature="0" id="path22" />
    <path d="m 2356,23558 c -8,-25 -26,-132 -26,-150 0,-12 7,-18 24,-18 20,0 25,6 31,40 l 7,40 67,0 c 44,0 74,5 89,16 24,17 29,53 10,72 -17,17 -197,17 -202,0 z m 152,-24 c 5,-32 -24,-54 -69,-54 -41,0 -46,8 -33,58 6,20 12,23 53,20 38,-2 47,-7 49,-24 z" inkscape:connector-curvature="0" id="path24" />
    <path d="m 29550,23474 c -43,-15 -90,-38 -90,-46 0,-5 7,-24 15,-44 14,-34 15,-35 42,-21 60,30 124,28 145,-6 31,-49 -13,-128 -131,-235 -71,-65 -81,-77 -81,-108 l 0,-34 175,0 175,0 0,50 0,50 -87,0 -86,0 60,58 c 33,33 69,79 81,104 61,125 -10,239 -148,237 -30,0 -62,-3 -70,-5 z" inkscape:connector-curvature="0" id="path26" />
    <path d="m 29965,23466 c -50,-22 -77,-60 -83,-114 -4,-44 -1,-53 26,-84 l 31,-35 -34,-32 c -40,-37 -52,-84 -36,-134 21,-63 84,-97 179,-97 106,0 182,62 182,150 0,42 -31,96 -63,111 l -23,11 33,33 c 26,26 33,41 33,72 0,49 -29,95 -73,116 -42,20 -130,22 -172,3 z m 119,-82 c 20,-20 20,-53 0,-82 -19,-27 -34,-28 -68,-1 -44,35 -26,99 29,99 13,0 31,-7 39,-16 z m -15,-209 c 47,-24 57,-83 19,-109 -32,-22 -55,-20 -83,9 -30,30 -31,54 -4,89 24,30 30,31 68,11 z" inkscape:connector-curvature="0" id="path28" />
    <path d="m 32360,23458 c -79,-52 -118,-202 -86,-327 30,-117 87,-166 186,-159 70,5 110,32 142,96 20,41 23,62 23,157 0,95 -3,116 -23,157 -33,66 -72,91 -147,96 -50,3 -66,0 -95,-20 z m 127,-95 c 15,-22 18,-49 18,-138 0,-89 -3,-116 -18,-138 -37,-57 -83,-23 -99,76 -25,151 42,287 99,200 z" inkscape:connector-curvature="0" id="path30" />
    <path d="m 31850,23420 0,-50 110,0 c 61,0 110,-2 110,-4 0,-2 -43,-86 -95,-188 -52,-102 -95,-188 -95,-192 0,-3 27,-6 61,-6 l 60,0 100,206 c 73,153 99,216 99,245 l 0,39 -175,0 -175,0 0,-50 z" inkscape:connector-curvature="0" id="path32" />
    <path d="m 28313,23450 c -325,-58 -543,-378 -477,-701 46,-224 223,-408 444,-460 70,-16 199,-16 270,0 220,51 399,237 446,461 60,289 -121,593 -405,681 -75,23 -204,32 -278,19 z m 198,-240 c 29,-6 69,-19 89,-29 101,-52 107,-188 9,-245 l -32,-19 35,-18 c 148,-76 118,-285 -46,-334 -66,-20 -204,-30 -289,-21 l -67,8 0,328 0,329 53,4 c 112,8 197,7 248,-3 z" inkscape:connector-curvature="0" id="path34" />
    <path d="m 28360,23036 0,-76 44,0 c 84,0 126,28 126,83 0,40 -34,61 -106,65 l -64,4 0,-76 z" inkscape:connector-curvature="0" id="path36" />
    <path d="m 28360,22750 0,-100 45,0 c 86,0 145,42 145,103 0,63 -49,97 -140,97 l -50,0 0,-100 z" inkscape:connector-curvature="0" id="path38" />
    <path d="m 1850,23274 c -95,-25 -197,-82 -268,-148 l -66,-63 55,-26 c 30,-14 66,-34 81,-43 26,-17 27,-17 62,14 219,192 559,131 699,-126 103,-190 64,-409 -104,-573 l -78,-77 -16,-83 c -8,-45 -14,-83 -12,-85 7,-7 118,45 170,80 73,49 165,149 206,225 69,131 89,306 51,455 -29,116 -73,190 -165,281 -89,90 -182,143 -295,169 -81,20 -247,19 -320,0 z" inkscape:connector-curvature="0" id="path40" />
    <path d="m 1228,23004 c -47,-14 -48,-16 -48,-55 0,-34 3,-39 18,-35 146,44 268,31 367,-39 130,-92 154,-106 196,-113 24,-4 72,-4 107,1 35,5 65,7 67,5 3,-2 8,-28 12,-58 7,-49 10,-54 43,-65 27,-9 36,-18 40,-41 5,-24 10,-29 35,-29 27,0 30,-4 33,-33 3,-26 10,-35 38,-47 19,-8 34,-17 34,-21 0,-4 -16,-48 -36,-98 -72,-182 -105,-416 -73,-528 9,-36 12,-38 49,-38 l 39,0 -10,32 c -14,51 -11,221 7,306 14,69 69,242 105,330 18,43 5,63 -51,76 -45,11 -47,13 -66,85 -3,9 -12,11 -28,7 -21,-5 -25,-2 -28,21 -2,20 -12,32 -35,42 -26,12 -33,21 -38,55 -14,89 -15,90 -125,75 -97,-13 -127,-5 -207,58 -142,110 -306,150 -445,107 z" inkscape:connector-curvature="0" id="path42" />
    <path d="m 1388,22833 c -8,-25 -13,-86 -13,-173 0,-162 19,-229 97,-345 101,-152 263,-251 441,-270 75,-8 66,-18 84,97 l 10,58 -36,5 c -134,22 -215,62 -294,146 -101,108 -152,281 -117,399 10,33 8,37 -21,62 -28,23 -106,58 -130,58 -4,0 -13,-17 -21,-37 z" inkscape:connector-curvature="0" id="path44" />
    <path d="m 30550,22335 0,-355 470,0 470,0 0,355 0,355 -470,0 -470,0 0,-355 z m 357,198 c 78,-37 96,-139 35,-194 l -29,-26 28,-17 c 81,-48 77,-168 -6,-225 -54,-37 -164,-41 -224,-9 -88,47 -104,138 -37,207 l 35,36 -30,33 c -60,67 -17,181 76,205 44,11 119,6 152,-10 z m 493,-31 c 0,-29 -27,-94 -100,-245 l -100,-207 -60,0 c -33,0 -60,3 -60,6 0,3 43,88 95,188 52,101 95,186 95,189 0,4 -48,8 -107,9 l -108,3 -3,48 -3,47 175,0 176,0 0,-38 z" inkscape:connector-curvature="0" id="path46" />
    <path d="m 30776,22454 c -24,-23 -19,-60 10,-83 34,-27 49,-26 68,1 32,45 10,98 -39,98 -13,0 -31,-7 -39,-16 z" inkscape:connector-curvature="0" id="path48" />
    <path d="m 30771,22234 c -27,-35 -27,-65 2,-92 55,-52 128,1 101,73 -6,15 -54,45 -73,45 -5,0 -19,-12 -30,-26 z" inkscape:connector-curvature="0" id="path50" />
    <path d="m 29545,22536 c -49,-21 -85,-71 -85,-117 0,-46 13,-77 43,-100 20,-16 20,-17 -7,-34 -56,-37 -72,-114 -36,-172 59,-98 269,-98 330,-1 17,26 20,45 17,87 -3,48 -8,59 -39,86 l -36,30 29,33 c 55,62 32,155 -47,188 -42,18 -129,17 -169,0 z m 117,-83 c 24,-21 23,-58 -2,-83 -29,-29 -90,0 -90,43 0,48 56,73 92,40 z m -3,-219 c 19,-16 31,-35 31,-50 0,-29 -33,-64 -60,-64 -27,0 -70,43 -70,70 0,21 41,70 59,70 5,0 23,-12 40,-26 z" inkscape:connector-curvature="0" id="path52" />
    <path d="m 29930,22529 c -24,-11 -46,-22 -48,-23 -6,-6 21,-86 28,-86 4,0 21,7 36,15 41,21 107,19 127,-3 21,-23 22,-64 3,-100 -8,-15 -57,-69 -110,-121 -84,-82 -96,-98 -96,-127 l 0,-34 175,0 175,0 0,50 0,50 -85,0 -86,0 59,58 c 73,71 102,125 102,190 0,60 -30,109 -80,134 -48,25 -142,23 -200,-3 z" inkscape:connector-curvature="0" id="path54" />
    <path d="m 31935,22536 c -50,-22 -77,-60 -83,-114 -4,-44 -1,-53 26,-84 l 31,-35 -34,-32 c -40,-37 -52,-84 -36,-134 21,-63 84,-97 179,-97 106,0 182,62 182,150 0,42 -31,96 -63,111 l -23,11 33,33 c 26,26 33,41 33,72 0,49 -29,95 -73,116 -42,20 -130,22 -172,3 z m 119,-82 c 20,-20 20,-53 0,-82 -19,-27 -34,-28 -68,-1 -44,35 -26,99 29,99 13,0 31,-7 39,-16 z m -15,-209 c 47,-24 57,-83 19,-109 -32,-22 -55,-20 -83,9 -30,30 -31,54 -4,89 24,30 30,31 68,11 z" inkscape:connector-curvature="0" id="path56" />
    <path d="m 32345,22534 c -126,-65 -144,-226 -33,-294 39,-24 111,-26 150,-6 24,13 26,12 21,-2 -22,-60 -89,-102 -161,-102 l -42,0 0,-45 0,-45 48,0 c 169,0 282,116 282,289 0,143 -66,221 -187,221 -26,0 -61,-7 -78,-16 z m 111,-82 c 19,-13 34,-50 34,-86 0,-59 -68,-88 -110,-46 -24,24 -27,86 -4,118 15,22 57,30 80,14 z" inkscape:connector-curvature="0" id="path58" />
    <path d="m 33135,22536 c -123,-55 -142,-229 -33,-296 40,-24 124,-27 156,-5 20,15 21,15 15,-2 -22,-61 -89,-103 -161,-103 l -42,0 0,-46 0,-47 73,5 c 122,8 210,74 241,179 42,139 2,277 -91,315 -41,18 -119,17 -158,0 z m 111,-84 c 34,-23 46,-110 18,-133 -24,-20 -84,-16 -100,6 -19,25 -18,85 2,113 15,22 57,30 80,14 z" inkscape:connector-curvature="0" id="path60" />
    <path d="m 33518,22528 c -27,-11 -48,-25 -48,-30 0,-17 29,-78 37,-78 4,0 17,7 27,15 27,20 110,20 130,-1 22,-22 20,-73 -5,-114 -12,-19 -62,-73 -110,-119 -77,-73 -89,-89 -89,-118 l 0,-33 175,0 175,0 0,50 0,50 -87,0 -86,0 62,61 c 72,70 100,124 101,190 0,56 -30,106 -80,131 -49,25 -142,23 -202,-4 z" inkscape:connector-curvature="0" id="path62" />
    <path d="m 16690,21715 c 0,-52 -2,-95 -5,-95 -4,0 -20,7 -37,16 -67,35 -160,-1 -198,-76 -22,-44 -27,-140 -9,-187 36,-97 153,-131 229,-67 l 30,26 0,-26 c 0,-25 3,-26 50,-26 l 50,0 0,265 0,265 -55,0 -55,0 0,-95 z m -25,-175 c 22,-24 30,-96 16,-133 -6,-15 -22,-32 -35,-38 -61,-28 -112,27 -103,108 6,55 30,83 72,83 19,0 39,-8 50,-20 z" inkscape:connector-curvature="0" id="path64" />
    <path d="m 22400,21545 0,-265 55,0 55,0 0,265 0,265 -55,0 -55,0 0,-265 z" inkscape:connector-curvature="0" id="path66" />
    <path d="m 17540,21789 c -54,-17 -87,-46 -105,-93 -33,-85 18,-165 126,-201 78,-26 110,-73 74,-108 -29,-29 -104,-30 -178,-2 -12,5 -18,-3 -27,-34 -6,-23 -8,-46 -5,-51 9,-15 117,-33 171,-27 89,9 146,50 165,119 22,82 -27,155 -130,194 -73,27 -92,43 -89,73 5,41 49,57 117,43 61,-13 63,-12 79,36 11,31 10,33 -16,43 -39,16 -141,20 -182,8 z" inkscape:connector-curvature="0" id="path68" />
    <path d="m 17935,21746 c 43,-50 51,-56 86,-56 l 39,0 -30,53 -29,52 -57,3 -56,3 47,-55 z" inkscape:connector-curvature="0" id="path70" />
    <path d="m 23880,21535 0,-255 55,0 55,0 0,100 0,100 90,0 90,0 0,45 0,44 -87,3 -88,3 0,60 0,60 98,3 97,3 0,44 0,45 -155,0 -155,0 0,-255 z" inkscape:connector-curvature="0" id="path72" />
    <path d="m 15335,21639 c -11,-6 -30,-23 -42,-38 l -23,-26 0,33 c 0,32 0,32 -51,32 -48,0 -51,-1 -45,-22 3,-13 6,-94 6,-180 l 0,-158 55,0 55,0 0,110 c 0,127 12,150 75,150 l 35,0 0,55 c 0,50 -2,55 -22,55 -13,0 -32,-5 -43,-11 z" inkscape:connector-curvature="0" id="path74" />
    <path d="m 15993,21639 c -66,-19 -123,-102 -123,-179 0,-124 95,-200 235,-187 90,9 98,13 91,55 -3,19 -7,36 -8,38 -2,1 -24,-2 -50,-7 -57,-13 -121,2 -143,34 -8,12 -15,25 -15,29 0,5 54,8 120,8 l 120,0 0,50 c 0,126 -99,196 -227,159 z m 110,-87 c 35,-31 21,-42 -53,-42 -38,0 -70,3 -70,6 0,16 24,46 43,54 26,10 55,4 80,-18 z" inkscape:connector-curvature="0" id="path76" />
    <path d="m 16993,21639 c -66,-19 -123,-102 -123,-179 0,-124 95,-200 235,-187 90,9 98,13 91,55 -3,19 -7,36 -8,38 -2,1 -24,-2 -50,-7 -57,-13 -121,2 -143,34 -8,12 -15,25 -15,29 0,5 54,8 120,8 l 120,0 0,50 c 0,126 -99,196 -227,159 z m 110,-87 c 35,-31 21,-42 -53,-42 -38,0 -70,3 -70,6 0,16 24,46 43,54 26,10 55,4 80,-18 z" inkscape:connector-curvature="0" id="path78" />
    <path d="m 17943,21639 c -66,-19 -123,-102 -123,-179 0,-124 95,-200 235,-187 90,9 98,13 91,55 -3,19 -7,36 -8,38 -2,1 -24,-2 -50,-7 -57,-13 -121,2 -143,34 -8,12 -15,25 -15,29 0,5 54,8 120,8 l 120,0 0,50 c 0,126 -99,196 -227,159 z m 110,-87 c 35,-31 21,-42 -53,-42 -38,0 -70,3 -70,6 0,16 24,46 43,54 26,10 55,4 80,-18 z" inkscape:connector-curvature="0" id="path80" />
    <path d="m 18795,21639 c -11,-6 -30,-23 -42,-38 l -23,-26 0,33 c 0,32 0,32 -51,32 -48,0 -51,-1 -45,-22 3,-13 6,-94 6,-180 l 0,-158 55,0 55,0 0,110 c 0,127 12,150 75,150 l 35,0 0,55 c 0,50 -2,55 -22,55 -13,0 -32,-5 -43,-11 z" inkscape:connector-curvature="0" id="path82" />
    <path d="m 19013,21639 c -66,-19 -123,-102 -123,-179 0,-124 95,-200 235,-187 90,9 98,13 91,55 -3,19 -7,36 -8,38 -2,1 -24,-2 -50,-7 -57,-13 -121,2 -143,34 -8,12 -15,25 -15,29 0,5 54,8 120,8 l 120,0 0,50 c 0,126 -99,196 -227,159 z m 110,-87 c 35,-31 21,-42 -53,-42 -38,0 -70,3 -70,6 0,16 24,46 43,54 26,10 55,4 80,-18 z" inkscape:connector-curvature="0" id="path84" />
    <path d="m 19395,21643 c -53,-15 -95,-66 -95,-117 0,-36 46,-82 105,-104 95,-37 58,-90 -43,-63 -25,6 -46,10 -49,8 -2,-3 -8,-18 -13,-36 -10,-36 2,-46 68,-57 99,-16 185,24 198,92 11,59 -11,92 -85,128 -48,23 -66,37 -66,51 0,17 7,20 45,20 25,-1 51,-3 59,-5 19,-6 39,56 24,71 -12,12 -118,21 -148,12 z" inkscape:connector-curvature="0" id="path86" />
    <path d="m 22114,21636 c -18,-8 -35,-19 -38,-25 -11,-18 -26,-13 -26,9 0,17 -7,20 -51,20 l -51,0 6,-31 c 3,-17 6,-132 6,-255 l 0,-224 55,0 55,0 0,92 c 0,90 0,91 20,73 11,-10 40,-20 67,-22 61,-5 118,26 151,82 19,34 22,51 20,117 -2,59 -8,83 -24,105 -50,67 -121,89 -190,59 z m 76,-96 c 37,-37 39,-122 4,-161 -23,-25 -78,-25 -104,1 -28,28 -28,117 1,154 25,32 70,35 99,6 z" inkscape:connector-curvature="0" id="path88" />
    <path d="m 22655,21637 c -37,-12 -40,-15 -37,-47 3,-43 5,-44 43,-31 49,17 103,14 122,-7 10,-10 17,-21 17,-24 0,-3 -24,-8 -54,-11 -132,-13 -198,-96 -151,-187 30,-59 105,-76 175,-40 34,17 40,18 40,5 0,-11 12,-15 50,-15 l 50,0 0,128 c 0,140 -11,178 -63,216 -34,25 -134,31 -192,13 z m 145,-221 c 0,-57 -76,-91 -100,-46 -22,41 12,78 73,79 24,1 27,-2 27,-33 z" inkscape:connector-curvature="0" id="path90" />
    <path d="m 23107,21635 c -80,-28 -120,-89 -121,-181 0,-72 26,-121 82,-156 30,-19 51,-23 114,-23 42,0 81,5 86,10 5,6 7,26 5,46 l -5,35 -53,-4 c -50,-4 -57,-2 -85,26 -42,43 -42,101 0,144 27,27 36,30 81,26 46,-3 50,-1 55,22 3,14 8,32 10,41 8,30 -101,39 -169,14 z" inkscape:connector-curvature="0" id="path92" />
    <path d="m 23433,21639 c -66,-19 -123,-102 -123,-179 0,-124 95,-200 235,-187 90,9 98,13 91,55 -3,19 -7,36 -8,38 -2,1 -24,-2 -50,-7 -57,-13 -121,2 -143,34 -8,12 -15,25 -15,29 0,5 54,8 120,8 l 120,0 0,50 c 0,126 -99,196 -227,159 z m 110,-87 c 35,-31 21,-42 -53,-42 -38,0 -70,3 -70,6 0,16 24,46 43,54 26,10 55,4 80,-18 z" inkscape:connector-curvature="0" id="path94" />
    <path d="m 24295,21637 c -37,-12 -40,-15 -37,-47 3,-43 5,-44 43,-31 49,17 103,14 122,-7 10,-10 17,-21 17,-24 0,-3 -24,-8 -54,-11 -132,-13 -198,-96 -151,-187 30,-59 105,-76 175,-40 34,17 40,18 40,5 0,-11 12,-15 50,-15 l 50,0 0,128 c 0,140 -11,178 -63,216 -34,25 -134,31 -192,13 z m 145,-221 c 0,-57 -76,-91 -100,-46 -22,41 12,78 73,79 24,1 27,-2 27,-33 z" inkscape:connector-curvature="0" id="path96" />
    <path d="m 24805,21639 c -11,-6 -30,-23 -42,-38 l -23,-26 0,33 c 0,32 0,32 -51,32 -48,0 -51,-1 -45,-22 3,-13 6,-94 6,-180 l 0,-158 55,0 55,0 0,110 c 0,127 12,150 75,150 l 35,0 0,55 c 0,50 -2,55 -22,55 -13,0 -32,-5 -43,-11 z" inkscape:connector-curvature="0" id="path98" />
    <path d="m 25010,21643 c -68,-26 -110,-94 -110,-180 0,-70 22,-119 69,-150 46,-31 118,-31 156,-1 l 28,22 -6,-44 c -4,-29 -14,-51 -27,-62 -25,-20 -93,-24 -136,-8 -33,13 -40,6 -49,-41 l -7,-37 52,-12 c 72,-17 164,-7 211,25 58,38 68,78 71,298 l 3,187 -47,0 c -41,0 -48,-3 -48,-20 0,-18 -2,-18 -36,5 -35,24 -88,31 -124,18 z m 124,-105 c 24,-34 21,-123 -4,-148 -25,-25 -61,-26 -91,-1 -20,16 -24,29 -24,74 0,40 5,61 19,76 26,29 80,28 100,-1 z" inkscape:connector-curvature="0" id="path100" />
    <path d="m 25893,21639 c -66,-19 -123,-102 -123,-179 0,-124 95,-200 235,-187 90,9 98,13 91,55 -3,19 -7,36 -8,38 -2,1 -24,-2 -50,-7 -57,-13 -121,2 -143,34 -8,12 -15,25 -15,29 0,5 54,8 120,8 l 120,0 0,50 c 0,126 -99,196 -227,159 z m 110,-87 c 35,-31 21,-42 -53,-42 -38,0 -70,3 -70,6 0,16 24,46 43,54 26,10 55,4 80,-18 z" inkscape:connector-curvature="0" id="path102" />
    <path d="m 15460,21504 c 0,-156 11,-193 65,-218 56,-27 114,-18 154,25 l 21,23 0,-27 c 0,-26 2,-27 50,-27 l 50,0 0,180 0,180 -55,0 -55,0 0,-115 c 0,-110 -1,-117 -25,-140 -29,-30 -49,-31 -75,-5 -18,18 -20,33 -20,140 l 0,120 -55,0 -55,0 0,-136 z" inkscape:connector-curvature="0" id="path104" />
    <path d="m 18200,21633 c 0,-5 29,-84 64,-178 l 64,-170 59,0 58,0 66,175 66,175 -54,3 c -31,2 -58,1 -61,-3 -3,-3 -20,-58 -37,-122 -32,-117 -36,-123 -49,-68 -4,17 -19,67 -32,113 l -25,82 -60,0 c -32,0 -59,-3 -59,-7 z" inkscape:connector-curvature="0" id="path106" />
    <path d="m 25360,21504 c 0,-156 11,-193 65,-218 56,-27 114,-18 154,25 l 21,23 0,-27 c 0,-26 2,-27 50,-27 l 50,0 0,180 0,180 -55,0 -55,0 0,-115 c 0,-110 -1,-117 -25,-140 -29,-30 -49,-31 -75,-5 -18,18 -20,33 -20,140 l 0,120 -55,0 -55,0 0,-136 z" inkscape:connector-curvature="0" id="path108" />
    <path d="m 17275,20874 c -51,-13 -112,-36 -128,-48 -17,-13 -16,-16 3,-62 12,-27 23,-50 24,-52 2,-1 19,7 39,18 86,51 189,28 203,-45 12,-64 -31,-129 -172,-262 -122,-114 -124,-117 -124,-160 l 0,-43 230,0 230,0 0,60 0,60 -121,0 -121,0 89,88 c 110,107 138,159 138,253 0,55 -5,72 -28,107 -36,55 -94,84 -177,88 -36,2 -74,1 -85,-2 z" inkscape:connector-curvature="0" id="path110" />
    <path d="m 23913,20870 c -23,-5 -55,-16 -72,-25 -27,-13 -30,-20 -25,-43 8,-33 22,-72 26,-72 2,0 25,7 52,15 69,21 118,19 150,-6 66,-52 9,-119 -100,-119 l -44,0 0,-55 0,-55 49,0 c 60,0 92,-11 120,-41 28,-30 27,-71 -2,-105 -32,-37 -109,-44 -189,-17 l -58,20 -15,-55 c -14,-45 -14,-56 -3,-63 32,-21 100,-33 183,-34 79,0 97,3 148,28 76,38 111,88 111,161 0,66 -30,118 -84,143 -44,20 -49,29 -22,37 10,4 31,20 47,36 22,23 29,42 33,83 6,69 -14,108 -73,142 -50,30 -157,41 -232,25 z" inkscape:connector-curvature="0" id="path112" />
    <path d="m 16795,19976 c -73,-33 -103,-110 -68,-176 30,-56 501,-686 534,-714 58,-49 131,-53 195,-11 14,9 57,59 96,113 39,53 154,208 255,345 101,136 188,259 193,273 28,71 0,143 -66,170 -48,20 -1094,20 -1139,0 z m 967,-220 c -97,-131 -377,-510 -388,-525 -9,-12 -24,3 -82,81 -39,53 -135,183 -214,289 -79,107 -147,200 -152,207 -6,9 85,12 438,12 l 446,0 -48,-64 z" inkscape:connector-curvature="0" id="path114" />
    <path d="m 23461,19976 c -40,-14 -81,-58 -82,-89 -2,-39 3,-72 14,-92 15,-29 485,-665 515,-697 35,-38 102,-62 147,-54 19,4 51,21 70,37 50,44 530,697 544,740 21,66 -7,128 -70,153 -34,14 -108,16 -572,15 -392,0 -541,-4 -566,-13 z m 1003,-168 c -16,-25 -407,-553 -423,-571 -16,-16 -23,-9 -122,125 -58,79 -158,214 -222,301 l -117,157 446,0 c 353,0 444,-3 438,-12 z" inkscape:connector-curvature="0" id="path116" />
    <path d="m 16530,17252 0,-1659 182,-6 c 99,-4 864,-7 1699,-7 l 1518,0 3,-27 c 2,-16 2,-281 0,-590 l -2,-563 -3256,-2 -3256,-3 1,-2172 2,-2173 -1058,-2 -1058,-3 0,-125 0,-125 1183,-2 1182,-3 0,1395 0,1395 495,0 495,0 0,65 0,65 -495,0 -495,0 0,720 0,720 1490,0 1490,0 0,-720 0,-720 -500,0 -500,0 0,-65 0,-65 560,0 560,0 2,783 3,782 1702,3 1701,2 5,68 c 7,111 8,1514 1,1565 l -7,47 -1698,0 -1699,0 0,1540 0,1540 -125,0 -125,0 0,-1658 z" inkscape:connector-curvature="0" id="path118" />
    <path d="m 17970,17981 c 0,-511 3,-936 6,-945 6,-14 259,-16 2715,-16 l 2709,0 0,945 0,945 -125,0 -125,0 0,-820 0,-820 -2460,0 -2460,0 0,820 0,820 -130,0 -130,0 0,-929 z" inkscape:connector-curvature="0" id="path120" />
    <path d="m 24630,17245 0,-1665 125,0 125,0 0,1665 0,1665 -125,0 -125,0 0,-1665 z" inkscape:connector-curvature="0" id="path122" />
    <path d="m 16830,18565 0,-165 535,0 535,0 0,165 0,165 -535,0 -535,0 0,-165 z" inkscape:connector-curvature="0" id="path124" />
    <path d="m 23490,18565 0,-165 535,0 535,0 0,165 0,165 -535,0 -535,0 0,-165 z" inkscape:connector-curvature="0" id="path126" />
    <path d="m 16925,18250 c -7,-11 -5,-209 2,-227 4,-10 101,-13 439,-13 l 434,0 0,125 0,125 -434,0 c -275,0 -437,-4 -441,-10 z" inkscape:connector-curvature="0" id="path128" />
    <path d="m 23590,18135 0,-125 435,0 435,0 0,125 0,125 -435,0 -435,0 0,-125 z" inkscape:connector-curvature="0" id="path130" />
    <path d="m 17020,17755 0,-85 340,0 340,0 0,85 0,85 -340,0 -340,0 0,-85 z" inkscape:connector-curvature="0" id="path132" />
    <path d="m 23690,17755 0,-85 340,0 341,0 -3,83 -3,82 -337,3 -338,2 0,-85 z" inkscape:connector-curvature="0" id="path134" />
    <path d="m 17972,16428 3,-533 160,-2 c 116,-2 161,1 167,10 4,7 8,247 8,535 l 0,522 -170,0 -170,0 2,-532 z" inkscape:connector-curvature="0" id="path136" />
    <path d="m 18447,16857 c -3,-8 -6,-206 -7,-441 l -1,-426 131,0 131,0 -1,434 c -1,328 -4,436 -13,439 -7,3 -62,5 -123,6 -89,2 -113,-1 -117,-12 z" inkscape:connector-curvature="0" id="path138" />
    <path d="m 18870,16430 0,-340 85,0 85,0 0,340 0,340 -85,0 -85,0 0,-340 z" inkscape:connector-curvature="0" id="path140" />
    <path d="m 21345,15758 c -3,-40 -5,-419 -3,-843 l 3,-770 878,4 877,3 0,-2136 0,-2136 3190,0 3190,0 0,125 0,125 -3065,0 -3065,0 0,2135 0,2135 -875,0 -875,0 0,590 0,590 1510,0 1510,0 0,125 0,125 -1634,0 -1634,0 -7,-72 z" inkscape:connector-curvature="0" id="path142" />
    <path d="m 14280,13499 c -13,-5 -32,-17 -41,-25 -16,-14 -18,-13 -24,5 -5,18 -15,21 -56,21 l -49,0 0,-255 0,-255 60,0 60,0 0,92 c 0,90 0,91 20,73 10,-9 39,-20 62,-22 85,-10 156,46 177,138 27,119 -37,228 -136,235 -26,2 -59,-1 -73,-7 z m 55,-85 c 22,-9 45,-57 45,-94 0,-85 -79,-133 -130,-78 -31,33 -28,121 5,153 24,25 49,31 80,19 z" inkscape:connector-curvature="0" id="path144" />
    <path d="m 14694,13474 -34,-35 0,30 c 0,30 -1,31 -50,31 l -50,0 0,-180 0,-180 60,0 60,0 0,104 c 0,89 3,107 21,130 15,19 30,26 55,26 l 34,0 0,55 c 0,55 0,55 -31,55 -23,0 -41,-10 -65,-36 z" inkscape:connector-curvature="0" id="path146" />
    <path d="m 14925,13491 c -48,-22 -69,-44 -90,-94 -29,-70 -10,-174 41,-219 35,-31 92,-48 156,-47 107,2 129,16 114,72 -5,21 -10,22 -85,19 -75,-4 -81,-2 -105,22 -14,14 -26,30 -26,36 0,6 43,10 119,10 108,0 120,2 126,19 8,27 -12,109 -35,141 -41,58 -138,77 -215,41 z m 129,-83 c 9,-12 16,-26 16,-30 0,-5 -31,-8 -70,-8 -74,0 -83,7 -50,40 28,28 84,27 104,-2 z" inkscape:connector-curvature="0" id="path148" />
    <path d="m 15304,13496 c -69,-31 -94,-107 -52,-161 12,-15 45,-38 74,-51 59,-26 71,-39 54,-59 -16,-19 -61,-19 -104,-1 -34,14 -34,14 -41,-12 -3,-15 -8,-34 -11,-43 -10,-34 135,-52 200,-25 101,42 101,159 -1,206 -72,33 -78,36 -78,50 0,26 32,35 77,23 24,-6 44,-11 45,-10 0,1 4,19 8,39 7,34 5,39 -20,48 -37,14 -114,12 -151,-4 z" inkscape:connector-curvature="0" id="path150" />
    <path d="m 15624,13496 c -69,-31 -94,-107 -52,-161 12,-15 45,-38 74,-51 59,-26 71,-39 54,-59 -16,-19 -61,-19 -104,-1 -34,14 -34,14 -41,-12 -3,-15 -8,-34 -11,-43 -10,-34 135,-52 200,-25 101,42 101,159 -1,206 -72,33 -78,36 -78,50 0,26 32,35 77,23 24,-6 44,-11 45,-10 0,1 4,19 8,39 7,34 5,39 -20,48 -37,14 -114,12 -151,-4 z" inkscape:connector-curvature="0" id="path152" />
    <path d="m 15975,13491 c -48,-22 -69,-44 -90,-94 -29,-70 -10,-174 41,-219 35,-31 92,-48 156,-47 107,2 129,16 114,72 -5,21 -10,22 -85,19 -75,-4 -81,-2 -105,22 -14,14 -26,30 -26,36 0,6 43,10 119,10 108,0 120,2 126,19 8,27 -12,109 -35,141 -41,58 -138,77 -215,41 z m 129,-83 c 9,-12 16,-26 16,-30 0,-5 -31,-8 -70,-8 -74,0 -83,7 -50,40 28,28 84,27 104,-2 z" inkscape:connector-curvature="0" id="path154" />
    <path d="m 24920,10808 c 0,-134 -3,-253 -6,-265 -6,-22 -3,-23 45,-23 48,0 51,1 51,26 l 0,27 26,-26 c 66,-66 193,-35 234,56 28,61 27,160 -3,211 -43,75 -140,97 -208,47 l -29,-22 0,106 0,105 -55,0 -55,0 0,-242 z m 236,-29 c 14,-16 19,-36 19,-81 0,-51 -4,-63 -24,-79 -31,-25 -69,-24 -98,3 -32,30 -33,123 -3,156 27,29 80,29 106,1 z" inkscape:connector-curvature="0" id="path156" />
    <path d="m 25610,10955 c 0,-52 -2,-95 -5,-95 -4,0 -20,7 -37,16 -67,35 -160,-1 -198,-76 -22,-44 -27,-140 -9,-187 36,-97 153,-131 229,-67 l 30,26 0,-26 c 0,-25 3,-26 50,-26 l 50,0 0,265 0,265 -55,0 -55,0 0,-95 z m -25,-175 c 22,-24 30,-96 16,-133 -6,-15 -22,-32 -35,-38 -61,-28 -112,27 -103,108 6,55 30,83 72,83 19,0 39,-8 50,-20 z" inkscape:connector-curvature="0" id="path158" />
    <path d="m 26210,10955 c 0,-52 -2,-95 -5,-95 -4,0 -20,7 -37,16 -67,35 -160,-1 -198,-76 -22,-44 -27,-140 -9,-187 36,-97 153,-131 229,-67 l 30,26 0,-26 c 0,-25 3,-26 50,-26 l 50,0 0,265 0,265 -55,0 -55,0 0,-95 z m -25,-175 c 22,-24 30,-96 16,-133 -6,-15 -22,-32 -35,-38 -61,-28 -112,27 -103,108 6,55 30,83 72,83 19,0 39,-8 50,-20 z" inkscape:connector-curvature="0" id="path160" />
    <path d="m 27030,10996 c 0,-38 -17,-304 -26,-409 l -5,-68 53,3 53,3 10,200 c 10,197 10,199 23,140 7,-33 29,-122 49,-197 l 37,-138 46,0 46,0 54,183 c 29,100 57,189 62,197 4,8 8,-55 8,-141 0,-86 3,-177 6,-203 l 7,-46 54,0 c 50,0 53,1 49,23 -3,12 -7,85 -11,162 -3,77 -8,182 -11,233 l -7,92 -73,0 -72,0 -26,-77 c -14,-43 -37,-120 -50,-172 -14,-51 -27,-95 -29,-98 -3,-2 -7,16 -11,39 -3,24 -23,103 -44,176 l -37,132 -77,0 -78,0 0,-34 z" inkscape:connector-curvature="0" id="path162" />
    <path d="m 28573,10962 c -51,-14 -53,-16 -53,-48 0,-30 -3,-34 -25,-34 -22,0 -25,-4 -25,-40 0,-36 3,-40 25,-40 25,0 25,0 25,-95 0,-60 5,-108 14,-130 17,-39 60,-65 110,-65 56,0 66,8 66,51 0,35 -3,39 -24,39 -46,0 -57,24 -54,114 l 3,81 38,3 c 36,3 37,4 37,43 0,39 0,39 -39,39 l -40,0 -3,48 -3,49 -52,-15 z" inkscape:connector-curvature="0" id="path164" />
    <path d="m 27714,10866 c -66,-34 -97,-87 -98,-165 -1,-109 60,-177 168,-188 47,-5 64,-2 109,20 71,35 101,86 101,172 0,108 -62,173 -172,182 -47,4 -65,0 -108,-21 z m 135,-75 c 11,-11 23,-36 27,-55 20,-110 -54,-187 -117,-120 -20,21 -24,36 -24,86 0,53 3,62 28,84 34,29 60,31 86,5 z" inkscape:connector-curvature="0" id="path166" />
    <path d="m 28234,10876 c -18,-8 -35,-19 -38,-25 -11,-18 -26,-13 -26,9 0,17 -7,20 -51,20 l -51,0 6,-31 c 3,-17 6,-98 6,-180 l 0,-149 55,0 55,0 0,120 c 0,107 2,122 20,140 11,11 29,20 40,20 11,0 29,-9 40,-20 18,-18 20,-33 20,-140 l 0,-120 55,0 55,0 0,139 c 0,127 -2,141 -23,172 -39,57 -97,73 -163,45 z" inkscape:connector-curvature="0" id="path168" />
    <path d="m 28944,10876 c -18,-8 -35,-19 -38,-25 -11,-18 -26,-13 -26,9 0,17 -7,20 -51,20 l -51,0 6,-31 c 3,-17 6,-132 6,-255 l 0,-224 55,0 55,0 0,92 c 0,90 0,91 20,73 11,-10 40,-20 67,-22 61,-5 118,26 151,82 19,34 22,51 20,117 -2,59 -8,83 -24,105 -50,67 -121,89 -190,59 z m 76,-96 c 37,-37 39,-122 4,-161 -23,-25 -78,-25 -104,1 -28,28 -28,117 1,154 25,32 70,35 99,6 z" inkscape:connector-curvature="0" id="path170" />
    <path d="m 29285,10877 c -37,-12 -40,-15 -37,-47 3,-43 5,-44 43,-31 49,17 103,14 122,-7 10,-10 17,-21 17,-24 0,-3 -24,-8 -54,-11 -132,-13 -198,-96 -151,-187 30,-59 105,-76 175,-40 34,17 40,18 40,5 0,-11 12,-15 50,-15 l 50,0 0,128 c 0,140 -11,178 -63,216 -34,25 -134,31 -192,13 z m 145,-221 c 0,-57 -76,-91 -100,-46 -22,41 12,78 73,79 24,1 27,-2 27,-33 z" inkscape:connector-curvature="0" id="path172" />
    <path d="m 29785,10879 c -11,-6 -30,-23 -42,-38 l -23,-26 0,33 c 0,32 0,32 -51,32 -48,0 -51,-1 -45,-22 3,-13 6,-94 6,-180 l 0,-158 55,0 55,0 0,110 c 0,127 12,150 75,150 l 35,0 0,55 c 0,50 -2,55 -22,55 -13,0 -32,-5 -43,-11 z" inkscape:connector-curvature="0" id="path174" />
    <path d="m 30074,10876 c -18,-8 -35,-19 -38,-25 -11,-18 -26,-13 -26,9 0,17 -7,20 -51,20 l -51,0 6,-31 c 3,-17 6,-98 6,-180 l 0,-149 55,0 55,0 0,120 c 0,107 2,122 20,140 11,11 29,20 40,20 11,0 29,-9 40,-20 18,-18 20,-33 20,-140 l 0,-120 55,0 55,0 0,139 c 0,127 -2,141 -23,172 -39,57 -97,73 -163,45 z" inkscape:connector-curvature="0" id="path176" />
    <path d="m 30405,10877 c -37,-12 -40,-15 -37,-47 3,-43 5,-44 43,-31 49,17 103,14 122,-7 10,-10 17,-21 17,-24 0,-3 -24,-8 -54,-11 -132,-13 -198,-96 -151,-187 30,-59 105,-76 175,-40 34,17 40,18 40,5 0,-11 12,-15 50,-15 l 50,0 0,128 c 0,140 -11,178 -63,216 -34,25 -134,31 -192,13 z m 145,-221 c 0,-57 -76,-91 -100,-46 -22,41 12,78 73,79 24,1 27,-2 27,-33 z" inkscape:connector-curvature="0" id="path178" />
    <path d="m 30825,10883 c -53,-15 -95,-66 -95,-117 0,-36 46,-82 105,-104 95,-37 58,-90 -43,-63 -25,6 -46,10 -49,8 -2,-3 -8,-18 -13,-36 -10,-36 2,-46 68,-57 99,-16 185,24 198,92 11,59 -11,92 -85,128 -48,23 -66,37 -66,51 0,17 7,20 45,20 25,-1 51,-3 59,-5 19,-6 39,56 24,71 -12,12 -118,21 -148,12 z" inkscape:connector-curvature="0" id="path180" />
    <path d="m 31155,10883 c -53,-15 -95,-66 -95,-117 0,-36 46,-82 105,-104 95,-37 58,-90 -43,-63 -25,6 -46,10 -49,8 -2,-3 -8,-18 -13,-36 -10,-36 2,-46 68,-57 99,-16 185,24 198,92 11,59 -11,92 -85,128 -48,23 -66,37 -66,51 0,17 7,20 45,20 25,-1 51,-3 59,-5 19,-6 39,56 24,71 -12,12 -118,21 -148,12 z" inkscape:connector-curvature="0" id="path182" />
    <path d="m 31493,10879 c -66,-19 -123,-102 -123,-179 0,-124 95,-200 235,-187 90,9 98,13 91,55 -3,19 -7,36 -8,38 -2,1 -24,-2 -50,-7 -57,-13 -121,2 -143,34 -8,12 -15,25 -15,29 0,5 54,8 120,8 l 120,0 0,50 c 0,126 -99,196 -227,159 z m 110,-87 c 35,-31 21,-42 -53,-42 -38,0 -70,3 -70,6 0,16 24,46 43,54 26,10 55,4 80,-18 z" inkscape:connector-curvature="0" id="path184" />
    <path d="m 26420,10744 c 0,-156 11,-193 65,-218 56,-27 114,-18 154,25 l 21,23 0,-27 c 0,-26 2,-27 50,-27 l 50,0 0,180 0,180 -55,0 -55,0 0,-115 c 0,-110 -1,-117 -25,-140 -29,-30 -49,-31 -75,-5 -18,18 -20,33 -20,140 l 0,120 -55,0 -55,0 0,-136 z" inkscape:connector-curvature="0" id="path186" />
    <path d="m 19140,9945 0,-295 30,0 30,0 0,-295 0,-295 -30,0 -29,0 -3,-242 c -2,-134 -2,-685 0,-1225 l 3,-983 3129,0 3130,0 2,-1442 3,-1443 122,-3 122,-3 6,33 c 3,18 4,724 3,1568 l -3,1535 -3132,3 -3133,2 0,745 0,745 5045,0 5045,0 0,125 0,125 -4285,0 -4285,0 0,820 0,820 -885,0 -885,0 0,-295 z m 945,-290 c 14,-13 25,-36 25,-50 0,-36 -42,-75 -80,-75 -38,0 -80,39 -80,75 0,36 42,75 80,75 19,0 40,-9 55,-25 z m 15,-435 0,-240 -75,0 -75,0 0,240 0,240 75,0 75,0 0,-240 z" inkscape:connector-curvature="0" id="path188" />
    <path d="m 30535,9876 c -17,-7 -186,-128 -377,-270 -309,-228 -349,-261 -368,-302 -17,-33 -21,-56 -17,-86 10,-73 3,-67 489,-426 136,-100 259,-186 273,-192 72,-27 143,2 169,72 15,38 16,100 14,578 -3,590 -1,573 -67,617 -38,26 -72,28 -116,9 z m 15,-641 0,-446 -77,57 c -359,265 -523,388 -523,393 1,7 582,439 593,440 4,1 7,-199 7,-444 z" inkscape:connector-curvature="0" id="path190" />
    <path d="m 10284,9851 c -75,-34 -74,-26 -74,-639 0,-491 2,-540 18,-571 33,-66 96,-91 160,-65 43,17 705,507 732,541 43,54 44,136 2,192 -19,27 -625,482 -697,525 -57,34 -94,38 -141,17 z m 414,-424 c 155,-115 282,-210 282,-211 0,-2 -30,-26 -67,-53 -221,-163 -510,-377 -520,-385 -10,-8 -13,80 -13,436 0,429 1,447 18,434 10,-7 145,-107 300,-221 z" inkscape:connector-curvature="0" id="path192" />
    <path d="m 25600,9240 0,-530 23,-5 c 12,-3 87,-4 167,-3 l 145,3 3,533 2,532 -170,0 -170,0 0,-530 z" inkscape:connector-curvature="0" id="path194" />
    <path d="m 28970,9236 0,-534 165,-2 165,-1 0,536 0,535 -165,0 -165,0 0,-534 z" inkscape:connector-curvature="0" id="path196" />
    <path d="m 11480,9215 0,-535 165,0 164,0 6,33 c 3,17 5,257 3,532 l -3,500 -167,3 -168,2 0,-535 z" inkscape:connector-curvature="0" id="path198" />
    <path d="m 25216,9672 c -3,-5 -4,-202 -3,-438 l 2,-429 125,0 125,0 3,415 c 1,228 0,425 -3,438 -5,21 -9,22 -125,22 -65,0 -121,-4 -124,-8 z" inkscape:connector-curvature="0" id="path200" />
    <path d="m 28580,9240 0,-440 125,0 125,0 0,440 0,440 -125,0 -125,0 0,-440 z" inkscape:connector-curvature="0" id="path202" />
    <path d="m 11950,9215 0,-435 130,0 130,0 0,435 0,435 -130,0 -130,0 0,-435 z" inkscape:connector-curvature="0" id="path204" />
    <path d="m 24870,9240 0,-340 85,0 85,0 0,340 0,340 -85,0 -85,0 0,-340 z" inkscape:connector-curvature="0" id="path206" />
    <path d="m 28240,9240 0,-340 85,0 84,0 -2,338 -2,337 -82,3 -83,3 0,-341 z" inkscape:connector-curvature="0" id="path208" />
    <path d="m 12387,9554 c -4,-4 -7,-160 -7,-346 l 0,-340 83,4 82,3 3,334 c 1,235 -1,337 -9,341 -15,10 -143,12 -152,4 z" inkscape:connector-curvature="0" id="path210" />
    <path d="m 31112,9498 c -5,-7 -62,-97 -126,-201 -103,-166 -116,-192 -116,-232 l 0,-45 145,0 145,0 0,-80 0,-80 70,0 69,0 3,78 3,77 38,3 37,3 0,55 0,54 -40,0 -40,0 0,190 0,190 -89,0 c -59,0 -92,-4 -99,-12 z m 50,-238 -3,-130 -70,0 c -38,0 -69,3 -69,6 0,3 22,43 49,88 27,44 58,100 70,124 12,23 22,42 24,42 1,0 1,-58 -1,-130 z" inkscape:connector-curvature="0" id="path212" />
    <path d="m 9735,9452 c -44,-20 -82,-39 -84,-42 -6,-8 9,-99 18,-104 4,-3 31,6 60,20 29,13 55,24 57,24 2,0 4,-115 4,-255 l 0,-255 75,0 75,0 0,325 0,325 -62,0 c -52,0 -78,-7 -143,-38 z" inkscape:connector-curvature="0" id="path214" />
    <path d="m 3890,9218 c 0,-134 -3,-253 -6,-265 -6,-22 -3,-23 45,-23 48,0 51,1 51,26 l 0,27 26,-26 c 66,-66 193,-35 234,56 28,61 27,160 -3,211 -43,75 -140,97 -208,47 l -29,-22 0,106 0,105 -55,0 -55,0 0,-242 z m 236,-29 c 14,-16 19,-36 19,-81 0,-51 -4,-63 -24,-79 -31,-25 -69,-24 -98,3 -32,30 -33,123 -3,156 27,29 80,29 106,1 z" inkscape:connector-curvature="0" id="path216" />
    <path d="m 4580,9365 c 0,-52 -2,-95 -5,-95 -4,0 -20,7 -37,16 -67,35 -160,-1 -198,-76 -22,-44 -27,-140 -9,-187 36,-97 153,-131 229,-67 l 30,26 0,-26 c 0,-25 3,-26 50,-26 l 50,0 0,265 0,265 -55,0 -55,0 0,-95 z m -25,-175 c 22,-24 30,-96 16,-133 -6,-15 -22,-32 -35,-38 -61,-28 -112,27 -103,108 6,55 30,83 72,83 19,0 39,-8 50,-20 z" inkscape:connector-curvature="0" id="path218" />
    <path d="m 5180,9365 c 0,-52 -2,-95 -5,-95 -4,0 -20,7 -37,16 -67,35 -160,-1 -198,-76 -22,-44 -27,-140 -9,-187 36,-97 153,-131 229,-67 l 30,26 0,-26 c 0,-25 3,-26 50,-26 l 50,0 0,265 0,265 -55,0 -55,0 0,-95 z m -25,-175 c 22,-24 30,-96 16,-133 -6,-15 -22,-32 -35,-38 -61,-28 -112,27 -103,108 6,55 30,83 72,83 19,0 39,-8 50,-20 z" inkscape:connector-curvature="0" id="path220" />
    <path d="m 7690,9195 0,-265 55,0 55,0 0,265 0,265 -55,0 -55,0 0,-265 z" inkscape:connector-curvature="0" id="path222" />
    <path d="m 8340,9365 c 0,-52 -2,-95 -5,-95 -4,0 -20,7 -37,16 -67,35 -160,-1 -198,-76 -22,-44 -27,-140 -9,-187 36,-97 153,-131 229,-67 l 30,26 0,-26 c 0,-25 3,-26 50,-26 l 50,0 0,265 0,265 -55,0 -55,0 0,-95 z m -25,-175 c 22,-24 30,-96 16,-133 -6,-15 -22,-32 -35,-38 -61,-28 -112,27 -103,108 6,55 30,83 72,83 19,0 39,-8 50,-20 z" inkscape:connector-curvature="0" id="path224" />
    <path d="m 7896,9434 c -9,-8 -16,-24 -16,-35 0,-25 35,-59 60,-59 25,0 60,34 60,59 0,28 -27,51 -60,51 -16,0 -36,-7 -44,-16 z" inkscape:connector-curvature="0" id="path226" />
    <path d="m 6260,9185 0,-255 55,0 55,0 0,255 0,255 -55,0 -55,0 0,-255 z" inkscape:connector-curvature="0" id="path228" />
    <path d="m 5473,9289 c -66,-19 -123,-102 -123,-179 0,-124 95,-200 235,-187 90,9 98,13 91,55 -3,19 -7,36 -8,38 -2,1 -24,-2 -50,-7 -57,-13 -121,2 -143,34 -8,12 -15,25 -15,29 0,5 54,8 120,8 l 120,0 0,50 c 0,126 -99,196 -227,159 z m 110,-87 c 35,-31 21,-42 -53,-42 -38,0 -70,3 -70,6 0,16 24,46 43,54 26,10 55,4 80,-18 z" inkscape:connector-curvature="0" id="path230" />
    <path d="m 5855,9293 c -53,-15 -95,-66 -95,-117 0,-36 46,-82 105,-104 95,-37 58,-90 -43,-63 -25,6 -46,10 -49,8 -2,-3 -8,-18 -13,-36 -10,-36 2,-46 68,-57 99,-16 185,24 198,92 11,59 -11,92 -85,128 -48,23 -66,37 -66,51 0,17 7,20 45,20 25,-1 51,-3 59,-5 19,-6 39,56 24,71 -12,12 -118,21 -148,12 z" inkscape:connector-curvature="0" id="path232" />
    <path d="m 6624,9286 c -18,-8 -35,-19 -38,-25 -11,-18 -26,-13 -26,9 0,17 -7,20 -51,20 l -51,0 6,-31 c 3,-17 6,-98 6,-180 l 0,-149 55,0 55,0 0,120 c 0,107 2,122 20,140 11,11 29,20 40,20 11,0 29,-9 40,-20 18,-18 20,-33 20,-140 l 0,-120 55,0 55,0 0,139 c 0,127 -2,141 -23,172 -39,57 -97,73 -163,45 z" inkscape:connector-curvature="0" id="path234" />
    <path d="m 7335,9287 c -37,-12 -40,-15 -37,-47 3,-43 5,-44 43,-31 49,17 103,14 122,-7 10,-10 17,-21 17,-24 0,-3 -24,-8 -54,-11 -132,-13 -198,-96 -151,-187 30,-59 105,-76 175,-40 34,17 40,18 40,5 0,-11 12,-15 50,-15 l 50,0 0,128 c 0,140 -11,178 -63,216 -34,25 -134,31 -192,13 z m 145,-221 c 0,-57 -76,-91 -100,-46 -22,41 12,78 73,79 24,1 27,-2 27,-33 z" inkscape:connector-curvature="0" id="path236" />
    <path d="m 8643,9289 c -66,-19 -123,-102 -123,-179 0,-124 95,-200 235,-187 90,9 98,13 91,55 -3,19 -7,36 -8,38 -2,1 -24,-2 -50,-7 -57,-13 -121,2 -143,34 -8,12 -15,25 -15,29 0,5 54,8 120,8 l 120,0 0,50 c 0,126 -99,196 -227,159 z m 110,-87 c 35,-31 21,-42 -53,-42 -38,0 -70,3 -70,6 0,16 24,46 43,54 26,10 55,4 80,-18 z" inkscape:connector-curvature="0" id="path238" />
    <path d="m 9015,9293 c -53,-15 -95,-66 -95,-117 0,-36 46,-82 105,-104 95,-37 58,-90 -43,-63 -25,6 -46,10 -49,8 -2,-3 -8,-18 -13,-36 -10,-36 2,-46 68,-57 99,-16 185,24 198,92 11,59 -11,92 -85,128 -48,23 -66,37 -66,51 0,17 7,20 45,20 25,-1 51,-3 59,-5 19,-6 39,56 24,71 -12,12 -118,21 -148,12 z" inkscape:connector-curvature="0" id="path240" />
    <path d="m 6860,9283 c 0,-5 29,-84 64,-178 l 64,-170 59,0 58,0 66,175 66,175 -54,3 c -31,2 -58,1 -61,-3 -3,-3 -20,-58 -37,-122 -32,-117 -36,-123 -49,-68 -4,17 -19,67 -32,113 l -25,82 -60,0 c -32,0 -59,-3 -59,-7 z" inkscape:connector-curvature="0" id="path242" />
    <path d="m 7890,9110 0,-180 55,0 55,0 0,180 0,180 -55,0 -55,0 0,-180 z" inkscape:connector-curvature="0" id="path244" />
    <path d="m 18203,8690 c -54,-11 -91,-31 -125,-67 -56,-58 -58,-75 -58,-408 0,-168 -2,-305 -4,-305 -2,0 -82,36 -177,81 -96,45 -203,94 -238,111 -36,16 -82,38 -103,49 l -38,19 -27,-55 c -17,-34 -23,-58 -18,-63 6,-5 144,-71 308,-147 l 297,-138 0,-92 c 0,-57 6,-109 16,-138 20,-58 87,-123 141,-134 21,-4 191,-8 378,-8 304,0 345,2 387,18 56,22 112,81 128,134 8,26 10,184 8,513 -3,464 -3,476 -25,515 -24,46 -54,75 -103,101 -32,17 -64,19 -370,21 -184,1 -354,-2 -377,-7 z m 385,-186 22,-15 0,-362 1,-362 66,73 c 73,81 102,98 136,81 65,-34 53,-62 -89,-217 -70,-75 -138,-148 -151,-162 l -24,-25 -57,62 c -224,243 -242,264 -242,286 0,37 23,60 60,60 29,0 43,-11 106,-79 l 73,-79 1,362 0,362 22,15 c 12,9 29,16 38,16 9,0 26,-7 38,-16 z m -154,-270 c 9,-8 16,-21 16,-28 0,-32 -27,-37 -196,-34 -168,3 -169,3 -172,26 -7,48 8,52 179,52 130,0 160,-3 173,-16 z m 570,3 c 11,-8 17,-23 14,-38 l -3,-24 -169,-3 c -169,-3 -196,2 -196,34 0,7 7,20 16,28 21,21 310,24 338,3 z" inkscape:connector-curvature="0" id="path246" />
    <path d="m 11306,8578 c -3,-13 -6,-69 -6,-125 l 0,-103 2580,0 2580,0 0,-745 0,-745 -3625,0 -3625,0 0,-125 0,-125 3750,0 3750,0 1,73 c 0,39 0,296 -1,569 l -1,498 328,2 328,3 0,60 0,60 -328,3 -329,2 2,283 c 1,155 2,317 1,360 l -1,77 -2699,0 -2699,0 -6,-22 z" inkscape:connector-curvature="0" id="path248" />
    <path d="m 6221,6454 c -108,-29 -182,-73 -266,-158 -120,-121 -175,-251 -175,-412 1,-279 185,-511 460,-580 136,-35 311,-4 446,77 117,71 226,222 259,360 48,206 -8,402 -160,555 -86,87 -161,131 -270,159 -74,19 -222,18 -294,-1 z m 77,-426 c 29,-101 55,-202 58,-226 4,-23 10,-44 14,-47 3,-2 15,31 25,73 10,42 39,145 65,227 l 48,150 101,3 101,3 0,-38 c 0,-21 7,-150 15,-288 8,-137 15,-271 15,-297 l 0,-48 -69,0 -69,0 -6,63 c -3,34 -9,151 -13,260 l -8,199 -38,-129 c -21,-70 -56,-185 -78,-255 l -40,-128 -59,0 -59,0 -11,43 c -7,23 -27,96 -45,162 -19,66 -43,160 -54,208 -10,49 -21,90 -24,93 -2,2 -7,-80 -11,-183 -3,-104 -9,-221 -13,-260 l -6,-73 -69,0 -70,0 6,48 c 3,26 13,176 23,335 l 17,287 101,0 102,0 51,-182 z" inkscape:connector-curvature="0" id="path250" />
    <path d="m 7865,6193 c -11,-2 -40,-11 -63,-20 -43,-15 -44,-16 -37,-50 3,-19 10,-45 15,-58 l 9,-22 53,18 c 85,29 145,22 168,-22 27,-50 -34,-99 -125,-99 l -45,0 0,-55 0,-55 50,0 c 97,0 159,-47 145,-110 -14,-62 -99,-84 -203,-52 -34,11 -64,17 -66,13 -13,-25 -27,-104 -20,-111 19,-18 121,-40 184,-40 160,0 269,82 270,200 0,49 -38,111 -83,135 -20,11 -37,22 -37,25 0,3 14,14 30,25 45,29 73,95 65,146 -9,52 -64,110 -121,127 -39,11 -146,15 -189,5 z" inkscape:connector-curvature="0" id="path252" />
    <path d="m 7302,6150 c -67,-32 -82,-43 -78,-57 3,-10 8,-35 12,-55 3,-21 10,-38 15,-38 6,0 32,11 59,25 27,14 52,25 55,25 3,0 5,-115 5,-255 l 0,-255 75,0 75,0 0,325 0,325 -67,-1 c -57,0 -81,-6 -151,-39 z" inkscape:connector-curvature="0" id="path254" />
    <path d="m 8865,5985 c -243,-90 -277,-105 -255,-113 14,-5 140,-51 280,-102 140,-51 262,-95 270,-98 8,-3 -1,12 -20,35 -50,58 -73,129 -68,204 4,49 11,69 46,119 22,33 38,60 34,59 -4,-1 -133,-48 -287,-104 z" inkscape:connector-curvature="0" id="path256" />
    <path d="m 9156,5924 c -22,-21 -20,-67 2,-87 40,-36 102,-9 102,45 0,49 -69,78 -104,42 z" inkscape:connector-curvature="0" id="path258" />
    <path d="m 9416,5924 c -22,-21 -20,-67 2,-87 40,-37 102,-9 102,46 0,34 -24,57 -60,57 -16,0 -36,-7 -44,-16 z" inkscape:connector-curvature="0" id="path260" />
    <path d="m 9677,5922 c -36,-40 -9,-102 45,-102 49,0 78,69 42,104 -21,22 -67,20 -87,-2 z" inkscape:connector-curvature="0" id="path262" />
    <path d="m 9937,5922 c -36,-40 -9,-102 45,-102 48,0 79,67 48,105 -17,21 -73,19 -93,-3 z" inkscape:connector-curvature="0" id="path264" />
    <path d="m 10197,5922 c -34,-37 -8,-102 41,-102 52,0 81,43 60,88 -17,35 -75,43 -101,14 z" inkscape:connector-curvature="0" id="path266" />
    <path d="m 24765,5756 c -28,-28 -30,-38 -14,-69 23,-43 66,-50 99,-17 25,25 25,51 3,78 -30,34 -59,37 -88,8 z" inkscape:connector-curvature="0" id="path268" />
    <path d="m 24782,5509 c -12,-5 -27,-20 -34,-34 -23,-52 33,-101 87,-77 69,32 18,137 -53,111 z" inkscape:connector-curvature="0" id="path270" />
    <path d="m 24782,5249 c -53,-20 -51,-101 3,-115 59,-15 104,41 72,90 -18,28 -44,36 -75,25 z" inkscape:connector-curvature="0" id="path272" />
    <path d="m 9140,4995 0,-125 7408,-2 7407,-3 3,-572 2,-573 125,0 125,0 0,700 0,700 -7535,0 -7535,0 0,-125 z" inkscape:connector-curvature="0" id="path274" />
    <path d="m 24756,4968 c -22,-30 -20,-54 5,-79 29,-29 79,-23 99,14 13,24 13,30 0,55 -21,37 -81,44 -104,10 z" inkscape:connector-curvature="0" id="path276" />
    <path d="m 24761,4711 c -25,-25 -27,-49 -5,-79 23,-34 83,-27 104,11 13,24 13,30 0,55 -20,36 -70,42 -99,13 z" inkscape:connector-curvature="0" id="path278" />
    <path d="m 24697,4352 c 58,-158 106,-288 107,-290 3,-2 206,551 206,561 0,3 -23,-10 -51,-28 -115,-78 -232,-73 -331,13 l -35,32 104,-288 z" inkscape:connector-curvature="0" id="path280" />
    <path d="m 17430,4155 c 0,-52 -2,-95 -5,-95 -4,0 -20,7 -37,16 -67,35 -160,-1 -198,-76 -22,-44 -27,-140 -9,-187 36,-97 153,-131 229,-67 l 30,26 0,-26 c 0,-25 3,-26 50,-26 l 50,0 0,265 0,265 -55,0 -55,0 0,-95 z m -25,-175 c 22,-24 30,-96 16,-133 -6,-15 -22,-32 -35,-38 -61,-28 -112,27 -103,108 6,55 30,83 72,83 19,0 39,-8 50,-20 z" inkscape:connector-curvature="0" id="path282" />
    <path d="m 18280,4229 c -54,-17 -87,-46 -105,-93 -33,-85 18,-165 126,-201 78,-26 110,-73 74,-108 -29,-29 -104,-30 -178,-2 -12,5 -18,-3 -27,-34 -6,-23 -8,-46 -5,-51 9,-15 117,-33 171,-27 89,9 146,50 165,119 22,82 -27,155 -130,194 -73,27 -92,43 -89,73 5,41 49,57 117,43 61,-13 63,-12 79,36 11,31 10,33 -16,43 -39,16 -141,20 -182,8 z" inkscape:connector-curvature="0" id="path284" />
    <path d="m 18675,4186 c 43,-50 51,-56 86,-56 l 39,0 -30,53 -29,52 -57,3 -56,3 47,-55 z" inkscape:connector-curvature="0" id="path286" />
    <path d="m 16075,4079 c -11,-6 -30,-23 -42,-38 l -23,-26 0,33 c 0,32 0,32 -51,32 -48,0 -51,-1 -45,-22 3,-13 6,-94 6,-180 l 0,-158 55,0 55,0 0,110 c 0,127 12,150 75,150 l 35,0 0,55 c 0,50 -2,55 -22,55 -13,0 -32,-5 -43,-11 z" inkscape:connector-curvature="0" id="path288" />
    <path d="m 16733,4079 c -66,-19 -123,-102 -123,-179 0,-124 95,-200 235,-187 90,9 98,13 91,55 -3,19 -7,36 -8,38 -2,1 -24,-2 -50,-7 -57,-13 -121,2 -143,34 -8,12 -15,25 -15,29 0,5 54,8 120,8 l 120,0 0,50 c 0,126 -99,196 -227,159 z m 110,-87 c 35,-31 21,-42 -53,-42 -38,0 -70,3 -70,6 0,16 24,46 43,54 26,10 55,4 80,-18 z" inkscape:connector-curvature="0" id="path290" />
    <path d="m 17723,4079 c -66,-19 -123,-102 -123,-179 0,-124 95,-200 235,-187 90,9 98,13 91,55 -3,19 -7,36 -8,38 -2,1 -24,-2 -50,-7 -57,-13 -121,2 -143,34 -8,12 -15,25 -15,29 0,5 54,8 120,8 l 120,0 0,50 c 0,126 -99,196 -227,159 z m 110,-87 c 35,-31 21,-42 -53,-42 -38,0 -70,3 -70,6 0,16 24,46 43,54 26,10 55,4 80,-18 z" inkscape:connector-curvature="0" id="path292" />
    <path d="m 18683,4079 c -66,-19 -123,-102 -123,-179 0,-124 95,-200 235,-187 90,9 98,13 91,55 -3,19 -7,36 -8,38 -2,1 -24,-2 -50,-7 -57,-13 -121,2 -143,34 -8,12 -15,25 -15,29 0,5 54,8 120,8 l 120,0 0,50 c 0,126 -99,196 -227,159 z m 110,-87 c 35,-31 21,-42 -53,-42 -38,0 -70,3 -70,6 0,16 24,46 43,54 26,10 55,4 80,-18 z" inkscape:connector-curvature="0" id="path294" />
    <path d="m 19535,4079 c -11,-6 -30,-23 -42,-38 l -23,-26 0,33 c 0,32 0,32 -51,32 -48,0 -51,-1 -45,-22 3,-13 6,-94 6,-180 l 0,-158 55,0 55,0 0,110 c 0,127 12,150 75,150 l 35,0 0,55 c 0,50 -2,55 -22,55 -13,0 -32,-5 -43,-11 z" inkscape:connector-curvature="0" id="path296" />
    <path d="m 19753,4079 c -66,-19 -123,-102 -123,-179 0,-124 95,-200 235,-187 90,9 98,13 91,55 -3,19 -7,36 -8,38 -2,1 -24,-2 -50,-7 -57,-13 -121,2 -143,34 -8,12 -15,25 -15,29 0,5 54,8 120,8 l 120,0 0,50 c 0,126 -99,196 -227,159 z m 110,-87 c 35,-31 21,-42 -53,-42 -38,0 -70,3 -70,6 0,16 24,46 43,54 26,10 55,4 80,-18 z" inkscape:connector-curvature="0" id="path298" />
    <path d="m 20135,4083 c -53,-15 -95,-66 -95,-117 0,-36 46,-82 105,-104 95,-37 58,-90 -43,-63 -25,6 -46,10 -49,8 -2,-3 -8,-18 -13,-36 -10,-36 2,-46 68,-57 99,-16 185,24 198,92 11,59 -11,92 -85,128 -48,23 -66,37 -66,51 0,17 7,20 45,20 25,-1 51,-3 59,-5 19,-6 39,56 24,71 -12,12 -118,21 -148,12 z" inkscape:connector-curvature="0" id="path300" />
    <path d="m 16200,3944 c 0,-156 11,-193 65,-218 56,-27 114,-18 154,25 l 21,23 0,-27 c 0,-26 2,-27 50,-27 l 50,0 0,180 0,180 -55,0 -55,0 0,-115 c 0,-110 -1,-117 -25,-140 -29,-30 -49,-31 -75,-5 -18,18 -20,33 -20,140 l 0,120 -55,0 -55,0 0,-136 z" inkscape:connector-curvature="0" id="path302" />
    <path d="m 18940,4073 c 0,-5 29,-84 64,-178 l 64,-170 59,0 58,0 66,175 66,175 -54,3 c -31,2 -58,1 -61,-3 -3,-3 -20,-58 -37,-122 -32,-117 -36,-123 -49,-68 -4,17 -19,67 -32,113 l -25,82 -60,0 c -32,0 -59,-3 -59,-7 z" inkscape:connector-curvature="0" id="path304" />
    <path d="m 24726,3720 c -136,-24 -252,-86 -344,-184 -109,-117 -164,-266 -158,-426 12,-303 248,-545 554,-566 263,-19 516,154 598,409 65,203 16,426 -131,586 -123,134 -345,212 -519,181 z m 12,-442 c 29,-101 55,-202 58,-226 4,-23 10,-44 14,-47 3,-2 15,31 25,73 10,42 39,145 65,227 l 48,150 101,3 101,3 0,-38 c 0,-21 7,-150 15,-288 8,-137 15,-271 15,-297 l 0,-48 -69,0 -69,0 -6,63 c -3,34 -9,151 -13,260 l -8,199 -38,-129 c -21,-70 -56,-185 -78,-255 l -40,-128 -59,0 -59,0 -11,43 c -7,23 -27,96 -45,162 -19,66 -43,160 -54,208 -10,49 -21,90 -24,93 -2,2 -7,-80 -11,-183 -3,-104 -9,-221 -13,-260 l -6,-73 -69,0 -70,0 6,48 c 3,26 13,176 23,335 l 17,287 101,0 102,0 51,-182 z" inkscape:connector-curvature="0" id="path306" />
    <path d="m 24984,2061 c -92,-42 -144,-155 -144,-316 0,-217 86,-334 248,-335 137,0 218,88 242,264 26,180 -37,346 -147,392 -47,20 -150,17 -199,-5 z m 135,-111 c 36,-19 54,-87 54,-205 1,-132 -22,-199 -69,-211 -64,-16 -98,45 -102,186 -4,114 6,173 39,214 21,27 48,33 78,16 z" inkscape:connector-curvature="0" id="path308" />
    <path d="m 24425,2035 c -38,-19 -74,-36 -79,-38 -9,-3 12,-127 21,-127 2,0 30,14 63,30 l 60,30 0,-255 0,-255 75,0 75,0 0,325 0,325 -72,-1 c -61,-1 -84,-6 -143,-34 z" inkscape:connector-curvature="0" id="path310" />
  </g>
</svg>
