<?xml version="1.0" standalone="no"?>
<!DOCTYPE svg PUBLIC "-//W3C//DTD SVG 20010904//EN"
 "http://www.w3.org/TR/2001/REC-SVG-20010904/DTD/svg10.dtd">
<svg version="1.0" xmlns="http://www.w3.org/2000/svg"
 width="3507.000000pt" height="2480.000000pt" viewBox="0 0 3507.000000 2480.000000"
 preserveAspectRatio="xMidYMid meet">
<metadata>
Created by potrace 1.11, written by Peter Selinger 2001-2013
</metadata>
<g transform="translate(0.000000,2480.000000) scale(0.100000,-0.100000)"
fill="#000000" stroke="none">
<path d="M7450 19060 l0 -610 3464 0 c3149 0 3464 1 3470 16 3 9 6 24 6 35 0
10 5 19 10 19 6 0 10 11 10 25 0 14 5 25 10 25 6 0 10 9 10 20 0 11 5 29 10
40 6 11 15 29 20 40 6 11 10 29 10 40 0 11 3 20 8 20 4 0 13 19 20 43 21 68
75 202 84 205 10 5 11 159 0 164 -8 3 -72 160 -72 178 0 5 -4 18 -9 28 -9 18
-26 58 -44 102 -5 14 -13 33 -18 42 -5 10 -9 27 -9 38 0 11 -4 20 -8 20 -4 0
-14 21 -21 48 -8 26 -18 53 -24 60 -7 9 -713 12 -3468 12 l-3459 0 0 -610z
m1356 265 c54 -16 100 -57 130 -115 28 -55 25 -191 -5 -253 -13 -26 -27 -50
-32 -53 -5 -2 6 -18 24 -34 l32 -29 -20 -20 -20 -21 -37 26 c-35 25 -39 26
-70 13 -18 -8 -62 -14 -98 -13 -111 1 -185 55 -215 156 -32 110 -9 224 60 293
62 63 150 80 251 50z m1422 -37 c3 -37 3 -38 -32 -38 -35 0 -36 1 -36 41 0 39
1 40 33 37 29 -3 32 -6 35 -40z m1175 19 c64 -42 84 -124 47 -196 -28 -55 -68
-71 -179 -71 l-91 0 0 -100 0 -100 -40 0 -40 0 0 238 c0 131 3 242 8 246 4 4
66 6 137 4 105 -2 136 -7 158 -21z m-1343 -61 c0 -41 2 -45 28 -48 21 -2 28
-9 30 -30 3 -25 0 -28 -28 -28 l-31 0 3 -122 3 -123 28 -3 c21 -3 27 -9 27
-27 0 -15 -7 -26 -21 -30 -32 -10 -88 4 -99 25 -5 10 -10 78 -10 151 l0 132
-37 -7 c-21 -3 -46 -6 -56 -6 -10 0 -29 -11 -42 -25 -24 -23 -25 -30 -25 -145
l0 -120 -35 0 -35 0 0 180 0 180 30 0 c22 0 33 -6 38 -21 l8 -20 18 20 c15 17
31 21 78 21 l58 0 0 45 c0 45 0 45 35 45 35 0 35 0 35 -44z m-480 -47 c25 -6
55 -20 68 -31 21 -20 22 -30 22 -150 0 -123 1 -128 21 -128 16 0 20 -5 17 -27
-2 -23 -8 -29 -35 -31 -22 -2 -37 3 -49 17 -17 19 -17 19 -53 0 -21 -11 -55
-19 -84 -19 -42 0 -54 5 -83 34 -38 38 -44 77 -19 125 17 34 54 50 143 65 61
10 67 13 70 37 4 34 -19 52 -67 52 -46 0 -59 -7 -71 -39 -7 -18 -17 -24 -40
-24 -25 0 -30 4 -30 24 0 35 44 82 88 94 49 13 50 13 102 1z m2150 0 c25 -6
55 -20 68 -31 21 -20 22 -30 22 -150 0 -123 1 -128 21 -128 16 0 20 -5 17 -27
-2 -23 -8 -29 -35 -31 -22 -2 -37 3 -49 17 -17 19 -17 19 -53 0 -21 -11 -55
-19 -84 -19 -42 0 -54 5 -83 34 -38 38 -44 77 -19 125 17 34 54 50 143 65 61
10 67 13 70 37 4 34 -19 52 -67 52 -46 0 -59 -7 -71 -39 -7 -18 -17 -24 -40
-24 -25 0 -30 4 -30 24 0 35 44 82 88 94 49 13 50 13 102 1z m352 1 c40 -12
88 -61 88 -91 0 -29 -53 -26 -73 5 -31 46 -127 39 -127 -10 0 -28 4 -31 93
-55 92 -26 117 -48 117 -107 0 -85 -90 -137 -195 -112 -50 11 -95 59 -95 100
0 26 3 30 29 30 23 0 31 -6 39 -29 19 -53 117 -63 149 -15 21 32 -2 51 -87 75
-94 26 -120 48 -120 103 0 49 22 80 70 100 42 18 63 19 112 6z m330 0 c40 -12
88 -61 88 -91 0 -29 -53 -26 -73 5 -31 46 -127 39 -127 -10 0 -28 4 -31 93
-55 92 -26 117 -48 117 -107 0 -85 -90 -137 -195 -112 -50 11 -95 59 -95 100
0 26 3 30 29 30 23 0 31 -6 39 -29 19 -53 117 -63 149 -15 21 32 -2 51 -87 75
-94 26 -120 48 -120 103 0 49 22 80 70 100 42 18 63 19 112 6z m-3324 -140 c3
-146 11 -170 59 -170 71 0 93 49 93 200 l0 111 33 -3 32 -3 3 -177 2 -178 -35
0 c-26 0 -35 4 -35 17 0 14 -2 14 -20 -2 -45 -41 -163 -26 -190 24 -5 11 -10
86 -10 171 l0 151 33 -3 32 -3 3 -135z m1140 -42 l2 -178 -35 0 -35 0 0 173
c0 96 3 177 7 181 4 4 19 6 33 4 l25 -3 3 -177z m312 164 c43 -23 71 -77 73
-139 l2 -48 -128 -3 c-127 -3 -128 -3 -122 -25 14 -49 40 -72 84 -75 38 -3 46
1 76 32 37 40 85 50 85 19 0 -26 -33 -72 -66 -94 -42 -27 -135 -26 -182 3 -99
61 -95 258 7 325 43 29 121 31 171 5z m208 -3 l8 -20 18 20 c12 13 31 21 53
21 31 0 33 -2 33 -35 0 -32 -2 -35 -30 -35 -19 0 -40 -9 -55 -25 -24 -23 -25
-30 -25 -145 l0 -120 -35 0 -35 0 0 180 0 180 30 0 c22 0 33 -6 38 -21z m1903
-116 l46 -138 45 135 45 135 36 3 c20 2 37 0 37 -4 0 -13 -123 -348 -150 -409
-30 -67 -44 -82 -80 -85 -61 -5 -70 -1 -70 30 0 28 3 30 35 30 31 0 37 4 50
36 15 36 14 39 -49 213 -35 97 -62 179 -59 184 2 4 19 7 36 7 l33 0 45 -137z"/>
<path d="M8655 19261 c-107 -44 -131 -250 -39 -331 35 -30 105 -47 144 -35
l22 7 -21 15 c-25 17 -26 30 -5 54 16 17 18 17 48 -6 l32 -24 18 30 c10 17 20
57 23 88 9 93 -23 162 -89 197 -29 15 -101 18 -133 5z"/>
<path d="M11180 19180 l0 -83 79 5 c101 6 131 23 131 76 0 66 -16 77 -119 80
l-91 4 0 -82z"/>
<path d="M9531 18995 c-85 -16 -113 -52 -71 -90 24 -21 91 -16 120 10 16 14
34 97 20 94 -3 -1 -34 -7 -69 -14z"/>
<path d="M11681 18995 c-85 -16 -113 -52 -71 -90 24 -21 91 -16 120 10 16 14
34 97 20 94 -3 -1 -34 -7 -69 -14z"/>
<path d="M10403 19125 c-11 -8 -26 -28 -31 -45 l-11 -30 94 0 94 0 -11 30
c-13 38 -43 60 -83 60 -17 0 -40 -7 -52 -15z"/>
<path d="M12910 17430 l0 -140 90 0 c83 0 93 2 115 25 30 29 33 79 8 107 -13
14 -14 21 -5 30 19 19 14 76 -8 98 -17 17 -33 20 -110 20 l-90 0 0 -140z m158
78 c7 -7 8 -17 1 -30 -7 -13 -21 -18 -55 -18 -46 0 -62 14 -50 45 7 18 86 21
104 3z m0 -107 c8 -4 12 -19 10 -32 -3 -22 -9 -24 -60 -27 -58 -3 -58 -3 -58
26 0 16 3 32 7 35 9 10 85 8 101 -2z"/>
<path d="M13680 17430 l0 -140 25 0 25 0 0 140 0 140 -25 0 -25 0 0 -140z"/>
<path d="M11957 17493 c-2 -5 12 -52 31 -105 34 -96 35 -98 66 -98 30 0 32 3
64 93 37 107 39 117 13 117 -25 0 -32 -11 -51 -78 -9 -29 -20 -53 -25 -53 -5
0 -16 24 -25 53 -8 29 -19 59 -23 66 -9 13 -43 17 -50 5z"/>
<path d="M12209 17471 c-25 -25 -29 -37 -29 -81 0 -44 4 -56 29 -81 23 -22 39
-29 69 -29 42 0 92 30 92 56 0 18 -39 18 -64 -1 -11 -8 -23 -15 -28 -15 -14 0
-49 40 -43 50 4 6 37 10 76 10 38 0 69 3 69 8 0 29 -24 84 -43 97 -37 26 -94
19 -128 -14z m94 -29 c21 -23 13 -32 -30 -32 -37 0 -45 22 -15 39 23 14 27 14
45 -7z"/>
<path d="M12427 17493 c-4 -3 -7 -51 -7 -105 0 -98 0 -98 25 -98 24 0 25 2 25
63 0 67 17 97 53 97 21 0 23 38 2 46 -8 4 -22 1 -31 -6 -11 -10 -18 -10 -26
-2 -13 13 -31 15 -41 5z"/>
<path d="M12592 17484 c-15 -10 -22 -25 -22 -48 0 -41 11 -51 73 -67 35 -8 47
-16 45 -28 -4 -21 -51 -26 -68 -7 -16 20 -60 21 -60 2 0 -8 12 -24 26 -35 58
-46 164 -14 164 49 0 35 -14 46 -79 66 -31 9 -51 20 -48 27 6 18 52 20 67 3
18 -23 50 -20 50 3 0 28 -38 51 -85 51 -22 0 -51 -7 -63 -16z"/>
<path d="M13227 17489 c-21 -12 -47 -67 -47 -100 0 -34 29 -85 56 -98 14 -6
39 -11 57 -11 92 0 137 124 71 195 -19 20 -32 25 -71 25 -26 0 -56 -5 -66 -11z
m93 -49 c39 -39 20 -110 -30 -110 -51 0 -71 84 -28 114 29 20 34 20 58 -4z"/>
<path d="M13434 17486 c-3 -9 -4 -50 -2 -92 3 -66 7 -79 28 -96 18 -14 32 -18
55 -13 16 3 47 6 68 5 l38 -1 -3 103 c-3 95 -4 103 -23 103 -18 0 -21 -8 -25
-72 -5 -79 -15 -96 -51 -91 -22 3 -24 8 -29 83 -5 74 -7 80 -28 83 -13 2 -25
-3 -28 -12z"/>
<path d="M13809 17471 c-34 -34 -39 -92 -14 -141 19 -37 43 -50 95 -50 33 0
48 6 71 29 25 25 29 37 29 81 0 44 -4 56 -29 81 -24 24 -38 29 -76 29 -38 0
-52 -5 -76 -29z m105 -27 c19 -18 21 -85 4 -102 -7 -7 -21 -12 -33 -12 -30 0
-45 19 -45 59 0 35 23 71 46 71 7 0 20 -7 28 -16z"/>
<path d="M14063 17485 c-49 -34 -54 -132 -8 -175 20 -19 32 -22 70 -18 37 5
45 3 45 -11 0 -9 -5 -22 -12 -29 -15 -15 -54 -16 -63 -2 -7 12 -65 14 -65 3 1
-52 117 -72 167 -29 27 24 28 27 31 145 3 107 2 122 -13 128 -10 3 -25 1 -35
-5 -10 -6 -22 -7 -31 -1 -21 13 -62 11 -86 -6z m95 -47 c28 -28 5 -108 -30
-108 -21 0 -48 33 -48 57 0 54 46 83 78 51z"/>
<path d="M14287 17493 c-4 -3 -7 -51 -7 -105 0 -97 0 -98 24 -98 22 0 24 4 28
71 3 55 8 74 23 85 24 18 30 18 49 -2 12 -11 16 -35 16 -85 0 -67 1 -69 25
-69 25 0 25 1 25 89 0 82 -2 91 -22 105 -27 19 -79 21 -96 4 -9 -9 -15 -9 -24
0 -13 13 -31 16 -41 5z"/>
<path d="M14539 17471 c-25 -25 -29 -37 -29 -81 0 -44 4 -56 29 -81 23 -22 39
-29 69 -29 42 0 92 30 92 56 0 19 -44 18 -60 -1 -7 -8 -19 -15 -26 -15 -19 0
-56 38 -49 50 4 6 38 10 77 10 l71 0 -6 38 c-13 81 -109 111 -168 53z m95 -27
c22 -22 11 -34 -30 -34 -38 0 -47 22 -16 39 23 14 28 14 46 -5z"/>
<path d="M14210 15380 l0 -1610 1285 0 c850 0 1285 3 1285 10 0 6 9 10 20 10
20 0 20 7 20 910 l0 911 -62 -3 -63 -3 -3 -852 -2 -853 -1175 0 -1175 0 -2
1543 -3 1542 -62 3 -63 3 0 -1611z"/>
<path d="M12290 15000 l0 -1980 -1727 -2 -1728 -3 -3 -62 -3 -63 1988 -2 1988
-3 6 -190 c4 -104 7 -191 8 -192 0 -2 309 -3 686 -3 l685 0 0 65 0 65 -625 0
-625 0 0 169 c0 93 -4 181 -10 195 l-10 26 -250 0 -250 0 0 1980 0 1980 -65 0
-65 0 0 -1980z"/>
<path d="M13741 16814 c-46 -91 -81 -167 -78 -170 3 -3 37 11 76 30 39 20 77
36 86 36 8 0 51 -18 95 -40 44 -22 80 -38 80 -35 0 7 -169 345 -173 345 -1 0
-40 -75 -86 -166z"/>
<path d="M14840 16805 l0 -55 243 -2 242 -3 3 -573 2 -573 53 3 52 3 0 625 0
625 -297 3 -298 2 0 -55z"/>
<path d="M14734 16591 c-144 -49 -219 -132 -260 -287 -18 -68 -9 -130 33 -221
67 -145 242 -236 395 -204 156 32 262 140 298 304 22 97 -16 220 -91 302 -100
108 -247 150 -375 106z m254 -45 c70 -36 128 -95 160 -165 37 -80 37 -202 1
-281 -34 -72 -97 -135 -167 -168 -49 -23 -70 -27 -147 -27 -103 1 -153 19
-228 85 -68 60 -100 129 -105 225 -2 44 1 99 7 122 25 93 122 193 220 227 72
25 192 17 259 -18z"/>
<path d="M14552 16228 l3 -113 58 1 c40 1 64 7 77 19 24 22 26 62 4 86 -14 16
-14 20 -1 40 32 45 -4 79 -85 79 l-59 0 3 -112z m103 52 c0 -21 -5 -26 -32
-28 -29 -3 -33 0 -33 21 0 31 9 39 40 35 19 -2 25 -9 25 -28z m0 -80 c17 -19
17 -21 0 -40 -24 -27 -59 -22 -63 8 -8 52 28 70 63 32z"/>
<path d="M14760 16251 c0 -106 13 -129 77 -138 37 -5 46 -2 73 25 29 29 30 34
30 116 0 78 -2 86 -19 86 -17 0 -19 -9 -22 -86 -3 -71 -7 -88 -23 -100 -26
-18 -32 -18 -56 6 -17 17 -20 33 -20 100 0 73 -2 80 -20 80 -19 0 -20 -7 -20
-89z"/>
<path d="M15010 16320 c-24 -24 -26 -63 -5 -80 8 -7 30 -20 48 -29 20 -10 32
-23 32 -36 0 -17 -7 -20 -45 -21 -33 0 -46 -5 -48 -17 -5 -24 56 -32 101 -13
66 27 60 88 -13 121 -31 14 -40 23 -38 39 2 17 10 21 41 20 30 -1 37 2 37 17
0 28 -82 27 -110 -1z"/>
<path d="M13797 16523 c-12 -12 -7 -50 8 -63 8 -6 23 -9 34 -5 25 8 36 41 21
60 -13 15 -51 20 -63 8z"/>
<path d="M13802 16258 c-36 -36 6 -91 46 -62 26 18 28 37 6 58 -19 19 -36 20
-52 4z"/>
<path d="M15935 16025 c-54 -53 -21 -126 64 -141 71 -12 104 -51 62 -74 -34
-18 -68 -12 -90 16 -13 17 -28 24 -43 22 -30 -4 -26 -35 8 -65 20 -18 37 -23
84 -23 76 0 114 28 114 84 0 47 -18 64 -90 82 -84 22 -99 38 -68 68 22 23 48
20 83 -10 57 -48 91 -6 35 44 -37 33 -125 32 -159 -3z"/>
<path d="M17453 16038 c-15 -24 -100 -263 -96 -270 2 -5 15 -8 29 -8 19 0 28
7 35 30 10 28 14 30 64 30 50 0 54 -2 64 -30 7 -22 16 -30 34 -30 13 0 26 2
29 5 6 6 -80 254 -95 273 -5 6 -20 12 -33 12 -12 0 -26 -6 -31 -12z m57 -145
c0 -19 -5 -23 -30 -23 -16 0 -30 1 -30 3 0 2 8 26 17 53 l17 49 12 -30 c7 -17
13 -40 14 -52z"/>
<path d="M17655 16038 c-3 -8 -4 -72 -3 -144 l3 -129 25 0 25 0 0 140 c0 138
0 140 -23 143 -12 2 -24 -3 -27 -10z"/>
<path d="M17765 16038 c-3 -8 -4 -72 -3 -144 l3 -129 74 -2 c85 -3 104 7 122
67 16 54 -3 115 -43 136 -29 15 -42 15 -80 -1 -14 -6 -17 1 -20 37 -2 36 -7
44 -26 46 -12 2 -24 -3 -27 -10z m129 -130 c9 -12 16 -32 16 -43 0 -26 -27
-65 -45 -65 -42 0 -64 98 -27 119 26 16 39 13 56 -11z"/>
<path d="M18500 16025 c0 -20 5 -25 25 -25 20 0 25 5 25 25 0 20 -5 25 -25 25
-20 0 -25 -5 -25 -25z"/>
<path d="M13797 15993 c-13 -13 -7 -61 9 -67 29 -11 44 -6 56 19 8 19 8 28 -2
40 -13 15 -51 20 -63 8z"/>
<path d="M16208 15960 c-54 -42 -57 -140 -8 -185 16 -14 30 -17 70 -12 l50 6
0 -44 c0 -41 2 -45 25 -45 l25 0 0 145 0 145 -37 0 c-21 -1 -52 2 -68 5 -23 5
-37 1 -57 -15z m100 -62 c17 -36 6 -77 -25 -91 -22 -10 -28 -8 -44 12 -23 28
-24 59 -3 89 21 30 55 25 72 -10z"/>
<path d="M16703 15970 c-25 -10 -47 -46 -38 -60 9 -14 31 -12 47 3 19 19 43
26 58 17 23 -14 3 -37 -37 -43 -21 -4 -47 -13 -57 -20 -22 -16 -26 -68 -6 -91
15 -19 81 -21 99 -3 11 10 14 10 18 0 3 -7 17 -13 31 -13 l27 0 -3 89 c-3 71
-7 92 -22 106 -22 20 -86 28 -117 15z m75 -137 c-2 -24 -8 -28 -33 -28 -41 0
-46 29 -8 43 42 15 45 14 41 -15z"/>
<path d="M16970 15963 c-17 -12 -25 -13 -28 -5 -2 7 -15 12 -28 12 -24 0 -24
-1 -24 -106 l0 -105 28 3 c26 3 27 5 30 68 3 69 13 90 43 90 14 0 19 7 19 30
0 34 -6 37 -40 13z"/>
<path d="M17081 15966 c-66 -37 -69 -165 -4 -195 54 -25 143 -3 143 35 0 17
-23 18 -66 2 -26 -9 -36 -9 -48 1 -34 29 -19 41 49 41 75 0 84 9 65 65 -19 56
-85 81 -139 51z m77 -48 c21 -21 13 -28 -28 -28 -22 0 -40 4 -40 8 0 14 23 32
40 32 9 0 21 -5 28 -12z"/>
<path d="M18060 15973 c-73 -29 -92 -132 -35 -189 19 -19 35 -24 72 -24 59 0
88 18 103 66 15 43 1 101 -29 128 -20 18 -85 30 -111 19z m74 -65 c9 -12 16
-32 16 -43 0 -11 -7 -31 -16 -43 -42 -61 -110 20 -74 89 14 26 55 24 74 -3z"/>
<path d="M18328 15966 c-16 -8 -28 -11 -28 -5 0 5 -11 9 -25 9 l-25 0 0 -105
0 -105 25 0 c24 0 25 3 25 59 0 84 13 113 48 109 26 -3 27 -5 32 -83 5 -78 6
-80 33 -83 l27 -3 0 88 c0 94 -3 104 -37 122 -28 14 -42 14 -75 -3z"/>
<path d="M16422 15879 c2 -76 6 -93 22 -105 24 -17 77 -18 95 -1 11 10 14 10
18 0 3 -7 16 -13 29 -13 24 0 24 1 24 105 l0 105 -25 0 c-24 0 -25 -2 -25 -64
0 -76 -22 -113 -58 -102 -20 7 -22 14 -22 87 l0 79 -31 0 -31 0 4 -91z"/>
<path d="M18500 15865 l0 -105 25 0 25 0 0 105 0 105 -25 0 -25 0 0 -105z"/>
<path d="M14462 15508 l3 -283 370 0 370 0 3 283 2 282 -375 0 -375 0 2 -282z
m560 162 c49 -14 88 -61 88 -108 0 -47 -33 -114 -76 -151 -19 -17 -34 -33 -34
-36 0 -3 27 -5 61 -5 l60 0 -3 -37 -3 -38 -127 -3 -128 -3 0 32 c0 27 13 46
74 109 82 84 99 119 71 150 -21 23 -50 25 -85 5 -14 -8 -28 -14 -32 -15 -5 0
-28 54 -28 66 0 7 46 28 75 35 43 10 46 10 87 -1z m-204 -27 c2 -12 -32 -96
-74 -187 l-77 -166 -44 0 c-32 0 -43 4 -43 15 0 8 29 74 65 145 36 71 65 132
65 134 0 3 -35 6 -77 8 -73 3 -78 5 -81 26 -7 51 -2 53 135 50 123 -3 128 -4
131 -25z"/>
<path d="M13808 15729 c-25 -14 -23 -56 3 -69 16 -9 25 -8 40 6 23 21 24 37 3
58 -18 19 -23 19 -46 5z"/>
<path d="M17780 14941 c0 -436 3 -672 10 -676 6 -3 10 -15 10 -26 0 -19 37
-19 3015 -19 l3015 0 2 -242 3 -243 1085 0 1085 0 3 62 3 63 -1023 2 -1023 3
-5 240 -5 240 -3022 3 -3023 2 0 630 0 630 -65 0 -65 0 0 -669z"/>
<path d="M13802 15461 c-8 -5 -12 -21 -10 -37 2 -23 9 -30 29 -32 36 -4 55 21
41 53 -12 25 -36 32 -60 16z"/>
<path d="M9671 14916 c-44 -25 -61 -74 -40 -120 12 -26 36 -39 112 -57 40 -10
48 -15 45 -33 -2 -17 -11 -22 -45 -24 -34 -3 -44 1 -53 17 -7 14 -21 21 -40
21 -40 0 -40 -31 -1 -71 26 -26 36 -29 89 -29 50 0 66 4 91 26 25 21 31 33 31
65 0 48 -24 74 -82 89 -64 16 -88 28 -88 44 0 15 21 26 49 26 10 0 28 -11 41
-25 39 -42 78 -29 66 21 -14 52 -117 82 -175 50z"/>
<path d="M10112 14893 c3 -24 8 -28 33 -28 25 0 30 4 33 28 3 25 1 27 -33 27
-34 0 -36 -2 -33 -27z"/>
<path d="M9909 14821 c-25 -26 -29 -37 -29 -86 0 -49 4 -60 29 -86 37 -37 104
-41 145 -8 36 28 35 59 -3 59 -16 0 -34 -7 -41 -15 -17 -20 -33 -19 -55 5 -18
20 -17 20 53 20 39 0 74 5 77 11 13 20 -6 81 -32 105 -39 36 -105 34 -144 -5z
m92 -31 c30 -16 23 -30 -16 -30 -37 0 -43 8 -23 28 15 15 15 15 39 2z"/>
<path d="M10115 14837 c-3 -7 -4 -58 -3 -113 l3 -99 30 0 30 0 0 110 0 110
-28 3 c-16 2 -29 -2 -32 -11z"/>
<path d="M10224 14837 c-2 -7 -3 -58 -2 -113 l3 -99 30 0 c30 0 30 1 33 60 4
95 8 107 40 103 26 -3 27 -5 32 -83 l5 -80 30 0 30 0 0 93 c0 87 -2 95 -24
113 -25 21 -81 25 -98 8 -8 -8 -13 -8 -17 0 -10 15 -56 14 -62 -2z"/>
<path d="M10493 14832 c-42 -33 -55 -109 -29 -161 30 -57 116 -69 167 -23 49
44 11 73 -46 36 -18 -12 -28 -13 -44 -4 -37 19 -23 29 47 32 l67 3 3 38 c3 30
-2 43 -27 67 -24 24 -38 30 -73 30 -25 0 -52 -8 -65 -18z m97 -62 c0 -6 -16
-10 -35 -10 -38 0 -46 13 -18 29 19 10 53 -2 53 -19z"/>
<path d="M14425 14248 c-3 -8 -4 -59 -3 -114 2 -80 6 -99 18 -99 10 0 16 13
18 43 3 42 3 42 42 42 41 0 43 -2 52 -65 2 -12 11 -20 23 -20 17 0 19 6 16 45
-5 52 -4 64 4 105 10 45 -19 66 -99 72 -52 5 -67 3 -71 -9z m113 -37 c8 -5 12
-17 10 -27 -2 -14 -13 -20 -41 -22 -39 -3 -55 13 -43 43 6 16 52 20 74 6z"/>
<path d="M14990 14221 c0 -11 -6 -21 -12 -24 -10 -3 -10 -9 0 -26 6 -11 12
-45 12 -76 0 -50 2 -55 26 -61 33 -8 57 13 32 27 -13 7 -18 23 -18 54 0 31 5
47 18 54 16 10 16 12 0 25 -10 7 -18 21 -18 30 0 9 -8 16 -20 16 -13 0 -20 -7
-20 -19z"/>
<path d="M15940 14222 c0 -10 -6 -24 -12 -31 -10 -11 -10 -14 0 -18 8 -3 12
-25 12 -62 0 -59 11 -81 41 -81 25 0 35 21 15 32 -23 13 -22 93 2 107 16 10
16 12 0 25 -10 7 -18 21 -18 30 0 9 -8 16 -20 16 -13 0 -20 -7 -20 -18z"/>
<path d="M14664 14192 c-19 -12 -34 -49 -34 -82 0 -40 39 -80 77 -80 30 0 73
24 73 41 0 12 -47 12 -55 -1 -9 -14 -21 -12 -39 6 -24 24 -10 34 45 34 46 0
49 2 49 25 0 35 -33 65 -72 65 -18 0 -38 -4 -44 -8z m65 -35 c14 -17 4 -27
-26 -27 -35 0 -28 35 8 39 4 1 12 -5 18 -12z"/>
<path d="M14827 14187 c-13 -9 -18 -23 -15 -42 2 -24 9 -31 40 -40 20 -6 43
-16 49 -22 22 -22 -20 -28 -53 -8 -39 23 -59 6 -29 -24 43 -43 135 -16 129 37
-2 21 -12 30 -45 42 -23 8 -45 19 -49 22 -14 15 28 20 52 8 28 -16 43 -6 28
18 -14 22 -83 28 -107 9z"/>
<path d="M15102 14188 c-7 -7 -12 -18 -12 -25 0 -16 32 -17 47 -2 7 7 19 9 28
5 14 -5 15 -9 5 -21 -7 -8 -21 -15 -32 -15 -36 0 -58 -19 -58 -51 0 -37 37
-58 73 -42 14 7 30 7 37 3 24 -15 30 -1 30 65 0 44 -5 68 -16 79 -18 19 -85
21 -102 4z m71 -84 c10 -10 -12 -44 -28 -44 -23 0 -29 22 -10 37 21 15 29 16
38 7z"/>
<path d="M15260 14126 c0 -72 2 -77 25 -88 18 -8 32 -8 48 -1 14 7 30 7 37 3
25 -15 30 0 30 81 0 71 -2 80 -17 77 -14 -2 -19 -15 -21 -61 -2 -43 -7 -59
-21 -67 -27 -14 -39 6 -43 70 -2 43 -7 56 -20 58 -16 3 -18 -6 -18 -72z"/>
<path d="M15450 14119 c0 -46 4 -79 10 -79 6 0 13 -1 18 -2 4 -2 9 22 12 52 4
45 9 57 28 65 12 5 22 17 22 26 0 12 -11 16 -45 17 l-45 0 0 -79z"/>
<path d="M15588 14189 c-22 -12 -24 -39 -3 -39 8 0 24 6 35 12 15 10 22 10 32
0 16 -16 -4 -32 -39 -32 -56 0 -72 -76 -20 -94 19 -7 34 -7 46 1 12 7 23 8 35
1 10 -5 20 -7 23 -4 10 10 2 140 -9 153 -12 15 -76 17 -100 2z m70 -95 c-2 -9
-11 -22 -21 -28 -25 -16 -44 14 -20 32 24 17 45 15 41 -4z"/>
<path d="M15745 14192 c-3 -3 -5 -38 -5 -78 0 -52 4 -73 14 -77 21 -8 26 2 26
53 0 101 62 109 68 9 3 -50 16 -74 34 -63 12 7 10 122 -2 145 -9 15 -21 18
-70 17 -33 -1 -62 -4 -65 -6z"/>
<path d="M12723 14088 c-6 -7 -28 -65 -51 -128 -22 -63 -43 -123 -47 -132 -6
-15 -2 -18 24 -18 27 0 34 5 42 30 10 28 14 30 64 30 50 0 54 -2 64 -30 8 -25
15 -30 42 -30 21 0 30 4 26 13 -2 6 -24 66 -47 132 -49 136 -54 145 -85 145
-12 0 -27 -6 -32 -12z m55 -126 c12 -36 2 -48 -35 -40 -19 4 -19 20 -2 66 11
29 21 22 37 -26z"/>
<path d="M13175 14021 c-67 -29 -81 -155 -22 -196 34 -24 109 -20 135 8 12 13
22 26 22 30 0 11 -58 8 -65 -3 -9 -14 -48 -13 -63 2 -28 28 -13 38 58 38 l70
0 0 34 c0 65 -75 113 -135 87z m73 -63 c3 -15 -4 -18 -32 -18 -34 0 -47 15
-29 34 13 13 58 1 61 -16z"/>
<path d="M13435 14021 c-11 -5 -35 -6 -52 -3 l-33 5 0 -107 0 -106 25 0 c24 0
25 3 25 59 0 84 13 113 48 109 26 -3 27 -5 32 -83 5 -78 6 -80 33 -83 l27 -3
0 90 c0 85 -1 91 -26 110 -28 22 -46 25 -79 12z"/>
<path d="M13885 14021 c-42 -18 -60 -50 -60 -108 0 -48 4 -58 28 -79 47 -40
157 -25 157 22 0 16 -45 20 -55 4 -9 -14 -48 -13 -63 2 -28 28 -13 38 58 38
l70 0 0 34 c0 65 -75 113 -135 87z m63 -53 c21 -21 13 -28 -28 -28 -22 0 -40
4 -40 8 0 14 23 32 40 32 9 0 21 -5 28 -12z"/>
<path d="M12892 14008 c3 -7 20 -55 38 -105 30 -87 35 -93 60 -93 30 0 28 -3
75 124 31 85 31 88 -2 84 -24 -3 -29 -11 -48 -73 -22 -69 -22 -69 -34 -42 -6
16 -11 31 -11 35 0 4 -5 24 -11 45 -9 32 -14 37 -41 37 -20 0 -29 -4 -26 -12z"/>
<path d="M13592 13929 c2 -76 6 -93 22 -105 24 -17 77 -18 95 -1 11 10 14 10
18 0 3 -7 16 -13 29 -13 24 0 24 1 24 105 l0 105 -25 0 c-24 0 -25 -2 -25 -64
0 -48 -5 -70 -19 -87 -16 -20 -23 -22 -38 -13 -14 9 -19 26 -21 88 l-3 76 -30
0 -31 0 4 -91z"/>
<path d="M19320 13725 l0 -255 75 0 75 0 0 255 0 255 -75 0 -75 0 0 -255z"/>
<path d="M21332 13728 l3 -253 75 0 75 0 3 253 2 252 -80 0 -80 0 2 -252z"/>
<path d="M19132 13728 l3 -203 50 0 50 0 3 203 2 202 -55 0 -55 0 2 -202z"/>
<path d="M21152 13728 l3 -203 53 -3 52 -3 0 205 0 206 -55 0 -55 0 2 -202z"/>
<path d="M18967 13884 c-4 -4 -7 -76 -7 -161 l0 -153 40 0 41 0 -3 158 -3 157
-30 3 c-17 2 -34 0 -38 -4z"/>
<path d="M20987 13884 c-4 -4 -7 -77 -7 -161 l0 -154 38 3 37 3 0 155 0 155
-30 3 c-17 2 -34 0 -38 -4z"/>
<path d="M12510 13465 l0 -146 28 3 c25 3 27 7 32 58 3 37 9 55 19 55 7 0 32
-25 55 -55 34 -45 48 -56 75 -58 42 -4 40 2 -30 98 l-52 72 52 52 c28 28 51
55 51 59 0 4 -14 7 -31 7 -25 0 -41 -11 -83 -56 l-51 -56 -5 53 c-5 50 -7 54
-32 57 l-28 3 0 -146z"/>
<path d="M13867 13604 c-4 -4 -7 -24 -7 -45 0 -37 -1 -38 -24 -28 -52 24 -110
-15 -121 -81 -8 -45 14 -103 43 -119 26 -14 79 -14 87 -1 4 6 13 5 24 -2 10
-6 26 -8 35 -5 15 6 16 24 14 144 -3 130 -4 138 -23 141 -12 2 -24 0 -28 -4z
m-19 -126 c30 -30 5 -118 -33 -118 -19 0 -45 40 -45 69 0 46 49 78 78 49z"/>
<path d="M12813 13516 c-39 -33 -51 -88 -30 -139 18 -43 42 -57 97 -57 31 0
47 6 68 28 l27 27 -29 3 c-16 2 -33 -1 -39 -7 -24 -24 -77 -6 -77 26 0 9 19
13 70 13 l70 0 0 34 c0 49 -34 86 -86 93 -33 4 -45 1 -71 -21z m95 -48 c3 -14
-4 -18 -31 -18 -40 0 -51 8 -35 27 16 19 62 12 66 -9z"/>
<path d="M13106 13533 c-4 -5 -26 -8 -49 -8 l-42 0 0 -100 0 -100 25 0 c24 0
25 3 28 70 3 76 13 95 48 95 27 0 33 -15 36 -105 3 -54 5 -60 26 -63 21 -3 22
-1 22 92 0 87 -2 96 -22 110 -24 17 -60 21 -72 9z"/>
<path d="M13341 13531 c-8 -5 -29 -7 -48 -4 l-34 6 3 -104 c3 -99 4 -104 26
-107 21 -3 22 0 22 65 0 79 14 107 51 101 23 -3 24 -7 29 -83 5 -77 6 -80 30
-80 24 0 25 2 28 75 2 41 1 84 -2 96 -9 34 -73 55 -105 35z"/>
<path d="M13544 13530 c-36 -14 -54 -50 -54 -105 1 -72 33 -105 103 -105 33 0
87 31 87 51 0 12 -57 12 -65 -1 -14 -23 -75 2 -75 30 0 5 33 10 73 12 l72 3
-2 30 c-6 76 -68 114 -139 85z m75 -53 c15 -19 4 -27 -36 -27 -31 0 -44 16
-26 33 11 12 50 8 62 -6z"/>
<path d="M13950 13525 c0 -3 16 -51 35 -106 19 -56 35 -107 35 -115 0 -8 -12
-19 -26 -24 -14 -6 -24 -16 -22 -23 6 -18 63 -21 77 -4 10 12 101 258 101 272
0 3 -13 5 -30 5 -16 0 -30 -5 -30 -11 0 -23 -32 -119 -39 -119 -5 0 -16 29
-26 65 -16 61 -19 65 -46 65 -16 0 -29 -2 -29 -5z"/>
<path d="M19957 13452 c-10 -10 -17 -25 -17 -33 0 -24 216 -307 240 -314 30
-9 63 25 174 178 88 122 102 158 67 177 -12 6 -105 10 -234 10 -195 0 -215 -2
-230 -18z m403 -51 c0 -8 -45 -73 -128 -183 -28 -37 -39 -45 -49 -36 -16 13
-163 214 -163 222 0 3 77 6 170 6 94 0 170 -4 170 -9z"/>
<path d="M17910 12465 l0 -685 83 0 c165 0 1461 21 1464 24 2 1 6 31 10 66 l6
63 -694 -7 c-382 -4 -702 -10 -711 -12 -17 -5 -18 26 -18 545 l0 551 740 0
741 0 -3 68 -3 67 -807 3 -808 2 0 -685z"/>
<path d="M20676 13089 c-3 -34 -3 -65 0 -70 3 -5 288 -9 670 -9 l664 0 0 -550
0 -550 -659 0 c-363 0 -662 -3 -664 -7 -3 -5 -2 -34 0 -66 l5 -57 722 2 721 3
3 683 2 682 -729 0 -728 0 -7 -61z"/>
<path d="M19690 12845 c-150 -43 -254 -157 -281 -312 -42 -238 187 -467 425
-426 182 31 308 167 323 349 7 79 -24 185 -70 246 -94 123 -257 182 -397 143z
m236 -78 c107 -54 177 -169 177 -287 0 -118 -70 -233 -177 -287 -73 -37 -180
-43 -257 -14 -232 88 -281 399 -86 553 92 73 239 88 343 35z"/>
<path d="M19616 12631 c-6 -9 -26 -257 -26 -319 0 -32 2 -33 33 -30 l32 3 7
124 c4 69 9 129 11 134 1 5 18 -49 37 -119 35 -128 35 -129 66 -132 28 -3 31
0 43 40 43 149 65 208 72 201 5 -5 10 -62 11 -128 l3 -120 35 0 35 0 -4 90
c-1 50 -6 128 -10 175 -6 84 -6 85 -35 88 -65 8 -70 1 -106 -123 -19 -63 -36
-115 -39 -115 -3 0 -16 44 -29 96 -36 147 -34 144 -86 144 -25 0 -47 -4 -50
-9z"/>
<path d="M20590 12661 c-109 -23 -172 -103 -174 -221 -1 -111 56 -173 157
-174 142 0 199 192 76 257 -33 17 -67 18 -114 2 -14 -5 -11 2 12 24 19 17 48
33 70 36 62 11 65 12 61 47 -3 37 -22 43 -88 29z m14 -223 c21 -29 20 -51 -2
-78 -32 -40 -92 -4 -92 55 0 43 69 60 94 23z"/>
<path d="M25010 12595 c0 -41 -2 -46 -17 -40 -38 16 -62 16 -91 1 -60 -31 -65
-152 -9 -191 26 -18 78 -20 95 -3 10 10 15 10 21 -1 5 -7 17 -11 27 -9 18 3
19 14 19 143 0 138 0 140 -22 143 -21 3 -23 -1 -23 -43z m-22 -87 c7 -7 12
-28 12 -48 0 -41 -14 -60 -47 -60 -40 0 -58 67 -26 102 19 21 44 23 61 6z"/>
<path d="M24212 12554 c-12 -8 -22 -10 -22 -5 0 6 -11 11 -25 11 l-25 0 0
-105 0 -105 25 0 c24 0 25 2 25 65 0 68 20 105 56 105 10 0 14 7 12 22 -4 28
-18 32 -46 12z"/>
<path d="M24573 12560 c-58 -24 -70 -143 -18 -187 35 -30 102 -32 133 -3 12
12 22 25 22 30 0 14 -47 12 -70 -2 -25 -16 -55 0 -55 28 0 16 9 19 68 22 59 3
67 5 67 23 0 28 -27 77 -49 89 -23 12 -68 12 -98 0z m77 -44 c0 -2 3 -11 6
-20 5 -13 -2 -16 -35 -16 -42 0 -50 7 -29 28 11 11 58 17 58 8z"/>
<path d="M25129 12541 c-25 -26 -29 -37 -29 -86 0 -72 30 -105 95 -105 41 0
95 29 95 51 0 13 -54 11 -67 -2 -24 -24 -85 13 -67 42 3 5 37 9 76 9 60 0 69
2 64 16 -3 9 -6 22 -6 31 0 8 -13 28 -29 44 -22 21 -39 29 -66 29 -27 0 -44
-8 -66 -29z m99 -43 c3 -15 -4 -18 -32 -18 -34 0 -47 15 -29 34 13 13 58 1 61
-16z"/>
<path d="M24290 12476 c0 -73 3 -89 20 -106 23 -23 79 -27 99 -7 11 10 14 10
18 0 3 -7 16 -13 29 -13 24 0 24 1 24 106 l0 105 -27 -3 c-27 -3 -28 -5 -31
-75 -2 -59 -6 -75 -22 -83 -38 -20 -49 -3 -52 78 -3 76 -3 77 -30 80 l-28 3 0
-85z"/>
<path d="M16220 12504 c0 -40 -2 -45 -17 -39 -43 19 -70 17 -98 -7 -23 -20
-29 -35 -33 -79 -4 -49 -1 -59 23 -87 28 -34 68 -42 105 -22 13 7 21 7 25 0 3
-5 15 -10 26 -10 18 0 19 8 19 145 l0 145 -25 0 c-23 0 -25 -4 -25 -46z m-18
-91 c10 -9 18 -29 18 -45 0 -27 -30 -68 -49 -68 -21 0 -41 34 -41 69 0 58 34
79 72 44z"/>
<path d="M15426 12463 c-13 -13 -20 -15 -23 -5 -3 6 -16 12 -29 12 l-25 0 3
-102 c3 -102 3 -103 28 -103 24 0 25 3 28 68 3 64 5 70 32 85 19 11 30 25 30
40 0 26 -19 29 -44 5z"/>
<path d="M15769 12451 c-24 -25 -29 -38 -29 -79 0 -28 3 -58 6 -67 9 -22 57
-45 97 -45 33 0 87 31 87 51 0 12 -57 12 -65 -1 -14 -23 -75 2 -75 30 0 5 33
10 73 12 l72 3 -3 30 c-6 63 -40 95 -103 95 -20 0 -40 -10 -60 -29z m101 -46
c0 -10 -11 -15 -35 -15 -38 0 -48 22 -18 39 21 11 53 -3 53 -24z"/>
<path d="M16362 12470 c-56 -24 -67 -144 -17 -187 35 -30 102 -31 133 -3 41
38 20 51 -44 28 -26 -9 -36 -9 -48 1 -35 29 -19 41 55 41 l72 0 -6 41 c-3 23
-14 51 -25 61 -22 23 -87 32 -120 18z m78 -44 c0 -2 3 -11 6 -20 5 -13 -2 -16
-35 -16 -42 0 -50 7 -29 28 11 11 58 17 58 8z"/>
<path d="M15510 12381 c0 -82 2 -91 22 -105 25 -18 65 -21 87 -7 9 6 21 5 31
-1 10 -6 25 -8 34 -5 14 6 16 21 14 104 l-3 98 -27 3 -28 3 0 -70 c0 -70 -14
-101 -44 -101 -26 0 -36 26 -36 97 0 71 -1 73 -25 73 -25 0 -25 -1 -25 -89z"/>
<path d="M14264 12417 c-2 -7 -3 -118 -2 -247 l3 -235 78 -3 77 -3 0 251 0
250 -75 0 c-52 0 -77 -4 -81 -13z"/>
<path d="M14497 12384 c-4 -4 -7 -97 -7 -206 l0 -198 55 0 55 0 -2 203 -3 202
-45 3 c-25 2 -49 0 -53 -4z"/>
<path d="M8940 12210 l0 -140 25 0 c23 0 25 3 25 49 l0 49 60 4 c78 6 100 25
100 89 0 70 -28 89 -131 89 l-79 0 0 -140z m148 53 c3 -27 -1 -33 -21 -38 -43
-11 -72 -2 -75 23 -6 43 4 53 50 50 40 -3 43 -5 46 -35z"/>
<path d="M10070 12310 l0 -41 -35 7 c-76 14 -115 -23 -115 -111 0 -38 5 -52
30 -77 26 -26 36 -29 63 -23 18 3 49 6 70 5 l37 0 0 140 0 140 -25 0 c-23 0
-25 -4 -25 -40z m-9 -107 c15 -40 2 -82 -28 -89 -32 -8 -56 15 -56 55 0 61 64
87 84 34z"/>
<path d="M10510 12210 l0 -140 91 0 c88 0 92 1 121 30 25 26 29 36 24 62 -3
18 -13 39 -20 47 -13 14 -12 19 0 35 20 29 17 54 -11 81 -22 23 -32 25 -115
25 l-90 0 0 -140z m166 75 c10 -26 -16 -45 -62 -45 -42 0 -44 1 -44 30 0 29 1
30 50 30 36 0 52 -4 56 -15z m3 -113 c17 -33 -5 -52 -59 -52 l-50 0 0 35 0 35
50 0 c37 0 52 -4 59 -18z"/>
<path d="M10790 12330 c0 -16 7 -20 30 -20 23 0 30 4 30 20 0 16 -7 20 -30 20
-23 0 -30 -4 -30 -20z"/>
<path d="M11200 12211 l0 -141 25 0 c23 0 25 3 25 53 0 71 7 79 66 75 l49 -3
3 -62 c3 -63 3 -63 33 -63 l30 0 -3 138 -3 137 -27 3 c-26 3 -27 1 -30 -50
l-3 -53 -55 0 -55 0 -1 50 c-1 46 -2 50 -27 53 l-27 3 0 -140z"/>
<path d="M11700 12211 l0 -141 29 0 c27 0 30 3 33 37 4 50 19 51 46 3 18 -33
28 -40 52 -40 17 0 30 2 30 5 0 2 -15 30 -34 62 l-34 57 29 35 c35 43 36 51 6
51 -13 0 -38 -15 -58 -36 l-34 -35 -5 68 c-5 65 -6 68 -32 71 l-28 3 0 -140z"/>
<path d="M12150 12330 c0 -16 7 -20 30 -20 23 0 30 4 30 20 0 16 -7 20 -30 20
-23 0 -30 -4 -30 -20z"/>
<path d="M14695 12328 c-3 -8 -4 -79 -3 -158 l3 -145 35 0 35 0 0 155 0 155
-33 3 c-20 2 -34 -2 -37 -10z"/>
<path d="M9690 12309 c0 -12 -8 -28 -17 -35 -17 -13 -17 -15 0 -28 13 -10 17
-28 17 -83 0 -78 9 -93 57 -93 35 0 47 23 18 34 -11 4 -15 22 -15 71 0 51 3
65 15 65 8 0 15 7 15 15 0 9 -7 18 -15 21 -8 4 -15 17 -15 30 0 20 -5 24 -30
24 -24 0 -30 -4 -30 -21z"/>
<path d="M9223 12265 c-13 -9 -27 -34 -33 -56 -28 -102 60 -180 154 -138 27
13 56 64 56 98 0 34 -26 88 -48 100 -30 16 -104 13 -129 -4z m101 -47 c33 -47
13 -108 -34 -108 -47 0 -67 61 -34 108 19 28 49 28 68 0z"/>
<path d="M9447 12273 c-4 -3 -7 -51 -7 -105 0 -98 0 -98 25 -98 24 0 25 3 25
58 0 65 17 105 45 110 30 6 45 -26 45 -100 0 -66 1 -68 25 -68 25 0 25 1 25
88 0 73 -3 92 -18 105 -22 20 -82 22 -101 5 -11 -10 -14 -10 -18 0 -5 13 -35
17 -46 5z"/>
<path d="M10197 12260 c-52 -41 -48 -147 6 -181 38 -24 98 -20 128 7 42 38 4
61 -46 28 -29 -19 -65 -4 -65 26 0 18 7 20 71 20 l72 0 -6 38 c-12 74 -101
108 -160 62z m87 -36 c21 -21 12 -34 -24 -34 -34 0 -47 15 -30 35 16 19 35 19
54 -1z"/>
<path d="M10797 12274 c-4 -4 -7 -52 -7 -106 l0 -98 30 0 31 0 -3 103 c-3 94
-5 102 -23 105 -12 2 -24 0 -28 -4z"/>
<path d="M10907 12273 c-4 -3 -7 -51 -7 -105 l0 -98 30 0 30 0 0 63 c0 71 5
82 43 96 29 11 36 38 13 47 -8 3 -24 1 -35 -5 -13 -7 -22 -8 -26 -1 -7 11 -38
13 -48 3z"/>
<path d="M11501 12261 c-11 -11 -21 -28 -21 -36 0 -20 44 -20 60 0 17 20 54
15 58 -7 2 -11 -6 -18 -30 -23 -61 -12 -88 -27 -94 -52 -14 -55 39 -99 90 -75
13 6 41 8 62 5 l39 -5 -5 91 c-3 50 -11 96 -18 103 -6 6 -36 13 -66 16 -45 4
-57 1 -75 -17z m99 -121 c0 -22 -34 -44 -56 -36 -32 12 -6 56 33 56 16 0 23
-6 23 -20z"/>
<path d="M11945 12257 c-32 -27 -44 -92 -25 -137 24 -59 113 -77 161 -34 42
38 4 61 -46 28 -29 -19 -65 -4 -65 26 0 18 7 20 70 20 l70 0 0 31 c0 75 -106
118 -165 66z m90 -30 c24 -18 11 -37 -25 -37 -36 0 -45 13 -24 34 19 19 25 20
49 3z"/>
<path d="M12157 12274 c-4 -4 -7 -52 -7 -106 l0 -98 30 0 31 0 -3 103 c-3 94
-5 102 -23 105 -12 2 -24 0 -28 -4z"/>
<path d="M12267 12273 c-4 -3 -7 -51 -7 -105 l0 -98 30 0 30 0 0 73 c0 89 18
117 54 81 12 -11 16 -35 16 -85 0 -67 1 -69 25 -69 24 0 25 2 25 69 0 50 4 74
16 85 36 36 54 8 54 -82 l0 -73 28 3 c25 3 27 6 30 58 4 69 -4 115 -24 135
-20 19 -73 19 -94 0 -15 -14 -18 -14 -30 0 -14 17 -71 20 -87 4 -8 -8 -13 -8
-17 0 -8 12 -39 15 -49 4z"/>
<path d="M11042 12178 c3 -20 10 -23 56 -26 50 -3 52 -2 52 22 0 25 -3 26 -56
26 -52 0 -55 -1 -52 -22z"/>
<path d="M24010 12010 l0 -140 25 0 25 0 0 140 0 140 -25 0 -25 0 0 -140z"/>
<path d="M24120 12126 c0 -13 6 -26 13 -29 9 -3 9 -9 -1 -27 -18 -30 -8 -36
17 -11 13 13 21 34 21 56 0 31 -3 35 -25 35 -20 0 -25 -5 -25 -24z"/>
<path d="M24305 12138 c-2 -7 -25 -69 -50 -137 -25 -69 -45 -126 -45 -128 0
-2 13 -3 29 -3 23 0 33 7 43 28 11 23 20 27 61 30 45 3 48 2 58 -27 9 -25 17
-31 40 -31 16 0 29 3 29 8 0 4 -21 67 -46 140 l-47 132 -34 0 c-18 0 -36 -6
-38 -12z m64 -145 c1 -8 -11 -13 -30 -13 -33 0 -33 3 -7 70 l10 25 13 -35 c8
-19 14 -41 14 -47z"/>
<path d="M24520 12010 l0 -140 25 0 25 0 0 140 0 140 -25 0 -25 0 0 -140z"/>
<path d="M24620 12009 l0 -141 33 5 c17 2 40 0 51 -5 10 -5 33 -7 52 -3 47 8
68 50 62 123 -7 83 -54 111 -130 77 -16 -6 -18 -1 -18 39 0 42 -2 46 -25 46
l-25 0 0 -141z m138 -12 c30 -62 -34 -120 -72 -65 -20 28 -20 48 0 76 21 30
55 25 72 -11z"/>
<path d="M25360 12125 c0 -20 5 -25 25 -25 20 0 25 5 25 25 0 20 -5 25 -25 25
-20 0 -25 -5 -25 -25z"/>
<path d="M24897 12060 c-79 -62 -39 -200 59 -200 49 0 81 16 99 49 28 55 11
136 -34 161 -33 17 -96 12 -124 -10z m91 -36 c30 -21 31 -87 1 -108 -56 -39
-109 54 -59 104 24 24 29 24 58 4z"/>
<path d="M25191 12071 c-8 -5 -29 -7 -48 -4 l-33 6 0 -102 0 -101 30 0 30 0 0
75 c0 63 3 76 19 85 25 13 27 13 45 -6 12 -11 16 -35 16 -85 0 -67 1 -69 25
-69 25 0 25 1 25 89 0 82 -2 91 -22 105 -25 18 -65 21 -87 7z"/>
<path d="M15227 12063 c-4 -3 -7 -69 -7 -145 l0 -138 25 0 25 0 0 145 c0 134
-1 145 -18 145 -10 0 -22 -3 -25 -7z"/>
<path d="M15337 12063 c-12 -12 -7 -36 10 -48 17 -12 17 -14 -1 -34 -21 -23
-16 -27 13 -11 20 10 34 60 25 85 -6 15 -35 20 -47 8z"/>
<path d="M15525 12061 c-8 -15 -95 -261 -95 -272 0 -5 12 -9 26 -9 19 0 28 7
37 30 11 28 15 30 63 30 49 0 53 -2 63 -30 8 -24 16 -30 40 -30 17 0 31 2 31
4 0 4 -83 237 -95 269 -8 18 -59 24 -70 8z m44 -103 c25 -66 24 -68 -8 -68
-34 0 -37 9 -20 59 13 37 17 38 28 9z"/>
<path d="M15737 12064 c-4 -4 -7 -70 -7 -146 l0 -139 28 3 27 3 0 140 c0 133
-1 140 -20 143 -12 2 -24 0 -28 -4z"/>
<path d="M15841 12057 c-8 -10 -11 -55 -9 -143 l3 -129 65 -2 c91 -4 109 2
126 42 20 48 17 94 -7 134 -20 32 -22 33 -74 29 l-54 -5 -3 41 c-3 44 -25 59
-47 33z m121 -124 c34 -31 15 -113 -27 -113 -41 0 -60 76 -28 112 20 22 31 23
55 1z"/>
<path d="M16577 12064 c-4 -4 -7 -16 -7 -26 0 -13 8 -18 31 -18 26 0 30 3 27
23 -3 22 -36 36 -51 21z"/>
<path d="M25360 11970 l0 -100 25 0 25 0 0 100 0 100 -25 0 -25 0 0 -100z"/>
<path d="M16135 11991 c-36 -16 -58 -50 -63 -99 -3 -41 0 -52 22 -79 32 -38
81 -49 130 -29 43 18 56 42 56 105 0 38 -6 56 -22 75 -25 28 -89 42 -123 27z
m79 -63 c9 -12 16 -32 16 -43 0 -29 -28 -65 -50 -65 -42 0 -65 63 -40 111 14
26 55 24 74 -3z"/>
<path d="M16330 11885 l0 -105 25 0 c24 0 25 2 25 68 0 78 14 106 51 100 23
-3 24 -7 27 -85 l3 -83 29 0 30 0 0 83 c0 105 -13 127 -74 127 -23 0 -47 -5
-54 -12 -9 -9 -12 -9 -12 0 0 7 -11 12 -25 12 l-25 0 0 -105z"/>
<path d="M16570 11885 l0 -105 30 0 30 0 0 105 0 105 -30 0 -30 0 0 -105z"/>
<path d="M12819 11843 c-1 -5 -4 -91 -8 -193 l-6 -185 -1987 -3 -1988 -2 0
-59 0 -59 603 -7 c331 -3 1106 -5 1722 -3 l1120 3 3 -2527 2 -2528 65 0 65 0
2 2528 3 2527 263 3 262 2 0 190 0 190 630 0 630 0 0 65 0 65 -690 0 c-379 0
-691 -3 -691 -7z"/>
<path d="M20138 11751 c-61 -72 -198 -268 -198 -284 0 -9 11 -24 24 -32 21
-14 57 -16 240 -13 287 4 283 -1 140 199 -53 74 -105 142 -116 152 -31 26 -53
21 -90 -22z m137 -137 c42 -58 79 -112 82 -120 4 -12 -24 -14 -166 -14 -94 0
-171 3 -171 6 0 10 164 233 172 234 4 0 41 -48 83 -106z"/>
<path d="M19320 11295 l0 -255 75 0 75 0 0 255 0 255 -75 0 -75 0 0 -255z"/>
<path d="M21332 11298 l3 -253 78 -3 77 -3 0 256 0 255 -80 0 -80 0 2 -252z"/>
<path d="M19130 11295 l0 -205 55 0 55 0 0 205 0 205 -55 0 -55 0 0 -205z"/>
<path d="M21150 11295 l0 -205 55 0 55 0 0 205 0 205 -55 0 -55 0 0 -205z"/>
<path d="M18960 11295 l0 -155 40 0 40 0 0 155 0 155 -40 0 -40 0 0 -155z"/>
<path d="M20980 11296 l0 -156 40 0 41 0 -3 153 -3 152 -37 3 -38 3 0 -155z"/>
<path d="M11635 11226 c-119 -30 -213 -106 -263 -214 -21 -47 -26 -72 -26
-147 -1 -79 3 -98 28 -152 69 -150 243 -244 394 -213 127 27 227 104 280 218
23 48 27 70 27 147 0 81 -4 97 -33 156 -51 107 -150 182 -270 208 -63 13 -72
13 -137 -3z m222 -57 c160 -77 234 -260 171 -426 -15 -42 -38 -75 -83 -120
-52 -51 -72 -64 -129 -82 -81 -25 -124 -26 -197 -5 -106 30 -181 98 -230 208
-30 70 -24 199 13 271 88 169 285 236 455 154z"/>
<path d="M11438 10963 c-16 -4 -18 -18 -18 -114 l0 -109 60 0 c51 0 65 4 85
25 30 29 31 35 5 68 -20 25 -20 28 -4 52 15 23 15 27 1 49 -20 30 -77 43 -129
29z m87 -58 c0 -22 -27 -40 -49 -32 -19 7 -22 53 -3 60 21 7 52 -9 52 -28z m1
-79 c15 -12 17 -18 8 -33 -15 -24 -67 -24 -72 0 -9 44 25 61 64 33z"/>
<path d="M11637 10964 c-4 -4 -7 -45 -7 -90 0 -72 3 -86 23 -110 33 -39 101
-38 134 1 22 24 23 35 21 113 -3 73 -6 87 -20 90 -16 3 -18 -6 -18 -75 0 -84
-16 -123 -49 -123 -32 0 -46 30 -51 113 -5 73 -15 99 -33 81z"/>
<path d="M11903 10960 c-12 -5 -27 -19 -33 -30 -19 -36 -4 -66 45 -90 71 -34
56 -73 -25 -67 -16 1 -25 -3 -25 -13 0 -11 14 -16 52 -18 42 -2 56 1 72 17 40
40 24 79 -47 115 -44 23 -40 50 8 54 43 4 61 19 40 32 -18 12 -58 12 -87 0z"/>
<path d="M19354 10859 l-62 -19 30 -98 30 -97 -25 -80 c-39 -123 -42 -114 36
-141 49 -17 69 -20 72 -11 3 7 20 61 39 122 l35 109 -37 118 c-20 65 -41 118
-47 117 -5 0 -38 -9 -71 -20z"/>
<path d="M21375 10860 c-33 -10 -59 -21 -59 -26 1 -5 14 -51 29 -102 l27 -92
-32 -96 c-18 -52 -30 -96 -29 -97 2 -2 34 -12 71 -24 l67 -21 40 120 40 121
-30 96 c-37 118 -46 141 -56 140 -5 -1 -35 -9 -68 -19z"/>
<path d="M11132 10233 l3 -628 298 -3 297 -2 0 55 0 55 -232 0 c-128 0 -239 4
-245 8 -10 6 -13 136 -15 573 l-3 564 -53 3 -52 3 2 -628z"/>
<path d="M19150 10816 c-19 -7 -35 -18 -35 -23 0 -6 11 -43 25 -83 l25 -71
-24 -62 c-12 -34 -25 -69 -27 -77 -4 -11 9 -20 42 -33 26 -9 49 -15 52 -12 8
8 72 175 72 188 0 28 -68 182 -81 184 -8 1 -30 -4 -49 -11z"/>
<path d="M21173 10817 c-17 -7 -35 -15 -39 -19 -3 -4 5 -37 20 -73 32 -80 32
-87 1 -163 -14 -34 -25 -65 -25 -70 0 -4 17 -14 38 -21 20 -8 42 -16 48 -18 7
-2 28 36 49 91 l38 95 -35 93 c-20 52 -41 94 -49 95 -8 1 -28 -4 -46 -10z"/>
<path d="M18978 10778 c-34 -12 -34 -15 -2 -81 l27 -54 -30 -61 -29 -61 24
-10 c39 -18 46 -13 80 62 l33 72 -33 68 c-18 38 -35 70 -38 72 -3 1 -17 -2
-32 -7z"/>
<path d="M20993 10778 c-29 -14 -29 -16 3 -81 l26 -53 -29 -61 -29 -61 23 -11
c13 -6 28 -11 33 -11 6 0 25 31 45 69 l34 69 -35 76 c-19 42 -38 76 -42 75 -4
0 -17 -5 -29 -11z"/>
<path d="M19837 10573 c-4 -3 -7 -138 -7 -300 l0 -293 -1025 0 -1025 0 2 -627
3 -628 60 0 60 0 3 563 2 562 2140 0 2140 0 0 -560 0 -560 65 0 65 0 0 625 0
625 -890 0 -890 0 -2 298 -3 297 -95 3 c-108 3 -140 -2 -140 -23 0 -12 -20
-15 -115 -15 -104 0 -115 2 -125 20 -10 18 -21 20 -114 20 -56 0 -106 -3 -109
-7z m371 -247 c5 -25 -12 -39 -37 -31 -20 6 -28 34 -14 49 13 13 48 1 51 -18z
m0 -159 l3 -98 -28 3 c-28 3 -28 3 -31 87 -3 100 0 113 30 109 22 -3 23 -8 26
-101z"/>
<path d="M23260 9620 l0 -910 65 0 65 0 0 845 0 845 1295 0 1295 0 0 65 0 65
-1360 0 -1360 0 0 -910z"/>
<path d="M14227 10432 c-16 -17 -17 -173 -15 -2083 l3 -2064 60 0 60 0 3 2018
2 2017 1175 0 1175 0 0 -795 0 -795 65 0 65 0 0 860 0 860 -1288 0 c-1237 0
-1290 -1 -1305 -18z"/>
<path d="M11340 10135 l0 -285 370 0 370 0 0 285 0 285 -370 0 -370 0 0 -285z
m350 126 c0 -14 -33 -96 -73 -181 l-73 -155 -47 -3 c-27 -2 -47 1 -47 7 0 5
29 69 65 140 36 72 65 135 65 141 0 6 -31 10 -75 10 l-75 0 0 35 0 34 118 3
c64 2 123 1 130 -1 6 -2 12 -15 12 -30z m230 24 c42 -22 60 -53 60 -105 0 -50
-18 -86 -74 -142 l-36 -37 58 -3 57 -3 3 -37 3 -38 -130 0 -131 0 0 27 c0 20
19 47 74 103 75 77 98 120 79 149 -11 17 -69 20 -109 7 -18 -6 -23 -2 -32 24
-11 31 -10 32 31 50 51 24 108 25 147 5z"/>
<path d="M14637 10203 c-4 -3 -7 -53 -7 -110 l0 -103 73 0 c59 0 77 4 90 18
20 22 22 63 5 80 -9 9 -9 18 0 37 14 30 3 58 -28 75 -21 11 -123 14 -133 3z
m112 -42 c25 -16 4 -41 -34 -41 -31 0 -35 3 -35 25 0 21 5 25 28 25 15 0 33
-4 41 -9z m10 -95 c17 -20 -12 -46 -50 -46 -26 0 -29 3 -29 30 0 27 3 30 34
30 18 0 39 -6 45 -14z"/>
<path d="M14862 10138 c-31 -31 -2 -50 38 -26 15 10 22 10 32 0 16 -16 -4 -32
-39 -32 -49 0 -73 -69 -32 -90 12 -7 32 -9 47 -4 15 4 38 6 52 5 25 -2 25 -1
22 66 -2 48 -8 72 -20 81 -20 15 -84 16 -100 0z m76 -94 c-5 -26 -35 -41 -50
-26 -11 11 -9 16 6 28 26 19 48 18 44 -2z"/>
<path d="M15020 10070 c0 -73 2 -80 19 -80 17 0 20 8 23 52 3 46 6 54 31 66
15 7 27 17 27 23 0 16 -29 22 -45 9 -10 -9 -15 -9 -15 -1 0 6 -9 11 -20 11
-18 0 -20 -7 -20 -80z"/>
<path d="M14432 9813 c2 -12 14 -19 36 -21 l32 -3 0 -90 c0 -82 1 -89 20 -89
19 0 20 7 20 89 l0 90 33 3 c20 2 32 8 32 18 0 12 -18 16 -88 18 -81 3 -88 1
-85 -15z"/>
<path d="M14787 9824 c-4 -4 -7 -54 -7 -111 l0 -104 33 0 c17 0 45 0 62 0 38
-1 65 32 65 80 0 57 -24 84 -71 79 -36 -3 -38 -2 -41 27 -3 28 -25 44 -41 29z
m97 -100 c30 -30 8 -90 -30 -83 -34 7 -28 99 7 99 4 0 15 -7 23 -16z"/>
<path d="M14622 9758 c-7 -7 -12 -18 -12 -25 0 -16 32 -17 47 -2 13 13 47 4
39 -10 -3 -4 -20 -11 -37 -15 -42 -8 -59 -23 -59 -52 0 -34 28 -57 59 -49 14
3 40 6 56 5 l30 0 -3 67 c-2 38 -8 74 -14 81 -13 15 -90 16 -106 0z m78 -93
c0 -19 -32 -36 -50 -25 -11 7 -11 11 -1 24 17 20 51 21 51 1z"/>
<path d="M14982 9758 c-7 -7 -12 -18 -12 -25 0 -16 32 -17 47 -2 12 12 43 6
43 -9 0 -4 -20 -13 -45 -20 -55 -15 -71 -51 -36 -85 18 -18 25 -20 50 -10 16
6 40 9 53 6 24 -4 24 -4 20 69 -3 40 -9 76 -16 80 -18 12 -91 9 -104 -4z m78
-93 c0 -22 -35 -38 -49 -22 -8 10 -7 17 1 25 17 17 48 15 48 -3z"/>
<path d="M15156 9748 c-43 -61 2 -157 67 -144 38 8 60 28 55 49 -3 15 -6 15
-35 0 -46 -22 -65 -12 -61 33 4 47 29 65 56 41 24 -22 42 -22 42 1 0 29 -21
42 -66 42 -33 0 -47 -5 -58 -22z"/>
<path d="M21462 8475 c-37 -16 -56 -55 -46 -97 6 -31 36 -49 110 -68 53 -13
68 -30 50 -55 -20 -28 -85 -26 -104 3 -17 26 -62 30 -62 6 0 -8 13 -29 29 -45
25 -25 37 -29 84 -29 71 0 117 33 117 84 0 48 -19 66 -90 85 -70 19 -92 40
-71 65 19 23 68 20 83 -4 13 -21 68 -29 68 -9 0 24 -24 52 -55 65 -43 17 -71
17 -113 -1z"/>
<path d="M22937 8438 c-73 -195 -86 -239 -72 -244 26 -10 49 1 55 26 5 22 11
25 62 28 54 3 56 2 67 -28 9 -26 15 -31 38 -28 34 4 35 -3 -24 161 l-45 127
-33 0 c-29 0 -34 -5 -48 -42z m74 -113 c4 -20 -20 -31 -46 -21 -12 4 -12 13 2
53 l17 48 12 -30 c6 -17 14 -39 15 -50z"/>
<path d="M23154 8467 c-2 -7 -3 -71 -2 -143 l3 -129 25 0 25 0 3 143 3 142
-26 0 c-14 0 -28 -6 -31 -13z"/>
<path d="M23260 8340 c0 -121 2 -142 16 -147 9 -3 25 -1 35 5 11 7 20 8 24 2
9 -15 68 -12 92 5 31 22 47 85 33 135 -16 59 -75 89 -120 60 -12 -8 -16 -2
-20 33 -4 37 -8 42 -32 45 l-28 3 0 -141z m124 14 c20 -8 31 -66 17 -93 -13
-23 -50 -28 -69 -9 -7 7 -12 28 -12 48 0 51 23 70 64 54z"/>
<path d="M23993 8464 c-3 -8 -1 -20 5 -26 16 -16 47 -5 50 20 3 18 -1 22 -23
22 -14 0 -28 -7 -32 -16z"/>
<path d="M21704 8387 c-22 -19 -28 -34 -32 -78 -4 -49 -1 -59 23 -87 28 -34
68 -42 106 -22 18 10 19 7 19 -40 0 -47 2 -50 25 -50 l25 0 0 146 0 147 -35
-6 c-19 -3 -37 -1 -40 4 -11 17 -64 9 -91 -14z m110 -59 c20 -58 -28 -112 -70
-78 -17 15 -19 81 -2 98 22 22 62 10 72 -20z"/>
<path d="M22186 8387 c-14 -15 -26 -31 -26 -37 0 -15 37 -12 64 5 27 18 58 10
54 -13 -2 -11 -19 -19 -48 -24 -72 -12 -102 -66 -60 -108 22 -22 60 -26 93 -9
16 9 22 9 25 0 2 -6 17 -11 34 -11 23 0 29 4 24 16 -3 9 -6 48 -6 88 0 91 -11
107 -78 114 -44 4 -54 1 -76 -21z m94 -116 c0 -40 -61 -56 -68 -18 -2 10 5 21
20 26 36 15 48 13 48 -8z"/>
<path d="M22462 8394 c-12 -8 -22 -10 -22 -5 0 6 -11 11 -25 11 l-26 0 3 -102
c3 -98 4 -103 26 -106 20 -3 22 0 22 52 0 71 12 102 44 110 19 5 26 13 26 31
0 29 -16 32 -48 9z"/>
<path d="M22564 8387 c-22 -19 -28 -34 -32 -80 -4 -52 -2 -58 26 -87 24 -23
39 -30 70 -30 38 0 92 30 92 51 0 12 -57 12 -65 -1 -11 -17 -43 -11 -59 12 -8
12 -13 25 -10 30 3 4 36 8 75 8 55 0 69 3 69 15 0 29 -28 83 -48 94 -35 19
-89 13 -118 -12z m96 -31 c0 -2 3 -11 6 -20 5 -13 -2 -16 -35 -16 -39 0 -53
14 -34 33 7 8 63 10 63 3z"/>
<path d="M23529 8381 c-25 -25 -29 -37 -29 -81 0 -44 4 -56 29 -81 24 -24 38
-29 76 -29 38 0 52 5 76 29 34 34 39 92 14 141 -19 37 -43 50 -95 50 -33 0
-48 -6 -71 -29z m109 -33 c20 -20 15 -85 -9 -101 -55 -39 -102 44 -57 101 13
15 50 16 66 0z"/>
<path d="M23836 8403 c-4 -5 -24 -8 -44 -8 l-37 0 0 -100 0 -100 25 0 c24 0
25 3 28 60 3 82 9 102 30 107 41 11 52 -8 52 -92 0 -79 0 -80 25 -80 25 0 25
0 25 94 0 87 -2 96 -22 110 -24 17 -69 21 -82 9z"/>
<path d="M21920 8324 c0 -72 10 -111 34 -126 18 -12 71 -9 85 5 11 10 14 10
18 0 3 -7 16 -13 29 -13 24 0 24 1 24 105 l0 105 -25 0 c-24 0 -25 -3 -25 -59
0 -70 -6 -88 -32 -102 -35 -19 -48 5 -48 87 l0 74 -30 0 -30 0 0 -76z"/>
<path d="M23992 8298 l3 -103 28 -3 27 -3 0 105 0 106 -30 0 -31 0 3 -102z"/>
<path d="M12776 7839 c-17 -25 -12 -45 16 -60 15 -8 24 -7 39 7 23 21 24 37 3
58 -21 22 -40 20 -58 -5z"/>
<path d="M12772 7573 c-15 -28 3 -63 32 -63 32 0 51 32 36 60 -13 25 -56 26
-68 3z"/>
<path d="M12770 7301 c-14 -28 18 -66 48 -57 26 9 38 42 22 61 -18 21 -57 18
-70 -4z"/>
<path d="M12784 7052 c-32 -21 -18 -72 20 -72 35 0 52 25 38 55 -11 25 -36 32
-58 17z"/>
<path d="M12770 6771 c-14 -28 18 -66 48 -57 26 9 38 42 22 61 -18 21 -57 18
-70 -4z"/>
<path d="M12715 6440 c47 -93 88 -170 93 -170 9 0 175 330 169 337 -3 2 -42
-14 -87 -37 l-82 -41 -85 40 c-47 23 -87 41 -89 41 -2 0 34 -76 81 -170z"/>
<path d="M14112 5990 c-16 -26 -15 -30 6 -30 10 0 29 11 42 25 l23 25 -29 0
c-18 0 -34 -7 -42 -20z"/>
<path d="M12710 5975 c0 -23 4 -25 40 -25 l39 0 3 -117 3 -118 25 0 25 0 3
117 3 117 42 3 c34 2 42 7 42 23 0 19 -8 20 -112 23 l-113 3 0 -26z"/>
<path d="M13930 5954 c0 -40 -2 -45 -17 -39 -48 21 -72 17 -103 -13 -25 -25
-30 -39 -30 -77 0 -51 20 -99 45 -109 24 -9 68 -7 85 4 9 5 19 5 27 -2 7 -5
20 -8 28 -4 12 4 15 30 15 146 l0 140 -25 0 c-23 0 -25 -4 -25 -46z m-16 -96
c22 -31 20 -64 -4 -88 -24 -24 -30 -24 -55 -6 -12 9 -19 26 -19 49 0 63 47 90
78 45z"/>
<path d="M12048 5915 c-55 -31 -62 -145 -11 -185 39 -31 106 -28 141 7 25 25
25 28 8 31 -11 2 -36 -2 -57 -8 -31 -11 -41 -11 -54 0 -34 28 -18 40 56 40
l72 0 -6 41 c-3 23 -14 51 -25 61 -25 26 -89 33 -124 13z m82 -39 c0 -2 3 -11
6 -20 5 -13 -2 -16 -35 -16 -42 0 -50 7 -29 28 11 11 58 17 58 8z"/>
<path d="M12312 5914 c-12 -8 -22 -10 -22 -5 0 6 -11 11 -25 11 l-26 0 3 -102
c3 -95 4 -103 23 -103 18 0 21 8 25 70 5 67 6 71 38 85 22 10 31 21 30 34 -4
26 -19 29 -46 10z"/>
<path d="M12422 5920 c-26 -11 -43 -49 -35 -79 3 -12 6 -21 7 -21 45 -10 112
-41 114 -54 4 -21 -50 -22 -68 -1 -7 8 -23 15 -36 15 -30 0 -31 -23 -3 -51 18
-18 30 -21 81 -17 64 5 88 22 88 62 0 34 -15 47 -71 66 -31 10 -54 23 -54 31
0 20 39 23 55 4 15 -18 60 -20 60 -2 0 43 -82 71 -138 47z"/>
<path d="M13031 5921 c-8 -5 -29 -7 -48 -4 l-34 6 3 -104 c3 -96 4 -104 23
-104 17 0 20 8 23 50 4 80 10 95 42 107 22 7 30 16 30 34 0 25 -15 30 -39 15z"/>
<path d="M13143 5918 c-26 -12 -53 -65 -53 -103 0 -34 25 -82 49 -95 24 -12
82 -13 114 -1 34 13 61 74 52 118 -10 53 -54 93 -102 92 -21 0 -48 -5 -60 -11z
m101 -69 c21 -61 -23 -115 -70 -84 -26 17 -32 61 -13 96 16 31 71 22 83 -12z"/>
<path d="M13394 5921 c-36 -16 -54 -51 -54 -109 0 -69 29 -102 89 -102 53 0
69 7 86 41 20 37 19 39 -8 39 -12 0 -30 -9 -40 -20 -23 -27 -43 -25 -63 6 -25
38 -9 98 27 102 14 2 31 -4 39 -12 16 -20 60 -21 60 -2 0 45 -83 79 -136 57z"/>
<path d="M13585 5905 c-14 -13 -25 -29 -25 -35 0 -16 46 -12 60 5 18 22 55 15
55 -10 0 -15 -9 -21 -45 -27 -72 -12 -102 -66 -60 -108 22 -22 60 -26 91 -9
15 7 24 7 34 -1 8 -6 22 -10 31 -8 15 3 17 15 15 88 -1 77 -4 87 -27 108 -35
31 -97 30 -129 -3z m95 -114 c0 -40 -61 -56 -68 -18 -2 10 5 21 20 26 36 15
48 13 48 -8z"/>
<path d="M14070 5918 c-33 -18 -50 -54 -50 -106 0 -86 96 -134 164 -81 14 11
26 25 26 30 0 13 -47 11 -70 -3 -23 -15 -53 -2 -58 26 -3 13 7 16 63 16 48 0
67 4 71 15 7 18 -13 80 -31 95 -22 18 -87 22 -115 8z m78 -50 c21 -21 13 -28
-28 -28 -43 0 -43 0 -34 24 7 19 45 21 62 4z"/>
<path d="M14332 5914 c-12 -8 -22 -10 -22 -5 0 6 -11 11 -25 11 l-26 0 3 -102
c3 -95 4 -103 23 -103 17 0 20 8 23 50 4 80 10 95 42 107 22 7 30 16 30 34 0
28 -16 31 -48 8z"/>
<path d="M14453 5918 c-26 -13 -53 -65 -53 -105 0 -39 34 -91 65 -99 45 -11
107 2 126 27 38 50 29 132 -18 169 -28 22 -83 26 -120 8z m97 -68 c16 -39 5
-78 -25 -92 -48 -22 -85 47 -55 103 7 12 21 19 39 19 22 0 31 -7 41 -30z"/>
<path d="M11780 5913 c0 -3 15 -49 33 -100 26 -76 36 -95 55 -100 33 -8 45 9
77 102 14 44 29 86 32 93 3 8 -5 12 -25 12 -28 0 -31 -4 -47 -65 -10 -36 -21
-65 -25 -65 -4 0 -16 29 -25 65 -17 61 -20 65 -46 65 -16 0 -29 -3 -29 -7z"/>
</g>
</svg>
