<?xml version="1.0" standalone="no"?>
<!DOCTYPE svg PUBLIC "-//W3C//DTD SVG 20010904//EN"
 "http://www.w3.org/TR/2001/REC-SVG-20010904/DTD/svg10.dtd">
<svg version="1.0" xmlns="http://www.w3.org/2000/svg"
 width="3507.000000pt" height="2480.000000pt" viewBox="0 0 3507.000000 2480.000000"
 preserveAspectRatio="xMidYMid meet">
<metadata>
Created by potrace 1.11, written by Peter Selinger 2001-2013
</metadata>
<g transform="translate(0.000000,2480.000000) scale(0.100000,-0.100000)"
fill="#000000" stroke="none">
<path d="M7450 19060 l0 -610 3464 0 c3149 0 3464 1 3470 16 3 9 6 24 6 35 0
10 5 19 10 19 6 0 10 11 10 25 0 14 5 25 10 25 6 0 10 9 10 20 0 11 5 29 10
40 6 11 15 29 20 40 6 11 10 29 10 40 0 11 3 20 8 20 4 0 13 19 20 43 21 68
75 202 84 205 10 5 11 159 0 164 -8 3 -72 160 -72 178 0 5 -4 18 -9 28 -9 18
-26 58 -44 102 -5 14 -13 33 -18 42 -5 10 -9 27 -9 38 0 11 -4 20 -8 20 -4 0
-14 21 -21 48 -8 26 -18 53 -24 60 -7 9 -713 12 -3468 12 l-3459 0 0 -610z
m2240 273 c0 -19 -96 -103 -117 -103 -30 0 -29 4 8 62 28 44 34 48 70 48 21 0
39 -3 39 -7z m-610 -195 c36 -104 67 -188 70 -188 3 0 34 86 68 190 l63 190
50 0 49 0 0 -245 0 -245 -35 0 -35 0 -1 178 0 177 -62 -177 -61 -178 -37 0
-36 0 -59 171 -59 171 -3 -171 -2 -171 -40 0 -40 0 0 238 c0 131 3 242 7 246
4 4 28 6 53 4 l45 -3 65 -187z m2033 169 c64 -42 84 -124 47 -196 -28 -55 -68
-71 -179 -71 l-91 0 0 -100 0 -100 -40 0 -40 0 0 238 c0 131 3 242 8 246 4 4
66 6 137 4 105 -2 136 -7 158 -21z m-1193 -61 c0 -41 2 -45 28 -48 21 -2 28
-9 30 -30 3 -25 0 -28 -28 -28 l-31 0 3 -122 3 -123 28 -3 c21 -3 27 -9 27
-27 0 -15 -7 -26 -21 -30 -32 -10 -88 4 -99 25 -5 10 -10 77 -10 149 l0 131
-25 0 c-21 0 -25 5 -25 30 0 25 4 30 25 30 23 0 25 4 25 45 0 45 0 45 35 45
35 0 35 0 35 -44z m565 -66 c91 -56 101 -220 20 -308 -31 -35 -37 -37 -107
-40 -69 -4 -76 -2 -106 23 -49 41 -65 81 -66 155 0 159 134 247 259 170z m955
19 c25 -6 55 -20 68 -31 21 -20 22 -30 22 -150 0 -123 1 -128 21 -128 16 0 20
-5 17 -27 -2 -23 -8 -29 -35 -31 -22 -2 -37 3 -49 17 -17 19 -17 19 -53 0 -21
-11 -55 -19 -84 -19 -42 0 -54 5 -83 34 -38 38 -44 77 -19 125 17 34 54 50
143 65 61 10 67 13 70 37 4 34 -19 52 -67 52 -46 0 -59 -7 -71 -39 -7 -18 -17
-24 -40 -24 -25 0 -30 4 -30 24 0 35 44 82 88 94 49 13 50 13 102 1z m352 1
c40 -12 88 -61 88 -91 0 -29 -53 -26 -73 5 -31 46 -127 39 -127 -10 0 -28 4
-31 93 -55 92 -26 117 -48 117 -107 0 -85 -90 -137 -195 -112 -50 11 -95 59
-95 100 0 26 3 30 29 30 23 0 31 -6 39 -29 19 -53 117 -63 149 -15 21 32 -2
51 -87 75 -94 26 -120 48 -120 103 0 49 22 80 70 100 42 18 63 19 112 6z m330
0 c40 -12 88 -61 88 -91 0 -29 -53 -26 -73 5 -31 46 -127 39 -127 -10 0 -28 4
-31 93 -55 92 -26 117 -48 117 -107 0 -85 -90 -137 -195 -112 -50 11 -95 59
-95 100 0 26 3 30 29 30 23 0 31 -6 39 -29 19 -53 117 -63 149 -15 21 32 -2
51 -87 75 -94 26 -120 48 -120 103 0 49 22 80 70 100 42 18 63 19 112 6z
m-2422 -18 c43 -23 71 -77 73 -139 l2 -48 -128 -3 c-127 -3 -128 -3 -122 -25
14 -49 40 -72 84 -75 38 -3 46 1 76 32 37 40 85 50 85 19 0 -26 -33 -72 -66
-94 -42 -27 -135 -26 -182 3 -99 61 -95 258 7 325 43 29 121 31 171 5z m388
-3 l8 -20 18 20 c12 13 31 21 53 21 31 0 33 -2 33 -35 0 -32 -2 -35 -30 -35
-19 0 -40 -9 -55 -25 -24 -23 -25 -30 -25 -145 l0 -120 -35 0 -35 0 0 180 0
180 30 0 c22 0 33 -6 38 -21z m2273 -116 l46 -138 45 135 45 135 36 3 c20 2
37 0 37 -4 0 -13 -123 -348 -150 -409 -30 -67 -44 -82 -80 -85 -61 -5 -70 -1
-70 30 0 28 3 30 35 30 31 0 37 4 50 36 15 36 14 39 -49 213 -35 97 -62 179
-59 184 2 4 19 7 36 7 l33 0 45 -137z"/>
<path d="M10890 19180 l0 -83 79 5 c101 6 131 23 131 76 0 66 -16 77 -119 80
l-91 4 0 -82z"/>
<path d="M10360 19139 c-39 -14 -60 -58 -60 -124 0 -59 19 -109 45 -119 33
-12 85 -6 104 13 21 21 41 80 41 119 0 29 -23 84 -41 98 -22 17 -61 23 -89 13z"/>
<path d="M11391 18995 c-85 -16 -113 -52 -71 -90 24 -21 91 -16 120 10 16 14
34 97 20 94 -3 -1 -34 -7 -69 -14z"/>
<path d="M9563 19125 c-11 -8 -26 -28 -31 -45 l-11 -30 94 0 94 0 -11 30 c-13
38 -43 60 -83 60 -17 0 -40 -7 -52 -15z"/>
<path d="M17572 17580 c-29 -48 0 -55 43 -10 l29 30 -30 0 c-18 0 -34 -7 -42
-20z"/>
<path d="M16520 17565 c0 -21 5 -25 30 -25 25 0 30 4 30 25 0 21 -5 25 -30 25
-25 0 -30 -4 -30 -25z"/>
<path d="M17890 17565 c0 -23 4 -26 28 -23 19 2 27 9 27 23 0 14 -8 21 -27 23
-24 3 -28 0 -28 -23z"/>
<path d="M16010 17540 c0 -20 -5 -30 -15 -30 -8 0 -15 -9 -15 -20 0 -11 7 -20
15 -20 12 0 15 -15 15 -71 0 -92 10 -109 60 -109 33 0 40 4 40 19 0 10 -9 21
-20 24 -17 4 -20 14 -20 71 0 59 2 66 20 66 13 0 20 7 20 20 0 13 -7 20 -20
20 -16 0 -20 7 -20 30 0 27 -3 30 -30 30 -27 0 -30 -3 -30 -30z"/>
<path d="M16390 17540 c0 -20 -5 -30 -15 -30 -8 0 -15 -9 -15 -20 0 -11 7 -20
15 -20 11 0 15 -19 17 -87 l3 -88 43 -3 c36 -3 42 0 42 16 0 11 -9 22 -20 25
-17 4 -20 14 -20 67 0 53 3 63 20 67 11 3 20 14 20 24 0 12 -7 19 -20 19 -16
0 -20 7 -20 30 0 25 -4 30 -25 30 -21 0 -25 -5 -25 -30z"/>
<path d="M15815 17508 c-45 -24 -59 -72 -30 -102 8 -8 40 -22 71 -31 60 -17
68 -38 17 -43 -18 -2 -35 3 -43 12 -7 9 -23 16 -36 16 -30 0 -32 -30 -3 -56
28 -25 120 -26 148 0 52 47 30 97 -54 121 -61 18 -76 45 -26 45 17 0 33 -4 36
-10 6 -9 65 -15 65 -6 0 49 -92 83 -145 54z"/>
<path d="M16183 17510 c-21 -9 -43 -38 -43 -59 0 -17 46 -13 60 5 16 19 65 15
65 -6 0 -8 -15 -18 -35 -23 -69 -18 -90 -30 -96 -53 -17 -66 34 -107 100 -80
20 8 36 11 36 5 0 -5 16 -9 35 -9 32 0 35 2 25 19 -5 11 -10 56 -10 101 l0 81
-35 15 c-38 16 -69 17 -102 4z m87 -133 c0 -26 -26 -49 -50 -45 -33 4 -38 35
-8 47 34 14 58 13 58 -2z"/>
<path d="M16683 17510 c-13 -5 -32 -24 -43 -42 -65 -106 37 -225 147 -172 29
15 41 29 52 61 36 104 -55 193 -156 153z m78 -50 c14 -8 19 -21 19 -55 0 -68
-39 -96 -80 -55 -24 24 -26 67 -4 98 17 24 35 28 65 12z"/>
<path d="M16972 17504 c-12 -8 -22 -10 -22 -5 0 6 -13 11 -30 11 l-30 0 0
-110 0 -110 30 0 29 0 3 81 c2 65 7 84 21 93 12 8 22 8 35 0 13 -9 18 -28 20
-93 l3 -81 29 0 30 0 0 94 c0 90 -1 96 -26 115 -32 25 -61 27 -92 5z"/>
<path d="M17295 17508 c-25 -13 -45 -38 -45 -55 0 -19 56 -17 64 3 8 20 61 15
61 -6 0 -10 -18 -19 -50 -27 -75 -19 -103 -63 -70 -110 20 -29 60 -37 96 -19
16 8 31 10 35 5 3 -5 17 -9 32 -9 l27 0 -3 77 c-1 43 -5 88 -7 100 -10 42 -93
67 -140 41z m85 -137 c0 -25 -24 -43 -52 -39 -31 4 -36 36 -6 47 38 16 58 13
58 -8z"/>
<path d="M17523 17500 c-46 -27 -63 -114 -34 -169 30 -55 133 -62 172 -12 l21
26 -32 3 c-18 2 -37 -1 -43 -7 -17 -17 -42 -13 -61 8 -28 30 -11 41 65 41 67
0 69 1 69 25 0 38 -21 75 -51 91 -38 19 -68 18 -106 -6z m85 -42 c24 -24 13
-38 -28 -38 -26 0 -40 5 -40 13 0 18 21 37 40 37 9 0 21 -5 28 -12z"/>
<path d="M17802 17504 c-14 -9 -22 -11 -22 -4 0 6 -12 10 -27 8 l-28 -3 0
-105 0 -105 28 -3 c27 -3 27 -3 27 60 0 70 18 108 51 108 14 0 19 7 19 30 0
34 -14 38 -48 14z"/>
<path d="M18038 17504 c-15 -8 -32 -23 -38 -34 -13 -25 -13 -116 1 -142 15
-28 74 -51 113 -42 30 6 76 40 76 56 0 12 -39 10 -78 -4 -31 -12 -36 -11 -53
11 -10 13 -16 27 -13 32 3 5 39 9 80 9 l76 0 -7 33 c-18 84 -86 120 -157 81z
m80 -46 c24 -24 13 -38 -28 -38 -26 0 -40 5 -40 13 0 18 21 37 40 37 9 0 21
-5 28 -12z"/>
<path d="M18312 17504 c-12 -8 -22 -10 -22 -5 0 6 -13 11 -30 11 l-30 0 0
-110 0 -110 30 0 30 0 0 73 c0 87 14 113 53 103 27 -6 27 -8 27 -91 l0 -85 30
0 30 0 0 94 c0 90 -1 96 -26 115 -32 25 -61 27 -92 5z"/>
<path d="M18568 17504 c-16 -8 -28 -10 -28 -4 0 5 -11 10 -25 10 l-25 0 0
-110 0 -110 25 0 c24 0 25 3 25 63 0 68 16 110 43 115 36 7 47 -16 47 -99 l0
-79 30 0 30 0 0 90 c0 83 -2 93 -25 115 -27 28 -57 31 -97 9z"/>
<path d="M18778 17504 c-15 -8 -32 -23 -38 -34 -13 -25 -13 -116 1 -142 15
-28 74 -51 113 -42 30 6 76 40 76 56 0 12 -39 10 -78 -4 -31 -12 -36 -11 -53
11 -10 13 -16 27 -13 32 3 5 39 9 80 9 l76 0 -7 33 c-18 84 -86 120 -157 81z
m80 -46 c24 -24 13 -38 -28 -38 -26 0 -40 5 -40 13 0 18 21 37 40 37 9 0 21
-5 28 -12z"/>
<path d="M16520 17400 l0 -110 30 0 30 0 0 110 0 110 -30 0 -30 0 0 -110z"/>
<path d="M17890 17399 l0 -110 28 3 27 3 3 108 3 107 -31 0 -30 0 0 -111z"/>
<path d="M10770 16870 l0 -30 6590 0 6590 0 0 30 0 30 -6590 0 -6590 0 0 -30z"/>
<path d="M19203 16438 c-19 -9 -43 -54 -43 -79 0 -5 13 -9 29 -9 23 0 30 5 33
23 4 27 48 36 67 13 22 -26 4 -62 -49 -101 -52 -38 -80 -78 -80 -115 0 -20 4
-21 98 -18 92 3 97 4 100 26 3 21 0 22 -57 22 -34 0 -61 4 -61 10 0 5 21 25
48 45 58 45 76 76 68 121 -12 62 -89 93 -153 62z"/>
<path d="M23430 16280 l0 -150 25 0 25 0 0 150 0 150 -25 0 -25 0 0 -150z"/>
<path d="M24140 16279 l0 -150 28 3 27 3 3 148 3 147 -31 0 -30 0 0 -151z"/>
<path d="M22699 16332 c-39 -35 -50 -102 -25 -150 21 -40 44 -52 99 -52 34 0
50 6 70 26 15 15 24 30 21 35 -8 14 -50 10 -64 -6 -17 -20 -43 -19 -63 3 -31
35 -21 42 58 42 74 0 75 0 75 25 0 92 -103 138 -171 77z m99 -34 c21 -21 13
-28 -33 -28 -43 0 -45 1 -35 20 12 22 49 27 68 8z"/>
<path d="M22992 16344 c-12 -8 -22 -10 -22 -5 0 6 -14 11 -30 11 l-31 0 3
-107 c3 -108 3 -108 28 -108 24 0 25 3 30 70 6 81 12 95 46 95 20 0 24 5 24
30 0 34 -14 38 -48 14z"/>
<path d="M23096 16339 c-22 -17 -27 -28 -24 -58 3 -34 6 -37 63 -56 37 -13 60
-26 60 -35 0 -21 -49 -25 -68 -6 -19 20 -67 21 -67 3 0 -8 10 -23 23 -35 18
-17 36 -22 80 -22 66 0 97 22 97 68 0 36 -22 56 -83 72 -55 15 -63 23 -41 41
13 11 21 10 46 -4 16 -9 40 -17 53 -17 21 0 23 3 16 23 -18 48 -108 63 -155
26z"/>
<path d="M23573 16350 c-21 -9 -43 -39 -43 -59 0 -17 46 -13 60 5 16 19 65 15
65 -6 0 -9 -15 -18 -40 -23 -55 -12 -68 -20 -85 -50 -13 -24 -13 -30 0 -54 12
-21 24 -29 52 -31 21 -2 46 2 57 7 13 7 22 8 26 1 3 -5 20 -10 37 -10 23 0 29
4 24 16 -3 9 -6 49 -6 89 0 91 -16 115 -80 121 -25 2 -55 0 -67 -6z m87 -134
c0 -21 -28 -46 -51 -46 -28 0 -36 30 -14 46 25 18 65 18 65 0z"/>
<path d="M23962 16344 c-12 -8 -22 -10 -22 -5 0 6 -13 11 -30 11 l-30 0 0
-150 0 -150 30 0 c29 0 30 1 30 52 0 40 3 49 12 40 22 -22 86 -14 113 13 21
21 25 33 25 89 0 59 -2 66 -31 90 -35 30 -65 33 -97 10z m52 -50 c22 -22 24
-77 4 -101 -13 -16 -50 -17 -66 -1 -17 17 -15 78 5 100 20 22 37 23 57 2z"/>
<path d="M24293 16350 c-21 -9 -43 -39 -43 -59 0 -17 46 -13 60 5 16 19 65 15
65 -6 0 -10 -19 -19 -55 -27 -76 -17 -101 -59 -64 -111 17 -24 70 -30 104 -12
13 7 21 7 25 0 3 -5 18 -10 33 -10 l27 0 -5 95 c-4 69 -10 99 -22 111 -19 19
-94 28 -125 14z m87 -134 c0 -21 -28 -46 -51 -46 -28 0 -36 30 -14 46 25 18
65 18 65 0z"/>
<path d="M24530 16347 c-38 -19 -51 -54 -47 -121 4 -72 27 -96 92 -96 57 0 73
7 90 41 20 37 19 39 -13 39 -16 0 -32 -8 -40 -20 -27 -44 -72 -11 -72 54 0 60
39 89 70 51 13 -16 70 -21 70 -6 0 55 -88 89 -150 58z"/>
<path d="M24748 16345 c-55 -30 -63 -149 -13 -192 37 -32 113 -32 143 0 43 45
13 64 -46 30 -29 -17 -31 -17 -51 1 -39 36 -27 46 54 46 74 0 75 0 75 25 0 83
-86 131 -162 90z m92 -55 c10 -19 8 -20 -35 -20 -43 0 -45 1 -35 20 6 12 21
20 35 20 14 0 29 -8 35 -20z"/>
<path d="M22469 16243 c36 -104 39 -108 69 -111 18 -2 32 -2 32 0 0 2 17 52
39 111 l39 107 -32 0 c-31 0 -33 -2 -50 -70 -10 -38 -22 -70 -26 -70 -4 0 -16
32 -26 70 -18 69 -18 70 -51 70 l-33 0 39 -107z"/>
<path d="M14710 16010 l0 -310 111 0 c97 0 110 2 105 16 -3 9 -6 148 -6 310
l0 294 -105 0 -105 0 0 -310z"/>
<path d="M21595 16308 c-3 -7 -4 -146 -3 -308 l3 -295 108 -3 107 -3 -2 308
-3 308 -103 3 c-77 2 -104 -1 -107 -10z"/>
<path d="M14462 16008 l3 -253 75 0 75 0 3 253 2 252 -80 0 -80 0 2 -252z"/>
<path d="M21344 16247 c-2 -7 -3 -120 -2 -252 l3 -240 75 0 75 0 3 253 2 252
-75 0 c-52 0 -77 -4 -81 -13z"/>
<path d="M14240 16005 l0 -195 50 0 50 0 0 195 0 195 -50 0 -50 0 0 -195z"/>
<path d="M21120 16005 l0 -195 50 0 50 0 0 195 0 195 -50 0 -50 0 0 -195z"/>
<path d="M19196 15911 c-46 -48 -315 -424 -321 -449 -7 -30 17 -70 51 -82 32
-13 635 -13 667 -1 65 25 73 74 25 142 -173 239 -283 387 -300 402 -32 28 -89
22 -122 -12z m203 -252 c73 -100 130 -183 128 -185 -2 -2 -124 -3 -270 -2
l-266 3 132 182 c72 101 135 183 138 183 3 0 65 -81 138 -181z"/>
<path d="M22470 15874 c0 -40 -2 -45 -17 -39 -39 16 -54 17 -84 5 -37 -16 -59
-56 -59 -110 0 -87 64 -139 129 -105 18 9 31 11 31 5 0 -5 11 -10 25 -10 l25
0 0 150 0 150 -25 0 c-23 0 -25 -4 -25 -46z m-17 -106 c40 -53 -7 -127 -59
-93 -33 21 -34 87 -2 109 27 20 36 17 61 -16z"/>
<path d="M22968 15897 c-38 -32 -51 -65 -51 -127 0 -88 38 -143 110 -156 61
-11 131 28 148 84 6 19 3 22 -23 22 -21 0 -35 -8 -46 -25 -23 -35 -77 -35
-105 1 -29 36 -29 112 0 148 28 36 82 36 105 1 11 -17 25 -25 45 -25 39 0 38
23 -5 66 -31 31 -39 34 -92 34 -47 0 -65 -5 -86 -23z"/>
<path d="M24200 15770 l0 -150 30 0 30 0 0 60 0 60 43 0 c58 0 67 -9 74 -68 6
-50 7 -52 38 -52 l31 0 -7 60 c-4 33 -12 66 -18 74 -8 10 -8 16 4 26 9 8 15
29 15 55 0 35 -5 48 -26 64 -23 18 -41 21 -120 21 l-94 0 0 -150z m170 86 c6
-8 10 -25 8 -38 -3 -21 -9 -23 -60 -26 l-58 -3 0 34 c0 18 3 37 7 40 12 13 90
7 103 -7z"/>
<path d="M24494 15905 c-8 -21 4 -35 32 -35 19 0 24 5 24 25 0 20 -5 25 -25
25 -14 0 -28 -7 -31 -15z"/>
<path d="M23720 15870 c0 -20 -5 -30 -15 -30 -8 0 -15 -9 -15 -20 0 -11 7 -20
15 -20 12 0 15 -15 15 -78 0 -88 8 -102 57 -102 26 0 33 4 33 20 0 11 -6 20
-14 20 -19 0 -26 22 -26 82 0 41 3 51 20 55 11 3 20 13 20 23 0 10 -9 20 -20
23 -14 3 -20 14 -20 31 0 21 -5 26 -25 26 -21 0 -25 -5 -25 -30z"/>
<path d="M22625 15841 c-43 -18 -60 -50 -60 -111 0 -68 18 -94 75 -111 43 -13
102 7 120 40 10 19 8 21 -23 21 -18 0 -38 -5 -44 -11 -24 -24 -85 13 -67 42 3
5 36 9 75 9 67 0 69 1 69 25 0 76 -74 125 -145 96z m69 -57 c22 -21 11 -34
-29 -34 -19 0 -36 4 -40 9 -7 12 22 41 40 41 7 0 21 -7 29 -16z"/>
<path d="M23273 15840 c-32 -13 -63 -68 -63 -110 0 -97 103 -149 187 -94 48
31 50 146 3 189 -22 20 -95 29 -127 15z m78 -50 c14 -8 19 -21 19 -55 0 -68
-39 -96 -80 -55 -24 24 -26 67 -4 98 17 24 35 28 65 12z"/>
<path d="M23513 15840 c-41 -17 -56 -75 -28 -104 9 -9 35 -21 58 -27 47 -12
69 -27 61 -40 -9 -15 -61 -10 -74 6 -14 16 -70 21 -70 6 0 -6 11 -22 24 -38
20 -24 31 -27 79 -27 59 0 83 13 98 52 7 18 5 31 -6 49 -17 26 -19 27 -82 43
-51 13 -60 40 -14 40 17 0 33 -4 36 -10 3 -5 19 -10 35 -10 26 0 28 2 21 23
-15 40 -83 59 -138 37z"/>
<path d="M23889 15839 c-21 -8 -49 -44 -49 -64 0 -13 59 -3 64 11 4 10 15 14
33 12 36 -4 36 -30 1 -40 -16 -5 -40 -11 -55 -16 -16 -4 -34 -20 -42 -37 -12
-25 -12 -32 0 -54 20 -35 61 -46 99 -28 17 9 32 11 36 6 3 -5 17 -9 32 -9 l27
0 -3 92 c-3 72 -8 97 -21 111 -21 22 -86 30 -122 16z m81 -137 c0 -24 -19 -42
-46 -42 -27 0 -36 12 -28 34 11 28 74 35 74 8z"/>
<path d="M24665 15841 c-56 -23 -83 -117 -51 -179 18 -35 71 -57 116 -47 30 7
70 47 70 71 0 22 -53 17 -68 -6 -26 -42 -72 -11 -72 49 0 24 7 44 18 54 24 22
34 21 62 -3 38 -33 68 -22 55 20 -12 39 -82 60 -130 41z"/>
<path d="M24883 15840 c-21 -9 -43 -39 -43 -59 0 -17 46 -13 60 5 16 19 65 15
65 -6 0 -10 -17 -19 -49 -27 -26 -7 -57 -20 -67 -29 -28 -25 -24 -68 7 -93 32
-25 46 -26 84 -6 17 9 30 11 30 5 0 -5 16 -10 35 -10 24 0 33 4 29 13 -2 7 -6
50 -7 95 -2 60 -7 86 -19 98 -19 19 -94 28 -125 14z m87 -133 c0 -26 -26 -49
-50 -45 -33 4 -38 35 -8 47 34 14 58 13 58 -2z"/>
<path d="M24494 15827 c-3 -8 -3 -56 -2 -108 l3 -94 28 -3 27 -3 0 110 0 111
-25 0 c-14 0 -28 -6 -31 -13z"/>
<path d="M16438 15634 c-30 -16 -48 -43 -48 -71 0 -10 50 -85 111 -168 61 -82
134 -182 162 -222 75 -103 118 -124 171 -82 14 11 67 77 117 147 51 70 115
159 144 197 83 111 91 129 75 160 -28 53 -42 55 -387 55 -261 -1 -323 -3 -345
-16z m609 -98 c-9 -22 -258 -356 -265 -356 -9 1 -256 339 -260 357 -3 10 47
13 263 13 225 0 266 -2 262 -14z"/>
<path d="M24277 15376 l47 -94 -47 -91 c-25 -50 -44 -91 -42 -91 3 0 88 42
190 92 l185 93 -182 92 c-101 51 -186 92 -190 92 -5 1 13 -41 39 -93z"/>
<path d="M22950 15316 c-28 -35 11 -93 48 -70 35 22 22 84 -18 84 -10 0 -23
-7 -30 -14z"/>
<path d="M23226 15308 c-13 -19 -14 -25 -2 -43 26 -39 76 -26 76 19 0 46 -48
62 -74 24z"/>
<path d="M23506 15314 c-19 -18 -21 -45 -4 -62 25 -25 78 -2 78 33 0 18 -27
45 -45 45 -7 0 -21 -7 -29 -16z"/>
<path d="M23782 15318 c-7 -7 -12 -21 -12 -33 0 -44 44 -59 75 -25 17 18 17
21 1 45 -18 27 -45 32 -64 13z"/>
<path d="M24060 15316 c-28 -35 11 -93 48 -70 35 22 22 84 -18 84 -10 0 -23
-7 -30 -14z"/>
<path d="M18851 15050 l-235 -110 -663 0 -663 0 0 -126 0 -125 33 3 c32 3 32
4 35 61 l3 57 664 0 c366 0 665 4 665 8 0 5 101 55 225 112 124 58 225 109
225 115 -1 5 -13 34 -28 62 l-27 53 -234 -110z"/>
<path d="M11586 14938 c-3 -13 -6 -493 -6 -1069 l0 -1045 -34 -33 c-19 -18
-47 -61 -63 -95 l-28 -61 0 -385 c0 -381 0 -385 23 -435 13 -27 41 -71 63 -97
l39 -47 0 -1090 0 -1091 2315 0 2315 0 0 63 0 64 -162 7 c-90 4 -1116 4 -2280
0 l-2118 -7 0 1006 c0 554 1 1007 3 1007 1 0 25 -7 52 -16 45 -14 620 -15
5655 -14 4004 0 5616 3 5644 11 23 6 58 20 78 30 l38 19 0 -1020 0 -1020
-1845 0 -1845 0 0 -65 0 -65 1845 -2 c1015 -1 1860 -2 1878 -2 l32 -1 2 1115
3 1115 37 74 38 74 3 358 c4 391 -2 443 -53 521 l-25 38 0 1032 c0 568 0 1059
0 1091 l0 57 -928 0 c-511 0 -1362 -3 -1891 -7 l-962 -6 3 -65 3 -65 1260 1
c693 1 1527 5 1853 9 l592 6 0 -991 c0 -546 -1 -992 -3 -992 -2 0 -22 9 -45
20 -23 11 -65 25 -93 30 -73 14 -11188 13 -11249 -1 -25 -5 -53 -12 -62 -15
-17 -5 -18 46 -18 972 l0 977 2108 -7 c1159 -4 2191 -4 2295 0 l187 7 0 64 0
63 -2324 0 -2324 0 -6 -22z m6363 -2223 c144 -38 248 -121 312 -249 34 -69 42
-96 46 -162 10 -144 -34 -268 -130 -364 -65 -65 -121 -98 -206 -122 -216 -60
-435 41 -537 247 -68 137 -58 314 25 443 109 168 313 254 490 207z m-964 -49
c117 -31 217 -113 270 -221 27 -55 30 -68 30 -170 0 -100 -2 -115 -28 -167
-43 -88 -107 -152 -195 -195 -73 -36 -80 -38 -177 -38 -93 0 -105 2 -165 32
-262 129 -317 462 -108 659 62 58 82 71 158 95 66 22 147 23 215 5z m-4977
-51 l21 -34 -85 -52 c-46 -28 -84 -53 -84 -54 0 -2 66 -3 147 -3 80 -1 150 -5
155 -10 5 -5 8 -25 6 -43 l-3 -34 -155 -5 -155 -5 82 -48 c46 -27 85 -52 87
-55 2 -4 -7 -24 -20 -45 l-25 -37 -47 27 c-26 15 -103 61 -172 103 -116 69
-125 77 -125 105 0 28 11 36 169 132 93 56 173 100 177 98 4 -3 16 -21 27 -40z
m352 -85 l55 -95 3 98 3 97 29 0 30 0 0 -155 0 -155 -34 0 c-33 0 -36 4 -88
95 l-53 95 -3 -95 -3 -95 -34 0 -35 0 0 148 c0 82 3 152 7 156 4 4 21 6 37 4
27 -3 37 -14 86 -98z m610 70 c0 -28 -3 -30 -35 -30 -30 0 -35 3 -35 23 0 31
7 37 42 37 24 0 28 -4 28 -30z m-130 -28 c3 -18 10 -31 15 -30 6 2 11 -7 13
-19 2 -16 -2 -23 -12 -23 -13 0 -16 -13 -16 -65 0 -51 3 -65 15 -65 10 0 15
-10 15 -30 0 -26 -4 -30 -28 -30 -15 0 -38 7 -50 16 -20 13 -22 24 -22 95 0
65 -3 79 -16 79 -10 0 -14 7 -12 23 2 12 9 21 16 20 7 -2 12 8 12 25 0 36 8
44 40 40 20 -2 26 -10 30 -36z m-146 -44 c23 -21 25 -32 28 -116 l3 -93 -45 1
c-25 0 -61 -2 -80 -6 -48 -8 -83 20 -83 65 0 43 28 70 83 79 30 5 45 13 45 22
0 21 -44 25 -51 6 -4 -10 -18 -16 -40 -16 -42 0 -45 20 -9 55 33 34 112 35
149 3z m276 -93 l0 -115 -35 0 -35 0 0 108 c0 60 3 112 7 115 3 4 19 7 35 7
l28 0 0 -115z m233 89 c76 -76 28 -214 -74 -214 -86 0 -126 49 -117 142 7 71
38 98 112 98 44 0 58 -5 79 -26z m137 16 c0 -7 6 -7 19 0 30 16 76 12 102 -9
22 -17 24 -27 24 -112 l0 -94 -32 -3 -33 -3 0 75 c0 54 -4 79 -16 90 -19 20
-23 20 -46 -1 -14 -13 -18 -31 -18 -90 l0 -73 -30 0 -30 0 0 115 0 115 30 0
c17 0 30 -5 30 -10z m9564 -378 c88 -53 164 -105 170 -114 8 -13 8 -23 0 -35
-11 -18 -327 -213 -344 -213 -7 0 -50 64 -50 75 0 2 37 25 83 52 l82 48 -150
5 -150 5 -3 47 -3 47 153 3 153 3 -80 49 c-44 26 -81 49 -83 51 -7 6 41 75 51
75 7 0 84 -44 171 -98z m-1344 18 l0 -29 -77 -3 c-75 -3 -77 -4 -78 -28 0 -24
3 -25 73 -28 l72 -3 0 -29 0 -30 -74 0 -74 0 3 -32 2 -33 82 -3 81 -3 0 -29 0
-30 -120 0 -120 0 0 148 c0 82 3 152 7 155 3 4 55 7 115 7 l108 0 0 -30z m500
0 c0 -27 -3 -30 -30 -30 -32 0 -47 18 -36 45 3 9 18 15 36 15 27 0 30 -3 30
-30z m120 -125 l0 -155 -35 0 -35 0 0 148 c0 82 3 152 7 155 3 4 19 7 35 7
l28 0 0 -155z m-500 106 c0 -20 6 -30 20 -34 12 -3 20 -14 20 -26 0 -14 -6
-21 -20 -21 -18 0 -20 -7 -20 -64 0 -55 3 -64 20 -69 12 -3 20 -14 20 -26 0
-18 -6 -21 -45 -21 -56 0 -65 15 -65 109 0 56 -3 71 -15 71 -8 0 -15 9 -15 20
0 11 7 23 15 26 8 4 15 16 15 28 0 30 8 36 42 36 24 0 28 -4 28 -29z m251 -57
c64 -61 42 -175 -38 -203 -51 -18 -115 -3 -139 34 -41 63 -21 164 38 190 47
21 104 13 139 -21z m433 22 c42 -18 66 -51 66 -93 l0 -33 -69 0 c-72 0 -92
-10 -71 -35 14 -17 56 -20 65 -5 8 12 75 13 75 1 0 -20 -51 -60 -83 -66 -45
-9 -106 19 -124 55 -31 62 -5 151 50 175 41 18 50 18 91 1z m-304 -112 l0
-115 -32 3 -33 3 -3 99 c-1 55 0 106 2 113 3 7 19 13 36 13 l30 0 0 -116z"/>
<path d="M17827 12476 c-73 -27 -113 -62 -146 -127 -26 -52 -31 -74 -31 -133
1 -109 33 -167 113 -201 67 -28 145 -15 201 34 54 47 66 155 25 216 -41 60
-128 83 -191 51 l-28 -15 15 29 c19 37 59 58 127 68 l53 7 0 40 0 40 -50 2
c-27 2 -67 -4 -88 -11z m58 -270 c16 -37 6 -93 -17 -108 -26 -16 -67 -8 -82
15 -44 68 -23 127 45 127 36 0 41 -3 54 -34z"/>
<path d="M16666 12403 c-3 -37 -8 -111 -11 -163 -3 -52 -8 -121 -11 -152 l-6
-58 45 0 44 0 7 53 c3 28 6 89 6 133 0 45 3 96 7 115 5 29 10 17 38 -92 59
-227 50 -209 94 -209 l38 0 48 158 c27 86 52 161 57 166 4 6 8 -24 8 -65 0
-42 3 -117 6 -167 l7 -92 45 0 45 0 -7 153 c-4 83 -9 183 -13 220 l-6 68 -64
-3 -65 -3 -29 -90 c-16 -49 -34 -114 -40 -143 -7 -29 -16 -55 -20 -58 -4 -2
-13 19 -19 48 -6 29 -23 96 -38 148 l-28 95 -66 3 -66 3 -6 -68z"/>
<path d="M12610 12411 c-29 -8 -34 -44 -7 -49 23 -5 47 15 47 39 0 20 -2 21
-40 10z"/>
<path d="M13096 12487 c-22 -16 -26 -78 -7 -101 18 -22 58 -20 71 3 16 30 12
76 -8 94 -22 20 -33 21 -56 4z"/>
<path d="M21816 12058 c-31 -44 -11 -108 33 -108 27 0 45 27 45 65 0 61 -48
87 -78 43z"/>
<path d="M22290 12060 c-10 -18 -8 -20 30 -20 41 0 49 7 28 28 -18 18 -46 14
-58 -8z"/>
<path d="M20217 14754 c-63 -20 -128 -84 -150 -149 -22 -63 -21 -83 4 -149 25
-69 80 -118 156 -142 52 -16 57 -16 110 0 221 70 232 355 16 436 -63 23 -72
24 -136 4z m138 -53 c50 -22 91 -69 105 -119 12 -46 12 -48 -1 -95 -33 -118
-176 -172 -279 -104 -113 76 -101 255 22 316 52 26 100 26 153 2z"/>
<path d="M20236 14585 c-31 -31 -27 -84 8 -107 24 -16 75 -8 90 14 34 49 7
108 -49 108 -18 0 -40 -7 -49 -15z"/>
<path d="M15640 14420 l0 -301 98 3 97 3 0 295 0 295 -97 3 -98 3 0 -301z"/>
<path d="M15420 14420 l0 -250 75 0 75 0 0 250 0 250 -75 0 -75 0 0 -250z"/>
<path d="M17055 14616 c-17 -7 -43 -28 -58 -45 l-27 -33 0 -204 c0 -222 4
-242 56 -283 26 -20 38 -21 308 -21 391 0 376 -12 376 298 0 190 -1 201 -23
233 -43 65 -62 69 -347 69 -189 -1 -263 -4 -285 -14z m215 -125 c0 -101 -5
-116 -34 -105 -13 5 -16 23 -16 98 0 51 3 96 7 99 3 4 15 7 25 7 16 0 18 -10
18 -99z m280 -78 l93 -88 -79 -73 c-105 -98 -120 -108 -139 -92 -26 21 -18 57
20 87 19 15 35 31 35 36 0 4 -90 7 -200 7 -178 0 -200 2 -209 17 -6 11 -6 24
0 35 9 16 28 18 209 18 110 0 200 4 200 8 0 4 -16 23 -35 42 -47 45 -46 86 1
89 6 1 53 -38 104 -86z m-282 -251 c3 -103 3 -103 -20 -100 -22 3 -23 8 -26
92 -3 101 1 119 25 114 16 -3 18 -17 21 -106z"/>
<path d="M15230 14420 l0 -201 48 3 47 3 0 195 0 195 -47 3 -48 3 0 -201z"/>
<path d="M16475 14044 c-9 -14 -15 -27 -13 -29 10 -9 377 -244 395 -254 16 -8
97 -11 270 -9 l248 3 3 118 3 117 -36 0 -35 0 0 -85 0 -85 -214 0 -213 0 -191
125 c-106 69 -193 125 -196 125 -2 0 -11 -12 -21 -26z"/>
<path d="M15087 14023 c-4 -3 -7 -19 -7 -35 l0 -28 660 0 660 0 0 28 0 29
-292 6 c-380 9 -1013 9 -1021 0z"/>
<path d="M15072 10443 l3 -38 735 0 736 0 148 -108 c81 -60 154 -106 161 -103
8 3 18 13 24 24 9 16 -11 33 -157 140 -119 87 -169 118 -178 111 -8 -7 -14 -7
-19 1 -4 7 -236 10 -731 10 l-725 0 3 -37z"/>
<path d="M16990 10365 c-7 -14 -11 -27 -9 -29 2 -1 53 -36 113 -76 l109 -72
-5 -344 -5 -344 229 0 228 0 0 65 0 65 -195 0 -195 0 -1 290 c-1 160 -2 294
-3 300 -1 10 -232 170 -245 170 -4 0 -14 -11 -21 -25z"/>
<path d="M15642 10038 l3 -303 95 0 95 0 0 300 0 300 -98 3 -97 3 2 -303z"/>
<path d="M15420 10040 l0 -250 23 -5 c13 -4 46 -5 73 -3 l49 3 3 253 2 252
-75 0 -75 0 0 -250z"/>
<path d="M15230 10034 l0 -195 48 3 47 3 3 193 2 192 -50 0 -50 0 0 -196z"/>
<path d="M20675 10151 c-47 -21 -99 -76 -120 -128 -49 -117 25 -257 159 -299
53 -17 59 -17 111 0 31 9 72 32 92 49 45 39 83 119 83 172 0 82 -67 178 -147
212 -45 18 -131 16 -178 -6z m195 -55 c57 -37 83 -94 78 -167 -5 -70 -37 -117
-101 -148 -53 -26 -99 -26 -152 -2 -79 35 -113 102 -102 197 14 127 166 194
277 120z"/>
<path d="M20720 9990 c-42 -42 -11 -113 50 -113 61 0 92 71 50 113 -11 11 -33
20 -50 20 -17 0 -39 -9 -50 -20z"/>
<path d="M17784 9951 c-17 -10 -41 -33 -53 -49 -20 -29 -21 -40 -21 -301 l0
-271 25 -40 c14 -21 34 -44 45 -50 14 -7 95 -10 241 -8 l221 3 34 37 34 38 0
275 c0 307 -3 327 -63 363 -32 21 -47 22 -233 22 -178 0 -202 -2 -230 -19z
m387 -229 c9 -16 10 -28 3 -40 -18 -28 -32 -25 -79 19 l-45 42 0 -192 c0 -114
-4 -200 -10 -212 -13 -23 -33 -24 -54 -3 -14 13 -16 47 -16 212 l0 196 -45
-44 c-37 -37 -49 -43 -63 -34 -36 23 -25 48 64 143 l87 92 73 -78 c40 -43 78
-88 85 -101z m-223 -219 c3 -23 1 -23 -97 -23 -100 0 -118 6 -107 36 5 12 24
14 103 12 93 -3 98 -4 101 -25z m327 2 c0 -18 -8 -20 -94 -23 -96 -3 -119 4
-108 33 6 13 22 15 104 13 90 -3 98 -5 98 -23z"/>
<path d="M18533 9633 l-143 -4 0 -64 0 -65 138 0 137 -1 210 -98 210 -99 27
51 c15 29 27 57 28 62 0 10 -451 228 -461 223 -2 -1 -68 -4 -146 -5z"/>
<path d="M16631 9403 c-16 -16 -80 -98 -142 -183 -214 -294 -211 -289 -164
-335 l24 -25 341 0 341 0 24 25 c48 47 51 40 -189 368 -60 81 -118 154 -129
162 -33 23 -73 18 -106 -12z m199 -263 l128 -175 -134 -3 c-74 -1 -194 -1
-268 0 l-135 3 131 178 c71 98 134 177 140 175 5 -2 67 -82 138 -178z"/>
<path d="M17956 9038 c-14 -13 -54 -62 -88 -110 -35 -47 -102 -140 -151 -206
-101 -139 -111 -169 -74 -206 l26 -26 339 0 c328 0 340 1 366 21 28 22 34 60
13 94 -35 59 -302 418 -324 435 -34 26 -76 25 -107 -2z m145 -200 c45 -62 104
-142 130 -177 26 -36 46 -69 43 -73 -6 -9 -518 -11 -527 -2 -8 8 249 364 263
364 4 0 45 -51 91 -112z"/>
<path d="M18901 9034 c-17 -14 -31 -35 -31 -47 1 -19 64 -112 267 -391 32 -44
74 -88 93 -99 33 -18 35 -18 65 -1 35 21 24 8 167 202 163 222 198 272 198
289 0 8 -13 28 -29 44 l-29 29 -335 0 -335 0 -31 -26z m622 -88 c-27 -48 -250
-345 -259 -346 -6 0 -35 33 -64 73 -30 39 -89 120 -132 180 l-78 107 270 0
c231 0 270 -2 263 -14z"/>
<path d="M14714 8941 c-2 -2 -4 -141 -4 -308 l0 -303 108 0 107 0 0 304 0 305
-103 3 c-57 2 -106 1 -108 -1z"/>
<path d="M21592 8638 l3 -303 108 -3 107 -3 0 306 0 305 -110 0 -110 0 2 -302z"/>
<path d="M14467 8884 c-4 -4 -7 -119 -7 -256 l0 -249 78 3 77 3 0 250 0 250
-70 3 c-39 1 -74 0 -78 -4z"/>
<path d="M21345 8878 c-3 -7 -4 -121 -3 -253 l3 -240 75 0 75 0 0 250 0 250
-73 3 c-53 2 -74 -1 -77 -10z"/>
<path d="M11790 8700 l0 -150 30 0 30 0 0 150 0 150 -30 0 -30 0 0 -150z"/>
<path d="M13030 8800 c0 -20 -5 -30 -15 -30 -19 0 -20 -36 0 -43 10 -5 15 -28
17 -89 l3 -83 43 -3 c36 -3 42 0 42 16 0 11 -9 22 -20 25 -17 4 -20 14 -20 67
0 53 3 63 20 67 11 3 20 14 20 24 0 12 -7 19 -20 19 -16 0 -20 7 -20 30 0 25
-4 30 -25 30 -21 0 -25 -5 -25 -30z"/>
<path d="M14240 8635 l0 -195 50 0 50 0 0 195 0 195 -50 0 -50 0 0 -195z"/>
<path d="M21120 8635 l0 -195 50 0 50 0 0 195 0 195 -50 0 -50 0 0 -195z"/>
<path d="M11497 8770 c-43 -13 -57 -29 -57 -65 0 -40 12 -50 73 -66 50 -12 70
-34 46 -50 -17 -10 -50 -2 -65 17 -6 8 -23 14 -38 14 -55 0 -15 -64 48 -76 73
-13 126 17 126 72 0 38 -23 57 -80 69 -64 13 -78 45 -19 45 17 0 32 -6 35 -15
9 -22 54 -19 54 3 0 41 -68 69 -123 52z"/>
<path d="M12550 8762 c-62 -31 -76 -130 -27 -188 26 -29 87 -41 129 -25 87 33
88 181 3 217 -45 18 -63 18 -105 -4z m90 -52 c38 -38 15 -120 -34 -120 -33 0
-51 26 -51 72 0 62 46 87 85 48z"/>
<path d="M10800 8761 c0 -5 16 -55 36 -110 36 -99 37 -101 68 -101 30 0 32 2
65 98 19 53 36 103 39 110 3 8 -6 12 -26 12 -29 0 -32 -4 -47 -57 -27 -98 -30
-103 -43 -63 -6 19 -16 54 -22 78 -10 37 -14 42 -40 42 -17 0 -30 -4 -30 -9z"/>
<path d="M11063 8746 c-25 -22 -28 -31 -28 -84 0 -50 4 -65 24 -86 46 -49 142
-41 171 14 10 18 8 20 -24 20 -19 0 -38 -4 -41 -10 -11 -18 -54 -11 -65 11 -7
11 -9 23 -6 26 3 3 37 5 76 5 l70 0 0 33 c0 21 -9 45 -26 64 -22 27 -32 31
-74 31 -37 0 -56 -6 -77 -24z m101 -32 c25 -25 19 -34 -22 -34 -48 0 -57 8
-35 32 20 22 37 23 57 2z"/>
<path d="M11280 8660 l0 -110 25 0 c24 0 25 3 25 54 0 71 13 104 45 112 18 4
25 13 25 30 0 27 -27 33 -49 12 -11 -10 -14 -10 -18 0 -3 6 -16 12 -29 12 -24
0 -24 0 -24 -110z"/>
<path d="M11916 8740 c-52 -62 -28 -170 43 -191 58 -17 131 13 131 55 0 11
-56 6 -67 -5 -15 -15 -54 -7 -67 13 -5 9 -8 19 -6 22 3 2 37 6 75 8 l70 3 -2
34 c-1 19 -10 46 -21 60 -16 22 -28 26 -74 29 -51 3 -57 1 -82 -28z m102 -22
c24 -24 13 -38 -28 -38 -43 0 -49 9 -24 34 19 19 36 20 52 4z"/>
<path d="M12254 8757 c-2 -7 -3 -76 -2 -152 l3 -140 28 -3 c27 -3 27 -3 27 53
l0 55 25 -16 c31 -20 75 -11 106 22 19 20 23 36 24 84 0 48 -4 63 -24 84 -26
28 -76 35 -112 16 -13 -7 -19 -7 -19 0 0 15 -50 12 -56 -3z m146 -67 c16 -39
5 -78 -25 -92 -48 -22 -85 47 -55 103 7 12 21 19 39 19 22 0 31 -7 41 -30z"/>
<path d="M12760 8660 l0 -110 30 0 30 0 0 74 c0 90 18 118 64 100 13 -5 16
-23 16 -90 l0 -84 30 0 30 0 0 93 c0 78 -3 97 -18 110 -22 20 -92 23 -110 5
-9 -9 -12 -9 -12 0 0 7 -13 12 -30 12 l-30 0 0 -110z"/>
<path d="M11203 8333 c-10 -3 -13 -43 -13 -149 l0 -144 100 0 c96 0 102 1 125
26 30 33 33 86 7 112 -16 16 -17 22 -5 37 31 44 10 99 -45 115 -38 10 -147 13
-169 3z m165 -77 c5 -26 -15 -36 -70 -36 -47 0 -48 1 -48 30 l0 31 57 -3 c47
-2 58 -6 61 -22z m-4 -102 c19 -18 19 -20 6 -45 -9 -15 -22 -19 -65 -19 l-55
0 0 33 c0 19 3 37 7 40 13 14 92 7 107 -9z"/>
<path d="M11490 8315 c0 -21 5 -25 30 -25 25 0 30 4 30 25 0 21 -5 25 -30 25
-25 0 -30 -4 -30 -25z"/>
<path d="M11917 8334 c-4 -4 -7 -72 -7 -151 l0 -143 30 0 30 0 0 65 0 65 60 0
60 0 0 -65 0 -65 30 0 31 0 -3 148 -3 147 -25 0 c-23 0 -25 -4 -28 -58 l-3
-58 -57 3 -57 3 -5 55 c-4 46 -8 55 -25 58 -12 2 -24 0 -28 -4z"/>
<path d="M12900 8315 c0 -21 5 -25 30 -25 25 0 30 4 30 25 0 21 -5 25 -30 25
-25 0 -30 -4 -30 -25z"/>
<path d="M10720 8283 c0 -37 -3 -44 -12 -35 -7 7 -29 12 -49 12 -56 0 -89 -43
-89 -117 0 -47 4 -59 29 -84 33 -33 74 -38 109 -13 12 8 22 10 22 5 0 -6 11
-11 25 -11 l25 0 0 145 0 145 -30 0 c-29 0 -30 -1 -30 -47z m-12 -85 c7 -7 12
-30 12 -53 0 -46 -13 -65 -47 -65 -25 0 -43 26 -43 65 0 55 45 86 78 53z"/>
<path d="M12440 8185 l0 -145 30 0 c28 0 30 2 30 39 0 57 15 58 45 6 24 -40
31 -45 61 -45 l35 0 -27 48 c-15 26 -31 51 -36 57 -15 17 -8 41 22 70 37 36
38 45 3 45 -18 0 -40 -13 -65 -37 l-38 -37 0 72 0 72 -30 0 -30 0 0 -145z"/>
<path d="M19242 8270 c-7 -11 -26 -23 -43 -27 -41 -8 -35 -37 9 -41 l32 -3 0
-100 0 -99 30 0 30 0 0 145 c0 144 0 145 -23 145 -12 0 -28 -9 -35 -20z"/>
<path d="M10855 8237 c-20 -17 -28 -35 -32 -70 -10 -90 39 -145 119 -134 41 6
78 31 78 54 0 18 -45 17 -73 -2 -20 -13 -25 -13 -45 1 -12 8 -22 22 -22 30 0
11 16 14 76 14 l77 0 -6 42 c-8 58 -43 88 -102 88 -31 0 -52 -7 -70 -23z m93
-33 c34 -23 27 -34 -23 -34 -49 0 -53 4 -28 32 20 22 23 22 51 2z"/>
<path d="M11490 8150 l0 -110 30 0 30 0 0 110 0 110 -30 0 -30 0 0 -110z"/>
<path d="M11607 8253 c-4 -3 -7 -53 -7 -110 l0 -103 30 0 30 0 0 65 c0 68 20
105 55 105 9 0 15 9 15 25 0 30 -24 33 -52 8 -17 -15 -18 -15 -18 0 0 17 -39
24 -53 10z"/>
<path d="M12220 8240 c-27 -27 -26 -50 4 -50 13 0 29 7 36 15 16 19 44 19 59
1 15 -18 -3 -32 -54 -39 -23 -4 -47 -15 -57 -28 -54 -65 30 -143 100 -93 12 8
22 10 22 5 0 -6 15 -11 33 -11 l32 0 -7 92 c-3 51 -7 94 -7 95 -20 38 -127 47
-161 13z m110 -109 c0 -35 -36 -66 -64 -55 -26 10 -19 41 12 52 35 13 52 14
52 3z"/>
<path d="M12685 8237 c-53 -45 -43 -162 16 -192 49 -26 96 -19 132 18 l32 32
-34 3 c-18 2 -38 -1 -44 -7 -24 -24 -77 -6 -77 26 0 10 20 13 76 13 l77 0 -6
42 c-8 58 -43 88 -102 88 -31 0 -52 -7 -70 -23z m93 -33 c34 -23 27 -34 -23
-34 -49 0 -53 4 -28 32 20 22 23 22 51 2z"/>
<path d="M12900 8150 l0 -110 30 0 30 0 0 110 0 110 -30 0 -30 0 0 -110z"/>
<path d="M13020 8150 l0 -110 30 0 29 0 3 83 c3 78 4 82 27 85 33 5 41 -12 41
-96 l0 -73 28 3 c26 3 27 5 32 83 5 75 6 80 29 83 33 5 41 -12 41 -95 0 -71 1
-73 25 -73 24 0 25 3 27 58 3 89 -2 126 -19 145 -19 20 -72 22 -98 3 -16 -11
-21 -11 -33 0 -17 17 -74 18 -91 2 -11 -10 -14 -10 -18 0 -3 6 -16 12 -29 12
-24 0 -24 0 -24 -110z"/>
<path d="M11752 8153 c3 -27 5 -28 58 -28 52 0 55 1 55 25 0 23 -4 25 -58 28
l-58 3 3 -28z"/>
<path d="M13700 8030 l0 -30 875 0 875 0 0 30 0 30 -875 0 -875 0 0 -30z"/>
<path d="M20580 8030 l0 -30 878 2 877 3 3 28 3 27 -880 0 -881 0 0 -30z"/>
<path d="M14735 7783 c-44 -14 -82 -27 -84 -29 -2 -2 13 -56 33 -122 20 -65
36 -125 36 -133 0 -9 -16 -65 -35 -125 -19 -60 -35 -114 -35 -119 0 -11 168
-71 175 -63 2 2 24 68 49 146 25 78 47 146 50 151 3 4 -1 26 -9 47 -8 22 -30
92 -50 157 -20 64 -39 117 -43 116 -4 0 -43 -12 -87 -26z"/>
<path d="M21680 7801 c-8 -4 -45 -16 -82 -26 -38 -10 -68 -21 -68 -25 0 -4 16
-56 35 -116 19 -60 35 -120 35 -133 0 -13 -16 -73 -35 -132 -19 -60 -35 -112
-35 -117 0 -4 35 -18 78 -32 42 -13 82 -25 88 -27 7 -3 26 45 48 114 20 65 43
135 51 156 11 31 11 43 0 75 -8 20 -30 90 -50 155 -20 64 -39 117 -43 117 -4
0 -14 -4 -22 -9z"/>
<path d="M14482 7726 c-28 -13 -54 -25 -57 -28 -3 -2 11 -49 31 -102 l36 -98
-37 -100 c-20 -55 -35 -101 -33 -102 1 -2 29 -13 61 -26 71 -28 68 -31 121
123 l39 112 -37 95 c-20 52 -42 107 -48 123 -12 31 -8 31 -76 3z"/>
<path d="M21365 7724 c-37 -14 -59 -27 -57 -36 1 -7 17 -54 34 -104 l32 -91
-38 -97 c-20 -54 -36 -99 -34 -100 20 -14 123 -45 129 -39 10 11 89 223 89
239 0 16 -80 236 -89 245 -3 3 -33 -5 -66 -17z"/>
<path d="M11223 7637 c-101 -51 -183 -94 -183 -97 0 -6 351 -181 363 -180 4 0
-13 41 -38 91 l-46 91 46 90 c25 50 45 91 43 93 -2 2 -85 -38 -185 -88z"/>
<path d="M14252 7673 c-37 -19 -36 -22 9 -116 l28 -58 -35 -76 c-39 -84 -36
-97 21 -108 29 -6 31 -4 72 89 l43 95 -45 96 c-24 52 -48 95 -52 94 -4 0 -23
-8 -41 -16z"/>
<path d="M21140 7673 c-19 -8 -36 -16 -38 -18 -2 -1 14 -37 35 -79 l37 -76
-23 -47 c-55 -111 -55 -111 -22 -128 17 -8 36 -15 43 -15 7 0 32 42 56 94 l42
94 -35 76 c-19 42 -35 80 -35 85 0 22 -26 28 -60 14z"/>
<path d="M16880 7585 c0 -13 -61 -15 -465 -17 l-466 -3 1 -401 c0 -221 -2
-409 -6 -418 -6 -15 -212 -16 -2665 -16 l-2659 0 0 -30 0 -30 6705 0 6705 0 0
30 0 30 -2665 0 -2665 0 0 420 0 420 -460 0 c-402 0 -460 2 -460 15 0 13 -23
15 -150 15 -127 0 -150 -2 -150 -15 0 -13 -23 -15 -150 -15 -127 0 -150 2
-150 15 0 13 -23 15 -150 15 -126 0 -150 -2 -150 -15z m-10 -465 l0 -380 -430
0 -430 0 0 380 0 380 430 0 430 0 0 -380z m1760 0 l0 -380 -425 0 -425 0 0
380 0 380 425 0 425 0 0 -380z m-1266 173 c10 -26 -13 -54 -42 -51 -33 4 -44
45 -17 64 19 14 51 8 59 -13z m-10 -89 c13 -5 16 -26 16 -125 l0 -119 -40 0
-40 0 0 118 c0 65 3 122 7 125 8 9 36 9 57 1z"/>
<path d="M11517 7573 c-11 -11 -8 -48 5 -61 34 -34 90 6 68 48 -10 20 -58 28
-73 13z"/>
<path d="M11797 7574 c-12 -12 -8 -51 7 -64 8 -6 25 -10 38 -8 19 2 23 9 23
38 0 32 -3 35 -30 38 -17 2 -34 0 -38 -4z"/>
<path d="M12070 7561 c-22 -42 26 -79 68 -52 8 5 12 21 10 37 -2 24 -8 29 -35
32 -24 2 -34 -2 -43 -17z"/>
<path d="M12350 7560 c-15 -28 4 -60 34 -60 32 0 50 24 42 55 -5 20 -13 25
-36 25 -19 0 -33 -7 -40 -20z"/>
<path d="M12632 7568 c-28 -28 -3 -72 39 -66 30 4 47 33 33 56 -14 21 -55 27
-72 10z"/>
</g>
</svg>
