<?xml version="1.0" encoding="UTF-8" standalone="no"?>
<!-- Created with Inkscape (http://www.inkscape.org/) -->

<svg xmlns:dc="http://purl.org/dc/elements/1.1/" xmlns:cc="http://creativecommons.org/ns#" xmlns:rdf="http://www.w3.org/1999/02/22-rdf-syntax-ns#" xmlns:svg="http://www.w3.org/2000/svg" xmlns="http://www.w3.org/2000/svg" xmlns:inkscape="http://www.inkscape.org/namespaces/inkscape" version="1.0" width="3508pt" height="2480pt" viewBox="0 0 3508 2480" id="svg2">
  <defs id="defs92" />
  <metadata id="metadata4">
Created by potrace 1.11, written by Peter Selinger 2001-2013
<rdf:RDF>
  <cc:Work rdf:about="">
    <dc:format>image/svg+xml</dc:format>
    <dc:type rdf:resource="http://purl.org/dc/dcmitype/StillImage" />
  </cc:Work>
</rdf:RDF>
</metadata>
  <g transform="matrix(0.1,0,0,-0.1,0,2480)" id="g6" style="fill:#000000;stroke:none">
    <path d="m 2260,23515 0,-955 6920,0 6920,0 0,955 0,955 -6920,0 -6920,0 0,-955 z m 5500,-15 0,-380 -70,0 -69,0 -7,36 -7,35 -31,-30 c -113,-109 -310,-36 -345,129 -41,191 61,350 226,350 51,0 123,-25 123,-42 0,-5 5,-6 10,-3 7,4 11,56 10,138 -1,73 -1,135 -1,140 1,4 37,7 81,7 l 80,0 0,-380 z m 2905,227 c 0,-136 4,-163 20,-137 15,25 86,50 140,50 133,0 214,-96 215,-251 0,-126 -43,-209 -132,-253 -87,-44 -173,-34 -235,27 l -33,31 0,-37 0,-37 -70,0 -70,0 0,380 0,381 83,-3 82,-3 0,-148 z m 1215,-227 0,-380 -85,0 -85,0 0,373 c 0,206 3,377 7,380 3,4 42,7 85,7 l 78,0 0,-380 z m -5965,345 c 53,-53 17,-135 -60,-135 -44,0 -74,27 -81,72 -5,30 -2,41 19,62 35,35 89,35 122,1 z m 6235,0 c 50,-53 11,-135 -64,-135 -80,0 -111,98 -47,147 28,22 85,16 111,-12 z m -8695,-29 c 165,-76 237,-296 163,-495 -15,-40 -38,-72 -79,-112 l -57,-57 84,-18 c 51,-10 83,-22 81,-28 -3,-6 -13,-35 -23,-63 -10,-29 -22,-53 -26,-53 -4,0 -56,18 -115,39 -173,64 -195,71 -253,81 -190,35 -304,231 -260,445 30,147 116,244 249,282 64,18 173,8 236,-21 z m 6174,23 c 100,-16 101,-17 82,-89 -15,-58 -17,-61 -41,-55 -55,14 -196,17 -240,5 -60,-16 -124,-80 -140,-140 -18,-67 -8,-160 24,-214 41,-69 100,-100 195,-101 l 76,0 3,83 3,82 -56,0 -56,0 3,63 3,62 133,3 132,3 -2,-198 -3,-197 -50,-14 c -32,-9 -100,-15 -185,-16 -118,0 -142,2 -191,22 -79,32 -132,81 -171,160 -31,63 -33,73 -33,172 0,99 2,110 33,172 38,78 82,120 169,160 96,45 193,57 312,37 z m 4921,-42 c 119,-60 131,-209 23,-277 l -44,-28 44,-20 c 58,-26 89,-71 95,-138 11,-131 -101,-223 -273,-224 -70,0 -178,22 -201,41 -9,8 -9,21 1,60 8,28 16,54 19,57 3,3 29,-2 57,-11 28,-10 77,-17 109,-17 77,0 120,32 120,89 0,63 -57,101 -151,101 l -49,0 0,50 c 0,28 0,53 0,58 0,4 17,8 37,10 106,7 143,28 143,82 0,69 -113,87 -231,36 -13,-6 -19,4 -31,46 -9,29 -13,56 -11,61 7,13 74,37 128,47 72,13 163,3 215,-23 z m -592,-329 2,-348 -80,0 -80,0 0,275 c 0,151 -1,275 -3,275 -2,0 -32,-14 -66,-30 -35,-17 -64,-30 -66,-28 -4,5 -25,96 -25,108 0,6 42,31 93,55 82,40 99,44 157,42 l 65,-2 3,-347 z m -8398,237 0,-75 55,0 55,0 0,-60 0,-60 -55,0 -55,0 0,-117 c 0,-135 8,-153 72,-153 l 38,0 0,-60 c 0,-55 -2,-60 -25,-66 -49,-12 -153,1 -182,22 -50,37 -58,66 -61,227 l -3,147 -35,0 -34,0 0,59 0,60 33,3 c 32,3 32,4 35,60 l 3,56 62,15 c 102,24 97,27 97,-58 z m -833,-97 c 70,-46 81,-83 85,-300 l 5,-188 -74,0 c -71,0 -73,1 -73,25 0,14 -4,25 -10,25 -5,0 -10,-4 -10,-9 0,-5 -21,-19 -46,-31 -35,-17 -58,-21 -103,-18 -97,7 -155,67 -154,159 1,112 80,173 251,194 57,8 67,23 30,49 -28,20 -118,20 -173,1 -21,-8 -41,-13 -42,-11 -2,1 -9,23 -17,49 l -14,46 42,15 c 22,8 48,17 56,20 8,3 58,4 111,3 85,-2 101,-6 136,-29 z m 543,-43 0,-75 -40,0 c -21,0 -51,-5 -65,-12 -47,-21 -55,-53 -55,-213 l 0,-145 -80,0 -80,0 0,209 c 0,114 -3,229 -6,255 l -7,46 72,0 c 76,0 78,-1 72,-62 -3,-26 14,-22 33,7 24,37 75,65 119,65 l 37,0 0,-75 z m 1128,60 c 83,-35 123,-103 130,-217 l 5,-78 -172,0 c -183,0 -188,-2 -155,-49 33,-46 138,-65 237,-42 44,11 47,7 50,-60 l 2,-44 -45,-12 c -63,-16 -188,-16 -244,1 -67,20 -110,58 -142,122 -70,142 -2,330 137,380 49,18 153,17 197,-1 z m 552,-60 0,-75 -45,0 c -35,0 -52,-6 -77,-29 l -33,-29 -3,-156 -4,-156 -79,0 -79,0 0,255 0,255 70,0 70,0 0,-47 0,-48 20,30 c 29,45 79,75 122,75 l 38,0 0,-75 z m 1285,56 c 82,-37 140,-144 133,-243 l -3,-43 -167,-3 c -154,-2 -168,-4 -168,-20 0,-23 35,-57 73,-71 35,-14 131,-14 175,-2 36,11 42,4 55,-67 6,-29 4,-34 -21,-43 -15,-6 -70,-13 -123,-16 -112,-7 -179,10 -236,60 -146,128 -89,402 95,457 49,15 145,11 187,-9 z m 528,8 c 41,-11 44,-20 26,-82 -9,-34 -14,-38 -32,-32 -76,22 -140,17 -151,-11 -9,-25 18,-49 82,-73 78,-30 119,-64 133,-110 25,-85 -21,-166 -113,-197 -59,-19 -193,-15 -241,7 -25,11 -28,18 -24,44 3,16 10,42 16,57 10,26 11,26 40,12 42,-21 123,-29 149,-15 47,25 21,65 -63,96 -28,10 -68,36 -92,60 -37,36 -43,48 -43,84 0,69 39,124 110,155 41,18 148,21 203,5 z m 1502,-16 c 87,-46 135,-128 134,-233 0,-114 -40,-185 -129,-234 -68,-37 -162,-46 -243,-22 -116,34 -187,148 -173,278 11,113 77,193 186,229 46,15 181,4 225,-18 z m 1213,11 c 86,-36 134,-112 136,-219 l 1,-70 -167,-3 c -154,-2 -168,-4 -168,-20 0,-23 35,-57 73,-71 35,-14 131,-14 175,-2 29,9 34,7 42,-13 4,-13 10,-38 12,-57 3,-33 1,-34 -42,-46 -25,-6 -82,-12 -127,-12 -134,-2 -218,42 -269,139 -14,26 -19,57 -19,120 0,76 3,91 30,139 49,89 121,130 228,131 32,0 74,-7 95,-16 z m 1206,2 c 41,-17 80,-67 95,-121 6,-22 11,-118 11,-212 l 0,-173 -80,0 -80,0 0,148 c 0,207 -13,242 -90,242 -21,0 -39,-9 -55,-26 -24,-26 -25,-30 -25,-195 l 0,-169 -85,0 -85,0 0,255 0,255 69,0 c 69,0 69,0 76,-30 l 7,-30 32,25 c 17,13 43,28 56,34 37,14 116,13 154,-3 z m 563,-4 c 20,-11 20,-14 9,-59 -11,-42 -16,-48 -37,-45 -13,1 -47,5 -74,8 -39,5 -54,3 -64,-9 -20,-25 -9,-51 28,-67 146,-66 181,-99 181,-173 0,-96 -74,-158 -200,-165 -74,-4 -190,18 -190,36 0,7 18,77 25,100 4,10 11,10 33,-2 16,-8 51,-18 79,-22 65,-8 95,7 91,44 -3,23 -13,31 -68,52 -72,28 -135,81 -145,123 -17,68 25,144 100,179 32,15 57,18 125,15 47,-2 95,-8 107,-15 z m 1891,2 c 43,-18 88,-58 108,-97 21,-39 37,-133 29,-168 l -7,-29 -162,0 c -90,0 -165,-3 -169,-6 -11,-11 20,-59 49,-74 27,-15 147,-20 208,-10 28,5 30,3 42,-44 7,-28 11,-53 8,-57 -9,-15 -144,-32 -215,-27 -157,10 -249,106 -249,257 0,115 47,196 139,244 64,32 158,37 219,11 z M 3920,23470 c 0,-122 4,-168 15,-189 26,-51 82,-56 126,-12 l 29,29 0,166 0,166 80,0 80,0 0,-255 0,-255 -70,0 -70,0 0,37 0,37 -27,-27 c -63,-59 -167,-75 -237,-34 -74,42 -96,121 -96,348 l 0,149 85,0 85,0 0,-160 z m 2013,-92 -3,-253 -80,-3 -80,-3 0,256 0,255 83,0 82,0 -2,-252 z m 6237,-3 0,-255 -85,0 -85,0 0,255 0,255 85,0 85,0 0,-255 z" inkscape:connector-curvature="0" id="path8" />
    <path d="m 7438,23500 c -37,-29 -51,-71 -46,-140 6,-80 41,-120 104,-120 77,0 116,73 100,185 -13,81 -99,122 -158,75 z" inkscape:connector-curvature="0" id="path10" />
    <path d="m 10718,23504 c -40,-21 -48,-43 -48,-132 0,-72 2,-82 26,-106 20,-20 37,-26 68,-26 50,0 83,21 102,66 52,124 -46,254 -148,198 z" inkscape:connector-curvature="0" id="path12" />
    <path d="m 3244,23706 c -154,-70 -146,-412 11,-464 82,-28 152,7 193,97 53,116 24,293 -58,351 -39,28 -104,35 -146,16 z" inkscape:connector-curvature="0" id="path14" />
    <path d="m 4591,23359 c -57,-11 -81,-33 -81,-75 0,-43 35,-69 79,-59 41,9 63,37 68,88 6,52 -2,57 -66,46 z" inkscape:connector-curvature="0" id="path16" />
    <path d="m 6254,23531 c -25,-11 -64,-58 -64,-77 0,-11 21,-14 95,-14 87,0 95,2 95,19 0,49 -76,93 -126,72 z" inkscape:connector-curvature="0" id="path18" />
    <path d="m 8081,23522 c -21,-10 -40,-30 -48,-49 l -13,-33 100,0 c 55,0 100,2 100,4 0,24 -28,70 -51,81 -36,19 -46,19 -88,-3 z" inkscape:connector-curvature="0" id="path20" />
    <path d="m 10075,23508 c -68,-54 -75,-189 -13,-255 16,-17 33,-23 65,-23 70,0 103,46 103,146 0,125 -79,192 -155,132 z" inkscape:connector-curvature="0" id="path22" />
    <path d="m 11333,23525 c -32,-14 -53,-41 -53,-69 0,-13 15,-16 95,-16 60,0 95,4 95,10 0,24 -30,67 -55,78 -32,15 -42,15 -82,-3 z" inkscape:connector-curvature="0" id="path24" />
    <path d="m 14993,23525 c -26,-11 -63,-58 -63,-80 0,-3 45,-5 100,-5 55,0 100,2 100,4 0,1 -5,18 -11,36 -8,22 -22,37 -45,46 -40,17 -41,17 -81,-1 z" inkscape:connector-curvature="0" id="path26" />
    <path d="m 21570,19720 0,-2040 -1585,0 -1585,0 0,-1645 0,-1645 -7810,0 -7810,0 0,-1360 0,-1360 2290,0 2290,0 0,-1975 0,-1975 -3680,0 -3680,0 0,-144 0,-143 6639,-5 c 3651,-2 8563,-2 10915,0 l 4276,5 0,1563 c 0,1297 2,1564 13,1564 16,0 27,3377 27,8272 l 0,2928 -150,0 -150,0 0,-2040 z m -1510,-8252 c 0,-50 4,-66 22,-85 14,-15 24,-42 28,-71 l 5,-47 543,-3 542,-2 -2,-498 -3,-497 -1912,-3 -1913,-2 0,500 0,500 540,0 540,0 0,43 c 0,33 6,49 25,67 22,21 25,32 25,92 l 0,68 780,0 780,0 0,-62 z m -8880,-10 c 0,-45 5,-58 30,-85 23,-25 30,-41 30,-72 l 0,-41 250,0 250,0 0,-500 0,-500 -815,0 -815,0 0,500 0,500 250,0 250,0 0,43 c 0,35 6,49 30,72 26,25 30,36 30,82 l 0,53 255,0 255,0 0,-52 z" inkscape:connector-curvature="0" id="path28" />
    <path d="m 18710,10744 0,-225 48,3 47,3 3,223 2,222 -50,0 -50,0 0,-226 z" inkscape:connector-curvature="0" id="path30" />
    <path d="m 20542,10948 c -7,-7 -12,-21 -12,-33 0,-28 19,-45 50,-45 30,0 50,16 50,41 0,40 -60,65 -88,37 z" inkscape:connector-curvature="0" id="path32" />
    <path d="m 17626,10942 c -3,-5 -6,-98 -6,-207 -1,-178 0,-199 16,-208 9,-5 54,-7 100,-4 102,6 152,28 177,80 24,49 15,90 -28,124 l -33,27 29,27 c 52,48 33,126 -37,155 -37,15 -209,20 -218,6 z m 176,-79 c 39,-35 5,-83 -59,-83 -33,0 -33,0 -33,50 l 0,50 37,0 c 20,0 45,-7 55,-17 z m 2,-166 c 22,-16 24,-63 4,-84 -9,-8 -34,-17 -57,-20 l -41,-6 0,62 0,61 38,0 c 21,0 46,-6 56,-13 z" inkscape:connector-curvature="0" id="path34" />
    <path d="m 18061,10812 c -74,-37 -101,-125 -62,-204 28,-58 70,-82 143,-83 64,0 97,19 136,75 43,64 21,162 -47,207 -42,28 -120,31 -170,5 z m 114,-67 c 48,-47 24,-155 -32,-155 -61,1 -87,107 -38,155 13,14 29,25 35,25 6,0 22,-11 35,-25 z" inkscape:connector-curvature="0" id="path36" />
    <path d="m 18352,10705 c 3,-121 4,-125 31,-152 33,-34 103,-39 134,-10 25,22 29,22 36,-4 5,-17 12,-20 44,-17 21,2 37,6 36,11 -2,4 -3,72 -3,152 l 0,145 -45,0 -45,0 0,-99 c 0,-104 -10,-131 -48,-131 -41,1 -47,16 -50,125 l -4,105 -45,0 -45,0 4,-125 z" inkscape:connector-curvature="0" id="path38" />
    <path d="m 18932,10819 c -31,-12 -28,-66 3,-61 96,14 101,14 114,-2 18,-21 14,-24 -47,-36 -64,-12 -96,-32 -112,-70 -34,-82 58,-157 141,-116 29,15 34,15 41,1 6,-9 24,-15 48,-15 l 40,0 0,98 c 0,125 -12,167 -53,192 -35,22 -132,27 -175,9 z m 128,-178 c 0,-34 -20,-54 -52,-49 -16,2 -24,11 -26,29 -3,22 2,29 25,37 45,17 53,14 53,-17 z" inkscape:connector-curvature="0" id="path40" />
    <path d="m 19214,10814 c 3,-9 6,-78 6,-155 l 0,-139 45,0 45,0 0,100 c 0,87 3,103 20,120 11,11 27,20 35,20 8,0 24,-9 35,-20 17,-17 20,-33 20,-120 l 0,-100 45,0 45,0 0,110 c 0,121 -13,170 -51,190 -30,17 -114,7 -139,-15 -19,-18 -20,-17 -20,3 0,19 -6,22 -46,22 -38,0 -45,-3 -40,-16 z" inkscape:connector-curvature="0" id="path42" />
    <path d="m 19644,10811 c -56,-34 -82,-147 -49,-211 33,-65 119,-92 173,-54 21,14 22,14 22,-10 0,-56 -72,-84 -144,-56 -24,9 -26,7 -32,-26 -8,-43 0,-49 65,-57 110,-14 182,27 200,115 6,27 11,110 11,183 l 0,135 -40,0 c -29,0 -40,-4 -40,-15 0,-19 -9,-19 -34,0 -27,21 -95,19 -132,-4 z m 130,-67 c 10,-10 16,-33 16,-64 0,-54 -18,-80 -53,-80 -28,0 -41,9 -56,37 -37,71 40,161 93,107 z" inkscape:connector-curvature="0" id="path44" />
    <path d="m 20020,10812 c -37,-21 -68,-70 -77,-125 -7,-46 26,-116 66,-140 38,-22 105,-31 156,-20 36,8 40,12 40,38 l 0,30 -66,0 c -62,0 -99,13 -99,36 0,5 43,9 95,9 l 95,0 0,40 c 0,53 -21,101 -55,128 -35,28 -107,29 -155,4 z m 105,-58 c 28,-28 15,-49 -34,-52 -56,-4 -67,7 -41,41 24,31 51,34 75,11 z" inkscape:connector-curvature="0" id="path46" />
    <path d="m 20280,10675 0,-155 45,0 45,0 0,88 c 0,99 12,126 60,137 27,6 30,10 30,46 0,35 -3,39 -25,39 -15,0 -36,-11 -50,-26 l -25,-27 0,27 c 0,24 -3,26 -40,26 l -40,0 0,-155 z" inkscape:connector-curvature="0" id="path48" />
    <path d="m 20522,10678 3,-153 48,-3 47,-3 0,155 0,156 -50,0 -51,0 3,-152 z" inkscape:connector-curvature="0" id="path50" />
    <path d="m 20760,10812 c -37,-21 -68,-70 -77,-125 -7,-46 26,-116 66,-140 38,-22 105,-31 156,-20 36,8 40,12 40,38 l 0,30 -66,0 c -62,0 -99,13 -99,36 0,5 43,9 95,9 l 95,0 0,40 c 0,53 -21,101 -55,128 -35,28 -107,29 -155,4 z m 105,-58 c 28,-28 15,-49 -34,-52 -56,-4 -67,7 -41,41 24,31 51,34 75,11 z" inkscape:connector-curvature="0" id="path52" />
    <path d="m 11114,10951 c -30,-18 -54,-64 -54,-102 0,-12 -7,-19 -20,-19 -16,0 -20,-7 -20,-31 0,-22 5,-32 20,-36 19,-5 20,-14 20,-125 l 0,-119 46,3 46,3 1,115 2,115 30,5 c 25,4 30,10 33,38 3,30 1,32 -27,32 -16,0 -33,5 -36,10 -12,19 24,60 50,60 22,0 25,4 25,35 0,35 -1,35 -42,35 -25,0 -56,-8 -74,-19 z" inkscape:connector-curvature="0" id="path54" />
    <path d="m 11375,10923 c -11,-21 -21,-41 -23,-45 -2,-5 9,-8 25,-8 28,0 52,19 92,73 12,16 10,17 -31,17 -41,0 -46,-3 -63,-37 z" inkscape:connector-curvature="0" id="path56" />
    <path d="m 10476,10938 c -23,-6 -57,-28 -80,-52 -87,-87 -87,-228 0,-310 41,-38 124,-60 193,-52 67,8 73,13 65,52 -6,30 -6,30 -74,30 -83,-1 -118,20 -139,83 -18,58 -7,107 35,149 34,34 36,34 104,30 l 70,-4 6,34 c 4,18 3,36 0,40 -12,11 -139,11 -180,0 z" inkscape:connector-curvature="0" id="path58" />
    <path d="m 10750,10821 c -20,-6 -25,-13 -23,-35 3,-37 5,-38 37,-26 41,15 82,12 102,-7 19,-19 25,-16 -85,-39 -42,-9 -81,-58 -81,-101 0,-71 71,-110 144,-79 47,19 46,19 46,1 0,-11 11,-15 41,-15 l 41,0 -4,125 c -3,120 -4,126 -30,152 -24,24 -37,28 -95,30 -38,1 -79,-1 -93,-6 z m 130,-175 c 0,-28 -24,-56 -48,-56 -48,1 -55,45 -12,67 40,20 60,16 60,-11 z" inkscape:connector-curvature="0" id="path60" />
    <path d="m 11315,10815 c -39,-21 -62,-51 -76,-99 -34,-123 60,-212 201,-190 53,9 55,10 55,39 l 0,30 -67,0 c -57,0 -71,4 -90,23 l -22,22 102,0 102,0 0,40 c 0,49 -19,98 -49,124 -29,26 -116,32 -156,11 z m 100,-61 c 28,-28 15,-49 -34,-52 -56,-4 -67,7 -41,41 24,31 51,34 75,11 z" inkscape:connector-curvature="0" id="path62" />
    <path d="m 26320,14610 0,-7150 4380,0 4380,0 0,145 0,145 -2820,0 -2820,0 0,735 c 0,404 -1,735 -2,735 -2,0 -268,-133 -592,-295 l -589,-295 -396,0 -396,0 -254,255 -254,255 -88,181 -89,181 0,474 0,475 25,49 c 14,27 25,52 25,55 0,3 -47,5 -105,5 l -105,0 0,1780 0,1780 1230,0 1230,0 0,85 0,85 180,0 180,0 0,1236 0,1237 2315,-5 2315,-5 0,2464 0,2463 -2315,0 -2315,0 0,40 0,40 -1560,0 -1560,0 0,-7150 z m 4539,5356 c 7,-9 9,-29 5,-55 -6,-38 -9,-41 -38,-41 -41,0 -56,-16 -56,-58 0,-29 3,-32 20,-27 39,12 60,-3 60,-44 0,-45 -20,-66 -55,-57 l -24,6 -3,-147 -3,-148 -62,-3 -62,-3 -3,148 -3,148 -25,0 c -23,0 -25,4 -28,48 -3,47 -2,48 38,51 10,1 17,16 21,46 7,63 33,106 77,129 44,24 124,27 141,7 z m -2091,-28 c 10,-14 62,-190 85,-293 l 14,-60 12,45 c 35,132 85,297 94,308 6,8 37,12 87,12 l 78,0 6,-82 c 10,-144 26,-424 26,-452 0,-25 -2,-26 -64,-26 l -64,0 -7,202 -7,202 -28,-94 c -15,-52 -42,-141 -59,-198 l -32,-103 -52,3 -52,3 -43,165 c -24,91 -47,174 -51,185 -5,11 -11,-62 -15,-165 -4,-102 -11,-189 -15,-193 -5,-5 -32,-7 -62,-5 -53,3 -54,3 -52,33 2,17 7,111 13,210 5,99 13,210 16,248 l 6,67 78,0 c 50,0 81,-4 88,-12 z m 3070,-96 c 3,-50 4,-52 32,-52 51,0 60,-9 60,-55 0,-46 -9,-55 -61,-55 l -29,0 0,-83 c 0,-91 8,-107 52,-107 27,0 28,-2 28,-49 0,-35 -4,-51 -16,-55 -30,-11 -105,-6 -135,10 -45,23 -59,67 -59,189 0,100 -1,106 -19,100 -11,-3 -23,-1 -26,6 -12,18 -12,89 -1,91 6,0 18,1 26,2 10,1 16,14 18,43 3,41 5,43 45,53 23,6 47,13 52,15 23,8 30,-4 33,-53 z m -2365,-56 c 90,-32 106,-70 108,-252 l 1,-139 -56,-3 c -46,-2 -56,0 -56,13 0,9 -3,15 -7,13 -100,-51 -159,-50 -210,6 -27,29 -33,44 -33,78 0,86 65,141 180,155 28,3 50,9 50,12 0,30 -90,42 -146,21 -32,-13 -41,-6 -50,37 -7,36 9,49 79,63 62,12 97,11 140,-4 z m 502,-6 c 69,-33 79,-62 83,-237 l 4,-153 -66,0 -66,0 0,119 c 0,66 -4,131 -10,145 -12,33 -52,43 -85,22 -24,-16 -25,-20 -27,-149 l -3,-132 -65,0 -65,0 0,195 0,195 34,3 c 53,5 81,-5 81,-30 l 0,-21 24,22 c 45,42 102,50 161,21 z m 1130,9 c 45,-12 89,-49 104,-88 5,-14 11,-90 13,-168 l 3,-143 -57,0 c -45,0 -58,3 -58,15 0,19 -3,19 -42,-5 -65,-39 -163,-14 -195,50 -48,95 29,191 166,207 28,3 51,9 51,12 0,30 -90,42 -146,21 -32,-12 -39,-7 -49,37 -7,37 8,49 78,63 60,11 87,11 132,-1 z m 478,0 c 37,-10 38,-11 31,-47 -9,-51 -16,-56 -77,-53 -46,2 -57,-1 -79,-24 -31,-30 -39,-65 -26,-111 13,-48 42,-64 114,-64 l 61,0 6,-42 c 3,-24 2,-47 -3,-52 -14,-14 -133,-19 -180,-6 -117,32 -172,172 -115,293 40,86 165,135 268,106 z m 1115,-56 3,-63 -39,0 c -66,0 -76,-21 -80,-161 l -4,-120 -61,3 -62,3 0,195 0,195 50,0 c 42,0 51,-4 61,-23 8,-16 14,-20 19,-12 13,20 69,50 90,48 17,-3 20,-12 23,-65 z m 297,54 c 68,-26 108,-78 120,-154 13,-82 11,-83 -136,-83 -126,0 -129,-1 -119,-20 23,-44 120,-65 185,-40 23,9 27,7 35,-16 20,-52 13,-72 -27,-83 -50,-14 -152,-14 -194,0 -43,15 -97,65 -115,106 -22,51 -18,143 9,193 46,87 155,131 242,97 z m -2715,-133 c 5,-140 13,-164 56,-164 47,0 54,21 54,160 0,142 -1,140 70,140 74,0 71,10 69,-206 l -1,-194 -59,0 c -56,0 -59,1 -59,25 l 0,25 -20,-20 c -65,-65 -181,-47 -224,35 -16,31 -21,64 -24,178 -5,160 -6,159 78,155 l 55,-3 5,-131 z m 1830,0 c 5,-143 13,-164 60,-164 47,0 55,21 60,164 l 5,131 60,0 60,0 3,-197 2,-198 -55,0 c -48,0 -55,2 -55,20 0,25 -1,25 -47,-6 -32,-22 -46,-25 -90,-22 -104,9 -132,65 -133,259 0,75 3,139 7,143 4,4 32,6 63,4 l 55,-3 5,-131 z m -3150,-939 0,-285 -60,0 c -54,0 -60,2 -60,21 0,20 -1,20 -31,-5 -30,-26 -55,-31 -114,-27 -131,11 -192,216 -103,344 41,57 157,88 204,52 10,-8 22,-15 27,-15 4,0 7,45 7,100 l 0,100 65,0 65,0 0,-285 z m 2178,180 c -2,-58 -3,-105 -3,-105 1,0 18,9 40,20 77,39 166,18 212,-51 30,-46 41,-142 24,-206 -31,-114 -158,-172 -255,-115 -31,18 -38,19 -42,7 -5,-11 -22,-15 -60,-15 l -54,0 0,285 0,285 71,0 70,0 -3,-105 z m 912,-179 c 0,-186 -4,-286 -10,-288 -6,-2 -35,-1 -66,2 l -55,5 0,278 c 1,152 1,279 1,282 0,3 29,5 65,5 l 65,0 0,-284 z m 173,273 c 28,-15 37,-28 37,-58 0,-55 -77,-83 -114,-42 -26,28 -18,82 14,98 31,16 36,16 63,2 z m -1830,-10 c 41,-11 42,-12 26,-75 -10,-40 -14,-45 -33,-39 -12,4 -51,9 -87,12 -87,7 -138,-17 -168,-80 -24,-50 -28,-131 -7,-180 18,-45 67,-84 115,-92 67,-11 79,-2 83,60 l 3,55 -42,0 -43,0 0,50 c 0,28 5,50 10,50 6,1 48,1 95,1 47,0 90,0 95,-1 7,0 10,-52 8,-147 l -3,-147 -45,-14 c -68,-21 -195,-20 -259,2 -106,36 -171,134 -171,256 0,143 77,250 210,291 37,11 170,10 213,-2 z m -1055,-178 c 51,-36 93,-140 77,-191 -6,-19 -16,-20 -136,-20 -71,0 -129,-4 -129,-9 0,-5 9,-19 19,-32 18,-22 26,-24 115,-24 l 95,0 6,-37 c 4,-21 4,-41 1,-47 -9,-15 -131,-32 -178,-25 -117,18 -178,88 -178,204 0,89 44,163 118,197 44,20 152,12 190,-16 z m 368,19 c 25,-10 26,-13 20,-52 -4,-23 -8,-44 -10,-45 -2,-2 -26,2 -55,9 -45,10 -54,10 -68,-5 -15,-15 -15,-19 -3,-30 8,-8 36,-22 62,-31 121,-44 135,-176 25,-233 -38,-19 -157,-22 -201,-4 -27,11 -28,14 -22,53 9,56 11,58 53,42 65,-23 123,-14 123,18 0,5 -28,22 -62,37 -35,16 -74,41 -88,55 -48,53 -22,143 52,179 37,19 133,22 174,7 z m 1112,-5 c 140,-59 166,-255 46,-353 -82,-68 -215,-61 -289,15 -99,102 -59,292 70,338 53,19 127,19 173,0 z m 925,1 c 64,-26 107,-102 107,-188 l 0,-38 -130,0 c -142,0 -157,-7 -102,-50 24,-20 36,-22 109,-18 89,5 83,8 97,-54 5,-24 2,-28 -32,-39 -20,-7 -68,-13 -107,-13 -90,0 -155,29 -193,87 -23,35 -27,51 -27,118 0,70 3,82 30,121 54,77 163,110 248,74 z m 924,-6 c 61,-37 68,-58 71,-226 l 4,-152 -62,-4 c -34,-1 -64,-1 -66,1 -2,2 -4,59 -4,125 0,138 -10,166 -60,166 -50,0 -60,-28 -60,-168 l 0,-123 -67,3 -68,3 -2,193 -2,192 59,0 c 54,0 60,-2 60,-21 0,-20 0,-20 28,-1 37,26 50,30 97,31 23,1 53,-7 72,-19 z m 393,11 c 22,-7 25,-12 23,-50 -1,-24 -4,-45 -6,-47 -2,-3 -27,1 -56,8 -45,10 -54,9 -68,-5 -22,-21 -6,-40 46,-56 22,-6 56,-27 76,-45 28,-27 35,-41 35,-72 0,-52 -32,-102 -78,-121 -47,-21 -157,-22 -197,-2 -31,15 -34,33 -15,85 8,21 10,22 51,8 103,-36 146,11 52,56 -91,44 -124,87 -109,143 8,35 45,78 80,93 33,14 124,17 166,5 z m -800,-194 c 0,-107 -2,-196 -4,-198 -2,-2 -32,-2 -65,-1 l -61,4 0,194 0,194 65,0 65,0 0,-193 z" inkscape:connector-curvature="0" id="path64" />
    <path d="m 29372,19554 c -50,-35 -10,-99 46,-72 20,10 28,23 33,51 6,36 5,37 -25,37 -18,0 -42,-7 -54,-16 z" inkscape:connector-curvature="0" id="path66" />
    <path d="m 31012,19554 c -27,-19 -29,-60 -3,-74 39,-21 91,19 91,69 0,17 -6,21 -33,21 -18,0 -43,-7 -55,-16 z" inkscape:connector-curvature="0" id="path68" />
    <path d="m 32870,19680 c -33,-33 -24,-40 50,-40 61,0 70,2 70,18 0,28 -21,42 -62,42 -25,0 -45,-7 -58,-20 z" inkscape:connector-curvature="0" id="path70" />
    <path d="m 28711,18706 c -48,-51 -32,-168 25,-182 61,-16 102,44 91,131 -10,70 -72,98 -116,51 z" inkscape:connector-curvature="0" id="path72" />
    <path d="m 31162,18707 c -18,-19 -22,-35 -22,-85 0,-90 37,-121 105,-90 53,24 58,138 8,178 -34,26 -64,25 -91,-3 z" inkscape:connector-curvature="0" id="path74" />
    <path d="m 29188,18729 c -10,-5 -22,-19 -28,-29 -10,-19 -7,-20 60,-20 75,0 88,11 52,43 -21,19 -58,22 -84,6 z" inkscape:connector-curvature="0" id="path76" />
    <path d="m 30700,18727 c -53,-27 -62,-146 -14,-194 29,-29 59,-29 88,0 29,29 40,85 26,136 -15,58 -55,81 -100,58 z" inkscape:connector-curvature="0" id="path78" />
    <path d="m 31612,18720 c -12,-12 -22,-25 -22,-30 0,-6 32,-10 70,-10 74,0 83,7 50,40 -26,26 -70,26 -98,0 z" inkscape:connector-curvature="0" id="path80" />
    <path d="m 27207,10224 c -64,-20 -76,-46 -52,-109 10,-25 21,-42 24,-37 12,19 84,42 131,42 53,0 76,-18 86,-66 9,-46 -52,-164 -85,-164 -6,0 -16,-11 -21,-25 -5,-14 -13,-25 -17,-25 -5,0 -39,-29 -76,-64 -63,-62 -67,-67 -67,-110 l 0,-46 215,0 215,0 0,60 0,60 -112,0 -113,1 66,62 c 37,34 80,82 95,107 16,25 33,48 37,51 5,4 11,36 14,73 6,63 4,68 -31,120 -21,29 -50,59 -64,66 -41,20 -188,22 -245,4 z" inkscape:connector-curvature="0" id="path82" />
    <path d="m 27654,10226 c -3,-7 -4,-35 -2,-62 l 3,-49 133,-5 132,-5 -40,-75 c -55,-105 -116,-233 -125,-261 -4,-13 -11,-26 -14,-29 -10,-7 -61,-101 -61,-111 0,-5 34,-9 75,-9 58,0 75,3 75,14 0,8 7,21 15,29 8,8 33,57 56,109 22,51 45,100 50,108 22,35 99,204 99,215 0,7 7,16 16,19 12,4 14,19 12,63 l -3,58 -208,3 c -170,2 -208,0 -213,-12 z" inkscape:connector-curvature="0" id="path84" />
    <path d="m 26320,2915 0,-2125 1560,0 1560,0 0,160 0,160 1150,0 1150,0 0,1165 0,1165 690,0 690,0 0,650 0,650 980,0 980,0 0,150 0,150 -4380,0 -4380,0 0,-2125 z" inkscape:connector-curvature="0" id="path86" />
    <path d="m 9203,4343 -9203,-3 0,-150 0,-150 9200,0 9200,0 0,-300 0,-300 1585,0 1585,0 0,-1405 0,-1405 150,0 150,0 0,1860 0,1860 -1732,-2 c -953,-2 -5874,-4 -10935,-5 z" inkscape:connector-curvature="0" id="path88" />
  </g>
</svg>
