<?xml version="1.0" standalone="no"?>
<!DOCTYPE svg PUBLIC "-//W3C//DTD SVG 20010904//EN"
 "http://www.w3.org/TR/2001/REC-SVG-20010904/DTD/svg10.dtd">
<svg version="1.0" xmlns="http://www.w3.org/2000/svg"
 width="3508.000000pt" height="2480.000000pt" viewBox="0 0 3508.000000 2480.000000"
 preserveAspectRatio="xMidYMid meet">
<metadata>
Created by potrace 1.11, written by Peter Selinger 2001-2013
</metadata>
<g transform="translate(0.000000,2480.000000) scale(0.100000,-0.100000)"
fill="#000000" stroke="none">
<path d="M1563 23612 c-18 -2 -33 -5 -33 -7 0 -2 -7 -39 -15 -82 -19 -99 -20
-95 12 -91 26 3 28 7 42 86 l14 82 42 0 c56 0 74 -20 51 -55 -13 -20 -25 -25
-58 -25 l-41 0 39 -44 c31 -35 46 -44 73 -45 l35 -1 -32 33 c-18 18 -32 36
-32 39 0 3 12 9 28 13 52 13 81 61 50 82 -16 9 -130 19 -175 15z"/>
<path d="M2830 22736 c0 -795 2 -884 16 -890 8 -3 2136 -5 4727 -3 l4712 2 3
888 2 887 -4730 0 -4730 0 0 -884z m4790 -21 l0 -355 -75 0 -75 0 0 355 0 355
75 0 75 0 0 -355z m3920 0 l0 -355 -75 0 -75 0 0 355 0 355 75 0 75 0 0 -355z
m-6890 270 l-61 -75 -51 0 -50 0 38 68 c20 37 39 70 41 75 2 4 36 7 74 7 l70
0 -61 -75z m3755 50 c14 -13 25 -36 25 -50 0 -36 -42 -75 -80 -75 -38 0 -80
39 -80 75 0 36 42 75 80 75 19 0 40 -9 55 -25z m-4627 -187 c29 -101 55 -202
58 -226 4 -23 10 -44 14 -47 3 -2 15 31 25 73 10 42 39 145 65 227 l48 150
101 3 101 3 0 -38 c0 -21 7 -150 15 -288 8 -137 15 -271 15 -297 l0 -48 -69 0
-69 0 -6 63 c-3 34 -9 151 -13 260 l-8 199 -38 -129 c-21 -70 -56 -185 -78
-255 l-40 -128 -59 0 -59 0 -11 43 c-7 23 -27 96 -45 162 -19 66 -43 160 -54
208 -10 49 -21 90 -24 93 -2 2 -7 -80 -11 -183 -3 -104 -9 -221 -13 -260 l-6
-73 -69 0 -70 0 6 48 c3 26 13 176 23 335 l17 287 101 0 102 0 51 -182z m2924
168 c98 -23 152 -78 164 -168 19 -136 -81 -232 -252 -245 l-74 -6 0 -118 0
-119 -75 0 -75 0 0 329 0 330 53 4 c120 8 205 6 259 -7z m2809 0 c31 -7 71
-23 89 -36 36 -26 69 -90 70 -134 0 -49 -38 -113 -81 -140 l-40 -23 25 -17
c35 -22 49 -54 81 -171 14 -55 29 -108 32 -118 4 -16 -2 -18 -73 -15 l-78 3
-19 65 c-41 151 -49 170 -70 185 -12 8 -41 15 -64 15 l-43 0 0 -135 0 -135
-75 0 -75 0 0 329 0 330 48 4 c110 8 221 6 273 -7z m-4481 -111 l0 -65 55 0
55 0 0 -55 0 -55 -55 0 -55 0 0 -110 c0 -98 2 -112 21 -131 15 -15 30 -20 50
-17 l29 5 0 -58 0 -58 -36 -7 c-47 -9 -118 2 -150 22 -48 32 -58 67 -62 217
l-4 137 -29 0 c-28 0 -29 1 -29 55 0 54 0 55 30 55 29 0 30 2 30 45 l0 44 58
16 c31 9 62 18 67 20 23 8 25 2 25 -60z m-372 -79 c64 -33 101 -100 109 -197
l6 -69 -162 0 c-179 0 -188 -4 -133 -60 35 -35 102 -47 181 -32 31 5 59 7 63
3 4 -3 8 -26 10 -51 l3 -44 -50 -12 c-117 -28 -236 -9 -302 49 -52 46 -73 98
-73 183 0 59 5 81 28 125 30 58 87 105 143 120 45 11 143 3 177 -15z m872 -45
l0 -68 -47 -6 c-37 -4 -54 -12 -75 -36 -28 -31 -28 -32 -28 -171 l0 -140 -75
0 -75 0 0 240 0 240 65 0 65 0 0 -47 0 -48 26 39 c28 40 71 65 117 66 27 0 27
0 27 -69z m425 41 c86 -44 128 -117 128 -223 0 -180 -158 -288 -341 -234 -106
32 -166 117 -165 236 0 115 61 201 163 234 61 20 164 14 215 -13z m1304 -3
c22 -12 49 -39 62 -63 22 -38 24 -55 27 -218 l4 -178 -66 0 c-62 0 -66 1 -72
25 -6 24 -8 24 -23 11 -80 -72 -221 -53 -261 36 -23 51 -25 87 -6 131 27 67
124 117 222 117 50 0 59 9 39 37 -21 30 -79 37 -148 18 -32 -8 -60 -15 -62
-15 -4 0 -25 69 -25 83 0 4 12 12 28 18 89 35 218 34 281 -2z m810 0 c22 -12
49 -39 62 -63 22 -38 24 -55 27 -218 l4 -178 -66 0 c-62 0 -66 1 -72 25 -6 24
-8 24 -23 11 -80 -72 -221 -53 -261 36 -23 51 -25 87 -6 131 27 67 124 117
222 117 50 0 59 9 39 37 -21 30 -79 37 -148 18 -32 -8 -60 -15 -62 -15 -4 0
-25 69 -25 83 0 4 12 12 28 18 89 35 218 34 281 -2z m773 12 c26 -10 26 -10
14 -58 -7 -26 -14 -47 -17 -47 -109 29 -163 22 -157 -18 3 -23 9 -26 110 -73
64 -29 89 -61 95 -119 12 -120 -142 -198 -300 -152 -62 18 -65 23 -47 88 l11
37 41 -15 c60 -21 135 -19 147 4 11 21 -11 62 -33 62 -31 0 -137 63 -151 90
-43 84 4 178 105 209 39 12 142 7 182 -8z m1293 -9 c86 -44 128 -117 128 -223
0 -180 -158 -288 -341 -234 -106 32 -166 117 -165 236 0 115 61 201 163 234
61 20 164 14 215 -13z m1044 -3 c22 -12 49 -39 62 -63 22 -38 24 -55 27 -218
l4 -178 -66 0 c-62 0 -66 1 -72 25 -6 24 -8 24 -23 11 -80 -72 -221 -53 -261
36 -23 51 -25 87 -6 131 27 67 124 117 222 117 50 0 59 9 39 37 -21 30 -79 37
-148 18 -32 -8 -60 -15 -62 -15 -4 0 -25 69 -25 83 0 4 12 12 28 18 89 35 218
34 281 -2z m-2759 -219 l0 -240 -75 0 -75 0 0 240 0 240 75 0 75 0 0 -240z
m2084 107 c21 -72 43 -148 49 -167 10 -33 12 -26 52 130 l41 165 82 3 81 3
-18 -53 c-132 -378 -180 -490 -239 -558 -39 -47 -104 -87 -146 -92 -27 -3 -30
0 -42 47 -19 70 -19 70 27 90 42 20 89 67 89 91 0 7 -40 115 -90 239 -49 124
-90 227 -90 230 0 3 37 5 83 5 l82 0 39 -133z"/>
<path d="M6558 22913 c-16 -4 -18 -17 -18 -99 l0 -94 50 0 c87 0 130 36 130
109 0 57 -89 103 -162 84z"/>
<path d="M9353 22914 c-9 -4 -13 -32 -13 -90 l0 -84 53 0 c89 0 140 48 123
115 -4 14 -17 32 -30 40 -25 16 -112 29 -133 19z"/>
<path d="M4479 22721 c-51 -52 -42 -61 62 -61 l91 0 -6 28 c-16 66 -96 84
-147 33z"/>
<path d="M5777 22720 c-73 -58 -56 -225 27 -254 104 -38 172 146 90 244 -31
36 -78 40 -117 10z"/>
<path d="M7103 22575 c-37 -16 -51 -54 -34 -91 9 -19 18 -24 50 -24 50 0 81
35 81 91 0 37 -1 39 -32 39 -18 -1 -47 -7 -65 -15z"/>
<path d="M7913 22575 c-37 -16 -51 -54 -34 -91 9 -19 18 -24 50 -24 50 0 81
35 81 91 0 37 -1 39 -32 39 -18 -1 -47 -7 -65 -15z"/>
<path d="M9957 22720 c-73 -58 -56 -225 27 -254 104 -38 172 146 90 244 -31
36 -78 40 -117 10z"/>
<path d="M11023 22575 c-37 -16 -51 -54 -34 -91 9 -19 18 -24 50 -24 50 0 81
35 81 91 0 37 -1 39 -32 39 -18 -1 -47 -7 -65 -15z"/>
<path d="M1849 23522 c-75 -85 -97 -123 -41 -69 24 23 37 27 85 27 52 0 59 -3
69 -25 8 -18 19 -25 40 -25 15 0 28 3 28 6 0 12 -92 174 -98 174 -4 -1 -41
-40 -83 -88z m76 -2 l16 -30 -46 0 -46 0 21 30 c12 17 25 30 30 30 5 0 16 -13
25 -30z"/>
<path d="M2088 23603 c63 -5 61 2 27 -150 -5 -20 -1 -23 24 -23 24 0 30 5 35
28 3 15 10 53 16 84 l11 57 52 4 c29 2 -9 3 -83 3 -74 0 -111 -1 -82 -3z"/>
<path d="M2356 23598 c-8 -25 -26 -132 -26 -150 0 -12 7 -18 24 -18 20 0 25 6
31 40 l7 40 67 0 c44 0 74 5 89 16 24 17 29 53 10 72 -17 17 -197 17 -202 0z
m152 -24 c5 -32 -24 -54 -69 -54 -41 0 -46 8 -33 58 6 20 12 23 53 20 38 -2
47 -7 49 -24z"/>
<path d="M30868 23458 c-27 -11 -48 -25 -48 -30 0 -12 28 -78 33 -78 3 0 18 7
33 15 41 21 107 19 127 -3 21 -23 22 -64 3 -100 -8 -15 -57 -69 -110 -121 -84
-82 -96 -98 -96 -127 l0 -34 175 0 175 0 0 50 0 50 -85 0 -86 0 59 58 c73 71
102 125 102 190 0 60 -30 109 -80 134 -49 25 -142 23 -202 -4z"/>
<path d="M31998 23458 c-27 -11 -48 -25 -48 -30 0 -12 28 -78 33 -78 3 0 18 7
33 15 41 21 107 19 127 -3 21 -23 22 -64 3 -100 -8 -15 -57 -69 -110 -121 -84
-82 -96 -98 -96 -127 l0 -34 175 0 175 0 0 50 0 50 -85 0 -86 0 59 58 c73 71
102 125 102 190 0 60 -30 109 -80 134 -49 25 -142 23 -202 -4z"/>
<path d="M31314 23440 l-62 -28 11 -45 10 -46 36 15 c20 9 42 18 49 21 9 4 12
-37 12 -186 l0 -191 55 0 55 0 0 245 0 245 -52 -1 c-36 0 -73 -10 -114 -29z"/>
<path d="M32360 23420 l0 -50 110 0 c61 0 110 -2 110 -4 0 -2 -43 -86 -95
-188 -52 -102 -95 -188 -95 -192 0 -3 27 -6 61 -6 l60 0 100 206 c73 153 99
216 99 245 l0 39 -175 0 -175 0 0 -50z"/>
<path d="M1850 23314 c-95 -25 -197 -82 -268 -148 l-66 -63 55 -26 c30 -14 66
-34 81 -44 27 -17 28 -17 55 9 152 141 384 158 560 41 158 -105 235 -304 188
-488 -27 -104 -63 -165 -146 -246 l-78 -77 -16 -83 c-8 -45 -14 -83 -12 -85 7
-7 126 49 175 82 71 50 162 150 201 223 69 131 89 306 51 455 -29 116 -73 190
-165 281 -89 90 -182 143 -295 169 -81 20 -247 19 -320 0z"/>
<path d="M1228 23044 c-47 -14 -48 -16 -48 -55 0 -34 3 -39 18 -35 146 44 268
31 367 -39 130 -92 154 -106 196 -113 24 -4 72 -4 107 1 35 5 65 7 67 5 3 -2
8 -28 12 -58 7 -49 10 -54 43 -65 27 -9 36 -18 40 -41 5 -24 10 -29 35 -29 27
0 30 -4 33 -33 3 -26 10 -35 39 -47 40 -17 41 -8 -11 -142 -65 -168 -95 -399
-65 -505 9 -36 12 -38 49 -38 l39 0 -10 32 c-14 51 -11 221 7 306 14 69 69
242 105 330 18 43 5 63 -51 76 -45 11 -47 13 -66 85 -3 9 -12 11 -28 7 -21 -5
-25 -2 -28 21 -2 20 -12 32 -35 42 -26 12 -33 21 -38 55 -14 89 -15 90 -125
75 -97 -13 -127 -5 -207 58 -142 110 -306 150 -445 107z"/>
<path d="M29820 23019 c-174 -44 -311 -156 -387 -314 -130 -274 -42 -590 211
-756 142 -93 340 -119 499 -65 250 85 410 301 411 556 1 169 -54 302 -173 421
-154 154 -355 210 -561 158z m241 -229 c29 -6 69 -19 89 -29 101 -52 107 -188
9 -245 l-32 -19 35 -18 c148 -76 118 -285 -46 -334 -66 -20 -204 -30 -289 -21
l-67 8 0 328 0 329 53 4 c112 8 197 7 248 -3z"/>
<path d="M29910 22616 l0 -76 44 0 c84 0 126 28 126 83 0 40 -34 61 -106 65
l-64 4 0 -76z"/>
<path d="M29910 22330 l0 -100 45 0 c86 0 145 42 145 103 0 63 -49 97 -140 97
l-50 0 0 -100z"/>
<path d="M1388 22873 c-8 -25 -13 -86 -13 -173 0 -162 19 -229 97 -345 101
-152 263 -251 441 -270 75 -8 66 -18 84 97 l10 58 -36 5 c-134 22 -215 62
-294 146 -101 108 -152 281 -117 399 10 33 8 37 -21 62 -28 23 -106 58 -130
58 -4 0 -13 -17 -21 -37z"/>
<path d="M30720 22445 l0 -355 470 0 470 0 0 355 0 355 -470 0 -470 0 0 -355z
m764 211 c79 -33 102 -126 47 -188 l-29 -33 36 -30 c31 -27 36 -38 39 -86 5
-69 -20 -112 -80 -139 -58 -27 -155 -27 -208 0 -94 48 -106 170 -23 225 28 18
28 18 7 34 -30 25 -43 55 -43 100 0 46 36 96 85 117 40 17 127 18 169 0z
m-364 -141 l0 -145 30 0 c29 0 30 -2 30 -45 0 -43 -1 -45 -30 -45 -30 0 -30
-1 -30 -55 l0 -55 -55 0 -55 0 0 55 0 54 -107 3 -108 3 -3 33 c-3 26 14 62 90
187 l93 154 73 1 72 0 0 -145z"/>
<path d="M31357 22572 c-31 -34 -15 -77 36 -95 23 -8 57 25 57 56 0 49 -61 74
-93 39z"/>
<path d="M31355 22355 c-14 -13 -25 -33 -25 -45 0 -27 43 -70 70 -70 27 0 60
35 60 64 0 23 -49 76 -71 76 -6 0 -21 -11 -34 -25z"/>
<path d="M31000 22542 c0 -4 -20 -43 -45 -86 -25 -44 -45 -81 -45 -83 0 -2 23
-3 50 -3 l50 0 0 90 c0 50 -2 90 -5 90 -3 0 -5 -3 -5 -8z"/>
<path d="M32124 22659 c-18 -5 -53 -24 -80 -41 -69 -47 -108 -125 -112 -227
-3 -68 -1 -82 25 -130 39 -74 93 -104 179 -99 105 6 168 73 168 178 1 97 -59
160 -154 160 -22 0 -55 -7 -72 -16 l-30 -16 18 32 c26 42 55 59 127 74 l62 13
3 41 3 42 -53 -1 c-29 0 -67 -5 -84 -10z m21 -245 c43 -17 56 -112 19 -149
-43 -42 -114 4 -114 74 0 41 6 53 35 69 23 13 37 14 60 6z"/>
<path d="M32455 22656 c-50 -22 -77 -60 -83 -114 -4 -44 -1 -52 27 -85 l32
-36 -25 -16 c-13 -9 -31 -31 -40 -50 -49 -103 29 -194 168 -195 110 0 186 60
186 146 0 44 -28 97 -60 114 -21 11 -21 12 11 47 28 33 31 41 27 85 -6 54 -27
84 -75 104 -41 18 -129 17 -168 0z m119 -82 c22 -21 20 -60 -4 -84 -25 -25
-31 -25 -64 1 -44 35 -26 99 29 99 13 0 31 -7 39 -16z m-15 -209 c46 -23 55
-71 21 -105 -11 -11 -29 -20 -40 -20 -27 0 -70 43 -70 70 0 19 40 70 55 70 3
0 19 -7 34 -15z"/>
<path d="M33254 22659 c-65 -19 -127 -71 -159 -133 -26 -53 -30 -70 -30 -145
0 -76 3 -92 27 -133 82 -139 302 -108 338 48 18 77 -14 159 -74 188 -43 20
-108 20 -148 0 l-31 -16 19 32 c23 40 79 71 140 78 l44 5 0 43 0 44 -47 -1
c-27 0 -62 -5 -79 -10z m33 -254 c24 -17 39 -71 28 -104 -27 -86 -135 -56
-135 38 0 41 6 53 35 69 27 16 47 15 72 -3z"/>
<path d="M33585 22654 c-126 -65 -144 -226 -33 -294 39 -24 111 -26 150 -6 24
13 26 12 21 -2 -22 -60 -89 -102 -161 -102 l-42 0 0 -45 0 -45 48 0 c169 0
282 116 282 289 0 143 -66 221 -187 221 -26 0 -61 -7 -78 -16z m111 -82 c19
-13 34 -50 34 -86 0 -59 -68 -88 -110 -46 -24 24 -27 86 -4 118 15 22 57 30
80 14z"/>
<path d="M33000 21635 l0 -355 470 0 470 0 0 355 0 355 -470 0 -470 0 0 -355z
m343 201 c69 -28 107 -102 107 -207 0 -173 -113 -289 -282 -289 l-48 0 0 45 0
45 42 0 c72 0 139 42 161 102 5 14 3 15 -21 2 -39 -20 -111 -18 -150 6 -65 40
-91 127 -58 203 37 88 156 133 249 93z m487 -46 l0 -50 -94 0 c-89 0 -94 -1
-100 -22 -11 -43 -8 -48 37 -48 51 0 123 -34 150 -71 30 -41 33 -108 8 -156
-45 -88 -157 -124 -287 -92 -49 13 -48 10 -33 62 9 33 14 38 32 33 121 -34
207 5 182 83 -10 33 -57 51 -130 51 -75 0 -70 -11 -55 125 18 151 0 135 155
135 l135 0 0 -50z"/>
<path d="M33216 21738 c-23 -32 -20 -94 4 -118 42 -42 110 -13 110 46 0 36
-15 73 -34 86 -23 16 -65 8 -80 -14z"/>
<path d="M30720 21630 l0 -350 470 0 470 0 0 350 0 350 -470 0 -470 0 0 -350z
m760 202 c50 -25 80 -75 80 -131 -1 -66 -29 -120 -101 -190 l-62 -61 86 0 87
0 0 -50 0 -50 -175 0 -175 0 0 33 c0 29 12 45 89 118 48 46 98 100 110 119 25
41 27 92 5 114 -20 21 -103 21 -130 1 -10 -8 -23 -15 -27 -15 -8 0 -37 61 -37
78 0 5 21 19 48 30 60 27 153 29 202 4z m-320 -31 c0 -29 -26 -92 -99 -245
l-100 -206 -60 0 c-34 0 -61 3 -61 6 0 4 43 90 95 191 52 101 95 186 95 188 0
2 -48 6 -107 7 l-108 3 -3 48 -3 47 175 0 176 0 0 -39z"/>
<path d="M32035 21836 c-50 -22 -77 -60 -83 -114 -4 -44 -1 -53 26 -84 l31
-35 -34 -32 c-40 -37 -52 -84 -36 -134 21 -63 84 -97 179 -97 106 0 182 62
182 150 0 42 -31 96 -63 111 l-23 11 33 33 c26 26 33 41 33 72 0 49 -29 95
-73 116 -42 20 -130 22 -172 3z m119 -82 c20 -20 20 -53 0 -82 -19 -27 -34
-28 -68 -1 -44 35 -26 99 29 99 13 0 31 -7 39 -16z m-15 -209 c47 -24 57 -83
19 -109 -32 -22 -55 -20 -83 9 -30 30 -31 54 -4 89 24 30 30 31 68 11z"/>
<path d="M32460 21812 c-30 -15 -57 -28 -59 -29 -2 -1 0 -23 3 -47 l7 -46 27
14 c15 7 37 17 50 20 l22 7 0 -190 0 -191 55 0 55 0 0 245 0 245 -52 -1 c-36
0 -71 -9 -108 -27z"/>
<path d="M4262 18973 l3 -128 13045 -2 c7175 -2 13053 -3 13063 -3 16 0 17
-175 17 -3545 l0 -3545 875 0 875 0 0 890 0 890 -130 0 -130 0 0 -765 0 -765
-615 0 -615 0 0 3550 0 3550 -13195 0 -13196 0 3 -127z"/>
<path d="M14707 18768 c-8 -30 -9 -1011 -1 -1032 5 -14 28 -16 170 -16 l164 0
0 535 0 535 -164 0 c-161 0 -164 0 -169 -22z"/>
<path d="M16220 18777 c-43 -22 -43 -83 1 -110 24 -15 68 0 81 28 25 55 -29
109 -82 82z"/>
<path d="M17500 18255 l0 -535 168 2 167 3 0 530 0 530 -167 3 -168 2 0 -535z"/>
<path d="M25895 18778 c-3 -7 -4 -247 -2 -533 l2 -520 168 -3 167 -2 0 535 0
535 -165 0 c-123 0 -167 -3 -170 -12z"/>
<path d="M15170 18272 c0 -230 2 -426 6 -435 5 -15 23 -17 124 -17 100 0 119
3 124 16 4 9 6 205 6 435 l-1 419 -129 0 -128 0 -2 -418z"/>
<path d="M17110 18255 l0 -435 125 0 125 0 0 435 0 435 -125 0 -125 0 0 -435z"/>
<path d="M26365 18678 c-3 -7 -4 -202 -3 -433 l3 -420 128 -3 128 -3 -3 433
-3 433 -123 3 c-92 2 -124 -1 -127 -10z"/>
<path d="M6093 18614 c-53 -19 -118 -90 -133 -143 -7 -28 -10 -157 -8 -389 l3
-347 28 -51 c60 -108 84 -114 428 -114 172 0 279 -4 279 -10 0 -5 -52 -120
-115 -257 -63 -136 -115 -250 -115 -255 0 -12 102 -60 109 -51 4 4 26 49 48
98 23 50 63 135 88 190 26 55 67 142 91 193 l43 92 119 0 c109 0 123 2 173 28
35 18 64 42 84 70 l30 44 3 371 3 372 -28 55 c-19 36 -43 65 -71 85 l-44 30
-486 2 c-410 1 -494 -1 -529 -13z m375 -56 c8 -8 12 -61 12 -174 0 -133 -3
-164 -15 -174 -12 -10 -21 -10 -40 -2 l-25 12 0 163 c0 167 4 187 40 187 9 0
21 -5 28 -12z m425 -235 c45 -43 118 -111 161 -150 l77 -73 -83 -77 c-45 -43
-117 -111 -160 -150 -83 -79 -112 -89 -148 -53 -37 37 -26 62 61 144 l81 76
-358 0 c-319 0 -359 2 -376 17 -22 20 -23 61 -1 85 15 17 40 18 374 18 l359 0
-80 76 c-86 82 -96 108 -60 144 36 36 63 26 153 -57z m-430 -336 c16 -11 17
-31 15 -176 -3 -143 -5 -165 -20 -175 -13 -8 -23 -8 -35 0 -16 10 -18 32 -21
175 -2 145 -1 165 15 176 9 7 20 13 23 13 3 0 14 -6 23 -13z"/>
<path d="M15600 18255 l0 -346 83 3 82 3 0 340 0 340 -82 3 -83 3 0 -346z"/>
<path d="M16777 18594 c-4 -4 -7 -160 -7 -346 l0 -339 83 3 82 3 3 334 c1 235
-1 337 -9 341 -15 10 -143 12 -152 4z"/>
<path d="M26792 18258 l3 -343 80 0 80 0 0 339 0 340 -83 4 -82 3 2 -343z"/>
<path d="M16210 18552 c-26 -21 -30 -66 -7 -90 22 -21 77 -20 93 3 20 27 17
62 -6 85 -25 25 -51 25 -80 2z"/>
<path d="M16214 18342 c-49 -32 -32 -105 25 -110 41 -4 71 21 71 58 0 45 -59
77 -96 52z"/>
<path d="M16042 18290 c41 -131 203 -559 209 -553 7 7 41 97 169 455 l39 107
-55 -39 c-116 -81 -235 -76 -333 14 -19 17 -32 24 -29 16z"/>
<path d="M3028 18242 c-69 -35 -68 -24 -68 -637 0 -528 1 -551 20 -582 39 -65
117 -85 179 -47 84 51 701 518 717 541 27 42 30 130 5 171 -12 17 -83 78 -158
134 -76 56 -226 167 -333 247 -107 79 -209 153 -225 162 -44 26 -97 30 -137
11z m403 -414 c164 -122 298 -222 297 -224 -2 -1 -120 -88 -263 -194 -143
-106 -276 -204 -295 -219 -19 -14 -36 -24 -38 -21 -3 7 -8 880 -4 880 2 0 138
-100 303 -222z"/>
<path d="M9655 18128 c-3 -7 -4 -247 -3 -533 l3 -520 168 -3 167 -2 0 535 0
535 -165 0 c-123 0 -167 -3 -170 -12z"/>
<path d="M4290 17566 l0 -535 165 0 165 0 0 534 0 535 -165 0 -165 0 0 -534z"/>
<path d="M10130 17605 l0 -435 125 0 125 0 0 435 0 435 -125 0 -125 0 0 -435z"/>
<path d="M4760 17570 l0 -440 125 0 125 0 -2 438 -3 437 -122 2 -123 2 0 -439z"/>
<path d="M10555 17937 c-3 -6 -4 -161 -3 -342 l3 -330 83 -3 82 -3 0 346 0
345 -80 0 c-56 0 -82 -4 -85 -13z"/>
<path d="M5180 17570 l0 -340 85 0 85 0 0 340 0 340 -85 0 -85 0 0 -340z"/>
<path d="M2385 17842 c-44 -20 -82 -39 -84 -42 -6 -8 9 -99 18 -104 4 -3 31 6
60 20 29 13 55 24 57 24 2 0 4 -115 4 -255 l0 -255 75 0 75 0 0 325 0 325 -62
0 c-52 0 -78 -7 -143 -38z"/>
<path d="M26748 17662 l-858 -2 0 -125 0 -125 855 0 855 0 0 -592 c0 -326 -4
-588 -8 -582 -21 31 -112 86 -175 106 l-72 23 -8640 0 -8640 0 -75 -24 c-99
-31 -136 -50 -197 -106 -58 -52 -106 -137 -123 -219 -7 -36 -10 -233 -8 -617
3 -551 3 -565 25 -616 l21 -53 -23 0 -23 0 -4 -762 c-2 -420 -2 -769 0 -775 3
-10 226 -13 1048 -13 l1044 0 0 131 0 131 -27 -2 c-16 -1 -430 -2 -920 -1
l-893 1 0 539 0 539 61 -19 c59 -19 248 -19 8706 -19 7832 0 8651 1 8706 16
71 18 141 52 186 89 l31 27 0 -591 0 -591 -852 -2 -853 -3 0 -125 0 -125 978
-3 977 -2 -2 2247 -3 2248 -120 0 c-66 0 -506 -1 -977 -3z m-16324 -1378 c34
-34 20 -69 -56 -143 l-73 -71 133 0 c160 0 191 -11 192 -69 0 -14 -7 -33 -17
-43 -14 -16 -34 -18 -167 -18 l-151 -1 78 -72 c83 -77 96 -109 60 -149 -36
-40 -61 -26 -232 133 -157 146 -162 152 -144 169 245 230 304 280 332 280 16
0 37 -7 45 -16z m3305 -55 c35 -12 34 -11 21 -60 l-10 -36 -78 4 c-94 5 -133
-14 -162 -80 -38 -82 -13 -186 52 -227 28 -18 45 -21 110 -17 l78 4 6 -34 c9
-45 1 -59 -36 -67 -199 -39 -350 68 -350 248 0 168 107 274 276 276 34 0 75
-5 93 -11z m-1159 -204 l0 -204 98 -3 97 -3 3 -47 3 -48 -160 0 -161 0 0 255
0 255 60 0 60 0 0 -205z m-1040 46 c45 -23 76 -69 84 -124 12 -76 10 -77 -125
-77 -76 0 -119 -4 -119 -10 0 -6 12 -22 26 -36 24 -24 30 -26 105 -22 75 3 80
2 85 -19 14 -56 -7 -70 -112 -72 -76 -1 -120 13 -162 52 -67 64 -69 197 -4
271 47 52 158 71 222 37z m380 -36 l0 -55 -34 0 c-25 0 -40 -7 -55 -26 -18
-23 -21 -41 -21 -130 l0 -104 -60 0 -60 0 0 180 0 180 50 0 c47 0 50 -2 50
-25 0 -32 2 -31 38 5 21 20 40 30 61 30 31 0 31 0 31 -55z m265 45 c25 -9 27
-14 20 -48 -4 -20 -8 -38 -8 -39 -1 -1 -21 4 -45 10 -30 8 -48 8 -59 1 -32
-20 -25 -34 32 -59 74 -33 105 -67 105 -115 0 -93 -115 -145 -242 -109 -42 11
-42 10 -28 60 l10 37 38 -14 c49 -17 87 -17 102 1 17 20 5 33 -54 59 -29 13
-62 36 -74 51 -42 54 -17 130 52 161 37 16 114 18 151 4z m880 -6 c61 -29 69
-53 75 -212 l5 -142 -52 0 c-40 0 -53 4 -53 15 0 12 -7 11 -40 -6 -59 -31
-124 -22 -163 21 -26 29 -29 38 -24 83 3 41 11 56 35 78 33 30 88 49 140 49
40 0 44 25 6 42 -19 9 -39 9 -82 0 -30 -6 -57 -10 -60 -8 -2 3 -5 19 -5 38 -2
29 2 34 33 45 50 17 146 16 185 -3z m1011 -3 c136 -62 137 -274 2 -340 -82
-39 -197 -19 -246 44 -49 62 -53 168 -8 236 48 72 164 100 252 60z m834 -36
l0 -55 -34 0 c-25 0 -40 -7 -55 -26 -18 -23 -21 -41 -21 -130 l0 -104 -60 0
-60 0 0 180 0 180 50 0 c47 0 50 -2 50 -25 0 -32 2 -31 38 5 21 20 40 30 61
30 31 0 31 0 31 -55z m350 39 c53 -32 64 -66 68 -216 l4 -138 -60 0 -60 0 -4
126 c-3 111 -5 127 -22 140 -26 19 -39 18 -70 -7 -25 -20 -26 -23 -26 -140 l0
-119 -60 0 -60 0 0 180 0 180 49 0 c40 0 51 -4 56 -19 6 -19 7 -19 42 5 42 28
102 32 143 8z m400 -3 c45 -23 76 -69 84 -124 12 -76 10 -77 -125 -77 -76 0
-119 -4 -119 -10 0 -6 12 -22 26 -36 24 -24 30 -26 105 -22 75 3 80 2 85 -19
14 -56 -7 -70 -112 -72 -76 -1 -120 13 -162 52 -67 64 -69 197 -4 271 47 52
158 71 222 37z m1220 0 c45 -23 76 -69 84 -124 12 -76 10 -77 -125 -77 -76 0
-119 -4 -119 -10 0 -6 12 -22 26 -36 24 -24 30 -26 105 -22 75 3 80 2 85 -19
14 -56 -7 -70 -112 -72 -76 -1 -120 13 -162 52 -67 64 -69 197 -4 271 47 52
158 71 222 37z m2834 -1 c110 -28 190 -74 271 -155 225 -225 232 -581 17 -816
-106 -115 -241 -177 -402 -186 -181 -10 -315 42 -446 172 -121 121 -174 246
-174 413 0 166 53 295 170 413 156 156 355 213 564 159z m-8688 -105 c18 -60
33 -112 34 -115 1 -3 16 47 34 110 l32 115 63 3 c35 2 61 -1 60 -6 -2 -5 -33
-87 -69 -181 l-65 -172 -60 3 -60 3 -62 165 c-34 91 -62 171 -62 178 -1 10 15
12 61 10 l61 -3 33 -110z m3344 6 c0 -60 4 -121 9 -134 13 -33 46 -43 76 -23
24 16 25 20 25 141 l0 125 60 0 60 0 0 -180 0 -180 -50 0 c-43 0 -50 3 -50 20
0 18 -2 18 -36 -5 -66 -45 -157 -27 -191 38 -13 24 -18 65 -21 170 l-4 137 61
0 61 0 0 -109z m1550 0 c0 -60 4 -121 9 -134 13 -33 46 -43 76 -23 24 16 25
20 25 141 l0 125 60 0 60 0 0 -180 0 -180 -50 0 c-43 0 -50 3 -50 20 0 18 -2
18 -36 -5 -66 -45 -157 -27 -191 38 -13 24 -18 65 -21 170 l-4 137 61 0 61 0
0 -109z m446 -6 c18 -60 33 -112 34 -115 1 -3 16 47 34 110 l32 115 63 3 c35
2 61 -1 60 -6 -2 -5 -33 -87 -69 -181 l-65 -172 -60 3 -60 3 -62 165 c-34 91
-62 171 -62 178 -1 10 15 12 61 10 l61 -3 33 -110z m1662 -327 c29 -101 55
-202 58 -226 4 -23 10 -44 14 -47 3 -2 15 31 25 73 10 42 39 145 65 227 l48
150 101 3 101 3 0 -38 c0 -21 7 -150 15 -288 8 -137 15 -271 15 -297 l0 -48
-69 0 -69 0 -6 63 c-3 34 -9 151 -13 260 l-8 199 -38 -129 c-21 -70 -56 -185
-78 -255 l-40 -128 -59 0 -59 0 -11 43 c-7 23 -27 96 -45 162 -19 66 -43 160
-54 208 -10 49 -21 90 -24 93 -2 2 -7 -80 -11 -183 -3 -104 -9 -221 -13 -260
l-6 -73 -69 0 -70 0 6 48 c3 26 13 176 23 335 l17 287 101 0 102 0 51 -182z
m8500 -385 c3 -42 2 -43 -27 -43 -38 0 -61 -23 -61 -61 0 -27 3 -29 35 -29 35
0 35 0 35 -45 0 -45 0 -45 -35 -45 l-35 0 0 -135 0 -135 -60 0 -60 0 0 135 0
135 -25 0 c-23 0 -25 4 -25 45 0 41 2 45 25 45 22 0 25 5 25 33 0 45 29 98 70
125 27 18 45 22 85 20 l50 -3 3 -42z m-1990 9 c43 -56 -37 -123 -90 -75 -44
39 -2 111 57 96 11 -3 26 -12 33 -21z m212 -237 l0 -265 -60 0 -60 0 0 265 0
265 60 0 60 0 0 -265z m210 0 l0 -265 -60 0 -60 0 0 265 0 265 60 0 60 0 0
-265z m608 237 c43 -56 -37 -123 -90 -75 -44 39 -2 111 57 96 11 -3 26 -12 33
-21z m640 0 c43 -56 -37 -123 -90 -75 -44 39 -2 111 57 96 11 -3 26 -12 33
-21z m990 -128 c86 -80 158 -149 160 -153 1 -4 -50 -57 -115 -117 -65 -60
-136 -126 -158 -146 -44 -42 -86 -49 -117 -21 -37 33 -24 66 58 142 l76 71
-140 0 c-126 0 -142 2 -166 21 -29 23 -33 54 -10 87 14 21 22 22 167 22 l152
1 -77 74 c-84 80 -95 108 -58 145 40 40 61 29 228 -126z m-4918 -119 l0 -255
-60 0 -60 0 0 255 0 255 60 0 60 0 0 -255z m1802 185 c10 -36 34 -122 52 -191
l32 -126 55 191 54 191 63 3 c57 3 63 1 58 -15 -3 -10 -41 -124 -84 -253 l-79
-235 -69 -3 -69 -3 -78 248 c-43 136 -78 252 -77 256 0 4 28 7 62 5 l61 -3 19
-65z m-2832 -89 c45 -23 76 -69 84 -124 12 -76 10 -77 -125 -77 -76 0 -119 -4
-119 -10 0 -6 12 -22 26 -36 24 -24 30 -26 105 -22 75 3 80 2 85 -19 14 -56
-7 -70 -112 -72 -76 -1 -120 13 -162 52 -67 64 -69 197 -4 271 47 52 158 71
222 37z m370 -36 l0 -55 -34 0 c-25 0 -40 -7 -55 -26 -18 -23 -21 -41 -21
-130 l0 -104 -60 0 -60 0 0 180 0 180 50 0 c47 0 50 -2 50 -25 0 -32 2 -31 38
5 21 20 40 30 61 30 31 0 31 0 31 -55z m275 45 c25 -9 27 -14 20 -48 -4 -20
-8 -38 -8 -39 -1 -1 -21 4 -45 10 -30 8 -48 8 -59 1 -32 -20 -25 -34 32 -59
74 -33 105 -67 105 -115 0 -93 -115 -145 -242 -109 -42 11 -42 10 -28 60 l10
37 38 -14 c49 -17 87 -17 102 1 17 20 5 33 -54 59 -29 13 -62 36 -74 51 -42
54 -17 130 52 161 37 16 114 18 151 4z m1105 -45 l0 -55 -34 0 c-25 0 -40 -7
-55 -26 -18 -23 -21 -41 -21 -130 l0 -104 -60 0 -60 0 0 180 0 180 50 0 c47 0
50 -2 50 -25 0 -32 2 -31 38 5 21 20 40 30 61 30 31 0 31 0 31 -55z m2300 36
c45 -23 76 -69 84 -124 12 -76 10 -77 -125 -77 -76 0 -119 -4 -119 -10 0 -6
12 -22 26 -36 24 -24 30 -26 105 -22 75 3 80 2 85 -19 14 -56 -7 -70 -112 -72
-76 -1 -120 13 -162 52 -67 64 -69 197 -4 271 47 52 158 71 222 37z m-4564
-106 c18 -60 33 -112 34 -115 1 -3 16 47 34 110 l32 115 63 3 c35 2 61 -1 60
-6 -2 -5 -33 -87 -69 -181 l-65 -172 -60 3 -60 3 -62 165 c-34 91 -62 171 -62
178 -1 10 15 12 61 10 l61 -3 33 -110z m1760 0 c18 -60 33 -112 34 -115 1 -3
16 47 34 110 l32 115 63 3 c35 2 61 -1 60 -6 -2 -5 -33 -87 -69 -181 l-65
-172 -60 3 -60 3 -62 165 c-34 91 -62 171 -62 178 -1 10 15 12 61 10 l61 -3
33 -110z m670 70 c7 -22 24 -76 37 -120 l23 -80 30 120 30 120 62 3 c34 2 62
1 62 0 0 -6 -87 -250 -110 -308 -35 -91 -82 -159 -129 -191 -65 -43 -84 -39
-99 17 -7 26 -11 47 -10 48 2 1 20 9 41 19 69 31 69 46 -6 235 -37 92 -67 171
-67 175 0 4 28 7 62 5 l61 -3 13 -40z m1384 -135 l0 -180 -60 0 -60 0 0 180 0
180 60 0 60 0 0 -180z m1028 -17 c-4 -217 -9 -237 -68 -286 -26 -23 -113 -47
-125 -35 -2 2 -7 22 -10 44 -7 38 -6 40 28 52 50 18 57 47 57 248 l0 174 61 0
61 0 -4 -197z m202 88 c0 -60 4 -121 9 -134 13 -33 46 -43 76 -23 24 16 25 20
25 141 l0 125 60 0 60 0 0 -180 0 -180 -50 0 c-43 0 -50 3 -50 20 0 18 -2 18
-36 -5 -66 -45 -157 -27 -191 38 -13 24 -18 65 -21 170 l-4 137 61 0 61 0 0
-109z m440 -71 l0 -180 -60 0 -60 0 0 180 0 180 60 0 60 0 0 -180z m-2430 20
l0 -40 -100 0 -100 0 0 40 0 40 100 0 100 0 0 -40z"/>
<path d="M11390 15990 c-33 -33 -24 -40 50 -40 39 0 70 3 70 8 0 4 -7 18 -16
30 -20 29 -76 30 -104 2z"/>
<path d="M12953 15880 c-19 -8 -43 -38 -43 -54 0 -12 33 -36 51 -36 29 0 59
36 59 70 0 25 -4 30 -22 29 -13 0 -33 -4 -45 -9z"/>
<path d="M13933 15986 c-25 -22 -28 -31 -28 -86 0 -55 3 -64 28 -86 15 -13 34
-24 42 -24 8 0 27 11 42 24 25 22 28 31 28 86 0 55 -3 64 -28 86 -15 13 -34
24 -42 24 -8 0 -27 -11 -42 -24z"/>
<path d="M15510 15990 c-33 -33 -24 -40 50 -40 39 0 70 3 70 8 0 4 -7 18 -16
30 -20 29 -76 30 -104 2z"/>
<path d="M16730 15990 c-33 -33 -24 -40 50 -40 39 0 70 3 70 8 0 4 -7 18 -16
30 -20 29 -76 30 -104 2z"/>
<path d="M19330 15735 l0 -65 145 0 c80 0 145 -2 145 -4 0 -2 -58 -118 -130
-257 -71 -140 -130 -255 -130 -256 0 -2 37 -3 83 -3 l82 0 133 275 c115 240
132 282 132 325 l0 50 -230 0 -230 0 0 -65z"/>
<path d="M21100 15030 c-33 -33 -24 -40 50 -40 39 0 70 3 70 8 0 4 -7 18 -16
30 -20 29 -76 30 -104 2z"/>
<path d="M25150 15030 c-33 -33 -24 -40 50 -40 39 0 70 3 70 8 0 4 -7 18 -16
30 -20 29 -76 30 -104 2z"/>
<path d="M14410 17535 l0 -125 514 0 c467 0 514 1 520 16 4 9 6 66 5 125 l-1
109 -519 0 -519 0 0 -125z"/>
<path d="M15470 17535 l0 -125 24 0 24 0 1 125 0 125 -24 0 -25 0 0 -125z"/>
<path d="M15600 17535 l0 -125 24 0 24 0 1 125 0 125 -24 0 -25 0 0 -125z"/>
<path d="M15725 17648 c-2 -7 -3 -62 -2 -123 2 -106 3 -110 25 -113 22 -3 22
-2 22 122 0 120 -1 126 -20 126 -11 0 -23 -6 -25 -12z"/>
<path d="M15851 17535 l-1 -125 25 0 25 0 0 125 0 125 -24 0 -24 0 -1 -125z"/>
<path d="M15980 17535 l0 -125 25 0 25 0 0 125 0 125 -25 0 -25 0 0 -125z"/>
<path d="M16110 17535 l0 -125 25 0 25 0 0 125 0 125 -25 0 -25 0 0 -125z"/>
<path d="M16240 17535 l0 -125 25 0 25 0 0 125 0 125 -25 0 -25 0 0 -125z"/>
<path d="M16370 17535 l0 -125 25 0 25 0 0 125 0 125 -25 0 -25 0 0 -125z"/>
<path d="M16500 17535 l0 -125 25 0 25 0 -1 125 -1 125 -24 0 -24 0 0 -125z"/>
<path d="M16630 17535 c0 -125 0 -126 23 -123 21 3 22 6 22 123 0 117 -1 120
-22 123 -23 3 -23 2 -23 -123z"/>
<path d="M16751 17535 l1 -125 24 0 24 0 0 125 0 125 -25 0 -24 0 0 -125z"/>
<path d="M16883 17538 l2 -123 548 -3 547 -2 0 125 0 125 -549 0 -550 0 2
-122z"/>
<path d="M33290 17285 c0 -52 -2 -95 -5 -95 -4 0 -20 7 -37 16 -67 35 -160 -1
-198 -76 -22 -44 -27 -140 -9 -187 36 -97 153 -131 229 -67 l30 26 0 -26 c0
-25 3 -26 50 -26 l50 0 0 265 0 265 -55 0 -55 0 0 -95z m-25 -175 c22 -24 30
-96 16 -133 -6 -15 -22 -32 -35 -38 -61 -28 -112 27 -103 108 6 55 30 83 72
83 19 0 39 -8 50 -20z"/>
<path d="M31945 17209 c-11 -6 -30 -23 -42 -38 l-23 -26 0 33 c0 32 0 32 -51
32 -48 0 -51 -1 -45 -22 3 -13 6 -94 6 -180 l0 -158 55 0 55 0 0 110 c0 127
12 150 75 150 l35 0 0 55 c0 50 -2 55 -22 55 -13 0 -32 -5 -43 -11z"/>
<path d="M32603 17209 c-66 -19 -123 -102 -123 -179 0 -124 95 -200 235 -187
90 9 98 13 91 55 -3 19 -7 36 -8 38 -2 1 -24 -2 -50 -7 -57 -13 -121 2 -143
34 -8 12 -15 25 -15 29 0 5 54 8 120 8 l120 0 0 50 c0 126 -99 196 -227 159z
m110 -87 c35 -31 21 -42 -53 -42 -38 0 -70 3 -70 6 0 16 24 46 43 54 26 10 55
4 80 -18z"/>
<path d="M33593 17209 c-66 -19 -123 -102 -123 -179 0 -124 95 -200 235 -187
90 9 98 13 91 55 -3 19 -7 36 -8 38 -2 1 -24 -2 -50 -7 -57 -13 -121 2 -143
34 -8 12 -15 25 -15 29 0 5 54 8 120 8 l120 0 0 50 c0 126 -99 196 -227 159z
m110 -87 c35 -31 21 -42 -53 -42 -38 0 -70 3 -70 6 0 16 24 46 43 54 26 10 55
4 80 -18z"/>
<path d="M32070 17074 c0 -156 11 -193 65 -218 56 -27 114 -18 154 25 l21 23
0 -27 c0 -26 2 -27 50 -27 l50 0 0 180 0 180 -55 0 -55 0 0 -115 c0 -110 -1
-117 -25 -140 -29 -30 -49 -31 -75 -5 -18 18 -20 33 -20 140 l0 120 -55 0 -55
0 0 -136z"/>
<path d="M6750 16660 l0 -290 -1264 0 c-1062 0 -1265 -2 -1269 -14 -7 -18 -7
-214 0 -232 4 -12 238 -14 1474 -14 l1469 0 0 -1975 0 -1975 -1469 0 c-1189 0
-1470 -2 -1474 -13 -7 -19 -8 -212 -1 -230 6 -16 100 -17 1218 -17 963 0 1210
-3 1208 -13 -2 -6 -44 -99 -93 -205 -50 -107 -89 -198 -87 -203 2 -5 26 -20
55 -33 l51 -24 40 86 c22 48 59 128 82 177 23 50 55 118 71 153 l29 62 295 1
c162 1 301 2 308 3 9 1 13 456 15 2234 l2 2233 -142 -1 c-79 -1 -200 -1 -270
0 l-128 0 0 290 0 290 -60 0 -60 0 0 -290z"/>
<path d="M2000 16315 l0 -265 55 0 55 0 0 265 0 265 -55 0 -55 0 0 -265z"/>
<path d="M32680 16215 l0 -265 55 0 55 0 0 265 0 265 -55 0 -55 0 0 -265z"/>
<path d="M33326 16454 c-9 -8 -16 -24 -16 -35 0 -25 35 -59 60 -59 25 0 60 34
60 59 0 28 -27 51 -60 51 -16 0 -36 -7 -44 -16z"/>
<path d="M31801 16448 c0 -7 35 -121 78 -253 l77 -240 66 -3 66 -3 85 256 86
256 -61 -3 -61 -3 -28 -95 c-16 -52 -41 -141 -55 -198 l-27 -102 -32 127 c-18
71 -42 161 -54 201 l-22 72 -59 0 c-42 0 -60 -4 -59 -12z"/>
<path d="M1704 16406 c-18 -8 -35 -19 -38 -25 -11 -18 -26 -13 -26 9 0 17 -7
20 -51 20 l-51 0 6 -31 c3 -17 6 -132 6 -255 l0 -224 55 0 55 0 0 92 c0 90 0
91 20 73 11 -10 40 -20 67 -22 61 -5 118 26 151 82 19 34 22 51 20 117 -2 59
-8 83 -24 105 -50 67 -121 89 -190 59z m76 -96 c37 -37 39 -122 4 -161 -23
-25 -78 -25 -104 1 -28 28 -28 117 1 154 25 32 70 35 99 6z"/>
<path d="M2255 16407 c-37 -12 -40 -15 -37 -47 3 -43 5 -44 43 -31 49 17 103
14 122 -7 10 -10 17 -21 17 -24 0 -3 -24 -8 -54 -11 -132 -13 -198 -96 -151
-187 30 -59 105 -76 175 -40 34 17 40 18 40 5 0 -11 12 -15 50 -15 l50 0 0
128 c0 140 -11 178 -63 216 -34 25 -134 31 -192 13z m145 -221 c0 -57 -76 -91
-100 -46 -22 41 12 78 73 79 24 1 27 -2 27 -33z"/>
<path d="M2697 16405 c-80 -28 -120 -89 -121 -181 0 -72 26 -121 82 -156 30
-19 51 -23 114 -23 42 0 81 5 86 10 5 6 7 26 5 46 l-5 35 -53 -4 c-50 -4 -57
-2 -85 26 -42 43 -42 101 0 144 27 27 36 30 81 26 46 -3 50 -1 55 22 3 14 8
32 10 41 8 30 -101 39 -169 14z"/>
<path d="M3023 16409 c-66 -19 -123 -102 -123 -179 0 -124 95 -200 235 -187
90 9 98 13 91 55 -3 19 -7 36 -8 38 -2 1 -24 -2 -50 -7 -57 -13 -121 2 -143
34 -8 12 -15 25 -15 29 0 5 54 8 120 8 l120 0 0 50 c0 126 -99 196 -227 159z
m110 -87 c35 -31 21 -42 -53 -42 -38 0 -70 3 -70 6 0 16 24 46 43 54 26 10 55
4 80 -18z"/>
<path d="M32325 16307 c-37 -12 -40 -15 -37 -47 3 -43 5 -44 43 -31 49 17 103
14 122 -7 10 -10 17 -21 17 -24 0 -3 -24 -8 -54 -11 -132 -13 -198 -96 -151
-187 30 -59 105 -76 175 -40 34 17 40 18 40 5 0 -11 12 -15 50 -15 l50 0 0
128 c0 140 -11 178 -63 216 -34 25 -134 31 -192 13z m145 -221 c0 -57 -76 -91
-100 -46 -22 41 12 78 73 79 24 1 27 -2 27 -33z"/>
<path d="M32954 16296 c-66 -34 -97 -87 -98 -165 -1 -109 60 -177 168 -188 47
-5 64 -2 109 20 71 35 101 86 101 172 0 108 -62 173 -172 182 -47 4 -65 0
-108 -21z m135 -75 c11 -11 23 -36 27 -55 20 -110 -54 -187 -117 -120 -20 21
-24 36 -24 86 0 53 3 62 28 84 34 29 60 31 86 5z"/>
<path d="M33595 16313 c-53 -15 -95 -66 -95 -117 0 -36 46 -82 105 -104 95
-37 58 -90 -43 -63 -25 6 -46 10 -49 8 -2 -3 -8 -18 -13 -36 -10 -36 2 -46 68
-57 99 -16 185 24 198 92 11 59 -11 92 -85 128 -48 23 -66 37 -66 51 0 17 7
20 45 20 25 -1 51 -3 59 -5 19 -6 39 56 24 71 -12 12 -118 21 -148 12z"/>
<path d="M33320 16130 l0 -180 55 0 55 0 0 180 0 180 -55 0 -55 0 0 -180z"/>
<path d="M2100 15415 l0 -265 55 0 55 0 0 265 0 265 -55 0 -55 0 0 -265z"/>
<path d="M1392 15651 c-60 -21 -114 -67 -145 -126 -29 -54 -30 -193 -3 -245
49 -94 117 -133 231 -134 44 -1 93 3 109 7 27 8 28 10 22 50 -4 23 -8 42 -9
43 -1 1 -24 -2 -51 -7 -85 -16 -164 20 -192 87 -17 40 -18 112 -3 151 28 74
112 115 193 94 57 -14 53 -15 60 13 3 13 9 31 12 40 4 12 -4 20 -30 31 -48 20
-129 18 -194 -4z"/>
<path d="M2763 15592 c-51 -14 -53 -16 -53 -48 0 -30 -3 -34 -25 -34 -22 0
-25 -4 -25 -40 0 -36 3 -40 25 -40 25 0 25 0 25 -95 0 -60 5 -108 14 -130 17
-39 60 -65 110 -65 56 0 66 8 66 51 0 35 -3 39 -24 39 -46 0 -57 24 -54 114
l3 81 38 3 c36 3 37 4 37 43 0 39 0 39 -39 39 l-40 0 -3 48 -3 49 -52 -15z"/>
<path d="M3043 15592 c-51 -14 -53 -16 -53 -48 0 -30 -3 -34 -25 -34 -22 0
-25 -4 -25 -40 0 -36 3 -40 25 -40 25 0 25 0 25 -95 0 -60 5 -108 14 -130 17
-39 60 -65 110 -65 56 0 66 8 66 51 0 35 -3 39 -24 39 -46 0 -57 24 -54 114
l3 81 38 3 c36 3 37 4 37 43 0 39 0 39 -39 39 l-40 0 -3 48 -3 49 -52 -15z"/>
<path d="M1744 15496 c-66 -34 -97 -87 -98 -165 -1 -109 60 -177 168 -188 47
-5 64 -2 109 20 71 35 101 86 101 172 0 108 -62 173 -172 182 -47 4 -65 0
-108 -21z m135 -75 c11 -11 23 -36 27 -55 20 -110 -54 -187 -117 -120 -20 21
-24 36 -24 86 0 53 3 62 28 84 34 29 60 31 86 5z"/>
<path d="M2403 15509 c-66 -19 -123 -102 -123 -179 0 -124 95 -200 235 -187
90 9 98 13 91 55 -3 19 -7 36 -8 38 -2 1 -24 -2 -50 -7 -57 -13 -121 2 -143
34 -8 12 -15 25 -15 29 0 5 54 8 120 8 l120 0 0 50 c0 126 -99 196 -227 159z
m110 -87 c35 -31 21 -42 -53 -42 -38 0 -70 3 -70 6 0 16 24 46 43 54 26 10 55
4 80 -18z"/>
<path d="M3343 15509 c-66 -19 -123 -102 -123 -179 0 -124 95 -200 235 -187
90 9 98 13 91 55 -3 19 -7 36 -8 38 -2 1 -24 -2 -50 -7 -57 -13 -121 2 -143
34 -8 12 -15 25 -15 29 0 5 54 8 120 8 l120 0 0 50 c0 126 -99 196 -227 159z
m110 -87 c35 -31 21 -42 -53 -42 -38 0 -70 3 -70 6 0 16 24 46 43 54 26 10 55
4 80 -18z"/>
<path d="M32772 15418 c-5 -7 -62 -97 -126 -201 -103 -166 -116 -192 -116
-232 l0 -45 145 0 145 0 0 -80 0 -80 70 0 69 0 3 78 3 77 38 3 37 3 0 55 0 54
-40 0 -40 0 0 190 0 190 -89 0 c-59 0 -92 -4 -99 -12z m50 -238 l-3 -130 -70
0 c-38 0 -69 3 -69 6 0 3 22 43 49 88 27 44 58 100 70 124 12 23 22 42 24 42
1 0 1 -58 -1 -130z"/>
<path d="M32235 14559 c-72 -20 -111 -102 -82 -169 17 -41 471 -657 524 -712
67 -71 152 -75 221 -10 49 45 513 674 531 720 30 72 -7 152 -78 172 -45 12
-1073 12 -1116 -1z m785 -456 c-121 -164 -224 -299 -228 -300 -6 -1 -410 540
-435 583 -7 12 63 14 437 14 l446 0 -220 -297z"/>
<path d="M2260 13805 l0 -265 55 0 55 0 0 265 0 265 -55 0 -55 0 0 -265z"/>
<path d="M3980 13975 c0 -52 -2 -95 -5 -95 -4 0 -20 7 -37 16 -67 35 -160 -1
-198 -76 -22 -44 -27 -140 -9 -187 36 -97 153 -131 229 -67 l30 26 0 -26 c0
-25 3 -26 50 -26 l50 0 0 265 0 265 -55 0 -55 0 0 -95z m-25 -175 c22 -24 30
-96 16 -133 -6 -15 -22 -32 -35 -38 -61 -28 -112 27 -103 108 6 55 30 83 72
83 19 0 39 -8 50 -20z"/>
<path d="M1974 13896 c-18 -8 -35 -19 -38 -25 -11 -18 -26 -13 -26 9 0 17 -7
20 -51 20 l-51 0 6 -31 c3 -17 6 -132 6 -255 l0 -224 55 0 55 0 0 92 c0 90 0
91 20 73 11 -10 40 -20 67 -22 61 -5 118 26 151 82 19 34 22 51 20 117 -2 59
-8 83 -24 105 -50 67 -121 89 -190 59z m76 -96 c37 -37 39 -122 4 -161 -23
-25 -78 -25 -104 1 -28 28 -28 117 1 154 25 32 70 35 99 6z"/>
<path d="M2515 13897 c-37 -12 -40 -15 -37 -47 3 -43 5 -44 43 -31 49 17 103
14 122 -7 10 -10 17 -21 17 -24 0 -3 -24 -8 -54 -11 -132 -13 -198 -96 -151
-187 30 -59 105 -76 175 -40 34 17 40 18 40 5 0 -11 12 -15 50 -15 l50 0 0
128 c0 140 -11 178 -63 216 -34 25 -134 31 -192 13z m145 -221 c0 -57 -76 -91
-100 -46 -22 41 12 78 73 79 24 1 27 -2 27 -33z"/>
<path d="M2967 13895 c-80 -28 -120 -89 -121 -181 0 -72 26 -121 82 -156 30
-19 51 -23 114 -23 42 0 81 5 86 10 5 6 7 26 5 46 l-5 35 -53 -4 c-50 -4 -57
-2 -85 26 -42 43 -42 101 0 144 27 27 36 30 81 26 46 -3 50 -1 55 22 3 14 8
32 10 41 8 30 -101 39 -169 14z"/>
<path d="M3293 13899 c-66 -19 -123 -102 -123 -179 0 -124 95 -200 235 -187
90 9 98 13 91 55 -3 19 -7 36 -8 38 -2 1 -24 -2 -50 -7 -57 -13 -121 2 -143
34 -8 12 -15 25 -15 29 0 5 54 8 120 8 l120 0 0 50 c0 126 -99 196 -227 159z
m110 -87 c35 -31 21 -42 -53 -42 -38 0 -70 3 -70 6 0 16 24 46 43 54 26 10 55
4 80 -18z"/>
<path d="M4190 13764 c0 -156 11 -193 65 -218 56 -27 114 -18 154 25 l21 23 0
-27 c0 -26 2 -27 50 -27 l50 0 0 180 0 180 -55 0 -55 0 0 -115 c0 -110 -1
-117 -25 -140 -29 -30 -49 -31 -75 -5 -18 18 -20 33 -20 140 l0 120 -55 0 -55
0 0 -136z"/>
<path d="M32260 13360 l0 -169 523 -1 c287 0 528 4 535 8 9 7 12 47 10 168
l-3 159 -532 3 -533 2 0 -170z"/>
<path d="M33450 11260 l0 -2270 -6740 0 -6741 0 3 -126 3 -127 303 2 302 2 0
-2761 0 -2761 123 3 122 3 3 2758 2 2757 6435 0 6435 0 0 2395 0 2395 -125 0
-125 0 0 -2270z"/>
<path d="M13140 12720 l0 -720 -1745 0 -1745 0 0 -125 0 -125 3925 0 3925 0 0
125 0 125 -26 0 -26 0 3 718 4 717 -2157 3 -2158 2 0 -720z m2183 461 l1877
-1 0 -590 0 -590 -1905 0 -1905 0 0 593 0 593 28 -2 c15 -1 872 -3 1905 -3z"/>
<path d="M19010 12595 l0 -845 33 0 c17 0 1950 0 4295 0 l4262 0 0 -765 0
-765 125 0 125 0 0 70 c0 39 4 70 9 70 4 0 100 -43 212 -96 112 -53 214 -100
227 -105 20 -8 25 -3 49 46 15 30 25 56 22 58 -2 2 -114 55 -249 117 -135 63
-251 118 -257 123 -10 7 -13 170 -13 753 l0 744 -1596 0 -1596 0 3 718 4 717
-2827 3 -2828 2 0 -845z m5400 -5 l0 -590 -2575 0 -2575 0 0 590 0 590 2575 0
2575 0 0 -590z"/>
<path d="M2060 12905 l0 -265 55 0 55 0 0 265 0 265 -55 0 -55 0 0 -265z"/>
<path d="M5000 12905 l0 -265 55 0 55 0 0 265 0 265 -55 0 -55 0 0 -265z"/>
<path d="M2666 13144 c-9 -8 -16 -24 -16 -35 0 -25 35 -59 60 -59 25 0 60 34
60 59 0 28 -27 51 -60 51 -16 0 -36 -7 -44 -16z"/>
<path d="M1268 13143 l-28 -4 0 -250 0 -249 55 0 55 0 0 89 0 88 63 5 c123 10
187 67 187 166 0 111 -58 155 -210 158 -52 1 -107 0 -122 -3z m202 -103 c28
-28 26 -75 -5 -105 -18 -19 -35 -25 -70 -25 l-45 0 0 75 0 75 50 0 c37 0 55
-5 70 -20z"/>
<path d="M3368 13143 l-28 -4 0 -250 0 -249 55 0 55 0 0 100 0 100 33 0 c55 0
73 -21 98 -115 l22 -85 59 0 c32 0 58 1 58 3 0 1 -11 42 -24 90 -24 88 -48
137 -66 137 -18 0 -10 19 11 25 55 18 79 137 38 189 -36 46 -75 59 -184 62
-55 1 -112 0 -127 -3z m204 -103 c23 -29 23 -62 -1 -91 -14 -18 -29 -23 -67
-23 l-49 -1 -3 64 c-2 44 1 67 10 73 22 15 91 1 110 -22z"/>
<path d="M9860 12585 l0 -535 168 2 167 3 3 533 2 532 -170 0 -170 0 0 -535z"/>
<path d="M25890 12596 c0 -437 2 -525 14 -535 10 -8 61 -11 168 -9 l153 3 3
533 2 532 -170 0 -170 0 0 -524z"/>
<path d="M32354 13046 c-3 -8 -4 -63 -2 -123 l3 -108 438 -3 437 -2 0 125 0
125 -435 0 c-365 0 -436 -2 -441 -14z"/>
<path d="M10330 12585 l0 -435 125 0 125 0 0 435 0 435 -125 0 -125 0 0 -435z"/>
<path d="M26367 13014 c-3 -4 -6 -199 -7 -435 l0 -429 130 0 130 0 0 435 -1
435 -123 0 c-67 0 -125 -3 -129 -6z"/>
<path d="M1705 12997 c-37 -12 -40 -15 -37 -47 3 -43 5 -44 43 -31 49 17 103
14 122 -7 10 -10 17 -21 17 -24 0 -3 -24 -8 -54 -11 -132 -13 -198 -96 -151
-187 30 -59 105 -76 175 -40 34 17 40 18 40 5 0 -11 12 -15 50 -15 l50 0 0
128 c0 140 -11 178 -63 216 -34 25 -134 31 -192 13z m145 -221 c0 -57 -76 -91
-100 -46 -22 41 12 78 73 79 24 1 27 -2 27 -33z"/>
<path d="M2305 12997 c-37 -12 -40 -15 -37 -47 3 -43 5 -44 43 -31 49 17 103
14 122 -7 10 -10 17 -21 17 -24 0 -3 -24 -8 -54 -11 -132 -13 -198 -96 -151
-187 30 -59 105 -76 175 -40 34 17 40 18 40 5 0 -11 12 -15 50 -15 l50 0 0
128 c0 140 -11 178 -63 216 -34 25 -134 31 -192 13z m145 -221 c0 -57 -76 -91
-100 -46 -22 41 12 78 73 79 24 1 27 -2 27 -33z"/>
<path d="M2945 13003 c-53 -15 -95 -66 -95 -117 0 -36 46 -82 105 -104 95 -37
58 -90 -43 -63 -25 6 -46 10 -49 8 -2 -3 -8 -18 -13 -36 -10 -36 2 -46 68 -57
99 -16 185 24 198 92 11 59 -11 92 -85 128 -48 23 -66 37 -66 51 0 17 7 20 45
20 25 -1 51 -3 59 -5 19 -6 39 56 24 71 -12 12 -118 21 -148 12z"/>
<path d="M3864 12986 c-66 -34 -97 -87 -98 -165 -1 -109 60 -177 168 -188 47
-5 64 -2 109 20 71 35 101 86 101 172 0 108 -62 173 -172 182 -47 4 -65 0
-108 -21z m135 -75 c11 -11 23 -36 27 -55 20 -110 -54 -187 -117 -120 -20 21
-24 36 -24 86 0 53 3 62 28 84 34 29 60 31 86 5z"/>
<path d="M4645 12997 c-37 -12 -40 -15 -37 -47 3 -43 5 -44 43 -31 49 17 103
14 122 -7 10 -10 17 -21 17 -24 0 -3 -24 -8 -54 -11 -132 -13 -198 -96 -151
-187 30 -59 105 -76 175 -40 34 17 40 18 40 5 0 -11 12 -15 50 -15 l50 0 0
128 c0 140 -11 178 -63 216 -34 25 -134 31 -192 13z m145 -221 c0 -57 -76 -91
-100 -46 -22 41 12 78 73 79 24 1 27 -2 27 -33z"/>
<path d="M2660 12820 l0 -180 55 0 55 0 0 180 0 180 -55 0 -55 0 0 -180z"/>
<path d="M4170 12996 c0 -3 23 -63 51 -133 100 -250 91 -218 67 -248 -12 -15
-36 -33 -53 -41 -32 -13 -32 -13 -22 -59 11 -47 19 -51 61 -35 81 30 136 123
226 378 l50 142 -60 0 -59 0 -15 -48 c-7 -27 -22 -84 -31 -127 l-18 -79 -36
125 -37 124 -62 3 c-34 2 -62 1 -62 -2z"/>
<path d="M10760 12588 l0 -339 83 3 82 3 0 335 0 335 -82 1 -83 0 0 -338z"/>
<path d="M26790 12590 l0 -340 85 0 85 0 0 340 0 340 -85 0 -85 0 0 -340z"/>
<path d="M32452 12548 l3 -83 338 -3 337 -2 0 85 0 85 -340 0 -341 0 3 -82z"/>
<path d="M3023 12080 c-65 -39 -63 -22 -63 -625 0 -592 0 -590 55 -633 33 -26
92 -29 136 -7 38 20 643 468 687 509 45 41 62 77 62 126 0 48 -17 85 -57 121
-61 57 -680 506 -712 517 -47 17 -71 15 -108 -8z m447 -438 c129 -96 240 -179
246 -185 9 -9 -60 -65 -283 -230 -163 -120 -298 -216 -300 -213 -3 3 -6 837
-3 874 0 4 24 -13 340 -246z"/>
<path d="M17580 11875 l0 -125 25 0 25 0 0 125 0 125 -25 0 -25 0 0 -125z"/>
<path d="M17720 11875 l0 -125 25 0 25 0 0 125 0 125 -25 0 -25 0 0 -125z"/>
<path d="M17850 11875 l0 -125 25 0 25 0 0 125 0 125 -25 0 -25 0 0 -125z"/>
<path d="M17990 11875 l0 -125 25 0 25 0 0 125 0 125 -25 0 -25 0 0 -125z"/>
<path d="M18120 11875 l0 -125 25 0 25 0 0 125 0 125 -25 0 -25 0 0 -125z"/>
<path d="M18260 11875 l0 -125 25 0 25 0 0 125 0 125 -25 0 -25 0 0 -125z"/>
<path d="M18390 11875 l0 -125 25 0 25 0 0 125 0 125 -25 0 -25 0 0 -125z"/>
<path d="M18530 11875 l0 -125 25 0 25 0 0 125 0 125 -25 0 -25 0 0 -125z"/>
<path d="M18660 11875 l0 -125 25 0 25 0 0 125 0 125 -25 0 -25 0 0 -125z"/>
<path d="M18800 11875 l0 -125 25 0 25 0 0 125 0 125 -25 0 -25 0 0 -125z"/>
<path d="M18930 11875 l0 -125 25 0 25 0 0 125 0 125 -25 0 -25 0 0 -125z"/>
<path d="M29126 11983 c-3 -4 -6 -323 -6 -710 l0 -703 -355 0 -355 0 0 -65 0
-65 355 0 355 0 0 -110 0 -110 1510 0 1511 0 -2 125 -1 125 -1384 0 -1384 0 0
760 0 760 -119 -1 c-66 0 -122 -3 -125 -6z"/>
<path d="M28120 11795 l0 -85 340 0 340 0 0 85 0 85 -340 0 -340 0 0 -85z"/>
<path d="M4290 11265 l0 -535 165 0 165 0 0 535 0 535 -165 0 -165 0 0 -535z"/>
<path d="M2405 11724 c-51 -13 -112 -36 -128 -48 -17 -13 -16 -16 3 -62 12
-27 23 -50 24 -52 2 -1 19 7 39 18 86 51 189 28 203 -45 12 -64 -31 -129 -172
-262 -122 -114 -124 -117 -124 -160 l0 -43 230 0 230 0 0 60 0 60 -121 0 -121
0 89 88 c110 107 138 159 138 253 0 55 -5 72 -28 107 -36 55 -94 84 -177 88
-36 2 -74 1 -85 -2z"/>
<path d="M4760 11265 l0 -435 125 0 125 0 0 435 0 435 -125 0 -125 0 0 -435z"/>
<path d="M30771 11593 c-58 -21 -114 -78 -130 -134 -9 -32 -11 -140 -9 -399 3
-341 4 -357 25 -395 27 -50 57 -79 108 -102 36 -16 82 -18 463 -21 258 -2 449
1 489 7 86 13 150 52 183 111 l25 45 0 370 c0 360 -1 371 -22 410 -27 51 -68
90 -115 109 -55 24 -951 22 -1017 -1z m698 -57 c8 -9 11 -65 9 -176 -3 -142
-5 -164 -20 -174 -13 -8 -23 -8 -35 0 -16 10 -18 32 -21 174 -3 168 2 190 38
190 10 0 23 -6 29 -14z m-329 -176 c36 -36 26 -62 -57 -144 l-78 -76 354 0
c390 0 391 0 391 -61 0 -59 3 -59 -386 -59 -195 0 -354 -3 -354 -6 0 -3 34
-37 75 -76 80 -74 92 -103 58 -140 -37 -41 -63 -26 -233 130 l-161 147 108
103 c149 143 221 202 244 202 10 0 28 -9 39 -20z m338 -550 c3 -188 1 -200
-37 -200 -17 0 -31 6 -35 16 -8 22 -8 329 1 338 4 4 21 6 38 4 l30 -3 3 -155z"/>
<path d="M5182 11263 l3 -338 83 -3 82 -3 0 341 0 340 -85 0 -85 0 2 -337z"/>
<path d="M28020 11409 l0 -129 435 0 435 0 0 130 0 131 -435 -1 -435 -1 0
-130z"/>
<path d="M6750 11025 l0 -355 60 0 60 0 0 355 0 355 -60 0 -60 0 0 -355z"/>
<path d="M27925 11128 c-3 -13 -4 -88 -3 -168 l3 -145 533 -3 532 -3 0 171 0
170 -530 0 -530 0 -5 -22z"/>
<path d="M4210 10525 l0 -125 1475 0 1475 0 0 -2585 0 -2585 125 0 125 0 0
2660 c0 2358 -2 2660 -15 2660 -11 0 -15 12 -15 50 l0 50 -1585 0 -1585 0 0
-125z"/>
<path d="M9890 8635 l0 -355 -355 0 -355 0 0 -60 0 -60 355 0 355 0 0 -1465 0
-1465 125 0 125 0 0 1755 0 1755 2525 0 2525 0 2 -2757 3 -2758 123 -3 122 -3
0 2755 c0 2195 3 2755 13 2758 9 4 12 38 12 129 l0 124 -2787 3 -2788 2 0
-355z"/>
<path d="M15550 8865 c0 -69 3 -125 8 -126 4 0 15 -2 25 -4 15 -3 17 8 17 126
l0 129 -25 0 -25 0 0 -125z"/>
<path d="M15686 8973 c-8 -19 -6 -211 1 -230 3 -7 14 -13 24 -13 18 0 19 9 19
130 0 121 -1 130 -19 130 -10 0 -22 -8 -25 -17z"/>
<path d="M15820 8859 c0 -130 0 -130 23 -127 21 3 22 7 25 131 l3 127 -26 0
-25 0 0 -131z"/>
<path d="M15957 8983 c-4 -3 -7 -59 -7 -124 0 -98 3 -118 16 -123 9 -3 20 -4
25 0 5 3 9 61 9 130 0 114 -2 124 -18 124 -10 0 -22 -3 -25 -7z"/>
<path d="M16092 8863 c3 -120 4 -128 23 -128 19 0 20 8 23 128 l3 127 -26 0
-26 0 3 -127z"/>
<path d="M16224 8976 c-3 -8 -4 -65 -2 -127 3 -110 4 -114 26 -115 22 -1 22 0
22 127 0 123 -1 129 -20 129 -11 0 -23 -6 -26 -14z"/>
<path d="M16360 8861 c0 -98 3 -131 13 -131 32 1 35 16 34 135 -2 116 -3 120
-24 123 -23 3 -23 3 -23 -127z"/>
<path d="M16492 8863 c3 -122 4 -126 26 -129 22 -4 22 -3 22 126 l0 130 -25 0
-26 0 3 -127z"/>
<path d="M16630 8861 c0 -122 1 -131 19 -131 26 0 28 10 27 140 -1 111 -2 115
-23 118 -23 3 -23 3 -23 -127z"/>
<path d="M16762 8863 c3 -125 4 -128 26 -129 22 -1 22 0 22 127 l0 129 -25 0
-26 0 3 -127z"/>
<path d="M16900 8861 c0 -123 1 -130 20 -128 25 2 26 5 29 110 3 110 -4 147
-30 147 -18 0 -19 -8 -19 -129z"/>
<path d="M17032 8863 c3 -124 4 -128 26 -131 22 -3 22 -3 22 127 l0 131 -25 0
-26 0 3 -127z"/>
<path d="M17210 7605 l0 -1385 125 0 125 0 0 1260 0 1261 473 -2 472 -1 0 124
0 123 -597 3 -598 2 0 -1385z"/>
<path d="M18492 8863 c3 -122 4 -126 26 -129 22 -4 22 -3 22 126 l0 130 -25 0
-26 0 3 -127z"/>
<path d="M18630 8861 c0 -122 1 -131 19 -131 26 0 28 10 27 140 -1 111 -2 115
-23 118 -23 3 -23 3 -23 -127z"/>
<path d="M18762 8863 c3 -125 4 -128 26 -129 22 -1 22 0 22 127 l0 129 -25 0
-26 0 3 -127z"/>
<path d="M18895 8960 c-6 -29 -5 -195 2 -215 2 -6 12 -11 23 -12 19 -2 20 5
20 128 0 121 -1 129 -19 129 -13 0 -21 -9 -26 -30z"/>
<path d="M19030 8861 c0 -127 0 -128 23 -127 21 1 22 4 25 129 l3 127 -26 0
-25 0 0 -129z"/>
<path d="M19165 8980 c-7 -11 -4 -217 3 -237 2 -7 13 -13 23 -13 18 0 19 9 19
130 0 122 -1 130 -19 130 -11 0 -23 -5 -26 -10z"/>
<path d="M19300 8860 c0 -129 0 -130 23 -126 21 3 22 7 25 129 l3 127 -26 0
-25 0 0 -130z"/>
<path d="M19435 8980 c-3 -5 -5 -61 -4 -124 1 -115 5 -126 40 -126 5 0 9 58 9
130 0 122 -1 130 -19 130 -11 0 -22 -4 -26 -10z"/>
<path d="M19570 8859 c0 -130 0 -130 23 -127 21 3 22 7 25 131 l3 127 -26 0
-25 0 0 -131z"/>
<path d="M19702 8863 c3 -120 4 -128 23 -128 19 0 20 8 23 128 l3 127 -26 0
-26 0 3 -127z"/>
<path d="M19840 8866 c0 -69 4 -127 9 -130 5 -4 16 -3 25 0 14 5 16 23 14 128
-3 117 -4 121 -25 124 -23 3 -23 2 -23 -122z"/>
<path d="M7737 8729 c-81 -19 -147 -76 -167 -146 -8 -26 -10 -187 -8 -513 3
-468 3 -476 25 -516 12 -23 36 -53 52 -67 59 -49 81 -52 441 -52 369 0 400 4
465 58 69 57 75 81 75 345 0 132 4 232 9 232 11 0 62 -23 363 -163 l97 -45 26
55 c14 31 24 58 22 59 -2 2 -86 43 -188 90 -101 47 -217 101 -256 119 l-73 34
0 164 c0 189 -10 230 -68 290 -61 63 -90 67 -456 66 -177 -1 -338 -5 -359 -10z
m460 -226 c168 -182 193 -212 193 -238 0 -33 -25 -55 -63 -55 -26 0 -43 13
-104 78 l-72 77 -1 -362 0 -362 -22 -15 c-30 -21 -54 -20 -78 4 -19 19 -20 34
-20 378 l-1 357 -72 -78 c-77 -83 -109 -96 -149 -60 -30 27 -22 59 34 120 119
133 242 263 248 263 4 0 52 -48 107 -107z m-223 -549 c18 -17 20 -32 8 -52 -7
-9 -50 -12 -183 -10 l-174 3 -3 24 c-7 44 18 51 184 51 125 0 155 -3 168 -16z
m570 3 c11 -8 17 -23 14 -38 l-3 -24 -174 0 c-152 0 -175 2 -184 17 -9 13 -7
22 7 37 18 19 30 21 171 21 109 0 156 -4 169 -13z"/>
<path d="M15910 7205 l0 -85 340 0 340 0 0 85 0 85 -340 0 -340 0 0 -85z"/>
<path d="M15814 6937 c-2 -7 -3 -65 -2 -128 l3 -114 422 -2 c232 -2 429 0 438
3 22 9 23 239 0 248 -8 3 -204 5 -435 6 -341 0 -421 -2 -426 -13z"/>
<path d="M15714 6547 c-2 -7 -3 -82 -2 -167 l3 -155 533 -2 532 -2 0 169 0
170 -530 0 c-425 0 -532 -3 -536 -13z"/>
<path d="M8630 6367 c-53 -27 -30 -117 30 -117 59 0 81 72 34 109 -31 24 -31
25 -64 8z"/>
<path d="M8610 6091 c-25 -49 1 -101 52 -101 51 0 78 69 40 103 -26 24 -79 22
-92 -2z"/>
<path d="M8616 5834 c-22 -21 -20 -67 2 -87 40 -36 102 -9 102 45 0 49 -69 78
-104 42z"/>
<path d="M8616 5574 c-9 -8 -16 -28 -16 -44 0 -36 23 -60 59 -60 54 0 82 68
43 103 -23 21 -66 22 -86 1z"/>
<path d="M17210 3505 l0 -1855 125 0 125 0 0 1855 0 1855 -125 0 -125 0 0
-1855z"/>
<path d="M18760 4296 l0 -1064 23 -6 c12 -3 68 -6 125 -6 l102 0 0 1070 0
1070 -125 0 -125 0 0 -1064z"/>
<path d="M8617 5312 c-21 -23 -22 -66 -1 -86 36 -37 104 -7 104 46 0 51 -69
78 -103 40z"/>
<path d="M8841 5216 c-12 -13 -50 -36 -83 -51 -50 -23 -71 -27 -124 -23 -55 3
-72 10 -124 45 -33 23 -60 41 -60 40 0 -1 47 -130 104 -287 58 -157 107 -278
110 -270 44 114 205 564 203 567 -2 1 -14 -8 -26 -21z"/>
<path d="M17779 5113 c-17 -38 -31 -72 -32 -76 -1 -5 74 -44 167 -87 l169 -79
166 76 c91 42 168 78 170 80 4 2 -33 88 -65 151 -1 1 -61 -24 -133 -58 -73
-33 -134 -60 -137 -60 -3 0 -64 27 -136 60 -71 33 -132 60 -135 60 -2 0 -17
-30 -34 -67z"/>
<path d="M19477 5153 c-2 -5 -5 -43 -6 -85 l-2 -78 345 0 344 0 -1 83 -2 82
-337 3 c-185 1 -339 -1 -341 -5z"/>
<path d="M16208 5133 c-22 -26 -26 -45 -17 -71 16 -43 85 -48 111 -8 37 55
-51 129 -94 79z"/>
<path d="M16210 4872 c-48 -39 -10 -121 49 -107 51 12 68 68 31 105 -25 25
-51 25 -80 2z"/>
<path d="M17693 4728 c-23 -61 -40 -114 -38 -118 2 -4 99 -42 216 -85 l211
-78 186 68 c103 38 202 74 219 82 l32 13 -30 83 c-17 45 -36 97 -42 115 -6 17
-13 32 -17 32 -4 0 -80 -27 -169 -60 -89 -33 -170 -60 -179 -60 -9 0 -89 27
-177 60 -88 33 -162 60 -165 60 -3 0 -24 -50 -47 -112z"/>
<path d="M19382 4692 l3 -127 433 -3 432 -3 0 131 0 130 -435 0 -436 -1 3
-127z"/>
<path d="M16210 4612 c-43 -35 -15 -112 41 -112 27 0 59 35 59 65 0 30 -32 65
-59 65 -10 0 -29 -8 -41 -18z"/>
<path d="M17645 4449 c-15 -41 -94 -303 -92 -305 5 -5 520 -164 531 -164 18 0
520 151 528 159 4 3 -13 73 -37 155 -25 82 -45 151 -45 153 0 9 -43 -2 -226
-57 -109 -33 -207 -60 -218 -60 -14 0 -368 106 -423 127 -7 3 -15 -1 -18 -8z"/>
<path d="M19282 4263 l3 -168 530 0 530 0 3 168 2 167 -535 0 -535 0 2 -167z"/>
<path d="M16210 4352 c-43 -35 -15 -112 41 -112 27 0 59 35 59 65 0 30 -32 65
-59 65 -10 0 -29 -8 -41 -18z"/>
<path d="M9730 3995 l0 -265 55 0 55 0 0 265 0 265 -55 0 -55 0 0 -265z"/>
<path d="M9940 3995 l0 -265 55 0 55 0 0 265 0 265 -55 0 -55 0 0 -265z"/>
<path d="M8820 3985 l0 -255 55 0 55 0 0 105 0 105 95 0 95 0 0 -105 0 -105
55 0 55 0 0 255 0 255 -55 0 -55 0 0 -100 0 -100 -95 0 -95 0 0 100 0 100 -55
0 -55 0 0 -255z"/>
<path d="M16210 4092 c-43 -35 -16 -112 41 -112 27 0 59 35 59 64 0 24 -23 56
-40 56 -5 0 -15 2 -23 5 -7 3 -24 -2 -37 -13z"/>
<path d="M7753 4089 c-66 -19 -123 -102 -123 -179 0 -124 95 -200 235 -187 90
9 98 13 91 55 -3 19 -7 36 -8 38 -2 1 -24 -2 -50 -7 -57 -13 -121 2 -143 34
-8 12 -15 25 -15 29 0 5 54 8 120 8 l120 0 0 50 c0 126 -99 196 -227 159z
m110 -87 c35 -31 21 -42 -53 -42 -38 0 -70 3 -70 6 0 16 24 46 43 54 26 10 55
4 80 -18z"/>
<path d="M8215 4089 c-11 -6 -30 -23 -42 -38 l-23 -26 0 33 c0 32 0 32 -51 32
-48 0 -51 -1 -45 -22 3 -13 6 -94 6 -180 l0 -158 55 0 55 0 0 110 c0 127 12
150 75 150 l35 0 0 55 c0 50 -2 55 -22 55 -13 0 -32 -5 -43 -11z"/>
<path d="M8415 4093 c-53 -15 -95 -66 -95 -117 0 -36 46 -82 105 -104 95 -37
58 -90 -43 -63 -25 6 -46 10 -49 8 -2 -3 -8 -18 -13 -36 -10 -36 2 -46 68 -57
99 -16 185 24 198 92 11 59 -11 92 -85 128 -48 23 -66 37 -66 51 0 17 7 20 45
20 25 -1 51 -3 59 -5 19 -6 39 56 24 71 -12 12 -118 21 -148 12z"/>
<path d="M9375 4087 c-37 -12 -40 -15 -37 -47 3 -43 5 -44 43 -31 49 17 103
14 122 -7 10 -10 17 -21 17 -24 0 -3 -24 -8 -54 -11 -132 -13 -198 -96 -151
-187 30 -59 105 -76 175 -40 34 17 40 18 40 5 0 -11 12 -15 50 -15 l50 0 0
128 c0 140 -11 178 -63 216 -34 25 -134 31 -192 13z m145 -221 c0 -57 -76 -91
-100 -46 -22 41 12 78 73 79 24 1 27 -2 27 -33z"/>
<path d="M7230 4083 c0 -5 29 -84 64 -178 l64 -170 59 0 58 0 66 175 66 175
-54 3 c-31 2 -58 1 -61 -3 -3 -3 -20 -58 -37 -122 -32 -117 -36 -123 -49 -68
-4 17 -19 67 -32 113 l-25 82 -60 0 c-32 0 -59 -3 -59 -7z"/>
<path d="M16042 4000 c40 -127 203 -559 209 -553 4 5 37 91 74 193 37 102 82
226 100 276 l33 91 -56 -37 c-121 -81 -234 -76 -331 14 -19 17 -32 24 -29 16z"/>
<path d="M14850 2814 c-105 -28 -180 -72 -265 -158 -121 -121 -175 -250 -175
-412 1 -329 264 -594 590 -594 325 0 590 265 590 590 0 167 -54 295 -175 416
-86 87 -161 131 -270 159 -74 19 -222 18 -295 -1z m78 -426 c29 -101 55 -202
58 -226 4 -23 10 -44 14 -47 3 -2 15 31 25 73 10 42 39 145 65 227 l48 150
101 3 101 3 0 -38 c0 -21 7 -150 15 -288 8 -137 15 -271 15 -297 l0 -48 -69 0
-69 0 -6 63 c-3 34 -9 151 -13 260 l-8 199 -38 -129 c-21 -70 -56 -185 -78
-255 l-40 -128 -59 0 -59 0 -11 43 c-7 23 -27 96 -45 162 -19 66 -43 160 -54
208 -10 49 -21 90 -24 93 -2 2 -7 -80 -11 -183 -3 -104 -9 -221 -13 -260 l-6
-73 -69 0 -70 0 6 48 c3 26 13 176 23 335 l17 287 101 0 102 0 51 -182z"/>
<path d="M18225 2816 c-136 -33 -271 -128 -348 -243 -156 -235 -130 -546 63
-743 313 -317 846 -195 986 225 107 323 -84 674 -412 759 -73 19 -217 20 -289
2z m63 -428 c29 -101 55 -202 58 -226 4 -23 10 -44 14 -47 3 -2 15 31 25 73
10 42 39 145 65 227 l48 150 101 3 101 3 0 -38 c0 -21 7 -150 15 -288 8 -137
15 -271 15 -297 l0 -48 -69 0 -69 0 -6 63 c-3 34 -9 151 -13 260 l-8 199 -38
-129 c-21 -70 -56 -185 -78 -255 l-40 -128 -59 0 -59 0 -11 43 c-7 23 -27 96
-45 162 -19 66 -43 160 -54 208 -10 49 -21 90 -24 93 -2 2 -7 -80 -11 -183 -3
-104 -9 -221 -13 -260 l-6 -73 -69 0 -70 0 6 48 c3 26 13 176 23 335 l17 287
101 0 102 0 51 -182z"/>
<path d="M16181 2510 c-74 -35 -83 -42 -78 -62 3 -13 9 -39 12 -59 l7 -37 61
28 62 28 3 -254 2 -254 75 0 75 0 0 325 0 325 -67 0 c-58 -1 -80 -6 -152 -40z"/>
<path d="M19541 2510 c-74 -35 -83 -42 -78 -62 3 -13 9 -39 12 -59 l7 -37 61
28 62 28 3 -254 2 -254 75 0 75 0 0 325 0 325 -67 0 c-58 -1 -80 -6 -152 -40z"/>
<path d="M13996 1404 c-9 -8 -16 -24 -16 -35 0 -25 35 -59 60 -59 25 0 60 34
60 59 0 28 -27 51 -60 51 -16 0 -36 -7 -44 -16z"/>
<path d="M13491 1398 c0 -7 35 -121 78 -253 l77 -240 66 -3 66 -3 85 256 86
256 -61 -3 -61 -3 -28 -95 c-16 -52 -41 -141 -55 -198 l-27 -102 -32 127 c-18
71 -42 161 -54 201 l-22 72 -59 0 c-42 0 -60 -4 -59 -12z"/>
<path d="M19834 1376 c-44 -20 -73 -61 -80 -117 -6 -43 -9 -49 -30 -49 -21 0
-24 -5 -24 -40 0 -36 3 -40 25 -40 l25 0 0 -140 0 -140 55 0 54 0 3 138 3 137
38 3 c36 3 37 4 37 43 l0 39 -41 0 c-41 0 -41 0 -35 32 8 42 23 58 56 58 24 0
29 5 35 36 4 26 2 39 -7 45 -20 13 -79 10 -114 -5z"/>
<path d="M19481 1318 l-30 -53 37 -3 c33 -3 41 1 79 45 24 26 43 51 43 56 0 4
-22 7 -49 7 -49 0 -50 0 -80 -52z"/>
<path d="M17880 1105 l0 -255 155 0 155 0 0 45 0 44 -97 3 -98 3 -3 208 -2
207 -55 0 -55 0 0 -255z"/>
<path d="M18853 1353 l-33 -4 0 -249 0 -249 36 -7 c53 -10 202 2 252 20 65 23
95 49 127 108 26 47 30 63 29 138 0 172 -78 241 -279 246 -55 1 -115 0 -132
-3z m228 -106 c51 -34 71 -80 67 -154 -6 -102 -61 -157 -156 -158 l-57 0 -3
155 c-1 85 0 160 2 167 9 23 108 16 147 -10z"/>
<path d="M14344 1256 c-18 -8 -35 -19 -38 -25 -11 -18 -26 -13 -26 9 0 17 -7
20 -51 20 l-51 0 6 -31 c3 -17 6 -98 6 -180 l0 -149 55 0 55 0 0 120 c0 107 2
122 20 140 11 11 29 20 40 20 11 0 29 -9 40 -20 18 -18 20 -33 20 -140 l0
-120 55 0 55 0 0 139 c0 127 -2 141 -23 172 -39 57 -97 73 -163 45z"/>
<path d="M14727 1255 c-80 -28 -120 -89 -121 -181 0 -72 26 -121 82 -156 30
-19 51 -23 114 -23 42 0 81 5 86 10 5 6 7 26 5 46 l-5 35 -53 -4 c-50 -4 -57
-2 -85 26 -42 43 -42 101 0 144 27 27 36 30 81 26 46 -3 50 -1 55 22 3 14 8
32 10 41 8 30 -101 39 -169 14z"/>
<path d="M15053 1259 c-66 -19 -123 -102 -123 -179 0 -124 95 -200 235 -187
90 9 98 13 91 55 -3 19 -7 36 -8 38 -2 1 -24 -2 -50 -7 -57 -13 -121 2 -143
34 -8 12 -15 25 -15 29 0 5 54 8 120 8 l120 0 0 50 c0 126 -99 196 -227 159z
m110 -87 c35 -31 21 -42 -53 -42 -38 0 -70 3 -70 6 0 16 24 46 43 54 26 10 55
4 80 -18z"/>
<path d="M15514 1256 c-18 -8 -35 -19 -38 -25 -11 -18 -26 -13 -26 9 0 17 -7
20 -51 20 l-51 0 6 -31 c3 -17 6 -98 6 -180 l0 -149 55 0 55 0 0 120 c0 107 2
122 20 140 11 11 29 20 40 20 11 0 29 -9 40 -20 18 -18 20 -33 20 -140 l0
-120 55 0 55 0 0 139 c0 127 -2 141 -23 172 -39 57 -97 73 -163 45z"/>
<path d="M15954 1256 c-18 -8 -35 -19 -38 -25 -11 -18 -26 -13 -26 9 0 17 -7
20 -51 20 l-51 0 6 -31 c3 -17 6 -98 6 -180 l0 -149 55 0 55 0 0 120 c0 107 2
122 20 140 11 11 29 20 40 20 11 0 29 -9 40 -20 18 -18 20 -33 20 -140 l0
-120 55 0 55 0 0 139 c0 127 -2 141 -23 172 -39 57 -97 73 -163 45z"/>
<path d="M16333 1259 c-66 -19 -123 -102 -123 -179 0 -124 95 -200 235 -187
90 9 98 13 91 55 -3 19 -7 36 -8 38 -2 1 -24 -2 -50 -7 -57 -13 -121 2 -143
34 -8 12 -15 25 -15 29 0 5 54 8 120 8 l120 0 0 50 c0 126 -99 196 -227 159z
m110 -87 c35 -31 21 -42 -53 -42 -38 0 -70 3 -70 6 0 16 24 46 43 54 26 10 55
4 80 -18z"/>
<path d="M16705 1263 c-53 -15 -95 -66 -95 -117 0 -36 46 -82 105 -104 95 -37
58 -90 -43 -63 -25 6 -46 10 -49 8 -2 -3 -8 -18 -13 -36 -10 -36 2 -46 68 -57
99 -16 185 24 198 92 11 59 -11 92 -85 128 -48 23 -66 37 -66 51 0 17 7 20 45
20 25 -1 51 -3 59 -5 19 -6 39 56 24 71 -12 12 -118 21 -148 12z"/>
<path d="M13990 1080 l0 -180 55 0 55 0 0 180 0 180 -55 0 -55 0 0 -180z"/>
<path d="M18315 1207 c-37 -12 -40 -15 -37 -47 3 -43 5 -44 43 -31 49 17 103
14 122 -7 10 -10 17 -21 17 -24 0 -3 -24 -8 -54 -11 -132 -13 -198 -96 -151
-187 30 -59 105 -76 175 -40 34 17 40 18 40 5 0 -11 12 -15 50 -15 l50 0 0
128 c0 140 -11 178 -63 216 -34 25 -134 31 -192 13z m145 -221 c0 -57 -76 -91
-100 -46 -22 41 12 78 73 79 24 1 27 -2 27 -33z"/>
<path d="M19433 1209 c-66 -19 -123 -102 -123 -179 0 -124 95 -200 235 -187
90 9 98 13 91 55 -3 19 -7 36 -8 38 -2 1 -24 -2 -50 -7 -57 -13 -121 2 -143
34 -8 12 -15 25 -15 29 0 5 54 8 120 8 l120 0 0 50 c0 126 -99 196 -227 159z
m110 -87 c35 -31 21 -42 -53 -42 -38 0 -70 3 -70 6 0 16 24 46 43 54 26 10 55
4 80 -18z"/>
<path d="M20073 1209 c-66 -19 -123 -102 -123 -179 0 -124 95 -200 235 -187
90 9 98 13 91 55 -3 19 -7 36 -8 38 -2 1 -24 -2 -50 -7 -57 -13 -121 2 -143
34 -8 12 -15 25 -15 29 0 5 54 8 120 8 l120 0 0 50 c0 126 -99 196 -227 159z
m110 -87 c35 -31 21 -42 -53 -42 -38 0 -70 3 -70 6 0 16 24 46 43 54 26 10 55
4 80 -18z"/>
<path d="M20534 1206 c-18 -8 -35 -19 -38 -25 -11 -18 -26 -13 -26 9 0 17 -7
20 -51 20 l-51 0 6 -31 c3 -17 6 -98 6 -180 l0 -149 55 0 55 0 0 120 c0 107 2
122 20 140 11 11 29 20 40 20 11 0 29 -9 40 -20 18 -18 20 -33 20 -140 l0
-120 55 0 55 0 0 139 c0 127 -2 141 -23 172 -39 57 -97 73 -163 45z"/>
<path d="M20895 1213 c-53 -15 -95 -66 -95 -117 0 -36 46 -82 105 -104 95 -37
58 -90 -43 -63 -25 6 -46 10 -49 8 -2 -3 -8 -18 -13 -36 -10 -36 2 -46 68 -57
99 -16 185 24 198 92 11 59 -11 92 -85 128 -48 23 -66 37 -66 51 0 17 7 20 45
20 25 -1 51 -3 59 -5 19 -6 39 56 24 71 -12 12 -118 21 -148 12z"/>
<path d="M21243 1209 c-66 -19 -123 -102 -123 -179 0 -124 95 -200 235 -187
90 9 98 13 91 55 -3 19 -7 36 -8 38 -2 1 -24 -2 -50 -7 -57 -13 -121 2 -143
34 -8 12 -15 25 -15 29 0 5 54 8 120 8 l120 0 0 50 c0 126 -99 196 -227 159z
m110 -87 c35 -31 21 -42 -53 -42 -38 0 -70 3 -70 6 0 16 24 46 43 54 26 10 55
4 80 -18z"/>
</g>
</svg>
