<?xml version="1.0" encoding="UTF-8" standalone="no"?>
<!-- Created with Inkscape (http://www.inkscape.org/) -->

<svg xmlns:dc="http://purl.org/dc/elements/1.1/" xmlns:cc="http://creativecommons.org/ns#" xmlns:rdf="http://www.w3.org/1999/02/22-rdf-syntax-ns#" xmlns:svg="http://www.w3.org/2000/svg" xmlns="http://www.w3.org/2000/svg" xmlns:inkscape="http://www.inkscape.org/namespaces/inkscape" version="1.0" width="3508pt" height="2480pt" viewBox="0 0 3508 2480" id="svg2">
  <defs id="defs550" />
  <metadata id="metadata4">
Created by potrace 1.11, written by Peter Selinger 2001-2013
<rdf:RDF>
  <cc:Work rdf:about="">
    <dc:format>image/svg+xml</dc:format>
    <dc:type rdf:resource="http://purl.org/dc/dcmitype/StillImage" />
  </cc:Work>
</rdf:RDF>
</metadata>
  <g transform="matrix(0.1,0,0,-0.1,0,2480)" id="g6" style="fill:#000000;stroke:none">
    <path d="m 25970,22570 0,-1070 -350,0 -350,0 0,485 0,485 -125,0 -125,0 0,-610 0,-610 438,0 c 240,0 494,-3 563,-6 69,-4 142,-4 162,0 l 37,7 0,1188 c 0,952 -3,1190 -13,1194 -7,2 -63,5 -125,6 l -112,2 0,-1071 z" inkscape:connector-curvature="0" id="path8" />
    <path d="m 28753,23633 c -10,-4 -13,-111 -13,-489 l 0,-484 -330,0 -330,0 0,-60 0,-60 330,0 330,0 0,-2949 0,-2949 33,-3 c 17,-2 746,-3 1620,-1 l 1587,3 0,125 0,124 -1495,0 -1495,0 0,3375 0,3376 -112,-2 c -62,-1 -119,-4 -125,-6 z" inkscape:connector-curvature="0" id="path10" />
    <path d="m 1563,23612 c -18,-2 -33,-5 -33,-7 0,-2 -7,-39 -15,-82 -19,-99 -20,-95 12,-91 26,3 28,7 42,86 l 14,82 42,0 c 56,0 74,-20 51,-55 -13,-20 -25,-25 -58,-25 l -41,0 39,-44 c 31,-35 46,-44 73,-45 l 35,-1 -32,33 c -18,18 -32,36 -32,39 0,3 12,9 28,13 52,13 81,61 50,82 -16,9 -130,19 -175,15 z" inkscape:connector-curvature="0" id="path12" />
    <path d="m 2830,22736 c 0,-795 2,-884 16,-890 8,-3 2136,-5 4727,-3 l 4712,2 3,888 2,887 -4730,0 -4730,0 0,-884 z m 4790,-21 0,-355 -75,0 -75,0 0,355 0,355 75,0 75,0 0,-355 z m 3920,0 0,-355 -75,0 -75,0 0,355 0,355 75,0 75,0 0,-355 z m -6890,270 -61,-75 -51,0 -50,0 38,68 c 20,37 39,70 41,75 2,4 36,7 74,7 l 70,0 -61,-75 z m 3755,50 c 14,-13 25,-36 25,-50 0,-36 -42,-75 -80,-75 -38,0 -80,39 -80,75 0,36 42,75 80,75 19,0 40,-9 55,-25 z m -4627,-187 c 29,-101 55,-202 58,-226 4,-23 10,-44 14,-47 3,-2 15,31 25,73 10,42 39,145 65,227 l 48,150 101,3 101,3 0,-38 c 0,-21 7,-150 15,-288 8,-137 15,-271 15,-297 l 0,-48 -69,0 -69,0 -6,63 c -3,34 -9,151 -13,260 l -8,199 -38,-129 c -21,-70 -56,-185 -78,-255 l -40,-128 -59,0 -59,0 -11,43 c -7,23 -27,96 -45,162 -19,66 -43,160 -54,208 -10,49 -21,90 -24,93 -2,2 -7,-80 -11,-183 -3,-104 -9,-221 -13,-260 l -6,-73 -69,0 -70,0 6,48 c 3,26 13,176 23,335 l 17,287 101,0 102,0 51,-182 z m 2924,168 c 98,-23 152,-78 164,-168 19,-136 -81,-232 -252,-245 l -74,-6 0,-118 0,-119 -75,0 -75,0 0,329 0,330 53,4 c 120,8 205,6 259,-7 z m 2809,0 c 31,-7 71,-23 89,-36 36,-26 69,-90 70,-134 0,-49 -38,-113 -81,-140 l -40,-23 25,-17 c 35,-22 49,-54 81,-171 14,-55 29,-108 32,-118 4,-16 -2,-18 -73,-15 l -78,3 -19,65 c -41,151 -49,170 -70,185 -12,8 -41,15 -64,15 l -43,0 0,-135 0,-135 -75,0 -75,0 0,329 0,330 48,4 c 110,8 221,6 273,-7 z m -4481,-111 0,-65 55,0 55,0 0,-55 0,-55 -55,0 -55,0 0,-110 c 0,-98 2,-112 21,-131 15,-15 30,-20 50,-17 l 29,5 0,-58 0,-58 -36,-7 c -47,-9 -118,2 -150,22 -48,32 -58,67 -62,217 l -4,137 -29,0 c -28,0 -29,1 -29,55 0,54 0,55 30,55 29,0 30,2 30,45 l 0,44 58,16 c 31,9 62,18 67,20 23,8 25,2 25,-60 z m -372,-79 c 64,-33 101,-100 109,-197 l 6,-69 -162,0 c -179,0 -188,-4 -133,-60 35,-35 102,-47 181,-32 31,5 59,7 63,3 4,-3 8,-26 10,-51 l 3,-44 -50,-12 c -117,-28 -236,-9 -302,49 -52,46 -73,98 -73,183 0,59 5,81 28,125 30,58 87,105 143,120 45,11 143,3 177,-15 z m 872,-45 0,-68 -47,-6 c -37,-4 -54,-12 -75,-36 -28,-31 -28,-32 -28,-171 l 0,-140 -75,0 -75,0 0,240 0,240 65,0 65,0 0,-47 0,-48 26,39 c 28,40 71,65 117,66 27,0 27,0 27,-69 z m 425,41 c 86,-44 128,-117 128,-223 0,-180 -158,-288 -341,-234 -106,32 -166,117 -165,236 0,115 61,201 163,234 61,20 164,14 215,-13 z m 1304,-3 c 22,-12 49,-39 62,-63 22,-38 24,-55 27,-218 l 4,-178 -66,0 c -62,0 -66,1 -72,25 -6,24 -8,24 -23,11 -80,-72 -221,-53 -261,36 -23,51 -25,87 -6,131 27,67 124,117 222,117 50,0 59,9 39,37 -21,30 -79,37 -148,18 -32,-8 -60,-15 -62,-15 -4,0 -25,69 -25,83 0,4 12,12 28,18 89,35 218,34 281,-2 z m 810,0 c 22,-12 49,-39 62,-63 22,-38 24,-55 27,-218 l 4,-178 -66,0 c -62,0 -66,1 -72,25 -6,24 -8,24 -23,11 -80,-72 -221,-53 -261,36 -23,51 -25,87 -6,131 27,67 124,117 222,117 50,0 59,9 39,37 -21,30 -79,37 -148,18 -32,-8 -60,-15 -62,-15 -4,0 -25,69 -25,83 0,4 12,12 28,18 89,35 218,34 281,-2 z m 773,12 c 26,-10 26,-10 14,-58 -7,-26 -14,-47 -17,-47 -109,29 -163,22 -157,-18 3,-23 9,-26 110,-73 64,-29 89,-61 95,-119 12,-120 -142,-198 -300,-152 -62,18 -65,23 -47,88 l 11,37 41,-15 c 60,-21 135,-19 147,4 11,21 -11,62 -33,62 -31,0 -137,63 -151,90 -43,84 4,178 105,209 39,12 142,7 182,-8 z m 1293,-9 c 86,-44 128,-117 128,-223 0,-180 -158,-288 -341,-234 -106,32 -166,117 -165,236 0,115 61,201 163,234 61,20 164,14 215,-13 z m 1044,-3 c 22,-12 49,-39 62,-63 22,-38 24,-55 27,-218 l 4,-178 -66,0 c -62,0 -66,1 -72,25 -6,24 -8,24 -23,11 -80,-72 -221,-53 -261,36 -23,51 -25,87 -6,131 27,67 124,117 222,117 50,0 59,9 39,37 -21,30 -79,37 -148,18 -32,-8 -60,-15 -62,-15 -4,0 -25,69 -25,83 0,4 12,12 28,18 89,35 218,34 281,-2 z m -2759,-219 0,-240 -75,0 -75,0 0,240 0,240 75,0 75,0 0,-240 z m 2084,107 c 21,-72 43,-148 49,-167 10,-33 12,-26 52,130 l 41,165 82,3 81,3 -18,-53 c -132,-378 -180,-490 -239,-558 -39,-47 -104,-87 -146,-92 -27,-3 -30,0 -42,47 -19,70 -19,70 27,90 42,20 89,67 89,91 0,7 -40,115 -90,239 -49,124 -90,227 -90,230 0,3 37,5 83,5 l 82,0 39,-133 z" inkscape:connector-curvature="0" id="path14" />
    <path d="m 6558,22913 c -16,-4 -18,-17 -18,-99 l 0,-94 50,0 c 87,0 130,36 130,109 0,57 -89,103 -162,84 z" inkscape:connector-curvature="0" id="path16" />
    <path d="m 9353,22914 c -9,-4 -13,-32 -13,-90 l 0,-84 53,0 c 89,0 140,48 123,115 -4,14 -17,32 -30,40 -25,16 -112,29 -133,19 z" inkscape:connector-curvature="0" id="path18" />
    <path d="m 4479,22721 c -51,-52 -42,-61 62,-61 l 91,0 -6,28 c -16,66 -96,84 -147,33 z" inkscape:connector-curvature="0" id="path20" />
    <path d="m 5777,22720 c -73,-58 -56,-225 27,-254 104,-38 172,146 90,244 -31,36 -78,40 -117,10 z" inkscape:connector-curvature="0" id="path22" />
    <path d="m 7103,22575 c -37,-16 -51,-54 -34,-91 9,-19 18,-24 50,-24 50,0 81,35 81,91 0,37 -1,39 -32,39 -18,-1 -47,-7 -65,-15 z" inkscape:connector-curvature="0" id="path24" />
    <path d="m 7913,22575 c -37,-16 -51,-54 -34,-91 9,-19 18,-24 50,-24 50,0 81,35 81,91 0,37 -1,39 -32,39 -18,-1 -47,-7 -65,-15 z" inkscape:connector-curvature="0" id="path26" />
    <path d="m 9957,22720 c -73,-58 -56,-225 27,-254 104,-38 172,146 90,244 -31,36 -78,40 -117,10 z" inkscape:connector-curvature="0" id="path28" />
    <path d="m 11023,22575 c -37,-16 -51,-54 -34,-91 9,-19 18,-24 50,-24 50,0 81,35 81,91 0,37 -1,39 -32,39 -18,-1 -47,-7 -65,-15 z" inkscape:connector-curvature="0" id="path30" />
    <path d="m 1849,23522 c -75,-85 -97,-123 -41,-69 24,23 37,27 85,27 52,0 59,-3 69,-25 8,-18 19,-25 40,-25 15,0 28,3 28,6 0,12 -92,174 -98,174 -4,-1 -41,-40 -83,-88 z m 76,-2 16,-30 -46,0 -46,0 21,30 c 12,17 25,30 30,30 5,0 16,-13 25,-30 z" inkscape:connector-curvature="0" id="path32" />
    <path d="m 2088,23603 c 63,-5 61,2 27,-150 -5,-20 -1,-23 24,-23 24,0 30,5 35,28 3,15 10,53 16,84 l 11,57 52,4 c 29,2 -9,3 -83,3 -74,0 -111,-1 -82,-3 z" inkscape:connector-curvature="0" id="path34" />
    <path d="m 2356,23598 c -8,-25 -26,-132 -26,-150 0,-12 7,-18 24,-18 20,0 25,6 31,40 l 7,40 67,0 c 44,0 74,5 89,16 24,17 29,53 10,72 -17,17 -197,17 -202,0 z m 152,-24 c 5,-32 -24,-54 -69,-54 -41,0 -46,8 -33,58 6,20 12,23 53,20 38,-2 47,-7 49,-24 z" inkscape:connector-curvature="0" id="path36" />
    <path d="m 20190,23335 0,-265 55,0 55,0 0,265 0,265 -55,0 -55,0 0,-265 z" inkscape:connector-curvature="0" id="path38" />
    <path d="m 21910,23505 c 0,-52 -2,-95 -5,-95 -4,0 -20,7 -37,16 -67,35 -160,-1 -198,-76 -22,-44 -27,-140 -9,-187 36,-97 153,-131 229,-67 l 30,26 0,-26 c 0,-25 3,-26 50,-26 l 50,0 0,265 0,265 -55,0 -55,0 0,-95 z m -25,-175 c 22,-24 30,-96 16,-133 -6,-15 -22,-32 -35,-38 -61,-28 -112,27 -103,108 6,55 30,83 72,83 19,0 39,-8 50,-20 z" inkscape:connector-curvature="0" id="path40" />
    <path d="m 23784,23531 c -18,-11 -39,-30 -48,-42 -20,-30 -21,-91 0,-130 20,-39 467,-644 508,-687 17,-19 43,-40 58,-48 42,-22 109,-18 149,9 43,29 532,685 555,746 16,39 16,48 3,84 -9,26 -26,50 -48,64 l -34,23 -556,0 c -530,0 -557,-1 -587,-19 z m 1021,-153 c 2,-2 -47,-71 -108,-153 -62,-83 -161,-216 -221,-298 l -108,-147 -58,77 c -31,43 -130,177 -220,298 l -163,220 34,5 c 36,5 839,3 844,-2 z" inkscape:connector-curvature="0" id="path42" />
    <path d="m 30818,23458 c -27,-11 -48,-25 -48,-30 0,-12 28,-78 33,-78 3,0 18,7 33,15 41,21 107,19 127,-3 21,-23 22,-64 3,-100 -8,-15 -57,-69 -110,-121 -84,-82 -96,-98 -96,-127 l 0,-34 175,0 175,0 0,50 0,50 -85,0 -86,0 59,58 c 73,71 102,125 102,190 0,60 -30,109 -80,134 -49,25 -142,23 -202,-4 z" inkscape:connector-curvature="0" id="path44" />
    <path d="m 31948,23458 c -27,-11 -48,-25 -48,-30 0,-12 28,-78 33,-78 3,0 18,7 33,15 41,21 107,19 127,-3 21,-23 22,-64 3,-100 -8,-15 -57,-69 -110,-121 -84,-82 -96,-98 -96,-127 l 0,-34 175,0 175,0 0,50 0,50 -85,0 -86,0 59,58 c 73,71 102,125 102,190 0,60 -30,109 -80,134 -49,25 -142,23 -202,-4 z" inkscape:connector-curvature="0" id="path46" />
    <path d="m 31274,23440 -62,-28 11,-45 10,-46 36,15 c 20,9 42,18 49,21 9,4 12,-37 12,-186 l 0,-191 55,0 55,0 0,245 0,245 -52,-1 c -36,0 -73,-10 -114,-29 z" inkscape:connector-curvature="0" id="path48" />
    <path d="m 32310,23420 0,-50 110,0 c 61,0 110,-2 110,-4 0,-2 -43,-86 -95,-188 -52,-102 -95,-188 -95,-192 0,-3 27,-6 61,-6 l 60,0 100,206 c 73,153 99,216 99,245 l 0,39 -175,0 -175,0 0,-50 z" inkscape:connector-curvature="0" id="path50" />
    <path d="m 19894,23426 c -18,-8 -35,-19 -38,-25 -11,-18 -26,-13 -26,9 0,17 -7,20 -51,20 l -51,0 6,-31 c 3,-17 6,-132 6,-255 l 0,-224 55,0 55,0 0,92 c 0,90 0,91 20,73 11,-10 40,-20 67,-22 61,-5 118,26 151,82 19,34 22,51 20,117 -2,59 -8,83 -24,105 -50,67 -121,89 -190,59 z m 76,-96 c 37,-37 39,-122 4,-161 -23,-25 -78,-25 -104,1 -28,28 -28,117 1,154 25,32 70,35 99,6 z" inkscape:connector-curvature="0" id="path52" />
    <path d="m 20445,23427 c -37,-12 -40,-15 -37,-47 3,-43 5,-44 43,-31 49,17 103,14 122,-7 10,-10 17,-21 17,-24 0,-3 -24,-8 -54,-11 -132,-13 -198,-96 -151,-187 30,-59 105,-76 175,-40 34,17 40,18 40,5 0,-11 12,-15 50,-15 l 50,0 0,128 c 0,140 -11,178 -63,216 -34,25 -134,31 -192,13 z m 145,-221 c 0,-57 -76,-91 -100,-46 -22,41 12,78 73,79 24,1 27,-2 27,-33 z" inkscape:connector-curvature="0" id="path54" />
    <path d="m 20887,23425 c -80,-28 -120,-89 -121,-181 0,-72 26,-121 82,-156 30,-19 51,-23 114,-23 42,0 81,5 86,10 5,6 7,26 5,46 l -5,35 -53,-4 c -50,-4 -57,-2 -85,26 -42,43 -42,101 0,144 27,27 36,30 81,26 46,-3 50,-1 55,22 3,14 8,32 10,41 8,30 -101,39 -169,14 z" inkscape:connector-curvature="0" id="path56" />
    <path d="m 21213,23429 c -66,-19 -123,-102 -123,-179 0,-124 95,-200 235,-187 90,9 98,13 91,55 -3,19 -7,36 -8,38 -2,1 -24,-2 -50,-7 -57,-13 -121,2 -143,34 -8,12 -15,25 -15,29 0,5 54,8 120,8 l 120,0 0,50 c 0,126 -99,196 -227,159 z m 110,-87 c 35,-31 21,-42 -53,-42 -38,0 -70,3 -70,6 0,16 24,46 43,54 26,10 55,4 80,-18 z" inkscape:connector-curvature="0" id="path58" />
    <path d="m 22120,23294 c 0,-156 11,-193 65,-218 56,-27 114,-18 154,25 l 21,23 0,-27 c 0,-26 2,-27 50,-27 l 50,0 0,180 0,180 -55,0 -55,0 0,-115 c 0,-110 -1,-117 -25,-140 -29,-30 -49,-31 -75,-5 -18,18 -20,33 -20,140 l 0,120 -55,0 -55,0 0,-136 z" inkscape:connector-curvature="0" id="path60" />
    <path d="m 1850,23314 c -95,-25 -197,-82 -268,-148 l -66,-63 55,-26 c 30,-14 66,-34 81,-44 27,-17 28,-17 55,9 152,141 384,158 560,41 158,-105 235,-304 188,-488 -27,-104 -63,-165 -146,-246 l -78,-77 -16,-83 c -8,-45 -14,-83 -12,-85 7,-7 126,49 175,82 71,50 162,150 201,223 69,131 89,306 51,455 -29,116 -73,190 -165,281 -89,90 -182,143 -295,169 -81,20 -247,19 -320,0 z" inkscape:connector-curvature="0" id="path62" />
    <path d="m 26522,23101 c -29,-10 -69,-33 -88,-52 -65,-63 -65,-61 -62,-594 l 3,-480 25,-45 c 14,-24 45,-58 68,-75 l 44,-30 366,-3 c 401,-3 416,-1 484,56 63,53 68,78 68,365 0,141 1,257 3,257 1,0 126,-58 277,-129 l 275,-129 28,55 c 16,30 26,57 24,59 -2,2 -139,67 -303,143 l -299,140 -5,158 c -6,175 -14,206 -70,260 -61,59 -87,63 -454,63 -295,-1 -337,-3 -384,-19 z m 529,-266 c 150,-162 169,-194 134,-229 -9,-9 -30,-16 -47,-16 -25,0 -43,14 -104,78 l -73,77 -1,-362 0,-362 -22,-15 c -30,-21 -54,-20 -78,4 -19,19 -20,34 -20,378 l -1,357 -72,-78 c -77,-83 -110,-96 -149,-60 -30,27 -22,59 34,120 124,138 242,263 249,263 4,0 72,-70 150,-155 z m -267,-501 c 9,-8 16,-21 16,-28 0,-32 -27,-37 -196,-34 l -169,3 -3,24 c -7,44 18,51 184,51 125,0 155,-3 168,-16 z m 570,3 c 11,-8 17,-23 14,-38 l -3,-24 -169,-3 c -169,-3 -196,2 -196,34 0,7 7,20 16,28 21,21 310,24 338,3 z" inkscape:connector-curvature="0" id="path64" />
    <path d="m 1228,23044 c -47,-14 -48,-16 -48,-55 0,-34 3,-39 18,-35 146,44 268,31 367,-39 130,-92 154,-106 196,-113 24,-4 72,-4 107,1 35,5 65,7 67,5 3,-2 8,-28 12,-58 7,-49 10,-54 43,-65 27,-9 36,-18 40,-41 5,-24 10,-29 35,-29 27,0 30,-4 33,-33 3,-26 10,-35 39,-47 40,-17 41,-8 -11,-142 -65,-168 -95,-399 -65,-505 9,-36 12,-38 49,-38 l 39,0 -10,32 c -14,51 -11,221 7,306 14,69 69,242 105,330 18,43 5,63 -51,76 -45,11 -47,13 -66,85 -3,9 -12,11 -28,7 -21,-5 -25,-2 -28,21 -2,20 -12,32 -35,42 -26,12 -33,21 -38,55 -14,89 -15,90 -125,75 -97,-13 -127,-5 -207,58 -142,110 -306,150 -445,107 z" inkscape:connector-curvature="0" id="path66" />
    <path d="m 29769,23016 c -271,-78 -442,-304 -441,-581 1,-165 66,-311 191,-427 264,-245 682,-198 884,99 218,318 82,751 -280,890 -56,21 -88,26 -188,29 -80,2 -135,-1 -166,-10 z m 242,-226 c 29,-6 69,-19 89,-29 101,-52 107,-188 9,-245 l -32,-19 35,-18 c 148,-76 118,-285 -46,-334 -66,-20 -204,-30 -289,-21 l -67,8 0,328 0,329 53,4 c 112,8 197,7 248,-3 z" inkscape:connector-curvature="0" id="path68" />
    <path d="m 29860,22616 0,-76 44,0 c 84,0 126,28 126,83 0,40 -34,61 -106,65 l -64,4 0,-76 z" inkscape:connector-curvature="0" id="path70" />
    <path d="m 29860,22330 0,-100 45,0 c 86,0 145,42 145,103 0,63 -49,97 -140,97 l -50,0 0,-100 z" inkscape:connector-curvature="0" id="path72" />
    <path d="m 1388,22873 c -8,-25 -13,-86 -13,-173 0,-162 19,-229 97,-345 101,-152 263,-251 441,-270 75,-8 66,-18 84,97 l 10,58 -36,5 c -134,22 -215,62 -294,146 -101,108 -152,281 -117,399 10,33 8,37 -21,62 -28,23 -106,58 -130,58 -4,0 -13,-17 -21,-37 z" inkscape:connector-curvature="0" id="path74" />
    <path d="m 30680,22440 0,-350 470,0 470,0 0,350 0,350 -470,0 -470,0 0,-350 z m 764,206 c 79,-33 102,-126 47,-188 l -29,-33 36,-30 c 31,-27 36,-38 39,-86 3,-41 0,-61 -15,-85 -62,-99 -273,-99 -332,-1 -36,58 -20,135 36,172 27,17 27,18 7,34 -30,23 -43,54 -43,100 0,46 36,96 85,117 40,17 127,18 169,0 z m -374,-141 0,-145 30,0 c 29,0 30,-2 30,-45 0,-43 -1,-45 -30,-45 -30,0 -30,-1 -30,-55 l 0,-55 -55,0 -55,0 0,55 0,54 -107,3 -108,3 -3,33 c -3,26 14,62 90,187 l 93,154 73,1 72,0 0,-145 z" inkscape:connector-curvature="0" id="path76" />
    <path d="m 31317,22562 c -31,-34 -15,-77 36,-95 23,-9 57,26 57,57 0,50 -60,75 -93,38 z" inkscape:connector-curvature="0" id="path78" />
    <path d="m 31315,22345 c -14,-13 -25,-33 -25,-45 0,-27 43,-70 70,-70 27,0 60,35 60,64 0,23 -49,76 -71,76 -6,0 -21,-11 -34,-25 z" inkscape:connector-curvature="0" id="path80" />
    <path d="m 30950,22532 c 0,-4 -20,-43 -45,-86 -25,-44 -45,-81 -45,-83 0,-2 23,-3 50,-3 l 50,0 0,90 c 0,50 -2,90 -5,90 -3,0 -5,-3 -5,-8 z" inkscape:connector-curvature="0" id="path82" />
    <path d="m 19990,22435 0,-265 55,0 55,0 0,265 0,265 -55,0 -55,0 0,-265 z" inkscape:connector-curvature="0" id="path84" />
    <path d="m 22920,22435 0,-265 55,0 55,0 0,265 0,265 -55,0 -55,0 0,-265 z" inkscape:connector-curvature="0" id="path86" />
    <path d="m 20596,22674 c -9,-8 -16,-24 -16,-35 0,-25 35,-59 60,-59 25,0 60,34 60,59 0,28 -27,51 -60,51 -16,0 -36,-7 -44,-16 z" inkscape:connector-curvature="0" id="path88" />
    <path d="m 19198,22673 -28,-4 0,-250 0,-249 55,0 55,0 0,89 0,88 63,5 c 123,10 187,67 187,166 0,111 -58,155 -210,158 -52,1 -107,0 -122,-3 z m 202,-103 c 28,-28 26,-75 -5,-105 -18,-19 -35,-25 -70,-25 l -45,0 0,75 0,75 50,0 c 37,0 55,-5 70,-20 z" inkscape:connector-curvature="0" id="path90" />
    <path d="m 21298,22673 -28,-4 0,-250 0,-249 55,0 55,0 0,100 0,100 33,0 c 55,0 73,-21 98,-115 l 22,-85 59,0 c 32,0 58,1 58,3 0,1 -11,42 -24,90 -24,88 -48,137 -66,137 -18,0 -10,19 11,25 55,18 79,137 38,189 -36,46 -75,59 -184,62 -55,1 -112,0 -127,-3 z m 204,-103 c 23,-29 23,-62 -1,-91 -14,-18 -29,-23 -67,-23 l -49,-1 -3,64 c -2,44 1,67 10,73 22,15 91,1 110,-22 z" inkscape:connector-curvature="0" id="path92" />
    <path d="m 32074,22649 c -18,-5 -53,-24 -80,-41 -69,-47 -108,-125 -112,-227 -3,-68 -1,-82 25,-130 39,-74 93,-104 179,-99 105,6 168,73 168,178 1,97 -59,160 -154,160 -22,0 -55,-7 -72,-16 l -30,-16 18,32 c 26,42 55,59 127,74 l 62,13 3,41 3,42 -53,-1 c -29,0 -67,-5 -84,-10 z m 21,-245 c 43,-17 56,-112 19,-149 -43,-42 -114,4 -114,74 0,41 6,53 35,69 23,13 37,14 60,6 z" inkscape:connector-curvature="0" id="path94" />
    <path d="m 32405,22646 c -50,-22 -77,-60 -83,-114 -4,-44 -1,-52 27,-85 l 32,-36 -25,-16 c -13,-9 -31,-31 -40,-50 -49,-103 29,-194 168,-195 110,0 186,60 186,146 0,44 -28,97 -60,114 -21,11 -21,12 11,47 28,33 31,41 27,85 -6,54 -27,84 -75,104 -41,18 -129,17 -168,0 z m 119,-82 c 22,-21 20,-60 -4,-84 -25,-25 -31,-25 -64,1 -44,35 -26,99 29,99 13,0 31,-7 39,-16 z m -15,-209 c 46,-23 55,-71 21,-105 -11,-11 -29,-20 -40,-20 -27,0 -70,43 -70,70 0,19 40,70 55,70 3,0 19,-7 34,-15 z" inkscape:connector-curvature="0" id="path96" />
    <path d="m 33214,22649 c -18,-5 -53,-24 -80,-41 -69,-47 -108,-125 -112,-227 -3,-68 -1,-82 25,-130 97,-186 382,-96 347,109 -14,81 -72,130 -154,130 -22,0 -55,-7 -72,-16 l -31,-16 19,32 c 23,40 79,71 140,78 l 44,5 0,43 0,44 -47,-1 c -27,0 -62,-5 -79,-10 z m 33,-254 c 31,-22 40,-78 19,-121 -13,-29 -21,-34 -50,-34 -44,0 -76,37 -76,89 0,41 6,53 35,69 27,16 47,15 72,-3 z" inkscape:connector-curvature="0" id="path98" />
    <path d="m 33535,22644 c -71,-36 -105,-91 -105,-167 0,-107 126,-183 222,-133 24,13 26,12 21,-2 -22,-60 -89,-102 -161,-102 l -42,0 0,-45 0,-45 48,0 c 170,0 282,115 282,291 0,101 -39,176 -107,205 -43,19 -121,18 -158,-2 z m 111,-82 c 19,-13 34,-50 34,-86 0,-59 -68,-88 -110,-46 -24,24 -27,86 -4,118 15,22 57,30 80,14 z" inkscape:connector-curvature="0" id="path100" />
    <path d="m 19635,22527 c -37,-12 -40,-15 -37,-47 3,-43 5,-44 43,-31 49,17 103,14 122,-7 10,-10 17,-21 17,-24 0,-3 -24,-8 -54,-11 -132,-13 -198,-96 -151,-187 30,-59 105,-76 175,-40 34,17 40,18 40,5 0,-11 12,-15 50,-15 l 50,0 0,128 c 0,140 -11,178 -63,216 -34,25 -134,31 -192,13 z m 145,-221 c 0,-57 -76,-91 -100,-46 -22,41 12,78 73,79 24,1 27,-2 27,-33 z" inkscape:connector-curvature="0" id="path102" />
    <path d="m 20235,22527 c -37,-12 -40,-15 -37,-47 3,-43 5,-44 43,-31 49,17 103,14 122,-7 10,-10 17,-21 17,-24 0,-3 -24,-8 -54,-11 -132,-13 -198,-96 -151,-187 30,-59 105,-76 175,-40 34,17 40,18 40,5 0,-11 12,-15 50,-15 l 50,0 0,128 c 0,140 -11,178 -63,216 -34,25 -134,31 -192,13 z m 145,-221 c 0,-57 -76,-91 -100,-46 -22,41 12,78 73,79 24,1 27,-2 27,-33 z" inkscape:connector-curvature="0" id="path104" />
    <path d="m 20865,22533 c -53,-15 -95,-66 -95,-117 0,-36 46,-82 105,-104 95,-37 58,-90 -43,-63 -25,6 -46,10 -49,8 -2,-3 -8,-18 -13,-36 -10,-36 2,-46 68,-57 99,-16 185,24 198,92 11,59 -11,92 -85,128 -48,23 -66,37 -66,51 0,17 7,20 45,20 25,-1 51,-3 59,-5 19,-6 39,56 24,71 -12,12 -118,21 -148,12 z" inkscape:connector-curvature="0" id="path106" />
    <path d="m 21794,22516 c -66,-34 -97,-87 -98,-165 -1,-109 60,-177 168,-188 47,-5 64,-2 109,20 71,35 101,86 101,172 0,108 -62,173 -172,182 -47,4 -65,0 -108,-21 z m 135,-75 c 11,-11 23,-36 27,-55 20,-110 -54,-187 -117,-120 -20,21 -24,36 -24,86 0,53 3,62 28,84 34,29 60,31 86,5 z" inkscape:connector-curvature="0" id="path108" />
    <path d="m 22575,22527 c -37,-12 -40,-15 -37,-47 3,-43 5,-44 43,-31 49,17 103,14 122,-7 10,-10 17,-21 17,-24 0,-3 -24,-8 -54,-11 -132,-13 -198,-96 -151,-187 30,-59 105,-76 175,-40 34,17 40,18 40,5 0,-11 12,-15 50,-15 l 50,0 0,128 c 0,140 -11,178 -63,216 -34,25 -134,31 -192,13 z m 145,-221 c 0,-57 -76,-91 -100,-46 -22,41 12,78 73,79 24,1 27,-2 27,-33 z" inkscape:connector-curvature="0" id="path110" />
    <path d="m 20590,22350 0,-180 55,0 55,0 0,180 0,180 -55,0 -55,0 0,-180 z" inkscape:connector-curvature="0" id="path112" />
    <path d="m 22100,22526 c 0,-3 23,-63 51,-133 100,-250 91,-218 67,-248 -12,-15 -36,-33 -53,-41 -32,-13 -32,-13 -22,-59 11,-47 19,-51 61,-35 81,30 136,123 226,378 l 50,142 -60,0 -59,0 -15,-48 c -7,-27 -22,-84 -31,-127 l -18,-79 -36,125 -37,124 -62,3 c -34,2 -62,1 -62,-2 z" inkscape:connector-curvature="0" id="path114" />
    <path d="m 23470,20740 0,-1730 125,0 125,0 0,1730 0,1730 -125,0 -125,0 0,-1730 z" inkscape:connector-curvature="0" id="path116" />
    <path d="m 23840,22270 0,-170 530,0 530,0 0,170 0,170 -530,0 -530,0 0,-170 z" inkscape:connector-curvature="0" id="path118" />
    <path d="m 30680,21625 0,-355 470,0 470,0 0,355 0,355 -470,0 -470,0 0,-355 z m 760,197 c 50,-25 80,-75 80,-131 -1,-66 -29,-120 -101,-190 l -62,-61 86,0 87,0 0,-50 0,-50 -175,0 -175,0 0,33 c 0,29 12,45 89,118 48,46 98,100 110,119 36,59 22,127 -27,131 -40,4 -78,-3 -99,-16 -12,-8 -25,-15 -28,-15 -7,0 -35,64 -35,78 0,5 21,19 48,30 60,27 153,29 202,4 z m -330,-31 c 0,-29 -26,-92 -99,-245 l -100,-206 -60,0 c -34,0 -61,3 -61,6 0,4 43,90 95,191 52,101 95,186 95,188 0,3 -49,5 -110,5 l -110,0 0,50 0,50 175,0 175,0 0,-39 z" inkscape:connector-curvature="0" id="path120" />
    <path d="m 32960,21630 0,-350 470,0 470,0 0,350 0,350 -470,0 -470,0 0,-350 z m 333,206 c 69,-28 107,-102 107,-207 0,-173 -113,-289 -282,-289 l -48,0 0,45 0,45 42,0 c 72,0 139,42 161,102 5,14 3,15 -21,2 -39,-20 -111,-18 -150,6 -65,40 -91,127 -58,203 37,88 156,133 249,93 z m 497,-46 0,-50 -94,0 c -89,0 -94,-1 -100,-22 -11,-43 -8,-48 37,-48 51,0 123,-34 150,-71 30,-41 33,-108 8,-156 -45,-88 -157,-124 -287,-92 -49,13 -48,10 -33,62 9,33 14,38 32,33 121,-34 207,5 182,83 -10,33 -57,51 -130,51 -75,0 -70,-11 -55,125 18,151 0,135 155,135 l 135,0 0,-50 z" inkscape:connector-curvature="0" id="path122" />
    <path d="m 33166,21738 c -23,-32 -20,-94 4,-118 42,-42 110,-13 110,46 0,36 -15,73 -34,86 -23,16 -65,8 -80,-14 z" inkscape:connector-curvature="0" id="path124" />
    <path d="m 23934,21956 c -3,-7 -3,-64 -2,-127 l 3,-114 429,-3 c 341,-2 431,0 438,10 9,15 11,209 2,232 -6,15 -50,16 -436,16 -334,-1 -430,-4 -434,-14 z" inkscape:connector-curvature="0" id="path126" />
    <path d="m 31985,21826 c -50,-22 -77,-60 -83,-114 -4,-44 -1,-53 26,-84 l 31,-35 -34,-32 c -40,-37 -52,-84 -36,-134 21,-63 84,-97 179,-97 106,0 182,62 182,150 0,42 -31,96 -63,111 l -23,11 33,33 c 26,26 33,41 33,72 0,49 -29,95 -73,116 -42,20 -130,22 -172,3 z m 119,-82 c 20,-20 20,-53 0,-82 -19,-27 -34,-28 -68,-1 -44,35 -26,99 29,99 13,0 31,-7 39,-16 z m -15,-209 c 47,-24 57,-83 19,-109 -32,-22 -55,-20 -83,9 -30,30 -31,54 -4,89 24,30 30,31 68,11 z" inkscape:connector-curvature="0" id="path128" />
    <path d="m 32410,21802 c -30,-15 -57,-28 -59,-29 -2,-1 0,-23 3,-47 l 7,-46 27,14 c 15,7 37,17 50,20 l 22,7 0,-190 0,-191 55,0 55,0 0,245 0,245 -52,-1 c -36,0 -71,-9 -108,-27 z" inkscape:connector-curvature="0" id="path130" />
    <path d="m 24030,21455 0,-85 340,0 340,0 0,85 0,85 -340,0 -340,0 0,-85 z" inkscape:connector-curvature="0" id="path132" />
    <path d="m 27405,21372 c -243,-29 -450,-208 -509,-438 -20,-78 -21,-222 -1,-297 56,-215 235,-387 450,-432 238,-50 475,46 612,247 123,181 136,406 35,603 -52,101 -164,211 -262,258 -101,47 -230,71 -325,59 z m -7,-444 c 29,-101 55,-202 58,-226 4,-23 10,-44 14,-47 3,-2 15,31 25,73 10,42 39,145 65,227 l 48,150 101,3 101,3 0,-38 c 0,-21 7,-150 15,-288 8,-137 15,-271 15,-297 l 0,-48 -69,0 -69,0 -6,63 c -3,34 -9,151 -13,260 l -8,199 -38,-129 c -21,-70 -56,-185 -78,-255 l -40,-128 -59,0 -59,0 -11,43 c -7,23 -27,96 -45,162 -19,66 -43,160 -54,208 -10,49 -21,90 -24,93 -2,2 -7,-80 -11,-183 -3,-104 -9,-221 -13,-260 l -6,-73 -69,0 -70,0 6,48 c 3,26 13,176 23,335 l 17,287 101,0 102,0 51,-182 z" inkscape:connector-curvature="0" id="path134" />
    <path d="m 25020,19615 0,-605 125,0 125,0 0,480 0,480 335,0 335,0 0,-2270 0,-2270 -765,0 -765,0 0,-872 c 0,-480 4,-879 8,-885 6,-10 174,-13 763,-15 l 754,-3 3,-422 2,-423 -2425,0 -2425,0 0,1685 0,1685 -125,0 -125,0 0,-1622 c 0,-893 -3,-1707 -7,-1810 l -6,-188 2681,0 2682,0 0,845 0,845 -35,0 -35,0 2,293 3,292 33,3 32,3 0,2690 0,2689 -585,0 -585,0 0,-605 z m 345,-4770 c 14,-13 25,-36 25,-50 0,-36 -42,-75 -80,-75 -38,0 -80,39 -80,75 0,36 42,75 80,75 19,0 40,-9 55,-25 z m 15,-435 0,-240 -75,0 -75,0 0,240 0,240 75,0 75,0 0,-240 z" inkscape:connector-curvature="0" id="path136" />
    <path d="m 24036,20093 c -3,-3 -6,-42 -6,-85 l 0,-78 340,0 340,0 0,79 c 0,73 -2,79 -22,85 -31,7 -644,7 -652,-1 z" inkscape:connector-curvature="0" id="path138" />
    <path d="m 17095,19989 c -241,-30 -450,-224 -500,-464 -18,-88 -19,-152 0,-238 45,-214 190,-377 400,-448 92,-31 261,-34 345,-5 147,50 271,147 343,267 87,146 106,323 53,486 -87,267 -358,438 -641,402 z m 3,-441 c 29,-101 55,-202 58,-226 4,-23 10,-44 14,-47 3,-2 15,31 25,73 10,42 39,145 65,227 l 48,150 101,3 101,3 0,-38 c 0,-21 7,-150 15,-288 8,-137 15,-271 15,-297 l 0,-48 -69,0 -69,0 -6,63 c -3,34 -9,151 -13,260 l -8,199 -38,-129 c -21,-70 -56,-185 -78,-255 l -40,-128 -59,0 -59,0 -11,43 c -7,23 -27,96 -45,162 -19,66 -43,160 -54,208 -10,49 -21,90 -24,93 -2,2 -7,-80 -11,-183 -3,-104 -9,-221 -13,-260 l -6,-73 -69,0 -70,0 6,48 c 3,26 13,176 23,335 l 17,287 101,0 102,0 51,-182 z" inkscape:connector-curvature="0" id="path140" />
    <path d="m 20165,19988 c -251,-34 -456,-232 -500,-484 -54,-313 149,-613 460,-679 242,-51 481,48 620,258 80,120 112,298 81,440 -68,306 -353,507 -661,465 z m 3,-440 c 29,-101 55,-202 58,-226 4,-23 10,-44 14,-47 3,-2 15,31 25,73 10,42 39,145 65,227 l 48,150 101,3 101,3 0,-38 c 0,-21 7,-150 15,-288 8,-137 15,-271 15,-297 l 0,-48 -69,0 -69,0 -6,63 c -3,34 -9,151 -13,260 l -8,199 -38,-129 c -21,-70 -56,-185 -78,-255 l -40,-128 -59,0 -59,0 -11,43 c -7,23 -27,96 -45,162 -19,66 -43,160 -54,208 -10,49 -21,90 -24,93 -2,2 -7,-80 -11,-183 -3,-104 -9,-221 -13,-260 l -6,-73 -69,0 -70,0 6,48 c 3,26 13,176 23,335 l 17,287 101,0 102,0 51,-182 z" inkscape:connector-curvature="0" id="path142" />
    <path d="m 27240,19755 0,-65 145,0 c 80,0 145,-2 145,-4 0,-2 -58,-118 -130,-257 -71,-140 -130,-255 -130,-256 0,-2 37,-3 83,-3 l 82,0 133,275 c 116,240 132,280 132,325 l 0,50 -230,0 -230,0 0,-65 z" inkscape:connector-curvature="0" id="path144" />
    <path d="m 23930,19625 0,-125 438,2 437,3 2,123 1,122 -439,0 -439,0 0,-125 z" inkscape:connector-curvature="0" id="path146" />
    <path d="m 23840,19195 0,-165 530,0 530,0 0,165 0,165 -530,0 -530,0 0,-165 z" inkscape:connector-curvature="0" id="path148" />
    <path d="m 9380,18565 0,-265 55,0 55,0 0,265 0,265 -55,0 -55,0 0,-265 z" inkscape:connector-curvature="0" id="path150" />
    <path d="m 11100,18735 c 0,-52 -2,-95 -5,-95 -4,0 -20,7 -37,16 -67,35 -160,-1 -198,-76 -22,-44 -27,-140 -9,-187 36,-97 153,-131 229,-67 l 30,26 0,-26 c 0,-25 3,-26 50,-26 l 50,0 0,265 0,265 -55,0 -55,0 0,-95 z m -25,-175 c 22,-24 30,-96 16,-133 -6,-15 -22,-32 -35,-38 -61,-28 -112,27 -103,108 6,55 30,83 72,83 19,0 39,-8 50,-20 z" inkscape:connector-curvature="0" id="path152" />
    <path d="m 8978,18803 -28,-4 0,-250 0,-249 55,0 55,0 0,89 0,88 63,5 c 123,10 187,67 187,166 0,111 -58,155 -210,158 -52,1 -107,0 -122,-3 z m 202,-103 c 28,-28 26,-75 -5,-105 -18,-19 -35,-25 -70,-25 l -45,0 0,75 0,75 50,0 c 37,0 55,-5 70,-20 z" inkscape:connector-curvature="0" id="path154" />
    <path d="m 24334,18791 c -22,-10 -57,-38 -76,-62 -55,-68 -483,-651 -496,-676 -20,-36 -15,-107 10,-138 43,-55 42,-55 622,-55 353,0 544,4 563,11 42,16 82,58 89,95 4,21 -1,46 -14,75 -17,39 -461,648 -515,708 -25,27 -92,61 -122,61 -11,0 -38,-9 -61,-19 z m 291,-467 214,-289 -219,-3 c -120,-1 -320,-1 -443,0 l -224,3 220,298 c 121,163 224,294 229,289 4,-4 105,-138 223,-298 z" inkscape:connector-curvature="0" id="path156" />
    <path d="m 9635,18657 c -37,-12 -40,-15 -37,-47 3,-43 5,-44 43,-31 49,17 103,14 122,-7 10,-10 17,-21 17,-24 0,-3 -24,-8 -54,-11 -132,-13 -198,-96 -151,-187 30,-59 105,-76 175,-40 34,17 40,18 40,5 0,-11 12,-15 50,-15 l 50,0 0,128 c 0,140 -11,178 -63,216 -34,25 -134,31 -192,13 z m 145,-221 c 0,-57 -76,-91 -100,-46 -22,41 12,78 73,79 24,1 27,-2 27,-33 z" inkscape:connector-curvature="0" id="path158" />
    <path d="m 10087,18655 c -80,-28 -120,-89 -121,-181 0,-72 26,-121 82,-156 30,-19 51,-23 114,-23 42,0 81,5 86,10 5,6 7,26 5,46 l -5,35 -53,-4 c -50,-4 -57,-2 -85,26 -42,43 -42,101 0,144 27,27 36,30 81,26 46,-3 50,-1 55,22 3,14 8,32 10,41 8,30 -101,39 -169,14 z" inkscape:connector-curvature="0" id="path160" />
    <path d="m 10413,18659 c -66,-19 -123,-102 -123,-179 0,-124 95,-200 235,-187 90,9 98,13 91,55 -3,19 -7,36 -8,38 -2,1 -24,-2 -50,-7 -57,-13 -121,2 -143,34 -8,12 -15,25 -15,29 0,5 54,8 120,8 l 120,0 0,50 c 0,126 -99,196 -227,159 z m 110,-87 c 35,-31 21,-42 -53,-42 -38,0 -70,3 -70,6 0,16 24,46 43,54 26,10 55,4 80,-18 z" inkscape:connector-curvature="0" id="path162" />
    <path d="m 11310,18524 c 0,-156 11,-193 65,-218 56,-27 114,-18 154,25 l 21,23 0,-27 c 0,-26 2,-27 50,-27 l 50,0 0,180 0,180 -55,0 -55,0 0,-115 c 0,-110 -1,-117 -25,-140 -29,-30 -49,-31 -75,-5 -18,18 -20,33 -20,140 l 0,120 -55,0 -55,0 0,-136 z" inkscape:connector-curvature="0" id="path164" />
    <path d="m 27365,18378 c -54,-150 -101,-279 -103,-287 -3,-7 16,3 42,23 114,86 249,82 349,-12 l 28,-27 -39,110 c -130,359 -164,451 -171,458 -4,4 -52,-115 -106,-265 z" inkscape:connector-curvature="0" id="path166" />
    <path d="m 16950,18375 0,-65 145,0 c 80,0 145,-2 145,-4 0,-3 -58,-118 -130,-258 -71,-139 -130,-254 -130,-255 0,-2 38,-3 84,-3 l 83,0 26,58 c 14,31 73,155 131,274 92,188 106,223 106,267 l 0,51 -230,0 -230,0 0,-65 z" inkscape:connector-curvature="0" id="path168" />
    <path d="m 20020,18375 0,-65 145,0 c 80,0 145,-3 145,-6 0,-4 -31,-66 -69,-138 -60,-114 -179,-347 -189,-368 -2,-5 34,-8 81,-8 l 84,0 31,68 c 17,37 76,160 131,274 88,179 101,213 101,257 l 0,51 -230,0 -230,0 0,-65 z" inkscape:connector-curvature="0" id="path170" />
    <path d="m 13475,18424 c -51,-13 -112,-36 -128,-48 -17,-13 -16,-16 3,-62 12,-27 23,-50 24,-52 2,-1 19,7 39,18 86,51 189,28 203,-45 12,-64 -31,-129 -172,-262 -122,-114 -124,-117 -124,-160 l 0,-43 230,0 230,0 0,60 0,60 -121,0 -121,0 89,88 c 110,107 138,159 138,253 0,55 -5,72 -28,107 -36,55 -94,84 -177,88 -36,2 -74,1 -85,-2 z" inkscape:connector-curvature="0" id="path172" />
    <path d="m 27426,18091 c -27,-29 -18,-83 16,-99 64,-30 118,48 68,98 -25,25 -62,26 -84,1 z" inkscape:connector-curvature="0" id="path174" />
    <path d="m 9180,17665 0,-265 55,0 55,0 0,265 0,265 -55,0 -55,0 0,-265 z" inkscape:connector-curvature="0" id="path176" />
    <path d="m 12120,17665 0,-265 55,0 55,0 0,265 0,265 -55,0 -55,0 0,-265 z" inkscape:connector-curvature="0" id="path178" />
    <path d="m 9796,17904 c -9,-8 -16,-24 -16,-35 0,-25 35,-59 60,-59 25,0 60,34 60,59 0,28 -27,51 -60,51 -16,0 -36,-7 -44,-16 z" inkscape:connector-curvature="0" id="path180" />
    <path d="m 8398,17903 -28,-4 0,-250 0,-249 55,0 55,0 0,89 0,88 63,5 c 123,10 187,67 187,166 0,111 -58,155 -210,158 -52,1 -107,0 -122,-3 z m 202,-103 c 28,-28 26,-75 -5,-105 -18,-19 -35,-25 -70,-25 l -45,0 0,75 0,75 50,0 c 37,0 55,-5 70,-20 z" inkscape:connector-curvature="0" id="path182" />
    <path d="m 10498,17903 -28,-4 0,-250 0,-249 55,0 55,0 0,100 0,100 33,0 c 55,0 73,-21 98,-115 l 22,-85 59,0 c 32,0 58,1 58,3 0,1 -11,42 -24,90 -24,88 -48,137 -66,137 -18,0 -10,19 11,25 55,18 79,137 38,189 -36,46 -75,59 -184,62 -55,1 -112,0 -127,-3 z m 204,-103 c 23,-29 23,-62 -1,-91 -14,-18 -29,-23 -67,-23 l -49,-1 -3,64 c -2,44 1,67 10,73 22,15 91,1 110,-22 z" inkscape:connector-curvature="0" id="path184" />
    <path d="m 27432,17834 c -31,-22 -30,-78 2,-99 64,-42 130,41 76,95 -24,24 -48,25 -78,4 z" inkscape:connector-curvature="0" id="path186" />
    <path d="m 8835,17757 c -37,-12 -40,-15 -37,-47 3,-43 5,-44 43,-31 49,17 103,14 122,-7 10,-10 17,-21 17,-24 0,-3 -24,-8 -54,-11 -132,-13 -198,-96 -151,-187 30,-59 105,-76 175,-40 34,17 40,18 40,5 0,-11 12,-15 50,-15 l 50,0 0,128 c 0,140 -11,178 -63,216 -34,25 -134,31 -192,13 z m 145,-221 c 0,-57 -76,-91 -100,-46 -22,41 12,78 73,79 24,1 27,-2 27,-33 z" inkscape:connector-curvature="0" id="path188" />
    <path d="m 9435,17757 c -37,-12 -40,-15 -37,-47 3,-43 5,-44 43,-31 49,17 103,14 122,-7 10,-10 17,-21 17,-24 0,-3 -24,-8 -54,-11 -132,-13 -198,-96 -151,-187 30,-59 105,-76 175,-40 34,17 40,18 40,5 0,-11 12,-15 50,-15 l 50,0 0,128 c 0,140 -11,178 -63,216 -34,25 -134,31 -192,13 z m 145,-221 c 0,-57 -76,-91 -100,-46 -22,41 12,78 73,79 24,1 27,-2 27,-33 z" inkscape:connector-curvature="0" id="path190" />
    <path d="m 10065,17763 c -53,-15 -95,-66 -95,-117 0,-36 46,-82 105,-104 95,-37 58,-90 -43,-63 -25,6 -46,10 -49,8 -2,-3 -8,-18 -13,-36 -10,-36 2,-46 68,-57 99,-16 185,24 198,92 11,59 -11,92 -85,128 -48,23 -66,37 -66,51 0,17 7,20 45,20 25,-1 51,-3 59,-5 19,-6 39,56 24,71 -12,12 -118,21 -148,12 z" inkscape:connector-curvature="0" id="path192" />
    <path d="m 10984,17746 c -66,-34 -97,-87 -98,-165 -1,-109 60,-177 168,-188 47,-5 64,-2 109,20 71,35 101,86 101,172 0,108 -62,173 -172,182 -47,4 -65,0 -108,-21 z m 135,-75 c 11,-11 23,-36 27,-55 20,-110 -54,-187 -117,-120 -20,21 -24,36 -24,86 0,53 3,62 28,84 34,29 60,31 86,5 z" inkscape:connector-curvature="0" id="path194" />
    <path d="m 11775,17757 c -37,-12 -40,-15 -37,-47 3,-43 5,-44 43,-31 49,17 103,14 122,-7 10,-10 17,-21 17,-24 0,-3 -24,-8 -54,-11 -132,-13 -198,-96 -151,-187 30,-59 105,-76 175,-40 34,17 40,18 40,5 0,-11 12,-15 50,-15 l 50,0 0,128 c 0,140 -11,178 -63,216 -34,25 -134,31 -192,13 z m 145,-221 c 0,-57 -76,-91 -100,-46 -22,41 12,78 73,79 24,1 27,-2 27,-33 z" inkscape:connector-curvature="0" id="path196" />
    <path d="m 9790,17580 0,-180 55,0 55,0 0,180 0,180 -55,0 -55,0 0,-180 z" inkscape:connector-curvature="0" id="path198" />
    <path d="m 11300,17756 c 0,-3 23,-63 51,-133 100,-250 91,-218 67,-248 -12,-15 -36,-33 -53,-41 -32,-13 -32,-13 -22,-59 11,-47 19,-51 61,-35 81,30 136,123 226,378 l 50,142 -60,0 -59,0 -15,-48 c -7,-27 -22,-84 -31,-127 l -18,-79 -36,125 -37,124 -62,3 c -34,2 -62,1 -62,-2 z" inkscape:connector-curvature="0" id="path200" />
    <path d="m 24235,17608 c -5,-27 -35,-277 -35,-298 0,-12 18,-15 88,-16 104,0 146,-18 168,-70 12,-30 12,-39 -1,-69 -25,-61 -116,-82 -218,-51 l -47,14 -10,-42 c -6,-22 -13,-47 -15,-54 -9,-26 64,-46 170,-46 85,0 107,3 147,23 143,70 182,239 79,342 -41,41 -117,69 -189,69 l -44,0 7,43 c 4,23 9,45 12,50 2,4 58,7 124,7 l 119,0 0,60 0,60 -175,0 c -173,0 -175,0 -180,-22 z" inkscape:connector-curvature="0" id="path202" />
    <path d="m 27430,17572 c -43,-35 -15,-112 41,-112 27,0 59,35 59,65 0,30 -32,65 -59,65 -10,0 -29,-8 -41,-18 z" inkscape:connector-curvature="0" id="path204" />
    <path d="m 13007,17488 c -87,-23 -123,-108 -82,-189 19,-35 470,-646 509,-688 57,-62 126,-76 195,-41 31,15 90,88 297,367 142,191 263,364 270,384 15,43 10,84 -15,119 -40,56 -32,55 -606,57 -334,1 -544,-2 -568,-9 z m 991,-166 c -7,-18 -433,-591 -440,-592 -3,0 -102,129 -219,288 -117,158 -217,293 -222,300 -7,9 82,12 438,12 245,0 445,-4 443,-8 z" inkscape:connector-curvature="0" id="path206" />
    <path d="m 27430,17312 c -43,-35 -15,-112 41,-112 27,0 59,35 59,65 0,30 -32,65 -59,65 -10,0 -29,-8 -41,-18 z" inkscape:connector-curvature="0" id="path208" />
    <path d="m 17165,17259 c -2,-8 -49,-137 -104,-287 -98,-270 -98,-272 -67,-249 118,90 225,97 335,22 28,-20 51,-34 51,-32 0,7 -200,550 -205,555 -2,3 -7,-1 -10,-9 z" inkscape:connector-curvature="0" id="path210" />
    <path d="m 20142,16992 c -56,-154 -102,-282 -102,-286 0,-3 21,10 46,29 56,43 142,70 196,61 47,-8 103,-35 146,-71 l 32,-26 -24,63 c -13,35 -58,160 -101,278 -43,118 -81,219 -85,223 -4,4 -53,-118 -108,-271 z" inkscape:connector-curvature="0" id="path212" />
    <path d="m 27442,17060 c -45,-18 -48,-79 -6,-107 48,-31 105,12 91,70 -5,18 -47,51 -60,46 -1,0 -12,-4 -25,-9 z" inkscape:connector-curvature="0" id="path214" />
    <path d="m 16228,16530 -3,-351 -620,-2 -620,-2 4,-294 c 4,-285 3,-293 -15,-283 -33,17 -495,232 -499,232 -5,0 -55,-96 -55,-105 0,-3 42,-26 93,-50 350,-164 460,-215 469,-215 6,0 8,-511 6,-1450 l -3,-1450 650,-1 c 358,-1 686,-3 730,-4 44,-1 89,0 100,2 20,4 20,11 18,1811 -1,994 -3,1966 -3,2160 l 0,352 -125,0 -125,0 -2,-350 z m -20,-610 22,0 0,-1555 0,-1555 -495,0 -495,0 0,1554 c 0,1447 1,1555 17,1558 9,2 222,2 472,1 251,-2 466,-3 479,-3 z" inkscape:connector-curvature="0" id="path216" />
    <path d="m 17892,16403 3,-478 703,-3 702,-2 1,-1663 c 1,-914 1,-1668 0,-1674 -1,-10 30,-13 128,-13 l 131,0 0,1803 0,1803 -705,-4 -705,-5 0,34 c 0,19 0,179 0,357 l 1,322 -131,0 -131,0 3,-477 z" inkscape:connector-curvature="0" id="path218" />
    <path d="m 17126,16718 c -32,-46 -6,-98 48,-98 37,0 51,12 61,52 14,57 -75,94 -109,46 z" inkscape:connector-curvature="0" id="path220" />
    <path d="m 20205,16726 c -21,-15 -25,-67 -5,-90 17,-22 73,-20 93,2 51,56 -26,133 -88,88 z" inkscape:connector-curvature="0" id="path222" />
    <path d="m 32880,16662 c -42,-21 -640,-461 -688,-506 -66,-61 -84,-141 -46,-206 12,-19 95,-88 214,-176 107,-79 263,-194 345,-255 83,-62 166,-118 185,-126 42,-18 104,-12 132,14 47,42 48,49 48,624 0,485 -2,545 -17,576 -31,67 -105,90 -173,55 z m 20,-633 c 0,-238 -2,-434 -4,-436 -2,-2 -137,95 -300,217 l -297,220 193,143 c 351,260 402,297 406,293 2,-2 3,-199 2,-437 z" inkscape:connector-curvature="0" id="path224" />
    <path d="m 31642,16033 3,-528 168,-3 167,-2 0,530 0,530 -170,0 -170,0 2,-527 z" inkscape:connector-curvature="0" id="path226" />
    <path d="m 17126,16468 c -9,-12 -16,-29 -16,-38 0,-54 71,-79 111,-39 21,21 20,59 -3,86 -18,22 -75,16 -92,-9 z" inkscape:connector-curvature="0" id="path228" />
    <path d="m 20205,16476 c -11,-8 -18,-26 -18,-46 0,-56 62,-81 103,-40 55,55 -22,132 -85,86 z" inkscape:connector-curvature="0" id="path230" />
    <path d="m 31260,16031 0,-440 123,2 122,2 3,438 2,437 -125,0 -125,0 0,-439 z" inkscape:connector-curvature="0" id="path232" />
    <path d="m 30910,16030 2,-340 84,0 84,0 0,340 0,340 -85,0 -86,0 1,-340 z" inkscape:connector-curvature="0" id="path234" />
    <path d="m 33483,16310 c -23,-5 -55,-16 -72,-25 -27,-13 -30,-20 -25,-43 8,-33 22,-72 26,-72 2,0 25,7 52,15 69,21 118,19 150,-6 66,-52 9,-119 -100,-119 l -44,0 0,-55 0,-55 49,0 c 60,0 92,-11 120,-41 28,-30 27,-71 -2,-105 -32,-37 -109,-44 -189,-17 l -58,20 -15,-55 c -14,-45 -14,-56 -3,-63 32,-21 100,-33 183,-34 79,0 97,3 148,28 76,38 111,88 111,161 0,66 -30,118 -84,143 -44,20 -49,29 -22,37 10,4 31,20 47,36 22,23 29,42 33,83 6,69 -14,108 -73,142 -50,30 -157,41 -232,25 z" inkscape:connector-curvature="0" id="path236" />
    <path d="m 17152,16239 c -53,-20 -51,-101 3,-115 58,-15 103,42 71,91 -18,27 -44,35 -74,24 z" inkscape:connector-curvature="0" id="path238" />
    <path d="m 20222,16240 c -12,-5 -27,-22 -33,-37 -22,-58 56,-108 100,-64 29,29 27,65 -5,90 -30,23 -30,23 -62,11 z" inkscape:connector-curvature="0" id="path240" />
    <path d="m 11880,14495 0,-1685 -4590,0 -4590,0 0,-3900 0,-3900 130,0 130,0 0,391 c 0,216 1,393 3,395 2,2 129,-55 282,-126 153,-72 279,-130 280,-130 5,0 47,111 44,115 -4,3 -101,49 -454,215 -49,23 -104,48 -122,56 -23,10 -33,21 -35,41 -2,16 -2,1505 0,3311 l 2,3282 4473,0 c 2459,0 4523,3 4585,7 l 112,6 0,113 0,114 338,2 337,3 3,63 3,62 -341,0 -340,0 0,1625 0,1625 -125,0 -125,0 0,-1685 z" inkscape:connector-curvature="0" id="path242" />
    <path d="m 13420,14585 c 0,-888 -4,-1595 -9,-1595 -4,0 -93,40 -197,89 -252,118 -303,141 -312,141 -12,0 -53,-103 -44,-111 4,-4 77,-40 162,-79 85,-40 198,-92 250,-116 161,-74 145,-52 148,-208 l 3,-136 124,0 125,0 0,1420 0,1420 353,2 352,3 3,63 3,62 -356,0 -355,0 0,320 0,320 -125,0 -125,0 0,-1595 z" inkscape:connector-curvature="0" id="path244" />
    <path d="m 17135,15975 c -14,-13 -25,-33 -25,-45 0,-27 35,-60 64,-60 25,0 66,41 66,67 0,19 -45,63 -65,63 -9,0 -27,-11 -40,-25 z" inkscape:connector-curvature="0" id="path246" />
    <path d="m 20205,15975 c -14,-13 -25,-31 -25,-40 0,-23 45,-65 70,-65 27,0 60,35 60,64 0,25 -41,66 -67,66 -8,0 -25,-11 -38,-25 z" inkscape:connector-curvature="0" id="path248" />
    <path d="m 17130,15728 c -11,-12 -20,-30 -20,-40 0,-23 43,-68 65,-68 9,0 27,11 40,25 14,13 25,31 25,40 0,22 -45,65 -69,65 -11,0 -29,-10 -41,-22 z" inkscape:connector-curvature="0" id="path250" />
    <path d="m 20217,15739 c -43,-25 -41,-86 4,-109 60,-33 118,51 69,100 -22,22 -46,25 -73,9 z" inkscape:connector-curvature="0" id="path252" />
    <path d="m 28740,14315 c 0,-624 -2,-1135 -4,-1135 -4,0 -530,246 -558,261 -15,8 -22,1 -43,-42 -15,-28 -25,-55 -23,-60 3,-8 92,-52 304,-149 23,-11 95,-45 160,-76 65,-31 129,-60 142,-65 l 22,-9 0,-3305 0,-3305 -4305,0 -4305,0 0,-800 0,-800 -2980,0 -2980,0 0,800 0,800 -1757,-3 -1758,-2 -3,-712 -2,-713 697,0 c 384,0 704,4 711,9 9,6 12,38 10,127 l -3,119 -25,2 c -14,0 -276,1 -582,2 l -558,1 0,455 0,455 1511,0 1511,0 -4,-795 -3,-795 3235,0 3236,0 -4,795 -4,795 4298,1 c 2365,1 4302,1 4307,0 9,-1 7,-701 10,4529 l 2,4495 1493,3 1492,2 0,125 0,125 -1620,0 -1620,0 0,-1135 z" inkscape:connector-curvature="0" id="path254" />
    <path d="m 17760,13847 c 0,-1280 0,-1294 20,-1292 11,1 23,4 26,8 11,11 82,8 89,-3 3,-5 15,-10 26,-10 10,0 19,5 19,10 0,6 18,10 40,10 l 40,0 0,1285 0,1285 -130,0 -130,0 0,-1293 z" inkscape:connector-curvature="0" id="path256" />
    <path d="m 19857,15022 c -2,-4 -4,-34 -6,-66 -3,-105 -37,-96 350,-96 l 340,0 -3,80 c -1,55 -6,81 -15,84 -21,8 -662,6 -666,-2 z" inkscape:connector-curvature="0" id="path258" />
    <path d="m 12495,14942 c -137,-41 -251,-77 -253,-78 -4,-3 86,-305 93,-312 3,-3 103,24 222,59 l 217,65 215,-68 c 118,-37 217,-65 219,-63 5,5 102,309 99,312 -10,9 -521,163 -539,162 -13,-1 -135,-35 -273,-77 z" inkscape:connector-curvature="0" id="path260" />
    <path d="m 14070,14941 c -184,-56 -255,-81 -254,-92 3,-42 89,-299 99,-299 7,0 102,27 211,60 109,33 207,60 218,60 12,0 113,-29 226,-64 113,-36 208,-62 211,-58 7,8 99,305 96,309 -8,7 -519,163 -534,162 -10,0 -133,-35 -273,-78 z" inkscape:connector-curvature="0" id="path262" />
    <path d="m 18350,14950 c -18,-38 -31,-72 -28,-76 12,-11 320,-154 333,-154 14,0 66,23 218,94 55,25 103,46 108,46 5,0 9,6 9,14 0,14 -59,146 -65,146 -2,0 -63,-27 -136,-60 l -132,-59 -129,59 c -72,33 -133,60 -137,60 -4,0 -22,-31 -41,-70 z" inkscape:connector-curvature="0" id="path264" />
    <path d="m 18300,14658 c -45,-104 -76,-204 -66,-210 6,-3 104,-40 217,-82 l 206,-76 209,76 c 115,42 213,80 217,84 7,6 -63,214 -77,227 -3,4 -83,-22 -176,-56 -195,-71 -154,-72 -374,10 -70,27 -132,49 -137,49 -5,0 -14,-10 -19,-22 z" inkscape:connector-curvature="0" id="path266" />
    <path d="m 19760,14555 0,-125 435,0 435,0 0,125 0,125 -435,0 -435,0 0,-125 z" inkscape:connector-curvature="0" id="path268" />
    <path d="m 32350,14545 c 0,-52 -2,-95 -5,-95 -4,0 -20,7 -37,16 -67,35 -160,-1 -198,-76 -22,-44 -27,-140 -9,-187 36,-97 153,-131 229,-67 l 30,26 0,-26 c 0,-25 3,-26 50,-26 l 50,0 0,265 0,265 -55,0 -55,0 0,-95 z m -25,-175 c 22,-24 30,-96 16,-133 -6,-15 -22,-32 -35,-38 -61,-28 -112,27 -103,108 6,55 30,83 72,83 19,0 39,-8 50,-20 z" inkscape:connector-curvature="0" id="path270" />
    <path d="m 31311,14578 -30,-53 37,-3 c 33,-3 41,1 79,45 24,26 43,51 43,56 0,4 -22,7 -49,7 -49,0 -50,0 -80,-52 z" inkscape:connector-curvature="0" id="path272" />
    <path d="m 12550,14471 c -146,-55 -204,-81 -202,-92 3,-16 73,-212 77,-217 2,-2 81,25 177,60 l 174,64 173,-64 c 95,-35 174,-62 176,-60 11,13 82,224 77,230 -11,11 -414,158 -431,157 -9,-1 -108,-36 -221,-78 z" inkscape:connector-curvature="0" id="path274" />
    <path d="m 14120,14471 c -113,-42 -205,-80 -204,-84 2,-20 80,-227 85,-227 3,0 82,28 176,63 l 170,63 169,-63 c 93,-34 171,-63 174,-63 6,0 93,230 88,234 -14,10 -426,156 -438,155 -8,-1 -107,-36 -220,-78 z" inkscape:connector-curvature="0" id="path276" />
    <path d="m 29897,14456 c -38,-26 -39,-26 -44,-6 -4,16 -14,20 -49,20 l -44,0 0,-180 0,-180 55,0 55,0 0,120 c 0,107 2,122 20,140 11,11 27,20 35,20 8,0 24,-9 35,-20 18,-18 20,-33 20,-140 l 0,-120 55,0 55,0 0,120 c 0,107 2,122 20,140 11,11 27,20 35,20 8,0 24,-9 35,-20 18,-18 20,-33 20,-140 l 0,-120 55,0 55,0 0,123 c 0,67 -4,137 -10,156 -13,46 -46,79 -87,87 -44,8 -75,-1 -112,-32 l -31,-25 -23,26 c -34,41 -100,45 -150,11 z" inkscape:connector-curvature="0" id="path278" />
    <path d="m 30915,14473 c -53,-15 -95,-66 -95,-117 0,-36 46,-82 105,-104 95,-37 58,-90 -43,-63 -25,6 -46,10 -49,8 -2,-3 -8,-18 -13,-36 -10,-36 2,-46 68,-57 99,-16 185,24 198,92 11,59 -11,92 -85,128 -48,23 -66,37 -66,51 0,17 7,20 45,20 25,-1 51,-3 59,-5 19,-6 39,56 24,71 -12,12 -118,21 -148,12 z" inkscape:connector-curvature="0" id="path280" />
    <path d="m 31263,14469 c -66,-19 -123,-102 -123,-179 0,-124 95,-200 235,-187 90,9 98,13 91,55 -3,19 -7,36 -8,38 -2,1 -24,-2 -50,-7 -57,-13 -121,2 -143,34 -8,12 -15,25 -15,29 0,5 54,8 120,8 l 120,0 0,50 c 0,126 -99,196 -227,159 z m 110,-87 c 35,-31 21,-42 -53,-42 -38,0 -70,3 -70,6 0,16 24,46 43,54 26,10 55,4 80,-18 z" inkscape:connector-curvature="0" id="path282" />
    <path d="m 31653,14469 c -66,-19 -123,-102 -123,-179 0,-124 95,-200 235,-187 90,9 98,13 91,55 -3,19 -7,36 -8,38 -2,1 -24,-2 -50,-7 -57,-13 -121,2 -143,34 -8,12 -15,25 -15,29 0,5 54,8 120,8 l 120,0 0,50 c 0,126 -99,196 -227,159 z m 110,-87 c 35,-31 21,-42 -53,-42 -38,0 -70,3 -70,6 0,16 24,46 43,54 26,10 55,4 80,-18 z" inkscape:connector-curvature="0" id="path284" />
    <path d="m 30400,14334 c 0,-156 11,-193 65,-218 56,-27 114,-18 154,25 l 21,23 0,-27 c 0,-26 2,-27 50,-27 l 50,0 0,180 0,180 -55,0 -55,0 0,-115 c 0,-110 -1,-117 -25,-140 -29,-30 -49,-31 -75,-5 -18,18 -20,33 -20,140 l 0,120 -55,0 -55,0 0,-136 z" inkscape:connector-curvature="0" id="path286" />
    <path d="m 32560,14334 c 0,-156 11,-193 65,-218 56,-27 114,-18 154,25 l 21,23 0,-27 c 0,-26 2,-27 50,-27 l 50,0 0,180 0,180 -55,0 -55,0 0,-115 c 0,-110 -1,-117 -25,-140 -29,-30 -49,-31 -75,-5 -18,18 -20,33 -20,140 l 0,120 -55,0 -55,0 0,-136 z" inkscape:connector-curvature="0" id="path288" />
    <path d="m 18187,14188 c -52,-166 -61,-198 -56,-202 2,-2 122,-41 265,-86 l 262,-81 258,77 c 143,43 263,81 268,85 7,6 -74,302 -86,314 -2,2 -101,-26 -221,-62 l -217,-65 -213,66 c -116,36 -215,66 -219,66 -3,0 -22,-51 -41,-112 z" inkscape:connector-curvature="0" id="path290" />
    <path d="m 19673,14293 c -10,-3 -13,-47 -13,-169 l 0,-164 535,0 535,0 -2,168 -3,167 -520,2 c -286,1 -526,-1 -532,-4 z" inkscape:connector-curvature="0" id="path292" />
    <path d="m 12610,14053 c -91,-41 -167,-76 -169,-79 -3,-3 54,-139 64,-152 2,-2 55,22 119,52 64,30 125,57 136,61 12,4 66,-16 151,-55 73,-33 134,-59 136,-56 2,2 19,36 38,75 l 35,72 -53,24 c -28,12 -97,44 -152,70 -55,26 -109,50 -120,55 -15,6 -63,-12 -185,-67 z" inkscape:connector-curvature="0" id="path294" />
    <path d="m 14180,14054 c -91,-42 -167,-78 -169,-80 -3,-3 11,-37 29,-77 19,-39 35,-73 36,-75 0,-1 62,26 136,59 l 136,62 133,-62 c 73,-33 136,-58 139,-54 4,5 21,39 38,76 l 32,68 -63,29 c -34,15 -111,51 -171,79 -60,28 -109,51 -110,51 -1,-1 -75,-35 -166,-76 z" inkscape:connector-curvature="0" id="path296" />
    <path d="m 26502,14085 c -61,-19 -106,-57 -133,-112 l -24,-48 0,-470 0,-470 24,-53 c 28,-61 75,-107 128,-122 26,-8 155,-10 398,-8 l 360,3 47,28 c 54,32 97,95 105,157 l 6,40 328,0 329,0 0,59 c 0,41 -4,60 -14,64 -8,3 -156,5 -330,4 l -315,-2 -3,390 c -3,378 -4,391 -25,430 -29,55 -70,91 -122,110 -59,21 -692,21 -759,0 z m 420,-182 c 17,-15 18,-40 18,-372 l 0,-356 76,78 c 81,83 107,94 144,57 41,-41 36,-50 -160,-259 l -125,-133 -35,39 c -19,22 -86,94 -147,161 -119,128 -132,154 -96,194 32,36 63,23 139,-57 39,-41 74,-75 77,-75 4,0 7,159 7,354 0,309 2,357 16,370 20,21 63,20 86,-1 z m -164,-262 c 8,-5 12,-21 10,-37 l -3,-29 -175,0 -175,0 -3,29 c -2,16 2,32 10,37 7,5 83,9 168,9 85,0 161,-4 168,-9 z m 586,-13 c 8,-13 8,-23 0,-35 -10,-16 -32,-18 -174,-21 -167,-3 -190,2 -190,37 0,38 19,42 189,39 143,-3 165,-5 175,-20 z" inkscape:connector-curvature="0" id="path298" />
    <path d="m 30220,13465 0,-255 155,0 155,0 0,45 0,44 -97,3 -98,3 -3,208 -2,207 -55,0 -55,0 0,-255 z" inkscape:connector-curvature="0" id="path300" />
    <path d="m 30664,13556 c -66,-34 -97,-87 -98,-165 -1,-109 60,-177 168,-188 47,-5 64,-2 109,20 71,35 101,86 101,172 0,108 -62,173 -172,182 -47,4 -65,0 -108,-21 z m 135,-75 c 11,-11 23,-36 27,-55 20,-110 -54,-187 -117,-120 -20,21 -24,36 -24,86 0,53 3,62 28,84 34,29 60,31 86,5 z" inkscape:connector-curvature="0" id="path302" />
    <path d="m 32015,13569 c -11,-6 -30,-23 -42,-38 l -23,-26 0,33 c 0,32 0,32 -51,32 -48,0 -51,-1 -45,-22 3,-13 6,-94 6,-180 l 0,-158 55,0 55,0 0,110 c 0,127 12,150 75,150 l 35,0 0,55 c 0,50 -2,55 -22,55 -13,0 -32,-5 -43,-11 z" inkscape:connector-curvature="0" id="path304" />
    <path d="m 32233,13569 c -66,-19 -123,-102 -123,-179 0,-124 95,-200 235,-187 90,9 98,13 91,55 -3,19 -7,36 -8,38 -2,1 -24,-2 -50,-7 -57,-13 -121,2 -143,34 -8,12 -15,25 -15,29 0,5 54,8 120,8 l 120,0 0,50 c 0,126 -99,196 -227,159 z m 110,-87 c 35,-31 21,-42 -53,-42 -38,0 -70,3 -70,6 0,16 24,46 43,54 26,10 55,4 80,-18 z" inkscape:connector-curvature="0" id="path306" />
    <path d="m 31030,13434 c 0,-156 11,-193 65,-218 56,-27 114,-18 154,25 l 21,23 0,-27 c 0,-26 2,-27 50,-27 l 50,0 0,180 0,180 -55,0 -55,0 0,-115 c 0,-110 -1,-117 -25,-140 -29,-30 -49,-31 -75,-5 -18,18 -20,33 -20,140 l 0,120 -55,0 -55,0 0,-136 z" inkscape:connector-curvature="0" id="path308" />
    <path d="m 31420,13563 c 0,-5 29,-84 64,-178 l 64,-170 59,0 58,0 66,175 66,175 -54,3 c -31,2 -58,1 -61,-3 -3,-3 -20,-58 -37,-122 -32,-117 -36,-123 -49,-68 -4,17 -19,67 -32,113 l -25,82 -60,0 c -32,0 -59,-3 -59,-7 z" inkscape:connector-curvature="0" id="path310" />
    <path d="m 16550,12680 c 0,-131 0,-131 23,-128 21,3 22,6 22,128 0,122 -1,125 -22,128 -23,3 -23,3 -23,-128 z" inkscape:connector-curvature="0" id="path312" />
    <path d="m 16682,12683 c 3,-120 4,-128 23,-128 19,0 20,8 23,128 l 3,127 -26,0 -26,0 3,-127 z" inkscape:connector-curvature="0" id="path314" />
    <path d="m 16822,12683 c 3,-120 4,-128 23,-128 19,0 20,7 20,125 0,123 0,125 -23,128 l -23,3 3,-128 z" inkscape:connector-curvature="0" id="path316" />
    <path d="m 16952,12683 c 3,-124 4,-128 26,-131 22,-3 22,-3 22,127 l 0,131 -25,0 -26,0 3,-127 z" inkscape:connector-curvature="0" id="path318" />
    <path d="m 17084,12797 c -2,-7 -3,-65 -2,-128 3,-110 4,-114 26,-117 22,-3 22,-3 22,127 0,125 -1,131 -20,131 -11,0 -23,-6 -26,-13 z" inkscape:connector-curvature="0" id="path320" />
    <path d="m 17220,12679 c 0,-130 0,-130 23,-127 21,3 22,7 25,131 l 3,127 -26,0 -25,0 0,-131 z" inkscape:connector-curvature="0" id="path322" />
    <path d="m 17354,12797 c -2,-7 -3,-65 -2,-128 3,-110 4,-114 26,-115 22,-1 22,0 22,127 0,123 -1,129 -20,129 -11,0 -23,-6 -26,-13 z" inkscape:connector-curvature="0" id="path324" />
    <path d="m 17490,12679 c 0,-130 0,-130 23,-127 21,3 22,7 25,131 l 3,127 -26,0 -25,0 0,-131 z" inkscape:connector-curvature="0" id="path326" />
    <path d="m 17624,12797 c -2,-7 -3,-64 -2,-127 3,-109 4,-113 26,-116 22,-4 22,-3 22,126 0,124 -1,130 -20,130 -11,0 -23,-6 -26,-13 z" inkscape:connector-curvature="0" id="path328" />
    <path d="m 6266,12152 c -3,-3 -6,-243 -6,-534 l 0,-528 165,0 165,0 0,535 0,536 -159,-2 c -88,0 -162,-3 -165,-7 z" inkscape:connector-curvature="0" id="path330" />
    <path d="m 23417,12146 c -4,-9 -7,-250 -7,-536 l 0,-520 170,0 170,0 -2,533 -3,532 -161,3 c -138,3 -162,1 -167,-12 z" inkscape:connector-curvature="0" id="path332" />
    <path d="m 5870,11625 0,-435 125,0 125,0 0,435 0,435 -125,0 -125,0 0,-435 z" inkscape:connector-curvature="0" id="path334" />
    <path d="m 23020,11625 -1,-435 131,0 130,0 0,435 0,435 -129,0 -130,0 -1,-435 z" inkscape:connector-curvature="0" id="path336" />
    <path d="m 5530,11620 0,-340 80,0 c 74,0 80,2 85,23 3,12 5,164 3,337 l -3,315 -82,3 -83,3 0,-341 z" inkscape:connector-curvature="0" id="path338" />
    <path d="m 22680,11620 0,-340 85,0 85,0 0,340 0,340 -85,0 -85,0 0,-340 z" inkscape:connector-curvature="0" id="path340" />
    <path d="m 5502,10665 c -172,-38 -288,-133 -345,-283 -21,-55 -22,-72 -25,-602 -2,-385 0,-563 8,-605 20,-102 58,-182 118,-247 60,-65 120,-100 209,-123 50,-13 1121,-15 9143,-15 8016,0 9092,2 9148,15 202,48 327,182 353,380 6,50 9,271 7,590 l -3,510 -28,79 c -64,181 -173,277 -347,305 -45,8 -2869,11 -9120,10 -7615,0 -9065,-3 -9118,-14 z m 4516,-172 c 3,-42 2,-43 -27,-43 -38,0 -61,-23 -61,-61 0,-27 3,-29 35,-29 35,0 35,0 35,-45 0,-45 0,-45 -35,-45 l -35,0 0,-135 0,-135 -60,0 -60,0 0,135 0,135 -25,0 c -23,0 -25,4 -25,45 0,41 2,45 25,45 22,0 25,5 25,33 0,45 29,98 70,125 27,18 45,22 85,20 l 50,-3 3,-42 z m -338,31 c 0,-3 -19,-29 -42,-59 -40,-50 -46,-54 -85,-54 -24,-1 -43,1 -43,4 0,3 16,30 35,60 35,55 35,55 85,55 27,0 50,-3 50,-6 z m -3758,-31 c 35,-32 23,-63 -59,-145 l -78,-78 149,0 c 125,0 152,-3 168,-17 22,-20 23,-61 1,-85 -14,-16 -34,-18 -167,-18 l -151,0 78,-78 c 81,-82 92,-108 60,-144 -36,-40 -66,-25 -195,95 -67,61 -140,129 -162,150 l -41,37 41,38 c 22,20 95,88 162,150 128,118 154,131 194,95 z m 2138,-188 0,-204 98,-3 97,-3 3,-47 3,-48 -160,0 -161,0 0,255 0,255 60,0 60,0 0,-205 z m 1090,194 c 62,-13 126,-61 154,-114 12,-23 22,-66 24,-103 8,-124 -40,-215 -136,-260 -52,-24 -68,-26 -182,-27 l -125,0 -3,252 -2,252 22,4 c 47,9 199,7 248,-4 z m -2120,-148 c 45,-23 76,-69 84,-124 12,-76 10,-77 -125,-77 -76,0 -119,-4 -119,-10 0,-6 12,-22 26,-36 24,-24 30,-26 105,-22 75,3 80,2 85,-19 14,-56 -7,-70 -112,-72 -76,-1 -120,13 -162,52 -67,64 -69,197 -4,271 47,52 158,71 222,37 z m 370,-36 0,-55 -34,0 c -25,0 -40,-7 -55,-26 -18,-23 -21,-41 -21,-130 l 0,-104 -60,0 -60,0 0,180 0,180 50,0 c 47,0 50,-2 50,-25 0,-32 2,-31 38,5 21,20 40,30 61,30 31,0 31,0 31,-55 z m 275,45 c 25,-9 27,-14 20,-48 -4,-20 -8,-38 -8,-39 -1,-1 -21,4 -45,10 -30,8 -48,8 -59,1 -32,-20 -25,-34 32,-59 74,-33 105,-67 105,-115 0,-93 -115,-145 -242,-109 -42,11 -42,10 -28,60 l 10,37 38,-14 c 49,-17 87,-17 102,1 17,20 5,33 -54,59 -29,13 -62,36 -74,51 -42,54 -17,130 52,161 37,16 114,18 151,4 z m 880,-6 c 61,-29 69,-53 75,-212 l 5,-142 -52,0 c -40,0 -53,4 -53,15 0,12 -7,11 -40,-6 -59,-31 -124,-22 -163,21 -26,29 -29,38 -24,83 3,41 11,56 35,78 33,30 88,49 140,49 40,0 44,25 6,42 -19,9 -39,9 -82,0 -30,-6 -57,-10 -60,-8 -2,3 -5,19 -5,38 -2,29 2,34 33,45 50,17 146,16 185,-3 z m 1085,-3 c 45,-23 76,-69 84,-124 12,-76 10,-77 -125,-77 -76,0 -119,-4 -119,-10 0,-6 12,-22 26,-36 24,-24 30,-26 105,-22 75,3 80,2 85,-19 14,-56 -7,-70 -112,-72 -76,-1 -120,13 -162,52 -67,64 -69,197 -4,271 47,52 158,71 222,37 z m 640,0 c 45,-23 76,-69 84,-124 12,-76 10,-77 -125,-77 -76,0 -119,-4 -119,-10 0,-6 12,-22 26,-36 24,-24 30,-26 105,-22 75,3 80,2 85,-19 14,-56 -7,-70 -112,-72 -76,-1 -120,13 -162,52 -67,64 -69,197 -4,271 47,52 158,71 222,37 z m 440,3 c 53,-32 64,-66 68,-216 l 4,-138 -60,0 -60,0 -4,126 c -3,111 -5,127 -22,140 -26,19 -39,18 -70,-7 -25,-20 -26,-23 -26,-140 l 0,-119 -60,0 -60,0 0,180 0,180 49,0 c 40,0 51,-4 56,-19 6,-19 7,-19 42,5 42,28 102,32 143,8 z m 365,6 c 25,-9 27,-14 20,-48 -4,-20 -8,-38 -8,-39 -1,-1 -21,4 -45,10 -30,8 -48,8 -59,1 -32,-20 -25,-34 32,-59 74,-33 105,-67 105,-115 0,-93 -115,-145 -242,-109 -42,11 -42,10 -28,60 l 10,37 38,-14 c 49,-17 87,-17 102,1 17,20 5,33 -54,59 -29,13 -62,36 -74,51 -42,54 -17,130 52,161 37,16 114,18 151,4 z m 365,-9 c 45,-23 76,-69 84,-124 12,-76 10,-77 -125,-77 -76,0 -119,-4 -119,-10 0,-6 12,-22 26,-36 24,-24 30,-26 105,-22 75,3 80,2 85,-19 14,-56 -7,-70 -112,-72 -76,-1 -120,13 -162,52 -67,64 -69,197 -4,271 47,52 158,71 222,37 z m -4934,-106 c 18,-60 33,-112 34,-115 1,-3 16,47 34,110 l 32,115 63,3 c 35,2 61,-1 60,-6 -2,-5 -33,-87 -69,-181 l -65,-172 -60,3 -60,3 -62,165 c -34,91 -62,171 -62,178 -1,10 15,12 61,10 l 61,-3 33,-110 z m 9019,40 c 117,-24 221,-83 303,-169 115,-121 165,-243 166,-401 1,-143 -33,-248 -117,-362 -208,-281 -628,-313 -879,-68 -115,112 -167,230 -175,395 -9,183 40,313 167,441 145,147 336,206 535,164 z m -1667,-437 c 29,-101 55,-202 58,-226 4,-23 10,-44 14,-47 3,-2 15,31 25,73 10,42 39,145 65,227 l 48,150 101,3 101,3 0,-38 c 0,-21 7,-150 15,-288 8,-137 15,-271 15,-297 l 0,-48 -69,0 -69,0 -6,63 c -3,34 -9,151 -13,260 l -8,199 -38,-129 c -21,-70 -56,-185 -78,-255 l -40,-128 -59,0 -59,0 -11,43 c -7,23 -27,96 -45,162 -19,66 -43,160 -54,208 -10,49 -21,90 -24,93 -2,2 -7,-80 -11,-183 -3,-104 -9,-221 -13,-260 l -6,-73 -69,0 -70,0 6,48 c 3,26 13,176 23,335 l 17,287 101,0 102,0 51,-182 z m 6210,-346 c 43,-56 -37,-123 -90,-75 -44,39 -2,111 57,96 11,-3 26,-12 33,-21 z m -446,-62 c 10,-36 34,-122 52,-191 l 32,-126 55,191 54,191 63,3 c 57,3 63,1 58,-15 -3,-10 -41,-124 -84,-253 l -79,-235 -69,-3 -69,-3 -78,248 c -43,136 -78,252 -77,256 0,4 28,7 62,5 l 61,-3 19,-65 z m 3886,-39 c 53,-49 128,-118 165,-152 l 68,-64 -158,-146 c -87,-80 -169,-149 -181,-153 -36,-12 -72,17 -72,58 0,28 11,44 73,105 l 72,71 -140,0 c -160,0 -185,8 -185,62 0,62 16,68 181,68 l 149,0 -76,73 c -61,58 -76,79 -76,102 0,32 32,65 63,65 11,0 63,-40 117,-89 z m -4878,-50 c 45,-23 76,-69 84,-124 12,-76 10,-77 -125,-77 -76,0 -119,-4 -119,-10 0,-6 12,-22 26,-36 24,-24 30,-26 105,-22 75,3 80,2 85,-19 14,-56 -7,-70 -112,-72 -76,-1 -120,13 -162,52 -67,64 -69,197 -4,271 47,52 158,71 222,37 z m 370,-36 0,-55 -34,0 c -25,0 -40,-7 -55,-26 -18,-23 -21,-41 -21,-130 l 0,-104 -60,0 -60,0 0,180 0,180 50,0 c 47,0 50,-2 50,-25 0,-32 2,-31 38,5 21,20 40,30 61,30 31,0 31,0 31,-55 z m 275,45 c 25,-9 27,-14 20,-48 -4,-20 -8,-38 -8,-39 -1,-1 -21,4 -45,10 -30,8 -48,8 -59,1 -32,-20 -25,-34 32,-59 74,-33 105,-67 105,-115 0,-93 -115,-145 -242,-109 -42,11 -42,10 -28,60 l 10,37 38,-14 c 49,-17 87,-17 102,1 17,20 5,33 -54,59 -29,13 -62,36 -74,51 -42,54 -17,130 52,161 37,16 114,18 151,4 z m 1185,-6 c 53,-32 64,-66 68,-216 l 4,-138 -60,0 -60,0 -4,126 c -3,111 -5,127 -22,140 -26,19 -39,18 -70,-7 -25,-20 -26,-23 -26,-140 l 0,-119 -60,0 -60,0 0,180 0,180 49,0 c 40,0 51,-4 56,-19 6,-19 7,-19 42,5 42,28 102,32 143,8 z m 425,5 c 3,-3 2,-23 -3,-45 l -8,-38 -50,3 c -62,3 -100,-23 -110,-75 -14,-76 41,-131 121,-120 l 43,5 6,-41 c 4,-22 5,-43 2,-45 -12,-12 -136,-15 -169,-4 -103,34 -154,147 -112,249 36,85 104,124 207,120 37,-2 69,-6 73,-9 z m 305,-8 c 45,-23 76,-69 84,-124 12,-76 10,-77 -125,-77 -76,0 -119,-4 -119,-10 0,-6 12,-22 26,-36 24,-24 30,-26 105,-22 75,3 80,2 85,-19 14,-56 -7,-70 -112,-72 -76,-1 -120,13 -162,52 -67,64 -69,197 -4,271 47,52 158,71 222,37 z m 430,3 c 53,-32 64,-66 68,-216 l 4,-138 -60,0 -60,0 -4,126 c -3,111 -5,127 -22,140 -26,19 -39,18 -70,-7 -25,-20 -26,-23 -26,-140 l 0,-119 -60,0 -60,0 0,180 0,180 49,0 c 40,0 51,-4 56,-19 6,-19 7,-19 42,5 42,28 102,32 143,8 z m 440,0 c 53,-32 64,-66 68,-216 l 4,-138 -60,0 -60,0 -4,126 c -3,111 -5,127 -22,140 -26,19 -39,18 -70,-7 -25,-20 -26,-23 -26,-140 l 0,-119 -60,0 -60,0 0,180 0,180 49,0 c 40,0 51,-4 56,-19 6,-19 7,-19 42,5 42,28 102,32 143,8 z m 400,-3 c 45,-23 76,-69 84,-124 12,-76 10,-77 -125,-77 -76,0 -119,-4 -119,-10 0,-6 12,-22 26,-36 24,-24 30,-26 105,-22 75,3 80,2 85,-19 14,-56 -7,-70 -112,-72 -76,-1 -120,13 -162,52 -67,64 -69,197 -4,271 47,52 158,71 222,37 z m 365,9 c 25,-9 27,-14 20,-48 -4,-20 -8,-38 -8,-39 -1,-1 -21,4 -45,10 -30,8 -48,8 -59,1 -32,-20 -25,-34 32,-59 74,-33 105,-67 105,-115 0,-93 -115,-145 -242,-109 -42,11 -42,10 -28,60 l 10,37 38,-14 c 49,-17 87,-17 102,1 17,20 5,33 -54,59 -29,13 -62,36 -74,51 -42,54 -17,130 52,161 37,16 114,18 151,4 z m -4709,-115 c 18,-60 33,-112 34,-115 1,-3 16,47 34,110 l 32,115 63,3 c 35,2 61,-1 60,-6 -2,-5 -33,-87 -69,-181 l -65,-172 -60,3 -60,3 -62,165 c -34,91 -62,171 -62,178 -1,10 15,12 61,10 l 61,-3 33,-110 z m 1964,-65 0,-180 -60,0 -60,0 0,180 0,180 60,0 60,0 0,-180 z" inkscape:connector-curvature="0" id="path342" />
    <path d="m 9000,10250 0,-173 57,6 c 68,7 100,28 131,88 18,33 22,56 19,94 -7,101 -51,146 -147,153 l -60,4 0,-172 z" inkscape:connector-curvature="0" id="path344" />
    <path d="m 6890,10270 c -33,-33 -24,-40 50,-40 39,0 70,3 70,8 0,4 -7,18 -16,30 -20,29 -76,30 -104,2 z" inkscape:connector-curvature="0" id="path346" />
    <path d="m 8453,10160 c -19,-8 -43,-38 -43,-54 0,-12 33,-36 51,-36 29,0 59,36 59,70 0,25 -4,30 -22,29 -13,0 -33,-4 -45,-9 z" inkscape:connector-curvature="0" id="path348" />
    <path d="m 9500,10270 c -33,-33 -24,-40 50,-40 39,0 70,3 70,8 0,4 -7,18 -16,30 -20,29 -76,30 -104,2 z" inkscape:connector-curvature="0" id="path350" />
    <path d="m 10140,10270 c -33,-33 -24,-40 50,-40 39,0 70,3 70,8 0,4 -7,18 -16,30 -20,29 -76,30 -104,2 z" inkscape:connector-curvature="0" id="path352" />
    <path d="m 11310,10270 c -33,-33 -24,-40 50,-40 39,0 70,3 70,8 0,4 -7,18 -16,30 -20,29 -76,30 -104,2 z" inkscape:connector-curvature="0" id="path354" />
    <path d="m 15301,9970 c -74,-35 -83,-42 -78,-62 3,-13 9,-39 12,-59 l 7,-37 61,28 62,28 3,-254 2,-254 75,0 75,0 0,325 0,325 -67,0 c -58,-1 -80,-6 -152,-40 z" inkscape:connector-curvature="0" id="path356" />
    <path d="m 18500,9270 c -33,-33 -24,-40 50,-40 39,0 70,3 70,8 0,4 -7,18 -16,30 -20,29 -76,30 -104,2 z" inkscape:connector-curvature="0" id="path358" />
    <path d="m 21060,9270 c -33,-33 -24,-40 50,-40 39,0 70,3 70,8 0,4 -7,18 -16,30 -20,29 -76,30 -104,2 z" inkscape:connector-curvature="0" id="path360" />
    <path d="m 22330,9270 c -33,-33 -24,-40 50,-40 39,0 70,3 70,8 0,4 -7,18 -16,30 -20,29 -76,30 -104,2 z" inkscape:connector-curvature="0" id="path362" />
    <path d="m 6260,7605 0,-534 165,0 165,0 0,535 0,534 -165,0 -165,0 0,-535 z" inkscape:connector-curvature="0" id="path364" />
    <path d="m 23410,7618 c 0,-288 4,-529 9,-536 6,-10 44,-12 167,-10 l 159,3 3,533 2,532 -170,0 -170,0 0,-522 z" inkscape:connector-curvature="0" id="path366" />
    <path d="m 5870,7605 0,-435 125,0 125,0 0,435 0,435 -125,0 -125,0 0,-435 z" inkscape:connector-curvature="0" id="path368" />
    <path d="m 23027,8034 c -4,-4 -7,-200 -7,-435 l 0,-429 130,0 130,0 -2,433 -3,432 -121,3 c -66,1 -123,0 -127,-4 z" inkscape:connector-curvature="0" id="path370" />
    <path d="m 8520,7895 0,-125 235,0 235,0 0,-340 0,-340 60,0 60,0 0,340 0,340 1400,0 1400,0 0,125 0,125 -1695,0 -1695,0 0,-125 z" inkscape:connector-curvature="0" id="path372" />
    <path d="m 5530,7610 0,-340 85,0 85,0 -2,338 -3,337 -82,3 -83,3 0,-341 z" inkscape:connector-curvature="0" id="path374" />
    <path d="m 22680,7610 0,-340 85,0 85,0 0,340 0,340 -85,0 -85,0 0,-340 z" inkscape:connector-curvature="0" id="path376" />
    <path d="m 10822,7591 c -66,-23 -117,-70 -137,-129 -22,-67 -22,-699 0,-763 21,-59 59,-105 108,-132 42,-22 44,-22 517,-22 519,0 521,0 587,58 71,63 73,70 73,461 0,239 -4,361 -12,388 -6,22 -29,59 -50,83 -65,74 -73,75 -587,75 -406,-1 -451,-2 -499,-19 z m 361,-54 c 16,-11 17,-31 15,-176 -3,-143 -5,-165 -20,-175 -13,-8 -23,-8 -35,0 -16,10 -18,32 -21,175 -2,145 -1,165 15,176 9,7 20,13 23,13 3,0 14,-6 23,-13 z m 446,-256 c 51,-47 122,-113 158,-146 l 65,-60 -158,-145 c -125,-116 -163,-146 -189,-148 -39,-4 -65,19 -65,56 0,20 18,44 78,99 l 77,73 -350,0 c -393,0 -395,0 -395,65 0,65 2,65 395,65 l 350,0 -77,73 c -92,86 -102,122 -43,155 32,18 54,5 154,-87 z m -441,-323 c 8,-8 12,-61 12,-175 0,-152 -1,-163 -20,-173 -14,-8 -26,-8 -40,0 -19,10 -20,21 -20,170 0,87 3,165 6,174 7,19 45,21 62,4 z" inkscape:connector-curvature="0" id="path378" />
    <path d="m 9261,6981 c -17,-36 -82,-175 -144,-309 l -113,-242 -1817,0 -1817,0 2,-698 3,-697 125,0 125,0 3,570 2,570 1753,-2 c 963,-2 1755,-3 1760,-3 4,0 7,-205 7,-455 0,-357 -3,-455 -12,-455 -7,0 -268,0 -580,0 l -568,0 0,-130 0,-130 710,0 710,0 0,715 0,715 -130,0 c -72,0 -130,4 -130,9 0,5 25,62 56,126 140,296 194,419 190,430 -2,6 -26,21 -54,32 l -49,21 -32,-67 z" inkscape:connector-curvature="0" id="path380" />
    <path d="m 15933,6453 -353,-3 0,-109 c 0,-60 3,-116 6,-125 5,-14 48,-16 375,-16 l 370,0 -3,128 c -3,119 -4,127 -23,127 -11,0 -179,-1 -372,-2 z" inkscape:connector-curvature="0" id="path382" />
    <path d="m 16410,6325 0,-125 25,0 25,0 0,125 0,125 -25,0 -25,0 0,-125 z" inkscape:connector-curvature="0" id="path384" />
    <path d="m 16550,6325 c 0,-125 0,-126 23,-123 21,3 22,6 22,123 0,117 -1,120 -22,123 -23,3 -23,2 -23,-123 z" inkscape:connector-curvature="0" id="path386" />
    <path d="m 16680,6325 0,-125 25,0 25,0 0,125 0,125 -25,0 -25,0 0,-125 z" inkscape:connector-curvature="0" id="path388" />
    <path d="m 16820,6325 c 0,-125 0,-125 24,-125 23,0 23,1 24,125 l 1,125 -24,0 -25,0 0,-125 z" inkscape:connector-curvature="0" id="path390" />
    <path d="m 16950,6325 0,-125 25,0 25,0 0,125 0,125 -25,0 -25,0 0,-125 z" inkscape:connector-curvature="0" id="path392" />
    <path d="m 17084,6437 c -2,-7 -3,-62 -2,-123 3,-104 4,-109 26,-112 22,-3 22,-2 22,122 0,120 -1,126 -20,126 -11,0 -23,-6 -26,-13 z" inkscape:connector-curvature="0" id="path394" />
    <path d="m 17220,6325 0,-125 25,0 25,0 0,125 0,125 -25,0 -25,0 0,-125 z" inkscape:connector-curvature="0" id="path396" />
    <path d="m 17350,6325 0,-125 25,0 25,0 0,125 0,125 -25,0 -25,0 0,-125 z" inkscape:connector-curvature="0" id="path398" />
    <path d="m 17490,6325 0,-125 25,0 25,0 0,125 0,125 -25,0 -25,0 0,-125 z" inkscape:connector-curvature="0" id="path400" />
    <path d="m 17621,6325 c 2,-123 3,-125 26,-125 23,0 23,1 23,125 l 0,125 -26,0 -25,0 2,-125 z" inkscape:connector-curvature="0" id="path402" />
    <path d="m 17760,6325 0,-125 25,0 25,0 0,125 0,125 -25,0 -25,0 0,-125 z" inkscape:connector-curvature="0" id="path404" />
    <path d="m 17890,6325 0,-125 398,2 397,3 2,123 2,122 -399,0 -400,0 0,-125 z" inkscape:connector-curvature="0" id="path406" />
    <path d="m 4447,6329 c -91,-22 -157,-77 -177,-147 -5,-20 -10,-79 -10,-129 l 0,-93 -320,0 -320,0 0,-66 c 0,-62 1,-65 23,-64 12,1 156,2 320,1 l 297,-1 0,-301 c 0,-209 4,-314 12,-343 18,-59 93,-132 149,-144 25,-6 192,-9 384,-8 304,1 344,3 380,19 53,24 93,63 116,112 17,37 19,74 19,509 0,323 -4,481 -11,507 -16,50 -61,105 -112,132 -41,21 -52,22 -377,24 -184,1 -352,-3 -373,-8 z m 385,-157 c 18,-22 84,-93 146,-160 119,-129 131,-153 92,-192 -36,-36 -60,-26 -142,62 l -78,82 0,-359 c 0,-319 -2,-360 -17,-377 -20,-22 -61,-23 -85,-1 -17,15 -18,40 -18,376 l 0,360 -77,-81 c -83,-88 -107,-98 -143,-62 -40,40 -29,61 128,230 81,88 150,160 154,160 3,0 21,-17 40,-38 z m -154,-624 c 16,-16 15,-33 -4,-52 -13,-13 -43,-16 -173,-16 -109,0 -161,4 -169,12 -13,13 -16,50 -5,61 12,13 338,8 351,-5 z m 580,-16 c 7,-48 -8,-52 -179,-52 -130,0 -160,3 -173,16 -9,8 -16,21 -16,28 0,32 23,36 195,34 169,-3 170,-3 173,-26 z" inkscape:connector-curvature="0" id="path408" />
    <path d="m 9710,6135 0,-85 340,0 340,0 0,85 0,85 -340,0 -340,0 0,-85 z" inkscape:connector-curvature="0" id="path410" />
    <path d="m 15587,6034 c -4,-4 -7,-243 -7,-530 l 0,-524 170,0 170,0 0,530 0,530 -163,0 c -90,0 -167,-3 -170,-6 z" inkscape:connector-curvature="0" id="path412" />
    <path d="m 17110,6015 c -10,-25 -142,-386 -186,-508 -15,-41 -13,-41 42,0 68,51 179,68 250,38 20,-8 53,-29 75,-46 21,-17 39,-29 39,-27 0,1 -47,131 -104,288 -99,271 -105,284 -116,255 z" inkscape:connector-curvature="0" id="path414" />
    <path d="m 18380,5510 0,-530 168,2 167,3 0,525 0,525 -167,3 -168,2 0,-530 z" inkscape:connector-curvature="0" id="path416" />
    <path d="m 16060,5509 0,-440 123,3 122,3 3,438 2,437 -125,0 -125,0 0,-441 z" inkscape:connector-curvature="0" id="path418" />
    <path d="m 17997,5944 c -9,-9 -9,-836 -1,-858 5,-13 26,-16 125,-16 115,0 119,1 124,23 3,12 4,209 3,437 l -3,415 -121,3 c -66,1 -123,-1 -127,-4 z" inkscape:connector-curvature="0" id="path420" />
    <path d="m 9610,5755 0,-125 440,0 441,0 -3,123 -3,122 -437,3 -438,2 0,-125 z" inkscape:connector-curvature="0" id="path422" />
    <path d="m 16480,5510 0,-340 85,0 85,0 0,340 0,340 -85,0 -85,0 0,-340 z" inkscape:connector-curvature="0" id="path424" />
    <path d="m 17650,5510 0,-340 85,0 85,0 0,340 0,340 -85,0 -85,0 0,-340 z" inkscape:connector-curvature="0" id="path426" />
    <path d="m 17082,5524 c -28,-19 -29,-67 -2,-94 24,-24 48,-25 78,-4 45,31 18,114 -38,114 -9,0 -26,-7 -38,-16 z" inkscape:connector-curvature="0" id="path428" />
    <path d="m 9520,5325 0,-165 530,0 530,0 0,165 0,165 -530,0 -530,0 0,-165 z" inkscape:connector-curvature="0" id="path430" />
    <path d="m 17077,5302 c -37,-40 -9,-102 46,-102 33,0 57,24 57,59 0,54 -68,82 -103,43 z" inkscape:connector-curvature="0" id="path432" />
    <path d="m 17077,5082 c -36,-40 -9,-102 45,-102 47,0 73,54 48,101 -14,25 -71,26 -93,1 z" inkscape:connector-curvature="0" id="path434" />
    <path d="m 7011,5023 c -19,-10 -44,-31 -55,-46 -21,-28 -21,-40 -24,-573 -3,-521 -2,-547 17,-588 10,-25 31,-52 46,-62 35,-23 96,-21 139,4 64,38 686,504 706,529 55,70 48,152 -17,214 -44,42 -651,492 -691,513 -49,25 -85,27 -121,9 z m 389,-411 c 151,-112 281,-209 288,-216 11,-11 -38,-51 -269,-222 -156,-115 -291,-215 -301,-222 -17,-13 -18,5 -18,433 0,354 3,445 12,438 7,-4 137,-99 288,-211 z" inkscape:connector-curvature="0" id="path436" />
    <path d="m 13042,5030 c -41,-10 -46,-13 -421,-292 -173,-128 -323,-245 -333,-259 -11,-14 -24,-45 -29,-69 -8,-37 -6,-49 13,-89 19,-38 49,-66 170,-156 373,-281 552,-409 587,-421 72,-25 151,17 165,87 3,18 6,271 6,563 0,486 -2,534 -18,565 -29,59 -81,85 -140,71 z m -14,-863 -3,-225 -295,218 c -162,120 -295,221 -295,224 0,3 133,104 295,224 l 295,219 3,-218 c 1,-120 1,-319 0,-442 z" inkscape:connector-curvature="0" id="path438" />
    <path d="m 8080,4385 0,-535 165,0 165,0 0,535 0,535 -165,0 -165,0 0,-535 z" inkscape:connector-curvature="0" id="path440" />
    <path d="m 11594,4907 c -2,-7 -3,-247 -2,-532 l 3,-520 168,-3 167,-2 0,535 0,535 -165,0 c -126,0 -167,-3 -171,-13 z" inkscape:connector-curvature="0" id="path442" />
    <path d="m 4079,4880 c -54,-16 -75,-37 -213,-223 -428,-577 -396,-529 -396,-596 0,-46 30,-88 76,-107 49,-21 1089,-20 1138,0 74,31 101,96 68,169 -11,23 -48,80 -83,127 -35,47 -140,189 -233,315 -93,127 -181,243 -195,258 -44,49 -110,72 -162,57 z m 261,-470 c 111,-151 207,-281 212,-287 8,-10 -80,-13 -435,-13 l -446,0 222,300 c 172,233 224,297 233,287 6,-6 103,-136 214,-287 z" inkscape:connector-curvature="0" id="path444" />
    <path d="m 8550,4385 0,-435 125,0 125,0 0,435 0,435 -125,0 -125,0 0,-435 z" inkscape:connector-curvature="0" id="path446" />
    <path d="m 11210,4385 0,-435 125,0 125,0 0,435 0,435 -125,0 -125,0 0,-435 z" inkscape:connector-curvature="0" id="path448" />
    <path d="m 8975,4722 c -3,-3 -5,-155 -5,-338 0,-259 3,-333 13,-337 7,-2 44,-4 82,-3 l 70,1 3,343 2,343 -80,-2 c -44,-1 -82,-4 -85,-7 z" inkscape:connector-curvature="0" id="path450" />
    <path d="m 10864,4717 c -2,-7 -3,-161 -2,-343 l 3,-329 83,-1 82,-2 0,343 0,342 -80,2 c -60,1 -82,-2 -86,-12 z" inkscape:connector-curvature="0" id="path452" />
    <path d="m 7990,3625 0,-125 2060,0 2060,0 0,125 0,125 -2060,0 -2060,0 0,-125 z" inkscape:connector-curvature="0" id="path454" />
    <path d="m 3890,3510 0,-60 145,0 c 103,0 145,-3 145,-12 0,-6 -58,-125 -130,-265 l -129,-254 81,3 81,3 134,275 c 113,234 133,282 133,323 l 0,47 -230,0 -230,0 0,-60 z" inkscape:connector-curvature="0" id="path456" />
    <path d="m 1388,3363 c -32,-5 -34,-13 -13,-53 l 16,-30 -156,0 -155,0 0,-40 0,-40 195,0 195,0 0,35 c 0,29 -44,139 -53,134 -1,-1 -14,-4 -29,-6 z" inkscape:connector-curvature="0" id="path458" />
    <path d="m 1100,3059 c -18,-32 -23,-111 -11,-156 13,-49 60,-93 100,-93 33,0 77,31 87,62 6,21 7,21 20,-4 17,-33 71,-52 108,-39 33,13 66,67 66,109 0,18 -5,54 -11,79 -11,43 -13,45 -42,39 -17,-3 -32,-7 -33,-9 -1,-1 3,-21 9,-44 13,-50 -2,-93 -32,-93 -25,0 -51,36 -51,72 0,24 -4,28 -30,28 -28,0 -30,-3 -30,-35 0,-37 -28,-75 -55,-75 -25,0 -48,47 -42,88 3,20 8,44 12,53 4,12 -2,19 -24,27 -27,9 -32,8 -41,-9 z" inkscape:connector-curvature="0" id="path460" />
    <path d="m 10090,2919 c -115,-22 -219,-109 -261,-217 -18,-44 -23,-78 -23,-152 -1,-85 2,-101 28,-153 33,-69 84,-110 157,-127 111,-27 218,14 274,104 26,43 30,59 30,120 0,89 -31,149 -96,185 -58,33 -150,34 -202,3 -44,-26 -48,-13 -12,40 32,48 103,81 183,86 l 62,4 0,59 0,59 -47,-1 c -27,-1 -68,-5 -93,-10 z m 13,-339 c 36,-29 51,-79 37,-129 -11,-42 -50,-81 -82,-81 -79,0 -139,122 -92,188 31,44 96,54 137,22 z" inkscape:connector-curvature="0" id="path462" />
    <path d="m 1060,2730 c 0,-33 -31,-20 284,-114 65,-20 122,-36 127,-36 5,0 9,12 9,28 0,26 -3,28 -163,75 -89,26 -183,54 -209,62 l -48,14 0,-29 z" inkscape:connector-curvature="0" id="path464" />
    <path d="m 5970,2345 0,-265 55,0 55,0 0,265 0,265 -55,0 -55,0 0,-265 z" inkscape:connector-curvature="0" id="path466" />
    <path d="m 2160,2335 0,-255 155,0 155,0 0,45 0,44 -97,3 -98,3 -3,208 -2,207 -55,0 -55,0 0,-255 z" inkscape:connector-curvature="0" id="path468" />
    <path d="m 1190,2549 c -80,-25 -120,-86 -106,-162 8,-44 62,-93 113,-104 70,-15 159,-7 202,18 95,53 93,182 -3,231 -48,24 -153,33 -206,17 z m 180,-92 c 16,-8 26,-23 28,-40 3,-23 -2,-30 -32,-42 -19,-8 -60,-15 -91,-15 -31,0 -72,7 -91,15 -30,12 -35,19 -32,42 4,38 39,53 123,53 39,0 81,-6 95,-13 z" inkscape:connector-curvature="0" id="path470" />
    <path d="m 2623,2439 c -66,-19 -123,-102 -123,-179 0,-124 95,-200 235,-187 90,9 98,13 91,55 -3,19 -7,36 -8,38 -2,1 -24,-2 -50,-7 -57,-13 -121,2 -143,34 -8,12 -15,25 -15,29 0,5 54,8 120,8 l 120,0 0,50 c 0,126 -99,196 -227,159 z m 110,-87 c 35,-31 21,-42 -53,-42 -38,0 -70,3 -70,6 0,16 24,46 43,54 26,10 55,4 80,-18 z" inkscape:connector-curvature="0" id="path472" />
    <path d="m 3177,2435 c -80,-28 -120,-89 -121,-181 0,-72 26,-121 82,-156 30,-19 51,-23 114,-23 42,0 81,5 86,10 5,6 7,26 5,46 l -5,35 -53,-4 c -50,-4 -57,-2 -85,26 -42,43 -42,101 0,144 27,27 36,30 81,26 46,-3 50,-1 55,22 3,14 8,32 10,41 8,30 -101,39 -169,14 z" inkscape:connector-curvature="0" id="path474" />
    <path d="m 3465,2437 c -37,-12 -40,-15 -37,-47 3,-43 5,-44 43,-31 49,17 103,14 122,-7 10,-10 17,-21 17,-24 0,-3 -24,-8 -54,-11 -132,-13 -198,-96 -151,-187 30,-59 105,-76 175,-40 34,17 40,18 40,5 0,-11 12,-15 50,-15 l 50,0 0,128 c 0,140 -11,178 -63,216 -34,25 -134,31 -192,13 z m 145,-221 c 0,-57 -76,-91 -100,-46 -22,41 12,78 73,79 24,1 27,-2 27,-33 z" inkscape:connector-curvature="0" id="path476" />
    <path d="m 3975,2439 c -11,-6 -30,-23 -42,-38 l -23,-26 0,33 c 0,32 0,32 -51,32 -48,0 -51,-1 -45,-22 3,-13 6,-94 6,-180 l 0,-158 55,0 55,0 0,110 c 0,127 12,150 75,150 l 35,0 0,55 c 0,50 -2,55 -22,55 -13,0 -32,-5 -43,-11 z" inkscape:connector-curvature="0" id="path478" />
    <path d="m 4255,2439 c -11,-6 -30,-23 -42,-38 l -23,-26 0,33 c 0,32 0,32 -51,32 -48,0 -51,-1 -45,-22 3,-13 6,-94 6,-180 l 0,-158 55,0 55,0 0,110 c 0,127 12,150 75,150 l 35,0 0,55 c 0,50 -2,55 -22,55 -13,0 -32,-5 -43,-11 z" inkscape:connector-curvature="0" id="path480" />
    <path d="m 4454,2426 c -66,-34 -97,-87 -98,-165 -1,-109 60,-177 168,-188 47,-5 64,-2 109,20 71,35 101,86 101,172 0,108 -62,173 -172,182 -47,4 -65,0 -108,-21 z m 135,-75 c 11,-11 23,-36 27,-55 20,-110 -54,-187 -117,-120 -20,21 -24,36 -24,86 0,53 3,62 28,84 34,29 60,31 86,5 z" inkscape:connector-curvature="0" id="path482" />
    <path d="m 5325,2443 c -53,-15 -95,-66 -95,-117 0,-36 46,-82 105,-104 95,-37 58,-90 -43,-63 -25,6 -46,10 -49,8 -2,-3 -8,-18 -13,-36 -10,-36 2,-46 68,-57 99,-16 185,24 198,92 11,59 -11,92 -85,128 -48,23 -66,37 -66,51 0,17 7,20 45,20 25,-1 51,-3 59,-5 19,-6 39,56 24,71 -12,12 -118,21 -148,12 z" inkscape:connector-curvature="0" id="path484" />
    <path d="m 5673,2439 c -66,-19 -123,-102 -123,-179 0,-124 95,-200 235,-187 90,9 98,13 91,55 -3,19 -7,36 -8,38 -2,1 -24,-2 -50,-7 -57,-13 -121,2 -143,34 -8,12 -15,25 -15,29 0,5 54,8 120,8 l 120,0 0,50 c 0,126 -99,196 -227,159 z m 110,-87 c 35,-31 21,-42 -53,-42 -38,0 -70,3 -70,6 0,16 24,46 43,54 26,10 55,4 80,-18 z" inkscape:connector-curvature="0" id="path486" />
    <path d="m 4810,2304 c 0,-156 11,-193 65,-218 56,-27 114,-18 154,25 l 21,23 0,-27 c 0,-26 2,-27 50,-27 l 50,0 0,180 0,180 -55,0 -55,0 0,-115 c 0,-110 -1,-117 -25,-140 -29,-30 -49,-31 -75,-5 -18,18 -20,33 -20,140 l 0,120 -55,0 -55,0 0,-136 z" inkscape:connector-curvature="0" id="path488" />
    <path d="m 1268,2224 c -49,-26 -72,-99 -47,-146 17,-31 4,-32 -31,-1 -25,22 -33,39 -37,76 -5,46 -6,47 -41,47 l -35,0 6,-49 c 13,-112 82,-178 195,-188 142,-13 236,100 172,205 -39,64 -121,90 -182,56 z m 125,-95 c 19,-27 11,-54 -19,-68 -71,-32 -134,19 -87,71 23,26 87,24 106,-3 z" inkscape:connector-curvature="0" id="path490" />
    <path d="m 9530,1865 c 0,-52 -2,-95 -5,-95 -4,0 -20,7 -37,16 -67,35 -160,-1 -198,-76 -22,-44 -27,-140 -9,-187 36,-97 153,-131 229,-67 l 30,26 0,-26 c 0,-25 3,-26 50,-26 l 50,0 0,265 0,265 -55,0 -55,0 0,-95 z m -25,-175 c 22,-24 30,-96 16,-133 -6,-15 -22,-32 -35,-38 -61,-28 -112,27 -103,108 6,55 30,83 72,83 19,0 39,-8 50,-20 z" inkscape:connector-curvature="0" id="path492" />
    <path d="m 11760,1695 0,-265 55,0 55,0 0,265 0,265 -55,0 -55,0 0,-265 z" inkscape:connector-curvature="0" id="path494" />
    <path d="m 10746,1934 c -9,-8 -16,-24 -16,-35 0,-25 35,-59 60,-59 25,0 60,34 60,59 0,28 -27,51 -60,51 -16,0 -36,-7 -44,-16 z" inkscape:connector-curvature="0" id="path496" />
    <path d="m 11976,1934 c -9,-8 -16,-24 -16,-35 0,-25 35,-59 60,-59 25,0 60,34 60,59 0,28 -27,51 -60,51 -16,0 -36,-7 -44,-16 z" inkscape:connector-curvature="0" id="path498" />
    <path d="m 10318,1933 -28,-4 0,-250 0,-249 55,0 55,0 0,100 0,100 33,0 c 55,0 73,-21 98,-115 l 22,-85 59,0 c 32,0 58,1 58,3 0,1 -11,42 -24,90 -24,88 -48,137 -66,137 -18,0 -10,19 11,25 55,18 79,137 38,189 -36,46 -75,59 -184,62 -55,1 -112,0 -127,-3 z m 204,-103 c 23,-29 23,-62 -1,-91 -14,-18 -29,-23 -67,-23 l -49,-1 -3,64 c -2,44 1,67 10,73 22,15 91,1 110,-22 z" inkscape:connector-curvature="0" id="path500" />
    <path d="m 1060,1890 c 0,-33 -31,-20 284,-114 65,-20 122,-36 127,-36 5,0 9,12 9,28 0,26 -3,28 -163,75 -89,26 -183,54 -209,62 l -48,14 0,-29 z" inkscape:connector-curvature="0" id="path502" />
    <path d="m 8175,1789 c -11,-6 -30,-23 -42,-38 l -23,-26 0,33 c 0,32 0,32 -51,32 -48,0 -51,-1 -45,-22 3,-13 6,-94 6,-180 l 0,-158 55,0 55,0 0,110 c 0,127 12,150 75,150 l 35,0 0,55 c 0,50 -2,55 -22,55 -13,0 -32,-5 -43,-11 z" inkscape:connector-curvature="0" id="path504" />
    <path d="m 8833,1789 c -66,-19 -123,-102 -123,-179 0,-124 95,-200 235,-187 90,9 98,13 91,55 -3,19 -7,36 -8,38 -2,1 -24,-2 -50,-7 -57,-13 -121,2 -143,34 -8,12 -15,25 -15,29 0,5 54,8 120,8 l 120,0 0,50 c 0,126 -99,196 -227,159 z m 110,-87 c 35,-31 21,-42 -53,-42 -38,0 -70,3 -70,6 0,16 24,46 43,54 26,10 55,4 80,-18 z" inkscape:connector-curvature="0" id="path506" />
    <path d="m 9833,1789 c -66,-19 -123,-102 -123,-179 0,-124 95,-200 235,-187 90,9 98,13 91,55 -3,19 -7,36 -8,38 -2,1 -24,-2 -50,-7 -57,-13 -121,2 -143,34 -8,12 -15,25 -15,29 0,5 54,8 120,8 l 120,0 0,50 c 0,126 -99,196 -227,159 z m 110,-87 c 35,-31 21,-42 -53,-42 -38,0 -70,3 -70,6 0,16 24,46 43,54 26,10 55,4 80,-18 z" inkscape:connector-curvature="0" id="path508" />
    <path d="m 11404,1776 c -66,-34 -97,-87 -98,-165 -1,-109 60,-177 168,-188 47,-5 64,-2 109,20 71,35 101,86 101,172 0,108 -62,173 -172,182 -47,4 -65,0 -108,-21 z m 135,-75 c 11,-11 23,-36 27,-55 20,-110 -54,-187 -117,-120 -20,21 -24,36 -24,86 0,53 3,62 28,84 34,29 60,31 86,5 z" inkscape:connector-curvature="0" id="path510" />
    <path d="m 8310,1654 c 0,-156 11,-193 65,-218 56,-27 114,-18 154,25 l 21,23 0,-27 c 0,-26 2,-27 50,-27 l 50,0 0,180 0,180 -55,0 -55,0 0,-115 c 0,-110 -1,-117 -25,-140 -29,-30 -49,-31 -75,-5 -18,18 -20,33 -20,140 l 0,120 -55,0 -55,0 0,-136 z" inkscape:connector-curvature="0" id="path512" />
    <path d="m 10740,1610 0,-180 55,0 55,0 0,180 0,180 -55,0 -55,0 0,-180 z" inkscape:connector-curvature="0" id="path514" />
    <path d="m 10900,1783 c 0,-5 29,-84 64,-178 l 64,-170 59,0 58,0 66,175 66,175 -54,3 c -31,2 -58,1 -61,-3 -3,-3 -20,-58 -37,-122 -32,-117 -36,-123 -49,-68 -4,17 -19,67 -32,113 l -25,82 -60,0 c -32,0 -59,-3 -59,-7 z" inkscape:connector-curvature="0" id="path516" />
    <path d="m 11970,1610 0,-180 55,0 55,0 0,180 0,180 -55,0 -55,0 0,-180 z" inkscape:connector-curvature="0" id="path518" />
    <path d="m 2730,1615 c 0,-52 -2,-95 -5,-95 -4,0 -20,7 -37,16 -67,35 -160,-1 -198,-76 -22,-44 -27,-140 -9,-187 36,-97 153,-131 229,-67 l 30,26 0,-26 c 0,-25 3,-26 50,-26 l 50,0 0,265 0,265 -55,0 -55,0 0,-95 z m -25,-175 c 22,-24 30,-96 16,-133 -6,-15 -22,-32 -35,-38 -61,-28 -112,27 -103,108 6,55 30,83 72,83 19,0 39,-8 50,-20 z" inkscape:connector-curvature="0" id="path520" />
    <path d="m 1388,1683 c -32,-5 -34,-13 -13,-53 l 16,-30 -156,0 -155,0 0,-40 0,-40 195,0 195,0 0,35 c 0,29 -44,139 -53,134 -1,-1 -14,-4 -29,-6 z" inkscape:connector-curvature="0" id="path522" />
    <path d="m 3530,1435 0,-255 155,0 155,0 0,45 0,44 -97,3 -98,3 -3,208 -2,207 -55,0 -55,0 0,-255 z" inkscape:connector-curvature="0" id="path524" />
    <path d="m 32274,1576 c -58,-49 -20,-146 57,-146 39,0 89,48 89,85 0,37 -50,85 -89,85 -17,0 -42,-10 -57,-24 z m 86,-30 c 28,-35 -11,-93 -47,-70 -36,22 -23,84 17,84 10,0 23,-7 30,-14 z" inkscape:connector-curvature="0" id="path526" />
    <path d="m 32659,1581 c -14,-5 -35,-13 -47,-20 -19,-10 -20,-15 -10,-39 7,-15 13,-28 14,-30 0,-1 14,4 30,13 67,35 122,5 110,-60 -5,-27 -26,-55 -87,-114 -60,-59 -79,-84 -79,-104 l 0,-27 130,0 130,0 0,35 0,35 -66,0 -66,0 56,60 c 59,64 82,118 70,167 -17,71 -100,109 -185,84 z" inkscape:connector-curvature="0" id="path528" />
    <path d="m 32963,1466 c -40,-68 -73,-136 -73,-150 0,-26 0,-26 85,-26 l 85,0 0,-45 0,-45 40,0 40,0 0,45 c 0,41 2,45 25,45 21,0 25,5 25,29 0,23 -5,30 -22,33 -22,3 -23,7 -26,121 l -3,117 -52,0 -52,0 -72,-124 z m 97,-36 0,-80 -40,0 c -22,0 -40,2 -40,5 0,7 74,155 77,155 2,0 3,-36 3,-80 z" inkscape:connector-curvature="0" id="path530" />
    <path d="m 3974,1526 c -66,-34 -97,-87 -98,-165 -1,-109 60,-177 168,-188 47,-5 64,-2 109,20 71,35 101,86 101,172 0,108 -62,173 -172,182 -47,4 -65,0 -108,-21 z m 135,-75 c 11,-11 23,-36 27,-55 20,-110 -54,-187 -117,-120 -20,21 -24,36 -24,86 0,53 3,62 28,84 34,29 60,31 86,5 z" inkscape:connector-curvature="0" id="path532" />
    <path d="m 5325,1539 c -11,-6 -30,-23 -42,-38 l -23,-26 0,33 c 0,32 0,32 -51,32 -48,0 -51,-1 -45,-22 3,-13 6,-94 6,-180 l 0,-158 55,0 55,0 0,110 c 0,127 12,150 75,150 l 35,0 0,55 c 0,50 -2,55 -22,55 -13,0 -32,-5 -43,-11 z" inkscape:connector-curvature="0" id="path534" />
    <path d="m 5543,1539 c -66,-19 -123,-102 -123,-179 0,-124 95,-200 235,-187 90,9 98,13 91,55 -3,19 -7,36 -8,38 -2,1 -24,-2 -50,-7 -57,-13 -121,2 -143,34 -8,12 -15,25 -15,29 0,5 54,8 120,8 l 120,0 0,50 c 0,126 -99,196 -227,159 z m 110,-87 c 35,-31 21,-42 -53,-42 -38,0 -70,3 -70,6 0,16 24,46 43,54 26,10 55,4 80,-18 z" inkscape:connector-curvature="0" id="path536" />
    <path d="m 2940,1404 c 0,-156 11,-193 65,-218 56,-27 114,-18 154,25 l 21,23 0,-27 c 0,-26 2,-27 50,-27 l 50,0 0,180 0,180 -55,0 -55,0 0,-115 c 0,-110 -1,-117 -25,-140 -29,-30 -49,-31 -75,-5 -18,18 -20,33 -20,140 l 0,120 -55,0 -55,0 0,-136 z" inkscape:connector-curvature="0" id="path538" />
    <path d="m 4330,1404 c 0,-156 11,-193 65,-218 56,-27 114,-18 154,25 l 21,23 0,-27 c 0,-26 2,-27 50,-27 l 50,0 0,180 0,180 -55,0 -55,0 0,-115 c 0,-110 -1,-117 -25,-140 -29,-30 -49,-31 -75,-5 -18,18 -20,33 -20,140 l 0,120 -55,0 -55,0 0,-136 z" inkscape:connector-curvature="0" id="path540" />
    <path d="m 4730,1533 c 0,-5 29,-84 64,-178 l 64,-170 59,0 58,0 66,175 66,175 -54,3 c -31,2 -58,1 -61,-3 -3,-3 -20,-58 -37,-122 -32,-117 -36,-123 -49,-68 -4,17 -19,67 -32,113 l -25,82 -60,0 c -32,0 -59,-3 -59,-7 z" inkscape:connector-curvature="0" id="path542" />
    <path d="m 31920,1345 0,-145 45,0 45,0 0,93 c 0,78 3,97 18,110 23,21 46,22 66,1 12,-12 16,-37 16,-110 l 0,-94 45,0 45,0 0,88 c 0,48 -5,104 -10,124 -20,72 -92,98 -157,58 -33,-20 -33,-20 -33,0 0,17 -7,20 -40,20 l -40,0 0,-145 z" inkscape:connector-curvature="0" id="path544" />
    <path d="m 1190,1389 c -80,-25 -120,-86 -106,-162 8,-44 62,-93 113,-104 70,-15 159,-7 202,18 95,53 93,182 -3,231 -48,24 -153,33 -206,17 z m 180,-92 c 16,-8 26,-23 28,-40 3,-23 -2,-30 -32,-42 -19,-8 -60,-15 -91,-15 -31,0 -72,7 -91,15 -30,12 -35,19 -32,42 4,38 39,53 123,53 39,0 81,-6 95,-13 z" inkscape:connector-curvature="0" id="path546" />
  </g>
</svg>
