<?xml version="1.0" standalone="no"?>
<!DOCTYPE svg PUBLIC "-//W3C//DTD SVG 20010904//EN"
 "http://www.w3.org/TR/2001/REC-SVG-20010904/DTD/svg10.dtd">
<svg version="1.0" xmlns="http://www.w3.org/2000/svg"
 width="3508.000000pt" height="2480.000000pt" viewBox="0 0 3508.000000 2480.000000"
 preserveAspectRatio="xMidYMid meet">
<metadata>
Created by potrace 1.11, written by Peter Selinger 2001-2013
</metadata>
<g transform="translate(0.000000,2480.000000) scale(0.100000,-0.100000)"
fill="#000000" stroke="none">
<path d="M2260 23475 l0 -955 6855 0 6855 0 0 955 0 955 -6855 0 -6855 0 0
-955z m5490 31 c0 -183 3 -354 6 -380 l7 -46 -77 0 -76 0 0 35 c0 40 -9 44
-28 14 -19 -29 -89 -59 -142 -59 -89 0 -169 60 -205 154 -13 35 -16 65 -13
130 4 72 9 92 34 133 16 26 49 61 73 78 39 27 50 30 121 30 66 0 83 -4 109
-23 l31 -23 0 146 0 145 80 0 80 0 0 -334z m5500 0 c0 -183 3 -354 6 -380 l7
-46 -77 0 -76 0 0 35 c0 40 -9 44 -28 14 -19 -29 -89 -59 -142 -59 -89 0 -169
60 -205 154 -13 35 -16 65 -13 130 4 72 9 92 34 133 16 26 49 61 73 78 39 27
50 30 121 30 66 0 83 -4 109 -23 l31 -23 0 146 0 145 80 0 80 0 0 -334z
m-7335 299 c52 -51 15 -135 -60 -135 -46 0 -85 36 -85 80 0 44 39 80 85 80 25
0 44 -8 60 -25z m5304 15 c30 -15 46 -65 32 -99 -34 -80 -161 -59 -161 27 0
65 69 104 129 72z m-7774 -39 c223 -98 270 -450 84 -622 l-50 -46 82 -18 c79
-17 81 -18 76 -44 -3 -14 -13 -43 -21 -63 l-16 -37 -52 16 c-29 8 -96 32 -148
53 -52 20 -117 40 -145 44 -72 10 -168 59 -210 108 -59 70 -80 136 -79 258 0
84 5 116 22 161 41 102 131 181 239 209 53 13 168 3 218 -19z m5355 -133 c24
-84 58 -209 76 -278 18 -69 35 -118 38 -110 3 8 19 67 35 130 17 63 51 180 75
260 l44 145 86 3 c47 1 86 1 86 -1 0 -6 -195 -587 -222 -660 l-21 -58 -95 3
-95 3 -113 350 c-63 193 -114 353 -114 358 0 4 40 7 88 7 l88 0 44 -152z
m5138 -220 l2 -348 -80 0 -80 0 0 275 c0 151 -2 275 -5 275 -3 0 -33 -14 -65
-30 l-60 -30 -9 22 c-4 13 -11 40 -15 61 l-7 38 93 44 c83 40 100 44 158 42
l65 -2 3 -347z m700 280 l3 -68 -134 0 -134 0 -7 -31 c-13 -65 -12 -66 65 -72
126 -11 207 -71 229 -170 24 -115 -31 -217 -145 -268 -61 -27 -177 -36 -255
-20 -84 18 -85 19 -70 90 7 34 13 61 14 61 0 0 19 -7 41 -15 53 -19 158 -19
195 0 82 42 80 138 -3 182 -22 11 -62 18 -127 20 -91 3 -95 4 -94 25 3 41 35
313 40 326 3 10 46 12 191 10 l188 -3 3 -67z m-9086 -40 l3 -73 58 -3 58 -3
-3 -57 -3 -57 -57 -3 -58 -3 0 -99 c0 -98 10 -148 33 -162 7 -4 29 -8 50 -8
l37 0 0 -55 c0 -69 -15 -79 -111 -73 -77 4 -111 23 -143 78 -17 28 -21 58 -24
176 l-4 143 -32 3 c-30 3 -31 4 -34 61 l-3 57 35 0 35 0 3 58 3 57 65 17 c94
24 89 27 92 -54z m-871 -79 c19 -7 49 -25 66 -42 53 -50 62 -91 65 -290 l3
-177 -72 0 c-64 0 -73 2 -73 18 0 30 -10 32 -47 6 -42 -28 -90 -38 -145 -31
-55 7 -88 33 -117 90 -64 128 35 240 232 262 62 7 68 14 37 45 -25 25 -122 28
-176 5 -20 -8 -40 -13 -44 -10 -7 4 -23 64 -24 90 -2 32 221 58 295 34z m579
-64 l0 -75 -46 0 c-37 0 -51 -5 -75 -29 l-29 -29 0 -156 0 -156 -85 0 -85 0 0
255 0 255 69 0 70 0 3 -47 3 -48 23 36 c25 42 72 68 120 69 l32 0 0 -75z
m1121 64 c93 -31 141 -106 143 -222 l1 -72 -167 -3 c-182 -3 -187 -5 -148 -55
29 -37 81 -51 164 -44 39 3 78 8 88 12 13 5 18 -4 27 -46 6 -29 8 -56 4 -60
-14 -13 -113 -29 -177 -29 -143 0 -238 61 -271 175 -42 144 26 295 152 341 47
16 139 18 184 3z m569 -64 l0 -75 -39 0 c-105 0 -121 -30 -121 -225 l0 -145
-80 0 -80 0 0 209 c0 114 -3 229 -6 255 l-7 46 72 0 c75 0 72 2 75 -52 2 -26
14 -22 43 13 31 37 55 48 106 48 l37 1 0 -75z m1278 60 c83 -35 123 -103 130
-217 l5 -78 -172 0 c-186 0 -191 -2 -151 -53 34 -43 146 -61 230 -37 19 5 37
6 41 2 4 -4 10 -28 14 -54 7 -46 6 -48 -21 -59 -47 -17 -195 -23 -252 -9 -143
34 -219 185 -173 343 18 63 88 141 144 160 56 20 158 21 205 2z m1354 3 c48
-14 103 -73 117 -125 5 -21 11 -116 13 -211 l3 -172 -72 0 c-64 0 -73 2 -73
18 0 30 -10 32 -47 6 -42 -28 -90 -38 -145 -31 -55 7 -88 33 -117 90 -64 128
35 240 232 262 62 7 68 14 37 45 -25 25 -116 27 -179 5 -32 -11 -43 -12 -46
-2 -2 7 -8 27 -14 46 -6 19 -8 38 -4 42 35 33 220 50 295 27z m1175 -5 c19 -9
37 -22 40 -30 9 -22 23 -15 23 12 0 24 2 25 71 25 l70 0 -3 -272 c-3 -271 -3
-273 -29 -329 -43 -92 -119 -130 -259 -131 -76 -1 -190 22 -190 38 0 14 24
100 29 106 4 4 28 1 55 -7 60 -18 132 -19 166 -2 35 18 70 74 70 113 0 19 -4
34 -10 34 -5 0 -10 -5 -10 -11 0 -5 -21 -19 -47 -31 -55 -24 -135 -20 -186 9
-101 59 -145 224 -93 348 20 47 76 106 121 126 50 23 136 24 182 2z m953 -58
l0 -75 -40 0 c-21 0 -51 -5 -65 -12 -47 -21 -55 -53 -55 -213 l0 -145 -80 0
-80 0 0 209 c0 114 -3 229 -6 255 l-7 46 71 0 c67 0 70 -1 76 -25 4 -14 4 -30
1 -35 -3 -5 -1 -11 4 -14 5 -3 16 6 25 20 24 36 75 64 119 64 l37 0 0 -75z
m388 60 c44 -19 78 -49 100 -90 13 -24 18 -70 22 -223 l5 -192 -71 0 c-68 0
-72 1 -78 25 l-6 24 -36 -24 c-154 -105 -343 37 -264 199 33 70 103 106 233
121 62 7 68 14 37 45 -16 16 -33 20 -82 20 -35 -1 -80 -7 -101 -14 -37 -14
-38 -13 -48 12 -23 60 -18 74 36 93 65 23 201 25 253 4z m562 -60 l0 -75 -45
0 c-35 0 -52 -6 -77 -29 l-33 -29 -3 -156 -4 -156 -79 0 -79 0 0 255 0 255 70
0 70 0 0 -47 0 -48 25 37 c31 46 68 67 118 68 l37 0 0 -75z m2458 59 c43 -18
88 -58 108 -97 21 -39 37 -133 29 -168 l-7 -29 -163 0 c-90 0 -166 -4 -169 -9
-10 -16 43 -69 81 -82 32 -10 144 -9 192 3 10 2 18 -13 27 -49 l12 -52 -32
-11 c-58 -22 -196 -24 -262 -5 -71 20 -142 87 -162 151 -41 139 16 286 132
340 61 28 157 32 214 8z m-11198 -164 c0 -168 0 -171 25 -195 15 -16 36 -25
55 -25 19 0 40 9 55 25 25 24 25 27 25 195 l0 170 85 0 85 0 0 -255 0 -255
-70 0 -70 0 0 35 c0 40 -9 44 -28 14 -19 -30 -90 -59 -147 -59 -72 0 -123 32
-155 95 -24 47 -25 61 -28 238 l-4 187 86 0 86 0 0 -170z m2010 -85 l0 -255
-80 0 -80 0 0 255 0 255 80 0 80 0 0 -255z m4060 118 c1 -157 10 -210 41 -235
31 -26 75 -23 104 7 25 24 25 27 25 195 l0 170 85 0 85 0 0 -255 0 -255 -70 0
-70 0 0 28 c0 42 -9 44 -42 12 -55 -55 -174 -65 -237 -21 -17 13 -41 41 -54
64 -20 38 -22 59 -25 235 l-4 192 81 0 81 0 0 -137z m1260 -118 l0 -255 -80 0
-80 0 0 255 0 255 80 0 80 0 0 -255z"/>
<path d="M7439 23465 c-29 -16 -59 -79 -59 -123 0 -48 20 -101 47 -122 36 -28
94 -27 130 4 26 23 28 31 32 110 3 84 2 86 -27 116 -34 34 -79 39 -123 15z"/>
<path d="M12939 23465 c-29 -16 -59 -79 -59 -123 0 -48 20 -101 47 -122 36
-28 94 -27 130 4 26 23 28 31 32 110 3 84 2 86 -27 116 -34 34 -79 39 -123 15z"/>
<path d="M3245 23666 c-66 -30 -103 -98 -112 -205 -11 -136 50 -250 145 -266
65 -11 129 25 162 90 22 43 25 62 25 150 0 85 -4 107 -23 147 -13 27 -37 57
-54 69 -37 27 -103 34 -143 15z"/>
<path d="M4595 23323 c-62 -13 -95 -44 -95 -88 0 -24 51 -57 80 -50 47 12 70
44 70 97 0 50 -3 53 -55 41z"/>
<path d="M6250 23489 c-30 -12 -59 -47 -60 -71 0 -16 11 -18 96 -18 l96 0 -7
28 c-13 55 -71 83 -125 61z"/>
<path d="M8084 23491 c-25 -11 -64 -58 -64 -77 0 -11 21 -14 95 -14 87 0 95 2
95 19 0 49 -76 93 -126 72z"/>
<path d="M9485 23321 c-67 -17 -96 -51 -81 -99 8 -24 52 -45 80 -36 44 13 66
45 66 96 0 52 -3 54 -65 39z"/>
<path d="M10652 23464 c-33 -23 -52 -67 -52 -124 0 -109 69 -167 149 -125 34
17 51 59 51 127 0 58 -21 112 -48 127 -29 16 -74 14 -100 -5z"/>
<path d="M11995 23321 c-48 -12 -74 -30 -81 -56 -9 -35 4 -65 33 -76 59 -22
113 24 113 97 0 48 -4 50 -65 35z"/>
<path d="M14973 23490 c-21 -8 -63 -64 -63 -82 0 -5 45 -8 100 -8 55 0 100 2
100 4 0 1 -5 17 -11 35 -17 49 -74 72 -126 51z"/>
<path d="M8470 18360 l0 -680 210 0 210 0 0 -1780 0 -1780 -2085 0 -2085 0 0
1575 0 1575 -150 0 -150 0 0 -3030 0 -3030 2385 0 2385 0 0 1455 0 1455 1050
0 1050 0 0 -1780 0 -1780 300 0 300 0 0 -1280 0 -1280 9950 0 9950 0 0 315 0
315 -8535 0 -8535 0 0 1290 0 1290 8535 0 8535 0 0 1455 0 1455 575 0 575 0 0
1780 0 1780 90 0 90 0 0 290 0 290 -1310 0 -1310 0 0 -290 0 -290 -530 0 -530
0 0 -340 0 -340 -2090 0 -2090 0 0 -1440 0 -1440 -3045 0 -3045 0 0 1575 0
1575 -2185 0 -2185 0 0 -1575 0 -1575 -1420 0 -1420 0 0 1780 0 1780 285 0
285 0 0 605 0 605 -745 0 -745 0 0 75 0 75 -1285 0 -1285 0 0 -680z m9558
-3082 l2 -288 -60 0 c-54 0 -60 2 -60 21 l0 20 -29 -20 c-58 -42 -138 -39
-191 6 -107 89 -96 288 20 351 62 34 93 35 163 7 15 -7 17 1 17 87 0 52 3 98
7 102 4 4 34 6 68 4 l60 -3 3 -287z m-2251 272 c74 -16 75 -18 58 -78 -17 -56
-18 -57 -44 -42 -10 5 -44 10 -75 11 -46 2 -61 -2 -78 -19 -20 -19 -20 -22 -5
-45 10 -16 42 -35 86 -52 139 -53 186 -156 121 -263 -29 -48 -108 -82 -188
-82 -65 0 -148 16 -157 31 -7 10 4 82 15 99 6 10 16 10 49 -4 64 -25 127 -21
157 9 23 24 25 28 12 48 -8 12 -47 38 -86 57 -89 43 -128 80 -142 131 -22 81
31 166 121 194 54 17 94 18 156 5z m282 -16 c12 -15 21 -33 21 -41 0 -23 -47
-63 -75 -63 -33 0 -65 33 -65 67 0 63 80 87 119 37z m301 -31 c19 -32 37 -61
38 -65 2 -5 -19 -8 -46 -8 -48 0 -50 1 -96 59 -25 33 -46 62 -46 65 0 3 26 6
58 6 l57 0 35 -57z m11235 -72 c3 -5 -17 -37 -45 -70 -48 -58 -53 -61 -95 -61
-25 0 -45 3 -45 8 1 4 16 32 34 62 32 54 33 55 87 61 30 3 55 6 56 7 1 1 4 -2
8 -7z m1087 -261 c1 -148 2 -278 2 -287 1 -15 -9 -19 -56 -21 -53 -3 -58 -1
-58 18 0 25 -4 25 -39 -1 -75 -55 -185 -23 -231 66 -45 88 -27 219 37 277 35
32 94 50 140 43 23 -3 45 -10 48 -16 17 -27 25 0 25 84 0 52 3 97 7 100 3 4
33 7 65 7 l58 0 2 -270z m-2670 155 c15 -49 38 -129 50 -178 l21 -87 23 87
c13 49 37 129 53 178 l29 90 78 3 c42 2 81 -1 85 -5 6 -7 32 -392 33 -508 l1
-40 -61 -3 -61 -3 -7 47 c-3 26 -6 117 -7 203 0 97 -4 148 -9 136 -5 -11 -32
-100 -62 -197 l-53 -178 -50 0 -51 0 -41 148 c-23 81 -45 165 -50 187 -7 36
-8 32 -14 -45 -4 -47 -7 -126 -8 -177 -1 -50 -4 -98 -7 -107 -5 -12 -21 -16
-66 -16 l-60 0 7 118 c4 64 8 128 10 142 2 14 7 84 10 155 4 72 9 134 12 138
3 4 41 6 86 5 l81 -3 28 -90z m-9580 49 c55 -28 92 -106 86 -182 l-3 -37 -127
-3 c-74 -1 -128 -7 -128 -12 0 -17 38 -49 66 -56 14 -4 55 -4 90 -1 35 4 65 3
67 -1 3 -4 7 -23 11 -43 6 -36 6 -37 -38 -48 -107 -27 -211 -8 -267 48 -82 81
-77 224 9 305 55 51 164 65 234 30z m401 -6 c23 -17 27 -17 27 -4 0 13 12 16
56 16 l56 0 -4 -212 c-3 -211 -3 -213 -30 -259 -35 -60 -98 -89 -190 -89 -66
0 -133 14 -143 30 -4 7 13 100 19 100 0 0 19 -7 41 -15 94 -34 160 -7 172 70
6 39 6 40 -14 22 -84 -74 -226 -10 -252 112 -37 172 132 319 262 229z m497 7
c55 -28 90 -95 90 -175 l0 -50 -130 0 c-80 0 -130 -4 -130 -10 0 -17 38 -49
66 -56 14 -4 55 -4 90 -1 35 4 65 3 67 -1 3 -4 7 -23 11 -43 6 -36 6 -37 -38
-48 -107 -27 -211 -8 -267 48 -94 94 -71 268 45 328 63 33 139 36 196 8z
m1060 0 c56 -29 90 -93 90 -170 l0 -55 -130 0 c-72 0 -130 -4 -130 -9 0 -5 14
-21 32 -36 30 -25 37 -27 112 -23 l80 3 8 -39 c10 -47 4 -53 -70 -62 -129 -16
-222 18 -262 95 -66 131 -4 278 133 312 38 9 103 1 137 -16z m-2312 -187 l-3
-193 -65 0 -65 0 -3 193 -2 192 70 0 70 0 -2 -192z m11100 63 c19 -10 20 -14
8 -54 -10 -34 -16 -41 -32 -37 -10 2 -39 4 -64 5 -66 0 -59 -23 19 -60 35 -17
72 -41 82 -54 26 -32 25 -104 -1 -141 -37 -52 -142 -75 -232 -50 -47 14 -51
21 -38 71 8 31 15 39 27 35 54 -21 102 -27 123 -16 33 18 20 40 -37 62 -137
51 -153 181 -29 240 44 20 135 20 174 -1z m368 0 c23 -10 50 -32 62 -48 25
-35 45 -109 40 -149 l-3 -29 -127 -3 c-71 -1 -128 -4 -128 -6 0 -52 109 -85
184 -56 29 11 41 -3 47 -55 4 -26 0 -31 -31 -42 -45 -15 -143 -16 -195 -2
-108 30 -167 174 -116 284 48 104 167 151 267 106z m438 -10 c48 -30 79 -91
80 -161 l1 -55 -127 -3 c-105 -2 -128 -5 -128 -17 0 -41 119 -70 184 -45 29
11 41 -3 47 -55 4 -26 0 -31 -31 -42 -44 -15 -143 -16 -192 -3 -116 33 -174
181 -116 297 51 101 188 142 282 84z m1052 10 c69 -32 109 -105 102 -189 l-3
-37 -127 -3 c-71 -1 -128 -4 -128 -6 0 -52 109 -85 184 -57 30 12 43 -1 48
-49 3 -32 0 -36 -32 -47 -44 -15 -143 -16 -195 -2 -113 32 -168 179 -110 295
49 97 164 139 261 95z m-2446 -113 c0 -142 10 -171 56 -176 51 -5 58 15 64
162 l5 131 60 0 60 0 3 -197 2 -198 -55 0 c-48 0 -55 2 -55 20 0 25 -2 25 -46
-5 -69 -47 -162 -25 -201 47 -14 26 -18 63 -21 171 -2 76 -1 144 2 152 4 11
22 15 66 15 l60 0 0 -122z m-10830 -823 l0 -285 -65 0 -65 0 0 285 0 285 65 0
65 0 0 -285z m952 255 c78 -22 128 -87 128 -167 -1 -105 -90 -183 -209 -183
l-56 0 3 -95 4 -95 -71 0 -71 0 0 269 0 270 23 4 c46 9 213 7 249 -3z m1138
-94 l0 -55 43 -3 42 -3 0 -45 0 -45 -43 -3 -43 -3 3 -92 3 -92 35 -5 c35 -5
35 -5 35 -55 l0 -50 -62 -3 c-72 -3 -96 7 -123 51 -17 26 -20 51 -20 140 l0
107 -25 0 c-23 0 -25 3 -25 50 0 47 2 50 25 50 23 0 25 4 25 44 0 43 1 43 43
53 85 21 87 20 87 -41z m8380 -291 l0 -286 -65 3 -66 3 0 278 c1 152 1 279 1
282 0 3 29 5 65 5 l65 0 0 -285z m1000 239 c68 -39 100 -118 80 -194 -23 -85
-106 -140 -212 -140 l-48 0 0 -95 0 -95 -65 0 -65 0 0 269 c0 248 1 270 18
275 9 2 71 4 137 3 101 -2 126 -5 155 -23z m-11097 -27 c47 -36 56 -70 59
-235 l3 -132 -57 0 c-45 0 -58 3 -58 15 0 12 -6 11 -32 -5 -41 -25 -119 -26
-158 -4 -60 36 -78 115 -37 174 31 47 77 71 147 77 64 6 78 22 38 44 -20 11
-84 8 -134 -7 -18 -5 -24 0 -34 31 -7 20 -10 39 -7 42 19 19 91 33 158 31 65
-3 81 -7 112 -31z m1025 20 c43 -16 91 -63 110 -107 37 -88 4 -208 -71 -258
-56 -37 -165 -44 -224 -13 -109 55 -143 186 -78 297 46 78 167 115 263 81z
m422 4 c22 -7 25 -12 22 -51 -2 -24 -4 -46 -6 -47 -2 -2 -26 2 -54 8 -41 10
-54 10 -67 -1 -25 -21 -17 -38 23 -50 115 -37 161 -117 113 -196 -30 -50 -80
-67 -177 -62 -101 5 -116 15 -102 66 14 52 14 51 55 36 49 -17 98 -17 112 -1
14 17 -7 37 -59 57 -74 29 -110 69 -110 123 0 35 40 89 80 109 36 18 122 23
170 9z m684 -14 c22 -12 49 -37 59 -56 23 -39 38 -107 30 -138 -5 -22 -9 -23
-134 -23 -83 0 -129 -4 -129 -10 0 -6 11 -22 25 -36 24 -24 31 -25 113 -23
l87 3 9 -37 c14 -53 1 -60 -108 -65 -77 -4 -101 -1 -138 16 -129 57 -151 242
-41 343 57 53 159 65 227 26z m10046 -62 l0 -55 45 0 45 0 0 -50 0 -50 -45 0
-45 0 0 -72 c0 -104 5 -118 45 -118 31 0 33 -2 39 -45 4 -25 4 -49 1 -55 -9
-15 -122 -12 -154 5 -43 22 -61 78 -61 190 0 95 0 95 -25 95 -23 0 -25 3 -25
50 0 46 2 50 24 50 22 0 25 5 28 42 3 40 5 43 43 54 22 7 50 13 63 13 20 1 22
-3 22 -54z m-1724 -71 c64 -47 69 -62 72 -225 l4 -149 -61 0 c-47 0 -61 3 -61
15 0 12 -6 11 -32 -5 -22 -13 -51 -20 -86 -20 -48 0 -58 4 -88 34 -29 29 -34
41 -34 80 0 99 48 138 193 161 38 6 38 7 21 26 -20 22 -67 25 -125 7 -22 -6
-42 -8 -45 -5 -4 4 -7 23 -8 43 -1 33 2 38 34 50 54 21 182 14 216 -12z m1049
7 c149 -67 152 -294 5 -368 -31 -16 -62 -23 -104 -23 -120 0 -196 67 -204 180
-10 137 73 230 208 230 32 0 72 -8 95 -19z m424 8 c22 -8 30 -16 27 -28 -3 -9
-8 -29 -12 -44 -5 -23 -11 -27 -28 -22 -53 15 -87 17 -101 5 -25 -21 -18 -30
48 -59 79 -35 107 -69 107 -126 0 -50 -28 -91 -76 -111 -63 -26 -224 -12 -224
19 0 7 5 28 10 48 l10 37 38 -14 c50 -18 97 -17 112 1 17 21 1 38 -51 55 -63
21 -109 69 -109 114 0 83 61 135 161 136 31 0 70 -5 88 -11z m654 -3 c39 -16
84 -67 94 -104 4 -15 7 -47 7 -72 l1 -45 -135 -5 -135 -5 33 -34 33 -33 84 4
c91 5 85 8 99 -54 6 -24 3 -28 -31 -37 -67 -19 -181 -14 -231 10 -109 53 -138
221 -54 321 51 61 160 86 235 54z m-20083 -1296 l0 -500 -250 0 -250 0 0 -41
c0 -22 -4 -38 -9 -35 -5 3 -23 -10 -40 -29 l-31 -36 0 -194 0 -195 -240 0
-240 0 0 198 0 198 -34 33 c-22 22 -36 45 -38 65 l-3 31 -247 3 -248 2 0 500
0 500 815 0 815 0 0 -500z m5040 0 l0 -500 -247 -2 -248 -3 -6 -38 c-4 -23
-18 -51 -37 -70 l-32 -32 -2 -190 -3 -190 -237 -3 -238 -2 0 194 0 194 -40 36
c-32 29 -40 43 -40 71 l0 35 -250 0 -250 0 0 493 c0 272 3 497 7 500 3 4 370
7 815 7 l808 0 0 -500z m-928 -1901 c122 -26 237 -117 299 -237 33 -64 34 -71
34 -177 0 -105 -1 -113 -34 -176 -40 -79 -86 -129 -158 -176 -143 -91 -275
-93 -438 -6 -52 28 -129 116 -165 188 -33 66 -35 75 -35 170 0 95 2 105 35
170 45 90 114 163 193 203 95 49 174 61 269 41z"/>
<path d="M17775 15270 c-11 -12 -20 -41 -23 -73 -4 -46 -1 -57 19 -79 34 -37
61 -42 92 -17 25 18 27 27 27 88 0 53 -4 72 -18 84 -26 23 -75 21 -97 -3z"/>
<path d="M28430 15138 c-30 -33 -32 -118 -2 -151 26 -29 54 -36 83 -21 33 17
39 32 39 103 0 43 -5 62 -18 74 -26 24 -77 21 -102 -5z"/>
<path d="M16276 15278 c-9 -12 -16 -26 -16 -30 0 -5 32 -8 70 -8 39 0 70 3 70
8 0 4 -7 18 -16 30 -11 16 -25 22 -54 22 -29 0 -43 -6 -54 -22z"/>
<path d="M16721 15264 c-33 -42 -29 -108 9 -145 33 -34 62 -33 93 3 22 26 23
115 1 146 -22 32 -76 30 -103 -4z"/>
<path d="M17176 15278 c-9 -12 -16 -26 -16 -30 0 -5 32 -8 70 -8 39 0 70 3 70
8 0 4 -7 18 -16 30 -11 16 -25 22 -54 22 -29 0 -43 -6 -54 -22z"/>
<path d="M18240 15280 c-33 -33 -24 -40 50 -40 75 0 88 11 52 43 -25 23 -78
21 -102 -3z"/>
<path d="M27407 15152 c-28 -31 -20 -37 53 -37 39 0 70 2 70 5 0 3 -7 16 -16
28 -20 28 -83 31 -107 4z"/>
<path d="M27826 15151 c-10 -11 -16 -23 -15 -28 2 -4 34 -6 72 -3 l68 5 -16
23 c-21 29 -84 31 -109 3z"/>
<path d="M28897 15152 c-28 -31 -20 -37 53 -37 39 0 70 2 70 5 0 3 -7 16 -16
28 -20 28 -83 31 -107 4z"/>
<path d="M16579 14476 c-2 -2 -3 -38 -1 -80 l4 -76 29 0 c86 0 130 80 74 135
-17 18 -35 25 -63 25 -21 0 -41 -2 -43 -4z"/>
<path d="M27050 14270 c0 -79 0 -80 25 -80 76 0 128 55 104 112 -15 36 -37 48
-88 48 l-41 0 0 -80z"/>
<path d="M16003 14199 c-57 -17 -54 -89 3 -89 33 0 64 34 64 70 0 33 -10 36
-67 19z"/>
<path d="M17034 14317 c-22 -19 -28 -34 -32 -79 -7 -93 35 -144 98 -118 80 33
55 220 -29 220 -5 0 -22 -10 -37 -23z"/>
<path d="M18110 14313 l-22 -28 67 -3 c37 -2 70 -1 73 2 2 3 -3 17 -12 31 -24
36 -77 35 -106 -2z"/>
<path d="M26463 14070 c-47 -19 -52 -75 -7 -86 39 -10 74 20 74 61 0 30 -3 35
-22 34 -13 0 -33 -4 -45 -9z"/>
<path d="M27495 14186 c-68 -68 -22 -222 60 -202 32 8 55 54 55 111 0 99 -60
146 -115 91z"/>
<path d="M28588 14199 c-10 -5 -22 -19 -28 -29 -10 -19 -7 -20 64 -20 67 0 75
2 69 18 -13 39 -66 54 -105 31z"/>
<path d="M7999 13185 c-26 -14 -42 -43 -55 -97 -4 -19 -13 -28 -25 -28 -14 0
-19 -7 -19 -30 0 -23 4 -30 20 -30 18 0 20 -8 22 -122 l3 -123 45 0 45 0 5
120 5 120 28 3 c22 3 27 8 27 32 0 24 -5 29 -27 32 -50 6 -38 68 13 68 13 0
24 6 24 13 0 6 3 22 6 35 6 21 3 22 -42 22 -27 -1 -61 -7 -75 -15z"/>
<path d="M8267 13148 l-25 -43 30 -3 c24 -3 36 4 63 35 19 21 34 41 35 46 0 4
-18 7 -39 7 -35 0 -41 -4 -64 -42z"/>
<path d="M7331 13154 c-75 -38 -105 -86 -109 -178 -6 -121 48 -192 162 -216
33 -7 72 -8 102 -3 48 8 49 9 49 43 l0 35 -48 -3 c-105 -7 -167 42 -167 132 0
100 71 158 167 138 48 -11 48 -10 57 34 8 38 -6 44 -100 44 -45 0 -73 -7 -113
-26z"/>
<path d="M7628 13049 c-22 -9 -25 -14 -18 -37 4 -16 13 -25 21 -23 45 12 100
12 114 1 25 -21 18 -28 -35 -35 -100 -14 -151 -79 -117 -150 24 -50 80 -65
136 -38 38 19 40 19 44 1 4 -14 15 -18 47 -18 l42 0 -4 118 c-5 127 -13 154
-58 177 -32 17 -130 19 -172 4z m130 -181 c-2 -26 -9 -35 -31 -43 -24 -8 -31
-6 -42 9 -23 31 5 64 58 65 15 1 18 -5 15 -31z"/>
<path d="M8215 13050 c-74 -30 -110 -154 -65 -227 33 -55 109 -80 193 -64 27
5 50 10 52 12 2 2 1 17 -2 33 -6 28 -7 28 -54 22 -50 -7 -119 13 -119 33 0 6
40 11 98 13 l97 3 -2 48 c-4 60 -25 102 -63 122 -31 16 -102 19 -135 5z m99
-72 c24 -34 20 -38 -39 -38 -59 0 -68 10 -38 42 22 25 59 23 77 -4z"/>
<path d="M13049 13185 c-25 -14 -59 -77 -59 -110 0 -8 -9 -15 -20 -15 -16 0
-20 -7 -20 -30 0 -23 4 -30 20 -30 18 0 20 -8 22 -122 l3 -123 45 0 45 0 5
120 5 120 28 3 c22 3 27 8 27 32 0 24 -5 29 -27 32 -50 6 -38 68 13 68 13 0
24 6 24 13 0 6 3 22 6 35 6 21 3 22 -42 22 -27 -1 -61 -7 -75 -15z"/>
<path d="M13306 13148 l-26 -43 31 -3 c25 -3 37 4 64 35 19 21 34 41 35 46 0
4 -18 7 -39 7 -36 0 -42 -4 -65 -42z"/>
<path d="M12381 13154 c-75 -38 -105 -86 -109 -178 -6 -121 48 -192 162 -216
33 -7 72 -8 102 -3 48 8 49 9 49 43 l0 35 -48 -3 c-63 -4 -110 12 -142 49 -36
43 -36 128 0 175 32 42 89 59 142 45 42 -12 48 -8 57 35 8 38 -6 44 -100 44
-45 0 -73 -7 -113 -26z"/>
<path d="M12678 13049 c-22 -9 -25 -14 -18 -37 4 -16 13 -25 21 -23 45 12 100
12 114 1 24 -20 18 -27 -32 -35 -87 -13 -133 -51 -133 -110 0 -43 24 -72 70
-86 33 -10 44 -9 79 8 39 19 40 19 44 1 4 -16 13 -19 44 -16 l38 3 0 111 c0
123 -10 156 -57 180 -30 16 -129 17 -170 3z m130 -181 c-2 -26 -9 -35 -31 -43
-24 -8 -31 -6 -42 9 -23 31 5 64 58 65 15 1 18 -5 15 -31z"/>
<path d="M13254 13050 c-32 -13 -72 -67 -80 -106 -22 -121 38 -188 168 -187
77 0 97 11 90 49 -5 25 -7 26 -53 20 -33 -5 -60 -2 -84 8 -60 25 -42 36 59 36
108 0 112 4 96 76 -13 56 -33 88 -66 102 -29 14 -99 15 -130 2z m100 -72 c24
-34 20 -38 -39 -38 -59 0 -68 10 -38 42 22 25 59 23 77 -4z"/>
<path d="M12310 10659 l0 -142 76 5 c64 4 80 9 101 31 21 21 25 31 19 60 -4
23 -14 38 -26 42 -25 8 -25 16 0 38 11 9 20 28 20 42 0 39 -51 65 -127 65
l-63 0 0 -141z m125 71 c0 -16 -8 -29 -24 -37 -33 -16 -41 -9 -41 33 0 34 1
35 33 32 27 -2 32 -7 32 -28z m-7 -96 c33 -23 25 -56 -16 -68 -45 -13 -51 -1
-43 77 2 13 36 8 59 -9z"/>
<path d="M12570 10686 c0 -137 9 -155 83 -163 57 -7 98 9 116 45 8 15 16 71
19 130 l4 102 -25 0 c-25 0 -25 0 -29 -105 -2 -66 -8 -109 -15 -117 -18 -17
-82 -15 -94 3 -5 7 -9 60 -9 117 l0 102 -25 0 -25 0 0 -114z"/>
<path d="M12883 10780 c-27 -16 -33 -26 -33 -54 0 -39 9 -50 74 -89 66 -38 60
-61 -16 -65 -64 -3 -86 -26 -42 -42 60 -23 127 -5 153 41 22 40 1 81 -57 111
-37 19 -47 30 -47 49 0 22 4 24 45 25 37 0 45 4 45 20 0 28 -79 31 -122 4z"/>
<path d="M900 18080 l0 -300 1905 0 1905 0 0 215 0 215 -515 0 -515 0 0 85 0
85 -1390 0 -1390 0 0 -300z"/>
<path d="M33160 17980 l0 -300 145 0 145 0 0 -1780 0 -1780 235 0 235 0 0
-1455 0 -1455 580 0 580 0 0 1455 0 1455 -120 0 -120 0 0 1780 c0 1773 0 1780
20 1780 20 0 20 7 20 300 l0 300 -860 0 -860 0 0 -300z"/>
<path d="M890 15695 l0 -1575 -445 0 -445 0 0 -1455 0 -1455 597 0 596 0 -6
2183 c-4 1200 -7 2563 -7 3030 l0 847 -145 0 -145 0 0 -1575z"/>
<path d="M4460 8315 l0 -315 2655 0 2655 0 0 315 0 315 -2655 0 -2655 0 0
-315z"/>
<path d="M33920 8315 l0 -315 565 0 565 0 0 315 0 315 -565 0 -565 0 0 -315z"/>
<path d="M0 4650 l0 -1210 445 0 445 0 0 -750 0 -750 1133 0 c624 0 1485 3
1915 7 l782 6 0 744 0 743 1320 0 1320 0 0 1060 0 1060 7360 0 7360 0 0 -1060
0 -1060 1455 0 1455 0 0 -1535 0 -1535 4875 0 4875 0 0 1535 0 1535 155 0 155
0 0 1205 0 1205 -13108 0 c-7210 0 -14102 3 -15315 7 l-2207 6 0 -1211 0
-1212 -1615 0 -1615 0 0 1210 0 1210 -595 0 -595 0 0 -1210z m29448 -272 c31
-9 33 -12 26 -41 -15 -69 -21 -78 -49 -67 -15 6 -57 10 -94 10 -54 0 -75 -5
-102 -23 -47 -31 -72 -87 -72 -158 1 -105 62 -169 159 -169 l54 0 0 54 0 55
-37 3 -38 3 0 50 0 50 103 3 103 3 -3 -153 -3 -153 -55 -13 c-31 -7 -94 -11
-145 -9 -77 2 -98 7 -143 32 -87 47 -132 128 -132 238 0 80 13 124 53 183 68
101 233 145 375 102z m402 -167 c63 -33 75 -67 78 -233 l4 -148 -61 0 c-47 0
-61 3 -61 15 0 12 -6 11 -32 -5 -40 -24 -107 -26 -148 -5 -59 30 -78 120 -40
183 22 36 86 71 135 73 17 0 41 4 54 8 23 6 23 7 7 24 -20 20 -72 22 -129 6
-22 -6 -41 -9 -43 -6 -2 2 -5 21 -7 43 -2 36 0 39 33 51 56 19 169 16 210 -6z
m420 -41 l0 -60 -39 0 c-31 0 -44 -6 -60 -26 -18 -23 -21 -41 -21 -140 l0
-114 -65 0 -65 0 0 195 0 195 55 0 c53 0 55 -1 55 -26 l0 -26 35 31 c25 22 46
31 70 31 l35 0 0 -60z m314 46 c18 -8 46 -31 62 -51 23 -31 29 -50 32 -106 l4
-69 -130 0 c-126 0 -130 -1 -125 -20 10 -37 58 -53 144 -47 l77 5 6 -30 c3
-17 6 -36 6 -44 0 -33 -180 -47 -247 -19 -78 33 -116 96 -117 192 0 118 84
203 201 203 29 0 69 -6 87 -14z m-3040 -879 c14 -46 36 -128 50 -183 l24 -99
11 43 c6 23 16 61 22 85 6 23 24 86 40 140 l30 97 84 0 c47 0 85 -3 85 -7 0
-5 7 -127 15 -273 8 -145 11 -268 6 -273 -4 -4 -32 -7 -62 -5 l-54 3 -10 200
c-7 130 -13 190 -18 170 -4 -16 -31 -106 -59 -198 l-51 -168 -51 3 -51 3 -43
165 c-24 91 -47 174 -52 185 -4 11 -10 -62 -15 -168 -8 -211 -4 -202 -91 -195
-32 2 -39 7 -37 23 1 11 6 108 12 215 6 107 14 223 17 258 l6 62 84 0 83 0 25
-83z m1536 -22 l0 -55 45 0 45 0 0 -49 0 -50 -42 -3 -43 -3 0 -88 c0 -94 9
-112 51 -102 25 6 34 -10 34 -60 0 -24 -6 -38 -19 -45 -29 -15 -88 -12 -127 6
-53 25 -67 63 -71 184 -3 104 -3 105 -28 108 -24 3 -26 7 -23 50 3 42 6 47 28
50 23 3 25 6 22 42 -4 38 -3 39 40 50 23 6 48 13 53 15 30 11 35 3 35 -50z
m-795 -64 c48 -22 89 -67 105 -117 17 -51 7 -145 -20 -189 -55 -89 -196 -119
-292 -63 -91 54 -123 174 -72 276 48 97 176 140 279 93z m492 -1 c59 -36 68
-67 68 -235 l0 -150 -60 0 -60 0 -5 131 c-5 143 -13 164 -60 164 -47 0 -55
-21 -60 -164 l-5 -131 -65 0 -65 0 0 195 0 195 58 3 c52 3 57 1 57 -18 0 -25
1 -25 46 5 45 31 106 33 151 5z m761 6 c34 -18 65 -51 87 -95 13 -26 16 -53
13 -112 -3 -68 -7 -82 -34 -116 -33 -42 -104 -83 -144 -83 -14 0 -42 8 -63 19
l-36 18 -3 -91 -3 -91 -62 -3 -63 -3 -2 256 c-1 140 -2 265 -2 278 -1 20 4 22
57 25 52 3 57 1 57 -18 0 -22 15 -27 26 -9 21 35 124 50 172 25z m440 -14 c58
-42 66 -70 67 -232 l0 -145 -53 -3 c-47 -3 -54 -1 -59 17 -5 20 -6 20 -29 2
-90 -71 -238 6 -221 115 12 73 75 121 173 131 60 6 72 25 28 45 -23 11 -62 7
-134 -13 -20 -6 -43 61 -27 78 21 20 80 32 152 30 55 -2 77 -7 103 -25z m407
-36 l0 -58 -38 -3 c-64 -4 -71 -19 -77 -158 l-5 -122 -54 -3 c-30 -2 -57 0
-62 5 -4 4 -9 94 -10 198 l-2 190 57 3 56 3 0 -33 c1 -28 2 -30 11 -15 16 28
71 58 99 55 24 -3 25 -6 25 -62z m366 41 c61 -40 70 -73 67 -237 l-3 -145 -60
0 -60 0 -5 131 c-5 139 -14 164 -54 164 -12 0 -31 -6 -42 -14 -17 -13 -20 -31
-24 -148 l-5 -133 -54 -3 c-30 -2 -57 0 -62 5 -4 4 -9 94 -10 198 l-2 190 57
3 c51 3 56 1 56 -18 0 -22 15 -27 26 -9 11 18 66 38 105 39 21 0 50 -9 70 -23z
m427 -5 c58 -42 66 -70 67 -232 l0 -145 -53 -3 c-47 -3 -54 -1 -59 17 -5 21
-5 21 -30 1 -55 -43 -141 -34 -187 20 -78 94 -6 212 139 227 61 6 73 25 29 45
-23 11 -68 6 -133 -13 -19 -6 -44 66 -28 79 24 20 84 31 152 29 55 -2 77 -7
103 -25z m392 17 c31 -11 32 -13 26 -52 -4 -23 -8 -43 -10 -45 -2 -2 -26 1
-54 6 -89 16 -114 -23 -34 -53 65 -25 90 -43 108 -76 54 -105 -48 -202 -196
-185 -30 4 -64 13 -76 21 -20 13 -21 17 -11 55 10 38 14 41 37 35 66 -16 116
-17 128 -3 15 18 -5 38 -58 58 -105 41 -135 108 -83 186 35 54 145 80 223 53z
m364 -8 c11 -9 12 -20 3 -52 -9 -39 -11 -41 -41 -34 -34 8 -84 7 -97 -1 -20
-12 -5 -26 54 -53 79 -36 107 -69 107 -127 0 -94 -104 -152 -228 -126 -71 15
-77 21 -65 69 10 41 12 42 85 28 46 -9 88 1 88 20 0 8 -27 27 -63 43 -76 35
-107 70 -107 123 0 44 36 94 85 116 35 16 157 12 179 -6z m359 5 c64 -26 107
-102 107 -188 l0 -38 -130 0 c-106 0 -130 -3 -130 -14 0 -44 82 -74 160 -57
29 6 55 9 57 7 8 -8 22 -80 17 -87 -9 -15 -119 -31 -170 -26 -55 6 -119 33
-146 64 -74 81 -59 243 29 310 56 43 144 55 206 29z"/>
<path d="M29728 3998 c-50 -18 -38 -87 15 -88 27 0 57 37 57 70 0 25 -4 30
-22 29 -13 0 -35 -5 -50 -11z"/>
<path d="M30440 4120 c-33 -33 -24 -40 50 -40 75 0 88 11 52 43 -25 23 -78 21
-102 -3z"/>
<path d="M28174 3170 c-37 -14 -54 -50 -54 -113 0 -48 4 -62 25 -82 48 -49
108 -18 121 62 13 82 -37 153 -92 133z"/>
<path d="M29380 3140 c-16 -16 -20 -33 -20 -80 0 -72 21 -100 73 -100 51 0 72
29 72 100 0 43 -5 63 -19 79 -25 27 -79 28 -106 1z"/>
<path d="M29860 3041 c-35 -10 -59 -54 -41 -75 32 -39 101 -2 101 54 0 32 -9
35 -60 21z"/>
<path d="M31062 3043 c-59 -11 -62 -93 -3 -93 36 0 61 28 61 68 0 33 -4 35
-58 25z"/>
<path d="M32163 3156 c-15 -13 -25 -27 -22 -31 4 -3 38 -5 75 -3 l69 3 -27 28
c-33 33 -58 34 -95 3z"/>
</g>
</svg>
