<?xml version="1.0" encoding="UTF-8" standalone="no"?>
<!-- Created with Inkscape (http://www.inkscape.org/) -->

<svg xmlns:dc="http://purl.org/dc/elements/1.1/" xmlns:cc="http://creativecommons.org/ns#" xmlns:rdf="http://www.w3.org/1999/02/22-rdf-syntax-ns#" xmlns:svg="http://www.w3.org/2000/svg" xmlns="http://www.w3.org/2000/svg" xmlns:inkscape="http://www.inkscape.org/namespaces/inkscape" version="1.0" width="3508pt" height="2480pt" viewBox="0 0 3508 2480" id="svg2">
  <defs id="defs324" />
  <metadata id="metadata4">
Created by potrace 1.11, written by Peter Selinger 2001-2013
<rdf:RDF>
  <cc:Work rdf:about="">
    <dc:format>image/svg+xml</dc:format>
    <dc:type rdf:resource="http://purl.org/dc/dcmitype/StillImage" />
  </cc:Work>
</rdf:RDF>
</metadata>
  <g transform="matrix(0.1,0,0,-0.1,0,2480)" id="g6" style="fill:#000000;stroke:none">
    <path d="m 1563,23612 c -18,-2 -33,-5 -33,-7 0,-2 -7,-39 -15,-82 -19,-99 -20,-95 12,-91 26,3 28,7 42,86 l 14,82 42,0 c 56,0 74,-20 51,-55 -13,-20 -25,-25 -58,-25 l -41,0 39,-44 c 31,-35 46,-44 73,-45 l 35,-1 -32,33 c -18,18 -32,36 -32,39 0,3 12,9 28,13 52,13 81,61 50,82 -16,9 -130,19 -175,15 z" inkscape:connector-curvature="0" id="path8" />
    <path d="m 2830,22736 c 0,-795 2,-884 16,-890 8,-3 2189,-6 4845,-6 l 4829,0 0,890 0,890 -4845,0 -4845,0 0,-884 z m 6610,187 0,-147 28,26 c 37,35 94,52 150,44 106,-14 172,-103 172,-229 0,-96 -17,-144 -70,-198 -46,-48 -94,-69 -155,-69 -40,0 -109,33 -128,60 -15,22 -16,22 -19,-11 l -3,-34 -62,-3 -63,-3 0,356 0,355 75,0 75,0 0,-147 z m 1130,-208 0,-355 -75,0 -75,0 0,355 0,355 75,0 75,0 0,-355 z m -5920,270 -61,-75 -51,0 -50,0 38,68 c 20,37 39,70 41,75 2,4 36,7 74,7 l 70,0 -61,-75 z m 6185,50 c 14,-13 25,-36 25,-50 0,-36 -42,-75 -80,-75 -38,0 -80,39 -80,75 0,36 42,75 80,75 19,0 40,-9 55,-25 z m -2294,-15 37,-10 -16,-60 c -12,-42 -20,-59 -30,-55 -7,2 -42,9 -76,15 -100,16 -193,-8 -243,-62 -49,-52 -66,-146 -42,-231 22,-82 115,-147 210,-147 66,0 69,4 69,86 l 0,74 -50,0 -50,0 0,60 0,60 125,0 125,0 -2,-182 -3,-182 -50,-14 c -29,-8 -99,-14 -170,-15 -101,-1 -129,3 -175,21 -79,31 -124,73 -162,150 -30,61 -33,74 -33,162 1,112 19,162 85,234 75,81 187,119 330,111 47,-3 101,-9 121,-15 z m -4763,-172 c 29,-101 55,-202 58,-226 4,-23 10,-44 14,-47 3,-2 15,31 25,73 10,42 39,145 65,227 l 48,150 101,3 101,3 0,-38 c 0,-21 7,-150 15,-288 8,-137 15,-271 15,-297 l 0,-48 -69,0 -69,0 -6,63 c -3,34 -9,151 -13,260 l -8,199 -38,-129 c -21,-70 -56,-185 -78,-255 l -40,-128 -59,0 -59,0 -11,43 c -7,23 -27,96 -45,162 -19,66 -43,160 -54,208 -10,49 -21,90 -24,93 -2,2 -7,-80 -11,-183 -3,-104 -9,-221 -13,-260 l -6,-73 -69,0 -70,0 6,48 c 3,26 13,176 23,335 l 17,287 101,0 102,0 51,-182 z m 2752,-88 0,-269 133,-3 132,-3 3,-62 3,-63 -211,0 -210,0 0,335 0,335 75,0 75,0 0,-270 z m -1500,145 0,-65 55,0 55,0 0,-55 0,-55 -55,0 -55,0 0,-110 c 0,-98 2,-112 21,-131 15,-15 30,-20 50,-17 l 29,5 0,-58 0,-58 -36,-7 c -47,-9 -118,2 -150,22 -48,32 -58,67 -62,217 l -4,137 -29,0 c -28,0 -29,1 -29,55 0,54 0,55 30,55 29,0 30,2 30,45 l 0,44 58,16 c 31,9 62,18 67,20 23,8 25,2 25,-60 z m -372,-79 c 64,-33 101,-100 109,-197 l 6,-69 -162,0 c -179,0 -188,-4 -133,-60 35,-35 102,-47 181,-32 31,5 59,7 63,3 4,-3 8,-26 10,-51 l 3,-44 -50,-12 c -117,-28 -236,-9 -302,49 -52,46 -73,98 -73,183 0,59 5,81 28,125 30,58 87,105 143,120 45,11 143,3 177,-15 z m 872,-45 0,-68 -47,-6 c -37,-4 -54,-12 -75,-36 -28,-31 -28,-32 -28,-171 l 0,-140 -75,0 -75,0 0,240 0,240 65,0 65,0 0,-47 0,-48 26,39 c 28,40 71,65 117,66 27,0 27,0 27,-69 z m 425,41 c 86,-44 128,-117 128,-223 0,-180 -158,-288 -341,-234 -106,32 -166,117 -165,236 0,115 61,201 163,234 61,20 164,14 215,-13 z m 1243,4 c 64,-33 101,-100 109,-197 l 6,-69 -162,0 c -179,0 -188,-4 -133,-60 35,-35 102,-47 181,-32 31,5 59,7 63,3 4,-3 8,-26 10,-51 l 3,-44 -50,-12 c -117,-28 -236,-9 -302,49 -52,46 -73,98 -73,183 0,59 5,81 28,125 30,58 87,105 143,120 45,11 143,3 177,-15 z m 494,5 c 26,-10 26,-10 14,-58 -7,-26 -14,-47 -17,-47 -109,29 -163,22 -157,-18 3,-23 9,-26 110,-73 64,-29 89,-61 95,-119 12,-120 -142,-198 -300,-152 -62,18 -65,23 -47,88 l 11,37 41,-15 c 60,-21 135,-19 147,4 11,21 -11,62 -33,62 -31,0 -137,63 -151,90 -43,84 4,178 105,209 39,12 142,7 182,-8 z m 1373,-9 c 86,-44 128,-117 128,-223 0,-180 -158,-288 -341,-234 -106,32 -166,117 -165,236 0,115 61,201 163,234 61,20 164,14 215,-13 z m 1153,4 c 64,-33 101,-100 109,-197 l 6,-69 -162,0 c -179,0 -188,-4 -133,-60 35,-35 102,-47 181,-32 31,5 59,7 63,3 4,-3 8,-26 10,-51 l 3,-44 -50,-12 c -117,-28 -236,-9 -302,49 -52,46 -73,98 -73,183 0,59 5,81 28,125 30,58 87,105 143,120 45,11 143,3 177,-15 z m 1118,3 c 33,-15 49,-32 68,-72 25,-49 26,-58 26,-224 l 0,-173 -74,0 -75,0 -3,166 c -3,160 -4,166 -27,185 -33,27 -68,24 -102,-10 l -29,-29 0,-156 0,-156 -75,0 -75,0 0,240 0,240 65,0 65,0 0,-37 0,-37 28,27 c 60,57 137,71 208,36 z m 516,2 c 26,-10 26,-10 14,-58 -7,-26 -14,-47 -17,-47 -109,29 -163,22 -157,-18 3,-23 9,-26 110,-73 64,-29 89,-61 95,-119 12,-120 -142,-198 -300,-152 -62,18 -65,23 -47,88 l 11,37 41,-15 c 60,-21 135,-19 147,4 11,21 -11,62 -33,62 -31,0 -137,63 -151,90 -43,84 4,178 105,209 39,12 142,7 182,-8 z m -1002,-231 0,-240 -75,0 -75,0 0,240 0,240 75,0 75,0 0,-240 z" inkscape:connector-curvature="0" id="path10" />
    <path d="m 9473,22706 c -26,-23 -28,-29 -28,-106 0,-77 2,-83 28,-106 61,-53 152,-12 164,73 13,98 -25,163 -96,163 -28,0 -48,-7 -68,-24 z" inkscape:connector-curvature="0" id="path12" />
    <path d="m 4479,22721 c -51,-52 -42,-61 62,-61 l 91,0 -6,28 c -16,66 -96,84 -147,33 z" inkscape:connector-curvature="0" id="path14" />
    <path d="m 5777,22720 c -73,-58 -56,-225 27,-254 104,-38 172,146 90,244 -31,36 -78,40 -117,10 z" inkscape:connector-curvature="0" id="path16" />
    <path d="m 7019,22721 c -51,-52 -42,-61 62,-61 l 91,0 -6,28 c -16,66 -96,84 -147,33 z" inkscape:connector-curvature="0" id="path18" />
    <path d="m 8887,22720 c -73,-58 -56,-225 27,-254 104,-38 172,146 90,244 -31,36 -78,40 -117,10 z" inkscape:connector-curvature="0" id="path20" />
    <path d="m 10039,22721 c -51,-52 -42,-61 62,-61 l 91,0 -6,28 c -16,66 -96,84 -147,33 z" inkscape:connector-curvature="0" id="path22" />
    <path d="m 1849,23522 c -75,-85 -97,-123 -41,-69 24,23 37,27 85,27 52,0 59,-3 69,-25 8,-18 19,-25 40,-25 15,0 28,3 28,6 0,12 -92,174 -98,174 -4,-1 -41,-40 -83,-88 z m 76,-2 16,-30 -46,0 -46,0 21,30 c 12,17 25,30 30,30 5,0 16,-13 25,-30 z" inkscape:connector-curvature="0" id="path24" />
    <path d="m 2088,23603 c 63,-5 61,2 27,-150 -5,-20 -1,-23 24,-23 24,0 30,5 35,28 3,15 10,53 16,84 l 11,57 52,4 c 29,2 -9,3 -83,3 -74,0 -111,-1 -82,-3 z" inkscape:connector-curvature="0" id="path26" />
    <path d="m 2356,23598 c -8,-25 -26,-132 -26,-150 0,-12 7,-18 24,-18 20,0 25,6 31,40 l 7,40 67,0 c 44,0 74,5 89,16 24,17 29,53 10,72 -17,17 -197,17 -202,0 z m 152,-24 c 5,-32 -24,-54 -69,-54 -41,0 -46,8 -33,58 6,20 12,23 53,20 38,-2 47,-7 49,-24 z" inkscape:connector-curvature="0" id="path28" />
    <path d="m 30750,23484 c -90,-24 -177,-72 -247,-137 -133,-124 -193,-261 -193,-437 0,-176 60,-313 191,-435 107,-100 247,-155 392,-155 104,0 167,15 267,62 142,68 251,195 306,358 15,42 19,83 18,175 0,134 -19,201 -85,311 -71,117 -222,226 -360,259 -80,18 -217,18 -289,-1 z m 251,-234 c 29,-6 69,-19 89,-29 101,-52 107,-188 9,-245 l -32,-19 35,-18 c 148,-76 118,-285 -46,-334 -66,-20 -204,-30 -289,-21 l -67,8 0,328 0,329 53,4 c 112,8 197,7 248,-3 z" inkscape:connector-curvature="0" id="path30" />
    <path d="m 30850,23076 0,-76 44,0 c 84,0 126,28 126,83 0,40 -34,61 -106,65 l -64,4 0,-76 z" inkscape:connector-curvature="0" id="path32" />
    <path d="m 30850,22790 0,-100 45,0 c 86,0 145,42 145,103 0,63 -49,97 -140,97 l -50,0 0,-100 z" inkscape:connector-curvature="0" id="path34" />
    <path d="m 31878,23458 c -27,-11 -48,-25 -48,-30 0,-12 28,-78 33,-78 3,0 18,7 33,15 41,21 107,19 127,-3 21,-23 22,-64 3,-100 -8,-15 -57,-69 -110,-121 -84,-82 -96,-98 -96,-127 l 0,-34 175,0 175,0 0,50 0,50 -85,0 -86,0 59,58 c 73,71 102,125 102,190 0,60 -30,109 -80,134 -49,25 -142,23 -202,-4 z" inkscape:connector-curvature="0" id="path36" />
    <path d="m 32230,23420 0,-50 110,0 c 61,0 110,-2 110,-4 0,-2 -43,-86 -95,-188 -52,-102 -95,-188 -95,-192 0,-3 27,-6 61,-6 l 60,0 100,206 c 73,153 99,216 99,245 l 0,39 -175,0 -175,0 0,-50 z" inkscape:connector-curvature="0" id="path38" />
    <path d="m 33162,23458 c -5,-7 -46,-73 -91,-147 -69,-113 -81,-140 -81,-177 l 0,-44 105,0 105,0 0,-55 0,-55 55,0 55,0 0,55 c 0,54 0,55 30,55 29,0 30,2 30,45 0,43 -1,45 -30,45 l -30,0 0,145 0,145 -69,0 c -43,0 -72,-5 -79,-12 z m 38,-188 0,-90 -51,0 c -28,0 -49,3 -47,8 8,19 93,172 96,172 1,0 2,-40 2,-90 z" inkscape:connector-curvature="0" id="path40" />
    <path d="m 33412,23423 3,-48 108,-3 c 59,-1 107,-5 107,-9 0,-3 -43,-88 -95,-189 -52,-100 -95,-185 -95,-188 0,-3 27,-6 60,-6 l 60,0 100,206 c 74,152 100,217 100,245 l 0,39 -176,0 -175,0 3,-47 z" inkscape:connector-curvature="0" id="path42" />
    <path d="m 1850,23314 c -95,-25 -197,-82 -268,-148 l -66,-63 55,-26 c 30,-14 66,-34 81,-44 27,-17 28,-17 55,9 152,141 384,158 560,41 158,-105 235,-304 188,-488 -27,-104 -63,-165 -146,-246 l -78,-77 -16,-83 c -8,-45 -14,-83 -12,-85 7,-7 126,49 175,82 71,50 162,150 201,223 69,131 89,306 51,455 -29,116 -73,190 -165,281 -89,90 -182,143 -295,169 -81,20 -247,19 -320,0 z" inkscape:connector-curvature="0" id="path44" />
    <path d="m 1228,23044 c -47,-14 -48,-16 -48,-55 0,-34 3,-39 18,-35 146,44 268,31 367,-39 130,-92 154,-106 196,-113 24,-4 72,-4 107,1 35,5 65,7 67,5 3,-2 8,-28 12,-58 7,-49 10,-54 43,-65 27,-9 36,-18 40,-41 5,-24 10,-29 35,-29 27,0 30,-4 33,-33 3,-26 10,-35 39,-47 40,-17 41,-8 -11,-142 -65,-168 -95,-399 -65,-505 9,-36 12,-38 49,-38 l 39,0 -10,32 c -14,51 -11,221 7,306 14,69 69,242 105,330 18,43 5,63 -51,76 -45,11 -47,13 -66,85 -3,9 -12,11 -28,7 -21,-5 -25,-2 -28,21 -2,20 -12,32 -35,42 -26,12 -33,21 -38,55 -14,89 -15,90 -125,75 -97,-13 -127,-5 -207,58 -142,110 -306,150 -445,107 z" inkscape:connector-curvature="0" id="path46" />
    <path d="m 1388,22873 c -8,-25 -13,-86 -13,-173 0,-162 19,-229 97,-345 101,-152 263,-251 441,-270 75,-8 66,-18 84,97 l 10,58 -36,5 c -134,22 -215,62 -294,146 -101,108 -152,281 -117,399 10,33 8,37 -21,62 -28,23 -106,58 -130,58 -4,0 -13,-17 -21,-37 z" inkscape:connector-curvature="0" id="path48" />
    <path d="m 31915,22596 c -50,-22 -77,-60 -83,-114 -4,-44 -1,-52 27,-85 l 32,-36 -25,-16 c -13,-9 -31,-31 -40,-50 -49,-103 29,-194 168,-195 110,0 186,60 186,146 0,44 -28,97 -60,114 -21,11 -21,12 11,47 28,33 31,41 27,85 -6,54 -27,84 -75,104 -41,18 -129,17 -168,0 z m 119,-82 c 22,-21 20,-60 -4,-84 -25,-25 -31,-25 -64,1 -44,35 -26,99 29,99 13,0 31,-7 39,-16 z m -15,-209 c 46,-23 55,-71 21,-105 -11,-11 -29,-20 -40,-20 -27,0 -70,43 -70,70 0,19 40,70 55,70 3,0 19,-7 34,-15 z" inkscape:connector-curvature="0" id="path50" />
    <path d="m 32282,22593 c -32,-11 -41,-19 -38,-31 3,-10 8,-30 12,-45 5,-21 11,-26 23,-21 74,31 143,24 156,-17 10,-32 -23,-60 -79,-66 l -46,-6 0,-43 0,-44 50,0 c 57,0 90,-24 90,-63 0,-40 -35,-62 -94,-61 -29,1 -63,7 -75,14 -30,15 -41,4 -44,-45 -2,-37 0,-40 33,-52 90,-31 215,-8 269,50 50,55 35,159 -29,192 l -30,16 35,30 c 65,57 52,150 -26,189 -47,24 -144,26 -207,3 z" inkscape:connector-curvature="0" id="path52" />
    <path d="m 33135,22596 c -123,-55 -142,-229 -33,-296 36,-22 116,-27 149,-10 32,17 23,-12 -14,-48 -35,-34 -81,-52 -134,-52 -33,0 -33,-1 -33,-46 l 0,-47 73,5 c 165,11 257,115 257,292 -1,106 -40,178 -113,205 -39,15 -116,13 -152,-3 z m 120,-96 c 23,-25 32,-102 14,-117 -51,-42 -119,-10 -119,56 0,20 7,47 16,59 19,28 64,29 89,2 z" inkscape:connector-curvature="0" id="path54" />
    <path d="m 33554,22570 -62,-28 11,-45 10,-46 36,15 c 20,9 42,18 49,21 9,4 12,-37 12,-186 l 0,-191 55,0 55,0 0,245 0,245 -52,-1 c -36,0 -73,-10 -114,-29 z" inkscape:connector-curvature="0" id="path56" />
    <path d="m 2030,18215 c 0,-52 -2,-95 -5,-95 -4,0 -20,7 -37,16 -67,35 -160,-1 -198,-76 -22,-44 -27,-140 -9,-187 36,-97 153,-131 229,-67 l 30,26 0,-26 c 0,-25 3,-26 50,-26 l 50,0 0,265 0,265 -55,0 -55,0 0,-95 z m -25,-175 c 22,-24 30,-96 16,-133 -6,-15 -22,-32 -35,-38 -61,-28 -112,27 -103,108 6,55 30,83 72,83 19,0 39,-8 50,-20 z" inkscape:connector-curvature="0" id="path58" />
    <path d="m 2490,18289 c -54,-17 -87,-46 -105,-93 -33,-85 18,-165 126,-201 78,-26 110,-73 74,-108 -29,-29 -104,-30 -178,-2 -12,5 -18,-3 -27,-34 -6,-23 -8,-46 -5,-51 9,-15 117,-33 171,-27 89,9 146,50 165,119 22,82 -27,155 -130,194 -73,27 -92,43 -89,73 5,41 49,57 117,43 61,-13 63,-12 79,36 11,31 10,33 -16,43 -39,16 -141,20 -182,8 z" inkscape:connector-curvature="0" id="path60" />
    <path d="m 3196,18284 c -9,-8 -16,-24 -16,-35 0,-25 35,-59 60,-59 25,0 60,34 60,59 0,28 -27,51 -60,51 -16,0 -36,-7 -44,-16 z" inkscape:connector-curvature="0" id="path62" />
    <path d="m 1358,18283 -28,-4 0,-249 0,-249 36,-7 c 56,-10 194,2 242,21 50,20 82,61 89,114 8,57 -16,95 -85,137 -1,1 13,17 33,37 29,29 35,42 35,79 0,47 -17,74 -63,103 -22,14 -53,19 -130,21 -56,1 -114,0 -129,-3 z m 169,-84 c 77,-29 48,-111 -40,-113 l -42,-1 -3,49 c -2,27 -1,55 2,62 6,17 44,18 83,3 z m 27,-220 c 52,-41 24,-111 -48,-125 -60,-11 -66,-3 -66,76 l 0,70 44,0 c 29,0 52,-7 70,-21 z" inkscape:connector-curvature="0" id="path64" />
    <path d="m 3893,18222 c -51,-14 -53,-16 -53,-48 0,-30 -3,-34 -25,-34 -22,0 -25,-4 -25,-40 0,-36 3,-40 25,-40 25,0 25,0 25,-95 0,-60 5,-108 14,-130 17,-39 60,-65 110,-65 56,0 66,8 66,51 0,35 -3,39 -24,39 -46,0 -57,24 -54,114 l 3,81 38,3 c 36,3 37,4 37,43 0,39 0,39 -39,39 l -40,0 -3,48 -3,49 -52,-15 z" inkscape:connector-curvature="0" id="path66" />
    <path d="m 2845,18137 c -37,-12 -40,-15 -37,-47 3,-43 5,-44 43,-31 49,17 103,14 122,-7 10,-10 17,-21 17,-24 0,-3 -24,-8 -54,-11 -132,-13 -198,-96 -151,-187 30,-59 105,-76 175,-40 34,17 40,18 40,5 0,-11 12,-15 50,-15 l 50,0 0,128 c 0,140 -11,178 -63,216 -34,25 -134,31 -192,13 z m 145,-221 c 0,-57 -76,-91 -100,-46 -22,41 12,78 73,79 24,1 27,-2 27,-33 z" inkscape:connector-curvature="0" id="path68" />
    <path d="m 3554,18136 c -18,-8 -35,-19 -38,-25 -11,-18 -26,-13 -26,9 0,17 -7,20 -51,20 l -51,0 6,-31 c 3,-17 6,-98 6,-180 l 0,-149 55,0 55,0 0,120 c 0,107 2,122 20,140 11,11 29,20 40,20 11,0 29,-9 40,-20 18,-18 20,-33 20,-140 l 0,-120 55,0 55,0 0,139 c 0,127 -2,141 -23,172 -39,57 -97,73 -163,45 z" inkscape:connector-curvature="0" id="path70" />
    <path d="m 3190,17960 0,-180 55,0 55,0 0,180 0,180 -55,0 -55,0 0,-180 z" inkscape:connector-curvature="0" id="path72" />
    <path d="m 3640,17145 0,-265 55,0 55,0 0,265 0,265 -55,0 -55,0 0,-265 z" inkscape:connector-curvature="0" id="path74" />
    <path d="m 1620,17356 c 0,-38 -17,-304 -26,-409 l -5,-68 53,3 53,3 10,200 c 10,197 10,199 23,140 7,-33 29,-122 49,-197 l 37,-138 46,0 46,0 54,183 c 29,100 57,189 62,197 4,8 8,-55 8,-141 0,-86 3,-177 6,-203 l 7,-46 54,0 c 50,0 53,1 49,23 -3,12 -7,85 -11,162 -3,77 -8,182 -11,233 l -7,92 -73,0 -72,0 -26,-77 c -14,-43 -37,-120 -50,-172 -14,-51 -27,-95 -29,-98 -3,-2 -7,16 -11,39 -3,24 -23,103 -44,176 l -37,132 -77,0 -78,0 0,-34 z" inkscape:connector-curvature="0" id="path76" />
    <path d="m 2275,17237 c -37,-12 -40,-15 -37,-47 3,-43 5,-44 43,-31 49,17 103,14 122,-7 10,-10 17,-21 17,-24 0,-3 -24,-8 -54,-11 -132,-13 -198,-96 -151,-187 30,-59 105,-76 175,-40 34,17 40,18 40,5 0,-11 12,-15 50,-15 l 50,0 0,128 c 0,140 -11,178 -63,216 -34,25 -134,31 -192,13 z m 145,-221 c 0,-57 -76,-91 -100,-46 -22,41 12,78 73,79 24,1 27,-2 27,-33 z" inkscape:connector-curvature="0" id="path78" />
    <path d="m 2785,17239 c -11,-6 -30,-23 -42,-38 l -23,-26 0,33 c 0,32 0,32 -51,32 -48,0 -51,-1 -45,-22 3,-13 6,-94 6,-180 l 0,-158 55,0 55,0 0,110 c 0,127 12,150 75,150 l 35,0 0,55 c 0,50 -2,55 -22,55 -13,0 -32,-5 -43,-11 z" inkscape:connector-curvature="0" id="path80" />
    <path d="m 3007,17235 c -80,-28 -120,-89 -121,-181 0,-72 26,-121 82,-156 30,-19 51,-23 114,-23 42,0 81,5 86,10 5,6 7,26 5,46 l -5,35 -53,-4 c -50,-4 -57,-2 -85,26 -42,43 -42,101 0,144 27,27 36,30 81,26 46,-3 50,-1 55,22 3,14 8,32 10,41 8,30 -101,39 -169,14 z" inkscape:connector-curvature="0" id="path82" />
    <path d="m 3333,17239 c -66,-19 -123,-102 -123,-179 0,-124 95,-200 235,-187 90,9 98,13 91,55 -3,19 -7,36 -8,38 -2,1 -24,-2 -50,-7 -57,-13 -121,2 -143,34 -8,12 -15,25 -15,29 0,5 54,8 120,8 l 120,0 0,50 c 0,126 -99,196 -227,159 z m 110,-87 c 35,-31 21,-42 -53,-42 -38,0 -70,3 -70,6 0,16 24,46 43,54 26,10 55,4 80,-18 z" inkscape:connector-curvature="0" id="path84" />
    <path d="m 4624,17117 c -2,-7 -3,-65 -2,-128 l 3,-114 2260,-2 2260,-3 3,-415 c 1,-228 0,-415 -2,-415 -3,0 -120,54 -261,119 l -257,120 -25,-55 c -14,-31 -23,-57 -21,-59 5,-5 224,-109 403,-192 77,-35 144,-68 148,-72 5,-5 9,-61 8,-125 l 0,-116 1405,0 1404,0 0,-715 0,-715 7635,0 7635,0 0,-690 0,-690 768,0 769,0 6,98 c 4,53 7,364 7,690 l 0,592 1295,0 1295,0 0,125 0,125 -1420,0 -1420,0 0,-690 0,-690 -525,0 -525,0 0,690 0,690 -7635,0 -7635,0 0,715 0,715 -1400,0 -1400,0 0,610 0,610 -2385,0 c -1959,0 -2387,-2 -2391,-13 z" inkscape:connector-curvature="0" id="path86" />
    <path d="m 32920,16585 c 0,-52 -2,-95 -5,-95 -4,0 -20,7 -37,16 -67,35 -160,-1 -198,-76 -22,-44 -27,-140 -9,-187 36,-97 153,-131 229,-67 l 30,26 0,-26 c 0,-25 3,-26 50,-26 l 50,0 0,265 0,265 -55,0 -55,0 0,-95 z m -25,-175 c 22,-24 30,-96 16,-133 -6,-15 -22,-32 -35,-38 -61,-28 -112,27 -103,108 6,55 30,83 72,83 19,0 39,-8 50,-20 z" inkscape:connector-curvature="0" id="path88" />
    <path d="m 30135,16507 c -37,-12 -40,-15 -37,-47 3,-43 5,-44 43,-31 49,17 103,14 122,-7 10,-10 17,-21 17,-24 0,-3 -24,-8 -54,-11 -132,-13 -198,-96 -151,-187 30,-59 105,-76 175,-40 34,17 40,18 40,5 0,-11 12,-15 50,-15 l 50,0 0,128 c 0,140 -11,178 -63,216 -34,25 -134,31 -192,13 z m 145,-221 c 0,-57 -76,-91 -100,-46 -22,41 12,78 73,79 24,1 27,-2 27,-33 z" inkscape:connector-curvature="0" id="path90" />
    <path d="m 30953,16509 c -66,-19 -123,-102 -123,-179 0,-124 95,-200 235,-187 90,9 98,13 91,55 -3,19 -7,36 -8,38 -2,1 -24,-2 -50,-7 -57,-13 -121,2 -143,34 -8,12 -15,25 -15,29 0,5 54,8 120,8 l 120,0 0,50 c 0,126 -99,196 -227,159 z m 110,-87 c 35,-31 21,-42 -53,-42 -38,0 -70,3 -70,6 0,16 24,46 43,54 26,10 55,4 80,-18 z" inkscape:connector-curvature="0" id="path92" />
    <path d="m 31414,16506 c -18,-8 -35,-19 -38,-25 -11,-18 -26,-13 -26,9 0,17 -7,20 -51,20 l -51,0 6,-31 c 3,-17 6,-98 6,-180 l 0,-149 55,0 55,0 0,120 c 0,107 2,122 20,140 11,11 29,20 40,20 11,0 29,-9 40,-20 18,-18 20,-33 20,-140 l 0,-120 55,0 55,0 0,139 c 0,127 -2,141 -23,172 -39,57 -97,73 -163,45 z" inkscape:connector-curvature="0" id="path94" />
    <path d="m 32223,16509 c -66,-19 -123,-102 -123,-179 0,-124 95,-200 235,-187 90,9 98,13 91,55 -3,19 -7,36 -8,38 -2,1 -24,-2 -50,-7 -57,-13 -121,2 -143,34 -8,12 -15,25 -15,29 0,5 54,8 120,8 l 120,0 0,50 c 0,126 -99,196 -227,159 z m 110,-87 c 35,-31 21,-42 -53,-42 -38,0 -70,3 -70,6 0,16 24,46 43,54 26,10 55,4 80,-18 z" inkscape:connector-curvature="0" id="path96" />
    <path d="m 33223,16509 c -66,-19 -123,-102 -123,-179 0,-124 95,-200 235,-187 90,9 98,13 91,55 -3,19 -7,36 -8,38 -2,1 -24,-2 -50,-7 -57,-13 -121,2 -143,34 -8,12 -15,25 -15,29 0,5 54,8 120,8 l 120,0 0,50 c 0,126 -99,196 -227,159 z m 110,-87 c 35,-31 21,-42 -53,-42 -38,0 -70,3 -70,6 0,16 24,46 43,54 26,10 55,4 80,-18 z" inkscape:connector-curvature="0" id="path98" />
    <path d="m 33595,16513 c -53,-15 -95,-66 -95,-117 0,-36 46,-82 105,-104 95,-37 58,-90 -43,-63 -25,6 -46,10 -49,8 -2,-3 -8,-18 -13,-36 -10,-36 2,-46 68,-57 99,-16 185,24 198,92 11,59 -11,92 -85,128 -48,23 -66,37 -66,51 0,17 7,20 45,20 25,-1 51,-3 59,-5 19,-6 39,56 24,71 -12,12 -118,21 -148,12 z" inkscape:connector-curvature="0" id="path100" />
    <path d="m 30430,16503 c 0,-5 29,-84 64,-178 l 64,-170 59,0 58,0 66,175 66,175 -54,3 c -31,2 -58,1 -61,-3 -3,-3 -20,-58 -37,-122 -32,-117 -36,-123 -49,-68 -4,17 -19,67 -32,113 l -25,82 -60,0 c -32,0 -59,-3 -59,-7 z" inkscape:connector-curvature="0" id="path102" />
    <path d="m 31690,16374 c 0,-156 11,-193 65,-218 56,-27 114,-18 154,25 l 21,23 0,-27 c 0,-26 2,-27 50,-27 l 50,0 0,180 0,180 -55,0 -55,0 0,-115 c 0,-110 -1,-117 -25,-140 -29,-30 -49,-31 -75,-5 -18,18 -20,33 -20,140 l 0,120 -55,0 -55,0 0,-136 z" inkscape:connector-curvature="0" id="path104" />
    <path d="m 3560,16382 c -72,-38 -70,-23 -70,-632 0,-499 2,-548 18,-579 35,-69 112,-94 179,-57 15,9 181,129 367,268 363,271 379,286 378,368 -1,52 -23,91 -74,133 -72,58 -627,467 -661,487 -51,30 -97,34 -137,12 z m 433,-437 c 148,-109 265,-201 260,-205 -4,-4 -82,-62 -173,-128 -91,-67 -222,-164 -292,-217 l -128,-95 0,446 0,446 33,-24 c 17,-14 153,-114 300,-223 z" inkscape:connector-curvature="0" id="path106" />
    <path d="m 4540,15745 0,-535 168,2 167,3 0,530 0,530 -167,3 -168,2 0,-535 z" inkscape:connector-curvature="0" id="path108" />
    <path d="m 5010,15745 0,-435 125,0 125,0 0,435 0,435 -125,0 -125,0 0,-435 z" inkscape:connector-curvature="0" id="path110" />
    <path d="m 5440,15745 0,-346 83,3 82,3 0,340 0,340 -82,3 -83,3 0,-346 z" inkscape:connector-curvature="0" id="path112" />
    <path d="m 2745,15982 c -44,-20 -82,-39 -84,-42 -6,-8 9,-99 18,-104 4,-3 31,6 60,20 29,13 55,24 57,24 2,0 4,-115 4,-255 l 0,-255 75,0 75,0 0,325 0,325 -62,0 c -52,0 -78,-7 -143,-38 z" inkscape:connector-curvature="0" id="path114" />
    <path d="m 7822,15920 0,-60 359,0 359,0 0,60 0,60 -359,0 -359,0 0,-60 z" inkscape:connector-curvature="0" id="path116" />
    <path d="m 31430,15538 c 0,-134 -3,-253 -6,-265 -6,-22 -3,-23 45,-23 48,0 51,1 51,26 l 0,27 26,-26 c 66,-66 193,-35 234,56 28,61 27,160 -3,211 -43,75 -140,97 -208,47 l -29,-22 0,106 0,105 -55,0 -55,0 0,-242 z m 236,-29 c 14,-16 19,-36 19,-81 0,-51 -4,-63 -24,-79 -31,-25 -69,-24 -98,3 -32,30 -33,123 -3,156 27,29 80,29 106,1 z" inkscape:connector-curvature="0" id="path118" />
    <path d="m 32280,15515 0,-265 55,0 55,0 0,265 0,265 -55,0 -55,0 0,-265 z" inkscape:connector-curvature="0" id="path120" />
    <path d="m 30649,15756 c -164,-44 -239,-243 -151,-399 55,-97 186,-137 337,-105 l 60,13 3,138 3,137 -91,0 -90,0 0,-45 c 0,-45 0,-45 35,-45 l 36,0 -3,-57 -3,-58 -52,0 c -57,1 -90,19 -127,69 -17,22 -21,42 -21,101 0,83 16,115 76,150 39,23 139,27 176,7 21,-11 23,-10 33,29 13,49 8,57 -46,70 -53,12 -120,10 -175,-5 z" inkscape:connector-curvature="0" id="path122" />
    <path d="m 32486,15754 c -9,-8 -16,-24 -16,-35 0,-25 35,-59 60,-59 25,0 60,34 60,59 0,28 -27,51 -60,51 -16,0 -36,-7 -44,-16 z" inkscape:connector-curvature="0" id="path124" />
    <path d="m 6713,15610 c -91,-19 -154,-73 -178,-154 -23,-76 -22,-670 1,-747 20,-67 81,-132 139,-148 27,-7 193,-11 496,-11 496,0 504,1 577,57 19,14 44,47 56,72 20,43 21,65 24,368 3,271 1,331 -13,385 -19,78 -56,125 -121,158 l -49,25 -445,1 c -245,1 -464,-2 -487,-6 z m 332,-240 0,-175 -29,-3 c -16,-2 -32,2 -37,10 -5,7 -9,83 -9,169 0,167 4,182 50,177 l 25,-3 0,-175 z m 446,-92 c 61,-57 134,-123 161,-148 l 51,-46 -69,-65 c -274,-260 -279,-264 -324,-219 -35,35 -25,59 59,142 l 79,78 -356,0 c -391,0 -392,0 -392,61 0,59 -3,59 386,59 195,0 354,4 354,9 0,4 -31,36 -70,70 -38,35 -73,73 -76,87 -9,36 20,74 57,74 24,0 51,-20 140,-102 z m -452,-312 c 8,-9 11,-65 9,-176 -3,-142 -5,-164 -20,-174 -13,-8 -23,-8 -35,0 -16,10 -18,32 -21,174 -3,168 2,190 38,190 10,0 23,-6 29,-14 z" inkscape:connector-curvature="0" id="path126" />
    <path d="m 31074,15596 c -66,-34 -97,-87 -98,-165 -1,-109 60,-177 168,-188 47,-5 64,-2 109,20 71,35 101,86 101,172 0,108 -62,173 -172,182 -47,4 -65,0 -108,-21 z m 135,-75 c 11,-11 23,-36 27,-55 20,-110 -54,-187 -117,-120 -20,21 -24,36 -24,86 0,53 3,62 28,84 34,29 60,31 86,5 z" inkscape:connector-curvature="0" id="path128" />
    <path d="m 31973,15609 c -66,-19 -123,-102 -123,-179 0,-124 95,-200 235,-187 90,9 98,13 91,55 -3,19 -7,36 -8,38 -2,1 -24,-2 -50,-7 -57,-13 -121,2 -143,34 -8,12 -15,25 -15,29 0,5 54,8 120,8 l 120,0 0,50 c 0,126 -99,196 -227,159 z m 110,-87 c 35,-31 21,-42 -53,-42 -38,0 -70,3 -70,6 0,16 24,46 43,54 26,10 55,4 80,-18 z" inkscape:connector-curvature="0" id="path130" />
    <path d="m 32844,15606 c -18,-8 -35,-19 -38,-25 -11,-18 -26,-13 -26,9 0,17 -7,20 -51,20 l -51,0 6,-31 c 3,-17 6,-98 6,-180 l 0,-149 55,0 55,0 0,120 c 0,107 2,122 20,140 11,11 29,20 40,20 11,0 29,-9 40,-20 18,-18 20,-33 20,-140 l 0,-120 55,0 55,0 0,139 c 0,127 -2,141 -23,172 -39,57 -97,73 -163,45 z" inkscape:connector-curvature="0" id="path132" />
    <path d="m 33205,15613 c -53,-15 -95,-66 -95,-117 0,-36 46,-82 105,-104 95,-37 58,-90 -43,-63 -25,6 -46,10 -49,8 -2,-3 -8,-18 -13,-36 -10,-36 2,-46 68,-57 99,-16 185,24 198,92 11,59 -11,92 -85,128 -48,23 -66,37 -66,51 0,17 7,20 45,20 25,-1 51,-3 59,-5 19,-6 39,56 24,71 -12,12 -118,21 -148,12 z" inkscape:connector-curvature="0" id="path134" />
    <path d="m 32480,15430 0,-180 55,0 55,0 0,180 0,180 -55,0 -55,0 0,-180 z" inkscape:connector-curvature="0" id="path136" />
    <path d="m 9325,15518 c -3,-7 -4,-247 -3,-533 l 3,-520 168,-3 167,-2 -2,532 -3,533 -163,3 c -124,2 -164,0 -167,-10 z" inkscape:connector-curvature="0" id="path138" />
    <path d="m 9790,14995 -1,-435 131,0 131,0 -1,435 -1,435 -129,0 -129,0 -1,-435 z" inkscape:connector-curvature="0" id="path140" />
    <path d="m 10220,14990 0,-340 85,0 85,0 0,340 0,340 -85,0 -85,0 0,-340 z" inkscape:connector-curvature="0" id="path142" />
    <path d="m 4625,12240 0,-2240 1066,-2 1066,-3 -109,-235 c -60,-129 -114,-245 -119,-258 -8,-21 -4,-25 48,-49 31,-15 58,-22 60,-17 2,5 61,133 132,284 l 128,275 462,0 462,0 2,2243 2,2242 -947,0 -948,0 0,-35 0,-35 -292,2 -293,3 -3,33 -3,32 -357,0 -357,0 0,-2240 z m 2945,0 0,-1990 -1345,0 -1345,0 0,1230 0,1230 825,0 825,0 0,738 c 0,405 0,747 0,760 l 0,22 520,0 520,0 0,-1990 z m -1875,1655 c 14,-13 25,-36 25,-50 0,-36 -42,-75 -80,-75 -38,0 -80,39 -80,75 0,36 42,75 80,75 19,0 40,-9 55,-25 z m 15,-435 0,-240 -75,0 -75,0 0,240 0,240 75,0 75,0 0,-240 z" inkscape:connector-curvature="0" id="path144" />
    <path d="m 9149,13437 3,-893 -67,-40 c -110,-64 -171,-146 -200,-266 -22,-95 -22,-1107 0,-1193 37,-144 115,-252 218,-305 l 49,-25 -4,-877 -3,-878 713,0 713,0 -3,123 -3,122 -582,3 -583,2 0,740 0,740 8241,0 c 7488,0 8247,1 8303,16 129,33 242,116 292,215 53,106 55,134 52,727 -3,535 -4,548 -25,613 -62,182 -182,282 -371,309 -43,6 -3056,10 -8279,10 l -8213,0 0,750 0,750 583,2 582,3 3,123 3,122 -713,0 -713,0 4,-893 z m 374,-1008 c 60,-32 51,-69 -35,-156 l -72,-73 140,0 c 159,0 184,-8 184,-62 0,-62 -16,-68 -184,-68 l -151,0 78,-71 c 67,-61 77,-75 77,-104 0,-37 -28,-65 -65,-65 -12,0 -85,60 -184,152 l -164,152 45,41 c 25,22 97,88 159,146 97,90 125,113 147,118 2,1 13,-4 25,-10 z m 3326,-70 c 35,-12 34,-11 21,-60 l -10,-36 -78,4 c -94,5 -133,-14 -162,-80 -38,-82 -13,-186 52,-227 28,-18 45,-21 110,-17 l 78,4 6,-34 c 9,-45 1,-59 -36,-67 -199,-39 -350,68 -350,248 0,168 107,274 276,276 34,0 75,-5 93,-11 z m -1159,-204 0,-204 98,-3 97,-3 3,-47 3,-48 -160,0 -161,0 0,255 0,255 60,0 60,0 0,-205 z m -1040,46 c 45,-23 76,-69 84,-124 12,-76 10,-77 -125,-77 -76,0 -119,-4 -119,-10 0,-6 12,-22 26,-36 24,-24 30,-26 105,-22 75,3 80,2 85,-19 14,-56 -7,-70 -112,-72 -76,-1 -120,13 -162,52 -67,64 -69,197 -4,271 47,52 158,71 222,37 z m 380,-36 0,-55 -34,0 c -25,0 -40,-7 -55,-26 -18,-23 -21,-41 -21,-130 l 0,-104 -60,0 -60,0 0,180 0,180 50,0 c 47,0 50,-2 50,-25 0,-32 2,-31 38,5 21,20 40,30 61,30 31,0 31,0 31,-55 z m 265,45 c 25,-9 27,-14 20,-48 -4,-20 -8,-38 -8,-39 -1,-1 -21,4 -45,10 -30,8 -48,8 -59,1 -32,-20 -25,-34 32,-59 74,-33 105,-67 105,-115 0,-93 -115,-145 -242,-109 -42,11 -42,10 -28,60 l 10,37 38,-14 c 49,-17 87,-17 102,1 17,20 5,33 -54,59 -29,13 -62,36 -74,51 -42,54 -17,130 52,161 37,16 114,18 151,4 z m 880,-6 c 61,-29 69,-53 75,-212 l 5,-142 -52,0 c -40,0 -53,4 -53,15 0,12 -7,11 -40,-6 -59,-31 -124,-22 -163,21 -26,29 -29,38 -24,83 3,41 11,56 35,78 33,30 88,49 140,49 40,0 44,25 6,42 -19,9 -39,9 -82,0 -30,-6 -57,-10 -60,-8 -2,3 -5,19 -5,38 -2,29 2,34 33,45 50,17 146,16 185,-3 z m 1011,-3 c 136,-62 137,-274 2,-340 -82,-39 -197,-19 -246,44 -49,62 -53,168 -8,236 48,72 164,100 252,60 z m 834,-36 0,-55 -34,0 c -25,0 -40,-7 -55,-26 -18,-23 -21,-41 -21,-130 l 0,-104 -60,0 -60,0 0,180 0,180 50,0 c 47,0 50,-2 50,-25 0,-32 2,-31 38,5 21,20 40,30 61,30 31,0 31,0 31,-55 z m 350,39 c 53,-32 64,-66 68,-216 l 4,-138 -60,0 -60,0 -4,126 c -3,111 -5,127 -22,140 -26,19 -39,18 -70,-7 -25,-20 -26,-23 -26,-140 l 0,-119 -60,0 -60,0 0,180 0,180 49,0 c 40,0 51,-4 56,-19 6,-19 7,-19 42,5 42,28 102,32 143,8 z m 400,-3 c 45,-23 76,-69 84,-124 12,-76 10,-77 -125,-77 -76,0 -119,-4 -119,-10 0,-6 12,-22 26,-36 24,-24 30,-26 105,-22 75,3 80,2 85,-19 14,-56 -7,-70 -112,-72 -76,-1 -120,13 -162,52 -67,64 -69,197 -4,271 47,52 158,71 222,37 z m 1220,0 c 45,-23 76,-69 84,-124 12,-76 10,-77 -125,-77 -76,0 -119,-4 -119,-10 0,-6 12,-22 26,-36 24,-24 30,-26 105,-22 75,3 80,2 85,-19 14,-56 -7,-70 -112,-72 -76,-1 -120,13 -162,52 -67,64 -69,197 -4,271 47,52 158,71 222,37 z m 2459,4 c 138,-33 289,-142 360,-259 146,-242 112,-537 -83,-731 -82,-81 -163,-127 -272,-155 -141,-36 -295,-18 -427,52 -85,45 -193,155 -240,244 -88,170 -90,369 -4,543 43,90 168,215 258,259 124,60 276,78 408,47 z m -8313,-110 c 18,-60 33,-112 34,-115 1,-3 16,47 34,110 l 32,115 63,3 c 35,2 61,-1 60,-6 -2,-5 -33,-87 -69,-181 l -65,-172 -60,3 -60,3 -62,165 c -34,91 -62,171 -62,178 -1,10 15,12 61,10 l 61,-3 33,-110 z m 3344,6 c 0,-60 4,-121 9,-134 13,-33 46,-43 76,-23 24,16 25,20 25,141 l 0,125 60,0 60,0 0,-180 0,-180 -50,0 c -43,0 -50,3 -50,20 0,18 -2,18 -36,-5 -66,-45 -157,-27 -191,38 -13,24 -18,65 -21,170 l -4,137 61,0 61,0 0,-109 z m 1550,0 c 0,-60 4,-121 9,-134 13,-33 46,-43 76,-23 24,16 25,20 25,141 l 0,125 60,0 60,0 0,-180 0,-180 -50,0 c -43,0 -50,3 -50,20 0,18 -2,18 -36,-5 -66,-45 -157,-27 -191,38 -13,24 -18,65 -21,170 l -4,137 61,0 61,0 0,-109 z m 446,-6 c 18,-60 33,-112 34,-115 1,-3 16,47 34,110 l 32,115 63,3 c 35,2 61,-1 60,-6 -2,-5 -33,-87 -69,-181 l -65,-172 -60,3 -60,3 -62,165 c -34,91 -62,171 -62,178 -1,10 15,12 61,10 l 61,-3 33,-110 z m 1292,-317 c 29,-101 55,-202 58,-226 4,-23 10,-44 14,-47 3,-2 15,31 25,73 10,42 39,145 65,227 l 48,150 101,3 101,3 0,-38 c 0,-21 7,-150 15,-288 8,-137 15,-271 15,-297 l 0,-48 -69,0 -69,0 -6,63 c -3,34 -9,151 -13,260 l -8,199 -38,-129 c -21,-70 -56,-185 -78,-255 l -40,-128 -59,0 -59,0 -11,43 c -7,23 -27,96 -45,162 -19,66 -43,160 -54,208 -10,49 -21,90 -24,93 -2,2 -7,-80 -11,-183 -3,-104 -9,-221 -13,-260 l -6,-73 -69,0 -70,0 6,48 c 3,26 13,176 23,335 l 17,287 101,0 102,0 51,-182 z m 8340,-395 c 3,-42 2,-43 -27,-43 -38,0 -61,-23 -61,-61 0,-27 3,-29 35,-29 35,0 35,0 35,-45 0,-45 0,-45 -35,-45 l -35,0 0,-135 0,-135 -60,0 -60,0 0,135 0,135 -25,0 c -23,0 -25,4 -25,45 0,41 2,45 25,45 22,0 25,5 25,33 0,45 29,98 70,125 27,18 45,22 85,20 l 50,-3 3,-42 z m -2000,9 c 43,-56 -37,-123 -90,-75 -44,39 -2,111 57,96 11,-3 26,-12 33,-21 z m 222,-237 0,-265 -60,0 -60,0 0,265 0,265 60,0 60,0 0,-265 z m 200,0 0,-265 -60,0 -60,0 0,265 0,265 60,0 60,0 0,-265 z m 618,237 c 43,-56 -37,-123 -90,-75 -44,39 -2,111 57,96 11,-3 26,-12 33,-21 z m 630,0 c 43,-56 -37,-123 -90,-75 -44,39 -2,111 57,96 11,-3 26,-12 33,-21 z m 997,-131 c 85,-78 155,-147 155,-151 0,-5 -70,-74 -156,-154 -136,-127 -161,-146 -190,-146 -36,0 -64,28 -64,65 0,12 32,50 83,97 l 82,78 -157,0 c -151,0 -157,1 -172,22 -21,30 -20,54 4,78 18,18 33,20 165,20 80,0 145,3 145,6 0,3 -31,35 -69,71 -77,70 -88,91 -70,125 36,68 65,54 244,-111 z m -4915,-116 0,-255 -60,0 -60,0 0,255 0,255 60,0 60,0 0,-255 z m 1802,185 c 10,-36 34,-122 52,-191 l 32,-126 55,191 54,191 63,3 c 57,3 63,1 58,-15 -3,-10 -41,-124 -84,-253 l -79,-235 -69,-3 -69,-3 -78,248 c -43,136 -78,252 -77,256 0,4 28,7 62,5 l 61,-3 19,-65 z m -2842,-89 c 45,-23 76,-69 84,-124 12,-76 10,-77 -125,-77 -76,0 -119,-4 -119,-10 0,-6 12,-22 26,-36 24,-24 30,-26 105,-22 75,3 80,2 85,-19 14,-56 -7,-70 -112,-72 -76,-1 -120,13 -162,52 -67,64 -69,197 -4,271 47,52 158,71 222,37 z m 380,-36 0,-55 -34,0 c -25,0 -40,-7 -55,-26 -18,-23 -21,-41 -21,-130 l 0,-104 -60,0 -60,0 0,180 0,180 50,0 c 47,0 50,-2 50,-25 0,-32 2,-31 38,5 21,20 40,30 61,30 31,0 31,0 31,-55 z m 265,45 c 25,-9 27,-14 20,-48 -4,-20 -8,-38 -8,-39 -1,-1 -21,4 -45,10 -30,8 -48,8 -59,1 -32,-20 -25,-34 32,-59 74,-33 105,-67 105,-115 0,-93 -115,-145 -242,-109 -42,11 -42,10 -28,60 l 10,37 38,-14 c 49,-17 87,-17 102,1 17,20 5,33 -54,59 -29,13 -62,36 -74,51 -42,54 -17,130 52,161 37,16 114,18 151,4 z m 1105,-45 0,-55 -34,0 c -25,0 -40,-7 -55,-26 -18,-23 -21,-41 -21,-130 l 0,-104 -60,0 -60,0 0,180 0,180 50,0 c 47,0 50,-2 50,-25 0,-32 2,-31 38,5 21,20 40,30 61,30 31,0 31,0 31,-55 z m 2300,36 c 45,-23 76,-69 84,-124 12,-76 10,-77 -125,-77 -76,0 -119,-4 -119,-10 0,-6 12,-22 26,-36 24,-24 30,-26 105,-22 75,3 80,2 85,-19 14,-56 -7,-70 -112,-72 -76,-1 -120,13 -162,52 -67,64 -69,197 -4,271 47,52 158,71 222,37 z m -4564,-106 c 18,-60 33,-112 34,-115 1,-3 16,47 34,110 l 32,115 63,3 c 35,2 61,-1 60,-6 -2,-5 -33,-87 -69,-181 l -65,-172 -60,3 -60,3 -62,165 c -34,91 -62,171 -62,178 -1,10 15,12 61,10 l 61,-3 33,-110 z m 1760,0 c 18,-60 33,-112 34,-115 1,-3 16,47 34,110 l 32,115 63,3 c 35,2 61,-1 60,-6 -2,-5 -33,-87 -69,-181 l -65,-172 -60,3 -60,3 -62,165 c -34,91 -62,171 -62,178 -1,10 15,12 61,10 l 61,-3 33,-110 z m 680,70 c 7,-22 24,-76 37,-120 l 23,-80 30,120 30,120 62,3 c 34,2 62,1 62,0 0,-6 -87,-250 -110,-308 -35,-91 -82,-159 -129,-191 -65,-43 -84,-39 -99,17 -7,26 -11,47 -10,48 2,1 20,9 41,19 69,31 69,46 -6,235 -37,92 -67,171 -67,175 0,4 28,7 62,5 l 61,-3 13,-40 z m 1374,-135 0,-180 -60,0 -60,0 0,180 0,180 60,0 60,0 0,-180 z m 1038,-17 c -4,-217 -9,-237 -68,-286 -26,-23 -113,-47 -125,-35 -2,2 -7,22 -10,44 -7,38 -6,40 28,52 50,18 57,47 57,248 l 0,174 61,0 61,0 -4,-197 z m 192,88 c 0,-60 4,-121 9,-134 13,-33 46,-43 76,-23 24,16 25,20 25,141 l 0,125 60,0 60,0 0,-180 0,-180 -50,0 c -43,0 -50,3 -50,20 0,18 -2,18 -36,-5 -66,-45 -157,-27 -191,38 -13,24 -18,65 -21,170 l -4,137 61,0 61,0 0,-109 z m 440,-71 0,-180 -60,0 -60,0 0,180 0,180 60,0 60,0 0,-180 z m -2430,20 0,-40 -100,0 -100,0 0,40 0,40 100,0 100,0 0,-40 z" inkscape:connector-curvature="0" id="path146" />
    <path d="m 10510,12120 c -33,-33 -24,-40 50,-40 39,0 70,3 70,8 0,4 -7,18 -16,30 -20,29 -76,30 -104,2 z" inkscape:connector-curvature="0" id="path148" />
    <path d="m 12073,12010 c -19,-8 -43,-38 -43,-54 0,-12 33,-36 51,-36 29,0 59,36 59,70 0,25 -4,30 -22,29 -13,0 -33,-4 -45,-9 z" inkscape:connector-curvature="0" id="path150" />
    <path d="m 13053,12116 c -25,-22 -28,-31 -28,-86 0,-55 3,-64 28,-86 15,-13 34,-24 42,-24 8,0 27,11 42,24 25,22 28,31 28,86 0,55 -3,64 -28,86 -15,13 -34,24 -42,24 -8,0 -27,-11 -42,-24 z" inkscape:connector-curvature="0" id="path152" />
    <path d="m 14630,12120 c -33,-33 -24,-40 50,-40 39,0 70,3 70,8 0,4 -7,18 -16,30 -20,29 -76,30 -104,2 z" inkscape:connector-curvature="0" id="path154" />
    <path d="m 15850,12120 c -33,-33 -24,-40 50,-40 39,0 70,3 70,8 0,4 -7,18 -16,30 -20,29 -76,30 -104,2 z" inkscape:connector-curvature="0" id="path156" />
    <path d="m 18080,11875 0,-65 145,0 c 80,0 145,-2 145,-4 0,-3 -58,-118 -130,-258 -71,-139 -130,-254 -130,-255 0,-2 38,-3 83,-3 l 84,0 31,68 c 17,37 76,160 131,274 87,179 101,214 101,257 l 0,51 -230,0 -230,0 0,-65 z" inkscape:connector-curvature="0" id="path158" />
    <path d="m 19680,11160 c -33,-33 -24,-40 50,-40 39,0 70,3 70,8 0,4 -7,18 -16,30 -20,29 -76,30 -104,2 z" inkscape:connector-curvature="0" id="path160" />
    <path d="m 23730,11160 c -33,-33 -24,-40 50,-40 39,0 70,3 70,8 0,4 -7,18 -16,30 -20,29 -76,30 -104,2 z" inkscape:connector-curvature="0" id="path162" />
    <path d="m 32205,14141 c -11,-5 -103,-70 -205,-145 -102,-75 -256,-188 -343,-252 -87,-64 -170,-132 -184,-151 -33,-42 -42,-117 -20,-159 23,-44 46,-62 405,-327 223,-166 344,-248 366,-253 78,-14 137,27 155,106 7,28 10,238 8,565 -2,561 -1,549 -56,599 -23,21 -95,30 -126,17 z m 15,-642 c 0,-355 -3,-440 -13,-436 -26,10 -587,431 -585,438 4,10 580,438 591,439 4,0 7,-198 7,-441 z" inkscape:connector-curvature="0" id="path164" />
    <path d="m 25960,13500 0,-530 165,0 165,0 0,530 0,530 -165,0 -165,0 0,-530 z" inkscape:connector-curvature="0" id="path166" />
    <path d="m 30840,13500 1,-530 169,0 170,0 0,530 0,530 -170,0 -170,0 0,-530 z" inkscape:connector-curvature="0" id="path168" />
    <path d="m 25570,13499 0,-440 123,3 122,3 3,438 2,437 -125,0 -125,0 0,-441 z" inkscape:connector-curvature="0" id="path170" />
    <path d="m 30460,13500 0,-441 123,3 122,3 3,438 2,437 -125,0 -125,0 0,-440 z" inkscape:connector-curvature="0" id="path172" />
    <path d="m 25220,13500 0,-340 85,0 85,0 0,340 0,340 -85,0 -85,0 0,-340 z" inkscape:connector-curvature="0" id="path174" />
    <path d="m 30110,13500 0,-340 85,0 85,0 0,340 0,340 -85,0 -85,0 0,-340 z" inkscape:connector-curvature="0" id="path176" />
    <path d="m 32613,13780 c -23,-5 -55,-16 -72,-25 -27,-13 -30,-20 -25,-43 8,-33 22,-72 26,-72 2,0 25,7 52,15 69,21 118,19 150,-6 66,-52 9,-119 -100,-119 l -44,0 0,-55 0,-55 49,0 c 60,0 92,-11 120,-41 28,-30 27,-71 -2,-105 -32,-37 -109,-44 -189,-17 l -58,20 -15,-55 c -14,-45 -14,-56 -3,-63 32,-21 100,-33 183,-34 79,0 97,3 148,28 76,38 111,88 111,161 0,66 -30,118 -84,143 -44,20 -49,29 -22,37 10,4 31,20 47,36 22,23 29,42 33,83 6,69 -14,108 -73,142 -50,30 -157,41 -232,25 z" inkscape:connector-curvature="0" id="path178" />
    <path d="m 29939,12817 c 0,-6 0,-538 -1,-1182 l 0,-1170 708,0 709,0 3,114 c 2,75 -1,118 -9,127 -10,12 -107,14 -585,14 l -574,0 0,925 c 0,874 1,925 18,925 9,0 271,1 582,2 l 565,3 3,119 c 2,89 -1,121 -10,127 -7,5 -327,9 -710,9 -547,0 -698,-3 -699,-13 z" inkscape:connector-curvature="0" id="path180" />
    <path d="m 27369,12776 c -61,-22 -100,-56 -126,-112 l -24,-52 3,-359 3,-359 26,-49 c 15,-30 42,-62 68,-80 l 43,-30 224,-3 224,-3 0,-310 0,-309 65,0 66,0 -1,298 c 0,163 0,302 0,309 0,9 55,13 208,15 200,3 209,4 257,29 35,18 59,39 80,74 l 30,48 0,371 0,371 -25,49 c -27,53 -66,87 -119,105 -51,17 -953,15 -1002,-3 z m 689,-58 c 8,-8 12,-61 12,-174 0,-133 -3,-164 -15,-174 -12,-10 -21,-10 -40,-2 l -25,12 0,163 c 0,167 4,187 40,187 9,0 21,-5 28,-12 z m -326,-175 c 35,-32 23,-63 -59,-145 l -78,-78 357,0 c 392,0 388,1 388,-60 0,-61 4,-60 -388,-60 l -357,0 78,-78 c 81,-82 92,-108 60,-144 -37,-41 -62,-26 -227,128 -86,80 -156,149 -156,154 0,5 70,74 156,154 163,153 186,166 226,129 z m 327,-397 c 8,-9 11,-65 9,-176 -3,-142 -5,-164 -20,-174 -13,-8 -23,-8 -35,0 -16,10 -18,32 -21,175 -2,145 -1,165 15,176 22,17 38,16 52,-1 z" inkscape:connector-curvature="0" id="path182" />
    <path d="m 27967,10747 c -81,-173 -147,-319 -147,-325 0,-9 -77,-12 -300,-12 l -300,0 0,-690 0,-690 -4435,0 -4435,0 0,-35 0,-35 -340,0 -340,0 0,-60 0,-60 340,0 340,0 0,-30 0,-30 4560,0 4560,0 0,690 0,690 525,0 525,0 0,-690 0,-690 1420,0 1420,0 0,125 0,125 -1295,0 -1295,0 0,548 c 0,301 -3,611 -7,689 l -6,143 -403,2 -403,3 139,299 c 77,165 139,301 137,302 -5,5 -99,44 -106,44 -5,0 -74,-141 -154,-313 z" inkscape:connector-curvature="0" id="path184" />
    <path d="m 32187,10394 c -16,-9 -124,-86 -240,-173 -117,-86 -262,-194 -324,-239 -119,-88 -169,-137 -179,-178 -10,-38 2,-104 24,-133 10,-14 98,-84 194,-156 97,-71 252,-186 344,-255 193,-142 232,-161 289,-139 45,17 73,51 85,105 13,57 13,1010 0,1070 -17,78 -58,114 -127,114 -21,-1 -51,-8 -66,-16 z m 29,-1071 c -7,-7 -596,431 -593,441 2,5 136,107 298,228 l 294,218 3,-442 c 1,-242 0,-443 -2,-445 z" inkscape:connector-curvature="0" id="path186" />
    <path d="m 25960,9765 0,-535 165,0 165,0 0,535 0,535 -165,0 -165,0 0,-535 z" inkscape:connector-curvature="0" id="path188" />
    <path d="m 30846,10285 c -3,-8 -4,-248 -3,-533 l 2,-517 168,-3 167,-2 0,535 0,535 -164,0 c -137,0 -165,-2 -170,-15 z" inkscape:connector-curvature="0" id="path190" />
    <path d="m 25570,9765 0,-435 125,0 125,0 0,435 0,435 -125,0 -125,0 0,-435 z" inkscape:connector-curvature="0" id="path192" />
    <path d="m 30460,9765 0,-435 125,0 125,0 0,435 0,435 -125,0 -125,0 0,-435 z" inkscape:connector-curvature="0" id="path194" />
    <path d="m 25222,9763 3,-338 83,-3 82,-3 0,340 0,341 -85,0 -85,0 2,-337 z" inkscape:connector-curvature="0" id="path196" />
    <path d="m 30112,9763 3,-338 80,0 80,0 3,338 2,337 -85,0 -85,0 2,-337 z" inkscape:connector-curvature="0" id="path198" />
    <path d="m 32732,10028 c -5,-7 -62,-97 -126,-201 -103,-166 -116,-192 -116,-232 l 0,-45 145,0 145,0 0,-80 0,-80 70,0 69,0 3,78 3,77 38,3 37,3 0,55 0,54 -40,0 -40,0 0,190 0,190 -89,0 c -59,0 -92,-4 -99,-12 z m 50,-238 -3,-130 -70,0 c -38,0 -69,3 -69,6 0,3 22,43 49,88 27,44 58,100 70,124 12,23 22,42 24,42 1,0 1,-58 -1,-130 z" inkscape:connector-curvature="0" id="path200" />
    <path d="m 3552,9510 c -63,-39 -62,-33 -62,-630 0,-587 0,-585 55,-628 33,-26 93,-29 136,-6 58,30 703,514 721,541 44,67 40,142 -10,196 -23,25 -618,471 -693,520 -43,28 -109,31 -147,7 z m 300,-327 c 95,-71 226,-169 291,-217 66,-48 117,-89 115,-90 -56,-45 -591,-436 -596,-436 -4,0 -7,198 -7,440 0,331 3,439 12,436 6,-3 89,-63 185,-133 z" inkscape:connector-curvature="0" id="path202" />
    <path d="m 4630,8875 0,-535 165,0 165,0 0,535 0,535 -165,0 -165,0 0,-535 z" inkscape:connector-curvature="0" id="path204" />
    <path d="m 6810,9070 0,-320 -258,0 c -290,0 -335,-7 -399,-63 -71,-63 -73,-70 -73,-458 0,-393 4,-419 67,-481 69,-68 73,-68 572,-68 500,0 520,2 591,66 67,61 70,82 70,465 0,314 -1,342 -20,392 -22,57 -54,94 -110,123 -28,15 -63,19 -172,22 l -138,4 0,319 0,319 -65,0 -65,0 0,-320 z m -216,-396 c 13,-13 16,-43 16,-173 0,-171 -4,-186 -52,-179 -23,3 -23,4 -26,173 -2,151 -1,171 15,182 22,17 28,16 47,-3 z m 498,-305 c 84,-77 153,-146 153,-154 0,-7 -69,-77 -153,-156 -123,-114 -160,-142 -182,-142 -40,0 -60,20 -60,58 0,29 11,43 78,104 l 77,71 -353,0 -353,0 -24,25 c -14,13 -25,31 -25,40 0,9 11,27 25,40 l 24,25 352,0 351,0 -76,71 c -78,73 -89,96 -66,140 8,13 21,19 45,19 30,0 53,-17 187,-141 z m -494,-271 c 8,-8 12,-60 12,-169 0,-130 -3,-160 -16,-173 -19,-19 -36,-20 -52,-4 -13,13 -18,339 -5,351 11,11 48,8 61,-5 z" inkscape:connector-curvature="0" id="path206" />
    <path d="m 5107,9314 c -4,-4 -7,-202 -7,-441 l 0,-433 125,0 125,0 0,434 c 0,340 -3,435 -13,439 -20,8 -222,9 -230,1 z" inkscape:connector-curvature="0" id="path208" />
    <path d="m 5520,8880 0,-340 85,0 85,0 0,340 0,340 -85,0 -85,0 0,-340 z" inkscape:connector-curvature="0" id="path210" />
    <path d="m 2765,9154 c -51,-13 -112,-36 -128,-48 -17,-13 -16,-16 3,-62 12,-27 23,-50 24,-52 2,-1 19,7 39,18 86,51 189,28 203,-45 12,-64 -31,-129 -172,-262 -122,-114 -124,-117 -124,-160 l 0,-43 230,0 230,0 0,60 0,60 -121,0 -121,0 89,88 c 110,107 138,159 138,253 0,55 -5,72 -28,107 -36,55 -94,84 -177,88 -36,2 -74,1 -85,-2 z" inkscape:connector-curvature="0" id="path212" />
    <path d="m 11950,8320 0,-720 -3617,-2 -3618,-3 0,-125 0,-125 3743,-3 3742,-2 0,720 0,720 2275,0 2275,0 0,-895 0,-895 1405,0 1405,0 0,125 0,125 -1280,0 -1280,0 0,778 c 0,428 2,781 5,784 3,3 130,-52 282,-123 152,-71 281,-129 287,-129 10,0 60,99 53,106 -3,4 -298,144 -302,144 -1,0 -65,30 -141,66 -77,36 -149,70 -161,75 -19,7 -23,16 -23,49 l 0,40 -2382,1 c -1311,1 -2447,3 -2525,5 l -143,3 0,-719 z" inkscape:connector-curvature="0" id="path214" />
    <path d="m 9327,8823 c -4,-3 -7,-244 -7,-535 l 0,-528 170,0 170,0 0,535 0,535 -163,0 c -90,0 -167,-3 -170,-7 z" inkscape:connector-curvature="0" id="path216" />
    <path d="m 9790,8295 1,-435 129,0 129,0 1,435 0,435 -130,0 -130,0 0,-435 z" inkscape:connector-curvature="0" id="path218" />
    <path d="m 10220,8290 0,-341 83,3 82,3 3,338 2,337 -85,0 -85,0 0,-340 z" inkscape:connector-curvature="0" id="path220" />
    <path d="m 19235,8443 c -82,-25 -152,-47 -154,-49 -2,-1 26,-101 62,-221 l 66,-218 -69,-218 c -44,-143 -64,-220 -56,-222 143,-47 301,-93 305,-89 3,2 42,122 87,266 l 81,261 -33,111 c -19,61 -55,182 -81,269 -25,86 -49,157 -52,156 -3,0 -73,-21 -156,-46 z" inkscape:connector-curvature="0" id="path222" />
    <path d="m 20619,8467 c -58,-30 -665,-478 -706,-522 -61,-64 -63,-153 -5,-215 34,-37 686,-518 719,-531 42,-16 98,-11 127,12 57,45 56,31 56,620 0,526 -1,544 -20,585 -21,42 -67,74 -107,74 -11,0 -39,-10 -64,-23 z m 19,-849 -3,-224 -293,217 c -161,120 -294,221 -294,225 0,4 132,105 293,225 l 294,217 3,-218 c 1,-120 1,-319 0,-442 z" inkscape:connector-curvature="0" id="path224" />
    <path d="m 18805,8346 c -76,-30 -109,-47 -107,-57 2,-8 30,-87 62,-176 l 59,-161 -64,-173 c -35,-95 -63,-174 -62,-175 7,-6 230,-84 233,-81 2,1 38,98 82,216 l 78,213 -80,219 c -44,120 -83,219 -86,218 -3,-1 -54,-20 -115,-43 z" inkscape:connector-curvature="0" id="path226" />
    <path d="m 31394,8376 c -44,-20 -73,-61 -80,-117 -6,-43 -9,-49 -30,-49 -21,0 -24,-5 -24,-40 0,-36 3,-40 25,-40 l 25,0 0,-140 0,-140 55,0 54,0 3,138 3,137 38,3 c 36,3 37,4 37,43 l 0,39 -41,0 c -41,0 -41,0 -35,32 8,42 23,58 56,58 24,0 29,5 35,36 4,26 2,39 -7,45 -20,13 -79,10 -114,-5 z" inkscape:connector-curvature="0" id="path228" />
    <path d="m 29410,8326 c 0,-38 -17,-304 -26,-409 l -5,-68 53,3 53,3 10,200 c 10,197 10,199 23,140 7,-33 29,-122 49,-197 l 37,-138 46,0 46,0 54,183 c 29,100 57,189 62,197 4,8 8,-55 8,-141 0,-86 3,-177 6,-203 l 7,-46 54,0 c 50,0 53,1 49,23 -3,12 -7,85 -11,162 -3,77 -8,182 -11,233 l -7,92 -73,0 -72,0 -26,-77 c -14,-43 -37,-120 -50,-172 -14,-51 -27,-95 -29,-98 -3,-2 -7,16 -11,39 -3,24 -23,103 -44,176 l -37,132 -77,0 -78,0 0,-34 z" inkscape:connector-curvature="0" id="path230" />
    <path d="m 32363,8292 c -51,-14 -53,-16 -53,-48 0,-30 -3,-34 -25,-34 -22,0 -25,-4 -25,-40 0,-36 3,-40 25,-40 25,0 25,0 25,-95 0,-60 5,-108 14,-130 17,-39 60,-65 110,-65 56,0 66,8 66,51 0,35 -3,39 -24,39 -46,0 -57,24 -54,114 l 3,81 38,3 c 36,3 37,4 37,43 0,39 0,39 -39,39 l -40,0 -3,48 -3,49 -52,-15 z" inkscape:connector-curvature="0" id="path232" />
    <path d="m 18428,8258 c -38,-17 -68,-36 -68,-42 0,-6 26,-67 58,-136 l 58,-125 -62,-136 -61,-136 72,-36 c 55,-27 76,-33 82,-24 5,7 42,83 82,171 l 73,158 -37,82 c -90,197 -118,256 -124,255 -3,0 -36,-14 -73,-31 z" inkscape:connector-curvature="0" id="path234" />
    <path d="m 30075,8207 c -37,-12 -40,-15 -37,-47 3,-43 5,-44 43,-31 49,17 103,14 122,-7 10,-10 17,-21 17,-24 0,-3 -24,-8 -54,-11 -132,-13 -198,-96 -151,-187 30,-59 105,-76 175,-40 34,17 40,18 40,5 0,-11 12,-15 50,-15 l 50,0 0,128 c 0,140 -11,178 -63,216 -34,25 -134,31 -192,13 z m 145,-221 c 0,-57 -76,-91 -100,-46 -22,41 12,78 73,79 24,1 27,-2 27,-33 z" inkscape:connector-curvature="0" id="path236" />
    <path d="m 30574,8206 c -18,-8 -35,-19 -38,-25 -11,-18 -26,-13 -26,9 0,17 -7,20 -51,20 l -51,0 6,-31 c 3,-17 6,-98 6,-180 l 0,-149 55,0 55,0 0,120 c 0,107 2,122 20,140 11,11 29,20 40,20 11,0 29,-9 40,-20 18,-18 20,-33 20,-140 l 0,-120 55,0 55,0 0,139 c 0,127 -2,141 -23,172 -39,57 -97,73 -163,45 z" inkscape:connector-curvature="0" id="path238" />
    <path d="m 31595,8207 c -37,-12 -40,-15 -37,-47 3,-43 5,-44 43,-31 49,17 103,14 122,-7 10,-10 17,-21 17,-24 0,-3 -24,-8 -54,-11 -132,-13 -198,-96 -151,-187 30,-59 105,-76 175,-40 34,17 40,18 40,5 0,-11 12,-15 50,-15 l 50,0 0,128 c 0,140 -11,178 -63,216 -34,25 -134,31 -192,13 z m 145,-221 c 0,-57 -76,-91 -100,-46 -22,41 12,78 73,79 24,1 27,-2 27,-33 z" inkscape:connector-curvature="0" id="path240" />
    <path d="m 32047,8205 c -80,-28 -120,-89 -121,-181 0,-72 26,-121 82,-156 30,-19 51,-23 114,-23 42,0 81,5 86,10 5,6 7,26 5,46 l -5,35 -53,-4 c -50,-4 -57,-2 -85,26 -42,43 -42,101 0,144 27,27 36,30 81,26 46,-3 50,-1 55,22 3,14 8,32 10,41 8,30 -101,39 -169,14 z" inkscape:connector-curvature="0" id="path242" />
    <path d="m 33165,8209 c -11,-6 -30,-23 -42,-38 l -23,-26 0,33 c 0,32 0,32 -51,32 -48,0 -51,-1 -45,-22 3,-13 6,-94 6,-180 l 0,-158 55,0 55,0 0,110 c 0,127 12,150 75,150 l 35,0 0,55 c 0,50 -2,55 -22,55 -13,0 -32,-5 -43,-11 z" inkscape:connector-curvature="0" id="path244" />
    <path d="m 33383,8209 c -66,-19 -123,-102 -123,-179 0,-124 95,-200 235,-187 90,9 98,13 91,55 -3,19 -7,36 -8,38 -2,1 -24,-2 -50,-7 -57,-13 -121,2 -143,34 -8,12 -15,25 -15,29 0,5 54,8 120,8 l 120,0 0,50 c 0,126 -99,196 -227,159 z m 110,-87 c 35,-31 21,-42 -53,-42 -38,0 -70,3 -70,6 0,16 24,46 43,54 26,10 55,4 80,-18 z" inkscape:connector-curvature="0" id="path246" />
    <path d="m 30860,8074 c 0,-156 11,-193 65,-218 56,-27 114,-18 154,25 l 21,23 0,-27 c 0,-26 2,-27 50,-27 l 50,0 0,180 0,180 -55,0 -55,0 0,-115 c 0,-110 -1,-117 -25,-140 -29,-30 -49,-31 -75,-5 -18,18 -20,33 -20,140 l 0,120 -55,0 -55,0 0,-136 z" inkscape:connector-curvature="0" id="path248" />
    <path d="m 32580,8074 c 0,-156 11,-193 65,-218 56,-27 114,-18 154,25 l 21,23 0,-27 c 0,-26 2,-27 50,-27 l 50,0 0,180 0,180 -55,0 -55,0 0,-115 c 0,-110 -1,-117 -25,-140 -29,-30 -49,-31 -75,-5 -18,18 -20,33 -20,140 l 0,120 -55,0 -55,0 0,-136 z" inkscape:connector-curvature="0" id="path250" />
    <path d="m 21055,8088 c -5,-27 -35,-277 -35,-298 0,-12 18,-15 88,-16 104,0 146,-18 168,-70 12,-30 12,-39 -1,-69 -25,-61 -116,-82 -218,-51 l -47,14 -10,-42 c -6,-22 -13,-47 -15,-54 -9,-26 64,-46 170,-46 85,0 107,3 147,23 143,70 182,239 79,342 -41,41 -117,69 -189,69 l -44,0 7,43 c 4,23 9,45 12,50 2,4 58,7 124,7 l 119,0 0,60 0,60 -175,0 c -173,0 -175,0 -180,-22 z" inkscape:connector-curvature="0" id="path252" />
    <path d="m 1930,7555 c 0,-52 -2,-95 -5,-95 -4,0 -20,7 -37,16 -67,35 -160,-1 -198,-76 -22,-44 -27,-140 -9,-187 36,-97 153,-131 229,-67 l 30,26 0,-26 c 0,-25 3,-26 50,-26 l 50,0 0,265 0,265 -55,0 -55,0 0,-95 z m -25,-175 c 22,-24 30,-96 16,-133 -6,-15 -22,-32 -35,-38 -61,-28 -112,27 -103,108 6,55 30,83 72,83 19,0 39,-8 50,-20 z" inkscape:connector-curvature="0" id="path254" />
    <path d="m 1258,7623 -28,-4 0,-249 0,-249 36,-7 c 56,-10 194,2 242,21 50,20 82,61 89,114 8,57 -16,95 -85,137 -1,1 13,17 33,37 29,29 35,42 35,79 0,47 -17,74 -63,103 -22,14 -53,19 -130,21 -56,1 -114,0 -129,-3 z m 169,-84 c 77,-29 48,-111 -40,-113 l -42,-1 -3,49 c -2,27 -1,55 2,62 6,17 44,18 83,3 z m 27,-220 c 52,-41 24,-111 -48,-125 -60,-11 -66,-3 -66,76 l 0,70 44,0 c 29,0 52,-7 70,-21 z" inkscape:connector-curvature="0" id="path256" />
    <path d="m 2331,7388 c -40,-134 -75,-249 -78,-255 -3,-10 11,-13 55,-13 l 60,0 17,65 18,65 73,0 73,0 19,-62 18,-63 63,-3 c 49,-2 62,0 59,10 -3,7 -38,122 -79,255 l -74,243 -76,0 -75,0 -73,-242 z m 173,51 c 14,-53 26,-99 26,-103 0,-7 -94,-8 -102,-1 -3,3 6,50 20,105 14,55 27,99 28,97 1,-1 14,-45 28,-98 z" inkscape:connector-curvature="0" id="path258" />
    <path d="m 2925,7479 c -11,-6 -30,-23 -42,-38 l -23,-26 0,33 c 0,32 0,32 -51,32 -48,0 -51,-1 -45,-22 3,-13 6,-94 6,-180 l 0,-158 55,0 55,0 0,110 c 0,127 12,150 75,150 l 35,0 0,55 c 0,50 -2,55 -22,55 -13,0 -32,-5 -43,-11 z" inkscape:connector-curvature="0" id="path260" />
    <path d="m 3095,7477 c -37,-12 -40,-15 -37,-47 3,-43 5,-44 43,-31 49,17 103,14 122,-7 10,-10 17,-21 17,-24 0,-3 -24,-8 -54,-11 -132,-13 -198,-96 -151,-187 30,-59 105,-76 175,-40 34,17 40,18 40,5 0,-11 12,-15 50,-15 l 50,0 0,128 c 0,140 -11,178 -63,216 -34,25 -134,31 -192,13 z m 145,-221 c 0,-57 -76,-91 -100,-46 -22,41 12,78 73,79 24,1 27,-2 27,-33 z" inkscape:connector-curvature="0" id="path262" />
    <path d="m 3540,7483 c -68,-26 -110,-94 -110,-180 0,-70 22,-119 69,-150 46,-31 118,-31 156,-1 l 28,22 -6,-44 c -4,-29 -14,-51 -27,-62 -25,-20 -93,-24 -136,-8 -33,13 -40,6 -49,-41 l -7,-37 52,-12 c 72,-17 164,-7 211,25 58,38 68,78 71,298 l 3,187 -47,0 c -41,0 -48,-3 -48,-20 0,-18 -2,-18 -36,5 -35,24 -88,31 -124,18 z m 124,-105 c 24,-34 21,-123 -4,-148 -25,-25 -61,-26 -91,-1 -20,16 -24,29 -24,74 0,40 5,61 19,76 26,29 80,28 100,-1 z" inkscape:connector-curvature="0" id="path264" />
    <path d="m 3964,7466 c -66,-34 -97,-87 -98,-165 -1,-109 60,-177 168,-188 47,-5 64,-2 109,20 71,35 101,86 101,172 0,108 -62,173 -172,182 -47,4 -65,0 -108,-21 z m 135,-75 c 11,-11 23,-36 27,-55 20,-110 -54,-187 -117,-120 -20,21 -24,36 -24,86 0,53 3,62 28,84 34,29 60,31 86,5 z" inkscape:connector-curvature="0" id="path266" />
    <path d="m 29630,7385 c 0,-52 -2,-95 -5,-95 -4,0 -20,7 -37,16 -67,35 -160,-1 -198,-76 -22,-44 -27,-140 -9,-187 36,-97 153,-131 229,-67 l 30,26 0,-26 c 0,-25 3,-26 50,-26 l 50,0 0,265 0,265 -55,0 -55,0 0,-95 z m -25,-175 c 22,-24 30,-96 16,-133 -6,-15 -22,-32 -35,-38 -61,-28 -112,27 -103,108 6,55 30,83 72,83 19,0 39,-8 50,-20 z" inkscape:connector-curvature="0" id="path268" />
    <path d="m 31660,7238 c 0,-134 -3,-253 -6,-265 -6,-22 -3,-23 45,-23 48,0 51,1 51,26 l 0,27 26,-26 c 66,-66 193,-35 234,56 28,61 27,160 -3,211 -43,75 -140,97 -208,47 l -29,-22 0,106 0,105 -55,0 -55,0 0,-242 z m 236,-29 c 14,-16 19,-36 19,-81 0,-51 -4,-63 -24,-79 -31,-25 -69,-24 -98,3 -32,30 -33,123 -3,156 27,29 80,29 106,1 z" inkscape:connector-curvature="0" id="path270" />
    <path d="m 32510,7215 0,-265 55,0 55,0 0,265 0,265 -55,0 -55,0 0,-265 z" inkscape:connector-curvature="0" id="path272" />
    <path d="m 30879,7456 c -164,-44 -239,-243 -151,-399 55,-97 186,-137 337,-105 l 60,13 3,138 3,137 -91,0 -90,0 0,-45 c 0,-45 0,-45 35,-45 l 36,0 -3,-57 -3,-58 -52,0 c -57,1 -90,19 -127,69 -17,22 -21,42 -21,101 0,83 16,115 76,150 39,23 139,27 176,7 21,-11 23,-10 33,29 13,49 8,57 -46,70 -53,12 -120,10 -175,-5 z" inkscape:connector-curvature="0" id="path274" />
    <path d="m 32716,7454 c -9,-8 -16,-24 -16,-35 0,-25 35,-59 60,-59 25,0 60,34 60,59 0,28 -27,51 -60,51 -16,0 -36,-7 -44,-16 z" inkscape:connector-curvature="0" id="path276" />
    <path d="m 29933,7309 c -66,-19 -123,-102 -123,-179 0,-124 95,-200 235,-187 90,9 98,13 91,55 -3,19 -7,36 -8,38 -2,1 -24,-2 -50,-7 -57,-13 -121,2 -143,34 -8,12 -15,25 -15,29 0,5 54,8 120,8 l 120,0 0,50 c 0,126 -99,196 -227,159 z m 110,-87 c 35,-31 21,-42 -53,-42 -38,0 -70,3 -70,6 0,16 24,46 43,54 26,10 55,4 80,-18 z" inkscape:connector-curvature="0" id="path278" />
    <path d="m 30315,7313 c -53,-15 -95,-66 -95,-117 0,-36 46,-82 105,-104 95,-37 58,-90 -43,-63 -25,6 -46,10 -49,8 -2,-3 -8,-18 -13,-36 -10,-36 2,-46 68,-57 99,-16 185,24 198,92 11,59 -11,92 -85,128 -48,23 -66,37 -66,51 0,17 7,20 45,20 25,-1 51,-3 59,-5 19,-6 39,56 24,71 -12,12 -118,21 -148,12 z" inkscape:connector-curvature="0" id="path280" />
    <path d="m 31304,7296 c -66,-34 -97,-87 -98,-165 -1,-109 60,-177 168,-188 47,-5 64,-2 109,20 71,35 101,86 101,172 0,108 -62,173 -172,182 -47,4 -65,0 -108,-21 z m 135,-75 c 11,-11 23,-36 27,-55 20,-110 -54,-187 -117,-120 -20,21 -24,36 -24,86 0,53 3,62 28,84 34,29 60,31 86,5 z" inkscape:connector-curvature="0" id="path282" />
    <path d="m 32203,7309 c -66,-19 -123,-102 -123,-179 0,-124 95,-200 235,-187 90,9 98,13 91,55 -3,19 -7,36 -8,38 -2,1 -24,-2 -50,-7 -57,-13 -121,2 -143,34 -8,12 -15,25 -15,29 0,5 54,8 120,8 l 120,0 0,50 c 0,126 -99,196 -227,159 z m 110,-87 c 35,-31 21,-42 -53,-42 -38,0 -70,3 -70,6 0,16 24,46 43,54 26,10 55,4 80,-18 z" inkscape:connector-curvature="0" id="path284" />
    <path d="m 33074,7306 c -18,-8 -35,-19 -38,-25 -11,-18 -26,-13 -26,9 0,17 -7,20 -51,20 l -51,0 6,-31 c 3,-17 6,-98 6,-180 l 0,-149 55,0 55,0 0,120 c 0,107 2,122 20,140 11,11 29,20 40,20 11,0 29,-9 40,-20 18,-18 20,-33 20,-140 l 0,-120 55,0 55,0 0,139 c 0,127 -2,141 -23,172 -39,57 -97,73 -163,45 z" inkscape:connector-curvature="0" id="path286" />
    <path d="m 33435,7313 c -53,-15 -95,-66 -95,-117 0,-36 46,-82 105,-104 95,-37 58,-90 -43,-63 -25,6 -46,10 -49,8 -2,-3 -8,-18 -13,-36 -10,-36 2,-46 68,-57 99,-16 185,24 198,92 11,59 -11,92 -85,128 -48,23 -66,37 -66,51 0,17 7,20 45,20 25,-1 51,-3 59,-5 19,-6 39,56 24,71 -12,12 -118,21 -148,12 z" inkscape:connector-curvature="0" id="path288" />
    <path d="m 32710,7130 0,-180 55,0 55,0 0,180 0,180 -55,0 -55,0 0,-180 z" inkscape:connector-curvature="0" id="path290" />
    <path d="m 21420,6825 c 0,-52 -2,-95 -5,-95 -4,0 -20,7 -37,16 -67,35 -160,-1 -198,-76 -22,-44 -27,-140 -9,-187 36,-97 153,-131 229,-67 l 30,26 0,-26 c 0,-25 3,-26 50,-26 l 50,0 0,265 0,265 -55,0 -55,0 0,-95 z m -25,-175 c 22,-24 30,-96 16,-133 -6,-15 -22,-32 -35,-38 -61,-28 -112,27 -103,108 6,55 30,83 72,83 19,0 39,-8 50,-20 z" inkscape:connector-curvature="0" id="path292" />
    <path d="m 23450,6678 c 0,-134 -3,-253 -6,-265 -6,-22 -3,-23 45,-23 48,0 51,1 51,26 l 0,27 26,-26 c 66,-66 193,-35 234,56 28,61 27,160 -3,211 -43,75 -140,97 -208,47 l -29,-22 0,106 0,105 -55,0 -55,0 0,-242 z m 236,-29 c 14,-16 19,-36 19,-81 0,-51 -4,-63 -24,-79 -31,-25 -69,-24 -98,3 -32,30 -33,123 -3,156 27,29 80,29 106,1 z" inkscape:connector-curvature="0" id="path294" />
    <path d="m 24300,6655 0,-265 55,0 55,0 0,265 0,265 -55,0 -55,0 0,-265 z" inkscape:connector-curvature="0" id="path296" />
    <path d="m 22669,6896 c -164,-44 -239,-243 -151,-399 55,-97 186,-137 337,-105 l 60,13 3,138 3,137 -91,0 -90,0 0,-45 c 0,-45 0,-45 35,-45 l 36,0 -3,-57 -3,-58 -52,0 c -57,1 -90,19 -127,69 -17,22 -21,42 -21,101 0,83 16,115 76,150 39,23 139,27 176,7 21,-11 23,-10 33,29 13,49 8,57 -46,70 -53,12 -120,10 -175,-5 z" inkscape:connector-curvature="0" id="path298" />
    <path d="m 24506,6894 c -9,-8 -16,-24 -16,-35 0,-25 35,-59 60,-59 25,0 60,34 60,59 0,28 -27,51 -60,51 -16,0 -36,-7 -44,-16 z" inkscape:connector-curvature="0" id="path300" />
    <path d="m 20075,6749 c -11,-6 -30,-23 -42,-38 l -23,-26 0,33 c 0,32 0,32 -51,32 -48,0 -51,-1 -45,-22 3,-13 6,-94 6,-180 l 0,-158 55,0 55,0 0,110 c 0,127 12,150 75,150 l 35,0 0,55 c 0,50 -2,55 -22,55 -13,0 -32,-5 -43,-11 z" inkscape:connector-curvature="0" id="path302" />
    <path d="m 20733,6749 c -66,-19 -123,-102 -123,-179 0,-124 95,-200 235,-187 90,9 98,13 91,55 -3,19 -7,36 -8,38 -2,1 -24,-2 -50,-7 -57,-13 -121,2 -143,34 -8,12 -15,25 -15,29 0,5 54,8 120,8 l 120,0 0,50 c 0,126 -99,196 -227,159 z m 110,-87 c 35,-31 21,-42 -53,-42 -38,0 -70,3 -70,6 0,16 24,46 43,54 26,10 55,4 80,-18 z" inkscape:connector-curvature="0" id="path304" />
    <path d="m 21723,6749 c -66,-19 -123,-102 -123,-179 0,-124 95,-200 235,-187 90,9 98,13 91,55 -3,19 -7,36 -8,38 -2,1 -24,-2 -50,-7 -57,-13 -121,2 -143,34 -8,12 -15,25 -15,29 0,5 54,8 120,8 l 120,0 0,50 c 0,126 -99,196 -227,159 z m 110,-87 c 35,-31 21,-42 -53,-42 -38,0 -70,3 -70,6 0,16 24,46 43,54 26,10 55,4 80,-18 z" inkscape:connector-curvature="0" id="path306" />
    <path d="m 22105,6753 c -53,-15 -95,-66 -95,-117 0,-36 46,-82 105,-104 95,-37 58,-90 -43,-63 -25,6 -46,10 -49,8 -2,-3 -8,-18 -13,-36 -10,-36 2,-46 68,-57 99,-16 185,24 198,92 11,59 -11,92 -85,128 -48,23 -66,37 -66,51 0,17 7,20 45,20 25,-1 51,-3 59,-5 19,-6 39,56 24,71 -12,12 -118,21 -148,12 z" inkscape:connector-curvature="0" id="path308" />
    <path d="m 23094,6736 c -66,-34 -97,-87 -98,-165 -1,-109 60,-177 168,-188 47,-5 64,-2 109,20 71,35 101,86 101,172 0,108 -62,173 -172,182 -47,4 -65,0 -108,-21 z m 135,-75 c 11,-11 23,-36 27,-55 20,-110 -54,-187 -117,-120 -20,21 -24,36 -24,86 0,53 3,62 28,84 34,29 60,31 86,5 z" inkscape:connector-curvature="0" id="path310" />
    <path d="m 23993,6749 c -66,-19 -123,-102 -123,-179 0,-124 95,-200 235,-187 90,9 98,13 91,55 -3,19 -7,36 -8,38 -2,1 -24,-2 -50,-7 -57,-13 -121,2 -143,34 -8,12 -15,25 -15,29 0,5 54,8 120,8 l 120,0 0,50 c 0,126 -99,196 -227,159 z m 110,-87 c 35,-31 21,-42 -53,-42 -38,0 -70,3 -70,6 0,16 24,46 43,54 26,10 55,4 80,-18 z" inkscape:connector-curvature="0" id="path312" />
    <path d="m 24864,6746 c -18,-8 -35,-19 -38,-25 -11,-18 -26,-13 -26,9 0,17 -7,20 -51,20 l -51,0 6,-31 c 3,-17 6,-98 6,-180 l 0,-149 55,0 55,0 0,120 c 0,107 2,122 20,140 11,11 29,20 40,20 11,0 29,-9 40,-20 18,-18 20,-33 20,-140 l 0,-120 55,0 55,0 0,139 c 0,127 -2,141 -23,172 -39,57 -97,73 -163,45 z" inkscape:connector-curvature="0" id="path314" />
    <path d="m 25225,6753 c -53,-15 -95,-66 -95,-117 0,-36 46,-82 105,-104 95,-37 58,-90 -43,-63 -25,6 -46,10 -49,8 -2,-3 -8,-18 -13,-36 -10,-36 2,-46 68,-57 99,-16 185,24 198,92 11,59 -11,92 -85,128 -48,23 -66,37 -66,51 0,17 7,20 45,20 25,-1 51,-3 59,-5 19,-6 39,56 24,71 -12,12 -118,21 -148,12 z" inkscape:connector-curvature="0" id="path316" />
    <path d="m 20200,6614 c 0,-156 11,-193 65,-218 56,-27 114,-18 154,25 l 21,23 0,-27 c 0,-26 2,-27 50,-27 l 50,0 0,180 0,180 -55,0 -55,0 0,-115 c 0,-110 -1,-117 -25,-140 -29,-30 -49,-31 -75,-5 -18,18 -20,33 -20,140 l 0,120 -55,0 -55,0 0,-136 z" inkscape:connector-curvature="0" id="path318" />
    <path d="m 24500,6570 0,-180 55,0 55,0 0,180 0,180 -55,0 -55,0 0,-180 z" inkscape:connector-curvature="0" id="path320" />
  </g>
</svg>
